#N canvas 0 25 1034 552 12;
#X obj 280 268 outlet;
#X obj 109 22 r transpose-\$1;
#X obj 109 42 float;
#X msg 109 62 transpose-pd \$1;
#X obj 109 82 r volume-\$1;
#X obj 109 102 float;
#X msg 109 122 volume-pd \$1;
#X obj 109 142 r attack-\$1;
#X obj 109 162 float;
#X msg 109 182 attack-pd \$1;
#X obj 109 202 r decay-\$1;
#X obj 109 222 float;
#X msg 109 242 decay-pd \$1;
#X obj 109 262 r sustain-\$1;
#X obj 109 282 float;
#X msg 109 302 sustain-pd \$1;
#X obj 109 322 r release-\$1;
#X obj 109 342 float;
#X msg 109 362 release-pd \$1;
#X obj 109 382 r attack-f-\$1;
#X obj 109 402 float;
#X msg 109 422 attack-f-pd \$1;
#X obj 109 442 r decay-f-\$1;
#X obj 109 462 float;
#X msg 109 482 decay-f-pd \$1;
#X obj 109 502 r sustain-f-\$1;
#X obj 109 522 float;
#X msg 109 542 sustain-f-pd \$1;
#X obj 109 562 r release-f-\$1;
#X obj 109 582 float;
#X msg 109 602 release-f-pd \$1;
#X obj 109 622 r envfilt-\$1;
#X obj 109 642 float;
#X msg 109 662 envfilt-pd \$1;
#X obj 109 682 r filt_cutoff-\$1;
#X obj 109 702 float;
#X msg 109 722 filt_cutoff-pd \$1;
#X obj 109 742 r filt_q-\$1;
#X obj 109 762 float;
#X msg 109 782 filt_q-pd \$1;
#X obj 109 802 r lfospeed-\$1;
#X obj 109 822 float;
#X msg 109 842 lfospeed-pd \$1;
#X obj 109 862 r bp_wave-osc1-\$1;
#X obj 109 882 float;
#X msg 109 902 bp_wave-osc1-pd \$1;
#X obj 109 922 r osc1_tune-\$1;
#X obj 109 942 float;
#X msg 109 962 osc1_tune-pd \$1;
#X obj 109 982 r osc1_lfo-\$1;
#X obj 109 1002 float;
#X msg 109 1022 osc1_lfo-pd \$1;
#X obj 109 1042 r osc1_fm-\$1;
#X obj 109 1062 float;
#X msg 109 1082 osc1_fm-pd \$1;
#X obj 109 1102 r bp_wave-osc2-\$1;
#X obj 109 1122 float;
#X msg 109 1142 bp_wave-osc2-pd \$1;
#X obj 109 1162 r osc2_coarse-\$1;
#X obj 109 1182 float;
#X msg 109 1202 osc2_coarse-pd \$1;
#X obj 109 1222 r osc2_tune-\$1;
#X obj 109 1242 float;
#X msg 109 1262 osc2_tune-pd \$1;
#X obj 109 1282 r osc2_lfo-\$1;
#X obj 109 1302 float;
#X msg 109 1322 osc2_lfo-pd \$1;
#X obj 109 1342 r osc1_mix-\$1;
#X obj 109 1362 float;
#X msg 109 1382 osc1_mix-pd \$1;
#X obj 109 1402 r osc2_mix-\$1;
#X obj 109 1422 float;
#X msg 109 1442 osc2_mix-pd \$1;
#X obj 109 1462 r ring_mix-\$1;
#X obj 109 1482 float;
#X msg 109 1502 ring_mix-pd \$1;
#X obj 109 1522 r amod_depth-\$1;
#X obj 109 1542 float;
#X msg 109 1562 amod_depth-pd \$1;
#X obj 109 1582 r fmod_depth-\$1;
#X obj 109 1602 float;
#X msg 109 1622 fmod_depth-pd \$1;
#X obj 109 1642 r noise-\$1;
#X obj 109 1662 float;
#X msg 109 1682 noise-pd \$1;
#X obj 109 1702 r ext-\$1;
#X obj 109 1722 float;
#X msg 109 1742 ext-pd \$1;
#X obj 109 1762 r lfotype-\$1;
#X obj 109 1782 float;
#X msg 109 1802 lfotype-pd \$1;
#X obj 109 1822 r pwmspeed-\$1;
#X obj 109 1842 float;
#X msg 109 1862 pwmspeed-pd \$1;
#X obj 109 1882 r pwmdepth-\$1;
#X obj 109 1902 float;
#X msg 109 1922 pwmdepth-pd \$1;
#X obj 109 1942 r portamento-\$1;
#X obj 109 1962 float;
#X msg 109 1982 portamento-pd \$1;
#X obj 109 2002 r lfosync-\$1;
#X obj 109 2022 float;
#X msg 109 2042 lfosync-pd \$1;
#X obj 109 2062 r latch-\$1;
#X obj 109 2082 float;
#X msg 109 2102 latch-pd \$1;
#X obj 240 240 inlet;
#X connect 1 0 2 0;
#X connect 2 0 3 0;
#X connect 3 0 0 0;
#X connect 106 0 2 0;
#X connect 4 0 5 0;
#X connect 5 0 6 0;
#X connect 6 0 0 0;
#X connect 106 0 5 0;
#X connect 7 0 8 0;
#X connect 8 0 9 0;
#X connect 9 0 0 0;
#X connect 106 0 8 0;
#X connect 10 0 11 0;
#X connect 11 0 12 0;
#X connect 12 0 0 0;
#X connect 106 0 11 0;
#X connect 13 0 14 0;
#X connect 14 0 15 0;
#X connect 15 0 0 0;
#X connect 106 0 14 0;
#X connect 16 0 17 0;
#X connect 17 0 18 0;
#X connect 18 0 0 0;
#X connect 106 0 17 0;
#X connect 19 0 20 0;
#X connect 20 0 21 0;
#X connect 21 0 0 0;
#X connect 106 0 20 0;
#X connect 22 0 23 0;
#X connect 23 0 24 0;
#X connect 24 0 0 0;
#X connect 106 0 23 0;
#X connect 25 0 26 0;
#X connect 26 0 27 0;
#X connect 27 0 0 0;
#X connect 106 0 26 0;
#X connect 28 0 29 0;
#X connect 29 0 30 0;
#X connect 30 0 0 0;
#X connect 106 0 29 0;
#X connect 31 0 32 0;
#X connect 32 0 33 0;
#X connect 33 0 0 0;
#X connect 106 0 32 0;
#X connect 34 0 35 0;
#X connect 35 0 36 0;
#X connect 36 0 0 0;
#X connect 106 0 35 0;
#X connect 37 0 38 0;
#X connect 38 0 39 0;
#X connect 39 0 0 0;
#X connect 106 0 38 0;
#X connect 40 0 41 0;
#X connect 41 0 42 0;
#X connect 42 0 0 0;
#X connect 106 0 41 0;
#X connect 43 0 44 0;
#X connect 44 0 45 0;
#X connect 45 0 0 0;
#X connect 106 0 44 0;
#X connect 46 0 47 0;
#X connect 47 0 48 0;
#X connect 48 0 0 0;
#X connect 106 0 47 0;
#X connect 49 0 50 0;
#X connect 50 0 51 0;
#X connect 51 0 0 0;
#X connect 106 0 50 0;
#X connect 52 0 53 0;
#X connect 53 0 54 0;
#X connect 54 0 0 0;
#X connect 106 0 53 0;
#X connect 55 0 56 0;
#X connect 56 0 57 0;
#X connect 57 0 0 0;
#X connect 106 0 56 0;
#X connect 58 0 59 0;
#X connect 59 0 60 0;
#X connect 60 0 0 0;
#X connect 106 0 59 0;
#X connect 61 0 62 0;
#X connect 62 0 63 0;
#X connect 63 0 0 0;
#X connect 106 0 62 0;
#X connect 64 0 65 0;
#X connect 65 0 66 0;
#X connect 66 0 0 0;
#X connect 106 0 65 0;
#X connect 67 0 68 0;
#X connect 68 0 69 0;
#X connect 69 0 0 0;
#X connect 106 0 68 0;
#X connect 70 0 71 0;
#X connect 71 0 72 0;
#X connect 72 0 0 0;
#X connect 106 0 71 0;
#X connect 73 0 74 0;
#X connect 74 0 75 0;
#X connect 75 0 0 0;
#X connect 106 0 74 0;
#X connect 76 0 77 0;
#X connect 77 0 78 0;
#X connect 78 0 0 0;
#X connect 106 0 77 0;
#X connect 79 0 80 0;
#X connect 80 0 81 0;
#X connect 81 0 0 0;
#X connect 106 0 80 0;
#X connect 82 0 83 0;
#X connect 83 0 84 0;
#X connect 84 0 0 0;
#X connect 106 0 83 0;
#X connect 85 0 86 0;
#X connect 86 0 87 0;
#X connect 87 0 0 0;
#X connect 106 0 86 0;
#X connect 88 0 89 0;
#X connect 89 0 90 0;
#X connect 90 0 0 0;
#X connect 106 0 89 0;
#X connect 91 0 92 0;
#X connect 92 0 93 0;
#X connect 93 0 0 0;
#X connect 106 0 92 0;
#X connect 94 0 95 0;
#X connect 95 0 96 0;
#X connect 96 0 0 0;
#X connect 106 0 95 0;
#X connect 97 0 98 0;
#X connect 98 0 99 0;
#X connect 99 0 0 0;
#X connect 106 0 98 0;
#X connect 100 0 101 0;
#X connect 101 0 102 0;
#X connect 102 0 0 0;
#X connect 106 0 101 0;
#X connect 103 0 104 0;
#X connect 104 0 105 0;
#X connect 105 0 0 0;
#X connect 106 0 104 0;
