#N canvas -8 -8 1366 725 10;
#X obj 102 96 osc~;
#X obj 221 90 phasor~;
#X obj 612 43 r lfotype-\$1;
#X obj 493 109 brownian;
#X obj 151 328 *~ 0;
#X obj 303 288 *~ 0;
#X obj 132 275 +~ 1;
#X obj 129 304 *~ 0.5;
#X obj 303 209 expr~ ($v1>0.5);
#X obj 239 298 *~ 0;
#X obj 107 29 r lfospeed-\$1;
#X obj 822 296 t f f;
#X obj 863 391 noise~;
#X obj 907 526 fexpr~ $x1[0]+ $y1[-1]*0.999;
#X obj 913 604 expr~ sin($v1);
#X obj 891 465 *~ 1;
#X obj 899 250 hsl 128 15 0.01 10 1 0 empty empty empty -2 -8 0 10
-262144 -1 -1 0 1;
#X obj 928 336 nbx 5 14 -1e+037 1e+037 0 0 empty empty empty 0 -8 0
10 -262144 -1 -1 0 256;
#X obj 903 500 fexpr~ $x1[0]+ $y1[-1]*$f2;
#X obj 1017 423 nbx 5 14 -1e+037 1e+037 0 0 empty empty empty 0 -8
0 10 -262144 -1 -1 0 256;
#X obj 1017 372 + 1;
#X obj 1021 352 / -1000;
#X obj 866 430 lop~ 1;
#X obj 826 81 hsl 128 15 1 4 0 0 empty empty empty -2 -8 0 10 -262144
-1 -1 0 1;
#X obj 751 231 nbx 9 14 -1e+037 1e+037 0 0 empty empty empty 0 -8 0
10 -262144 -1 -1 0 256;
#X obj 784 209 / 1000;
#X obj 824 173 pow 1;
#X obj 851 116 t b f;
#X msg 843 140 10;
#X obj 820 31 r speed-\$1;
#X text 922 37 1-4;
#X obj 933 558 /~ 4500;
#X connect 0 0 6 0;
#X connect 1 0 8 0;
#X connect 1 0 9 0;
#X connect 6 0 7 0;
#X connect 7 0 4 0;
#X connect 8 0 5 0;
#X connect 10 0 0 0;
#X connect 10 0 1 0;
#X connect 12 0 22 0;
#X connect 13 0 31 0;
#X connect 15 0 18 0;
#X connect 16 0 17 0;
#X connect 17 0 15 1;
#X connect 17 0 21 0;
#X connect 18 0 13 0;
#X connect 19 0 18 1;
#X connect 20 0 19 0;
#X connect 21 0 20 0;
#X connect 22 0 15 0;
#X connect 23 0 27 0;
#X connect 24 0 17 0;
#X connect 25 0 24 0;
#X connect 26 0 25 0;
#X connect 27 0 28 0;
#X connect 27 1 26 1;
#X connect 28 0 26 0;
#X connect 29 0 23 0;
#X connect 31 0 14 0;
