#N canvas 238 115 1023 761 10;
#X obj 543 43 r notesIn-\$1;
#X obj 556 459 outlet~ outL-\$1;
#X obj 706 459 outlet~ outR-\$1;
#N canvas 1108 472 785 572 load 0;
#X obj 38 51 load-24 1 s24 \$1;
#X obj 38 71 load-24 2 s24 \$1;
#X obj 38 91 load-24 3 s24 \$1;
#X obj 38 111 load-24 4 s24 \$1;
#X obj 38 131 load-24 5 s24 \$1;
#X obj 38 151 load-24 6 s24 \$1;
#X obj 39 171 load-24 7 s24 \$1;
#X obj 38 191 load-24 8 s24 \$1;
#X obj 38 211 load-24 9 s24 \$1;
#X obj 38 231 load-24 10 s24 \$1;
#X obj 38 251 load-24 11 s24 \$1;
#X obj 38 271 load-24 12 s24 \$1;
#X obj 148 51 load-24 13 s24 \$1;
#X obj 148 71 load-24 14 s24 \$1;
#X obj 148 91 load-24 15 s24 \$1;
#X obj 148 111 load-24 16 s24 \$1;
#X obj 148 131 load-24 17 s24 \$1;
#X obj 148 151 load-24 18 s24 \$1;
#X obj 149 171 load-24 19 s24 \$1;
#X obj 148 191 load-24 20 s24 \$1;
#X obj 148 211 load-24 21 s24 \$1;
#X obj 148 231 load-24 22 s24 \$1;
#X obj 148 251 load-24 23 s24 \$1;
#X obj 148 271 load-24 24 s24 \$1;
#X restore 743 43 pd load sounds;
#X text 855 43 Loads samples to Ram;
#X text 887 71 clickless looping;
#N canvas 305 107 1611 910 synth 0;
#X obj 83 223 abs;
#X obj 83 182 expr if ($f1 > 59 \, $f1 - 60 \, $f1 - 12);
#X text 89 202 allow all midi notes to trigger samples...;
#X text 178 283 Notes in to Sampler Player;
#X obj 83 271 + 1;
#X obj 76 31 inlet;
#X obj 429 57 inlet ctrl;
#X obj 134 600 s24-voice \$1;
#X obj 134 494 pack 0 0 0;
#X obj 177 621 s24-voice \$1;
#X obj 652 660 s24-voice \$1;
#X obj 522 660 s24-voice \$1;
#X obj 765 640 s24-voice \$1;
#X obj 272 620 s24-voice \$1;
#X obj 403 660 s24-voice \$1;
#X obj 243 600 s24-voice \$1;
#X obj 374 624 s24-voice \$1;
#X obj 504 640 s24-voice \$1;
#X obj 634 640 s24-voice \$1;
#X obj 782 661 s24-voice \$1;
#N canvas 324 629 450 300 route 0;
#X obj 69 97 unpack 0 0 0;
#X obj 68 68 t l l;
#X obj 68 197 list;
#X obj 139 144 t b;
#X obj 139 123 route 1 0;
#X obj 226 163 unpack 0 0 0;
#X obj 226 194 pack 0 0 0;
#X obj 68 19 inlet msg;
#X obj 68 218 outlet global;
#X obj 226 215 outlet voice;
#X obj 187 162 - 1;
#X connect 0 2 4 0;
#X connect 1 0 0 0;
#X connect 1 1 2 1;
#X connect 1 1 5 0;
#X connect 2 0 8 0;
#X connect 3 0 2 0;
#X connect 4 0 3 0;
#X connect 4 1 3 0;
#X connect 4 2 10 0;
#X connect 5 0 6 1;
#X connect 5 1 6 2;
#X connect 6 0 9 0;
#X connect 7 0 1 0;
#X connect 10 0 6 0;
#X restore 131 384 pd route;
#N canvas 324 629 450 300 route 0;
#X obj 69 97 unpack 0 0 0;
#X obj 68 68 t l l;
#X obj 68 197 list;
#X obj 139 144 t b;
#X obj 139 123 route 1 0;
#X obj 234 171 unpack 0 0 0;
#X obj 234 202 pack 0 0 0;
#X obj 68 19 inlet msg;
#X obj 68 218 outlet global;
#X obj 234 223 outlet voice;
#X obj 190 158 - 1;
#X connect 0 2 4 0;
#X connect 1 0 0 0;
#X connect 1 1 2 1;
#X connect 1 1 5 0;
#X connect 2 0 8 0;
#X connect 3 0 2 0;
#X connect 4 0 3 0;
#X connect 4 1 3 0;
#X connect 4 2 10 0;
#X connect 5 0 6 1;
#X connect 5 1 6 2;
#X connect 6 0 9 0;
#X connect 7 0 1 0;
#X connect 10 0 6 0;
#X restore 553 146 pd route;
#X obj 76 58 unpack 0 0 0;
#X obj 83 301 pack 0 0 0;
#X obj 820 125 unpack 0 0 0;
#X obj 820 146 sel 123;
#X msg 820 167 stop;
#X obj 604 430 route 1 2 3 4 5 6 7 8 9 10 11 12 13 14 15 16 17 18 19
20 21 22 23 24, f 106;
#X obj 134 535 route 1 2 3 4 5 6 7 8 9 10 11 12 13 14 15 16 17 18 19
20 21 22 23 24, f 106;
#X obj 884 600 s24-voice \$1;
#X obj 927 621 s24-voice \$1;
#X obj 1402 660 s24-voice \$1;
#X obj 1272 660 s24-voice \$1;
#X obj 1515 640 s24-voice \$1;
#X obj 1022 620 s24-voice \$1;
#X obj 1153 660 s24-voice \$1;
#X obj 993 600 s24-voice \$1;
#X obj 1124 624 s24-voice \$1;
#X obj 1254 640 s24-voice \$1;
#X obj 1384 640 s24-voice \$1;
#X obj 1532 661 s24-voice \$1;
#X obj 134 472 poly 24 1, f 10;
#X obj 83 249 % 24;
#X connect 0 0 42 0;
#X connect 1 0 0 0;
#X connect 4 0 23 0;
#X connect 5 0 22 0;
#X connect 6 0 21 0;
#X connect 6 0 24 0;
#X connect 8 0 28 0;
#X connect 20 0 41 0;
#X connect 20 1 28 0;
#X connect 21 0 7 1;
#X connect 21 0 40 1;
#X connect 21 0 39 1;
#X connect 21 0 38 1;
#X connect 21 0 37 1;
#X connect 21 0 36 1;
#X connect 21 0 35 1;
#X connect 21 0 34 1;
#X connect 21 0 33 1;
#X connect 21 0 32 1;
#X connect 21 0 31 1;
#X connect 21 0 30 1;
#X connect 21 0 29 1;
#X connect 21 0 19 1;
#X connect 21 0 18 1;
#X connect 21 0 17 1;
#X connect 21 0 16 1;
#X connect 21 0 15 1;
#X connect 21 0 14 1;
#X connect 21 0 13 1;
#X connect 21 0 12 1;
#X connect 21 0 11 1;
#X connect 21 0 10 1;
#X connect 21 0 9 1;
#X connect 21 1 27 0;
#X connect 22 0 1 0;
#X connect 22 1 23 1;
#X connect 22 2 23 2;
#X connect 23 0 20 0;
#X connect 24 0 25 0;
#X connect 25 0 26 0;
#X connect 26 0 41 0;
#X connect 27 0 7 1;
#X connect 27 1 9 1;
#X connect 27 2 15 1;
#X connect 27 3 13 1;
#X connect 27 4 16 1;
#X connect 27 5 14 1;
#X connect 27 6 17 1;
#X connect 27 7 11 1;
#X connect 27 8 18 1;
#X connect 27 9 10 1;
#X connect 27 10 12 1;
#X connect 27 11 19 1;
#X connect 27 12 29 1;
#X connect 27 13 30 1;
#X connect 27 14 36 1;
#X connect 27 15 34 1;
#X connect 27 16 37 1;
#X connect 27 17 35 1;
#X connect 27 18 38 1;
#X connect 27 19 32 1;
#X connect 27 20 39 1;
#X connect 27 21 31 1;
#X connect 27 23 33 1;
#X connect 27 24 40 1;
#X connect 28 0 7 0;
#X connect 28 1 9 0;
#X connect 28 2 15 0;
#X connect 28 3 13 0;
#X connect 28 4 16 0;
#X connect 28 5 14 0;
#X connect 28 6 17 0;
#X connect 28 7 11 0;
#X connect 28 8 18 0;
#X connect 28 9 10 0;
#X connect 28 10 12 0;
#X connect 28 11 19 0;
#X connect 28 12 29 0;
#X connect 28 13 30 0;
#X connect 28 14 36 0;
#X connect 28 15 34 0;
#X connect 28 16 37 0;
#X connect 28 17 35 0;
#X connect 28 18 38 0;
#X connect 28 19 32 0;
#X connect 28 20 39 0;
#X connect 28 21 31 0;
#X connect 28 22 33 0;
#X connect 28 23 40 0;
#X connect 41 0 8 0;
#X connect 41 1 8 1;
#X connect 41 2 8 2;
#X connect 42 0 4 0;
#X restore 543 79 pd synth;
#X text 610 79 the synth;
#X obj 743 117 s s24-\$1-release-local;
#X obj 743 99 r s24_release-\$1;
#X obj 743 71 crown-window s24 \$1;
#X obj 588 61 r ctrlIn-\$1;
#X obj 542 105 r auxIn-\$1;
#X obj 497 133 spigot 0;
#X obj 497 169 - 59;
#X obj 561 151 s aux-led-\$1;
#X obj 582 287 s rackMsgs;
#X obj 582 223 symbol \$1;
#X msg 582 269 setparam \$1 s_kit \$2;
#X obj 497 187 / 24;
#X obj 497 151 unpack;
#X obj 582 251 pack s 1;
#X obj 452 295 s screenLine5;
#X obj 497 205 t b b f, f 29;
#X obj 497 241 f;
#X obj 512 223 r s_kit-\$1;
#X obj 689 119 sel 1;
#X obj 716 265 s oscOut;
#X obj 561 133 * 2;
#X obj 497 25 r onotes;
#X obj 310 64 sel \$1;
#X obj 310 26 unpack s s;
#X obj 310 8 r activePage;
#X obj 352 112 &&;
#X msg 367 82 1;
#X msg 472 82 0;
#X msg 310 82 1;
#X msg 343 82 0;
#X obj 352 158 sel 1;
#X obj 352 130 change;
#X obj 352 204 delay 500;
#X msg 379 176 stop;
#X obj 237 245 symbol;
#X obj 452 259 pack s f;
#X msg 452 277 \$1 /kit-\$2;
#X obj 556 431 catch~ s24-\$1-voice-outL;
#X obj 706 431 catch~ s24-\$1-voice-outR;
#N canvas 951 297 511 678 waveformReader 0;
#X obj 56 16 inlet;
#X obj 221 529 list prepend;
#X obj 71 319 until;
#X obj 71 347 f 0;
#X obj 329 529 t l;
#X obj 71 365 i;
#X obj 71 401 * 0.5;
#X obj 71 419 + 0.5;
#X obj 71 493 i;
#X msg 19 529 sendtyped /oled/gWaveform ib 3;
#X obj 19 657 list append;
#X obj 19 675 list trim;
#X obj 19 693 outlet;
#X msg 107 319 0;
#N canvas 4 50 450 250 (subpatch) 0;
#X array scope-\$1 8320 float 2;
#X coords 0 1 8320 -1 128 64 1 0 0;
#X restore 271 94 graph;
#X obj 56 34 t b b b b b b;
#X obj 140 34 inlet~;
#X obj 131 90 tabwrite~ scope-\$1;
#X obj 71 383 tabread scope-\$1;
#X msg 71 297 128;
#X obj 197 208 + 1;
#X floatatom 197 236 5 0 0 0 - - -;
#X obj 197 154 * -1;
#X obj 197 172 + 1;
#X obj 197 190 * 12;
#X obj 286 180 inlet;
#X obj 115 347 + 13;
#X obj 197 136 spigot;
#X msg 307 208 13;
#X obj 257 170 tgl 15 0 empty empty empty 17 7 0 10 -262144 -1 -1 0
1;
#X obj 197 108 r oknob3;
#X obj 71 437 * 26;
#X obj 71 455 + 27;
#X obj 71 475 clip 27 53;
#X connect 0 0 15 0;
#X connect 1 0 4 0;
#X connect 1 0 10 1;
#X connect 2 0 3 0;
#X connect 3 0 5 0;
#X connect 3 0 26 0;
#X connect 4 0 1 1;
#X connect 5 0 18 0;
#X connect 6 0 7 0;
#X connect 7 0 31 0;
#X connect 8 0 1 0;
#X connect 9 0 10 0;
#X connect 10 0 11 0;
#X connect 11 0 12 0;
#X connect 13 0 3 1;
#X connect 15 0 9 0;
#X connect 15 1 19 0;
#X connect 15 2 13 0;
#X connect 15 3 1 0;
#X connect 15 4 1 1;
#X connect 15 5 17 0;
#X connect 16 0 17 0;
#X connect 18 0 6 0;
#X connect 19 0 2 0;
#X connect 20 0 21 0;
#X connect 21 0 26 1;
#X connect 22 0 23 0;
#X connect 23 0 24 0;
#X connect 24 0 20 0;
#X connect 25 0 29 0;
#X connect 25 0 28 0;
#X connect 26 0 3 1;
#X connect 27 0 22 0;
#X connect 28 0 21 0;
#X connect 29 0 27 1;
#X connect 30 0 27 0;
#X connect 31 0 32 0;
#X connect 32 0 33 0;
#X connect 33 0 8 0;
#X restore 295 662 pd waveformReader;
#X msg 213 662 /oled/gFlip 3;
#X text 126 429 page and module is active;
#X obj 295 709 s oscOutRaw;
#X obj 290 525 metro 40;
#X msg 513 345 1;
#X obj 474 611 clip~ -0.99 0.99;
#X obj 474 575 +~;
#X obj 474 593 /~ 2;
#X obj 290 331 sel 1, f 20;
#X obj 290 373 delay 500;
#X msg 407 359 stop;
#X msg 13 662 /oled/gFillArea 3 0 50 128 14 0;
#X obj 290 554 t b b b;
#X msg 403 662 /oled/gFillArea 3 0 27 128 26 0;
#X msg 689 237 /oled/gPrintln 3 63 54 8 1 (press key);
#X msg 716 209 /oled/gPrintln 3 63 54 8 0 (press key);
#X obj 367 64 sel pg_percussions;
#X connect 0 0 6 0;
#X connect 9 0 8 0;
#X connect 11 0 6 1;
#X connect 12 0 13 1;
#X connect 12 0 26 0;
#X connect 12 0 28 0;
#X connect 13 0 20 0;
#X connect 14 0 19 0;
#X connect 17 0 21 0;
#X connect 18 0 16 0;
#X connect 19 0 23 0;
#X connect 20 0 14 0;
#X connect 21 0 18 0;
#X connect 23 0 42 0;
#X connect 23 0 24 0;
#X connect 23 1 17 0;
#X connect 23 2 21 1;
#X connect 24 0 43 1;
#X connect 25 0 24 1;
#X connect 26 0 62 0;
#X connect 26 1 63 0;
#X connect 28 0 15 0;
#X connect 29 0 13 0;
#X connect 30 0 36 0;
#X connect 30 1 37 0;
#X connect 31 0 30 0;
#X connect 31 0 42 1;
#X connect 31 1 64 0;
#X connect 32 0 31 0;
#X connect 33 0 39 0;
#X connect 34 0 33 1;
#X connect 35 0 33 1;
#X connect 36 0 33 0;
#X connect 37 0 33 0;
#X connect 38 0 40 0;
#X connect 38 1 41 0;
#X connect 39 0 38 0;
#X connect 39 0 56 0;
#X connect 40 0 24 0;
#X connect 40 0 42 0;
#X connect 41 0 40 0;
#X connect 42 0 43 0;
#X connect 43 0 44 0;
#X connect 44 0 22 0;
#X connect 45 0 1 0;
#X connect 45 0 54 0;
#X connect 46 0 2 0;
#X connect 46 0 54 1;
#X connect 47 0 50 0;
#X connect 48 0 50 0;
#X connect 51 0 60 0;
#X connect 52 0 47 2;
#X connect 53 0 47 1;
#X connect 54 0 55 0;
#X connect 55 0 53 0;
#X connect 56 0 52 0;
#X connect 56 0 57 0;
#X connect 56 1 58 0;
#X connect 56 1 59 0;
#X connect 57 0 51 0;
#X connect 58 0 57 0;
#X connect 58 0 51 0;
#X connect 59 0 50 0;
#X connect 60 0 48 0;
#X connect 60 1 47 0;
#X connect 60 2 61 0;
#X connect 61 0 50 0;
#X connect 62 0 27 0;
#X connect 63 0 27 0;
#X connect 64 0 34 0;
#X connect 64 1 35 0;
