#N canvas 545 108 1371 914 10;
#X obj 213 532 expr 1000 / $f1;
#X obj 213 578 *, f 6;
#X obj 218 560 t b f;
#X obj 51 303 array size;
#X obj 118 287 route list;
#X obj 59 21 inlet;
#X obj 111 81 unpack 0 0, f 54;
#X obj 448 292 sel 0, f 17;
#X obj 547 565 vline~;
#X obj 547 595 *~;
#X obj 547 468 * 0.00787402;
#X obj 212 892 *~, f 43;
#X text 267 8 plays a sound file;
#X obj 213 748 *~ 140688, f 12;
#X obj 219 835 *~, f 20;
#X text 97 833 clickless window;
#X obj 211 799 tabread4~;
#X msg 487 490 0 \$1;
#X obj 482 430 f;
#X obj 213 922 hip~ 5;
#X text 262 921 cut DC;
#X text 529 440 Velocity Relative Trigger;
#X text 430 511 turn dsp off;
#X obj 547 337 t f b b, f 23;
#X text 95 319 get size of chosen array;
#X text 75 748 point to new array;
#X text 596 356 reset phasor;
#X obj 448 226 f;
#X text 99 891 release envelope;
#X msg 547 528 \$1 4;
#X obj 9 395 s \$0-duration;
#X obj 51 371 s \$0-duration-ms;
#X obj 51 345 / 44.1;
#X obj 293 695 r \$0-duration;
#X obj 500 368 r s24-\$1-release-local;
#X obj 118 260 list prepend symbol;
#X text 265 30 Argument1: Module Shortcut Name;
#X text 267 50 Argument2: Module Number;
#X obj 213 514 r \$0-duration-ms;
#X obj 80 144 f;
#X obj 59 59 t b l;
#X obj 57 677 route list;
#X obj 57 650 list prepend set;
#X obj 51 234 t b a a, f 12;
#X obj 212 770 +~ 1;
#X obj 347 760 +~ 1;
#X obj 347 811 *~, f 4;
#X obj 293 717 - 2;
#X obj 347 738 *~ 22048;
#X obj 705 651 switch~;
#X msg 705 398 1;
#X msg 448 526 0;
#X obj 348 787 tabread4~ s24-\$1-crown;
#X obj 125 149 symbol \$1;
#X obj 59 111 t b b b;
#X obj 91 185 pack 0 sym;
#X obj 440 455 delay;
#X obj 448 334 t b b, f 7;
#X obj 213 698 s_vphasor \$1;
#X obj 795 81 inlet ctrl;
#X obj 748 168 - 0.5;
#X obj 742 222 t b f;
#X obj 902 100 r pb_range-\$1;
#X obj 902 121 * 2;
#X obj 748 189 * 2;
#X obj 790 123 route 0 2 123;
#X obj 854 185 t b;
#X obj 315 511 mtof;
#X obj 315 530 / 8.175;
#X obj 315 495 nbx 5 14 -1e+37 1e+37 0 0 empty empty empty 0 -8 0 10
-262144 -1 -1 0 256;
#X obj 315 548 nbx 5 14 -1e+37 1e+37 0 0 empty empty empty 0 -8 0 10
-262144 -1 -1 0 256;
#X obj 315 477 r s24_transpose-\$1;
#X obj 213 950 throw~ s24-\$1-voice-outL;
#X msg 51 209 \$1-s24-arrayL-\$2;
#X obj 241 303 array size;
#X obj 308 287 route list;
#X obj 199 395 s \$0-duration;
#X obj 241 371 s \$0-duration-ms;
#X obj 241 345 / 44.1;
#X obj 308 260 list prepend symbol;
#X obj 241 234 t b a a, f 12;
#X msg 241 209 \$1-s24-arrayR-\$2;
#X obj 512 892 *~, f 43;
#X obj 519 865 *~, f 20;
#X obj 511 829 tabread4~;
#X obj 513 922 hip~ 5;
#X text 562 921 cut DC;
#X obj 422 677 route list;
#X obj 422 650 list prepend set;
#X obj 513 950 throw~ s24-\$1-voice-outR;
#X connect 0 0 1 0;
#X connect 1 0 58 0;
#X connect 2 0 1 0;
#X connect 2 1 1 1;
#X connect 3 0 32 0;
#X connect 3 0 30 0;
#X connect 4 0 3 1;
#X connect 5 0 40 0;
#X connect 6 0 39 1;
#X connect 6 1 27 1;
#X connect 7 0 57 0;
#X connect 7 1 23 0;
#X connect 8 0 9 1;
#X connect 8 0 9 0;
#X connect 9 0 11 1;
#X connect 9 0 82 1;
#X connect 10 0 29 0;
#X connect 11 0 19 0;
#X connect 13 0 44 0;
#X connect 14 0 11 0;
#X connect 16 0 14 0;
#X connect 17 0 8 0;
#X connect 18 0 17 0;
#X connect 18 0 56 1;
#X connect 19 0 72 0;
#X connect 23 0 10 0;
#X connect 23 1 58 1;
#X connect 23 2 50 0;
#X connect 27 0 7 0;
#X connect 29 0 8 0;
#X connect 32 0 31 0;
#X connect 33 0 47 0;
#X connect 34 0 18 1;
#X connect 35 0 4 0;
#X connect 38 0 0 0;
#X connect 39 0 55 0;
#X connect 40 0 54 0;
#X connect 40 1 6 0;
#X connect 41 0 16 0;
#X connect 42 0 41 0;
#X connect 43 0 3 0;
#X connect 43 1 35 0;
#X connect 43 2 42 0;
#X connect 44 0 16 0;
#X connect 44 0 84 0;
#X connect 45 0 52 0;
#X connect 46 0 14 1;
#X connect 46 0 83 1;
#X connect 47 0 13 1;
#X connect 48 0 45 0;
#X connect 50 0 49 0;
#X connect 51 0 49 0;
#X connect 52 0 46 0;
#X connect 52 0 46 1;
#X connect 53 0 55 1;
#X connect 54 0 27 0;
#X connect 54 1 39 0;
#X connect 54 2 53 0;
#X connect 55 0 73 0;
#X connect 55 0 81 0;
#X connect 56 0 51 0;
#X connect 57 0 56 0;
#X connect 57 1 18 0;
#X connect 58 0 13 0;
#X connect 58 0 48 0;
#X connect 60 0 64 0;
#X connect 61 0 7 0;
#X connect 62 0 63 0;
#X connect 63 0 64 1;
#X connect 64 0 61 0;
#X connect 65 0 60 0;
#X connect 65 2 66 0;
#X connect 67 0 68 0;
#X connect 68 0 70 0;
#X connect 69 0 67 0;
#X connect 70 0 2 0;
#X connect 71 0 69 0;
#X connect 73 0 43 0;
#X connect 74 0 78 0;
#X connect 74 0 76 0;
#X connect 75 0 74 1;
#X connect 78 0 77 0;
#X connect 79 0 75 0;
#X connect 80 0 74 0;
#X connect 80 1 79 0;
#X connect 80 2 88 0;
#X connect 81 0 80 0;
#X connect 82 0 85 0;
#X connect 83 0 82 0;
#X connect 84 0 83 0;
#X connect 85 0 89 0;
#X connect 87 0 84 0;
#X connect 88 0 87 0;
