#N canvas 0 50 892 447 10;
#X obj 125 36 inlet~;
#X obj 173 38 inlet~;
#X obj 221 40 inlet~;
#X obj 269 42 inlet~;
#X obj 146 212 outlet~;
#X obj 360 18 inlet;
#X obj 102 116 *~ 0;
#X obj 149 122 *~ 0;
#X obj 215 123 *~ 0;
#X obj 262 129 *~ 0;
#X obj 356 48 unpack 0 0 0 0 0 0 0 0;
#X obj 403 242 outlet~;
#X obj 359 146 *~ 0;
#X obj 406 152 *~ 0;
#X obj 472 153 *~ 0;
#X obj 519 159 *~ 0;
#X connect 0 0 6 0;
#X connect 0 0 12 0;
#X connect 1 0 7 0;
#X connect 1 0 13 0;
#X connect 2 0 8 0;
#X connect 2 0 14 0;
#X connect 3 0 9 0;
#X connect 3 0 15 0;
#X connect 5 0 10 0;
#X connect 6 0 4 0;
#X connect 7 0 4 0;
#X connect 8 0 4 0;
#X connect 9 0 4 0;
#X connect 10 0 6 1;
#X connect 10 1 7 1;
#X connect 10 2 8 1;
#X connect 10 3 9 1;
#X connect 10 4 12 1;
#X connect 10 5 13 1;
#X connect 10 6 14 1;
#X connect 10 7 15 1;
#X connect 12 0 11 0;
#X connect 13 0 11 0;
#X connect 14 0 11 0;
#X connect 15 0 11 0;
