#N canvas 13 67 1351 720 10;
#X obj 304 186 r notesIn-\$1;
#X obj 304 491 s notesOut-\$1;
#X obj 25 186 inlet~ inL-\$1;
#X obj 135 186 inlet~ inR-\$1;
#X obj 27 491 outlet~ outL-\$1;
#X obj 136 491 outlet~ outR-\$1;
#X obj 424 185 r auxIn-\$1;
#X obj 423 208 r expIn-\$1;
#X obj 423 233 r fsIn-\$1;
#X obj 25 376 +~;
#X obj 136 381 +~;
#X obj 472 324 s addsyn-\$0-tune;
#X obj 706 432 s screenLine5;
#X obj 472 357 r addsyn-\$0-tune-label;
#X obj 698 323 s addsyn-\$0-freqset;
#X obj 694 360 r addsyn-\$0-freqset-label;
#X obj 892 368 r addsyn-\$0-filterRez-label;
#X obj 1103 378 r addsyn-\$0-filterPole-label;
#X obj 268 288 AddSynth \$0 \$1;
#X obj 697 294 r r_preset-\$1;
#X floatatom 666 253 5 0 0 0 - - -;
#X obj 472 299 r r_trans-\$1;
#X obj 904 281 / 100;
#X obj 1076 277 / 100;
#X obj 231 229 ../../../../in_tester;
#X obj 217 441 C:/users/alexd_000/Documents/PD/out_tester;
#X obj 917 245 nbx 5 14 -1e+37 1e+37 0 0 empty empty empty 0 -8 0 10
-262144 -1 -1 0 256;
#X obj 1074 231 nbx 5 14 -1e+37 1e+37 0 0 empty empty empty 0 -8 0
10 -262144 -1 -1 0 256;
#X obj 512 222 nbx 5 14 -1e+37 1e+37 0 0 empty empty empty 0 -8 0 10
-262144 -1 -1 0 256;
#X obj 491 522 s loadbang-\$1;
#X obj 505 485 bng 15 250 50 0 empty empty empty 17 7 0 10 -262144
-1 -1;
#X obj 1106 352 s addsyn-\$0-filterPole;
#X obj 893 336 s addsyn-\$0-filterRez;
#X obj 906 220 r r_res-\$1;
#X obj 1059 184 r r_freq-\$1;
#X connect 0 0 1 0;
#X connect 0 0 18 0;
#X connect 9 0 4 0;
#X connect 10 0 5 0;
#X connect 15 0 12 0;
#X connect 18 0 9 1;
#X connect 18 0 10 1;
#X connect 18 0 25 0;
#X connect 18 0 25 1;
#X connect 19 0 14 0;
#X connect 20 0 14 0;
#X connect 21 0 11 0;
#X connect 22 0 32 0;
#X connect 23 0 31 0;
#X connect 24 2 18 0;
#X connect 26 0 22 0;
#X connect 27 0 23 0;
#X connect 28 0 11 0;
#X connect 30 0 29 0;
#X connect 33 0 22 0;
#X connect 34 0 23 0;
#X connect 34 0 27 0;
