#N canvas 89 82 1351 716 10;
#X text 299 98 aircraft carrier;
#X obj 137 41 inlet;
#X obj 235 546 outlet~;
#X obj 850 346 r filt_cutoff-\$1;
#X obj 854 399 lop~ 5;
#X obj 865 433 s~ filt_cuttoff_sig-\$1;
#X obj 854 376 sig~ 12;
#X obj 336 310 r volume-\$1;
#X obj 347 354 * 0.005;
#X obj 270 411 lop~ 5;
#X obj 332 386 sig~ 0.35;
#X obj 191 402 *~;
#X obj 255 5 r ctrlIn-\$1;
#X obj 255 33 unpack 0 0 0;
#X obj 255 54 sel 123;
#X msg 253 77 stop;
#X obj 690 449 s aux-label-\$1;
#X obj 656 316 sel 0 1 2 3 4 5;
#X msg 609 381 LFO: Sin;
#X msg 630 399 LFO: Tri;
#X msg 671 377 LFO: Saw;
#X msg 691 395 LFO: Sqr;
#X msg 736 374 LFO: S/H;
#X obj 233 197 notein_mono;
#X obj 224 255 voice \$1;
#X obj 427 82 inlet~;
#X msg 752 397 LFO: Random;
#X obj 642 293 r lfolabel-\$1;
#X connect 1 0 23 0;
#X connect 3 0 6 0;
#X connect 4 0 5 0;
#X connect 6 0 4 0;
#X connect 7 0 8 0;
#X connect 8 0 10 0;
#X connect 9 0 11 1;
#X connect 10 0 9 0;
#X connect 11 0 2 0;
#X connect 12 0 13 0;
#X connect 13 0 14 0;
#X connect 14 0 15 0;
#X connect 15 0 23 1;
#X connect 17 0 18 0;
#X connect 17 1 19 0;
#X connect 17 2 20 0;
#X connect 17 3 21 0;
#X connect 17 4 22 0;
#X connect 17 5 26 0;
#X connect 18 0 16 0;
#X connect 19 0 16 0;
#X connect 20 0 16 0;
#X connect 21 0 16 0;
#X connect 22 0 16 0;
#X connect 23 0 24 0;
#X connect 23 1 24 1;
#X connect 24 0 11 0;
#X connect 25 0 24 2;
#X connect 26 0 16 0;
#X connect 27 0 17 0;
