#N canvas 0 28 1366 725 10;
#X obj 123 14 inlet;
#X obj 514 13 inlet~;
#X obj 187 583 outlet~;
#X obj 571 334 plts~;
#X msg 602 163 model \$1;
#X obj 602 101 r model-\$1;
#X msg 665 152 harmonics \$1;
#X msg 836 579 timbre \$1;
#X msg 640 575 morph \$1;
#X msg 768 195 lpg_colour \$1;
#X msg 1093 166 decay \$1;
#X msg 876 169 mod_fm \$1;
#X msg 899 192 mod_morph \$1;
#X msg 852 146 mod_timbre \$1;
#X msg 628 225 trigger \$1;
#X obj 679 72 r harmonics-\$1;
#X obj 821 401 r timbre-\$1;
#X obj 643 453 r morph-\$1;
#X obj 798 102 r lpg_colour-\$1;
#X obj 848 50 r mod_timbre-\$1;
#X obj 907 73 r mod_fm-\$1;
#X obj 950 114 r mod_morph-\$1;
#X msg 531 245 pitch \$1;
#X obj 536 157 - 60;
#X obj 551 187 / 12;
#X obj 801 252 r trigger_active-\$1;
#X msg 789 283 trigger_active \$1;
#X obj 567 34 t b f;
#X obj 670 112 / 100;
#X obj 822 497 / 100;
#X obj 640 494 / 100;
#X obj 783 138 / 100;
#X obj 1112 124 / 100;
#X obj 485 359 ftom;
#X obj 566 379 s aux-label-\$1;
#X obj 323 320 r aux-\$1;
#X obj 326 367 == 0;
#X obj 299 418 *~ 1;
#X obj 355 411 *~ 0;
#X obj 525 130 nbx 5 14 -1e+37 1e+37 0 0 empty empty empty 0 -8 0 10
-262144 -1 -1 0 256;
#X obj 920 -1 inlet;
#X obj 322 114 + 1.46;
#X obj 1123 95 r decay_internal-\$1;
#X obj 329 195 bang~;
#X obj 375 249 snapshot~;
#X obj 1169 26 inlet~;
#X obj 737 388 bang~;
#X obj 726 423 snapshot~;
#X obj 1095 322 +~ 1;
#X obj 1088 355 *~ 0.5;
#X obj 1239 28 inlet~;
#X obj 1172 286 bang~;
#X obj 1188 403 snapshot~;
#X obj 828 522 nbx 5 14 -1e+37 1e+37 0 0 empty empty empty 0 -8 0 10
-262144 -1 -1 0.5 256;
#X obj 641 536 modenv, f 20;
#X obj 693 502 r lfo_morph-\$1;
#X obj 913 426 r lfo_timbre-\$1;
#X obj 952 476 r env_timbre-\$1;
#X obj 734 476 r env_morph-\$1;
#X obj 834 551 modenv, f 20;
#X obj 742 356 r~ lfo-morph-\$1;
#X obj 873 334 r~ lfo-timbre-\$1;
#X obj 916 371 bang~;
#X obj 908 392 snapshot~;
#X obj 420 147 +~ 0;
#X connect 0 0 41 0;
#X connect 1 0 64 0;
#X connect 3 0 37 0;
#X connect 3 1 38 0;
#X connect 3 2 34 0;
#X connect 4 0 3 0;
#X connect 5 0 4 0;
#X connect 6 0 3 0;
#X connect 7 0 3 0;
#X connect 8 0 3 0;
#X connect 9 0 3 0;
#X connect 10 0 3 0;
#X connect 11 0 3 0;
#X connect 12 0 3 0;
#X connect 13 0 3 0;
#X connect 14 0 3 0;
#X connect 15 0 28 0;
#X connect 16 0 29 0;
#X connect 17 0 30 0;
#X connect 18 0 31 0;
#X connect 19 0 13 0;
#X connect 20 0 11 0;
#X connect 21 0 12 0;
#X connect 22 0 3 0;
#X connect 23 0 24 0;
#X connect 24 0 22 0;
#X connect 25 0 26 0;
#X connect 26 0 3 0;
#X connect 28 0 6 0;
#X connect 29 0 53 0;
#X connect 30 0 54 0;
#X connect 31 0 9 0;
#X connect 32 0 10 0;
#X connect 35 0 36 0;
#X connect 35 0 38 1;
#X connect 36 0 37 1;
#X connect 37 0 2 0;
#X connect 38 0 2 0;
#X connect 39 0 23 0;
#X connect 40 0 14 0;
#X connect 42 0 32 0;
#X connect 43 0 44 0;
#X connect 44 0 23 0;
#X connect 45 0 48 0;
#X connect 46 0 47 0;
#X connect 47 0 54 1;
#X connect 48 0 49 0;
#X connect 50 0 52 0;
#X connect 51 0 52 0;
#X connect 52 0 54 3;
#X connect 52 0 59 3;
#X connect 53 0 59 0;
#X connect 54 0 8 0;
#X connect 55 0 54 2;
#X connect 56 0 59 2;
#X connect 57 0 59 4;
#X connect 58 0 54 4;
#X connect 59 0 7 0;
#X connect 60 0 47 0;
#X connect 61 0 63 0;
#X connect 62 0 63 0;
#X connect 63 0 59 1;
#X connect 64 0 44 0;
