#N canvas 2207 204 624 748 10;
#X obj 10 20 inlet~;
#X obj 60 19 inlet;
#X obj 59 40 clip 0 200;
#X text 8 0 in;
#X text 57 0 predelay;
#X obj 136 18 inlet;
#X obj 137 39 clip 0 1;
#X obj 10 156 rpole~;
#X text 131 -1 bandwidth;
#X msg 82 179 0.75;
#X obj 65 155 r loadbang-\$1;
#X msg 82 243 0.75;
#X obj 64 221 r loadbang-\$1;
#X obj 64 284 r loadbang-\$1;
#X msg 82 306 0.625;
#X obj 65 347 r loadbang-\$1;
#X msg 83 369 0.625;
#X obj 149 645 outlet~;
#X obj 285 136 r loadbang-\$1;
#X obj 11 118 *~;
#X obj 172 62 - 1, f 4;
#X obj 153 89 * -1;
#X obj 232 305 rpole~;
#X obj 233 281 *~;
#X obj 210 16 inlet;
#X obj 211 37 clip 0 1;
#X obj 211 63 - 1;
#X obj 211 86 * -1;
#X text 210 -2 damping;
#X obj 310 307 r loadbang-\$1;
#X msg 329 333 64.2;
#X obj 476 142 r loadbang-\$1;
#X obj 411 302 rpole~;
#X obj 412 278 *~;
#X obj 492 306 r loadbang-\$1;
#X obj 411 116 *~;
#X obj 248 119 *~;
#X obj 399 171 +~;
#X obj 227 172 +~;
#X obj 316 15 inlet;
#X obj 317 36 clip 0 1;
#X text 314 -3 gain;
#X msg 480 172 0.7;
#X obj 55 471 +~;
#X obj 65 494 -~;
#X obj 78 520 +~;
#X obj 92 545 -~;
#X msg 508 330 6.3;
#X obj 109 571 -~;
#X obj 120 598 -~;
#X obj 364 639 outlet~;
#X obj 275 463 +~;
#X obj 285 486 -~;
#X obj 298 512 +~;
#X obj 312 537 -~;
#X obj 329 563 -~;
#X obj 340 590 -~;
#X msg 540 328 41.2;
#X msg 366 332 11.2;
#X msg 301 175 0.7;
#X floatatom 153 116 8 0 0 0 - - -;
#X floatatom 189 149 5 0 0 0 - - -;
#X msg 45 369 9.307;
#X msg 44 306 12.73;
#X msg 44 243 3.595;
#X msg 44 179 4.771;
#X msg 442 172 22.58;
#X msg 347 175 0.1;
#X msg 263 175 30.51;
#X msg 437 330 60.48;
#X msg 258 333 89.24;
#X msg 296 334 0.5;
#X msg 475 330 0.5;
#X msg 526 172 0.07;
#X obj 136 621 *~ 0.125;
#X obj 345 613 *~ 0.125;
#X obj 8 42 *~ 0.5;
#X obj 396 379 *~;
#X obj 210 378 *~;
#X obj 10 200 allpass100ms~ \$1;
#X obj 11 264 allpass100ms~ \$1;
#X obj 10 327 allpass100ms~ \$1;
#X obj 12 390 allpass100ms~ \$1;
#X obj 233 355 allpass100ms2tap~ \$1;
#X obj 412 352 allpass100ms2tap~ \$1;
#X obj 235 206 modallpass100ms~ \$1;
#X obj 414 203 modallpass100ms~ \$1;
#X obj 11 64 delwrite~ predelay-\$1 200;
#X obj 11 89 delread~ predelay-\$1;
#X obj 261 77 delread~ delf-\$1 125;
#X obj 422 80 delread~ delc-\$1 106.28;
#X obj 233 235 delwrite~ dela-\$1 200;
#X obj 233 255 delread~ dela-\$1 141.69;
#X obj 412 232 delwrite~ deld-\$1 200;
#X obj 414 252 delread~ deld-\$1 149.62;
#X obj 203 402 delwrite~ delc-\$1 200;
#X obj 274 418 delread~ deld-\$1 11.8;
#X obj 289 439 delread~ deld-\$1 121.7;
#X obj 313 487 delread~ delf-\$1 89.7;
#X obj 327 512 delread~ dela-\$1 70.8;
#X obj 358 565 delread~ delc-\$1 4.1;
#X obj 413 410 delwrite~ delf-\$1 200;
#X obj 54 426 delread~ dela-\$1 8.9;
#X obj 69 447 delread~ dela-\$1 99.8;
#X obj 93 495 delread~ delc-\$1 67;
#X obj 107 520 delread~ deld-\$1 66.8;
#X obj 138 573 delread~ delf-\$1 35.8;
#X connect 0 0 76 0;
#X connect 1 0 2 0;
#X connect 2 0 88 0;
#X connect 5 0 6 0;
#X connect 6 0 19 1;
#X connect 6 0 20 0;
#X connect 7 0 79 0;
#X connect 9 0 79 2;
#X connect 10 0 9 0;
#X connect 10 0 65 0;
#X connect 11 0 80 2;
#X connect 12 0 11 0;
#X connect 12 0 64 0;
#X connect 13 0 14 0;
#X connect 13 0 63 0;
#X connect 14 0 81 2;
#X connect 15 0 16 0;
#X connect 15 0 62 0;
#X connect 16 0 82 2;
#X connect 18 0 59 0;
#X connect 18 0 68 0;
#X connect 18 0 67 0;
#X connect 19 0 7 0;
#X connect 20 0 21 0;
#X connect 21 0 7 1;
#X connect 21 0 60 0;
#X connect 22 0 83 0;
#X connect 23 0 22 0;
#X connect 24 0 25 0;
#X connect 25 0 26 0;
#X connect 25 0 22 1;
#X connect 25 0 32 1;
#X connect 26 0 27 0;
#X connect 27 0 23 1;
#X connect 27 0 33 1;
#X connect 27 0 61 0;
#X connect 29 0 71 0;
#X connect 29 0 70 0;
#X connect 29 0 30 0;
#X connect 29 0 58 0;
#X connect 30 0 83 3;
#X connect 31 0 42 0;
#X connect 31 0 66 0;
#X connect 31 0 73 0;
#X connect 32 0 84 0;
#X connect 33 0 32 0;
#X connect 34 0 72 0;
#X connect 34 0 69 0;
#X connect 34 0 47 0;
#X connect 34 0 57 0;
#X connect 35 0 37 1;
#X connect 36 0 38 1;
#X connect 37 0 86 0;
#X connect 38 0 85 0;
#X connect 39 0 40 0;
#X connect 40 0 35 0;
#X connect 40 0 36 0;
#X connect 40 0 77 0;
#X connect 40 0 78 0;
#X connect 42 0 86 2;
#X connect 43 0 44 0;
#X connect 44 0 45 0;
#X connect 45 0 46 0;
#X connect 46 0 48 0;
#X connect 47 0 84 3;
#X connect 48 0 49 0;
#X connect 49 0 74 0;
#X connect 51 0 52 0;
#X connect 52 0 53 0;
#X connect 53 0 54 0;
#X connect 54 0 55 0;
#X connect 55 0 56 0;
#X connect 56 0 75 0;
#X connect 57 0 84 4;
#X connect 58 0 83 4;
#X connect 59 0 85 2;
#X connect 62 0 82 1;
#X connect 63 0 81 1;
#X connect 64 0 80 1;
#X connect 65 0 79 1;
#X connect 66 0 86 1;
#X connect 67 0 85 3;
#X connect 68 0 85 1;
#X connect 69 0 84 1;
#X connect 70 0 83 1;
#X connect 71 0 83 2;
#X connect 72 0 84 2;
#X connect 73 0 86 3;
#X connect 74 0 17 0;
#X connect 75 0 50 0;
#X connect 76 0 87 0;
#X connect 77 0 101 0;
#X connect 78 0 95 0;
#X connect 79 0 80 0;
#X connect 80 0 81 0;
#X connect 81 0 82 0;
#X connect 82 0 37 0;
#X connect 82 0 38 0;
#X connect 83 0 78 1;
#X connect 83 1 44 1;
#X connect 83 2 55 1;
#X connect 84 0 77 1;
#X connect 84 1 48 1;
#X connect 84 2 52 1;
#X connect 85 0 91 0;
#X connect 86 0 93 0;
#X connect 88 0 19 0;
#X connect 89 0 36 1;
#X connect 90 0 35 1;
#X connect 92 0 23 0;
#X connect 94 0 33 0;
#X connect 96 0 51 0;
#X connect 97 0 51 1;
#X connect 98 0 53 1;
#X connect 99 0 54 1;
#X connect 100 0 56 1;
#X connect 102 0 43 0;
#X connect 103 0 43 1;
#X connect 104 0 45 1;
#X connect 105 0 46 1;
#X connect 106 0 49 1;
