#N canvas 168 23 1272 775 10;
#X obj 304 186 r notesIn-\$1;
#X obj 304 491 s notesOut-\$1;
#X obj 25 186 inlet~ inL-\$1;
#X obj 135 186 inlet~ inR-\$1;
#X obj 27 491 outlet~ outL-\$1;
#X obj 136 491 outlet~ outR-\$1;
#X obj 499 186 r auxIn-\$1;
#X obj 498 209 r expIn-\$1;
#X obj 498 234 r fsIn-\$1;
#X obj 398 186 r ctrlIn-\$1;
#X obj 398 491 s ctrlOut-\$1;
#X obj 29 333 +~;
#X obj 139 336 +~;
#N canvas 0 23 1440 775 koto~ 1;
#X obj 473 150 pack 0 0 0;
#X obj 611 448 r loadbang-\$1;
#X text 1172 249 Harmonics Comb-Filter;
#X text 723 689 Don't touch!!!;
#X obj 494 65 unpack;
#X text 1096 670 Damper:;
#X text 713 503 String-Decay (can't go any higher!!!!);
#X obj 848 89 vsl 15 128 0 30 0 0 empty empty empty 0 -9 0 10 -262144
-1 -1 2540 1;
#X floatatom 853 226 5 0 0 0 - - -;
#X obj 533 89 moses 97;
#X obj 1023 149 *~;
#X obj 896 235 +;
#X obj 1022 98 +~ 1;
#X obj 1105 129 snapshot~;
#X msg 1099 49 1;
#X floatatom 1016 181 5 0 0 0 - - -;
#X obj 1104 78 metro 50;
#X msg 892 154 0;
#X obj 895 122 sel 0;
#X msg 893 177 5;
#X obj 452 495 vcf~, f 6;
#X msg 487 471 6;
#X obj 363 442 *~ 1.2;
#X msg 845 53 6;
#X obj 351 677 lop~;
#X obj 405 529 *~ 1.6;
#X msg 455 450 160;
#X obj 1023 120 *~ 20;
#X obj 1022 74 osc~ 6;
#X obj 465 89 moses 48;
#X obj 123 789 outlet~ outL;
#X obj 323 785 outlet~ outR;
#X obj 1092 505 r fund-\$1;
#X obj 1171 504 r subH-\$1;
#X obj 1243 503 r firstH-\$1;
#X obj 1323 503 r secH-\$1;
#X obj 1092 527 / 100;
#X obj 1171 526 / 100;
#X obj 1243 525 / 100;
#X obj 1323 525 / 100;
#X obj 937 95 r auxIn-\$1;
#X obj 932 153 s aux-led-\$1;
#X obj 483 39 inlet notes;
#X obj 842 27 r loadbang-\$1;
#X obj 854 258 s detune-\$1;
#X obj 1094 410 s h1-\$1;
#X obj 1204 408 s h2-\$1;
#X obj 1324 407 s h3-\$1;
#X obj 1092 559 s f1-\$1;
#X obj 1171 559 s f2-\$1;
#X obj 1243 560 s f3-\$1;
#X obj 1323 559 s f4-\$1;
#X obj 717 544 s feedbackamt-\$1;
#X obj 1100 750 s damper-\$1;
#X obj 727 666 s res-\$1;
#X obj 934 193 change;
#X obj 1094 293 r combh1-\$1;
#X obj 1205 297 r combh2-\$1;
#X obj 1324 294 r combh3-\$1;
#X obj 1094 316 / 100;
#X obj 1204 321 / 100;
#X obj 1204 344 * 4;
#X obj 1324 316 / 100;
#X obj 1324 339 * 4;
#X obj 1094 339 * 4;
#X msg 716 522 0.99;
#X obj 1100 697 r damp-\$1;
#X obj 1100 719 * 100;
#X text 1126 470 Harmonics:;
#X msg 728 634 9.76;
#X obj 535 606 r cutoff-\$1;
#X obj 478 121 poly 4 1;
#X obj 467 195 route 1 2 3 4;
#X obj 349 250 stringvoice~ \$1;
#X obj 475 257 stringvoice~ \$1;
#X obj 499 344 stringvoice~ \$1;
#X obj 348 335 stringvoice~ \$1;
#X connect 0 0 72 0;
#X connect 1 0 69 0;
#X connect 1 0 65 0;
#X connect 1 0 21 0;
#X connect 1 0 26 0;
#X connect 4 0 29 0;
#X connect 4 1 71 1;
#X connect 7 0 8 0;
#X connect 8 0 11 1;
#X connect 9 0 71 0;
#X connect 10 0 13 0;
#X connect 11 0 44 0;
#X connect 12 0 27 0;
#X connect 13 0 15 0;
#X connect 14 0 16 0;
#X connect 15 0 55 0;
#X connect 16 0 13 0;
#X connect 17 0 41 0;
#X connect 18 0 17 0;
#X connect 18 1 19 0;
#X connect 19 0 41 0;
#X connect 20 0 25 0;
#X connect 21 0 20 2;
#X connect 22 0 20 0;
#X connect 22 0 24 0;
#X connect 23 0 7 0;
#X connect 24 0 30 0;
#X connect 24 0 31 0;
#X connect 25 0 24 0;
#X connect 26 0 20 1;
#X connect 27 0 10 0;
#X connect 28 0 12 0;
#X connect 29 1 9 0;
#X connect 32 0 36 0;
#X connect 33 0 37 0;
#X connect 34 0 38 0;
#X connect 35 0 39 0;
#X connect 36 0 48 0;
#X connect 37 0 49 0;
#X connect 38 0 50 0;
#X connect 39 0 51 0;
#X connect 40 0 10 1;
#X connect 40 0 18 0;
#X connect 42 0 4 0;
#X connect 43 0 23 0;
#X connect 43 0 14 0;
#X connect 55 0 11 0;
#X connect 56 0 59 0;
#X connect 57 0 60 0;
#X connect 58 0 62 0;
#X connect 59 0 64 0;
#X connect 60 0 61 0;
#X connect 61 0 46 0;
#X connect 62 0 63 0;
#X connect 63 0 47 0;
#X connect 64 0 45 0;
#X connect 65 0 52 0;
#X connect 66 0 67 0;
#X connect 67 0 53 0;
#X connect 69 0 54 0;
#X connect 70 0 24 1;
#X connect 71 0 0 0;
#X connect 71 1 0 1;
#X connect 71 2 0 2;
#X connect 72 0 73 0;
#X connect 72 1 74 0;
#X connect 72 2 76 0;
#X connect 72 3 75 0;
#X connect 73 0 22 0;
#X connect 74 0 22 0;
#X connect 75 0 22 0;
#X connect 76 0 22 0;
#X restore 184 235 pd koto~;
#X connect 0 0 1 0;
#X connect 0 0 13 0;
#X connect 2 0 11 0;
#X connect 3 0 12 0;
#X connect 9 0 10 0;
#X connect 11 0 4 0;
#X connect 12 0 5 0;
#X connect 13 0 11 1;
#X connect 13 1 12 1;
