#N canvas 0 198 1440 600 10;
#X obj 216 81;
#X obj 211 -14 nbx 5 14 -1e+37 1e+37 0 0 empty empty empty 0 -8 0 10
-262144 -1 -1 84 256;
#X obj 316 147 / 44100;
#X obj 321 236 bng 15 250 50 0 empty empty empty 17 7 0 10 -262144
-1 -1;
#X obj 403 243 nbx 9 14 -1e+37 1e+37 0 0 empty empty empty 0 -8 0 10
-262144 -1 -1 0 256;
#X obj 119 813 tabwrite~ tab-\$0;
#X obj 487 14 bng 15 250 50 0 empty empty empty 17 7 0 10 -262144 -1
-1;
#N canvas 0 50 450 250 (subpatch) 0;
#X array tab-\$0 64 float 3;
#A 0 0.198653 0.240644 0.282636 0.324628 0.366619 0.408611 0.450603
0.492595 0.534586 0.576578 0.61857 0.660561 0.702553 0.744545 0.786537
0.828528 0.87052 0.912512 0.954503 0.996495 1.03849 1.08048 1.12247
1.16446 1.20645 1.24845 1.29044 1.33243 1.37442 1.41641 1.4584 1.5004
1.54239 1.58438 1.62637 1.66836 1.71035 1.75235 1.79434 1.83633 1.87832
1.92031 1.95184 0.810138 0.0462883 0.0882797 0.130272 0.172263 0.214255
0.256247 0.298238 0.34023 0.382222 0.424214 0.466205 0.508197 0.550189
0.59218 0.634172 0.676164 0.718156 0.760147 0.802139 0.844131;
#X coords 0 1.5 64 -1.5 348 145 1 0 0;
#X restore 1018 -73 graph;
#X obj 460 808 *~ 0.1;
#X obj 518 871 dac~;
#X obj 308 406 *~ 2;
#X obj 202 424 /~;
#X obj 42 432 expr~ ($v1 < $v2);
#X obj 119 587 *~;
#X obj 589 456 /~;
#X obj 503 552 *~;
#X obj 254 524 expr~ -($v1*2-$v1*$v1-1);
#X obj 391 440 expr~ ($v1 > (1-$v2));
#X obj 594 400 -~ 1, f 7;
#X obj 583 491 expr~ -($v1*$v1+2*$v1+1);
#X obj 281 626 +~;
#X obj 560 648 sig~ 440;
#X obj 259 665 +~;
#X obj 518 700 nbx 5 14 -1e+37 1e+37 0 0 empty empty empty 0 -8 0 10
-262144 -1 -1 0 256;
#X obj 667 574 phasor~ 0.5;
#X obj 380 24 t b f;
#X obj 318 76 f 0;
#X obj 398 -17 nbx 5 14 -1e+37 1e+37 0 0 empty empty empty 0 -8 0 10
-262144 -1 -1 0 256;
#X obj 325 109 * 1;
#X obj 295 12 abs;
#X obj 341 707 +~;
#X obj 418 659 *~ 1.4, f 3;
#X obj 515 811 bob~;
#X obj 727 748 sig~ 2;
#X obj 886 381 noise~;
#X obj 830 430 *~ 0.01;
#X obj 193 149 sig~;
#X obj 803 656 hsl 128 15 0 4.5 0 0 empty empty empty -2 -8 0 10 -262144
-1 -1 0 1;
#X obj 808 701 nbx 5 14 -1e+37 1e+37 0 0 empty empty empty 0 -8 0 10
-262144 -1 -1 0 256;
#X obj 187 208 phasor~;
#X obj 172 316 wrap~;
#X obj 566 -43 vsl 15 128 0.5 8 0 0 empty empty empty 0 -9 0 10 -262144
-1 -1 0 1;
#X obj 753 328;
#X obj 99 518 *~;
#X obj 51 552;
#X obj 582 112 wrap;
#X obj 586 166 nbx 5 14 -1e+37 1e+37 0 0 empty empty empty 0 -8 0 10
-262144 -1 -1 0 256;
#X obj 146 533 *~;
#X obj 302 476 expr~ ($v1 < 1);
#X obj 1372 508 /~;
#X obj 1366 543 expr~ -($v1*$v1+2*$v1+1);
#X obj 967 242 nbx 5 14 -1e+37 1e+37 0 0 empty empty empty 0 -8 0 10
-262144 -1 -1 0 256;
#X obj 1174 492 expr~ ($v1 > ($v3-$v2));
#X obj 1314 606 *~;
#X obj 307 202 *~;
#X obj 481 170 +~;
#X obj 308 176 sig~ 1;
#X obj 186 257 *~;
#X obj 491 120 sig~ 2;
#X obj 682 86 +~ 1;
#X obj 695 26 phasor~ 2;
#X msg 489 -59 2;
#X obj 104 469 expr~ ($v1 > 1) || ($v2 <= 0);
#X obj 701 263 wrap~;
#X obj 1167 641 *~;
#X obj 143 559 *~;
#X obj 1377 452 -~, f 7;
#X obj 818 119 osc~ 0.1;
#X obj 715 682 *~ 1000;
#X connect 1 0 29 0;
#X connect 1 0 36 0;
#X connect 2 0 56 0;
#X connect 6 0 5 0;
#X connect 8 0 9 0;
#X connect 8 0 9 1;
#X connect 10 0 22 0;
#X connect 11 0 16 0;
#X connect 12 0 43 0;
#X connect 12 0 47 0;
#X connect 13 0 20 0;
#X connect 14 0 19 0;
#X connect 15 0 20 1;
#X connect 16 0 13 1;
#X connect 17 0 15 0;
#X connect 18 0 14 0;
#X connect 19 0 15 1;
#X connect 20 0 22 1;
#X connect 21 0 32 1;
#X connect 22 0 5 0;
#X connect 22 0 30 0;
#X connect 23 0 21 0;
#X connect 24 0 68 0;
#X connect 25 0 26 0;
#X connect 25 1 28 1;
#X connect 26 0 28 0;
#X connect 27 0 25 0;
#X connect 28 0 2 0;
#X connect 29 0 26 0;
#X connect 30 0 32 0;
#X connect 32 0 8 0;
#X connect 33 0 32 2;
#X connect 34 0 35 0;
#X connect 35 0 30 1;
#X connect 35 0 32 1;
#X connect 36 0 39 0;
#X connect 37 0 38 0;
#X connect 38 0 33 0;
#X connect 39 0 57 0;
#X connect 40 0 10 0;
#X connect 40 0 11 0;
#X connect 40 0 12 0;
#X connect 40 0 17 0;
#X connect 40 0 18 0;
#X connect 41 0 45 0;
#X connect 41 0 51 0;
#X connect 41 0 58 0;
#X connect 43 0 13 0;
#X connect 45 0 46 0;
#X connect 47 0 65 0;
#X connect 48 0 47 1;
#X connect 49 0 50 0;
#X connect 50 0 53 1;
#X connect 52 0 53 0;
#X connect 53 0 64 0;
#X connect 54 0 12 1;
#X connect 54 0 11 1;
#X connect 54 0 17 1;
#X connect 54 0 14 1;
#X connect 54 0 52 1;
#X connect 54 0 49 1;
#X connect 55 0 54 1;
#X connect 55 0 57 1;
#X connect 55 0 63 0;
#X connect 55 0 52 2;
#X connect 55 0 66 1;
#X connect 56 0 54 0;
#X connect 57 0 40 0;
#X connect 57 0 48 0;
#X connect 57 0 52 0;
#X connect 57 0 62 0;
#X connect 57 0 66 0;
#X connect 58 0 55 0;
#X connect 60 0 59 0;
#X connect 61 0 41 0;
#X connect 62 0 43 1;
#X connect 63 0 64 1;
#X connect 63 0 65 1;
#X connect 63 0 62 1;
#X connect 64 0 20 1;
#X connect 65 0 13 0;
#X connect 66 0 49 0;
#X connect 67 0 55 1;
#X connect 68 0 32 1;
