#N canvas 443 22 997 804 10;
#X obj 364 212 sig~;
#X obj 158 308 *~ 1;
#X obj 533 232 sig~;
#X obj 514 342 *~;
#X obj 157 111 inlet~;
#X obj 364 117 inlet;
#X obj 536 134 inlet;
#X obj 362 712 outlet~;
#X obj 363 264 lop~ \$1;
#X text 166 157 signal;
#X text 395 162 Time in ms;
#X text 557 180 feedback 0-1;
#X obj 532 263 lop~ \$1;
#X obj 533 461 freqshift;
#X obj 653 129 inlet;
#X obj 721 337 inlet~;
#X obj 193 434 freqshift;
#X obj 154 539 sr_reducer;
#X obj 532 500 sr_reducer;
#X obj 818 347 inlet;
#X obj 334 304 vd~ \$2del 1000;
#X obj 155 648 delwrite~ \$2del 1000;
#X obj 362 641 *~ 1;
#X obj 672 174 route freq dw;
#X connect 0 0 8 0;
#X connect 1 0 16 0;
#X connect 2 0 12 0;
#X connect 3 0 13 0;
#X connect 4 0 1 0;
#X connect 5 0 0 0;
#X connect 6 0 2 0;
#X connect 8 0 20 0;
#X connect 12 0 3 1;
#X connect 13 0 18 0;
#X connect 14 0 23 0;
#X connect 15 0 13 2;
#X connect 15 0 16 2;
#X connect 16 0 17 0;
#X connect 17 0 21 0;
#X connect 18 0 21 0;
#X connect 19 0 18 1;
#X connect 19 0 17 1;
#X connect 20 0 3 0;
#X connect 20 0 22 0;
#X connect 22 0 7 0;
#X connect 23 0 13 1;
#X connect 23 0 16 1;
#X connect 23 1 13 3;
#X connect 23 1 16 3;
