#N canvas 208 190 696 455 10;
#X obj 149 177 phasor~;
#X obj 149 230 cos~;
#X obj 195 228 cos~;
#X obj 44 56 inlet~;
#X obj 141 273 *~;
#X obj 46 434 outlet~;
#X obj 73 277 *~;
#N canvas 0 22 588 330 hilbert 0;
#X obj 105 92 biquad~ 0.83774 -0.06338 0.06338 -0.83774 1;
#X obj 105 66 biquad~ 1.94632 -0.94657 0.94657 -1.94632 1;
#X obj 86 149 biquad~ -0.02569 0.260502 -0.260502 0.02569 1;
#X obj 86 175 biquad~ 1.8685 -0.870686 0.870686 -1.8685 1;
#X obj 86 39 inlet~;
#X obj 105 121 outlet~;
#X obj 86 202 outlet~;
#X obj 502 39 inlet;
#X text 461 13 bang to clear;
#X text 80 16 signal in;
#X msg 502 112 clear;
#X connect 0 0 5 0;
#X connect 1 0 0 0;
#X connect 2 0 3 0;
#X connect 3 0 6 0;
#X connect 4 0 1 0;
#X connect 4 0 2 0;
#X connect 7 0 10 0;
#X connect 10 0 1 0;
#X connect 10 0 0 0;
#X connect 10 0 2 0;
#X connect 10 0 3 0;
#X restore 64 185 pd hilbert;
#X obj 195 208 +~ 0.25;
#X obj 129 4 inlet;
#X obj 129 52 sig~;
#X obj 228 45 inlet~;
#X obj 152 119 +~;
#X obj 56 368 c_xfade;
#X obj 303 285 inlet;
#X obj 248 320 * 0.01;
#X connect 0 0 1 0;
#X connect 0 0 8 0;
#X connect 1 0 6 1;
#X connect 2 0 4 1;
#X connect 3 0 7 0;
#X connect 3 0 13 0;
#X connect 4 0 13 1;
#X connect 6 0 13 1;
#X connect 7 0 6 0;
#X connect 7 1 4 0;
#X connect 8 0 2 0;
#X connect 9 0 10 0;
#X connect 10 0 12 0;
#X connect 11 0 12 1;
#X connect 12 0 0 0;
#X connect 13 0 5 0;
#X connect 14 0 15 0;
#X connect 15 0 13 2;
