#N canvas 0 54 1349 763 12;
#X obj 120 699 outlet~;
#X obj 120 565 *~;
#X obj 120 673 *~;
#N canvas 0 22 450 300 delWrite 0;
#X obj 68 80 delwrite~ \$0-comp 500;
#X obj 68 39 inlet~;
#X obj 68 156 outlet~;
#X connect 1 0 0 0;
#X restore 85 289 pd delWrite;
#X obj 582 412 dbtorms;
#X obj 634 383 /;
#X obj 634 352 swap 1;
#X obj 687 359 /;
#X obj 687 337 swap 1000;
#X obj 267 466 lop~;
#X obj 267 411 clip~ 0 1;
#X obj 135 648 line~;
#X obj 135 627 pack f 5;
#X obj 85 32 inlet~;
#X obj 582 242 route threshold ratio response gain rmspeak lookahead
;
#X obj 582 54 inlet control;
#X obj 582 377 + 100;
#X obj 739 270 + 100;
#X obj 738 292 dbtorms;
#N canvas 0 22 450 300 delRead 0;
#X obj 68 41 inlet~;
#X obj 133 155 outlet~;
#X obj 133 42 inlet lookAhead;
#X obj 133 116 delread~ \$0-comp 0;
#X connect 2 0 3 0;
#X connect 3 0 1 0;
#X restore 85 365 pd delRead;
#X text 129 32 Input;
#X text 334 409 Clip signal;
#X text 298 465 Attack/release using LPF;
#X text 145 564 Gain Control;
#X text 670 117 initialise controls;
#X text 858 225 route incoming data;
#X obj 241 133 abs~;
#X obj 264 236 -~;
#X obj 264 284 *~;
#X obj 264 336 +~;
#X obj 264 376 /~;
#X obj 492 272 +~ 0;
#X text 142 163 Peak;
#X obj 256 45 inlet~;
#X obj 293 91 sig~ 0.0001;
#X connect 1 0 2 0;
#X connect 2 0 0 0;
#X connect 3 0 19 0;
#X connect 4 0 27 1;
#X connect 4 0 29 1;
#X connect 5 0 28 1;
#X connect 6 0 5 0;
#X connect 6 1 5 1;
#X connect 7 0 9 1;
#X connect 8 0 7 0;
#X connect 8 1 7 1;
#X connect 9 0 1 1;
#X connect 10 0 9 0;
#X connect 11 0 2 1;
#X connect 12 0 11 0;
#X connect 13 0 3 0;
#X connect 14 0 16 0;
#X connect 14 1 6 0;
#X connect 14 2 8 0;
#X connect 14 3 17 0;
#X connect 14 5 19 1;
#X connect 15 0 14 0;
#X connect 16 0 4 0;
#X connect 17 0 18 0;
#X connect 18 0 12 0;
#X connect 19 0 1 0;
#X connect 26 0 27 0;
#X connect 26 0 31 0;
#X connect 27 0 28 0;
#X connect 28 0 29 0;
#X connect 29 0 30 0;
#X connect 30 0 10 0;
#X connect 31 0 30 1;
#X connect 33 0 26 0;
#X connect 34 0 26 0;
#X coords 0 0 0.4 1 0 0 0;
