#N canvas 0 81 1440 745 10;
#X obj 304 186 r notesIn-\$1;
#X obj 304 671 s notesOut-\$1;
#X obj 25 186 inlet~ inL-\$1;
#X obj 135 186 inlet~ inR-\$1;
#X obj 27 671 outlet~ outL-\$1;
#X obj 136 671 outlet~ outR-\$1;
#X obj 424 185 r auxIn-\$1;
#X obj 423 208 r expIn-\$1;
#X obj 423 233 r fsIn-\$1;
#X obj 641 219 hip~;
#X obj 513 520 hip~ 5;
#X obj 513 497 c_xfade, f 65;
#X obj 1087 319 lop~ 10;
#X obj 801 72 r dly_time-\$1;
#X obj 953 73 r dly_fb-\$1;
#X obj 1085 72 r dly_dw-\$1;
#X text 652 30 C&G Simple 3 sec Delay Module with a hi-pass filter
;
#X obj 1085 144 / 100;
#X obj 950 118 / 100;
#X obj 661 72 r dly_hip-\$1;
#X obj 416 299 r ctrlIn-\$1;
#X obj 416 325 s ctrlOut-\$1;
#X obj 641 395 delay3sec_shift 5 \$1, f 52;
#X obj 1190 229 osc~;
#X obj 1186 152 r lfofreq-\$1;
#X obj 1182 312 *~;
#X obj 1303 179 r lfoamount-\$1;
#X obj 1181 342 clip~ 0 20000;
#X obj 1249 279 sig~;
#X obj 1190 180 sig~;
#X obj 1186 259 *~ 0.5;
#X obj 1178 290 +~ 0.5;
#X obj 761 264 r freq-\$1;
#X obj 902 289 r sr-\$1;
#X obj 944 238 r bitdepth-\$1;
#X obj 705 468 if_compressor;
#X msg 1042 426 threshold \$1;
#X msg 1286 423 gain \$1;
#X obj 1044 399 r thresh-\$1;
#X obj 1287 399 r gain-\$1;
#X msg 956 333 br \$1;
#X msg 896 336 sr \$1;
#X msg 1004 330 filter \$1;
#X obj 993 284 r crusherlpf-\$1;
#X obj 1140 402 r lookahead-\$1;
#X msg 1143 436 lookahead \$1;
#X obj 1041 494 r response-\$1;
#X obj 1150 496 r ratio-\$1;
#X msg 1155 537 ratio \$1;
#X msg 1034 537 response \$1;
#X msg 762 339 freq \$1;
#X obj 827 292 r shifterdw-\$1;
#X msg 843 324 dw \$1;
#X obj 1299 237 * 20;
#X obj 761 304 * 20;
#X connect 2 0 11 0;
#X connect 2 0 9 0;
#X connect 2 0 35 1;
#X connect 9 0 22 0;
#X connect 10 0 5 0;
#X connect 10 0 4 0;
#X connect 11 0 10 0;
#X connect 12 0 11 2;
#X connect 13 0 22 1;
#X connect 14 0 18 0;
#X connect 15 0 17 0;
#X connect 17 0 12 0;
#X connect 18 0 22 2;
#X connect 19 0 9 1;
#X connect 22 0 35 0;
#X connect 23 0 30 0;
#X connect 24 0 29 0;
#X connect 25 0 27 0;
#X connect 26 0 53 0;
#X connect 27 0 22 4;
#X connect 28 0 25 1;
#X connect 29 0 23 0;
#X connect 30 0 31 0;
#X connect 31 0 25 0;
#X connect 32 0 54 0;
#X connect 33 0 41 0;
#X connect 34 0 40 0;
#X connect 35 0 11 1;
#X connect 36 0 35 2;
#X connect 37 0 35 2;
#X connect 38 0 36 0;
#X connect 39 0 37 0;
#X connect 40 0 22 5;
#X connect 41 0 22 5;
#X connect 42 0 22 5;
#X connect 43 0 42 0;
#X connect 44 0 45 0;
#X connect 45 0 35 2;
#X connect 46 0 49 0;
#X connect 47 0 48 0;
#X connect 48 0 35 2;
#X connect 49 0 35 2;
#X connect 50 0 22 3;
#X connect 51 0 52 0;
#X connect 52 0 22 3;
#X connect 53 0 28 0;
#X connect 54 0 50 0;
