#N canvas 333 194 736 399 12;
#X obj 230 106 samphold~;
#X obj 230 53 inlet~;
#X obj 222 328 outlet~;
#X obj 419 115 phasor~;
#X obj 420 87 * 221;
#X obj 540 142 sig~;
#X obj 264 198 expr~ int($v1 * ($v2)) / ($v2);
#X obj 543 118 pow 2;
#X obj 232 278 lop~;
#X obj 487 20 inlet controls;
#X obj 432 51 route sr br filter;
#X msg 568 234 127;
#X obj 572 199 t b f;
#X obj 568 265 -;
#X obj 571 293 mtof;
#X obj 571 319 pack f 50;
#X obj 571 350 line 50;
#X obj 561 172 * 0.6;
#X obj 231 242 c_xfade;
#X obj 403 258 < 24;
#X obj 227 150 c_xfade;
#X obj 311 148 < 100;
#X connect 0 0 20 1;
#X connect 1 0 0 0;
#X connect 1 0 20 0;
#X connect 3 0 0 1;
#X connect 4 0 3 0;
#X connect 5 0 6 1;
#X connect 6 0 18 1;
#X connect 7 0 5 0;
#X connect 8 0 2 0;
#X connect 9 0 10 0;
#X connect 10 0 4 0;
#X connect 10 0 21 0;
#X connect 10 1 7 0;
#X connect 10 1 19 0;
#X connect 10 2 17 0;
#X connect 11 0 13 0;
#X connect 12 0 11 0;
#X connect 12 1 13 1;
#X connect 13 0 14 0;
#X connect 14 0 15 0;
#X connect 15 0 16 0;
#X connect 16 0 8 1;
#X connect 17 0 12 0;
#X connect 18 0 8 0;
#X connect 19 0 18 2;
#X connect 20 0 6 0;
#X connect 20 0 18 0;
#X connect 21 0 20 2;
