#N canvas -26 162 1920 1117 10;
#X obj 238 39 inlet~;
#X obj 283 611 outlet~;
#X obj 571 580 *~ 0.05;
#X obj 621 621 throw~ taps;
#X obj 403 481 +~;
#X obj 887 43 r randomize;
#X obj 705 116 random 10000;
#X obj 705 159 / 100;
#X obj 536 203 apdelay_inner \$1;
#X obj 494 51 r~ input;
#X obj 578 82 *~ 0.05;
#X obj 855 39 bng 15 250 50 0 empty empty empty 17 7 0 10 -262144 -1
-1;
#X obj 705 490 *~ 0.05;
#X obj 765 675 throw~ tapsl;
#X obj 906 660 throw~ tapsr;
#X obj 877 511 *~ 0.05;
#X obj 529 814;
#X obj 500 711 bng 15 250 50 0 empty empty empty 17 7 0 10 -262144
-1 -1;
#X obj 530 753 random 2;
#X obj 623 790 == 0, f 13;
#X obj 769 615 *~ 1;
#X obj 883 601 *~ 0;
#X obj 470 655 loadbang;
#X obj 407 400 *~ 1;
#X obj 797 310 / 20;
#X obj 886 306 / 20;
#X obj 798 266 random 2;
#X obj 913 234 random 2;
#X connect 0 0 8 0;
#X connect 2 0 3 0;
#X connect 4 0 2 0;
#X connect 4 0 1 0;
#X connect 4 0 12 0;
#X connect 4 0 15 0;
#X connect 5 0 6 0;
#X connect 5 0 11 0;
#X connect 5 0 26 0;
#X connect 5 0 27 0;
#X connect 6 0 7 0;
#X connect 7 0 8 1;
#X connect 8 0 23 0;
#X connect 9 0 10 0;
#X connect 10 0 8 0;
#X connect 12 0 20 0;
#X connect 15 0 21 0;
#X connect 17 0 18 0;
#X connect 18 0 19 0;
#X connect 18 0 20 1;
#X connect 19 0 21 1;
#X connect 20 0 13 0;
#X connect 21 0 14 0;
#X connect 22 0 17 0;
#X connect 23 0 4 0;
#X connect 24 0 12 1;
#X connect 25 0 15 1;
#X connect 26 0 24 0;
#X connect 27 0 25 0;
