#N canvas -8 -8 1920 997 10;
#X obj 213 116 +~;
#X obj 90 489 dac~;
#X obj 21 77 noise~;
#X obj 115 89 osc~ 220;
#X obj 244 104 *~ 0.9;
#X obj 92 37 phasor~ 220;
#X obj 850 304 vsl 15 64 0 1 0 0 empty empty empty 0 -9 0 10 -262144
-1 -1 4500 1;
#X obj 396 111 nbx 5 14 -1e+037 1e+037 0 0 empty empty empty 0 -8 0
10 -262144 -1 -1 0 256;
#N canvas 0 50 539 448 tests 0;
#X obj 67 33 inlet;
#X obj 309 189 inlet;
#X obj 235 207 line~;
#X obj 235 230 cos~;
#X obj 235 68 loadbang;
#X msg 235 91 -0.25;
#X obj 235 276 *~;
#X obj 186 309 hip~ 5;
#X floatatom 308 218 0 0 0 0 - - -;
#X obj 308 264 osc~ 440;
#X obj 308 241 mtof;
#X obj 235 253 *~ 0.1;
#X obj 308 299 *~;
#X obj 326 325 *~;
#X obj 292 330 *~;
#X msg 279 150 -0.25 \, 0.25 \$1;
#X obj 41 148 biquad~ 0 0 1 -1 0;
#X obj 63 70 t b;
#X obj 104 72 del 3;
#X obj 57 101 1;
#X obj 96 101 0;
#X obj 41 355 outlet~;
#X obj 279 126 inlet;
#X obj 51 192 *~;
#X connect 0 0 17 0;
#X connect 1 0 8 0;
#X connect 2 0 3 0;
#X connect 3 0 11 0;
#X connect 4 0 5 0;
#X connect 5 0 2 0;
#X connect 6 0 7 0;
#X connect 7 0 21 0;
#X connect 8 0 10 0;
#X connect 9 0 6 1;
#X connect 9 0 12 0;
#X connect 9 0 12 1;
#X connect 9 0 13 0;
#X connect 10 0 9 0;
#X connect 11 0 6 0;
#X connect 12 0 13 1;
#X connect 12 0 6 1;
#X connect 12 0 14 0;
#X connect 12 0 14 1;
#X connect 13 0 6 1;
#X connect 14 0 6 1;
#X connect 15 0 2 0;
#X connect 16 0 23 0;
#X connect 17 0 18 0;
#X connect 17 0 19 0;
#X connect 18 0 20 0;
#X connect 19 0 16 0;
#X connect 19 0 23 1;
#X connect 20 0 16 0;
#X connect 20 0 23 1;
#X connect 22 0 15 0;
#X connect 23 0 21 0;
#X restore 714 202 pd tests;
#X msg 753 83 10;
#X msg 751 110 20;
#X msg 750 138 100;
#X msg 749 163 500;
#X obj 711 63 bng 15 250 50 0 empty empty empty 0 -6 0 8 -262144 -1
-1;
#X text 734 57 impulse;
#X floatatom 798 198 0 0 0 0 - - -;
#X text 833 144 tone;
#X text 832 160 pitch;
#X text 792 83 tone;
#X text 793 100 bursts;
#X text 829 178 (60 for;
#X text 812 198 middle C);
#X obj 1012 9 tgl 15 0 empty empty empty 0 -6 0 10 -262144 -1 -1 0
1;
#X obj 847 -13 bng 15 250 50 0 empty empty empty 0 -6 0 10 -262144
-1 -1;
#X text 934 175 load;
#X text 1043 174 play(loop);
#N canvas -8 -8 1920 1117 sample_loop 0;
#X obj 293 347 soundfiler;
#X obj -24 316 outlet~;
#X obj 293 134 openpanel;
#X obj 140 252 spigot;
#X obj 206 212 sel 1 0;
#X msg 228 252 0 1;
#X obj 297 72 inlet;
#X obj 197 51 inlet;
#X obj 267 439 table \$0-sample;
#X obj -23 186 tabplay~ \$0-sample;
#X obj 329 218 symbol \$0-sample;
#X obj 293 159 t s b;
#X msg 293 317 read -resize \$1 \$2;
#X obj 299 252 pack s s;
#X connect 2 0 11 0;
#X connect 3 0 9 0;
#X connect 4 0 9 0;
#X connect 4 1 5 0;
#X connect 5 0 9 0;
#X connect 6 0 4 0;
#X connect 6 0 3 1;
#X connect 7 0 2 0;
#X connect 9 0 1 0;
#X connect 9 1 3 0;
#X connect 10 0 13 1;
#X connect 11 0 13 0;
#X connect 11 1 10 0;
#X connect 12 0 0 0;
#X connect 13 0 12 0;
#X coords 0 0 1 1 110 60 0;
#X restore 889 -29 pd sample_loop;
#X obj 563 6 vsl 15 64 0 1000 0 0 empty empty empty 0 -9 0 10 -262144
-1 -1 0 1;
#X obj 576 90 nbx 5 14 -1e+037 1e+037 0 0 empty empty empty 0 -8 0
10 -262144 -1 -1 0 256;
#X obj 834 412 s diffusion;
#X obj 837 382 nbx 5 14 -1e+037 1e+037 0 0 empty empty empty 0 -8 0
10 -262144 -1 -1 0.714286 256;
#X obj 1043 287 vsl 15 64 0 50 0 0 empty empty empty 0 -9 0 10 -262144
-1 -1 2200 1;
#X obj 1045 376 nbx 5 14 -1e+037 1e+037 0 0 empty empty empty 0 -8
0 10 -262144 -1 -1 17.4603 256;
#X obj 515 593 hip~ 30;
#X obj 936 477 bng 15 250 50 0 empty empty empty 17 7 0 10 -262144
-1 -1;
#X obj 969 290 vsl 15 64 0 3 0 0 empty empty empty 0 -9 0 10 -262144
-1 -1 0 1;
#X obj 956 368 nbx 5 14 -1e+037 1e+037 0 0 empty empty empty 0 -8 0
10 -262144 -1 -1 0 256;
#X obj 953 398 s scale;
#X obj 1054 401 s mod;
#X obj 1005 517 s randlen;
#X obj 992 451 bng 15 250 50 0 empty empty empty 17 7 0 10 -262144
-1 -1;
#X obj 495 -45 vsl 15 64 0 1 0 0 empty empty empty 0 -9 0 10 -262144
-1 -1 1900 1;
#X obj 498 88 nbx 5 14 -1e+037 1e+037 0 0 empty empty empty 0 -8 0
10 -262144 -1 -1 0.301587 256;
#X obj 81 148 catch~ taps;
#X obj 119 189 *~ 2;
#X obj 83 239 *~ 0.5;
#X obj 131 185;
#X obj 781 589 s xfade;
#X obj 804 546 tgl 15 0 empty empty empty 17 7 0 10 -262144 -1 -1 0
1;
#X obj 835 557 metro 50;
#X obj 849 522 bng 15 250 50 0 empty empty empty 17 7 0 10 -262144
-1 -1;
#X obj 1050 555 tgl 15 0 empty empty empty 17 7 0 10 -262144 -1 -1
0 1;
#X obj 1027 598 s randomfade;
#X obj 234 -33 delread~ maindelay-\$1 4;
#X obj 403 719 delwrite~ maindelay-\$1 5000;
#X obj 981 175 s~ input;
#X obj 225 153 lop~ 5000;
#X obj 877 517 s randomize;
#X obj 37 367 catch~ tapsl;
#X obj 122 302 catch~ tapsr;
#X obj 89 522;
#X obj 159 438 *~ 1;
#X obj 42 451 *~ 1;
#X obj 44 230 vsl 15 64 0 3 0 0 empty empty empty 0 -9 0 10 -262144
-1 -1 0 1;
#X obj 51 326 nbx 5 14 -1e+037 1e+037 0 0 empty empty empty 0 -8 0
10 -262144 -1 -1 0 256;
#X obj 1094 293 vsl 15 64 0 2000 0 0 empty empty empty 0 -9 0 10 -262144
-1 -1 600 1;
#X obj 1096 382 nbx 5 14 -1e+037 1e+037 0 0 empty empty empty 0 -8
0 10 -262144 -1 -1 190.476 256;
#X obj 1105 407 s rand;
#X obj 630 441 apdelay 2.97;
#X obj 917 33 +~;
#X obj 412 8 vsl 15 64 0 15000 0 0 empty empty empty 0 -9 0 10 -262144
-1 -1 0 1;
#X obj 488 266 nbx 5 14 -1e+037 1e+037 0 0 empty empty empty 0 -8 0
10 -262144 -1 -1 0 256;
#X obj 496 179 vsl 15 64 0 15000 0 0 empty empty empty 0 -9 0 10 -262144
-1 -1 0 1;
#X obj 481 316 s ap_lop;
#X obj 284 127 hip~ 50;
#X obj 219 470 vsl 15 64 0 3 0 0 empty empty empty 0 -9 0 10 -262144
-1 -1 2800 1;
#X obj 226 566 nbx 5 14 -1e+037 1e+037 0 0 empty empty empty 0 -8 0
10 -262144 -1 -1 1.33333 256;
#X obj 435 163 vsl 15 64 0 3 0 0 empty empty empty 0 -9 0 10 -262144
-1 -1 0 1;
#X obj 400 251 nbx 5 14 -1e+037 1e+037 0 0 empty empty empty 0 -8 0
10 -262144 -1 -1 0 256;
#X obj 218 691 *~ 0;
#X obj 334 678 *~ 0;
#X obj 282 44 *~ 0;
#X obj 296 71 lop~ 3000;
#X obj 257 15 shift_multihead;
#X obj 397 518 shift_multihead 1;
#X obj 374 459 lop~ 5000;
#X obj 903 428 loadbang;
#X obj 610 276 apdelay 19.84;
#X obj 209 203 apdelay 22.57;
#X obj 627 372 apdelay 11.85;
#X obj 638 458 apdelay 13.12;
#X obj 210 178 apdelay 4.77;
#X obj 624 539 apdelay 6.24;
#X obj 630 489 apdelay 23.23;
#X obj 637 511 apdelay 33.28;
#X obj 626 389 apdelay 34.64;
#X obj 629 347 apdelay 9.44;
#X obj 638 567 apdelay 20.6;
#X obj 232 413 apdelay 66.78;
#X obj 615 320 apdelay 18.55;
#X obj 215 226 apdelay 149;
#X obj 229 249 apdelay 60.48;
#X obj 227 274 apdelay 124.99;
#X obj 230 343 apdelay 106.28;
#X obj 226 320 apdelay 89.244;
#X obj 224 298 apdelay 30.5;
#X obj 233 367 apdelay 82.49;
#X obj 230 391 apdelay 11.25;
#X obj 609 301 apdelay 4.74;
#X obj 626 418 apdelay 3.09;
#X obj 485 468 shift_multihead 0.5;
#X obj 485 527 shift_multihead -0.5;
#X obj 617 651 *~ 1;
#X obj 451 595 hip~ 80;
#X obj 1115 -13 tgl 15 0 empty empty empty 0 -6 0 10 -262144 -1 -1
0 1;
#X obj 949 -46 bng 15 250 50 0 empty empty empty 0 -6 0 10 -262144
-1 -1;
#N canvas 191 304 622 603 sample_loop 0;
#X obj 293 347 soundfiler;
#X obj -24 316 outlet~;
#X obj 293 134 openpanel;
#X obj 140 252 spigot;
#X obj 206 212 sel 1 0;
#X msg 228 252 0 1;
#X obj 297 72 inlet;
#X obj 197 51 inlet;
#X obj 293 159 t s b;
#X msg 293 317 read -resize \$1 \$2;
#X obj 299 252 pack s s;
#X obj -23 186 tabplay~ \$0--sample;
#X obj 329 218 symbol \$0--sample;
#X obj 266 440 table \$0--sample;
#X connect 2 0 8 0;
#X connect 3 0 11 0;
#X connect 4 0 11 0;
#X connect 4 1 5 0;
#X connect 5 0 11 0;
#X connect 6 0 4 0;
#X connect 6 0 3 1;
#X connect 7 0 2 0;
#X connect 8 0 10 0;
#X connect 8 1 12 0;
#X connect 9 0 0 0;
#X connect 10 0 9 0;
#X connect 11 0 1 0;
#X connect 11 1 3 0;
#X connect 12 0 10 1;
#X coords 0 0 1 1 110 60 0;
#X restore 992 -51 pd sample_loop;
#X obj 1146 114 polyblep;
#X obj 1268 158 nbx 5 14 -1e+037 1e+037 0 0 empty empty empty 0 -8
0 10 -262144 -1 -1 61 256;
#X obj 1344 173 mtof;
#X obj 953 81 apdelay_inner 4.232;
#X obj 872 117 apdelay_inner 2.232;
#X obj 916 137 apdelay_inner 5.232;
#X connect 0 0 74 0;
#X connect 4 0 0 0;
#X connect 6 0 30 0;
#X connect 7 0 56 1;
#X connect 8 0 69 0;
#X connect 9 0 8 1;
#X connect 10 0 8 1;
#X connect 11 0 8 1;
#X connect 12 0 8 1;
#X connect 13 0 8 0;
#X connect 15 0 8 2;
#X connect 22 0 26 1;
#X connect 23 0 26 0;
#X connect 26 0 69 0;
#X connect 27 0 28 0;
#X connect 28 0 53 0;
#X connect 30 0 29 0;
#X connect 31 0 32 0;
#X connect 32 0 38 0;
#X connect 33 0 54 0;
#X connect 34 0 57 0;
#X connect 35 0 36 0;
#X connect 36 0 37 0;
#X connect 40 0 39 0;
#X connect 41 0 42 0;
#X connect 42 0 4 1;
#X connect 44 0 45 0;
#X connect 45 0 1 0;
#X connect 45 0 1 1;
#X connect 48 0 47 0;
#X connect 50 0 49 0;
#X connect 51 0 52 0;
#X connect 53 0 4 0;
#X connect 53 0 83 0;
#X connect 56 0 91 0;
#X connect 58 0 62 0;
#X connect 58 0 79 0;
#X connect 59 0 61 0;
#X connect 59 0 80 0;
#X connect 61 0 1 1;
#X connect 62 0 1 0;
#X connect 63 0 64 0;
#X connect 64 0 62 1;
#X connect 64 0 61 1;
#X connect 65 0 66 0;
#X connect 66 0 67 0;
#X connect 68 0 90 0;
#X connect 69 0 120 0;
#X connect 70 0 7 0;
#X connect 71 0 73 0;
#X connect 72 0 71 0;
#X connect 74 0 56 0;
#X connect 75 0 76 0;
#X connect 76 0 79 1;
#X connect 76 0 80 1;
#X connect 77 0 78 0;
#X connect 78 0 81 1;
#X connect 79 0 85 0;
#X connect 80 0 84 0;
#X connect 80 0 85 0;
#X connect 81 0 82 0;
#X connect 83 0 81 0;
#X connect 84 0 113 0;
#X connect 85 0 84 0;
#X connect 85 0 110 0;
#X connect 85 0 111 0;
#X connect 86 0 34 0;
#X connect 87 0 108 0;
#X connect 88 0 100 0;
#X connect 89 0 95 0;
#X connect 90 0 93 0;
#X connect 91 0 88 0;
#X connect 92 0 97 0;
#X connect 93 0 94 0;
#X connect 94 0 92 0;
#X connect 95 0 109 0;
#X connect 96 0 89 0;
#X connect 97 0 33 0;
#X connect 98 0 87 0;
#X connect 99 0 96 0;
#X connect 100 0 101 0;
#X connect 101 0 102 0;
#X connect 102 0 105 0;
#X connect 103 0 106 0;
#X connect 104 0 103 0;
#X connect 105 0 104 0;
#X connect 106 0 107 0;
#X connect 107 0 98 0;
#X connect 108 0 99 0;
#X connect 109 0 68 0;
#X connect 110 0 113 0;
#X connect 111 0 112 0;
#X connect 112 0 113 0;
#X connect 113 0 54 0;
#X connect 114 0 116 1;
#X connect 115 0 116 0;
#X connect 116 0 69 0;
#X connect 118 0 119 0;
#X connect 119 0 117 0;
#X connect 120 0 121 0;
#X connect 121 0 122 0;
#X connect 122 0 91 0;
