#N canvas 194 50 526 1011 10;
#X obj 148 774 r notesIn-\$1;
#X obj 193 810 sel 1;
#N canvas 273 50 351 238 latch 0;
#X obj 160 117 tgl 15 0 empty empty empty 17 7 0 10 -262144 -1 -1 0
1;
#X obj 115 162 spigot 1;
#X obj 33 143 spigot 0;
#X obj 160 144 == 0;
#X obj 160 68 t b b;
#X obj 160 50 inlet;
#X obj 33 199 outlet;
#X obj 33 85 inlet;
#X text 14 13 incoming notes get sent through latch if enabled \, or
directly to output if disabled;
#X obj 190 144 sel 1;
#X obj 33 161 latch-notes;
#X obj 190 200 s aux-led-\$1;
#X msg 217 162 0;
#X msg 190 162 1;
#X connect 0 0 3 0;
#X connect 0 0 2 1;
#X connect 0 0 9 0;
#X connect 1 0 6 0;
#X connect 2 0 10 0;
#X connect 3 0 1 1;
#X connect 4 0 0 0;
#X connect 4 1 10 1;
#X connect 5 0 4 0;
#X connect 7 0 2 0;
#X connect 7 0 1 0;
#X connect 9 0 13 0;
#X connect 9 1 12 0;
#X connect 10 0 6 0;
#X connect 12 0 11 0;
#X connect 13 0 11 0;
#X restore 148 828 pd latch;
#X obj 193 792 r auxIn-\$1;
#X obj 13 4 r loadbang-\$1;
#X obj 148 846 unpack 0 0;
#X msg 148 864 notes \$1;
#X msg 205 864 notes_vel \$1;
#X obj 83 948 outlet~ outL-\$1;
#X obj 154 930 outlet~ outR-\$1;
#X obj 13 966 s screenLine5;
#X obj 13 902 pd~ -ninsig 0 -noutsig 2;
#X obj 38 268 r samp_source-\$1;
#X msg 38 286 samp_source \$1;
#X obj 48 314 r samp_select-\$1;
#X msg 48 332 samp_select \$1;
#X obj 58 360 r samp_semitone-\$1;
#X msg 58 378 samp_semitone \$1;
#X obj 68 406 r samp_cent-\$1;
#X msg 68 424 samp_cent \$1;
#X obj 78 452 r samp_start-\$1;
#X msg 78 470 samp_start \$1;
#X obj 88 498 r samp_end-\$1;
#X msg 88 516 samp_end \$1;
#X obj 98 544 r samp_mode-\$1;
#X msg 98 562 samp_mode \$1;
#X obj 108 590 r samp_attack-\$1;
#X msg 108 608 samp_attack \$1;
#X obj 118 636 r samp_ctrlsmooth-\$1;
#X msg 118 654 samp_ctrlsmooth \$1;
#X obj 128 682 r samp_rc_size-\$1;
#X msg 128 700 samp_rc_size \$1;
#X obj 138 728 r samp_rc_env-\$1;
#X msg 138 746 samp_rc_env \$1;
#X obj 18 76 sel \$1;
#X obj 18 58 unpack s s;
#X obj 18 146 &&;
#X msg 75 112 1;
#X msg 270 132 0;
#X msg 18 94 1;
#X msg 51 94 0;
#X obj 18 40 r activePage;
#X obj 75 76 sel pg_select pg_modes pg_control;
#X msg 18 192 active \$1;
#X msg 140 149 1;
#X msg 28 240 pagemodes \$1;
#X msg 97 122 0;
#X msg 205 176 0;
#X obj 292 936 s oscOut;
#X obj 292 901 bng 15 250 50 0 empty empty empty 17 7 0 10 -262144
-1 -1;
#X msg 292 918 /oled/gFillArea 3 0 50 128 14 0;
#X obj 18 164 change;
#X obj 292 455 &&;
#X obj 292 873 change;
#X msg 13 22 pd~ start -nogui pd~-samplement.pd;
#X obj 13 948 spigot;
#X connect 0 0 2 0;
#X connect 1 0 2 1;
#X connect 2 0 5 0;
#X connect 3 0 1 0;
#X connect 4 0 54 0;
#X connect 5 0 6 0;
#X connect 5 1 7 0;
#X connect 6 0 11 0;
#X connect 7 0 11 0;
#X connect 11 0 55 0;
#X connect 11 1 8 0;
#X connect 11 2 9 0;
#X connect 12 0 13 0;
#X connect 13 0 11 0;
#X connect 14 0 15 0;
#X connect 15 0 11 0;
#X connect 16 0 17 0;
#X connect 17 0 11 0;
#X connect 18 0 19 0;
#X connect 19 0 11 0;
#X connect 20 0 21 0;
#X connect 21 0 11 0;
#X connect 22 0 23 0;
#X connect 23 0 11 0;
#X connect 24 0 25 0;
#X connect 25 0 11 0;
#X connect 26 0 27 0;
#X connect 27 0 11 0;
#X connect 28 0 29 0;
#X connect 29 0 11 0;
#X connect 30 0 31 0;
#X connect 31 0 11 0;
#X connect 32 0 33 0;
#X connect 33 0 11 0;
#X connect 34 0 39 0;
#X connect 34 1 40 0;
#X connect 35 0 34 0;
#X connect 35 1 42 0;
#X connect 36 0 51 0;
#X connect 37 0 36 1;
#X connect 37 0 52 1;
#X connect 38 0 36 1;
#X connect 38 0 45 0;
#X connect 38 0 52 1;
#X connect 39 0 36 0;
#X connect 39 0 52 0;
#X connect 40 0 36 0;
#X connect 40 0 52 0;
#X connect 41 0 35 0;
#X connect 42 0 37 0;
#X connect 42 0 47 0;
#X connect 42 1 44 0;
#X connect 42 1 46 0;
#X connect 42 2 37 0;
#X connect 42 2 47 0;
#X connect 42 3 38 0;
#X connect 43 0 11 0;
#X connect 44 0 45 0;
#X connect 44 0 52 1;
#X connect 45 0 11 0;
#X connect 46 0 36 1;
#X connect 47 0 45 0;
#X connect 49 0 50 0;
#X connect 50 0 48 0;
#X connect 51 0 43 0;
#X connect 52 0 53 0;
#X connect 53 0 49 0;
#X connect 53 0 55 1;
#X connect 54 0 11 0;
#X connect 55 0 10 0;
