#N canvas 118 96 1011 657 10;
#X obj 22 17 r notesIn-\$1;
#X obj 27 35 s notesOut-\$1;
#X obj 130 71 r loaddefs-\$1;
#X msg 130 125 loaddefinitions \$1;
#X obj 135 89 print loading definiton for \$1;
#X obj 130 107 symbol;
#X obj 595 545 inlet~ inL-\$1;
#X obj 703 545 inlet~ inR-\$1;
#X obj 595 601 outlet~ outL-\$1;
#X obj 704 601 outlet~ outR-\$1;
#X obj 79 467 samp/samp_voice \$1;
#X obj 44 81 sel 1;
#N canvas 273 50 351 238 latch 0;
#X obj 160 117 tgl 15 0 empty empty empty 17 7 0 10 -262144 -1 -1 0
1;
#X obj 115 162 spigot 1;
#X obj 33 143 spigot 0;
#X obj 160 144 == 0;
#X obj 160 68 t b b;
#X obj 160 50 inlet;
#X obj 33 199 outlet;
#X obj 33 85 inlet;
#X text 14 13 incoming notes get sent through latch if enabled \, or
directly to output if disabled;
#X obj 190 144 sel 1;
#X obj 33 161 latch-notes;
#X obj 190 200 s aux-led-\$1;
#X msg 217 162 0;
#X msg 190 162 1;
#X connect 0 0 3 0;
#X connect 0 0 2 1;
#X connect 0 0 9 0;
#X connect 1 0 6 0;
#X connect 2 0 10 0;
#X connect 3 0 1 1;
#X connect 4 0 0 0;
#X connect 4 1 10 1;
#X connect 5 0 4 0;
#X connect 7 0 2 0;
#X connect 7 0 1 0;
#X connect 9 0 13 0;
#X connect 9 1 12 0;
#X connect 10 0 6 0;
#X connect 12 0 11 0;
#X connect 13 0 11 0;
#X restore 22 127 pd latch;
#X obj 44 63 r auxIn-\$1;
#X obj 22 163 pack 0 0 0, f 11;
#X obj 22 391 unpack 0 0;
#X obj 79 409 > 0;
#X obj 65 343 unpack 0 0;
#X obj 122 361 > 0;
#X obj 109 295 unpack 0 0;
#X obj 166 313 > 0;
#X obj 153 247 unpack 0 0;
#X obj 210 265 > 0;
#X obj 931 546 +~;
#X obj 837 545 +~;
#X obj 122 419 samp/samp_voice \$1;
#X obj 166 371 samp/samp_voice \$1;
#X obj 210 323 samp/samp_voice \$1;
#X obj 254 275 samp/samp_voice \$1;
#X obj 197 199 unpack 0 0;
#X obj 254 217 > 0;
#X obj 130 143 KontrolModule \$1 samplement;
#X obj 318 146 unpack s s;
#X obj 318 128 r activePage;
#X obj 375 183 s redrawsamp;
#X obj 22 181 route 1 2 3 4 5, f 37;
#X obj 22 145 poly 5 1, f 11;
#X obj 375 165 sel pg_control;
#X obj 331 18 r loadbang-\$1;
#X obj 336 82 s aux-label-\$1;
#X obj 378 46 int 0;
#X obj 378 64 s aux-led-\$1;
#X obj 336 64 symbol;
#X obj 331 100 print loaded:samplement into \$1;
#X connect 0 0 1 0;
#X connect 0 0 12 0;
#X connect 2 0 5 0;
#X connect 2 0 4 0;
#X connect 3 0 31 0;
#X connect 5 0 3 0;
#X connect 6 0 8 0;
#X connect 7 0 9 0;
#X connect 10 0 24 0;
#X connect 10 1 23 0;
#X connect 11 0 12 1;
#X connect 12 0 36 0;
#X connect 13 0 11 0;
#X connect 14 0 35 0;
#X connect 15 0 10 1;
#X connect 15 1 16 0;
#X connect 16 0 10 0;
#X connect 17 0 25 1;
#X connect 17 1 18 0;
#X connect 18 0 25 0;
#X connect 19 0 26 1;
#X connect 19 1 20 0;
#X connect 20 0 26 0;
#X connect 21 0 27 1;
#X connect 21 1 22 0;
#X connect 22 0 27 0;
#X connect 23 0 9 0;
#X connect 24 0 8 0;
#X connect 25 0 24 0;
#X connect 25 1 23 0;
#X connect 26 0 24 0;
#X connect 26 1 23 0;
#X connect 27 0 24 0;
#X connect 27 1 23 0;
#X connect 28 0 24 0;
#X connect 28 1 23 0;
#X connect 29 0 28 1;
#X connect 29 1 30 0;
#X connect 30 0 28 0;
#X connect 32 1 37 0;
#X connect 33 0 32 0;
#X connect 35 0 15 0;
#X connect 35 1 17 0;
#X connect 35 2 19 0;
#X connect 35 3 21 0;
#X connect 35 4 29 0;
#X connect 36 0 14 0;
#X connect 36 1 14 1;
#X connect 36 2 14 2;
#X connect 37 0 34 0;
#X connect 38 0 40 0;
#X connect 38 0 42 0;
#X connect 38 0 43 0;
#X connect 40 0 41 0;
#X connect 42 0 39 0;
