#N canvas 118 96 1365 794 10;
#X obj 22 17 r notesIn-\$1;
#X obj 27 35 s notesOut-\$1;
#X obj 130 71 r loaddefs-\$1;
#X msg 130 125 loaddefinitions \$1;
#X obj 131 25 r loadbang-\$1;
#X obj 135 89 print loading definiton for \$1;
#X obj 130 107 symbol;
#X obj 975 689 inlet~ inL-\$1;
#X obj 1083 689 inlet~ inR-\$1;
#X obj 975 745 outlet~ outL-\$1;
#X obj 1084 745 outlet~ outR-\$1;
#X obj 79 611 samp/samp_voice \$1;
#X obj 44 81 sel 1;
#N canvas 273 50 520 509 latch 0;
#X obj 263 200 bng 15 250 50 0 empty empty empty 17 7 0 10 -262144
-1 -1;
#X obj 263 232 tgl 15 0 empty empty empty 17 7 0 10 -262144 -1 -1 0
1;
#X obj 171 374 spigot 1;
#X obj 43 298 spigot 0;
#X obj 208 268 == 0;
#X obj 124 298 bng 15 250 50 0 empty empty empty 17 7 0 10 -262144
-1 -1;
#X obj 269 172 t b b, f 7;
#X obj 262 106 inlet;
#X obj 43 439 outlet;
#X obj 43 106 inlet;
#X text 44 53 incoming notes get sent through latch if enabled \, or
directly to output if disabled;
#X obj 383 435 s screenLine5;
#X obj 322 265 sel 1;
#X obj 225 141 spigot 1;
#X obj 43 371 latch-notes;
#X msg 246 380 Latch : ON;
#X msg 383 363 Latch : OFF;
#X obj 246 418 bng 15 250 50 0 empty empty empty 17 7 0 10 -262144
-1 -1;
#X obj 246 435 delay 3000;
#X obj 246 453 s redrawsamp;
#X obj 287 348 s aux-led-\$1;
#X msg 342 319 0;
#X msg 308 320 1;
#X connect 0 0 1 0;
#X connect 1 0 4 0;
#X connect 1 0 3 1;
#X connect 1 0 12 0;
#X connect 2 0 8 0;
#X connect 3 0 14 0;
#X connect 4 0 2 1;
#X connect 5 0 14 1;
#X connect 6 0 0 0;
#X connect 6 1 5 0;
#X connect 7 0 13 0;
#X connect 9 0 3 0;
#X connect 9 0 2 0;
#X connect 12 0 15 0;
#X connect 12 0 22 0;
#X connect 12 1 16 0;
#X connect 12 1 21 0;
#X connect 13 0 6 0;
#X connect 14 0 8 0;
#X connect 15 0 11 0;
#X connect 15 0 17 0;
#X connect 16 0 11 0;
#X connect 16 0 17 0;
#X connect 17 0 18 0;
#X connect 18 0 19 0;
#X connect 21 0 20 0;
#X connect 22 0 20 0;
#X restore 22 127 pd latch;
#X obj 44 63 r auxIn-\$1;
#X obj 22 163 pack 0 0 0, f 11;
#X obj 22 535 unpack 0 0;
#X obj 79 553 > 0;
#X obj 66 487 unpack 0 0;
#X obj 123 505 > 0;
#X obj 111 439 unpack 0 0;
#X obj 168 457 > 0;
#X obj 155 391 unpack 0 0;
#X obj 212 409 > 0;
#X obj 1311 690 +~;
#X obj 1217 689 +~;
#X obj 123 563 samp/samp_voice \$1;
#X obj 168 515 samp/samp_voice \$1;
#X obj 212 467 samp/samp_voice \$1;
#X obj 257 419 samp/samp_voice \$1;
#X obj 200 343 unpack 0 0;
#X obj 257 361 > 0;
#X obj 244 295 unpack 0 0;
#X obj 301 313 > 0;
#X obj 301 371 samp/samp_voice \$1;
#X obj 131 43 print loaded:samplement into \$1, f 35;
#X obj 130 143 KontrolModule \$1 samplement;
#X obj 367 44 unpack s s;
#X obj 367 26 r activePage;
#X obj 342 149 s redrawsamp;
#X obj 424 82 sel pg_pitch;
#X obj 404 120 sel pg_amp;
#X obj 22 181 route 1 2 3 4 5 6, f 45;
#X obj 22 145 poly 6 1, f 11;
#X connect 0 0 1 0;
#X connect 0 0 13 0;
#X connect 2 0 6 0;
#X connect 2 0 5 0;
#X connect 3 0 36 0;
#X connect 4 0 35 0;
#X connect 6 0 3 0;
#X connect 7 0 9 0;
#X connect 8 0 10 0;
#X connect 11 0 25 0;
#X connect 11 1 24 0;
#X connect 12 0 13 1;
#X connect 13 0 43 0;
#X connect 14 0 12 0;
#X connect 15 0 42 0;
#X connect 16 0 11 1;
#X connect 16 1 17 0;
#X connect 17 0 11 0;
#X connect 18 0 26 1;
#X connect 18 1 19 0;
#X connect 19 0 26 0;
#X connect 20 0 27 1;
#X connect 20 1 21 0;
#X connect 21 0 27 0;
#X connect 22 0 28 1;
#X connect 22 1 23 0;
#X connect 23 0 28 0;
#X connect 24 0 10 0;
#X connect 25 0 9 0;
#X connect 26 0 25 0;
#X connect 26 1 24 0;
#X connect 27 0 25 0;
#X connect 27 1 24 0;
#X connect 28 0 25 0;
#X connect 28 1 24 0;
#X connect 29 0 25 0;
#X connect 29 1 24 0;
#X connect 30 0 29 1;
#X connect 30 1 31 0;
#X connect 31 0 29 0;
#X connect 32 0 34 1;
#X connect 32 1 33 0;
#X connect 33 0 34 0;
#X connect 34 0 25 0;
#X connect 34 1 24 0;
#X connect 37 1 40 0;
#X connect 37 1 41 0;
#X connect 38 0 37 0;
#X connect 40 0 39 0;
#X connect 41 0 39 0;
#X connect 42 0 16 0;
#X connect 42 1 18 0;
#X connect 42 2 20 0;
#X connect 42 3 22 0;
#X connect 42 4 30 0;
#X connect 42 5 32 0;
#X connect 43 0 15 0;
#X connect 43 1 15 1;
#X connect 43 2 15 2;
