#N canvas 304 77 878 533 10;
#X obj 79 409 samp/samp_voice \$1;
#X obj 22 153 pack 0 0 0, f 11;
#X obj 22 381 unpack 0 0;
#X obj 65 333 unpack 0 0;
#X obj 109 285 unpack 0 0;
#X obj 153 237 unpack 0 0;
#X obj 813 447 +~;
#X obj 717 447 +~;
#X obj 122 361 samp/samp_voice \$1;
#X obj 166 313 samp/samp_voice \$1;
#X obj 210 265 samp/samp_voice \$1;
#X obj 254 217 samp/samp_voice \$1;
#X obj 197 189 unpack 0 0;
#X obj 22 171 route 1 2 3 4 5, f 37;
#X obj 22 135 poly 5 1, f 11;
#X obj 717 475 dac~;
#X obj 22 117 pack 0 0;
#X obj 67 99 r notes_vel;
#X obj 22 81 r notes;
#X obj 22 24 loadbang;
#X msg 22 42 \; pd dsp 1;
#X connect 0 0 7 0;
#X connect 0 1 6 0;
#X connect 1 0 13 0;
#X connect 2 0 0 1;
#X connect 2 1 0 0;
#X connect 3 0 8 1;
#X connect 3 1 8 0;
#X connect 4 0 9 1;
#X connect 4 1 9 0;
#X connect 5 0 10 1;
#X connect 5 1 10 0;
#X connect 6 0 15 1;
#X connect 7 0 15 0;
#X connect 8 0 7 0;
#X connect 8 1 6 0;
#X connect 9 0 7 0;
#X connect 9 1 6 0;
#X connect 10 0 7 0;
#X connect 10 1 6 0;
#X connect 11 0 7 0;
#X connect 11 1 6 0;
#X connect 12 0 11 1;
#X connect 12 1 11 0;
#X connect 13 0 2 0;
#X connect 13 1 3 0;
#X connect 13 2 4 0;
#X connect 13 3 5 0;
#X connect 13 4 12 0;
#X connect 14 0 1 0;
#X connect 14 1 1 1;
#X connect 14 2 1 2;
#X connect 16 0 14 0;
#X connect 17 0 16 1;
#X connect 18 0 16 0;
#X connect 19 0 20 0;
