#N canvas 74 23 1366 775 10;
#X obj 43 7 hsl 128 15 0 1 0 0 empty empty empty -2 -8 0 10 -262144
-1 -1 0 1;
#X obj 91 84 nbx 5 14 -1e+37 1e+37 0 0 empty empty empty 0 -8 0 10
-262144 -1 -1 0.25 256;
#X obj 561 29 inlet~;
#X obj 626 29 inlet~;
#X obj 111 31 r feedback-\$1;
#X obj 96 55 / 100;
#X obj 422 347 vd~ \$0-delay_r;
#X obj 286 605 delwrite~ \$0-delay_r 8000;
#X obj 214 696 outlet~;
#X obj 302 162 +~;
#X obj 434 211 abs~;
#X obj 321 487 hip~ 23;
#X obj 230 570 *~ 0.5;
#X obj 528 292 +~ 10;
#X obj 445 265 *~ 50;
#X obj 328 447 lop~ 5000;
#X obj 442 410 *~ 0.8;
#X obj 433 240 lop~ 0.5;
#X connect 0 0 1 0;
#X connect 2 0 9 0;
#X connect 3 0 9 1;
#X connect 4 0 5 0;
#X connect 5 0 1 0;
#X connect 6 0 12 0;
#X connect 6 0 16 0;
#X connect 9 0 10 0;
#X connect 9 0 15 0;
#X connect 10 0 17 0;
#X connect 11 0 7 0;
#X connect 12 0 8 0;
#X connect 13 0 6 0;
#X connect 14 0 13 0;
#X connect 15 0 11 0;
#X connect 16 0 15 0;
#X connect 17 0 14 0;
