#N canvas 144 186 826 612 12;
#X obj 125 138 t f b;
#X obj 176 171 f \$1;
#X obj 112 228 tabwrite arpseq-\$2;
#X obj 45 134 bng 15 250 50 0 empty empty empty 17 7 0 10 -262144 -1
-1;
#X obj 113 105 r step-\$1-\$2;
#X obj 346 345 s rackMsgs;
#X obj 294 65 r randomize-\$2;
#X obj 299 128 change 1;
#X obj 371 174 list append \$1;
#X obj 267 211 symbol \$2;
#X obj 282 187 bng 15 250 50 0 empty empty empty 17 7 0 10 -262144
-1 -1;
#X obj 309 355 print;
#X msg 341 315 setparam \$1 step-\$2 \$3;
#X obj 378 199 t l b;
#X obj 369 259 list;
#X obj 452 220 random 12;
#X obj 445 250 / 12;
#X obj 269 152 sel 1;
#X connect 0 0 2 0;
#X connect 0 1 1 0;
#X connect 1 0 2 1;
#X connect 4 0 0 0;
#X connect 4 0 3 0;
#X connect 6 0 7 0;
#X connect 7 0 17 0;
#X connect 8 0 13 0;
#X connect 9 0 8 0;
#X connect 10 0 9 0;
#X connect 12 0 5 0;
#X connect 12 0 11 0;
#X connect 13 0 14 0;
#X connect 13 1 15 0;
#X connect 14 0 12 0;
#X connect 15 0 16 0;
#X connect 16 0 14 1;
#X connect 17 0 10 0;
