#N canvas 4 50 1350 998 10;
#X obj 172 39 inlet~ inL-\$1;
#X obj 172 506 outlet~ outL-\$1;
#X obj 172 260 *~;
#X obj 434 16 r lowband-\$1;
#X obj 434 52 pack 1 30;
#X obj 434 70 line 0 3;
#X obj 434 34 / 100;
#X obj 481 198 sel \$1;
#X obj 481 180 unpack s s;
#X obj 481 162 r activePage;
#X obj 523 274 &&;
#X msg 538 226 1;
#X msg 685 260 0;
#X msg 481 226 1;
#X msg 514 226 0;
#X obj 579 324 delay 500;
#X obj 511 660 i;
#X obj 658 1100 f;
#X obj 511 624 / 100;
#X obj 511 606 -;
#X obj 499 578 f;
#X obj 499 560 t b f;
#X obj 351 1160 s oscOutRaw;
#X obj 594 40 r loadbang-\$1;
#X obj 599 104 s aux-label-\$1;
#X obj 641 68 int 0;
#X obj 641 86 s aux-led-\$1;
#X obj 599 86 symbol;
#X obj 290 148 *~;
#X obj 488 70 r highband-\$1;
#X obj 488 106 pack 1 30;
#X obj 488 124 line 0 3;
#X obj 488 88 / 100;
#X obj 601 650 i;
#X obj 673 1054 f;
#X obj 601 614 / 100;
#X obj 601 596 -;
#X obj 589 568 f;
#X obj 589 550 t b f;
#X obj 511 696 min 64;
#X obj 601 686 min 64;
#X obj 876 462 s rackMsgs;
#X obj 876 304 / 1023;
#X obj 876 368 symbol \$1;
#X obj 876 396 pack s 2;
#X obj 876 268 i;
#X obj 876 286 change -1;
#X obj 730 294 / 1023;
#X obj 730 368 symbol \$1;
#X obj 730 396 pack s 2;
#X obj 730 258 i;
#X obj 730 276 change -1;
#X obj 730 240 r oknob1Raw;
#X msg 730 414 setparam \$1 lowband \$2;
#X msg 876 414 setparam \$1 highband \$2;
#X msg 351 551 /oled/gShowInfoBar 3 0;
#X msg 215 551 /oled/gShowInfoBar 3 1;
#X obj 601 632 * 64;
#X obj 511 642 * 64;
#X obj 511 714 max 0;
#X obj 601 704 max 0;
#X obj 511 678 + 63;
#X obj 601 668 + 63;
#X obj 499 468 env~ 4352 2176;
#X obj 589 468 env~ 4352 2176;
#X obj 643 510 bng 15 250 50 0 empty empty empty 17 7 0 10 -262144
-1 -1;
#X obj 589 532 *;
#X obj 589 514 / 10;
#X obj 589 496 spigot 0;
#X msg 643 1146 /oled/gFlip 3 1;
#X msg 579 366 1;
#X obj 499 496 spigot 0;
#X obj 499 514 / 10;
#X obj 499 542 *;
#X obj 730 350 t b f, f 14;
#X obj 876 350 t b f, f 14;
#X msg 579 226 stop;
#X obj 172 488 hip~ 0;
#X obj 84 260 * 15;
#X obj 84 242 r infra_cut-\$1;
#X obj 84 278 f 0;
#X obj 713 828 f;
#X obj 728 792 r lowband-\$1;
#X obj 728 810 i;
#X obj 727 746 f;
#X obj 742 728 i;
#X obj 742 710 r highband-\$1;
#X obj 232 130 *~;
#X obj 350 158 *~;
#X obj 350 488 hip~ 0;
#X obj 350 506 outlet~ outR-\$1;
#X obj 350 39 inlet~ inR-\$1;
#X msg 25 551 /oled/gFillArea 3 0 50 128 14 0;
#X obj 25 533 sel 0;
#X msg 742 682 /oled/gFillArea 3 0 0 128 64 1;
#X obj 523 292 change;
#X obj 730 332 spigot 0;
#X obj 876 332 spigot 0;
#X obj 594 122 print loaded:eq2s into \$1;
#X obj 538 198 sel pg_eq2s pg_eq2s_param;
#X obj 876 250 r oknob2Raw;
#X msg 658 1118 /oled/gInvertArea 3 0 0 64 \$1 1;
#X msg 673 1072 /oled/gInvertArea 3 64 0 64 \$1 1;
#X obj 114 92 r freq-\$1;
#X obj 172 278 lop~ 1000;
#X obj 232 278 lop~ 1000;
#X obj 290 296 hip~ 1000;
#X obj 350 296 hip~ 1000;
#X obj 699 908 spigot 0;
#X obj 643 664 t b b b b b b b b;
#X obj 1028 304 / 1023;
#X obj 1028 368 symbol \$1;
#X obj 1028 396 pack s 2;
#X obj 1028 268 i;
#X obj 1028 286 change -1;
#X obj 1028 350 t b f, f 14;
#X obj 1028 332 spigot 0;
#X msg 1028 414 setparam \$1 infra_cut \$2;
#X obj 744 890 r infra_cut-\$1;
#X obj 1028 250 r oknob3Raw;
#X obj 683 990 f;
#X obj 698 972 i;
#X obj 698 954 r freq-\$1;
#X obj 1187 304 / 1023;
#X obj 1187 368 symbol \$1;
#X obj 1187 396 pack s 2;
#X obj 1187 268 i;
#X obj 1187 286 change -1;
#X obj 1187 350 t b f, f 14;
#X obj 1187 332 spigot 0;
#X obj 1187 250 r oknob4Raw;
#X msg 1187 414 setparam \$1 freq \$2;
#X msg 683 1008 /oled/gPrintln 3 62 0 8 0 X = \$1 Hz;
#X msg 699 926 /oled/gPrintln 3 0 0 8 0 cut/15Hz;
#X msg 713 846 /oled/gPrintln 3 21 53 8 0 \$1%;
#X msg 727 764 /oled/gPrintln 3 85 53 8 0 \$1%;
#X connect 0 0 2 0;
#X connect 0 0 28 0;
#X connect 2 0 104 0;
#X connect 3 0 6 0;
#X connect 4 0 5 0;
#X connect 5 0 2 1;
#X connect 5 0 87 1;
#X connect 6 0 4 0;
#X connect 7 0 13 0;
#X connect 7 1 14 0;
#X connect 8 0 7 0;
#X connect 8 1 99 0;
#X connect 9 0 8 0;
#X connect 10 0 95 0;
#X connect 11 0 10 1;
#X connect 12 0 10 1;
#X connect 12 0 68 1;
#X connect 12 0 71 1;
#X connect 13 0 10 0;
#X connect 14 0 10 0;
#X connect 15 0 55 0;
#X connect 15 0 70 0;
#X connect 16 0 61 0;
#X connect 17 0 101 0;
#X connect 18 0 58 0;
#X connect 19 0 18 0;
#X connect 20 0 19 0;
#X connect 21 0 20 0;
#X connect 21 1 19 1;
#X connect 23 0 25 0;
#X connect 23 0 27 0;
#X connect 23 0 98 0;
#X connect 25 0 26 0;
#X connect 27 0 24 0;
#X connect 28 0 106 0;
#X connect 29 0 32 0;
#X connect 30 0 31 0;
#X connect 31 0 28 1;
#X connect 31 0 88 1;
#X connect 32 0 30 0;
#X connect 33 0 62 0;
#X connect 34 0 102 0;
#X connect 35 0 57 0;
#X connect 36 0 35 0;
#X connect 37 0 36 0;
#X connect 38 0 37 0;
#X connect 38 1 36 1;
#X connect 39 0 59 0;
#X connect 40 0 60 0;
#X connect 42 0 97 0;
#X connect 43 0 44 0;
#X connect 44 0 54 0;
#X connect 45 0 46 0;
#X connect 46 0 42 0;
#X connect 47 0 96 0;
#X connect 48 0 49 0;
#X connect 49 0 53 0;
#X connect 50 0 51 0;
#X connect 51 0 47 0;
#X connect 52 0 50 0;
#X connect 53 0 41 0;
#X connect 54 0 41 0;
#X connect 55 0 22 0;
#X connect 56 0 22 0;
#X connect 57 0 33 0;
#X connect 58 0 16 0;
#X connect 59 0 17 1;
#X connect 60 0 34 1;
#X connect 61 0 39 0;
#X connect 62 0 40 0;
#X connect 63 0 71 0;
#X connect 64 0 68 0;
#X connect 65 0 109 0;
#X connect 66 0 38 0;
#X connect 67 0 66 0;
#X connect 67 0 66 1;
#X connect 68 0 67 0;
#X connect 68 0 65 0;
#X connect 69 0 22 0;
#X connect 70 0 68 1;
#X connect 70 0 71 1;
#X connect 71 0 72 0;
#X connect 72 0 73 0;
#X connect 72 0 73 1;
#X connect 73 0 21 0;
#X connect 74 0 48 0;
#X connect 74 1 49 1;
#X connect 75 0 43 0;
#X connect 75 1 44 1;
#X connect 76 0 15 0;
#X connect 77 0 1 0;
#X connect 78 0 80 0;
#X connect 79 0 78 0;
#X connect 80 0 77 1;
#X connect 80 0 89 1;
#X connect 81 0 134 0;
#X connect 82 0 83 0;
#X connect 83 0 81 1;
#X connect 84 0 135 0;
#X connect 85 0 84 1;
#X connect 86 0 85 0;
#X connect 87 0 105 0;
#X connect 88 0 107 0;
#X connect 89 0 90 0;
#X connect 91 0 87 0;
#X connect 91 0 88 0;
#X connect 92 0 22 0;
#X connect 93 0 92 0;
#X connect 94 0 22 0;
#X connect 95 0 93 0;
#X connect 95 0 96 1;
#X connect 95 0 97 1;
#X connect 95 0 116 1;
#X connect 95 0 129 1;
#X connect 96 0 74 0;
#X connect 97 0 75 0;
#X connect 99 0 11 0;
#X connect 99 0 15 0;
#X connect 99 1 76 0;
#X connect 99 1 12 0;
#X connect 99 1 56 0;
#X connect 99 2 12 0;
#X connect 99 2 56 0;
#X connect 99 2 76 0;
#X connect 100 0 45 0;
#X connect 101 0 22 0;
#X connect 102 0 22 0;
#X connect 103 0 104 1;
#X connect 103 0 105 1;
#X connect 103 0 106 1;
#X connect 103 0 107 1;
#X connect 104 0 63 0;
#X connect 104 0 77 0;
#X connect 105 0 89 0;
#X connect 105 0 63 0;
#X connect 106 0 64 0;
#X connect 106 0 77 0;
#X connect 107 0 89 0;
#X connect 107 0 64 0;
#X connect 108 0 133 0;
#X connect 109 0 69 0;
#X connect 109 1 17 0;
#X connect 109 2 34 0;
#X connect 109 3 120 0;
#X connect 109 4 108 0;
#X connect 109 5 81 0;
#X connect 109 6 84 0;
#X connect 109 7 94 0;
#X connect 110 0 116 0;
#X connect 111 0 112 0;
#X connect 112 0 117 0;
#X connect 113 0 114 0;
#X connect 114 0 110 0;
#X connect 115 0 111 0;
#X connect 115 1 112 1;
#X connect 116 0 115 0;
#X connect 117 0 41 0;
#X connect 118 0 108 1;
#X connect 119 0 113 0;
#X connect 120 0 132 0;
#X connect 121 0 120 1;
#X connect 122 0 121 0;
#X connect 123 0 129 0;
#X connect 124 0 125 0;
#X connect 125 0 131 0;
#X connect 126 0 127 0;
#X connect 127 0 123 0;
#X connect 128 0 124 0;
#X connect 128 1 125 1;
#X connect 129 0 128 0;
#X connect 130 0 126 0;
#X connect 131 0 41 0;
#X connect 132 0 22 0;
#X connect 133 0 22 0;
#X connect 134 0 22 0;
#X connect 135 0 22 0;
