#N canvas 4 50 1358 659 10;
#X obj 304 186 r notesIn-\$1;
#X obj 304 671 s notesOut-\$1;
#X obj 38 179 inlet~ inL-\$1;
#X obj 135 186 inlet~ inR-\$1;
#X obj 27 671 outlet~ outL-\$1;
#X obj 136 671 outlet~ outR-\$1;
#X obj 445 180 r auxIn-\$1;
#X obj 423 208 r expIn-\$1;
#X obj 456 225 r fsIn-\$1;
#N canvas 4 50 1358 659 midictrl 0;
#X obj 427 191 notein_mono;
#X obj 503 379 > 1;
#X obj 360 492 nbx 5 14 -1e+037 1e+037 0 0 empty empty empty 0 -8 0
10 -262144 -1 -1 0 256;
#X obj 438 147 inlet;
#X obj 336 591 outlet;
#X obj 482 565 outlet;
#X obj 467 245 poly 1 1;
#X connect 1 0 5 0;
#X connect 2 0 4 0;
#X connect 3 0 0 0;
#X connect 3 0 6 0;
#X connect 6 1 2 0;
#X connect 6 2 1 0;
#X restore 351 261 pd midictrl;
#X obj 235 240 s mononote-\$1;
#X obj 51 547 tapedelay_freq \$1;
#X obj 769 166 t b n;
#X obj 771 218 /;
#X obj 761 241 nbx 5 14 -1e+037 1e+037 0 0 empty empty empty 0 -8 0
10 -262144 -1 -1 0 256;
#X obj 765 267 * 1000;
#X obj 734 107 r master-bpm;
#X obj 788 327 nbx 5 14 -1e+037 1e+037 0 0 empty empty empty 0 -8 0
10 -262144 -1 -1 0 256;
#X floatatom 891 175 5 0 0 0 - - -;
#X obj 915 142 hsl 128 15 0 5000 0 0 empty empty empty -2 -8 0 10 -262144
-1 -1 0 1;
#X obj 872 241 / 1;
#X obj 881 288 int;
#X obj 905 343 * 1;
#X obj 883 430 nbx 5 14 -1e+037 1e+037 0 0 empty empty empty 0 -8 0
10 -262144 -1 -1 0 256;
#X obj 907 308 max 1;
#X obj 953 264 spigot 1;
#X obj 875 217 spigot 0;
#X obj 774 135 t b n;
#X obj 1014 216 == 0;
#X obj 992 178 tgl 15 0 empty empty empty 17 7 0 10 -262144 -1 -1 0
1;
#X obj 962 331 nbx 5 14 -1e+037 1e+037 0 0 empty empty empty 0 -8 0
10 -262144 -1 -1 0 256;
#X obj 992 388 s aux-label-\$1;
#X obj 886 564 s len-\$1;
#X obj 827 57 r len_raw-\$1;
#X msg 993 356 1/4 notes: \$1;
#X obj 976 152 r temposync-\$1;
#X obj 1012 38 r expIn-\$1;
#X obj 1016 71 spigot 0;
#X obj 1109 9 r exprange-\$1;
#X obj 905 96 t b f;
#X obj 852 113 / 1;
#X obj 931 38 == 0;
#X obj 1163 67 > 0;
#X obj 998 104 + 1;
#X obj 842 83 nbx 5 14 -1e+037 1e+037 0 0 empty empty empty 0 -8 0
10 -262144 -1 -1 0 256;
#X obj 423 539 expr ((100-$f1)*(100-$f1)/10000)*20+0.1;
#X obj 363 582 lop~ 5;
#X obj 362 557 sig~ 1;
#X obj 363 532 change -1;
#X obj 472 464 r gatear-\$1;
#X obj 67 346 *~;
#X obj 111 347 *~;
#X obj 377 419;
#X obj 420 418 r midigate-\$1;
#X obj 368 500 spigot 0;
#X obj 425 466 == 0;
#X obj 1116 357 mtof;
#X obj 1117 383 nbx 5 14 -1e+037 1e+037 0 0 empty empty empty 0 -8
0 10 -262144 -1 -1 0 256;
#X msg 1109 297 60;
#X obj 1106 236 nbx 5 14 -1e+037 1e+037 0 0 empty empty empty 0 -8
0 10 -262144 -1 -1 0 256;
#X obj 1089 266 t f b;
#X obj 1095 423 nbx 5 14 -1e+037 1e+037 0 0 empty empty empty 0 -8
0 10 -262144 -1 -1 0 256;
#X obj 1092 403 /;
#X obj 1080 340 mtof;
#X obj 1173 426 r midispeed-\$1;
#X obj 1021 479 spigot 0;
#X obj 903 478 / 1;
#X obj 934 530 nbx 5 14 -1e+037 1e+037 0 0 empty empty empty 0 -8 0
10 -262144 -1 -1 0 256;
#X obj 1146 505 sel 0;
#X msg 1137 557 1;
#N canvas -8 -8 1366 725 freq 0;
#X obj 165 162 mtof;
#X obj 154 107 abs;
#X obj 113 82 nbx 5 14 -1e+037 1e+037 0 0 empty empty empty 0 -8 0
10 -262144 -1 -1 0 256;
#X obj 174 194 nbx 5 14 -1e+037 1e+037 0 0 empty empty empty 0 -8 0
10 -262144 -1 -1 0 256;
#X obj 162 135 + 24;
#X obj 223 120 clip -1 1;
#X obj 181 89 t f f;
#X obj 182 211 *;
#X obj 185 229 nbx 5 14 -1e+037 1e+037 0 0 empty empty empty 0 -8 0
10 -262144 -1 -1 0 256;
#X obj 84 57 r freqnote-\$1;
#X obj 47 127 r freq-\$1;
#X obj 126 270 +;
#X obj 126 221 t b f;
#X obj 132 308 s shift-\$1;
#X connect 0 0 3 0;
#X connect 1 0 4 0;
#X connect 2 0 6 0;
#X connect 3 0 7 0;
#X connect 4 0 0 0;
#X connect 5 0 7 1;
#X connect 6 0 1 0;
#X connect 6 1 5 0;
#X connect 7 0 8 0;
#X connect 8 0 12 0;
#X connect 9 0 2 0;
#X connect 10 0 11 0;
#X connect 11 0 13 0;
#X connect 12 0 11 0;
#X connect 12 1 11 1;
#X restore 712 533 pd freq;
#X obj 951 193 t b f;
#X obj 1032 559 t b f;
#X msg 768 189 15;
#X connect 0 0 9 0;
#X connect 2 0 50 0;
#X connect 3 0 51 0;
#X connect 9 0 10 0;
#X connect 9 0 59 0;
#X connect 9 1 54 0;
#X connect 11 0 4 0;
#X connect 11 1 5 0;
#X connect 12 0 73 0;
#X connect 12 1 13 1;
#X connect 13 0 14 0;
#X connect 14 0 15 0;
#X connect 15 0 17 0;
#X connect 16 0 27 0;
#X connect 17 0 20 1;
#X connect 17 0 22 1;
#X connect 18 0 26 0;
#X connect 18 0 25 0;
#X connect 19 0 18 0;
#X connect 20 0 21 0;
#X connect 21 0 24 0;
#X connect 22 0 23 0;
#X connect 23 0 66 0;
#X connect 24 0 22 0;
#X connect 24 0 30 0;
#X connect 25 0 23 0;
#X connect 26 0 20 0;
#X connect 27 0 18 0;
#X connect 27 1 12 0;
#X connect 28 0 25 1;
#X connect 29 0 71 0;
#X connect 30 0 34 0;
#X connect 33 0 44 0;
#X connect 34 0 31 0;
#X connect 35 0 71 0;
#X connect 36 0 37 0;
#X connect 37 0 43 0;
#X connect 38 0 41 0;
#X connect 38 0 42 0;
#X connect 39 0 40 0;
#X connect 39 1 40 1;
#X connect 40 0 18 0;
#X connect 41 0 39 0;
#X connect 42 0 37 1;
#X connect 43 0 39 0;
#X connect 44 0 40 0;
#X connect 45 0 46 1;
#X connect 46 0 51 1;
#X connect 46 0 50 1;
#X connect 47 0 46 0;
#X connect 48 0 47 0;
#X connect 49 0 45 0;
#X connect 50 0 11 0;
#X connect 51 0 11 1;
#X connect 53 0 54 1;
#X connect 53 0 55 0;
#X connect 54 0 48 0;
#X connect 55 0 47 0;
#X connect 56 0 57 0;
#X connect 57 0 62 1;
#X connect 58 0 56 0;
#X connect 59 0 60 0;
#X connect 60 0 63 0;
#X connect 60 1 58 0;
#X connect 61 0 65 0;
#X connect 62 0 61 0;
#X connect 63 0 62 0;
#X connect 64 0 65 1;
#X connect 64 0 68 0;
#X connect 65 0 72 0;
#X connect 66 0 67 0;
#X connect 67 0 32 0;
#X connect 68 0 69 0;
#X connect 69 0 72 0;
#X connect 71 0 18 0;
#X connect 71 1 28 0;
#X connect 71 1 26 1;
#X connect 72 0 66 0;
#X connect 72 1 66 1;
#X connect 73 0 13 0;
