#N canvas -8 -8 1366 725 10;
#X obj 350 142 vd~ \$0-delay;
#X obj 163 611 delwrite~ \$0-delay 4000;
#X obj 502 247 vline~;
#X msg 460 191 1000 1000;
#X msg 600 120 500 500;
#X msg 538 154 2000 2000;
#X msg 602 150 750 750;
#X msg 503 215 4000 4000;
#X msg 654 105 \$1 \$1;
#X obj 54 418 expr~ tanh($v1);
#X obj 12 231 hsl 128 15 0.01 3 0 0 empty empty empty -2 -8 0 10 -262144
-1 -1 0 1;
#X obj 85 280 expr (1/$f1);
#X obj 62 456 *~ 10;
#X obj 46 387 *~ 0.1;
#X obj 206 253 lop~ 2000;
#X obj 179 133 hsl 128 15 100 8000 0 0 empty empty empty -2 -8 0 10
-262144 -1 -1 0 1;
#X obj 185 184 nbx 5 14 -1e+037 1e+037 0 0 empty empty empty 0 -8 0
10 -262144 -1 -1 0 256;
#X obj 270 228 *~ 0.9;
#X obj 183 281 hilbert~;
#X obj 177 310 complex-mod~;
#X obj 271 274 nbx 5 14 -1e+037 1e+037 0 0 empty empty empty 0 -8 0
10 -262144 -1 -1 0 256;
#X obj 267 294 sig~;
#X obj 186 534 *~ 1;
#X obj 375 92 *~ 0.5;
#X obj 239 419 hsl 128 15 1 2 0 0 empty empty empty -2 -8 0 10 -262144
-1 -1 0 1;
#X obj 233 447 nbx 5 14 -1e+037 1e+037 0 0 empty empty empty 0 -8 0
10 -262144 -1 -1 0 256;
#X obj 321 185 hsl 128 15 0 1 0 0 empty empty empty -2 -8 0 10 -262144
-1 -1 0 1;
#X obj 309 209 nbx 5 14 -1e+037 1e+037 0 0 empty empty empty 0 -8 0
10 -262144 -1 -1 0 256;
#X msg 615 206 250 250;
#X msg 570 182 125 125;
#X obj 175 569 hip~ 100;
#X obj 456 80 hsl 128 15 0 5 0 0 empty empty empty -2 -8 0 10 -262144
-1 -1 0 1;
#X obj 435 106 nbx 5 14 -1e+037 1e+037 0 0 empty empty empty 0 -8 0
10 -262144 -1 -1 0 256;
#X msg 622 176 62.5 62.5;
#X obj 370 68 osc~ 1;
#X obj 411 571 outlet~;
#X obj 216 41 inlet~;
#X obj 255 77 *~ 0.5;
#X obj 281 41 inlet~;
#X obj 485 571 outlet~;
#X obj 684 55 r len-\$1;
#X obj 264 165 r feedback-\$1;
#X obj 253 376 r overdrive-\$1;
#X obj 77 258 r saturation-\$1;
#X obj 108 303 == 0;
#X obj 102 333 > 0;
#X obj 181 484 *~ 1;
#X obj 116 503 *~ 0;
#X obj 279 252 r shift-\$1;
#X obj 368 43 r modrate-\$1;
#X obj 466 19 r moddepth-\$1;
#X obj 465 48 / 20;
#X obj 87 81 r lopass-\$1;
#X obj 496 279 lop~ 8;
#X obj 494 391 r volume-\$1;
#X obj 491 466 *~ 1;
#X obj 517 436 / 100;
#X obj 249 189 / 100;
#X connect 0 0 17 0;
#X connect 0 0 55 0;
#X connect 2 0 53 0;
#X connect 3 0 2 0;
#X connect 4 0 2 0;
#X connect 5 0 2 0;
#X connect 6 0 2 0;
#X connect 7 0 2 0;
#X connect 8 0 2 0;
#X connect 9 0 12 0;
#X connect 10 0 11 0;
#X connect 10 0 13 1;
#X connect 11 0 12 1;
#X connect 12 0 47 0;
#X connect 13 0 9 0;
#X connect 14 0 18 0;
#X connect 15 0 16 0;
#X connect 16 0 14 1;
#X connect 17 0 14 0;
#X connect 18 0 19 0;
#X connect 18 1 19 1;
#X connect 19 0 13 0;
#X connect 19 0 46 0;
#X connect 20 0 21 0;
#X connect 21 0 19 2;
#X connect 22 0 30 0;
#X connect 23 0 0 0;
#X connect 24 0 25 0;
#X connect 25 0 22 1;
#X connect 26 0 27 0;
#X connect 27 0 17 1;
#X connect 28 0 2 0;
#X connect 29 0 2 0;
#X connect 30 0 1 0;
#X connect 31 0 32 0;
#X connect 32 0 23 1;
#X connect 33 0 2 0;
#X connect 34 0 23 0;
#X connect 36 0 37 0;
#X connect 37 0 14 0;
#X connect 38 0 37 0;
#X connect 40 0 8 0;
#X connect 41 0 57 0;
#X connect 42 0 25 0;
#X connect 43 0 44 0;
#X connect 43 0 45 0;
#X connect 43 0 13 1;
#X connect 43 0 11 0;
#X connect 44 0 46 1;
#X connect 45 0 47 1;
#X connect 46 0 22 0;
#X connect 47 0 22 0;
#X connect 48 0 21 0;
#X connect 49 0 34 0;
#X connect 50 0 51 0;
#X connect 51 0 32 0;
#X connect 52 0 16 0;
#X connect 53 0 0 0;
#X connect 54 0 56 0;
#X connect 55 0 39 0;
#X connect 55 0 35 0;
#X connect 56 0 55 1;
#X connect 57 0 27 0;
