#N canvas 0 23 1366 725 10;
#X obj 238 39 inlet~;
#X obj 283 611 outlet~;
#X obj 403 481 +~;
#X obj 529 814;
#X obj 641 633 throw~ tapsl-\$1;
#X obj 783 619 throw~ tapsr-\$1;
#X obj 645 575 *~ \$3;
#X obj 494 51 r~ input-\$1;
#X obj 760 561 *~ \$4;
#X obj 536 204 apdelay_inner \$1 \$2;
#X obj 710 93 inlet;
#X obj 790 285 mtof;
#X obj 791 311 nbx 5 14 -1e+37 1e+37 0 0 empty empty empty 0 -8 0 10
-262144 -1 -1 261.626 256;
#X msg 783 225 60;
#X obj 780 164 nbx 5 14 -1e+37 1e+37 0 0 empty empty empty 0 -8 0 10
-262144 -1 -1 72 256;
#X obj 763 194 t f b;
#X obj 766 331 /;
#X obj 754 268 mtof;
#X obj 719 129 route \$5;
#X msg 740 156 \$1;
#X floatatom 763 373 5 0 0 0 - - -;
#X obj 754 481 /;
#X obj 748 429 t b f;
#X msg 748 458 1;
#X connect 0 0 9 0;
#X connect 2 0 1 0;
#X connect 2 0 6 0;
#X connect 2 0 8 0;
#X connect 6 0 4 0;
#X connect 7 0 9 0;
#X connect 8 0 5 0;
#X connect 9 0 2 0;
#X connect 10 0 18 0;
#X connect 11 0 12 0;
#X connect 12 0 16 1;
#X connect 13 0 11 0;
#X connect 14 0 15 0;
#X connect 15 0 17 0;
#X connect 15 1 13 0;
#X connect 16 0 20 0;
#X connect 17 0 16 0;
#X connect 18 0 19 0;
#X connect 19 0 14 0;
#X connect 20 0 22 0;
#X connect 21 0 9 1;
#X connect 22 0 23 0;
#X connect 22 1 21 1;
#X connect 23 0 21 0;
