#N canvas 0 30 1370 729 10;
#X obj 30 104 inlet~;
#X obj 283 611 outlet~;
#X obj 75 365 *~ -1;
#X obj 946 159 + 500;
#X obj 928 100 random 1500;
#X obj 1047 51 loadbang;
#X obj 950 242 nbx 5 14 -1e+37 1e+37 0 0 empty empty empty 0 -8 0 10
-262144 -1 -1 0.44025 256;
#X obj 991 62 bng 15 250 50 0 empty empty empty 17 7 0 10 -262144 -1
-1;
#X obj 486 97 r diffusion-\$1;
#X obj 1025 23 r loadbang-\$1;
#X obj 180 248 *~ 0.75;
#X obj 767 14 inlet;
#X obj 179 383 modallpass100ms~;
#X obj 955 201 / 4000;
#X obj 295 340 r~ mod_sig-\$1;
#X connect 0 0 12 0;
#X connect 3 0 13 0;
#X connect 4 0 3 0;
#X connect 5 0 4 0;
#X connect 6 0 12 3;
#X connect 7 0 4 0;
#X connect 8 0 12 2;
#X connect 9 0 4 0;
#X connect 10 0 2 0;
#X connect 11 0 12 1;
#X connect 12 0 1 0;
#X connect 13 0 6 0;
#X connect 14 0 12 4;
