#N canvas 0 30 1370 729 10;
#X obj 30 104 inlet~;
#X obj 56 400 +~;
#X obj 283 611 outlet~;
#X obj 75 365 *~ -1;
#X obj 407 247 f 0.75;
#X obj 342 483 *~ 0.75;
#X obj 284 533 +~;
#X obj 306 130 delread4~ \$0-tap;
#X obj 847 344 osc~ 0.8;
#X obj 946 159 + 500;
#X obj 928 100 random 1500;
#X obj 1047 51 loadbang;
#X obj 950 242 nbx 5 14 -1e+37 1e+37 0 0 empty empty empty 0 -8 0 10
-262144 -1 -1 0.3075 256;
#X obj 991 62 bng 15 250 50 0 empty empty empty 17 7 0 10 -262144 -1
-1;
#X obj 280 195 +~;
#X obj 486 97 r diffusion-\$1;
#X obj 1025 23 r loadbang-\$1;
#X obj 773 534 +~;
#X obj 180 248 *~ 0.75;
#X obj 690 291 /~ 100;
#X obj 673 605 *~;
#X obj 31 569 delwrite~ \$0-tap 8000;
#X obj 643 179 vline~, f 9;
#X msg 662 153 \$1 \$1;
#X obj 1033 348 r~ mod_sig-\$1;
#X obj 882 424 *~;
#X obj 767 14 inlet;
#X floatatom 429 465 5 0 0 0 - - -;
#X obj 179 383 modallpass100ms~;
#X obj 955 201 / 4000;
#X obj 395 579 allpass100ms~;
#X obj 295 340 r~ mod_sig-\$1;
#X connect 0 0 1 0;
#X connect 0 0 28 0;
#X connect 0 0 30 0;
#X connect 1 0 5 0;
#X connect 1 0 21 0;
#X connect 3 0 1 1;
#X connect 4 0 5 1;
#X connect 4 0 18 1;
#X connect 4 0 27 0;
#X connect 5 0 6 1;
#X connect 7 0 14 0;
#X connect 8 0 25 0;
#X connect 9 0 29 0;
#X connect 10 0 9 0;
#X connect 11 0 10 0;
#X connect 12 0 8 0;
#X connect 12 0 28 3;
#X connect 13 0 10 0;
#X connect 14 0 6 0;
#X connect 14 0 18 0;
#X connect 15 0 4 0;
#X connect 15 0 28 2;
#X connect 15 0 30 2;
#X connect 16 0 10 0;
#X connect 17 0 20 1;
#X connect 18 0 3 0;
#X connect 19 0 20 0;
#X connect 20 0 7 0;
#X connect 22 0 19 0;
#X connect 22 0 7 0;
#X connect 23 0 22 0;
#X connect 24 0 25 1;
#X connect 25 0 17 0;
#X connect 26 0 23 0;
#X connect 26 0 28 1;
#X connect 26 0 30 1;
#X connect 28 0 2 0;
#X connect 29 0 12 0;
#X connect 31 0 28 4;
