#N canvas 74 49 1366 725 10;
#X obj 202 111 +~;
#X obj 244 79 *~ 0.9;
#X obj 850 304 vsl 15 64 0 1 0 0 empty empty empty 0 -9 0 10 -262144
-1 -1 0 1;
#X obj 410 103 nbx 5 14 -1e+37 1e+37 0 0 empty empty empty 0 -8 0 10
-262144 -1 -1 5000 256;
#X obj 567 -42 vsl 15 64 0 1000 0 0 empty empty empty 0 -9 0 10 -262144
-1 -1 0 1;
#X obj 580 42 nbx 5 14 -1e+37 1e+37 0 0 empty empty empty 0 -8 0 10
-262144 -1 -1 898 256;
#X obj 837 382 nbx 5 14 -1e+37 1e+37 0 0 empty empty empty 0 -8 0 10
-262144 -1 -1 0 256;
#X obj 1043 287 vsl 15 64 0 100 0 0 empty empty empty 0 -9 0 10 -262144
-1 -1 0 1;
#X obj 1045 376 nbx 5 14 -1e+37 1e+37 0 0 empty empty empty 0 -8 0
10 -262144 -1 -1 0 256;
#X obj 429 623 hip~ 30;
#X obj 969 290 vsl 15 64 0 3 0 0 empty empty empty 0 -9 0 10 -262144
-1 -1 0 1;
#X obj 956 368 nbx 5 14 -1e+37 1e+37 0 0 empty empty empty 0 -8 0 10
-262144 -1 -1 0 256;
#X obj 452 2 vsl 15 64 0 1 0 0 empty empty empty 0 -9 0 10 -262144
-1 -1 0 1;
#X obj 327 80 nbx 5 14 -1e+37 1e+37 0 0 empty empty empty 0 -8 0 10
-262144 -1 -1 0.567568 256;
#X obj 495 647 delwrite~ maindelay-\$1 5000;
#X obj 203 149 lop~ 5000;
#X obj 89 522;
#X obj 129 481 *~ 1;
#X obj 42 451 *~ 1;
#X obj 44 230 vsl 15 64 0 3 0 0 empty empty empty 0 -9 0 10 -262144
-1 -1 0 1;
#X obj 51 326 nbx 5 14 -1e+37 1e+37 0 0 empty empty empty 0 -8 0 10
-262144 -1 -1 0.5 256;
#X obj 1094 293 vsl 15 64 0 100 0 0 empty empty empty 0 -9 0 10 -262144
-1 -1 0 1;
#X obj 1096 382 nbx 5 14 -1e+37 1e+37 0 0 empty empty empty 0 -8 0
10 -262144 -1 -1 0 256;
#X obj 412 8 vsl 15 64 0 15000 0 0 empty empty empty 0 -9 0 10 -262144
-1 -1 0 1;
#X obj 209 130 hip~ 50;
#X obj 685 8 inlet~;
#X obj 747 13 inlet~;
#X obj 35 561 outlet~;
#X obj 120 579 outlet~;
#X obj 68 262 r volume-\$1;
#X obj 309 9 r decay-\$1;
#X obj 322 41 / 100;
#X obj 425 80 r lopass-\$1;
#X obj 834 412 s diffusion-\$1;
#X obj 953 398 s scale-\$1;
#X obj 1054 401 s mod-\$1;
#X obj 1105 407 s rand-\$1;
#X obj 1012 9 tgl 15 0 empty empty empty 0 -6 0 10 -262144 -1 -1 0
1;
#X obj 847 -13 bng 15 250 50 0 empty empty empty 0 -6 0 10 -262144
-1 -1;
#N canvas 191 304 622 603 sample_loop 0;
#X obj 293 347 soundfiler;
#X obj -24 316 outlet~;
#X obj 293 134 openpanel;
#X obj 140 252 spigot;
#X obj 206 212 sel 1 0;
#X msg 228 252 0 1;
#X obj 297 72 inlet;
#X obj 197 51 inlet;
#X obj 267 439 table \$0-sample;
#X obj -23 186 tabplay~ \$0-sample;
#X obj 329 218 symbol \$0-sample;
#X obj 293 159 t s b;
#X msg 293 317 read -resize \$1 \$2;
#X obj 299 252 pack s s;
#X connect 2 0 11 0;
#X connect 3 0 9 0;
#X connect 4 0 9 0;
#X connect 4 1 5 0;
#X connect 5 0 9 0;
#X connect 6 0 4 0;
#X connect 6 0 3 1;
#X connect 7 0 2 0;
#X connect 9 0 1 0;
#X connect 9 1 3 0;
#X connect 10 0 13 1;
#X connect 11 0 13 0;
#X connect 11 1 10 0;
#X connect 12 0 0 0;
#X connect 13 0 12 0;
#X coords 0 0 1 1 110 60 0;
#X restore 880 32 pd sample_loop;
#X obj 758 209 lop~ 5000;
#X obj 750 248 hip~ 50;
#X obj 480 138 r hipass-\$1;
#X obj 301 245 *~;
#X obj 305 202 sig~ 1;
#X obj 939 617 s scale-\$1;
#X msg 869 518 1;
#X msg 929 525 2;
#X msg 974 528 3;
#X msg 1040 536 4;
#X msg 1050 546 5;
#X obj 700 543 lop~ 8;
#X obj 714 385 r mod-\$1;
#X obj 692 574 s~ mod_sig-\$1;
#X obj 706 511 sig~;
#X obj 329 341 apdelay \$1 60.48 1 0 1;
#X obj 342 377 apdelay \$1 82.49 1 0 2;
#X obj 341 412 apdelay \$1 89.244 0 1 3;
#X obj 334 453 apdelay \$1 124.99 0 1 4;
#X obj 750 111 *~ 0.5;
#X obj 68 283 / 100;
#X obj 170 50;
#X msg 573 161 \$1 \$1;
#X obj 573 183 line~;
#X obj 134 0 delread4~ maindelay-\$1 4;
#N canvas 341 31 953 766 sizecalc 0;
#X obj 175 28 hsl 128 15 1 4 0 0 empty empty empty -2 -8 0 10 -262144
-1 -1 0 1;
#X floatatom 121 61 5 0 0 0 - - -;
#X obj 13 531 outlet;
#X obj 117 521 outlet;
#X obj 370 534 outlet;
#X obj 229 523 outlet;
#X obj 80 32 inlet spread;
#X obj 358 180 f;
#X obj 573 45 t b f;
#X obj 369 22 inlet size;
#X obj 452 282 lencalc;
#X obj 437 357 lencalc;
#X obj 445 407 lencalc;
#X obj 445 458 lencalc;
#X msg 521 226 1;
#X msg 459 228 0;
#X obj 452 179 t b b f;
#X floatatom 667 148 5 0 0 0 - - -;
#X floatatom 130 476 5 0 0 0 - - -;
#X obj 125 500 *;
#X floatatom 177 446 5 0 0 0 - - -;
#X obj 177 467 *;
#X floatatom 4 477 5 0 0 0 - - -;
#X obj 28 509 *;
#X floatatom 84 448 5 0 0 0 - - -;
#X obj 84 469 *;
#X floatatom 178 491 5 0 0 0 - - -;
#X obj 446 541 lencalc;
#X obj 431 616 lencalc;
#X obj 439 666 lencalc;
#X obj 439 717 lencalc;
#X floatatom 710 322 5 0 0 0 - - -;
#X floatatom 334 454 5 0 0 0 - - -;
#X obj 334 475 *;
#X floatatom 369 456 5 0 0 0 - - -;
#X obj 369 477 *;
#X floatatom 229 437 5 0 0 0 - - -;
#X obj 235 465 *;
#X floatatom 292 472 5 0 0 0 - - -;
#X obj 292 493 *;
#X floatatom 370 501 5 0 0 0 - - -;
#X obj 66 531 outlet;
#X obj 319 531 outlet;
#X obj 179 525 outlet;
#X obj 268 534 outlet;
#X connect 0 0 1 0;
#X connect 1 0 16 0;
#X connect 6 0 1 0;
#X connect 8 0 1 0;
#X connect 8 1 7 0;
#X connect 8 1 19 1;
#X connect 8 1 23 1;
#X connect 8 1 21 1;
#X connect 8 1 37 1;
#X connect 8 1 39 1;
#X connect 8 1 33 1;
#X connect 8 1 35 1;
#X connect 8 1 25 1;
#X connect 9 0 8 0;
#X connect 10 0 11 0;
#X connect 10 1 11 1;
#X connect 10 2 11 2;
#X connect 10 3 22 0;
#X connect 11 0 12 0;
#X connect 11 1 12 1;
#X connect 11 2 12 2;
#X connect 11 3 24 0;
#X connect 12 0 13 0;
#X connect 12 1 13 1;
#X connect 12 2 13 2;
#X connect 12 3 18 0;
#X connect 13 0 27 0;
#X connect 13 1 27 1;
#X connect 13 2 27 2;
#X connect 13 3 20 0;
#X connect 14 0 10 2;
#X connect 15 0 10 1;
#X connect 16 0 15 0;
#X connect 16 1 14 0;
#X connect 16 2 10 0;
#X connect 17 0 10 3;
#X connect 17 0 11 3;
#X connect 17 0 12 3;
#X connect 17 0 13 3;
#X connect 17 0 31 0;
#X connect 18 0 19 0;
#X connect 19 0 3 0;
#X connect 20 0 21 0;
#X connect 21 0 26 0;
#X connect 22 0 23 0;
#X connect 23 0 2 0;
#X connect 24 0 25 0;
#X connect 25 0 41 0;
#X connect 26 0 43 0;
#X connect 27 0 28 0;
#X connect 27 1 28 1;
#X connect 27 2 28 2;
#X connect 27 3 36 0;
#X connect 28 0 29 0;
#X connect 28 1 29 1;
#X connect 28 2 29 2;
#X connect 28 3 38 0;
#X connect 29 0 30 0;
#X connect 29 1 30 1;
#X connect 29 2 30 2;
#X connect 29 3 32 0;
#X connect 30 1 17 0;
#X connect 30 3 34 0;
#X connect 31 0 27 3;
#X connect 31 0 28 3;
#X connect 31 0 29 3;
#X connect 31 0 30 3;
#X connect 32 0 33 0;
#X connect 33 0 42 0;
#X connect 34 0 35 0;
#X connect 35 0 40 0;
#X connect 36 0 37 0;
#X connect 37 0 5 0;
#X connect 38 0 39 0;
#X connect 39 0 44 0;
#X connect 40 0 4 0;
#X restore 494 301 pd sizecalc;
#X f 37;
#X obj 661 241 nbx 5 14 -1e+37 1e+37 0 0 empty empty empty 0 -8 0 10
-262144 -1 -1 199.016 256;
#X obj 411 231 hsl 128 15 1 4 0 0 empty empty empty -2 -8 0 10 -262144
-1 -1 0 1;
#X obj 598 -16 r len-\$1;
#X obj 640 194 * 0.5;
#X obj 651 111 * 0.5;
#X obj 481 268 r spread-\$1;
#X obj 488 -1 r scale-\$1;
#X obj 515 61 t b f;
#X obj 534 88 - 1;
#X obj 535 110 * -1;
#X obj 318 492 apdelay \$1 60.48 1 0 1;
#X obj 322 516 apdelay \$1 82.49 1 0 2;
#X obj 321 551 apdelay \$1 89.244 0 1 3;
#X obj 319 577 apdelay \$1 124.99 0 1 4;
#X obj 533 540 nbx 5 14 -1e+37 1e+37 0 0 empty empty empty 0 -8 0 10
-262144 -1 -1 65.8955 256;
#X obj 479 335 nbx 5 14 -1e+37 1e+37 0 0 empty empty empty 0 -8 0 10
-262144 -1 -1 4.66 256;
#X floatatom 761 419 5 0 0 0 - - -;
#X obj 733 447 / 2000;
#X obj 873 102 *~ 4;
#X connect 0 0 24 0;
#X connect 1 0 0 0;
#X connect 2 0 6 0;
#X connect 3 0 15 1;
#X connect 3 0 40 1;
#X connect 4 0 5 0;
#X connect 5 0 69 0;
#X connect 5 0 70 0;
#X connect 6 0 33 0;
#X connect 7 0 8 0;
#X connect 8 0 35 0;
#X connect 9 0 14 0;
#X connect 10 0 11 0;
#X connect 11 0 34 0;
#X connect 12 0 13 0;
#X connect 13 0 1 1;
#X connect 15 0 43 0;
#X connect 17 0 28 0;
#X connect 18 0 27 0;
#X connect 19 0 20 0;
#X connect 20 0 18 1;
#X connect 20 0 17 1;
#X connect 21 0 22 0;
#X connect 22 0 36 0;
#X connect 23 0 3 0;
#X connect 24 0 15 0;
#X connect 25 0 59 0;
#X connect 26 0 59 0;
#X connect 29 0 60 0;
#X connect 30 0 31 0;
#X connect 31 0 13 0;
#X connect 32 0 3 0;
#X connect 37 0 39 1;
#X connect 38 0 39 0;
#X connect 39 0 84 0;
#X connect 40 0 41 0;
#X connect 41 0 55 0;
#X connect 42 0 41 1;
#X connect 43 0 55 0;
#X connect 44 0 43 1;
#X connect 46 0 45 0;
#X connect 47 0 45 0;
#X connect 48 0 45 0;
#X connect 49 0 45 0;
#X connect 50 0 45 0;
#X connect 51 0 53 0;
#X connect 52 0 82 0;
#X connect 54 0 51 0;
#X connect 55 0 56 0;
#X connect 56 0 57 0;
#X connect 57 0 58 0;
#X connect 58 0 76 0;
#X connect 59 0 40 0;
#X connect 60 0 20 0;
#X connect 62 0 63 0;
#X connect 63 0 64 0;
#X connect 64 0 1 0;
#X connect 64 0 61 0;
#X connect 64 0 18 0;
#X connect 64 0 17 0;
#X connect 65 0 81 0;
#X connect 65 1 56 1;
#X connect 65 2 57 1;
#X connect 65 3 58 1;
#X connect 65 4 76 1;
#X connect 65 5 77 1;
#X connect 65 6 78 1;
#X connect 65 7 80 0;
#X connect 66 0 65 1;
#X connect 67 0 65 0;
#X connect 68 0 5 0;
#X connect 69 0 66 0;
#X connect 70 0 62 0;
#X connect 71 0 65 0;
#X connect 72 0 73 0;
#X connect 73 0 5 0;
#X connect 73 1 74 0;
#X connect 73 1 69 1;
#X connect 74 0 75 0;
#X connect 75 0 70 1;
#X connect 76 0 77 0;
#X connect 77 0 78 0;
#X connect 78 0 79 0;
#X connect 79 0 9 0;
#X connect 80 0 79 1;
#X connect 81 0 55 1;
#X connect 82 0 83 0;
#X connect 83 0 54 0;
#X connect 84 0 40 0;
