#N canvas 0 25 1034 552 12;
#X obj 280 268 outlet;
#X obj 109 22 r decay-\$1;
#X obj 109 42 float;
#X msg 109 62 decay-pd \$1;
#X obj 109 82 r volume-\$1;
#X obj 109 102 float;
#X msg 109 122 volume-pd \$1;
#X obj 109 142 r diffusion-\$1;
#X obj 109 162 float;
#X msg 109 182 diffusion-pd \$1;
#X obj 109 202 r scale-\$1;
#X obj 109 222 float;
#X msg 109 242 scale-pd \$1;
#X obj 109 262 r mod-\$1;
#X obj 109 282 float;
#X msg 109 302 mod-pd \$1;
#X obj 109 322 r rand-\$1;
#X obj 109 342 float;
#X msg 109 362 rand-pd \$1;
#X obj 109 382 r lopass-\$1;
#X obj 109 402 float;
#X msg 109 422 lopass-pd \$1;
#X obj 109 442 r hipass-\$1;
#X obj 109 462 float;
#X msg 109 482 hipass-pd \$1;
#X obj 240 240 inlet;
#X connect 1 0 2 0;
#X connect 2 0 3 0;
#X connect 3 0 0 0;
#X connect 25 0 2 0;
#X connect 4 0 5 0;
#X connect 5 0 6 0;
#X connect 6 0 0 0;
#X connect 25 0 5 0;
#X connect 7 0 8 0;
#X connect 8 0 9 0;
#X connect 9 0 0 0;
#X connect 25 0 8 0;
#X connect 10 0 11 0;
#X connect 11 0 12 0;
#X connect 12 0 0 0;
#X connect 25 0 11 0;
#X connect 13 0 14 0;
#X connect 14 0 15 0;
#X connect 15 0 0 0;
#X connect 25 0 14 0;
#X connect 16 0 17 0;
#X connect 17 0 18 0;
#X connect 18 0 0 0;
#X connect 25 0 17 0;
#X connect 19 0 20 0;
#X connect 20 0 21 0;
#X connect 21 0 0 0;
#X connect 25 0 20 0;
#X connect 22 0 23 0;
#X connect 23 0 24 0;
#X connect 24 0 0 0;
#X connect 25 0 23 0;
