#N canvas 293 137 862 556 10;
#X obj 624 347 inlet~ inL-\$1;
#N canvas 951 297 511 678 waveformReader 0;
#X obj 56 16 inlet;
#X obj 221 529 list prepend;
#X obj 71 319 until;
#X obj 71 347 f 0;
#X obj 329 529 t l;
#X obj 71 365 i;
#X obj 71 401 * 0.5;
#X obj 71 419 + 0.5;
#X obj 71 483 i;
#X msg 19 529 sendtyped /oled/gWaveform ib 3;
#X obj 19 657 list append;
#X obj 19 675 list trim;
#X obj 19 693 outlet;
#X msg 107 319 0;
#N canvas 4 50 450 250 (subpatch) 0;
#X array scope-\$1 8320 float 2;
#X coords 0 1 8320 -1 128 64 1 0 0;
#X restore 271 94 graph;
#X obj 56 34 t b b b b b b;
#X obj 140 34 inlet~;
#X obj 71 437 * 64;
#X obj 131 90 tabwrite~ scope-\$1;
#X obj 71 383 tabread scope-\$1;
#X msg 71 297 128;
#X obj 197 208 + 1;
#X floatatom 197 236 5 0 0 0 - - -;
#X obj 197 154 * -1;
#X obj 197 172 + 1;
#X obj 197 190 * 12;
#X obj 286 180 inlet;
#X obj 216 62 spigot;
#X obj 115 347 + 13;
#X obj 197 136 spigot;
#X msg 307 208 13;
#X obj 197 108 r oknob2;
#X obj 324 626 tgl 15 0 empty empty empty 17 7 0 10 -262144 -1 -1 1
1;
#X obj 334 462 sel 0 1;
#X obj 197 333 * 1;
#X obj 326 319 r adaptzoom;
#X obj 228 209 bng 15 250 50 0 empty empty empty 17 7 0 10 -262144
-1 -1;
#X obj 334 357 r oknob4;
#X msg 334 403 0;
#X msg 356 403 1;
#X obj 334 375 sel 1 0;
#X obj 137 401 r oknob3;
#X obj 137 429 spigot;
#X obj 137 465 + 0.5;
#X obj 334 435 tgl 15 0 empty empty empty 17 7 0 10 -262144 -1 -1 1
1;
#X obj 71 465 clip 1 63;
#X obj 392 462 s freeze;
#X obj 137 447 * 49.5;
#X obj 377 518 s aux-led-\$1;
#X msg 377 490 0;
#X msg 334 490 1;
#X connect 0 0 15 0;
#X connect 1 0 4 0;
#X connect 1 0 10 1;
#X connect 2 0 3 0;
#X connect 3 0 5 0;
#X connect 3 0 28 0;
#X connect 4 0 1 1;
#X connect 5 0 19 0;
#X connect 6 0 7 0;
#X connect 7 0 17 0;
#X connect 8 0 1 0;
#X connect 9 0 10 0;
#X connect 10 0 11 0;
#X connect 11 0 12 0;
#X connect 13 0 3 1;
#X connect 15 0 9 0;
#X connect 15 1 20 0;
#X connect 15 2 13 0;
#X connect 15 3 1 0;
#X connect 15 4 1 1;
#X connect 15 5 27 0;
#X connect 16 0 18 0;
#X connect 17 0 45 0;
#X connect 19 0 6 0;
#X connect 20 0 2 0;
#X connect 21 0 22 0;
#X connect 22 0 34 0;
#X connect 23 0 24 0;
#X connect 24 0 25 0;
#X connect 25 0 21 0;
#X connect 26 0 32 0;
#X connect 26 0 30 0;
#X connect 26 0 44 0;
#X connect 27 0 18 0;
#X connect 28 0 3 1;
#X connect 29 0 23 0;
#X connect 30 0 22 0;
#X connect 31 0 29 0;
#X connect 32 0 29 1;
#X connect 32 0 42 1;
#X connect 33 0 50 0;
#X connect 33 1 49 0;
#X connect 34 0 28 1;
#X connect 35 0 34 1;
#X connect 35 0 36 0;
#X connect 36 0 22 0;
#X connect 37 0 40 0;
#X connect 38 0 44 0;
#X connect 39 0 44 0;
#X connect 40 0 38 0;
#X connect 40 1 39 0;
#X connect 40 2 39 0;
#X connect 41 0 42 0;
#X connect 42 0 47 0;
#X connect 43 0 6 1;
#X connect 44 0 27 1;
#X connect 44 0 33 0;
#X connect 44 0 46 0;
#X connect 45 0 8 0;
#X connect 47 0 43 0;
#X connect 49 0 48 0;
#X connect 50 0 48 0;
#X restore 445 462 pd waveformReader;
#X obj 440 49 sel \$1, f 11;
#X msg 481 295 stop;
#X msg 553 462 /oled/gClear 3 1;
#X msg 363 462 /oled/gFlip 3;
#X obj 440 31 unpack s s, f 15;
#X obj 440 13 r activePage;
#X obj 440 95 &&;
#X msg 527 67 1;
#X msg 596 67 0;
#X msg 440 67 1;
#X msg 503 67 0;
#X text 276 229 page and module is active;
#X obj 440 354 t b b b b;
#X msg 653 462 /oled/gShowInfoBar 3 0;
#X msg 227 462 /oled/gShowInfoBar 3 1;
#X obj 445 281 t b b;
#X obj 445 509 s oscOutRaw;
#X obj 658 117 r oknob1;
#X obj 658 282 + 40;
#X obj 658 218 * -1;
#X obj 658 236 + 1;
#X floatatom 658 312 5 0 0 0 - - -;
#X msg 403 298 40;
#X obj 440 325 metro 40;
#X obj 403 243 bng 15 250 50 0 empty empty empty 17 7 0 10 -262144
-1 -1;
#X obj 691 173 tgl 15 0 empty empty empty 17 7 0 10 -262144 -1 -1 1
1;
#X msg 663 145 1;
#X msg 691 145 0;
#X obj 658 190 spigot;
#X obj 624 411 clip~ -0.99 0.99;
#X floatatom 768 274 5 0 0 0 - - -;
#X obj 768 291 s adaptzoom;
#X obj 658 254 * 160;
#X obj 768 246 + 5;
#X obj 768 228 * -4;
#N canvas 221 279 351 226 screenshot 0;
#X obj 17 47 r auxIn-\$1;
#X obj 17 65 sel 1;
#X msg 17 161 send /screenshot;
#X obj 17 179 s oscOut;
#X text 28 197 screen shot hack -- not for production release;
#X msg 26 93 \; led 3;
#X obj 106 16 r freeze;
#X obj 73 79 spigot;
#X obj 115 79 spigot;
#X obj 148 62 tgl 15 0 empty empty empty 17 7 0 10 -262144 -1 -1 0
1;
#X obj 106 59 tgl 15 0 empty empty empty 17 7 0 10 -262144 -1 -1 1
1;
#X obj 148 44 - 1;
#X obj 22 143 print /usbdrive/PatchScreen.svg (screenshot taken);
#X msg 115 97 1;
#X msg 73 97 0;
#X obj 73 125 s aux-led-\$1;
#X connect 0 0 1 0;
#X connect 1 0 2 0;
#X connect 1 0 5 0;
#X connect 1 0 12 0;
#X connect 1 1 7 0;
#X connect 1 1 8 0;
#X connect 2 0 3 0;
#X connect 6 0 10 0;
#X connect 6 0 11 0;
#X connect 7 0 14 0;
#X connect 8 0 13 0;
#X connect 9 0 8 1;
#X connect 10 0 7 1;
#X connect 11 0 9 0;
#X connect 13 0 15 0;
#X connect 14 0 15 0;
#X restore 290 127 pd screenshot;
#X obj 527 49 sel pg_scope;
#X obj 728 347 inlet~ inR-\$1;
#X obj 624 375 +~;
#X obj 624 393 /~ 2;
#X msg 408 260 1;
#X obj 440 131 sel 1, f 20;
#X obj 440 173 delay 500;
#X msg 557 159 stop;
#X msg 37 462 /oled/gFillArea 3 0 50 128 14 0;
#X obj 440 113 change;
#X connect 0 0 40 0;
#X connect 1 0 18 0;
#X connect 2 0 11 0;
#X connect 2 1 12 0;
#X connect 3 0 25 0;
#X connect 4 0 18 0;
#X connect 5 0 18 0;
#X connect 6 0 2 0;
#X connect 6 1 38 0;
#X connect 7 0 6 0;
#X connect 8 0 47 0;
#X connect 9 0 8 1;
#X connect 10 0 8 1;
#X connect 11 0 8 0;
#X connect 12 0 8 0;
#X connect 14 0 5 0;
#X connect 14 1 1 0;
#X connect 14 2 4 0;
#X connect 14 3 15 0;
#X connect 15 0 18 0;
#X connect 16 0 18 0;
#X connect 17 0 16 0;
#X connect 17 1 3 0;
#X connect 19 0 30 0;
#X connect 20 0 23 0;
#X connect 21 0 22 0;
#X connect 22 0 34 0;
#X connect 23 0 25 1;
#X connect 24 0 23 0;
#X connect 25 0 14 0;
#X connect 26 0 24 0;
#X connect 26 0 42 0;
#X connect 27 0 30 1;
#X connect 28 0 27 0;
#X connect 28 0 1 2;
#X connect 29 0 27 0;
#X connect 30 0 21 0;
#X connect 30 0 36 0;
#X connect 31 0 1 1;
#X connect 32 0 33 0;
#X connect 34 0 20 0;
#X connect 35 0 32 0;
#X connect 36 0 35 0;
#X connect 38 0 9 0;
#X connect 38 1 10 0;
#X connect 39 0 40 1;
#X connect 40 0 41 0;
#X connect 41 0 31 0;
#X connect 42 0 32 0;
#X connect 43 0 28 0;
#X connect 43 0 44 0;
#X connect 43 1 17 0;
#X connect 43 1 29 0;
#X connect 43 1 45 0;
#X connect 43 1 46 0;
#X connect 44 0 25 0;
#X connect 45 0 44 0;
#X connect 46 0 18 0;
#X connect 47 0 43 0;
