#N canvas 81 82 1374 962 10;
#X floatatom 91 264 5 0 0 0 - - -;
#X obj 370 757 *~;
#X floatatom 128 422 5 0 0 0 - - -;
#X obj 128 401 - 1;
#X obj 128 442 * -1;
#X floatatom 128 463 5 0 0 0 - - -;
#X obj 138 588 *~;
#X obj 596 652 pack f 50;
#X obj 441 578 *~;
#X floatatom 652 522 5 0 0 0 - - -;
#X text 622 434 Feedback Control;
#X obj 596 676 line~ 10;
#X text 574 606 Delay Time Control;
#X text 80 188 Mix Control;
#X obj 402 207 >;
#X obj 402 231 change;
#X obj 402 252 sel 1;
#X obj 402 273 t b b;
#X obj 402 314 del 6;
#X obj 402 335 pack 1 200;
#X obj 453 406 line~;
#X obj 513 92 vsl 15 128 0 127 0 0 empty empty empty 0 -9 0 10 -262144
-1 -1 4300 1;
#X floatatom 513 235 5 0 0 0 - - -;
#X floatatom 625 243 5 0 0 0 - - -;
#X obj 486 299 0 3, f 6;
#X text 645 769 Darkness adjusted by lop~;
#X text 492 21 env~ sensitivity;
#X msg 513 63 43;
#X text 347 576 Feedback loop;
#X obj 402 175 env~ 32 256;
#X obj 583 771 lop~ 950;
#X obj 400 438 *~;
#X text 616 161 Shmear Control;
#X obj 512 44 r loadbang-\$1;
#X obj 626 223 r shmear_shmear-\$1;
#X obj 84 211 r shmear_mix-\$1;
#X obj 88 233 / 100;
#X obj 258 882 outlet~ outL-\$1;
#X obj 367 882 outlet~ outR-\$1;
#X obj 651 483 r shmear_fb-\$1;
#X obj 652 503 / 100;
#X obj 583 747 delread4~ shmear-\$1 150;
#X obj 592 626 r shmear_delay-\$1;
#X obj 803 737 r shmear_dark-\$1;
#X obj 245 41 inlet~ inL-\$1;
#X obj 376 483 delwrite~ shmear-\$1 5000;
#X text 802 906 Adapted from paleontologist;
#X obj 343 37 inlet~ inR-\$1;
#X obj 1011 174 r notesIn-\$1;
#X obj 1116 165 r auxIn-\$1;
#X obj 1118 192 r expIn-\$1;
#X obj 1123 264 r fsIn-\$1;
#X obj 1117 298 r ctrlIn-\$1;
#X obj 1121 333 s ctrlOut-#1;
#X obj 325 94 hip~ 350;
#X connect 0 0 3 0;
#X connect 0 0 1 0;
#X connect 1 0 37 0;
#X connect 1 0 38 0;
#X connect 2 0 4 0;
#X connect 3 0 2 0;
#X connect 4 0 5 0;
#X connect 5 0 6 0;
#X connect 6 0 37 0;
#X connect 6 0 38 0;
#X connect 7 0 11 0;
#X connect 8 0 45 0;
#X connect 9 0 8 1;
#X connect 11 0 41 0;
#X connect 14 0 15 0;
#X connect 15 0 16 0;
#X connect 16 0 17 0;
#X connect 17 0 18 0;
#X connect 17 1 24 0;
#X connect 18 0 19 0;
#X connect 19 0 20 0;
#X connect 20 0 31 1;
#X connect 21 0 22 0;
#X connect 22 0 14 1;
#X connect 23 0 19 1;
#X connect 24 0 20 0;
#X connect 27 0 21 0;
#X connect 29 0 14 0;
#X connect 30 0 8 0;
#X connect 30 0 1 1;
#X connect 31 0 45 0;
#X connect 33 0 27 0;
#X connect 34 0 23 0;
#X connect 35 0 36 0;
#X connect 36 0 0 0;
#X connect 39 0 40 0;
#X connect 40 0 9 0;
#X connect 41 0 30 0;
#X connect 42 0 7 0;
#X connect 43 0 30 1;
#X connect 44 0 6 1;
#X connect 44 0 54 0;
#X connect 54 0 29 0;
#X connect 54 0 31 0;
