#N canvas 4 50 1035 786 10;
#N canvas 4 50 450 250 (subpatch) 0;
#X array \$0-sampleL 88200 float 2;
#X coords 0 1 88200 -1 40 28 1 0 0;
#X restore 165 449 graph;
#X obj 644 743 outlet~;
#X obj 19 246 soundfiler;
#X obj 495 252 max 100;
#X obj 500 270 / 44100;
#X obj 420 410 nbx 5 14 -1e+37 1e+37 0 0 empty empty freq 0 -8 0 10
-262144 -1 -1 1.0001 256;
#X obj 420 298 expr 1/$f1;
#X obj 19 192 list;
#X obj 40 164 f \$0;
#X obj 19 264 s \$0-samplesize;
#X obj 644 699 *~;
#X obj 611 280 bng 15 250 50 0 empty empty empty 17 7 0 10 -262144
-1 -1;
#X obj 768 338 * 1000;
#X obj 24 228 print;
#X obj 420 372 * 1;
#X obj 420 344 f 1;
#X obj 425 326 t b f;
#X msg 558 435 0;
#X obj 558 417 del 3;
#X obj 692 743 outlet~;
#X obj 611 226 inlet;
#X obj 812 38 inlet;
#X obj 495 234 r \$0-slen;
#X obj 557 608 r \$0-offset;
#X obj 500 484 r \$0-dir;
#X obj 500 512 == -1;
#X obj 432 530 *~ 1;
#X obj 432 558 +~ 0;
#N canvas 11 108 1345 512 sample_bounds 0;
#X floatatom 221 206 10 0 0 2 sample_size #0-samplesize -;
#X obj 72 178 nbx 5 14 -1e+37 1e+37 0 0 empty empty empty 0 -8 0 10
-262144 -1 -1 0 256;
#X obj 242 149 nbx 5 14 -1e+37 1e+37 0 0 empty empty empty 0 -8 0 10
-262144 -1 -1 1 256;
#X obj 114 199 -;
#X obj 195 174 t b f;
#X obj 120 263 nbx 5 14 -1e+37 1e+37 0 0 empty empty empty 0 -8 0 10
-262144 -1 -1 1 256;
#X obj 121 281 * 44100;
#X obj 123 314 nbx 5 14 -1e+37 1e+37 0 0 empty empty samplen 0 -8 0
10 -262144 -1 -1 44100 256;
#X obj 223 230 t b f;
#X obj 97 354 s \$0-slen;
#X obj 139 245 f 1;
#X obj 173 186 min 0;
#X obj 214 267 f 0;
#X obj 200 327 nbx 5 14 -1e+37 1e+37 0 0 empty empty offset 0 -8 0
10 -262144 -1 -1 0 256;
#X obj 222 292 * 44100;
#X obj 299 343 nbx 5 14 -1e+37 1e+37 0 0 empty empty dir 0 -8 0 10
-262144 -1 -1 1 256;
#X obj 119 218 abs;
#X obj 306 276 * 2;
#X obj 302 298 - 1;
#X obj 313 237 <;
#X obj 348 306 nbx 5 14 -1e+37 1e+37 0 0 empty empty empty 0 -8 0 10
-262144 -1 -1 1 256;
#X obj 174 343 s \$0-offset;
#X obj 271 356 s \$0-dir;
#X obj 79 94 r samp_start-\$1;
#X obj 243 91 r samp_end-\$1;
#X obj 76 122 / 100;
#X obj 241 125 / 100;
#X connect 0 0 8 0;
#X connect 1 0 3 0;
#X connect 1 0 11 0;
#X connect 1 0 19 0;
#X connect 2 0 4 0;
#X connect 3 0 16 0;
#X connect 4 0 1 0;
#X connect 4 1 3 1;
#X connect 4 1 11 1;
#X connect 4 1 19 1;
#X connect 5 0 6 0;
#X connect 6 0 7 0;
#X connect 7 0 9 0;
#X connect 8 0 10 0;
#X connect 8 0 12 0;
#X connect 8 1 6 1;
#X connect 8 1 14 1;
#X connect 10 0 5 0;
#X connect 11 0 12 0;
#X connect 12 0 14 0;
#X connect 13 0 21 0;
#X connect 14 0 13 0;
#X connect 15 0 22 0;
#X connect 16 0 10 0;
#X connect 17 0 18 0;
#X connect 18 0 15 0;
#X connect 19 0 17 0;
#X connect 19 0 20 0;
#X connect 23 0 25 0;
#X connect 24 0 26 0;
#X connect 25 0 1 0;
#X connect 26 0 2 0;
#X restore 19 444 pd sample_bounds;
#X obj 432 492 *~ 1;
#N canvas 4 50 558 511 loopstyle 0;
#X obj 32 427 list;
#X obj 383 401 nbx 1 14 -1e+37 1e+37 0 0 empty empty empty 0 -8 0 10
-262144 -1 -1 1 256;
#X obj 408 403 nbx 1 14 -1e+37 1e+37 0 0 empty empty empty 0 -8 0 10
-262144 -1 -1 1 256;
#X obj 432 403 nbx 1 14 -1e+37 1e+37 0 0 empty empty empty 0 -8 0 10
-262144 -1 -1 1 256;
#X obj 457 405 nbx 1 14 -1e+37 1e+37 0 0 empty empty empty 0 -8 0 10
-262144 -1 -1 0 256;
#X obj 484 404 nbx 1 14 -1e+37 1e+37 0 0 empty empty empty 0 -8 0 10
-262144 -1 -1 0 256;
#X text 393 316 normal phasor;
#X text 392 293 gate (not trigger);
#X text 392 307 loop;
#X text 392 326 pingpong;
#X obj 353 428 s \$0-gate;
#X obj 377 449 s \$0-loop;
#X obj 443 426 s \$0-pp;
#X obj 460 447 s \$0-randcut;
#X obj 393 470 s \$0-normal;
#X msg 229 376 1 0 1 0 0 0 0, f 1;
#X msg 252 376 0 0 1 0 0 0 0, f 1;
#X msg 272 375 1 1 1 0 0 0 0, f 1;
#X msg 316 377 1 1 0 0 1 0 0, f 1;
#X msg 295 376 1 1 0 1 0 0 0, f 1;
#X obj 55 133 r samp_mode-\$1;
#X msg 32 281 gate;
#X msg 70 281 trigger;
#X msg 126 281 loop;
#X msg 164 281 ping-pong;
#X obj 55 151 - 1;
#X obj 55 243 sel 0 1 2 3 4;
#X obj 376 359 unpack 0 0 0 0 0;
#X msg 377 296 1 0 0 1 0, f 1;
#X obj 122 50 sel \$1;
#X obj 122 32 unpack s s;
#X obj 122 14 r activePage;
#X obj 155 120 &&;
#X msg 179 86 1;
#X msg 254 68 0;
#X obj 155 138 sel 1 0;
#X msg 122 88 1;
#X msg 155 68 0;
#X obj 179 50 sel pg_modes;
#X obj 55 225 f;
#X msg 232 281 granular;
#X text 392 337 granular;
#X obj 32 463 s screenLine4;
#X msg 155 166 1;
#X msg 177 166 0;
#X obj 177 194 tgl 15 0 empty empty empty 17 7 0 10 -262144 -1 -1 0
1;
#X obj 60 207 spigot;
#X msg 32 445 |`-> \$1;
#X obj 60 179 delay 500;
#X connect 0 0 47 0;
#X connect 1 0 10 0;
#X connect 2 0 11 0;
#X connect 3 0 14 0;
#X connect 4 0 12 0;
#X connect 5 0 13 0;
#X connect 15 0 27 0;
#X connect 16 0 27 0;
#X connect 17 0 27 0;
#X connect 18 0 27 0;
#X connect 19 0 27 0;
#X connect 20 0 25 0;
#X connect 21 0 0 0;
#X connect 21 0 15 0;
#X connect 22 0 0 0;
#X connect 22 0 16 0;
#X connect 23 0 0 0;
#X connect 23 0 17 0;
#X connect 24 0 0 0;
#X connect 24 0 19 0;
#X connect 25 0 39 0;
#X connect 26 0 21 0;
#X connect 26 1 22 0;
#X connect 26 2 23 0;
#X connect 26 3 24 0;
#X connect 26 4 40 0;
#X connect 27 0 1 0;
#X connect 27 1 2 0;
#X connect 27 2 3 0;
#X connect 27 3 4 0;
#X connect 27 4 5 0;
#X connect 28 0 27 0;
#X connect 29 0 36 0;
#X connect 29 1 37 0;
#X connect 30 0 29 0;
#X connect 30 1 38 0;
#X connect 31 0 30 0;
#X connect 32 0 35 0;
#X connect 33 0 32 1;
#X connect 34 0 32 1;
#X connect 35 0 43 0;
#X connect 35 0 48 0;
#X connect 35 1 44 0;
#X connect 36 0 32 0;
#X connect 37 0 32 0;
#X connect 38 0 33 0;
#X connect 38 1 34 0;
#X connect 39 0 26 0;
#X connect 40 0 0 0;
#X connect 40 0 18 0;
#X connect 43 0 45 0;
#X connect 44 0 45 0;
#X connect 45 0 46 1;
#X connect 46 0 39 0;
#X connect 47 0 42 0;
#X connect 48 0 46 0;
#X restore 19 480 pd loopstyle;
#X obj 630 280 bng 15 250 50 0 empty empty empty 17 7 0 10 -262144
-1 -1;
#X obj 211 89 t b a;
#X obj 217 145 list;
#X obj 420 462 phasor~;
#X obj 432 586 *~;
#X obj 432 654 +~;
#X obj 211 71 ../soundshare/soundshare_select;
#X obj 887 228 nbx 5 14 -1e+37 1e+37 0 0 empty empty empty 0 -8 0 10
-262144 -1 -1 0 256;
#X obj 887 244 mtof;
#X obj 887 262 nbx 5 14 -1e+37 1e+37 0 0 empty empty empty 0 -8 0 10
-262144 -1 -1 8.1758 256;
#X obj 887 278 / 8.175;
#X obj 887 296 nbx 5 14 -1e+37 1e+37 0 0 empty empty empty 0 -8 0 10
-262144 -1 -1 1.0001 256;
#X obj 887 312 * 1;
#N canvas 4 50 1352 682 pp_gen 0;
#X obj 149 155 / 2;
#X obj 181 247 *~ 2;
#X obj 190 265 -~ 1;
#X obj 196 290 abs~;
#X obj 204 314 -~ 1;
#X obj 178 339 abs~;
#X obj 201 124 r \$0-pp;
#X obj 173 370 *~ 0;
#X obj 230 146 != 1;
#X obj 172 228 phasor~;
#X obj 146 63 inlet;
#X obj 182 446 outlet~;
#X obj 429 101 inlet;
#X text 218 66 freq;
#X text 482 85 restart;
#X obj 151 187 siglop~ 0.5 \$1;
#X connect 0 0 15 0;
#X connect 1 0 2 0;
#X connect 2 0 3 0;
#X connect 3 0 4 0;
#X connect 4 0 5 0;
#X connect 5 0 7 0;
#X connect 6 0 8 0;
#X connect 6 0 7 1;
#X connect 7 0 11 0;
#X connect 9 0 1 0;
#X connect 10 0 0 0;
#X connect 12 0 9 1;
#X connect 15 0 9 0;
#X restore 362 502 pd pp_gen;
#N canvas 5 50 1351 682 env 0;
#X obj 396 443 vline~;
#X obj 409 68 bng 15 250 50 0 empty empty empty 17 7 0 10 -262144 -1
-1;
#X obj 386 208 f 1000;
#X obj 384 230 / 1;
#X obj 501 197 abs;
#X obj 382 270 - 25;
#X obj 445 163 spigot 1;
#X obj 493 137 r \$0-gate;
#X obj 382 360 spigot 1;
#X obj 471 294 spigot 0;
#X obj 479 256 r \$0-loop;
#X obj 437 270 != 1;
#X obj 439 116 v \$0-env;
#X msg 441 140 0 \$1;
#X obj 509 68 bng 15 250 50 0 empty empty empty 17 7 0 10 -262144 -1
-1;
#X obj 527 355 t b f;
#X obj 643 188 r \$0-env;
#X obj 526 377 v \$0-env;
#X obj 528 403 list;
#X msg 528 425 0 2 \, 1 \$1 2 \, 0 \$1 \$2;
#X obj 781 76 * 1;
#X obj 365 540 outlet~;
#X obj 380 29 inlet;
#X obj 510 33 inlet;
#X obj 774 29 inlet;
#X obj 679 30 inlet;
#X obj 626 103 * 1;
#X msg 457 231 1e+07;
#X obj 635 264 + 10;
#X obj 641 229 * 2;
#X obj 370 315 max 1;
#X obj 561 217 nbx 5 14 -1e+37 1e+37 0 0 empty empty empty 0 -8 0 10
-262144 -1 -1 1.0001 256;
#X obj 716 250 nbx 5 14 -1e+37 1e+37 0 0 empty empty empty 0 -8 0 10
-262144 -1 -1 0 256;
#X connect 0 0 21 0;
#X connect 1 0 2 0;
#X connect 1 0 27 0;
#X connect 2 0 3 0;
#X connect 3 0 5 0;
#X connect 4 0 3 1;
#X connect 4 0 31 0;
#X connect 5 0 30 0;
#X connect 6 0 0 0;
#X connect 7 0 6 1;
#X connect 8 0 15 0;
#X connect 9 0 15 0;
#X connect 10 0 9 1;
#X connect 10 0 11 0;
#X connect 11 0 8 1;
#X connect 12 0 13 0;
#X connect 13 0 6 0;
#X connect 14 0 12 0;
#X connect 15 0 17 0;
#X connect 15 1 18 1;
#X connect 16 0 29 0;
#X connect 16 0 32 0;
#X connect 17 0 18 0;
#X connect 18 0 19 0;
#X connect 19 0 0 0;
#X connect 20 0 4 0;
#X connect 22 0 1 0;
#X connect 23 0 14 0;
#X connect 24 0 20 0;
#X connect 25 0 26 0;
#X connect 26 0 2 1;
#X connect 27 0 9 0;
#X connect 28 0 5 1;
#X connect 29 0 28 0;
#X connect 30 0 8 0;
#X restore 746 562 pd env;
#N canvas 45 230 224 263 envparam 0;
#X obj 22 78 t f f;
#X obj 22 96 *;
#X obj 22 114 nbx 5 14 -1e+37 1e+37 0 0 empty empty empty 0 -8 0 10
-262144 -1 -1 0 256;
#X obj 22 60 * 1.4;
#X obj 22 208 s \$0-env;
#X obj 130 208 nbx 5 14 -1e+37 1e+37 0 0 empty empty empty 0 -8 0 10
-262144 -1 -1 0 256;
#X obj 76 208 v \$0-env;
#X obj 22 130 * 3000;
#X obj 22 24 r samp_attack-\$1, f 17;
#X obj 22 42 / 100;
#X connect 0 0 1 0;
#X connect 0 1 1 1;
#X connect 1 0 2 0;
#X connect 2 0 7 0;
#X connect 3 0 0 0;
#X connect 7 0 4 0;
#X connect 7 0 5 0;
#X connect 7 0 6 0;
#X connect 8 0 9 0;
#X connect 9 0 3 0;
#X restore 19 462 pd envparam;
#X obj 604 424 r \$0-slen;
#X obj 667 562 r \$0-randcut;
#X obj 459 386 r \$0-normal;
#X obj 659 661 *~;
#X obj 49 354 s \$0-samplesize;
#X obj 49 292 spigot 0;
#X obj 49 338 nbx 10 14 -1e+37 1e+37 0 0 empty empty empty 0 -8 0 10
-262144 -1 -1 0 256;
#X obj 211 15 r samp_select-\$1;
#X obj 865 20 r samp_semitone-\$1;
#X obj 920 38 r samp_cent-\$1;
#X obj 932 79 f;
#X obj 865 101 f;
#X obj 920 56 t b f;
#X obj 887 136 +;
#X obj 887 154 nbx 5 14 -1e+37 1e+37 0 0 empty empty empty 0 -8 0 10
-262144 -1 -1 0 256;
#X obj 924 99 / 100;
#X obj 577 580 randcut_mod \$1;
#X obj 611 262 sel 1 0;
#X obj 811 56 - 72;
#X obj 812 74 t b f;
#X obj 887 210 +;
#X obj 420 427 siglop~ 1 \$1;
#X obj 495 550 siglop~ 44100 \$1;
#X obj 557 626 siglop~ 0 \$1;
#X obj 611 244 change -1;
#X obj 40 14 r loadbang-\$1;
#X obj 394 89 list;
#X obj 211 33 / 100;
#X obj 631 544 r samp_rc_env-\$1;
#N canvas 0 50 450 250 (subpatch) 0;
#X array \$0-sampleR 88200 float 2;
#X coords 0 1 88200 -1 40 28 1 0 0;
#X restore 165 490 graph;
#X obj 432 700 tabread4~ \$0-sampleR;
#X obj 437 672 tabread4~ \$0-sampleL;
#X obj 692 725 *~;
#X obj 19 416 s \$0-samplesize;
#X obj 19 400 nbx 10 14 -1e+37 1e+37 0 0 empty empty empty 0 -8 0 10
-262144 -1 -1 0 256;
#X msg 19 210 read -resize \$1 \$2-sampleL \$2-sampleR;
#X obj 19 382 loadsampleL \$0-sampleL 882000;
#X obj 49 320 loadsampleR \$0-sampleR 882000;
#X obj 464 176 symbol;
#X msg 394 130 bang;
#X obj 187 117 del 1000;
#X obj 293 203 symbol;
#X msg 293 116 bang;
#X obj 293 134 del 900;
#X obj 394 148 del 4000;
#X msg 224 252 \$1 !;
#X msg 294 222 \$1 ...;
#X msg 464 194 \$1;
#X obj 394 43 r samp_source-\$1;
#X obj 631 562 / 100;
#X obj 464 114 r showup;
#N canvas 4 50 312 277 pagesON 0;
#X obj 12 51 sel \$1;
#X obj 12 33 unpack s s;
#X obj 45 151 &&;
#X msg 69 87 1;
#X msg 264 69 0;
#X obj 45 169 sel 1 0;
#X msg 12 89 1;
#X msg 45 69 0;
#X obj 12 15 r activePage;
#X obj 67 225 tgl 15 0 empty empty empty 17 7 0 10 -262144 -1 -1 1
1;
#X msg 45 197 1;
#X msg 67 197 0;
#X obj 13 242 s showup;
#X obj 67 242 outlet;
#X obj 69 51 sel pg_select pg_modes pg_control;
#X connect 0 0 6 0;
#X connect 0 1 7 0;
#X connect 1 0 0 0;
#X connect 1 1 14 0;
#X connect 2 0 5 0;
#X connect 3 0 2 1;
#X connect 4 0 2 1;
#X connect 5 0 10 0;
#X connect 5 0 12 0;
#X connect 5 1 11 0;
#X connect 6 0 2 0;
#X connect 7 0 2 0;
#X connect 8 0 1 0;
#X connect 9 0 13 0;
#X connect 10 0 9 0;
#X connect 11 0 9 0;
#X connect 14 0 3 0;
#X connect 14 1 3 0;
#X connect 14 2 3 0;
#X connect 14 3 4 0;
#X restore 327 321 pd pagesON;
#X obj 294 339 spigot;
#X obj 294 360 s screenLine5;
#X obj 464 132 delay 500;
#X connect 2 0 9 0;
#X connect 3 0 4 0;
#X connect 3 0 69 0;
#X connect 4 0 6 0;
#X connect 4 0 12 0;
#X connect 5 0 44 0;
#X connect 5 0 68 0;
#X connect 6 0 15 0;
#X connect 7 0 82 0;
#X connect 8 0 7 1;
#X connect 10 0 1 0;
#X connect 11 0 18 0;
#X connect 11 0 45 0;
#X connect 12 0 45 2;
#X connect 14 0 5 0;
#X connect 15 0 14 0;
#X connect 16 0 15 0;
#X connect 16 1 14 1;
#X connect 17 0 34 1;
#X connect 17 0 44 1;
#X connect 18 0 17 0;
#X connect 20 0 71 0;
#X connect 21 0 65 0;
#X connect 22 0 3 0;
#X connect 23 0 70 0;
#X connect 24 0 25 0;
#X connect 24 0 26 1;
#X connect 25 0 27 1;
#X connect 26 0 27 0;
#X connect 27 0 35 0;
#X connect 29 0 26 0;
#X connect 31 0 45 1;
#X connect 32 0 87 0;
#X connect 32 1 33 1;
#X connect 33 0 7 0;
#X connect 34 0 29 0;
#X connect 35 0 36 0;
#X connect 36 0 78 0;
#X connect 36 0 77 0;
#X connect 37 0 32 0;
#X connect 37 1 73 0;
#X connect 38 0 39 0;
#X connect 39 0 40 0;
#X connect 40 0 41 0;
#X connect 41 0 42 0;
#X connect 42 0 43 0;
#X connect 43 0 16 0;
#X connect 43 0 45 3;
#X connect 43 0 63 0;
#X connect 44 0 26 0;
#X connect 45 0 50 1;
#X connect 47 0 63 1;
#X connect 48 0 63 3;
#X connect 49 0 29 1;
#X connect 50 0 10 1;
#X connect 50 0 79 1;
#X connect 52 0 83 0;
#X connect 52 0 84 0;
#X connect 53 0 51 0;
#X connect 54 0 74 0;
#X connect 55 0 58 0;
#X connect 56 0 59 0;
#X connect 57 0 62 0;
#X connect 58 0 60 0;
#X connect 59 0 58 0;
#X connect 59 1 57 0;
#X connect 60 0 61 0;
#X connect 61 0 67 0;
#X connect 62 0 60 1;
#X connect 63 0 36 0;
#X connect 63 1 50 0;
#X connect 64 0 11 0;
#X connect 64 1 31 0;
#X connect 65 0 66 0;
#X connect 66 0 58 0;
#X connect 66 1 67 1;
#X connect 67 0 38 0;
#X connect 68 0 34 0;
#X connect 69 0 35 1;
#X connect 70 0 36 1;
#X connect 71 0 64 0;
#X connect 72 0 8 0;
#X connect 72 0 37 1;
#X connect 73 0 92 0;
#X connect 73 0 85 1;
#X connect 73 0 86 0;
#X connect 73 0 89 0;
#X connect 73 0 88 1;
#X connect 74 0 37 0;
#X connect 75 0 96 0;
#X connect 77 0 79 0;
#X connect 78 0 10 0;
#X connect 79 0 19 0;
#X connect 81 0 80 0;
#X connect 82 0 2 0;
#X connect 82 0 13 0;
#X connect 83 0 81 0;
#X connect 84 0 53 0;
#X connect 85 0 94 0;
#X connect 86 0 91 0;
#X connect 87 0 33 0;
#X connect 88 0 93 0;
#X connect 89 0 90 0;
#X connect 90 0 88 0;
#X connect 91 0 85 0;
#X connect 92 0 99 0;
#X connect 93 0 99 0;
#X connect 94 0 99 0;
#X connect 95 0 37 2;
#X connect 95 0 37 1;
#X connect 96 0 63 2;
#X connect 97 0 101 0;
#X connect 98 0 99 1;
#X connect 99 0 100 0;
#X connect 101 0 85 0;
