#N canvas 4 50 996 729 10;
#N canvas 4 50 450 250 (subpatch) 0;
#X array \$0-sampleL 264600 float 2;
#X coords 0 1 264600 -1 40 28 1 0 0;
#X restore 165 479 graph;
#X obj 627 895 outlet~;
#X obj 19 276 soundfiler;
#X obj 495 282 max 100;
#X obj 500 300 / 44100;
#X obj 420 440 nbx 5 14 -1e+037 1e+037 0 0 empty empty freq 0 -8 0
10 -262144 -1 -1 0 256;
#X obj 420 328 expr 1/$f1;
#X obj 19 222 list;
#X obj 40 194 f \$0;
#X obj 19 294 s \$0-samplesize;
#X obj 627 729 *~;
#X obj 611 310 bng 15 250 50 0 empty empty empty 17 7 0 10 -262144
-1 -1;
#X obj 768 348 * 1000;
#X obj 24 258 print;
#X obj 420 402 * 1;
#X obj 420 374 f 1;
#X obj 425 356 t b f;
#X msg 558 465 0;
#X obj 558 447 del 3;
#X obj 627 877 *~;
#X obj 675 895 outlet~;
#X obj 675 877 *~;
#X obj 627 813 *~;
#X obj 611 256 inlet;
#X obj 742 44 inlet;
#X obj 495 264 r \$0-slen;
#X obj 557 638 r \$0-offset;
#X obj 500 514 r \$0-dir;
#X obj 500 542 == -1;
#X obj 432 560 *~ 1;
#X obj 432 588 +~ 0;
#N canvas 11 108 1345 512 sample_bounds 0;
#X floatatom 221 206 10 0 0 2 sample_size #0-samplesize -;
#X obj 72 178 nbx 5 14 -1e+037 1e+037 0 0 empty empty empty 0 -8 0
10 -262144 -1 -1 0 256;
#X obj 242 149 nbx 5 14 -1e+037 1e+037 0 0 empty empty empty 0 -8 0
10 -262144 -1 -1 0 256;
#X obj 114 199 -;
#X obj 195 174 t b f;
#X obj 120 263 nbx 5 14 -1e+037 1e+037 0 0 empty empty empty 0 -8 0
10 -262144 -1 -1 0 256;
#X obj 121 281 * 44100;
#X obj 123 314 nbx 5 14 -1e+037 1e+037 0 0 empty empty samplen 0 -8
0 10 -262144 -1 -1 0 256;
#X obj 223 230 t b f;
#X obj 97 354 s \$0-slen;
#X obj 139 245 f 1;
#X obj 173 186 min 0;
#X obj 214 267 f 0;
#X obj 200 327 nbx 5 14 -1e+037 1e+037 0 0 empty empty offset 0 -8
0 10 -262144 -1 -1 0 256;
#X obj 222 292 * 44100;
#X obj 299 343 nbx 5 14 -1e+037 1e+037 0 0 empty empty dir 0 -8 0 10
-262144 -1 -1 0 256;
#X obj 119 218 abs;
#X obj 306 276 * 2;
#X obj 302 298 - 1;
#X obj 313 237 <;
#X obj 348 306 nbx 5 14 -1e+037 1e+037 0 0 empty empty empty 0 -8 0
10 -262144 -1 -1 0 256;
#X obj 174 343 s \$0-offset;
#X obj 271 356 s \$0-dir;
#X obj 79 94 r samp_start-\$1;
#X obj 243 91 r samp_end-\$1;
#X obj 76 122 / 100;
#X obj 241 125 / 100;
#X connect 0 0 8 0;
#X connect 1 0 3 0;
#X connect 1 0 11 0;
#X connect 1 0 19 0;
#X connect 2 0 4 0;
#X connect 3 0 16 0;
#X connect 4 0 1 0;
#X connect 4 1 3 1;
#X connect 4 1 11 1;
#X connect 4 1 19 1;
#X connect 5 0 6 0;
#X connect 6 0 7 0;
#X connect 7 0 9 0;
#X connect 8 0 10 0;
#X connect 8 0 12 0;
#X connect 8 1 6 1;
#X connect 8 1 14 1;
#X connect 10 0 5 0;
#X connect 11 0 12 0;
#X connect 12 0 14 0;
#X connect 13 0 21 0;
#X connect 14 0 13 0;
#X connect 15 0 22 0;
#X connect 16 0 10 0;
#X connect 17 0 18 0;
#X connect 18 0 15 0;
#X connect 19 0 17 0;
#X connect 19 0 20 0;
#X connect 23 0 25 0;
#X connect 24 0 26 0;
#X connect 25 0 1 0;
#X connect 26 0 2 0;
#X restore 19 474 pd sample_bounds;
#X obj 432 522 *~ 1;
#N canvas 4 50 586 493 loopstyle 0;
#X obj 32 387 list;
#X obj 383 361 nbx 1 14 -1e+037 1e+037 0 0 empty empty empty 0 -8 0
10 -262144 -1 -1 0 256;
#X obj 408 363 nbx 1 14 -1e+037 1e+037 0 0 empty empty empty 0 -8 0
10 -262144 -1 -1 0 256;
#X obj 432 363 nbx 1 14 -1e+037 1e+037 0 0 empty empty empty 0 -8 0
10 -262144 -1 -1 0 256;
#X obj 457 365 nbx 1 14 -1e+037 1e+037 0 0 empty empty empty 0 -8 0
10 -262144 -1 -1 0 256;
#X obj 484 364 nbx 1 14 -1e+037 1e+037 0 0 empty empty empty 0 -8 0
10 -262144 -1 -1 0 256;
#X text 393 276 normal phasor;
#X text 392 253 gate (not trigger);
#X text 392 267 loop;
#X text 392 286 pingpong;
#X text 392 297 randcut;
#X obj 353 388 s \$0-gate;
#X obj 377 409 s \$0-loop;
#X obj 443 386 s \$0-pp;
#X obj 460 407 s \$0-randcut;
#X obj 393 430 s \$0-normal;
#X msg 229 336 1 0 1 0 0 0 0, f 1;
#X msg 252 336 0 0 1 0 0 0 0, f 1;
#X msg 272 335 1 1 1 0 0 0 0, f 1;
#X msg 316 337 1 1 0 0 1 0 0, f 1;
#X msg 295 336 1 1 0 1 0 0 0, f 1;
#X obj 55 139 r samp_mode-\$1;
#X msg 32 241 gate;
#X msg 70 241 trigger;
#X msg 126 241 loop;
#X msg 164 241 ping-pong;
#X msg 232 241 granular;
#X msg 32 405 `-> \$1;
#X obj 55 157 - 1;
#X obj 55 203 sel 0 1 2 3 4;
#X obj 376 319 unpack 0 0 0 0 0;
#X msg 377 256 1 0 0 1 0, f 1;
#X obj 122 59 sel \$1;
#X obj 122 41 unpack s s;
#X obj 122 23 r activePage;
#X obj 155 139 &&;
#X msg 179 95 1;
#X msg 254 77 0;
#X obj 155 157 sel 1 0;
#X msg 122 97 1;
#X msg 155 77 0;
#X obj 179 59 sel pg_modes;
#X obj 55 185 f;
#X obj 32 423 s aux-line-\$1;
#X connect 0 0 27 0;
#X connect 1 0 11 0;
#X connect 2 0 12 0;
#X connect 3 0 15 0;
#X connect 4 0 13 0;
#X connect 5 0 14 0;
#X connect 16 0 30 0;
#X connect 17 0 30 0;
#X connect 18 0 30 0;
#X connect 19 0 30 0;
#X connect 20 0 30 0;
#X connect 21 0 28 0;
#X connect 22 0 0 0;
#X connect 22 0 16 0;
#X connect 23 0 0 0;
#X connect 23 0 17 0;
#X connect 24 0 0 0;
#X connect 24 0 18 0;
#X connect 25 0 0 0;
#X connect 25 0 20 0;
#X connect 26 0 0 0;
#X connect 26 0 19 0;
#X connect 27 0 43 0;
#X connect 28 0 42 0;
#X connect 29 0 22 0;
#X connect 29 1 23 0;
#X connect 29 2 24 0;
#X connect 29 3 25 0;
#X connect 29 4 26 0;
#X connect 30 0 1 0;
#X connect 30 1 2 0;
#X connect 30 2 3 0;
#X connect 30 3 4 0;
#X connect 30 4 5 0;
#X connect 31 0 30 0;
#X connect 32 0 39 0;
#X connect 32 1 40 0;
#X connect 33 0 32 0;
#X connect 33 1 41 0;
#X connect 34 0 33 0;
#X connect 35 0 38 0;
#X connect 36 0 35 1;
#X connect 37 0 35 1;
#X connect 38 0 42 0;
#X connect 39 0 35 0;
#X connect 40 0 35 0;
#X connect 41 0 36 0;
#X connect 41 1 37 0;
#X connect 42 0 29 0;
#X restore 19 510 pd loopstyle;
#N canvas 11 50 1345 682 panning 0;
#X obj 375 107 hsl 128 15 0 1 0 0 empty empty empty -2 -8 0 10 -262144
-1 -1 0 1;
#X obj 323 155 nbx 5 14 -1e+037 1e+037 0 0 empty empty empty 0 -8 0
10 -262144 -1 -1 0 256;
#X obj 392 158 nbx 5 14 -1e+037 1e+037 0 0 empty empty empty 0 -8 0
10 -262144 -1 -1 0 256;
#X obj 331 109 - 1;
#X obj 330 130 abs;
#X obj 282 286 outlet~;
#X obj 354 276 outlet~;
#X obj 369 81 r samp_pan-\$1;
#X obj 403 221 siglop~ 0.5;
#X obj 316 230 siglop~ 0.5;
#X obj 394 135 + 1;
#X connect 0 0 3 0;
#X connect 0 0 10 0;
#X connect 1 0 9 0;
#X connect 2 0 8 0;
#X connect 3 0 4 0;
#X connect 4 0 1 0;
#X connect 7 0 0 0;
#X connect 8 0 6 0;
#X connect 9 0 5 0;
#X connect 10 0 2 0;
#X restore 695 849 pd panning;
#X obj 630 310 bng 15 250 50 0 empty empty empty 17 7 0 10 -262144
-1 -1;
#X obj 211 119 t b a;
#X obj 716 739 * 1.2;
#X obj 217 175 list;
#X obj 420 492 phasor~;
#X obj 432 616 *~;
#X obj 432 684 +~;
#X obj 817 234 nbx 5 14 -1e+037 1e+037 0 0 empty empty empty 0 -8 0
10 -262144 -1 -1 0 256;
#X obj 817 250 mtof;
#X obj 817 268 nbx 5 14 -1e+037 1e+037 0 0 empty empty empty 0 -8 0
10 -262144 -1 -1 0 256;
#X obj 817 284 / 8.175;
#X obj 817 302 nbx 5 14 -1e+037 1e+037 0 0 empty empty empty 0 -8 0
10 -262144 -1 -1 0 256;
#X obj 817 318 * 1;
#N canvas 4 50 1352 682 pp_gen 0;
#X obj 149 155 / 2;
#X obj 181 247 *~ 2;
#X obj 190 265 -~ 1;
#X obj 196 290 abs~;
#X obj 204 314 -~ 1;
#X obj 178 339 abs~;
#X obj 201 124 r \$0-pp;
#X obj 173 370 *~ 0;
#X obj 230 146 != 1;
#X obj 172 228 phasor~;
#X obj 146 63 inlet;
#X obj 182 446 outlet~;
#X obj 429 101 inlet;
#X text 218 66 freq;
#X text 482 85 restart;
#X obj 589 90 inlet~;
#X obj 550 143 /~ 2;
#X obj 170 208 +~;
#X obj 151 187 siglop~ 0.5 \$1;
#X connect 0 0 18 0;
#X connect 1 0 2 0;
#X connect 2 0 3 0;
#X connect 3 0 4 0;
#X connect 4 0 5 0;
#X connect 5 0 7 0;
#X connect 6 0 8 0;
#X connect 6 0 7 1;
#X connect 7 0 11 0;
#X connect 9 0 1 0;
#X connect 10 0 0 0;
#X connect 12 0 9 1;
#X connect 15 0 16 0;
#X connect 16 0 17 1;
#X connect 17 0 9 0;
#X connect 18 0 17 0;
#X restore 362 532 pd pp_gen;
#N canvas 5 50 1351 682 env 0;
#X obj 396 443 vline~;
#X obj 409 68 bng 15 250 50 0 empty empty empty 17 7 0 10 -262144 -1
-1;
#X obj 386 208 f 1000;
#X obj 384 230 / 1;
#X obj 501 197 abs;
#X obj 382 270 - 25;
#X obj 445 163 spigot 1;
#X obj 493 137 r \$0-gate;
#X obj 382 360 spigot 1;
#X obj 471 294 spigot 0;
#X obj 479 256 r \$0-loop;
#X obj 437 270 != 1;
#X obj 439 116 v \$0-env;
#X msg 441 140 0 \$1;
#X obj 509 68 bng 15 250 50 0 empty empty empty 17 7 0 10 -262144 -1
-1;
#X obj 527 355 t b f;
#X obj 643 188 r \$0-env;
#X obj 526 377 v \$0-env;
#X obj 528 403 list;
#X msg 528 425 0 2 \, 1 \$1 2 \, 0 \$1 \$2;
#X obj 781 76 * 1;
#X obj 365 540 outlet~;
#X obj 380 29 inlet;
#X obj 510 33 inlet;
#X obj 774 29 inlet;
#X obj 679 30 inlet;
#X obj 626 103 * 1;
#X msg 457 231 1e+007;
#X obj 635 264 + 10;
#X obj 641 229 * 2;
#X obj 370 315 max 1;
#X obj 561 217 nbx 5 14 -1e+037 1e+037 0 0 empty empty empty 0 -8 0
10 -262144 -1 -1 0 256;
#X obj 716 250 nbx 5 14 -1e+037 1e+037 0 0 empty empty empty 0 -8 0
10 -262144 -1 -1 0 256;
#X connect 0 0 21 0;
#X connect 1 0 2 0;
#X connect 1 0 27 0;
#X connect 2 0 3 0;
#X connect 3 0 5 0;
#X connect 4 0 3 1;
#X connect 4 0 31 0;
#X connect 5 0 30 0;
#X connect 6 0 0 0;
#X connect 7 0 6 1;
#X connect 8 0 15 0;
#X connect 9 0 15 0;
#X connect 10 0 9 1;
#X connect 10 0 11 0;
#X connect 11 0 8 1;
#X connect 12 0 13 0;
#X connect 13 0 6 0;
#X connect 14 0 12 0;
#X connect 15 0 17 0;
#X connect 15 1 18 1;
#X connect 16 0 29 0;
#X connect 16 0 32 0;
#X connect 17 0 18 0;
#X connect 18 0 19 0;
#X connect 19 0 0 0;
#X connect 20 0 4 0;
#X connect 22 0 1 0;
#X connect 23 0 14 0;
#X connect 24 0 20 0;
#X connect 25 0 26 0;
#X connect 26 0 2 1;
#X connect 27 0 9 0;
#X connect 28 0 5 1;
#X connect 29 0 28 0;
#X connect 30 0 8 0;
#X restore 746 592 pd env;
#N canvas 45 122 224 263 envparam 0;
#X obj 22 78 t f f;
#X obj 22 96 *;
#X obj 22 114 nbx 5 14 -1e+037 1e+037 0 0 empty empty empty 0 -8 0
10 -262144 -1 -1 0 256;
#X obj 22 60 * 1.4;
#X obj 22 208 s \$0-env;
#X obj 130 208 nbx 5 14 -1e+037 1e+037 0 0 empty empty empty 0 -8 0
10 -262144 -1 -1 0 256;
#X obj 76 208 v \$0-env;
#X obj 22 130 * 3000;
#X obj 22 24 r samp_attack-\$1, f 17;
#X obj 22 42 / 100;
#X connect 0 0 1 0;
#X connect 0 1 1 1;
#X connect 1 0 2 0;
#X connect 2 0 7 0;
#X connect 3 0 0 0;
#X connect 7 0 4 0;
#X connect 7 0 5 0;
#X connect 7 0 6 0;
#X connect 8 0 9 0;
#X connect 9 0 3 0;
#X restore 19 492 pd envparam;
#X obj 604 454 r \$0-slen;
#X obj 667 592 r \$0-randcut;
#X obj 459 416 r \$0-normal;
#X obj 642 691 *~;
#X obj 892 475 r \$0-randpp;
#X obj 49 384 s \$0-samplesize;
#X obj 49 322 spigot 0;
#X obj 49 368 nbx 10 14 -1e+037 1e+037 0 0 empty empty empty 0 -8 0
10 -262144 -1 -1 0 256;
#X obj 211 55 r samp_select-\$1;
#X obj 795 26 r samp_semitone-\$1;
#X obj 850 44 r samp_cent-\$1;
#X obj 862 85 f;
#X obj 795 107 f;
#X obj 850 62 t b f;
#X obj 817 142 +;
#X obj 817 160 nbx 5 14 -1e+037 1e+037 0 0 empty empty empty 0 -8 0
10 -262144 -1 -1 0 256;
#X obj 854 105 / 100;
#X obj 716 703 r samp_vol-\$1;
#X obj 239 347 r samp_modrate-\$1;
#X obj 293 365 r samp_moddepth-\$1;
#X obj 272 447 *~ 0;
#X obj 277 465 *~ 0;
#X obj 272 503 s~ mod-\$1;
#X obj 577 610 randcut_mod \$1;
#X obj 817 493 randpp_mod \$1;
#N canvas 11 50 1345 714 pitch_mod 0;
#X obj 34 57 inlet;
#X obj 88 155 *~;
#X obj 180 118 r~ mod-\$1;
#X obj 79 95 r loadbang-\$1;
#X obj 125 179 snapshot~;
#X obj 61 213 t b f;
#X obj 85 189 nbx 5 14 -1e+037 1e+037 0 0 empty empty empty 0 -8 0
10 -262144 -1 -1 0 256;
#X obj 52 233 f;
#X obj 53 261 +;
#X obj 82 136 metro 10;
#X obj 75 382 outlet;
#X obj 107 66 bng 15 250 50 0 empty empty empty 17 7 0 10 -262144 -1
-1;
#X obj 121 39 loadbang;
#X connect 0 0 1 1;
#X connect 0 0 7 0;
#X connect 1 0 4 0;
#X connect 2 0 1 0;
#X connect 3 0 9 0;
#X connect 4 0 6 0;
#X connect 5 0 7 0;
#X connect 5 1 8 1;
#X connect 6 0 5 0;
#X connect 7 0 8 0;
#X connect 8 0 10 0;
#X connect 9 0 4 0;
#X connect 11 0 9 0;
#X connect 12 0 11 0;
#X restore 817 407 pd pitch_mod;
#X obj 239 365 osc~ 0.2;
#X obj 611 292 sel 1 0;
#X obj 741 62 - 72;
#X obj 742 80 t b f;
#X obj 817 216 +;
#X obj 293 401 t f f;
#X obj 293 429 *;
#X obj 716 757 siglop~ 1;
#X obj 420 457 siglop~ 1 \$1;
#X obj 495 580 siglop~ 44100 \$1;
#X obj 557 656 siglop~ 0 \$1;
#X obj 611 274 change -1;
#X obj 40 74 r loadbang-\$1;
#X obj 394 119 list;
#X obj 211 73 / 100;
#X obj 293 383 / 100;
#X obj 631 574 r samp_rc_env-\$1;
#N canvas 0 50 450 250 (subpatch) 0;
#X array \$0-sampleR 264600 float 2;
#X coords 0 1 264600 -1 40 28 1 0 0;
#X restore 165 520 graph;
#X obj 432 730 tabread4~ \$0-sampleR;
#X obj 437 702 tabread4~ \$0-sampleL;
#X obj 642 757 *~;
#X obj 642 785 *~;
#X obj 19 446 s \$0-samplesize;
#X obj 19 430 nbx 10 14 -1e+037 1e+037 0 0 empty empty empty 0 -8 0
10 -262144 -1 -1 0 256;
#X msg 19 240 read -resize \$1 \$2-sampleL \$2-sampleR;
#X obj 19 412 loadsampleL \$0-sampleL 882000;
#X obj 49 350 loadsampleR \$0-sampleR 882000;
#X obj 464 206 symbol;
#X msg 394 160 bang;
#X obj 187 147 del 1000;
#X obj 293 233 symbol;
#X msg 293 146 bang;
#X obj 293 164 del 900;
#X obj 394 178 del 4000;
#X obj 716 721 / 100;
#X obj 399 56 bng 15 250 50 0 empty empty empty 17 7 0 10 -262144 -1
-1;
#X obj 399 73 delay 1000;
#N canvas 26 192 177 205 monaural 0;
#X obj 16 20 inlet~;
#X obj 58 20 inlet~;
#X obj 63 38 r monaural-\$1;
#X floatatom 63 66 5 0 0 0 - - -;
#X obj 16 161 outlet~;
#X obj 58 143 outlet~;
#X obj 58 115 *~;
#X obj 107 66 * -1;
#X floatatom 107 102 5 0 0 0 - - -;
#X obj 107 84 + 1;
#X obj 21 115 *~;
#X connect 0 0 10 0;
#X connect 0 0 4 0;
#X connect 1 0 6 0;
#X connect 2 0 3 0;
#X connect 2 0 7 0;
#X connect 3 0 10 1;
#X connect 6 0 5 0;
#X connect 7 0 9 0;
#X connect 8 0 6 1;
#X connect 9 0 8 0;
#X connect 10 0 5 0;
#X restore 627 831 pd monaural;
#X msg 224 282 \$1 !;
#X msg 294 252 \$1 ...;
#X msg 464 224 \$1;
#X obj 527 49 sel \$1;
#X obj 527 31 unpack s s;
#X obj 527 13 r activePage;
#X obj 560 149 &&;
#X msg 584 85 1;
#X msg 659 67 0;
#X obj 560 167 sel 1 0;
#X msg 527 87 1;
#X msg 560 67 0;
#X obj 584 49 sel pg_select;
#X obj 394 38 r samp_source-\$1;
#X obj 464 153 r redrawsamp;
#X obj 631 592 / 100;
#X obj 294 319 s aux-line-\$1;
#X obj 211 101 ../soundshare/soundshare_select \$1;
#X connect 2 0 9 0;
#X connect 3 0 4 0;
#X connect 3 0 86 0;
#X connect 4 0 6 0;
#X connect 4 0 12 0;
#X connect 5 0 48 0;
#X connect 5 0 72 1;
#X connect 5 0 85 0;
#X connect 6 0 15 0;
#X connect 7 0 101 0;
#X connect 8 0 7 1;
#X connect 10 0 22 0;
#X connect 11 0 18 0;
#X connect 11 0 49 0;
#X connect 12 0 49 2;
#X connect 14 0 5 0;
#X connect 15 0 14 0;
#X connect 16 0 15 0;
#X connect 16 1 14 1;
#X connect 17 0 39 1;
#X connect 17 0 48 1;
#X connect 18 0 17 0;
#X connect 19 0 1 0;
#X connect 21 0 20 0;
#X connect 22 0 114 0;
#X connect 23 0 88 0;
#X connect 24 0 79 0;
#X connect 25 0 3 0;
#X connect 26 0 87 0;
#X connect 27 0 28 0;
#X connect 27 0 29 1;
#X connect 28 0 30 1;
#X connect 29 0 30 0;
#X connect 30 0 40 0;
#X connect 32 0 29 0;
#X connect 34 0 19 1;
#X connect 34 1 21 1;
#X connect 35 0 49 1;
#X connect 36 0 106 0;
#X connect 36 1 38 1;
#X connect 37 0 84 0;
#X connect 38 0 7 0;
#X connect 39 0 32 0;
#X connect 40 0 41 0;
#X connect 41 0 96 0;
#X connect 41 0 95 0;
#X connect 42 0 43 0;
#X connect 43 0 44 0;
#X connect 44 0 45 0;
#X connect 45 0 46 0;
#X connect 46 0 47 0;
#X connect 47 0 16 0;
#X connect 47 0 49 3;
#X connect 47 0 76 0;
#X connect 48 0 29 0;
#X connect 49 0 54 1;
#X connect 51 0 74 1;
#X connect 51 0 75 1;
#X connect 52 0 74 3;
#X connect 53 0 32 1;
#X connect 54 0 10 1;
#X connect 54 0 97 1;
#X connect 55 0 75 2;
#X connect 57 0 102 0;
#X connect 57 0 103 0;
#X connect 58 0 56 0;
#X connect 59 0 91 0;
#X connect 60 0 63 0;
#X connect 61 0 64 0;
#X connect 62 0 67 0;
#X connect 63 0 65 0;
#X connect 64 0 63 0;
#X connect 64 1 62 0;
#X connect 65 0 66 0;
#X connect 66 0 81 0;
#X connect 67 0 65 1;
#X connect 68 0 111 0;
#X connect 69 0 77 0;
#X connect 70 0 92 0;
#X connect 71 0 72 0;
#X connect 71 0 73 0;
#X connect 72 0 48 2;
#X connect 72 0 39 0;
#X connect 74 0 41 0;
#X connect 74 1 54 0;
#X connect 75 0 30 0;
#X connect 76 0 74 0;
#X connect 76 0 75 0;
#X connect 77 0 71 0;
#X connect 78 0 11 0;
#X connect 78 1 35 0;
#X connect 79 0 80 0;
#X connect 80 0 63 0;
#X connect 80 1 81 1;
#X connect 81 0 42 0;
#X connect 82 0 83 0;
#X connect 82 1 83 1;
#X connect 83 0 71 1;
#X connect 84 0 22 1;
#X connect 84 0 98 1;
#X connect 85 0 39 0;
#X connect 86 0 40 1;
#X connect 87 0 41 1;
#X connect 88 0 78 0;
#X connect 89 0 8 0;
#X connect 89 0 132 1;
#X connect 90 0 115 0;
#X connect 90 0 104 1;
#X connect 90 0 105 0;
#X connect 90 0 108 0;
#X connect 90 0 107 1;
#X connect 91 0 132 0;
#X connect 92 0 82 0;
#X connect 93 0 130 0;
#X connect 95 0 97 0;
#X connect 96 0 10 0;
#X connect 97 0 98 0;
#X connect 98 0 114 1;
#X connect 100 0 99 0;
#X connect 101 0 2 0;
#X connect 101 0 13 0;
#X connect 102 0 100 0;
#X connect 103 0 58 0;
#X connect 104 0 117 0;
#X connect 105 0 110 0;
#X connect 106 0 38 0;
#X connect 107 0 116 0;
#X connect 108 0 109 0;
#X connect 109 0 107 0;
#X connect 110 0 104 0;
#X connect 111 0 37 0;
#X connect 112 0 113 0;
#X connect 113 0 132 1;
#X connect 114 0 19 0;
#X connect 114 1 21 0;
#X connect 115 0 131 0;
#X connect 116 0 131 0;
#X connect 117 0 131 0;
#X connect 118 0 125 0;
#X connect 118 1 126 0;
#X connect 119 0 118 0;
#X connect 119 1 127 0;
#X connect 120 0 119 0;
#X connect 121 0 124 0;
#X connect 122 0 121 1;
#X connect 123 0 121 1;
#X connect 124 0 104 0;
#X connect 125 0 121 0;
#X connect 126 0 121 0;
#X connect 127 0 122 0;
#X connect 127 1 123 0;
#X connect 128 0 112 0;
#X connect 128 0 132 2;
#X connect 129 0 104 0;
#X connect 130 0 74 2;
#X connect 132 0 36 0;
#X connect 132 1 90 0;
