#N canvas 18 76 756 903 10;
#X obj 299 17 inlet~ inL-\$1;
#X obj 395 17 inlet~ inR-\$1;
#X obj 299 411 outlet~ outL-\$1;
#X obj 395 411 outlet~ outR-\$1;
#X obj 299 265 *~;
#X obj 349 265 *~;
#X obj 395 265 *~;
#X obj 425 265 *~;
#X obj 480 53 r lowband-\$1;
#X obj 420 35 r highband-\$1;
#X obj 459 239 r crossfade-\$1;
#X obj 459 257 pack 1 30;
#X obj 459 275 line 0 3;
#X obj 425 323 lop~;
#X obj 395 323 hip~;
#X obj 349 323 lop~;
#X obj 299 323 hip~;
#X obj 480 89 pack 1 30;
#X obj 480 107 line 0 3;
#X obj 420 71 pack 1 30;
#X obj 420 89 line 0 3;
#X obj 420 53 / 100;
#X obj 480 71 / 100;
#X obj 515 293 sel \$1;
#X msg 606 421 stop;
#X obj 515 275 unpack s s;
#X obj 515 257 r activePage;
#X obj 557 375 &&;
#X msg 572 329 1;
#X msg 623 311 0;
#X obj 557 393 sel 1 0;
#X msg 515 331 1;
#X msg 548 311 0;
#X obj 557 467 metro 40;
#X obj 536 421 delay 500;
#X obj 572 293 sel pg_eq;
#X obj 523 640 i;
#X msg 523 847 /oled/gFlip 3;
#X obj 554 773 f;
#X obj 523 586 / 100;
#X obj 523 568 -;
#X obj 511 540 f;
#X obj 523 604 + 1;
#X obj 511 494 snapshot~;
#X obj 523 694 t b f f b;
#X obj 496 383 env~;
#X obj 526 383 env~;
#X obj 511 411 +;
#X obj 511 465 sig~;
#X obj 523 622 * 32;
#X obj 209 411 env~;
#X obj 239 411 env~;
#X obj 233 662 i;
#X obj 272 745 f;
#X obj 233 608 / 100;
#X obj 233 590 -;
#X obj 221 562 f;
#X obj 233 626 + 1;
#X obj 221 516 snapshot~;
#X obj 221 441 +;
#X obj 221 477 sig~;
#X obj 523 658 + 32;
#X obj 523 676 min 64;
#X obj 233 698 min 64;
#X obj 233 680 + 32;
#X obj 221 534 t b f;
#X obj 511 512 t b f;
#X obj 27 861 s oscOutRaw;
#X obj 233 716 t f f b;
#X msg 233 801 /oled/gFillArea 3 65 \$1 63 1 1;
#X msg 272 764 /oled/gFillArea 3 65 \$1 63 1 0;
#X msg 554 792 /oled/gFillArea 3 1 \$1 63 1 0;
#X msg 538 820 /oled/gFillArea 3 1 \$1 63 1 1;
#X obj 233 644 * 32;
#X obj 511 447 / 1.4;
#X obj 221 459 / 1.4;
#X connect 0 0 4 0;
#X connect 0 0 5 0;
#X connect 1 0 6 0;
#X connect 1 0 7 0;
#X connect 4 0 16 0;
#X connect 5 0 15 0;
#X connect 6 0 14 0;
#X connect 7 0 13 0;
#X connect 8 0 22 0;
#X connect 9 0 21 0;
#X connect 10 0 11 0;
#X connect 11 0 12 0;
#X connect 12 0 13 1;
#X connect 12 0 14 1;
#X connect 12 0 15 1;
#X connect 12 0 16 1;
#X connect 13 0 3 0;
#X connect 13 0 46 0;
#X connect 14 0 3 0;
#X connect 14 0 51 0;
#X connect 15 0 2 0;
#X connect 15 0 45 0;
#X connect 16 0 2 0;
#X connect 16 0 50 0;
#X connect 17 0 18 0;
#X connect 18 0 7 1;
#X connect 18 0 5 1;
#X connect 19 0 20 0;
#X connect 20 0 6 1;
#X connect 20 0 4 1;
#X connect 21 0 19 0;
#X connect 22 0 17 0;
#X connect 23 0 31 0;
#X connect 23 1 32 0;
#X connect 24 0 33 0;
#X connect 25 0 23 0;
#X connect 25 1 35 0;
#X connect 26 0 25 0;
#X connect 27 0 30 0;
#X connect 28 0 27 1;
#X connect 29 0 27 1;
#X connect 30 0 34 0;
#X connect 30 1 24 0;
#X connect 31 0 27 0;
#X connect 32 0 27 0;
#X connect 33 0 58 0;
#X connect 33 0 43 0;
#X connect 34 0 33 0;
#X connect 35 0 28 0;
#X connect 35 1 29 0;
#X connect 36 0 61 0;
#X connect 37 0 67 0;
#X connect 38 0 71 0;
#X connect 39 0 42 0;
#X connect 40 0 39 0;
#X connect 41 0 40 0;
#X connect 42 0 49 0;
#X connect 43 0 66 0;
#X connect 44 0 37 0;
#X connect 44 1 72 0;
#X connect 44 2 38 1;
#X connect 44 3 38 0;
#X connect 45 0 47 0;
#X connect 46 0 47 1;
#X connect 47 0 74 0;
#X connect 48 0 43 0;
#X connect 49 0 36 0;
#X connect 50 0 59 0;
#X connect 51 0 59 1;
#X connect 52 0 64 0;
#X connect 53 0 70 0;
#X connect 54 0 57 0;
#X connect 55 0 54 0;
#X connect 56 0 55 0;
#X connect 57 0 73 0;
#X connect 58 0 65 0;
#X connect 59 0 75 0;
#X connect 60 0 58 0;
#X connect 61 0 62 0;
#X connect 62 0 44 0;
#X connect 63 0 68 0;
#X connect 64 0 63 0;
#X connect 65 0 56 0;
#X connect 65 1 55 1;
#X connect 66 0 41 0;
#X connect 66 1 40 1;
#X connect 68 0 69 0;
#X connect 68 1 53 1;
#X connect 68 2 53 0;
#X connect 69 0 67 0;
#X connect 70 0 67 0;
#X connect 71 0 67 0;
#X connect 72 0 67 0;
#X connect 73 0 52 0;
#X connect 74 0 48 0;
#X connect 75 0 60 0;
