#N canvas -8 -8 1366 725 10;
#X obj 74 16 inlet;
#X obj 63 334 outlet;
#X text 241 44 only output the note off for the last note on;
#X obj 83 92 swap;
#X obj 73 149 route 0;
#X obj 124 179 unpack f f;
#X text 12 130 note off;
#X obj 62 208 sel 0;
#X obj 158 337 outlet;
#X msg 105 267 0;
#X text 123 132 note on;
#X obj 49 275 f 0;
#X obj 64 233 t b b;
#X obj 79 116 pack f f;
#X obj 136 209 swap;
#X text 239 70 also resend active note # at note off in case module
expects with note # after off;
#X text 237 108 always sends velocity before note #;
#X obj 86 64 unpack f f;
#X connect 0 0 17 0;
#X connect 3 0 13 0;
#X connect 3 1 13 1;
#X connect 4 0 7 0;
#X connect 4 1 5 0;
#X connect 5 0 14 0;
#X connect 5 1 14 1;
#X connect 7 0 12 0;
#X connect 9 0 8 0;
#X connect 11 0 1 0;
#X connect 12 0 11 0;
#X connect 12 1 9 0;
#X connect 13 0 4 0;
#X connect 14 0 1 0;
#X connect 14 0 11 1;
#X connect 14 0 7 1;
#X connect 14 1 8 0;
#X connect 17 0 3 0;
#X connect 17 1 3 1;
