#N canvas 770 296 493 271 10;
#X obj 33 30 r loadbang-\$1;
#X obj 117 217 outlet~ outL-\$1;
#X obj 219 217 outlet~ outR-\$1;
#X obj 301 30 r expIn-\$1;
#X obj 395 56 r fsIn-\$1;
#X obj 301 55 s notesOut-\$1;
#X obj 377 30 s ctrlOut-\$1;
#X text 194 173 Pd~ subprocess;
#N canvas 346 124 1007 676 subparams 0;
#X obj 443 636 outlet;
#X obj 127 474 r notesIn-\$1;
#X obj 127 495 unpack 0 0;
#X msg 110 527 notes \$1;
#X msg 180 527 velocity \$1;
#X obj 640 458 r ctrlIn-\$1;
#X obj 640 479 unpack 0 0 0;
#X floatatom 639 501 5 0 0 0 - - - 0;
#X floatatom 707 503 5 0 0 0 - - - 0;
#X floatatom 809 503 5 0 0 0 - - - 0;
#X msg 639 527 valuem \$1;
#X msg 809 527 channelm \$1;
#X msg 707 527 controllerm \$1;
#X obj 18 21 r auxIn-\$1;
#X obj 112 84 r latch-\$1;
#X obj 749 88 r filt_cutoff-\$1;
#X obj 18 82 r volume-\$1;
#X obj 308 85 r lfolabel-\$1;
#X obj 332 22 r transpose-\$1;
#X obj 875 88 r portamento-\$1;
#X obj 21 207 r amod_depth-\$1;
#X obj 19 140 r bp_wave-osc1-\$1;
#X obj 155 140 r bp_wave-osc2-\$1;
#X obj 109 22 r pwmspeed-\$1;
#X obj 203 84 r pwmdepth-\$1;
#X obj 523 88 r osc2_tune-\$1;
#X obj 637 87 r osc2_lfo-\$1;
#X obj 449 23 r osc2_coarse-\$1;
#X obj 280 141 r osc1_tune-\$1;
#X obj 788 207 r osc1_lfo-\$1;
#X obj 629 145 r osc1_fm-\$1;
#X obj 669 208 r ring_mix-\$1;
#X obj 150 207 r osc1_mix-\$1;
#X obj 364 208 r osc2_mix-\$1;
#X obj 380 141 r ext-\$1;
#X obj 891 26 r noise-\$1;
#X obj 686 25 r lfotype-\$1;
#X obj 225 22 r lfospeed-\$1;
#X obj 799 25 r speed-\$1;
#X obj 579 25 r lfosync-\$1;
#X obj 416 86 r master-ticks;
#X obj 471 208 r lfosync-\$1;
#X obj 573 208 r attack-\$1;
#X obj 522 143 r release-\$1;
#X obj 899 206 r sustain-\$1;
#X obj 440 142 r decay-\$1;
#X obj 266 207 r filt_q-\$1;
#X obj 869 146 r envfilt-\$1;
#X obj 738 146 r fmod_depth-\$1;
#X msg 18 42 auxIn \$1;
#X msg 109 43 pwmspeed \$1;
#X msg 225 43 lfospeed \$1;
#X msg 332 43 transpose \$1;
#X msg 449 44 osc2_coarse \$1;
#X msg 579 46 lfosync \$1;
#X msg 686 46 lfotype \$1;
#X msg 799 46 speed \$1;
#X msg 891 47 noise \$1;
#X msg 18 103 volume \$1;
#X msg 112 105 latch \$1;
#X msg 203 105 pwmdepth \$1;
#X msg 308 106 lfolabel \$1;
#X msg 416 107 master-ticks \$1;
#X msg 523 109 osc2_tune \$1;
#X msg 637 108 osc2_lfo \$1;
#X msg 749 109 filt_cutoff \$1;
#X msg 875 109 portamento \$1;
#X msg 19 161 bp_wave-osc1 \$1;
#X msg 155 161 bp_wave-osc2 \$1;
#X msg 280 162 osc1_tune \$1;
#X msg 380 162 ext \$1;
#X msg 440 163 decay \$1;
#X msg 522 164 release \$1;
#X msg 630 167 osc1_fm \$1;
#X msg 738 167 fmod_depth \$1;
#X msg 869 167 envfilt \$1;
#X msg 21 228 amod_depth \$1;
#X msg 150 228 osc1_mix \$1;
#X msg 266 228 filt_q \$1;
#X msg 364 229 osc2_mix \$1;
#X msg 471 229 lfosync \$1;
#X msg 573 229 attack \$1;
#X msg 669 229 ring_mix \$1;
#X msg 788 228 osc1_lfo \$1;
#X msg 899 227 sustain \$1;
#X obj 881 276 r release-f-\$1;
#X msg 881 297 release-f \$1;
#X obj 877 328 r attack-f-\$1;
#X obj 888 393 r sustain-f-\$1;
#X msg 877 349 attack-f \$1;
#X msg 888 414 sustain-f \$1;
#X msg 890 474 decay-f \$1;
#X obj 890 453 r decay-f-\$1;
#X connect 1 0 2 0;
#X connect 2 0 3 0;
#X connect 2 1 4 0;
#X connect 3 0 0 0;
#X connect 4 0 0 0;
#X connect 5 0 6 0;
#X connect 6 0 7 0;
#X connect 6 1 8 0;
#X connect 6 2 9 0;
#X connect 7 0 10 0;
#X connect 8 0 12 0;
#X connect 9 0 11 0;
#X connect 10 0 0 0;
#X connect 11 0 0 0;
#X connect 12 0 0 0;
#X connect 13 0 49 0;
#X connect 14 0 59 0;
#X connect 15 0 65 0;
#X connect 16 0 58 0;
#X connect 17 0 61 0;
#X connect 18 0 52 0;
#X connect 19 0 66 0;
#X connect 20 0 76 0;
#X connect 21 0 67 0;
#X connect 22 0 68 0;
#X connect 23 0 50 0;
#X connect 24 0 60 0;
#X connect 25 0 63 0;
#X connect 26 0 64 0;
#X connect 27 0 53 0;
#X connect 28 0 69 0;
#X connect 29 0 83 0;
#X connect 30 0 73 0;
#X connect 31 0 82 0;
#X connect 32 0 77 0;
#X connect 33 0 79 0;
#X connect 34 0 70 0;
#X connect 35 0 57 0;
#X connect 36 0 55 0;
#X connect 37 0 51 0;
#X connect 38 0 56 0;
#X connect 39 0 54 0;
#X connect 40 0 62 0;
#X connect 41 0 80 0;
#X connect 42 0 81 0;
#X connect 43 0 72 0;
#X connect 44 0 84 0;
#X connect 45 0 71 0;
#X connect 46 0 78 0;
#X connect 47 0 75 0;
#X connect 48 0 74 0;
#X connect 49 0 0 0;
#X connect 50 0 0 0;
#X connect 51 0 0 0;
#X connect 52 0 0 0;
#X connect 53 0 0 0;
#X connect 54 0 0 0;
#X connect 55 0 0 0;
#X connect 56 0 0 0;
#X connect 57 0 0 0;
#X connect 58 0 0 0;
#X connect 59 0 0 0;
#X connect 60 0 0 0;
#X connect 61 0 0 0;
#X connect 62 0 0 0;
#X connect 63 0 0 0;
#X connect 64 0 0 0;
#X connect 65 0 0 0;
#X connect 66 0 0 0;
#X connect 67 0 0 0;
#X connect 68 0 0 0;
#X connect 69 0 0 0;
#X connect 70 0 0 0;
#X connect 71 0 0 0;
#X connect 72 0 0 0;
#X connect 73 0 0 0;
#X connect 74 0 0 0;
#X connect 75 0 0 0;
#X connect 76 0 0 0;
#X connect 77 0 0 0;
#X connect 78 0 0 0;
#X connect 79 0 0 0;
#X connect 80 0 0 0;
#X connect 81 0 0 0;
#X connect 82 0 0 0;
#X connect 83 0 0 0;
#X connect 84 0 0 0;
#X connect 85 0 86 0;
#X connect 86 0 0 0;
#X connect 87 0 89 0;
#X connect 88 0 90 0;
#X connect 89 0 0 0;
#X connect 90 0 0 0;
#X connect 91 0 0 0;
#X connect 92 0 91 0;
#X restore 49 90 pd subparams;
#X text 119 109 subprocess parameters;
#X obj 19 217 s aux-label-\$1;
#X obj 34 127 inlet~ inL-\$1;
#X obj 123 141 inlet~ inR-\$1;
#X obj 35 156 +~;
#X obj 33 175 pd~ -ninsig 1 -noutsig 1;
#X msg 33 68 pd~ start -nogui pd~-monocle.pd;
#X connect 0 0 15 0;
#X connect 8 0 14 0;
#X connect 11 0 13 0;
#X connect 12 0 13 1;
#X connect 13 0 14 0;
#X connect 14 0 10 0;
#X connect 14 1 1 0;
#X connect 14 1 2 0;
#X connect 15 0 14 0;
