#N canvas 16 4 1358 659 10;
#X obj 304 186 r notesIn-\$1;
#X obj 304 671 s notesOut-\$1;
#X obj 38 179 inlet~ inL-\$1;
#X obj 135 186 inlet~ inR-\$1;
#X obj 27 671 outlet~ outL-\$1;
#X obj 136 671 outlet~ outR-\$1;
#X obj 445 180 r auxIn-\$1;
#X obj 423 208 r expIn-\$1;
#X obj 456 225 r fsIn-\$1;
#X obj 842 83 nbx 5 14 -1e+037 1e+037 0 0 empty empty empty 0 -8 0
10 -262144 -1 -1 0 256;
#X obj 800 229 nbx 5 14 -1e+037 1e+037 0 0 empty empty empty 0 -8 0
10 -262144 -1 -1 0 256;
#X obj 902 205 s aux-label-\$1;
#X obj 821 126 delcalc \$1;
#X obj 788 266 s len_l-\$1;
#X obj 844 52 r len_raw_l-\$1;
#X msg 903 174 L 1/4 notes: \$1;
#X obj 1068 87 nbx 5 14 -1e+037 1e+037 0 0 empty empty empty 0 -8 0
10 -262144 -1 -1 0 256;
#X obj 1037 201 nbx 5 14 -1e+037 1e+037 0 0 empty empty empty 0 -8
0 10 -262144 -1 -1 0 256;
#X obj 1128 209 s aux-label-\$1;
#X obj 1047 130 delcalc \$1;
#X obj 1070 56 r len_raw_r-\$1;
#X obj 1024 240 s len_r-\$1;
#X msg 1128 177 R 1/4 notes: \$1;
#X obj 51 547 stereodelay \$1;
#X obj 1049 171 + 0;
#X obj 825 168 + 0;
#X obj 727 120 t b f;
#X obj 986 129 t b f;
#X obj 930 84 r len_fine_r-\$1;
#X obj 702 92 r len_fine_l-\$1;
#X connect 2 0 23 0;
#X connect 3 0 23 1;
#X connect 9 0 12 0;
#X connect 10 0 13 0;
#X connect 12 0 25 0;
#X connect 12 1 15 0;
#X connect 14 0 9 0;
#X connect 15 0 11 0;
#X connect 16 0 19 0;
#X connect 17 0 21 0;
#X connect 19 0 24 0;
#X connect 19 1 22 0;
#X connect 20 0 16 0;
#X connect 22 0 18 0;
#X connect 23 0 4 0;
#X connect 23 1 5 0;
#X connect 24 0 17 0;
#X connect 25 0 10 0;
#X connect 26 0 25 0;
#X connect 26 1 25 1;
#X connect 27 0 24 0;
#X connect 27 1 24 1;
#X connect 28 0 27 0;
#X connect 29 0 26 0;
