#N canvas 18 75 1351 719 10;
#X obj 272 14 inlet;
#X obj 503 682 outlet~;
#X obj 789 583 +~ 1;
#X obj 516 647 *~;
#X obj 805 543 *~ 0.1;
#X obj 302 95 + 0;
#X obj 871 487 r tremolo_depth-\$1;
#X obj 331 42 r transpose-\$1;
#X obj 627 543 env/env_parabolic \$1;
#X obj 588 455 env/env_parabolic f-\$1;
#X obj 439 157 / 128;
#X obj 470 463 *~ 1;
#X obj 632 408 > 0;
#X obj 481 -1 inlet;
#X obj 554 160 lfo/lfo \$1;
#X obj 542 205 +~;
#N canvas 0 23 1151 774 filter 0;
#X obj 631 295 *~;
#X obj 321 380 *~ 1;
#X obj 756 248 * -1;
#X obj 755 273 + 1;
#X obj 428 438 r filt_q-\$1;
#X obj 724 190 r envfilt-\$1;
#X obj 689 264 +~ 1;
#X obj 672 238 *~ 0;
#X obj 530 336 r~ filt_cuttoff_sig-\$1;
#X obj 476 381 *~;
#X obj 835 188 r fmod_depth-\$1;
#X obj 941 273 sig~ 1;
#X obj 831 253 *~ 0;
#X obj 703 320 *~;
#X obj 344 449 moog~;
#X obj 429 405 *~ 5;
#X obj 313 185 inlet~;
#X obj 425 193 inlet~;
#X obj 812 137 inlet~;
#X obj 343 517 outlet~;
#X obj 957 153 inlet;
#X obj 958 212 mtof;
#X connect 0 0 13 0;
#X connect 1 0 14 0;
#X connect 2 0 3 0;
#X connect 3 0 6 1;
#X connect 4 0 14 2;
#X connect 5 0 2 0;
#X connect 5 0 7 1;
#X connect 6 0 0 0;
#X connect 7 0 6 0;
#X connect 8 0 9 1;
#X connect 9 0 15 0;
#X connect 10 0 12 1;
#X connect 11 0 13 1;
#X connect 12 0 13 1;
#X connect 13 0 9 0;
#X connect 14 0 19 0;
#X connect 15 0 14 1;
#X connect 16 0 1 0;
#X connect 17 0 7 0;
#X connect 18 0 12 0;
#X connect 20 0 21 0;
#X connect 21 0 0 1;
#X restore 538 504 pd filter;
#X obj 525 581 *~;
#N canvas 0 23 955 690 osc1 0;
#X obj 615 149 nbx 5 14 -1e+37 1e+37 0 0 empty empty empty 0 -8 0 10
-262144 -1 -1 0 256;
#X obj 374 103 / 100;
#X obj 358 131 + 0;
#X obj 590 233 *~ 0.001;
#X obj 568 258 *~;
#X obj 340 229 vline~;
#X obj 340 161 mtof;
#X msg 351 195 \$1 50;
#X obj 439 326 *~ 1;
#X obj 323 15 inlet;
#X obj 530 55 inlet~;
#X obj 685 70 inlet~;
#X obj 445 431 outlet~;
#X obj 381 78 r osc1_tune-\$1;
#X obj 600 120 r osc1_lfo-\$1;
#X obj 455 369 bp-voice osc1-\$1;
#X obj 764 49 r osc1_fm-\$1;
#X obj 735 245 *~ 0;
#X floatatom 909 149 5 0 0 0 - - -;
#X obj 754 212 *;
#X obj 765 81 t f f;
#X obj 786 124 *;
#X obj 699 115 lop~ 5000;
#X obj 806 155 / 5;
#X floatatom 660 223 5 0 0 0 - - -;
#X obj 561 182 expr ($f1*$f1)/($f1/abs($f1))/100;
#X obj 879 61 inlet~;
#X connect 0 0 25 0;
#X connect 1 0 2 1;
#X connect 2 0 6 0;
#X connect 3 0 4 1;
#X connect 4 0 8 0;
#X connect 5 0 3 0;
#X connect 5 0 8 0;
#X connect 6 0 7 0;
#X connect 6 0 19 1;
#X connect 7 0 5 0;
#X connect 8 0 15 0;
#X connect 9 0 2 0;
#X connect 10 0 4 0;
#X connect 11 0 22 0;
#X connect 13 0 1 0;
#X connect 14 0 0 0;
#X connect 15 0 12 0;
#X connect 16 0 18 0;
#X connect 16 0 20 0;
#X connect 17 0 8 0;
#X connect 19 0 17 1;
#X connect 20 0 21 0;
#X connect 20 1 21 1;
#X connect 21 0 23 0;
#X connect 22 0 17 0;
#X connect 23 0 19 0;
#X connect 25 0 24 0;
#X connect 25 0 3 1;
#X connect 26 0 15 1;
#X restore 353 378 pd osc1;
#X obj 433 97 sel 0;
#N canvas 0 23 955 690 osc2 0;
#X obj 615 149 nbx 5 14 -1e+37 1e+37 0 0 empty empty empty 0 -8 0 10
-262144 -1 -1 0 256;
#X obj 374 103 / 100;
#X obj 358 131 + 0;
#X obj 601 221 *~ 0.001;
#X obj 568 258 *~;
#X obj 340 229 vline~;
#X obj 340 161 mtof;
#X msg 351 195 \$1 50;
#X obj 439 326 *~ 1;
#X obj 323 15 inlet;
#X obj 530 55 inlet~;
#X obj 445 431 outlet~;
#X obj 378 65 r osc2_tune-\$1;
#X obj 600 120 r osc2_lfo-\$1;
#X obj 374 31 r osc2_coarse-\$1;
#X obj 320 60 + 0;
#X obj 455 369 bp-voice osc2-\$1;
#X obj 624 181 expr ($f1*$f1)/($f1/abs($f1))/100;
#X obj 728 101 inlet~;
#X connect 0 0 17 0;
#X connect 1 0 2 1;
#X connect 2 0 6 0;
#X connect 3 0 4 1;
#X connect 4 0 8 0;
#X connect 5 0 3 0;
#X connect 5 0 8 0;
#X connect 6 0 7 0;
#X connect 7 0 5 0;
#X connect 8 0 16 0;
#X connect 9 0 15 0;
#X connect 10 0 4 0;
#X connect 12 0 1 0;
#X connect 13 0 0 0;
#X connect 14 0 15 1;
#X connect 15 0 2 0;
#X connect 16 0 11 0;
#X connect 17 0 3 1;
#X connect 18 0 16 1;
#X restore 423 335 pd osc2;
#N canvas 0 23 450 300 mix 0;
#N canvas 0 23 450 300 noise 0;
#X obj 233 53 r noise-\$1;
#X obj 197 155 *~ 0;
#X obj 166 91 noise~;
#X obj 236 104 t f f;
#X obj 242 79 / 100;
#X obj 234 125 *;
#X obj 192 195 outlet~;
#X connect 0 0 4 0;
#X connect 1 0 6 0;
#X connect 2 0 1 0;
#X connect 3 0 5 0;
#X connect 3 1 5 1;
#X connect 4 0 3 0;
#X connect 5 0 1 1;
#X restore 245 73 pd noise;
#X obj 67 79 inlet~;
#X obj 119 87 inlet~;
#X obj 136 263 outlet~;
#X obj 183 154 lop~ 5000;
#X obj 272 145 lop~ 5000;
#X obj 235 190 *~;
#X obj 286 185 r ring_mix-\$1;
#X obj 256 226 *~ 0;
#X obj 92 224 *~ 0;
#X obj 19 208 *~ 1;
#X obj 49 167 r osc1_mix-\$1;
#X obj 122 183 r osc2_mix-\$1;
#X connect 0 0 3 0;
#X connect 1 0 4 0;
#X connect 1 0 10 0;
#X connect 2 0 5 0;
#X connect 2 0 9 0;
#X connect 4 0 6 0;
#X connect 5 0 6 1;
#X connect 6 0 8 0;
#X connect 7 0 8 1;
#X connect 8 0 3 0;
#X connect 9 0 3 0;
#X connect 10 0 3 0;
#X connect 11 0 10 1;
#X connect 12 0 9 1;
#X restore 407 426 pd mix;
#N canvas 0 23 450 501 pwm 1;
#X obj 140 158 abs~;
#X obj 136 129 -~ 0.5;
#X obj 140 187 *~ 2;
#X obj 139 82 phasor~ 1;
#X obj 107 29 r pwmspeed-\$1;
#X obj 228 245 sig~ 0.5;
#X obj 140 225 -~ 0.5;
#X obj 250 85 r pwmdepth-\$1;
#X obj 153 304 outlet~;
#X obj 144 280 *~ 0;
#X obj 75 95 osc~ 1;
#X obj 79 147 *~ 0.5;
#X connect 0 0 2 0;
#X connect 1 0 0 0;
#X connect 2 0 6 0;
#X connect 3 0 1 0;
#X connect 4 0 3 0;
#X connect 4 0 10 0;
#X connect 5 0 8 0;
#X connect 7 0 9 1;
#X connect 9 0 8 0;
#X connect 10 0 11 0;
#X connect 11 0 9 0;
#X restore 382 233 pd pwm;
#X connect 0 0 5 0;
#X connect 2 0 3 1;
#X connect 3 0 1 0;
#X connect 4 0 2 0;
#X connect 5 0 18 0;
#X connect 5 0 16 3;
#X connect 5 0 20 0;
#X connect 6 0 4 1;
#X connect 7 0 5 1;
#X connect 8 0 17 1;
#X connect 9 0 16 1;
#X connect 10 0 11 1;
#X connect 11 0 16 0;
#X connect 12 0 9 0;
#X connect 12 0 8 0;
#X connect 13 0 12 0;
#X connect 13 0 19 0;
#X connect 14 0 15 0;
#X connect 15 0 4 0;
#X connect 15 0 16 2;
#X connect 15 0 18 1;
#X connect 15 0 20 1;
#X connect 16 0 17 0;
#X connect 17 0 3 0;
#X connect 18 0 21 0;
#X connect 19 1 10 0;
#X connect 20 0 18 2;
#X connect 20 0 21 1;
#X connect 21 0 11 0;
#X connect 22 0 18 3;
#X connect 22 0 20 2;
