#N canvas 255 23 1107 775 10;
#X declare -path cg-pd-library-local/sampling;
#X declare -path cg-pd-library-local/sequencer;
#X declare -path cg-pd-library-local/externals;
#X declare -path cg-pd-library-local/metronome;
#X text 210 710 Sound out;
#X text 111 47 init sequence;
#X text 192 96 critter library of abstractions;
#N canvas 0 23 1440 775 record 1;
#X msg 640 419 start;
#X msg 514 355 stop;
#X obj 379 626 cg-time-count;
#X obj 346 422 v global-sample-count;
#X obj 703 415 v global-sample-count;
#X obj 703 436 + 1;
#X msg 703 470 num \$1;
#X obj 379 550 unpack 0 0;
#X obj 379 678 pack 0 0 0;
#X obj 379 647 unpack;
#X obj 415 257 sel 0 1, f 62;
#X msg 379 700 Record \$3.wav \$1:\$2;
#X obj 244 285 r init-sample-ct;
#X obj 561 316 t b b b, f 19;
#X obj 561 368 v global-rec-status;
#X obj 561 337 f 1;
#X obj 377 302 t b b b;
#X obj 350 363 v global-rec-status;
#X obj 350 332 f 0;
#X obj 379 571 t a a a;
#X obj 642 527 sel 1;
#X obj 671 569 spigot 0;
#X obj 671 610 t b b;
#X msg 736 589 0;
#X obj 506 615 sel 1, f 13;
#X obj 506 658 f 1;
#X obj 581 661 f 0;
#X obj 533 690 f;
#X obj 506 636 t b b;
#X obj 581 640 t b b;
#X obj 701 496 r notes;
#X obj 701 517 stripnote;
#X obj 701 538 t b;
#X obj 1342 811 s oscOut;
#X obj 58 167 inlet~;
#X obj 256 132 inlet~;
#X obj 155 247 +~;
#X obj 494 177 r auxIn-\$1;
#X obj 316 746 s aux-label-\$1;
#X obj 254 633 s aux-led-\$1;
#X obj 295 310 bng 15 250 50 0 empty empty empty 17 7 0 10 -262144
-1 -1;
#X obj 396 86 r bounce-\$1;
#X obj 258 187 *~;
#X obj 315 219 r loadbang-\$1;
#X obj 379 529 cg-writeSf~ /tmp/media/berryloops;
#X obj 346 401 cg-count-sf /tmp/media/berryloops;
#X connect 0 0 44 1;
#X connect 1 0 44 1;
#X connect 2 0 9 0;
#X connect 4 0 5 0;
#X connect 5 0 6 0;
#X connect 6 0 44 1;
#X connect 7 0 19 0;
#X connect 7 1 8 2;
#X connect 8 0 11 0;
#X connect 9 0 8 0;
#X connect 9 1 8 1;
#X connect 10 0 16 0;
#X connect 10 1 13 0;
#X connect 11 0 38 0;
#X connect 12 0 45 0;
#X connect 13 0 15 0;
#X connect 13 1 0 0;
#X connect 13 2 4 0;
#X connect 15 0 14 0;
#X connect 16 0 18 0;
#X connect 16 1 45 0;
#X connect 16 2 1 0;
#X connect 18 0 17 0;
#X connect 19 0 39 0;
#X connect 19 1 2 0;
#X connect 19 2 24 0;
#X connect 20 0 21 0;
#X connect 21 0 22 0;
#X connect 22 1 23 0;
#X connect 23 0 21 1;
#X connect 24 0 28 0;
#X connect 24 1 29 0;
#X connect 25 0 27 0;
#X connect 26 0 27 0;
#X connect 27 0 21 1;
#X connect 28 0 25 0;
#X connect 29 0 26 0;
#X connect 30 0 31 0;
#X connect 31 0 32 0;
#X connect 32 0 21 0;
#X connect 34 0 36 0;
#X connect 35 0 42 0;
#X connect 36 0 44 0;
#X connect 37 0 10 0;
#X connect 37 0 20 0;
#X connect 40 0 45 0;
#X connect 41 0 42 1;
#X connect 42 0 36 1;
#X connect 43 0 45 0;
#X connect 44 0 7 0;
#X connect 45 0 3 0;
#X restore 50 493 pd record;
#N canvas 13 50 450 300 cg-pd-library-local 0;
#X obj 502 35 r cgSc-1-slots;
#X obj 60 68 declare -path cg-pd-library-local/sampling;
#X obj 60 98 declare -path cg-pd-library-local/sequencer;
#X obj 58 130 declare -path cg-pd-library-local/externals;
#X obj 59 165 declare -path cg-pd-library-local/metronome;
#X restore 51 94 pd cg-pd-library-local;
#N canvas 4 23 1097 775 kb-commands 0;
#X obj 22 39 stripnote;
#X obj 22 60 sel 60 61 62 63 64 65, f 48;
#X obj 502 102 sel 72 74 76 77, f 48;
#X obj 23 18 inlet;
#X obj 22 120 s loop-1-start-\$1;
#X obj 76 166 s global-start-\$1;
#X obj 84 88 s loop-2-start-\$1;
#X obj 164 102 s global-stop-\$1;
#X obj 245 146 s loop-3-start-\$1;
#X obj 282 119 s loop-4-start-\$1;
#X obj 512 162 s loop-1-stop-\$1;
#X obj 571 134 s loop-2-stop-\$1;
#X obj 658 178 s loop-3-stop-\$1;
#X obj 713 139 s loop-4-stop-\$1;
#X connect 0 0 1 0;
#X connect 1 0 4 0;
#X connect 1 1 5 0;
#X connect 1 2 6 0;
#X connect 1 3 7 0;
#X connect 1 4 8 0;
#X connect 1 5 9 0;
#X connect 1 6 2 0;
#X connect 2 0 10 0;
#X connect 2 1 11 0;
#X connect 2 2 12 0;
#X connect 2 3 13 0;
#X connect 3 0 0 0;
#X restore 292 181 pd kb-commands;
#X obj 90 708 *~ 1;
#X obj 75 181 inlet~;
#X obj 156 185 inlet~;
#X obj 67 750 outlet~;
#X obj 378 737 outlet~;
#X obj 81 240 *~ 0.5;
#X obj 390 417 *~ 1;
#X obj 289 138 r notesIn-\$1;
#X obj 494 177 r auxIn-\$1;
#X obj 423 208 r expIn-\$1;
#X obj 525 208 r fsIn-\$1;
#X obj 97 517 s aux-label-\$1;
#X obj 335 319 loop-voice 1 \$1;
#X obj 480 327 loop-voice 2 \$1;
#X obj 580 327 loop-voice 3 \$1;
#X obj 686 326 loop-voice 4 \$1;
#X connect 6 0 9 0;
#X connect 6 0 10 0;
#X connect 7 0 11 0;
#X connect 8 0 11 0;
#X connect 11 0 3 0;
#X connect 12 0 6 0;
#X connect 12 0 3 1;
#X connect 13 0 5 0;
#X connect 18 0 12 0;
#X connect 19 0 12 0;
#X connect 20 0 12 0;
#X connect 21 0 12 0;
