#N canvas 361 41 1285 775 10;
#X obj 354 850 waveplayer~;
#X obj 107 94 t a b;
#X obj 134 119 v global-sample-count;
#X obj 107 169 *;
#X obj 107 220 i;
#X obj 107 190 + 0.49999;
#X text 23 17 ARG 1: Page Number/Loop Number;
#X obj 354 931 hip~ 5;
#X obj 354 952 outlet~;
#X obj 354 892 *~, f 16;
#X obj 828 637 lop~ 100;
#X obj 828 594 pow 2;
#X obj 413 461 pack 0 \$1;
#X msg 413 492 Loop \$2: \$1.wav;
#X msg 134 724 open loops/\$1.wav;
#X obj 238 336 min;
#X obj 234 295 t a b;
#X obj 263 314 v global-sample-count;
#X obj 272 409 sel 0, f 24;
#X obj 272 436 f \$1;
#X obj 134 697 f;
#X obj 518 740 s \$0-2-wave;
#X obj 354 779 r \$0-2-wave;
#X obj 134 751 s \$0-2-wave;
#X obj 302 585 t b;
#X obj 302 606 f 0;
#X obj 518 717 f;
#X obj 354 800 spigot 0;
#X obj 151 621 t b b b b, f 17;
#X obj 250 660 f 1;
#X obj 302 627 t b f f;
#X obj 354 871 *~ 0.98;
#X msg 272 467 Loop \$1: No Samp;
#X obj 107 265 change -1;
#X obj 107 406 sel 0, f 14;
#X obj 151 570 v \$0-sample?;
#X obj 107 427 t b b;
#X obj 188 430 t a b;
#X obj 50 518 v \$0-sample?;
#X obj 50 496 f 0;
#X obj 216 453 f 1;
#X obj 151 591 sel 1;
#X obj 535 458 r speed-\$1-\$2;
#X obj 845 533 r vol-\$1-\$2;
#X obj 109 61 r samp-\$1-\$2;
#X obj 32 461 s loop-\$1-stop-\$2;
#X obj 151 500 r global-start-\$2;
#X obj 164 527 r loop-\$1-start-\$2;
#X obj 272 543 r loop-\$1-stop-\$2;
#X obj 315 564 r global-stop-\$2;
#X obj 420 528 s aux-label-\$1;
#X obj 228 848 print wave\$1;
#X floatatom 41 644 5 0 0 0 - - -;
#X obj 564 511 / 25;
#X obj 630 581 / 4;
#X obj 621 560 int;
#X connect 0 0 31 0;
#X connect 1 0 3 0;
#X connect 1 1 2 0;
#X connect 2 0 3 1;
#X connect 3 0 5 0;
#X connect 4 0 33 0;
#X connect 5 0 4 0;
#X connect 7 0 8 0;
#X connect 9 0 7 0;
#X connect 10 0 9 1;
#X connect 11 0 10 0;
#X connect 12 0 13 0;
#X connect 13 0 50 0;
#X connect 14 0 23 0;
#X connect 15 0 34 0;
#X connect 15 0 18 0;
#X connect 16 0 15 0;
#X connect 16 1 17 0;
#X connect 17 0 15 1;
#X connect 18 0 19 0;
#X connect 18 1 12 0;
#X connect 19 0 32 0;
#X connect 20 0 14 0;
#X connect 22 0 27 0;
#X connect 24 0 25 0;
#X connect 25 0 30 0;
#X connect 26 0 21 0;
#X connect 27 0 0 0;
#X connect 27 0 51 0;
#X connect 28 1 20 0;
#X connect 28 2 26 0;
#X connect 28 3 29 0;
#X connect 29 0 27 1;
#X connect 30 1 0 0;
#X connect 30 1 51 0;
#X connect 30 2 27 1;
#X connect 31 0 9 0;
#X connect 32 0 50 0;
#X connect 33 0 16 0;
#X connect 34 0 36 0;
#X connect 34 1 37 0;
#X connect 35 0 41 0;
#X connect 36 0 45 0;
#X connect 36 1 39 0;
#X connect 37 0 20 0;
#X connect 37 0 52 0;
#X connect 37 1 40 0;
#X connect 39 0 38 0;
#X connect 40 0 38 0;
#X connect 41 0 28 0;
#X connect 42 0 53 0;
#X connect 43 0 11 0;
#X connect 44 0 1 0;
#X connect 46 0 35 0;
#X connect 47 0 35 0;
#X connect 48 0 24 0;
#X connect 49 0 24 0;
#X connect 53 0 55 0;
#X connect 54 0 26 0;
#X connect 55 0 54 0;
