#N canvas 155 23 1285 775 10;
#X obj 355 824 waveplayer~, f 13;
#X obj 107 94 t a b;
#X obj 134 119 v global-sample-count;
#X obj 107 169 *;
#X obj 107 220 i;
#X obj 107 190 + 0.49999;
#X text 23 17 ARG 1: Page Number/Loop Number;
#X obj 357 917 hip~ 5;
#X obj 354 952 outlet~;
#X obj 354 867 *~, f 16;
#X obj 828 637 lop~ 100;
#X obj 828 594 pow 2;
#X obj 413 461 pack 0 \$1;
#X msg 413 492 Loop \$2: \$1.wav;
#X obj 238 336 min;
#X obj 234 295 t a b;
#X obj 263 314 v global-sample-count;
#X obj 272 409 sel 0, f 24;
#X obj 272 436 f \$1;
#X obj 134 697 f;
#X obj 518 740 s \$0-2-wave;
#X obj 354 779 r \$0-2-wave;
#X obj 134 751 s \$0-2-wave;
#X obj 302 585 t b;
#X obj 302 606 f 0;
#X obj 518 717 f;
#X obj 354 800 spigot 0;
#X obj 151 621 t b b b b, f 17;
#X obj 250 660 f 1;
#X obj 302 627 t b f f;
#X obj 355 845 *~ 0.98;
#X msg 272 467 Loop \$1: No Samp;
#X obj 107 265 change -1;
#X obj 107 406 sel 0, f 14;
#X obj 151 570 v \$0-sample?;
#X obj 107 427 t b b;
#X obj 188 430 t a b;
#X obj 50 518 v \$0-sample?;
#X obj 50 496 f 0;
#X obj 216 453 f 1;
#X obj 151 591 sel 1;
#X obj 535 458 r speed-\$1-\$2;
#X obj 845 533 r vol-\$1-\$2;
#X obj 109 61 r samp-\$1-\$2;
#X obj 32 461 s loop-\$1-stop-\$2;
#X obj 151 500 r global-start-\$2;
#X obj 164 527 r loop-\$1-start-\$2;
#X obj 272 543 r loop-\$1-stop-\$2;
#X obj 315 564 r global-stop-\$2;
#X obj 228 848 print wave\$1;
#X floatatom 41 644 5 0 0 0 - - -;
#X obj 564 511 / 25;
#X obj 610 623 / 4;
#X obj 621 560 int;
#X obj 420 528 s aux-label-\$2;
#X obj 425 631 s aux-label-\$2;
#X obj 55 786 f \$1;
#X msg 55 817 Loop \$1 Playing;
#X obj 155 784 f \$1;
#X msg 155 815 Loop \$1 Stopped;
#X obj 53 866 s aux-label-\$2;
#X obj 153 864 s aux-label-\$2;
#X msg 134 724 open /tmp/media/berryloops/\$1.wav;
#X obj 655 899 outlet;
#X msg 112 912 1;
#X msg 205 914 0;
#X obj 358 891 lop~ 22500;
#X obj 950 541 r filt-\$1-\$2;
#X obj 1029 544 r pan-\$1-\$2;
#X obj 1004 646 hsl 128 15 -1 1 0 0 empty empty empty -2 -8 0 10 -262144
-1 -1 5700 1;
#X obj 951 765 nbx 5 14 -1e+37 1e+37 0 0 empty empty empty 0 -8 0 10
-262144 -1 -1 1.10236 256;
#X obj 1020 768 nbx 5 14 -1e+37 1e+37 0 0 empty empty empty 0 -8 0
10 -262144 -1 -1 0.897638 256;
#X obj 959 719 - 1;
#X obj 958 740 abs;
#X obj 1022 745 + 1;
#X obj 745 824 lop~ 20;
#X obj 1014 871 lop~ 20;
#X obj 938 824 / 2;
#X obj 1021 842 / 2;
#X obj 427 949 outlet~;
#X obj 910 682 / 100;
#X obj 838 736 pow 2;
#X obj 838 758 * 30000;
#X obj 358 936 *~;
#X obj 430 928 *~;
#X connect 0 0 30 0;
#X connect 1 0 3 0;
#X connect 1 1 2 0;
#X connect 2 0 3 1;
#X connect 3 0 5 0;
#X connect 4 0 32 0;
#X connect 5 0 4 0;
#X connect 7 0 83 0;
#X connect 7 0 84 0;
#X connect 9 0 66 0;
#X connect 10 0 9 1;
#X connect 11 0 10 0;
#X connect 12 0 13 0;
#X connect 13 0 54 0;
#X connect 14 0 33 0;
#X connect 14 0 17 0;
#X connect 15 0 14 0;
#X connect 15 1 16 0;
#X connect 16 0 14 1;
#X connect 17 0 18 0;
#X connect 17 1 12 0;
#X connect 18 0 31 0;
#X connect 19 0 62 0;
#X connect 21 0 26 0;
#X connect 23 0 24 0;
#X connect 24 0 29 0;
#X connect 25 0 20 0;
#X connect 26 0 0 0;
#X connect 26 0 49 0;
#X connect 27 1 19 0;
#X connect 27 2 25 0;
#X connect 27 3 28 0;
#X connect 28 0 26 1;
#X connect 29 0 58 0;
#X connect 29 1 0 0;
#X connect 29 1 49 0;
#X connect 29 2 26 1;
#X connect 30 0 9 0;
#X connect 31 0 54 0;
#X connect 32 0 15 0;
#X connect 33 0 35 0;
#X connect 33 1 36 0;
#X connect 34 0 40 0;
#X connect 35 0 44 0;
#X connect 35 1 38 0;
#X connect 36 0 19 0;
#X connect 36 0 50 0;
#X connect 36 1 39 0;
#X connect 38 0 37 0;
#X connect 39 0 37 0;
#X connect 40 0 27 0;
#X connect 40 0 56 0;
#X connect 41 0 51 0;
#X connect 42 0 11 0;
#X connect 43 0 1 0;
#X connect 45 0 34 0;
#X connect 46 0 34 0;
#X connect 47 0 23 0;
#X connect 48 0 23 0;
#X connect 51 0 53 0;
#X connect 52 0 25 0;
#X connect 53 0 52 0;
#X connect 56 0 57 0;
#X connect 57 0 60 0;
#X connect 57 0 64 0;
#X connect 58 0 59 0;
#X connect 59 0 61 0;
#X connect 59 0 65 0;
#X connect 62 0 22 0;
#X connect 64 0 63 0;
#X connect 65 0 63 0;
#X connect 66 0 7 0;
#X connect 67 0 80 0;
#X connect 68 0 69 0;
#X connect 69 0 72 0;
#X connect 69 0 74 0;
#X connect 70 0 77 0;
#X connect 71 0 78 0;
#X connect 72 0 73 0;
#X connect 73 0 70 0;
#X connect 74 0 71 0;
#X connect 75 0 83 1;
#X connect 76 0 84 1;
#X connect 77 0 75 0;
#X connect 78 0 76 0;
#X connect 80 0 81 0;
#X connect 81 0 82 0;
#X connect 82 0 66 1;
#X connect 83 0 8 0;
#X connect 84 0 79 0;
