#N canvas -8 -8 1360 725 10;
#X obj 56 128 pack 0 0 0, f 11;
#X obj 56 154 route 1 2 3 4 5 6 7 8, f 81;
#X obj 56 180 voice \$1;
#X obj 126 181 voice \$1;
#X obj 197 182 voice \$1;
#X obj 265 186 voice \$1;
#X obj 319 196 voice \$1;
#X obj 388 196 voice \$1;
#X obj 79 27 inlet;
#X obj 61 95 poly 8 1, f 11;
#X obj 439 198 voice \$1;
#X obj 508 198 voice \$1;
#X obj 151 315 outlet;
#X connect 0 0 1 0;
#X connect 1 0 2 0;
#X connect 1 1 3 0;
#X connect 1 2 4 0;
#X connect 1 3 5 0;
#X connect 1 4 6 0;
#X connect 1 5 7 0;
#X connect 1 6 10 0;
#X connect 1 7 11 0;
#X connect 2 0 12 0;
#X connect 3 0 12 0;
#X connect 4 0 12 0;
#X connect 5 0 12 0;
#X connect 6 0 12 0;
#X connect 7 0 12 0;
#X connect 8 0 9 0;
#X connect 9 0 0 0;
#X connect 9 1 0 1;
#X connect 9 2 0 2;
#X connect 10 0 12 0;
#X connect 11 0 12 0;
