#N canvas 181 71 1360 725 10;
#X obj 53 261 pack 0 0 0, f 11;
#X obj 53 287 route 1 2 3 4 5 6 7 8, f 81;
#X obj 53 313 voice \$1;
#X obj 123 314 voice \$1;
#X obj 194 315 voice \$1;
#X obj 262 319 voice \$1;
#X obj 316 329 voice \$1;
#X obj 386 326 voice \$1;
#X obj 220 2 inlet;
#X obj 58 228 poly 8 1, f 11;
#X obj 437 328 voice \$1;
#X obj 506 328 voice \$1;
#X obj 148 448 outlet;
#X obj 684 144 pack 0 0 0, f 11;
#X obj 684 196 voice \$1;
#X obj 684 170 route 1, f 11;
#X obj 689 111 poly 1 1, f 11;
#X msg 215 35 \$2 \$1;
#X obj 212 59 route 0;
#X msg 155 92 \$1 0;
#X msg 249 101 \$2 \$1;
#X obj 155 166 spigot 1;
#X obj 461 186 spigot 0;
#X obj 538 57 r monopoly-\$1;
#X obj 545 145 == 0;
#X connect 0 0 1 0;
#X connect 1 0 2 0;
#X connect 1 1 3 0;
#X connect 1 2 4 0;
#X connect 1 3 5 0;
#X connect 1 4 6 0;
#X connect 1 5 7 0;
#X connect 1 6 10 0;
#X connect 1 7 11 0;
#X connect 2 0 12 0;
#X connect 3 0 12 0;
#X connect 4 0 12 0;
#X connect 5 0 12 0;
#X connect 6 0 12 0;
#X connect 7 0 12 0;
#X connect 8 0 17 0;
#X connect 9 0 0 0;
#X connect 9 1 0 1;
#X connect 9 2 0 2;
#X connect 10 0 12 0;
#X connect 11 0 12 0;
#X connect 13 0 15 0;
#X connect 14 0 12 0;
#X connect 15 0 14 0;
#X connect 16 0 13 0;
#X connect 16 1 13 1;
#X connect 16 2 13 2;
#X connect 17 0 18 0;
#X connect 18 0 19 0;
#X connect 18 1 20 0;
#X connect 19 0 9 0;
#X connect 19 0 16 0;
#X connect 20 0 21 0;
#X connect 20 0 22 0;
#X connect 21 0 9 0;
#X connect 22 0 16 0;
#X connect 23 0 21 1;
#X connect 23 0 24 0;
#X connect 24 0 22 1;
