#N canvas 0 50 826 588 10;
#X obj 272 28 inlet;
#X obj 292 411 outlet;
#X obj 254 134 unpack 0 0;
#X obj 279 349 pack 0 0;
#X obj 217 215 nbx 5 14 -1e+037 1e+037 0 0 empty empty empty 0 -8 0
10 -262144 -1 -1 0 256;
#X obj 322 184 nbx 5 14 -1e+037 1e+037 0 0 empty empty empty 0 -8 0
10 -262144 -1 -1 0 256;
#X text 461 61 determine repeate rate;
#X obj 259 60 t a a b;
#X obj 258 306 makenote 100 50;
#X obj 319 216 sel 0;
#X obj 239 248 spigot 0;
#X obj 289 213 > 0;
#X obj 380 242 - 1;
#X obj 209 177 metro 10000;
#X obj 143 104 unpack 0 0;
#X obj 183 128 sel 0;
#X obj 200 158 bng 15 250 50 0 empty empty empty 17 7 0 10 -262144
-1 -1;
#X obj 544 128 prob \$1 4;
#X obj 564 176 prob \$1 8;
#X obj 601 218 prob \$1 16;
#X obj 535 103 prob \$1 3;
#X obj 553 152 prob \$1 6;
#X obj 577 199 prob \$1 12;
#X obj 534 393 nbx 5 14 -1e+037 1e+037 0 0 empty empty empty 0 -8 0
10 -262144 -1 -1 0 256;
#X connect 0 0 7 0;
#X connect 2 0 4 0;
#X connect 2 1 5 0;
#X connect 3 0 1 0;
#X connect 4 0 10 0;
#X connect 5 0 9 0;
#X connect 5 0 11 0;
#X connect 7 0 14 0;
#X connect 7 1 2 0;
#X connect 7 2 22 0;
#X connect 7 2 21 0;
#X connect 7 2 20 0;
#X connect 7 2 19 0;
#X connect 7 2 18 0;
#X connect 7 2 17 0;
#X connect 8 0 3 0;
#X connect 8 1 3 1;
#X connect 9 1 8 1;
#X connect 10 0 8 0;
#X connect 11 0 10 1;
#X connect 12 0 8 2;
#X connect 13 0 4 0;
#X connect 14 1 15 0;
#X connect 15 1 16 0;
#X connect 16 0 13 0;
#X connect 17 0 23 0;
#X connect 18 0 23 0;
#X connect 19 0 23 0;
#X connect 20 0 23 0;
#X connect 21 0 23 0;
#X connect 22 0 23 0;
#X connect 23 0 12 0;
#X connect 23 0 13 1;
