#N canvas -8 -8 1360 725 10;
#X obj 267 0 inlet;
#X obj 237 544 outlet;
#X obj 254 134 unpack 0 0;
#X obj 279 349 pack 0 0;
#X obj 217 215 nbx 5 14 -1e+037 1e+037 0 0 empty empty empty 0 -8 0
10 -262144 -1 -1 0 256;
#X obj 322 184 nbx 5 14 -1e+037 1e+037 0 0 empty empty empty 0 -8 0
10 -262144 -1 -1 0 256;
#X text 461 61 determine repeate rate;
#X obj 247 83 t a a b;
#X obj 258 306 makenote 100 50;
#X obj 319 216 sel 0;
#X obj 236 243 spigot 0;
#X obj 289 213 > 0;
#X obj 209 177 metro 10000;
#X obj 143 104 unpack 0 0;
#X obj 183 128 sel 0;
#X obj 200 158 bng 15 250 50 0 empty empty empty 17 7 0 10 -262144
-1 -1;
#X obj 544 128 prob \$1 4;
#X obj 564 176 prob \$1 8;
#X obj 601 218 prob \$1 16;
#X obj 535 103 prob \$1 3;
#X obj 553 152 prob \$1 6;
#X obj 577 199 prob \$1 12;
#X obj 510 219 nbx 5 14 -1e+037 1e+037 0 0 empty empty empty 0 -8 0
10 -262144 -1 -1 0 256;
#X obj 509 453 * 0.5;
#X obj 602 451 r gate-\$1;
#X obj 598 492 / 100;
#X obj 473 256 f 0;
#X msg 458 149 0;
#X obj 121 339 spigot 0;
#X obj 419 251 bng 15 250 50 0 empty empty empty 17 7 0 10 -262144
-1 -1;
#X obj 257 270 spigot 0;
#X obj 308 251 > 0;
#X obj 449 336 == 0;
#X obj 92 445 poly 1 1;
#X obj 121 473 pack 0 0;
#X obj 264 34 t a a;
#X obj 333 33 stripnote;
#X obj 372 66 t b b;
#X obj 370 294 max 5;
#X obj 382 123 sel 0;
#X connect 0 0 35 0;
#X connect 2 0 4 0;
#X connect 2 1 5 0;
#X connect 3 0 1 0;
#X connect 4 0 10 0;
#X connect 5 0 9 0;
#X connect 5 0 11 0;
#X connect 7 0 13 0;
#X connect 7 0 28 0;
#X connect 7 1 2 0;
#X connect 7 2 29 0;
#X connect 8 0 3 0;
#X connect 8 1 3 1;
#X connect 9 1 8 1;
#X connect 10 0 30 0;
#X connect 11 0 10 1;
#X connect 12 0 4 0;
#X connect 13 1 14 0;
#X connect 14 1 15 0;
#X connect 15 0 12 0;
#X connect 16 0 22 0;
#X connect 17 0 22 0;
#X connect 18 0 22 0;
#X connect 19 0 22 0;
#X connect 20 0 22 0;
#X connect 21 0 22 0;
#X connect 22 0 23 0;
#X connect 22 0 26 1;
#X connect 23 0 38 0;
#X connect 24 0 25 0;
#X connect 25 0 23 1;
#X connect 26 0 32 0;
#X connect 26 0 39 0;
#X connect 27 0 26 1;
#X connect 28 0 33 0;
#X connect 29 0 26 0;
#X connect 30 0 8 0;
#X connect 31 0 30 1;
#X connect 32 0 28 1;
#X connect 33 1 34 0;
#X connect 33 2 34 1;
#X connect 34 0 1 0;
#X connect 35 0 7 0;
#X connect 35 1 36 0;
#X connect 36 0 37 0;
#X connect 37 0 19 0;
#X connect 37 1 27 0;
#X connect 38 0 8 2;
#X connect 39 1 12 1;
