#N canvas 5 73 1364 725 10;
#X obj 141 490 bp~ 440 2000;
#X obj 193 268 vline~;
#X obj 446 496 bp~ 440 2000;
#X obj 250 492 bp~ 440 2000;
#X obj 330 487 bp~ 440 2000;
#X floatatom 421 273 5 0 0 0 - - -;
#X msg 386 44 500;
#X msg 483 49 5000;
#X msg 276 309 220;
#X msg 4 22 10 0 \, 0 0 1;
#X msg 18 76 10 0.5 \, 0 0.5 1;
#X msg 165 18 45 127;
#X obj 229 81 unpack 0 0;
#X obj 189 109 nbx 5 14 -1e+37 1e+37 0 0 empty empty empty 0 -8 0 10
-262144 -1 -1 67 256;
#X obj 287 119 nbx 5 14 -1e+37 1e+37 0 0 empty empty empty 0 -8 0 10
-262144 -1 -1 0 256;
#X obj 198 152 spigot 0;
#X obj 250 193 f 0;
#X obj 302 273 mtof;
#X obj 349 282 f 0;
#X obj 197 458 * 1;
#X obj 649 131 - 127;
#X obj 644 153 abs;
#X obj 646 188 / 64;
#X msg 639 278 10 \$1 \, 0 \$1 1;
#X obj 646 225 list;
#X obj 222 176 bng 15 250 50 0 empty empty empty 17 7 0 10 -262144
-1 -1;
#X msg 531 52 3000;
#X msg 226 9 40 80;
#X msg 361 4 35 110;
#X msg 322 22 57 70;
#X obj 286 457 * 2.01;
#X obj 356 446 * 8.03;
#X obj 447 448 * 16.08;
#X msg 310 55 57 127;
#X obj 377 107 noise~;
#X obj 140 412 +~;
#X obj 273 555 *~ 4;
#X msg 432 49 1500;
#X msg 389 16 25 110;
#X msg 599 80 0;
#X obj 385 184 bng 15 250 50 0 empty empty empty 17 7 0 10 -262144
-1 -1;
#X obj 345 161 sel 0;
#X msg 13 185 10 1 \, 0 1 1;
#X obj 196 43 inlet;
#X obj 280 645 outlet~;
#X obj 883 186 r ms_q-\$1;
#X obj 206 127 + 0;
#X obj 670 349 r ms_trans-\$1;
#X obj 229 418 r ms_m1-\$1;
#X obj 313 411 r ms_m2-\$1;
#X obj 394 408 r ms_m3-\$1;
#X obj 486 413 r ms_m4-\$1;
#X msg 87 453 clear;
#X msg 42 385 sel 0;
#X obj 179 213 sel 0;
#X obj 165 349 *~ 1;
#X obj 491 327 r exciter-\$1;
#X obj 35 282 r~ excitesignal-\$1;
#X obj 682 523 vline~;
#X obj 273 577 *~;
#X msg 672 478 0 10 \, 1 10 10;
#X obj 161 373 *~;
#X obj 726 147 env/env_parabolic \$1;
#X obj 235 58 nbx 5 14 -1e+37 1e+37 0 0 empty empty empty 0 -8 0 10
-262144 -1 -1 0 256;
#X msg 286 15 45 0;
#X connect 0 0 36 0;
#X connect 2 0 36 0;
#X connect 3 0 36 0;
#X connect 4 0 36 0;
#X connect 5 0 2 2;
#X connect 5 0 4 2;
#X connect 5 0 3 2;
#X connect 5 0 0 2;
#X connect 6 0 5 0;
#X connect 7 0 5 0;
#X connect 8 0 19 0;
#X connect 8 0 30 0;
#X connect 8 0 31 0;
#X connect 8 0 32 0;
#X connect 9 0 1 0;
#X connect 10 0 1 0;
#X connect 11 0 12 0;
#X connect 12 0 13 0;
#X connect 12 1 14 0;
#X connect 12 1 62 0;
#X connect 13 0 46 0;
#X connect 14 0 15 1;
#X connect 14 0 16 1;
#X connect 14 0 54 0;
#X connect 15 0 17 0;
#X connect 15 0 25 0;
#X connect 16 0 20 0;
#X connect 17 0 18 0;
#X connect 18 0 30 0;
#X connect 18 0 31 0;
#X connect 18 0 32 0;
#X connect 18 0 19 0;
#X connect 19 0 0 1;
#X connect 20 0 21 0;
#X connect 21 0 22 0;
#X connect 22 0 24 0;
#X connect 23 0 1 0;
#X connect 24 0 23 0;
#X connect 25 0 16 0;
#X connect 26 0 5 0;
#X connect 27 0 12 0;
#X connect 28 0 12 0;
#X connect 29 0 12 0;
#X connect 30 0 3 1;
#X connect 31 0 4 1;
#X connect 32 0 2 1;
#X connect 33 0 12 0;
#X connect 35 0 0 0;
#X connect 35 0 3 0;
#X connect 35 0 4 0;
#X connect 35 0 2 0;
#X connect 36 0 59 0;
#X connect 37 0 5 0;
#X connect 38 0 12 0;
#X connect 39 0 5 0;
#X connect 42 0 1 0;
#X connect 43 0 12 0;
#X connect 45 0 5 0;
#X connect 46 0 15 0;
#X connect 47 0 46 1;
#X connect 48 0 19 1;
#X connect 49 0 30 1;
#X connect 50 0 31 1;
#X connect 51 0 32 1;
#X connect 52 0 0 0;
#X connect 52 0 3 0;
#X connect 52 0 4 0;
#X connect 52 0 2 0;
#X connect 54 1 52 0;
#X connect 54 1 60 0;
#X connect 55 0 61 0;
#X connect 56 0 55 1;
#X connect 57 0 61 1;
#X connect 58 0 59 1;
#X connect 59 0 44 0;
#X connect 60 0 58 0;
#X connect 61 0 35 0;
#X connect 62 0 55 0;
#X connect 64 0 12 0;
