#N canvas -8 -8 1366 725 10;
#X obj 25 186 inlet~ inL-\$1;
#X obj 135 186 inlet~ inR-\$1;
#X obj 20 582 outlet~ outL-\$1;
#X obj 117 594 outlet~ outR-\$1;
#X obj 410 380 plts~;
#X obj 314 501 s notesOut-\$1;
#X obj 293 22 r notesIn-\$1;
#X msg 457 251 model \$1;
#X obj 466 147 r model-\$1;
#X msg 520 240 harmonics \$1;
#X msg 525 279 timbre \$1;
#X msg 603 262 morph \$1;
#X msg 623 283 lpg_colour \$1;
#X msg 711 404 decay \$1;
#X msg 791 241 mod_fm \$1;
#X msg 814 264 mod_morph \$1;
#X msg 767 218 mod_timbre \$1;
#X obj 510 477 s aux-label-\$1;
#X obj 353 150 > 0;
#X msg 350 179 trigger \$1;
#X obj 543 89 r harmonics-\$1;
#X obj 589 133 r timbre-\$1;
#X obj 635 175 r morph-\$1;
#X obj 653 190 r lpg_colour-\$1;
#X obj 741 333 r decay-\$1;
#X obj 763 122 r mod_timbre-\$1;
#X obj 822 145 r mod_fm-\$1;
#X obj 865 186 r mod_morph-\$1;
#X obj 939 391 vsl 15 128 0 1 0 0 empty empty har 0 -9 0 10 -262144
-1 -1 0 1;
#X obj 962 391 vsl 15 128 0 1 0 0 empty empty tim 0 -9 0 10 -262144
-1 -1 0 1;
#X obj 984 391 vsl 15 128 0 1 0 0 empty empty mor 0 -9 0 10 -262144
-1 -1 0 1;
#X obj 1007 391 vsl 15 128 0 1 0 0 empty empty lpg 0 -9 0 10 -262144
-1 -1 0 1;
#X obj 1030 391 vsl 15 128 0 1 0 0 empty empty dec 0 -9 0 10 -262144
-1 -1 0 1;
#X obj 1150 391 vsl 15 128 -1 1 0 0 empty empty mti 0 -9 0 10 -262144
-1 -1 0 1;
#X obj 1174 391 vsl 15 128 -1 1 0 0 empty empty fm 0 -9 0 10 -262144
-1 -1 0 1;
#X obj 1197 391 vsl 15 128 -1 1 0 0 empty empty mmo 0 -9 0 10 -262144
-1 -1 0 1;
#X msg 338 296 pitch \$1;
#X obj 278 192 + 0;
#X obj 430 62 r semitone-\$1;
#X obj 336 228 - 60;
#X obj 351 261 / 12;
#X obj 242 104 notein_mono;
#X obj 321 68 poly 1 1;
#X obj 196 263 r trigger_active-\$1;
#X obj 368 426;
#X msg 224 347 trigger_active \$1;
#X obj 129 307 r aux-\$1;
#X obj 147 371 == 0;
#X obj 61 542 *~ 0.5;
#X obj 208 538 *~ 0.5;
#X obj 157 461 *~ 1;
#X obj 187 470 *~ 0;
#X obj 422 122 t b f;
#X obj 525 200 / 100;
#X obj 575 177 / 100;
#X obj 613 196 / 100;
#X obj 638 226 / 100;
#X obj 730 362 / 100;
#X obj 322 114 + 1.46;
#X text 289 134 48 khz;
#X connect 4 0 50 0;
#X connect 4 1 51 0;
#X connect 4 2 17 0;
#X connect 6 0 41 0;
#X connect 6 0 42 0;
#X connect 7 0 4 0;
#X connect 8 0 7 0;
#X connect 9 0 4 0;
#X connect 10 0 4 0;
#X connect 11 0 4 0;
#X connect 12 0 4 0;
#X connect 13 0 4 0;
#X connect 14 0 4 0;
#X connect 15 0 4 0;
#X connect 16 0 4 0;
#X connect 18 0 19 0;
#X connect 19 0 4 0;
#X connect 20 0 53 0;
#X connect 21 0 54 0;
#X connect 22 0 55 0;
#X connect 23 0 56 0;
#X connect 24 0 57 0;
#X connect 25 0 16 0;
#X connect 26 0 14 0;
#X connect 27 0 15 0;
#X connect 36 0 4 0;
#X connect 37 0 39 0;
#X connect 38 0 52 0;
#X connect 39 0 40 0;
#X connect 40 0 36 0;
#X connect 42 1 58 0;
#X connect 42 2 18 0;
#X connect 43 0 45 0;
#X connect 45 0 4 0;
#X connect 46 0 47 0;
#X connect 46 0 51 1;
#X connect 47 0 50 1;
#X connect 48 0 2 0;
#X connect 49 0 3 0;
#X connect 50 0 48 0;
#X connect 50 0 49 0;
#X connect 51 0 48 0;
#X connect 51 0 49 0;
#X connect 52 0 37 0;
#X connect 52 1 37 1;
#X connect 53 0 9 0;
#X connect 54 0 10 0;
#X connect 55 0 11 0;
#X connect 56 0 12 0;
#X connect 57 0 13 0;
#X connect 58 0 37 0;
