#N canvas -8 -8 1366 725 10;
#X obj 25 186 inlet~ inL-\$1;
#X obj 135 186 inlet~ inR-\$1;
#X obj 27 491 outlet~ outL-\$1;
#X obj 136 491 outlet~ outR-\$1;
#X obj 54 459 *~ 0.7;
#X obj 227 435 *~ 0.7;
#X obj 410 380 plts~;
#X msg 222 347 trigger_active 1;
#X obj 241 261 r loadbang-\$1;
#X obj 314 501 s notesOut-\$1;
#X obj 305 66 r notesIn-\$1;
#X msg 457 251 model \$1;
#X obj 466 147 r model-\$1;
#X msg 556 219 harmonics \$1;
#X msg 579 240 timbre \$1;
#X msg 603 262 morph \$1;
#X msg 623 283 lpg_colour \$1;
#X msg 647 304 decay \$1;
#X msg 791 241 mod_fm \$1;
#X msg 814 264 mod_morph \$1;
#X msg 767 218 mod_timbre \$1;
#X obj 510 477 s aux-label-\$1;
#X obj 312 113 unpack 0 0 0;
#X obj 353 150 > 0;
#X msg 350 179 trigger \$1;
#X obj 570 136 r harmonics-\$1;
#X obj 580 156 r timbre-\$1;
#X obj 635 175 r morph-\$1;
#X obj 653 190 r lpg_colour-\$1;
#X obj 666 207 r decay-\$1;
#X obj 763 122 r mod_timbre-\$1;
#X obj 822 145 r mod_fm-\$1;
#X obj 865 186 r mod_morph-\$1;
#X obj 939 391 vsl 15 128 0 1 0 0 empty empty har 0 -9 0 10 -262144
-1 -1 0 1;
#X obj 962 391 vsl 15 128 0 1 0 0 empty empty tim 0 -9 0 10 -262144
-1 -1 0 1;
#X obj 984 391 vsl 15 128 0 1 0 0 empty empty mor 0 -9 0 10 -262144
-1 -1 0 1;
#X obj 1007 391 vsl 15 128 0 1 0 0 empty empty lpg 0 -9 0 10 -262144
-1 -1 0 1;
#X obj 1030 391 vsl 15 128 0 1 0 0 empty empty dec 0 -9 0 10 -262144
-1 -1 0 1;
#X obj 1150 391 vsl 15 128 -1 1 0 0 empty empty mti 0 -9 0 10 -262144
-1 -1 0 1;
#X obj 1174 391 vsl 15 128 -1 1 0 0 empty empty fm 0 -9 0 10 -262144
-1 -1 0 1;
#X obj 1197 391 vsl 15 128 -1 1 0 0 empty empty mmo 0 -9 0 10 -262144
-1 -1 0 1;
#X msg 338 296 pitch \$1;
#X obj 339 273 * 4;
#X obj 336 228 - 63;
#X obj 336 249 / 63;
#X obj 311 190 + 0;
#X obj 430 62 r semitone-\$1;
#X connect 4 0 2 0;
#X connect 5 0 3 0;
#X connect 6 0 4 0;
#X connect 6 1 5 0;
#X connect 6 2 21 0;
#X connect 7 0 6 0;
#X connect 8 0 7 0;
#X connect 10 0 22 0;
#X connect 11 0 6 0;
#X connect 12 0 11 0;
#X connect 13 0 6 0;
#X connect 14 0 6 0;
#X connect 15 0 6 0;
#X connect 16 0 6 0;
#X connect 17 0 6 0;
#X connect 18 0 6 0;
#X connect 19 0 6 0;
#X connect 20 0 6 0;
#X connect 22 0 45 0;
#X connect 22 1 23 0;
#X connect 23 0 24 0;
#X connect 24 0 6 0;
#X connect 25 0 13 0;
#X connect 26 0 14 0;
#X connect 27 0 15 0;
#X connect 28 0 16 0;
#X connect 29 0 17 0;
#X connect 30 0 20 0;
#X connect 31 0 18 0;
#X connect 32 0 19 0;
#X connect 41 0 6 0;
#X connect 42 0 41 0;
#X connect 43 0 44 0;
#X connect 44 0 42 0;
#X connect 45 0 43 0;
#X connect 46 0 45 1;
