#N canvas 336 98 1440 720 10;
#X obj 140 30 t b b;
#X obj 249 178 + 1;
#X obj 236 139 f 0;
#X obj 166 133 t a b;
#X msg 276 116 0;
#X obj 249 201 nbx 5 14 -1e+37 1e+37 0 0 empty empty empty 0 -8 0 10
-262144 -1 -1 4 256;
#X obj 249 6 bng 15 250 50 0 empty empty empty 17 7 0 10 -262144 -1
-1;
#X obj 133 176 list append;
#X obj 152 217 list;
#X obj 96 210 bng 15 250 50 0 empty empty empty 17 7 0 10 -262144 -1
-1;
#X obj 104 241 list;
#X obj 49 192 * 1;
#X obj 42 153 inlet;
#X obj 45 237 int;
#X obj 52 268 change;
#X obj 81 284 t b f;
#X obj 185 291 list split 1;
#X obj 174 261 list split 0;
#X obj -4 35 vsl 15 64 0 1 0 0 empty empty empty 0 -9 0 10 -262144
-1 -1 4200 1;
#X msg 155 313 \$1;
#X obj 182 337 outlet;
#X obj 299 327 s2l /;
#X obj 352 374 list length;
#X obj 311 357 t a a;
#X obj 374 406 - 1;
#X obj 324 438 list split;
#X msg 358 467 \$1;
#X obj 347 493 outlet;
#X obj 149 114 folder_list;
#X obj 117 57 os_switch;
#X msg 121 75 symbol /tmp/media/samples/*.wav;
#X obj 394 26 r soundshare_refresh;
#X obj 394 207 - 0.05;
#X obj 342 12 inlet;
#X msg 398 77 symbol ~/Documents/samples/*.WAV;
#X msg 459 109 symbol ~/Documents/samples/*.wav;
#X msg 90 120 symbol /tmp/media/samples/*.WAV;
#X connect 0 0 29 0;
#X connect 0 1 4 0;
#X connect 1 0 2 1;
#X connect 1 0 5 0;
#X connect 2 0 1 0;
#X connect 3 0 7 0;
#X connect 3 1 2 0;
#X connect 4 0 2 1;
#X connect 5 0 32 0;
#X connect 6 0 0 0;
#X connect 7 0 8 0;
#X connect 8 0 7 1;
#X connect 8 0 10 1;
#X connect 9 0 10 0;
#X connect 10 0 17 0;
#X connect 11 0 13 0;
#X connect 12 0 11 0;
#X connect 13 0 14 0;
#X connect 14 0 15 0;
#X connect 15 0 10 0;
#X connect 15 1 17 1;
#X connect 16 0 19 0;
#X connect 16 0 21 0;
#X connect 17 1 16 0;
#X connect 18 0 11 0;
#X connect 19 0 20 0;
#X connect 21 0 23 0;
#X connect 22 0 24 0;
#X connect 23 0 25 0;
#X connect 23 1 22 0;
#X connect 24 0 25 1;
#X connect 25 1 26 0;
#X connect 26 0 27 0;
#X connect 28 0 3 0;
#X connect 29 0 30 0;
#X connect 29 1 34 0;
#X connect 29 1 35 0;
#X connect 30 0 28 0;
#X connect 30 0 36 0;
#X connect 31 0 0 0;
#X connect 32 0 11 1;
#X connect 33 0 6 0;
#X connect 34 0 28 0;
#X connect 35 0 28 0;
#X connect 36 0 28 0;
