#N canvas 4 50 1358 682 10;
#X declare -path cg-pd-library-local/sampling;
#X declare -path cg-pd-library-local/sequencer;
#X declare -path cg-pd-library-local/externals;
#X declare -path cg-pd-library-local/metronome;
#X obj 304 186 r notesIn-\$1;
#X obj 304 491 s notesOut-\$1;
#X obj 25 186 inlet~ inL-\$1;
#X obj 135 186 inlet~ inR-\$1;
#X obj 27 491 outlet~ outL-\$1;
#X obj 136 491 outlet~ outR-\$1;
#X obj 505 188 r auxIn-\$1;
#X obj 504 211 r expIn-\$1;
#X obj 503 238 r fsIn-\$1;
#X obj 405 186 r ctrlIn-\$1;
#X obj 405 491 s ctrlOut-\$1;
#N canvas 565 281 651 451 wavetable-bank 0;
#X obj 180 57 t b;
#X obj 180 99 t a b, f 9;
#X obj 180 120 until;
#X obj 180 161 f;
#X obj 230 162 + 1;
#X msg 231 121 1;
#X text 309 62 load the 19 different waveforms;
#X msg 85 262 vis \$1 1;
#X floatatom 79 220 5 0 0 0 - - -;
#X msg 181 78 4;
#X obj 206 205 sel 1 2 3 4, f 22;
#X msg 206 226 1;
#X msg 236 226 17;
#X msg 267 226 20;
#X msg 306 226 22;
#X obj 180 182 t f f;
#X obj 180 253 pack 0 0;
#X obj 180 338 clone -s 1 4 cg-waveform-load wave\$1;
#X obj 180 36 r load-the-wavetables-\$1;
#X msg 180 301 \$1 ../../waveforms/wave\$2.wav;
#X connect 0 0 9 0;
#X connect 1 0 2 0;
#X connect 1 1 5 0;
#X connect 2 0 3 0;
#X connect 3 0 4 0;
#X connect 3 0 15 0;
#X connect 4 0 3 1;
#X connect 5 0 3 1;
#X connect 7 0 17 0;
#X connect 8 0 7 0;
#X connect 9 0 1 0;
#X connect 10 0 11 0;
#X connect 10 1 12 0;
#X connect 10 2 13 0;
#X connect 10 3 14 0;
#X connect 11 0 16 1;
#X connect 12 0 16 1;
#X connect 13 0 16 1;
#X connect 14 0 16 1;
#X connect 15 0 16 0;
#X connect 15 1 10 0;
#X connect 16 0 19 0;
#X connect 18 0 0 0;
#X connect 19 0 17 0;
#X restore 590 234 pd wavetable-bank;
#N canvas 13 50 450 300 cg-pd-library-local 0;
#X obj 502 35 r cgSc-1-slots;
#X obj 60 68 declare -path cg-pd-library-local/sampling;
#X obj 60 98 declare -path cg-pd-library-local/sequencer;
#X obj 58 130 declare -path cg-pd-library-local/externals;
#X obj 59 165 declare -path cg-pd-library-local/metronome;
#X restore 589 209 pd cg-pd-library-local;
#X obj 135 368 - 1;
#X obj 135 389 pack 0 0 0;
#N canvas 463 152 1197 752 knobs 0;
#X obj 214 174 4-wave-global-knob 1 \$1;
#X obj 216 196 4-wave-global-knob 2 \$1;
#X obj 212 217 4-wave-global-knob 3 \$1;
#X obj 215 240 4-wave-global-knob 4 \$1;
#X obj 206 111 r fw_k1-\$1;
#X obj 174 135 r fw_k2-\$1;
#X obj 140 167 r fw_k3-\$1;
#X obj 136 218 r fw_k4-\$1;
#X connect 4 0 0 0;
#X connect 5 0 1 0;
#X connect 6 0 2 0;
#X connect 7 0 3 0;
#X restore 593 294 pd knobs;
#N canvas 9 50 445 300 loadbang 1;
#X msg 81 120 512;
#X obj 112 91 s load-the-wavetables-\$1;
#X obj 72 169 s load-params-\$1;
#X obj 57 200 s load-draw-wave-\$1;
#X obj 205 64 s mute-print-\$1;
#X msg 207 35 0;
#X obj 48 61 t b b b b b;
#X obj 84 145 v array\$1-1-lengthSamp;
#X obj 48 40 r loadbang-\$1;
#X connect 0 0 7 0;
#X connect 5 0 4 0;
#X connect 6 0 3 0;
#X connect 6 1 2 0;
#X connect 6 2 0 0;
#X connect 6 3 1 0;
#X connect 6 4 5 0;
#X connect 8 0 6 0;
#X restore 598 261 pd loadbang;
#X obj 135 347 poly 4 1, f 10;
#X obj 135 415 clone 4 4-wave-voice \$1;
#X connect 0 0 1 0;
#X connect 0 0 17 0;
#X connect 13 0 14 0;
#X connect 14 0 18 0;
#X connect 17 0 13 0;
#X connect 17 1 14 1;
#X connect 17 2 14 2;
#X connect 18 0 4 0;
#X connect 18 0 5 0;
