#N canvas 14 205 1360 725 10;
#X obj 122 40 inlet;
#X obj 225 371 outlet;
#X obj 150 240 tabread notearray-\$1;
#X obj 304 245 tabread velarray-\$1;
#X obj 132 101 * 8;
#X obj 127 128 + \$2;
#X obj 461 138 inlet;
#X obj 164 166 t f f;
#X obj 237 328 pack 0 0;
#X obj 469 201 t b b;
#X msg 544 273 0;
#X obj 391 278 f 0;
#X obj 570 97 inlet;
#X obj 578 159 > \$2;
#X obj 174 266 sel 0, f 7;
#X connect 0 0 4 0;
#X connect 2 0 14 0;
#X connect 3 0 8 1;
#X connect 4 0 5 0;
#X connect 5 0 7 0;
#X connect 6 0 9 0;
#X connect 7 0 2 0;
#X connect 7 1 3 0;
#X connect 8 0 1 0;
#X connect 9 0 11 0;
#X connect 9 1 10 0;
#X connect 10 0 8 1;
#X connect 11 0 8 0;
#X connect 12 0 13 0;
#X connect 14 1 8 0;
#X connect 14 1 11 1;
