#N canvas 1208 639 324 144 10;
#X obj 16 26 r notesIn-\$1;
#X obj 16 108 s notesOut-\$1;
#X obj 16 62 polystep \$1;
#X msg 16 80 \$1 \$2 0;
#N canvas 536 261 1323 754 graphics 0;
#X obj 616 238 s rackMsgs;
#X obj 616 118 spigot;
#X obj 616 92 / 1023;
#X obj 616 154 symbol \$1;
#X obj 616 182 pack s 2;
#X obj 616 26 i;
#X obj 616 74 change -1;
#X obj 991 61 spigot;
#X obj 1012 348 moses 10;
#X obj 1057 366 moses 20;
#X msg 1066 535 /oled/gPrintln 3 57 18 32 1 \$1 \;;
#X msg 1086 479 /oled/gPrintln 3 49 18 32 1 \$1 \;;
#X msg 1106 423 /oled/gPrintln 3 47 18 32 1 \$1 \;;
#X msg 1116 395 /oled/gPrintln 3 45 18 32 1 \$1 \;;
#X msg 1076 507 /oled/gPrintln 3 55 18 32 1 \$1 \;;
#X msg 1096 451 /oled/gPrintln 3 47 18 32 1 \$1 \;;
#X msg 907 152 0;
#X obj 907 134 delay 10;
#X obj 616 136 t b f f, f 29;
#X obj 787 154 * -1;
#X msg 766 700 /oled/gFilledCircle 3 2 \$1 2 2 1;
#X obj 787 173 + 1;
#X obj 787 212 + 2;
#X obj 787 192 * 59;
#X obj 8 118 spigot;
#X obj 8 62 / 1023;
#X obj 8 154 symbol \$1;
#X obj 8 182 pack s 2;
#X obj 8 26 i;
#X obj 8 44 change -1;
#X obj 8 136 t b f f, f 29;
#X obj 991 97 sig~;
#X obj 991 193 snapshot~;
#X obj 907 51 sel 1 0;
#X msg 822 127 stop;
#X obj 249 714 s oscOutRaw;
#X msg 1120 231 /oled/gClear 3 1;
#X msg 249 538 /oled/gFlip 3 1;
#X obj 1014 23 r \$0-len;
#X obj 188 108 spigot;
#X obj 188 62 / 1023;
#X obj 188 144 symbol \$1;
#X obj 188 172 pack s 2;
#X obj 188 26 i;
#X obj 188 44 change -1;
#X obj 188 126 t b f f, f 29;
#X obj 16 589 f;
#X obj 817 79 delay 11;
#X obj 383 98 spigot;
#X obj 383 62 / 1023;
#X obj 383 134 symbol \$1;
#X obj 383 162 pack s 2;
#X obj 383 26 i;
#X obj 383 44 change -1;
#X obj 383 116 t b f f, f 31;
#X obj 383 8 r oknob2Raw;
#X obj 616 8 r oknob1Raw;
#X obj 567 152 + 8;
#X obj 567 134 * 115;
#X msg 616 200 setparam \$1 ps_velo \$2;
#X msg 383 180 setparam \$1 ps_length \$2;
#X msg 8 200 setparam \$1 ps_div \$2;
#X obj 31 538 r ps_div-\$1;
#X msg 552 380 /oled/gFilledCircle 3 \$1 61 2 2 1;
#X obj 38 328 r ps_rev-\$1;
#X obj 5 400 spigot;
#X obj 43 346 - 1;
#X obj 46 367 tgl 15 0 empty empty empty 17 7 0 10 -262144 -1 -1 -1
1;
#X obj 276 416 spigot;
#X obj 437 520 spigot;
#X obj 470 502 r ps_rand-\$1;
#X obj 766 664 max 2;
#X obj 766 682 min 61;
#X obj 766 646 i 61;
#X obj 552 344 max 8;
#X obj 552 362 min 123;
#X obj 552 326 i 8;
#X msg 188 190 setparam \$1 ps_transpose \$2;
#X obj 8 8 r oknob4Raw;
#X msg 16 617 /oled/gPrintln 3 104 11 8 1 \$1x \;;
#X msg 6 641 /oled/gPrintln 3 105 11 8 1 \$1x \;;
#X obj 347 168 + 8;
#X obj 347 150 * 115;
#X obj 332 304 max 8;
#X obj 332 322 min 123;
#X obj 332 286 i 8;
#X obj 188 8 r oknob3Raw;
#X obj 991 213 t b f b b b b b b b, f 22;
#X msg 437 592 /oled/gPrintln 3 114 3 40 1 ? \;;
#X msg 458 571 /oled/gPrintln 3 112 40 16 1 ? \;;
#X msg 266 437 /oled/gPrintln 3 120 22 16 1 > \;;
#X msg 256 461 /oled/gPrintln 3 116 14 16 1 _ \;;
#X msg 235 482 /oled/gPrintln 3 116 15 16 1 _ \;;
#X msg 36 427 /oled/gPrintln 3 104 22 16 1 < \;;
#X msg 26 451 /oled/gPrintln 3 107 14 16 1 _ \;;
#X msg 5 472 /oled/gPrintln 3 107 15 16 1 _ \;;
#X obj 817 145 metro 60;
#X obj 865 16 r cycles-active-\$1;
#X obj 991 5 r cycles-count-\$1;
#X msg 332 340 /oled/gFilledCircle 3 \$1 2 2 2 1;
#X connect 1 0 18 0;
#X connect 2 0 1 0;
#X connect 3 0 4 0;
#X connect 4 0 59 0;
#X connect 5 0 6 0;
#X connect 6 0 2 0;
#X connect 7 0 31 0;
#X connect 8 0 10 0;
#X connect 8 0 14 0;
#X connect 8 1 9 0;
#X connect 9 0 11 0;
#X connect 9 0 15 0;
#X connect 9 1 12 0;
#X connect 9 1 13 0;
#X connect 10 0 35 0;
#X connect 11 0 35 0;
#X connect 12 0 35 0;
#X connect 13 0 35 0;
#X connect 14 0 35 0;
#X connect 15 0 35 0;
#X connect 16 0 10 0;
#X connect 16 0 14 0;
#X connect 17 0 16 0;
#X connect 18 0 3 0;
#X connect 18 1 4 1;
#X connect 18 2 19 0;
#X connect 19 0 21 0;
#X connect 20 0 35 0;
#X connect 21 0 23 0;
#X connect 22 0 73 1;
#X connect 23 0 22 0;
#X connect 24 0 30 0;
#X connect 25 0 24 0;
#X connect 26 0 27 0;
#X connect 27 0 61 0;
#X connect 28 0 29 0;
#X connect 29 0 25 0;
#X connect 30 0 26 0;
#X connect 30 1 27 1;
#X connect 31 0 32 0;
#X connect 32 0 87 0;
#X connect 33 0 17 0;
#X connect 33 0 47 0;
#X connect 33 1 34 0;
#X connect 34 0 96 0;
#X connect 36 0 35 0;
#X connect 37 0 35 0;
#X connect 38 0 7 0;
#X connect 39 0 45 0;
#X connect 40 0 39 0;
#X connect 41 0 42 0;
#X connect 42 0 77 0;
#X connect 43 0 44 0;
#X connect 44 0 40 0;
#X connect 45 0 41 0;
#X connect 45 1 42 1;
#X connect 45 2 82 0;
#X connect 46 0 79 0;
#X connect 46 0 80 0;
#X connect 47 0 96 0;
#X connect 48 0 54 0;
#X connect 49 0 48 0;
#X connect 50 0 51 0;
#X connect 51 0 60 0;
#X connect 52 0 53 0;
#X connect 53 0 49 0;
#X connect 54 0 50 0;
#X connect 54 1 51 1;
#X connect 54 2 58 0;
#X connect 55 0 52 0;
#X connect 56 0 5 0;
#X connect 57 0 76 1;
#X connect 58 0 57 0;
#X connect 59 0 0 0;
#X connect 60 0 0 0;
#X connect 61 0 0 0;
#X connect 62 0 46 1;
#X connect 63 0 35 0;
#X connect 64 0 65 1;
#X connect 64 0 66 0;
#X connect 65 0 95 0;
#X connect 65 0 94 0;
#X connect 65 0 93 0;
#X connect 66 0 67 0;
#X connect 67 0 68 1;
#X connect 68 0 92 0;
#X connect 68 0 91 0;
#X connect 68 0 90 0;
#X connect 69 0 88 0;
#X connect 69 0 89 0;
#X connect 70 0 69 1;
#X connect 71 0 72 0;
#X connect 72 0 20 0;
#X connect 73 0 71 0;
#X connect 74 0 75 0;
#X connect 75 0 63 0;
#X connect 76 0 74 0;
#X connect 77 0 0 0;
#X connect 78 0 28 0;
#X connect 79 0 35 0;
#X connect 80 0 35 0;
#X connect 81 0 85 1;
#X connect 82 0 81 0;
#X connect 83 0 84 0;
#X connect 84 0 99 0;
#X connect 85 0 83 0;
#X connect 86 0 43 0;
#X connect 87 0 37 0;
#X connect 87 1 8 0;
#X connect 87 2 65 0;
#X connect 87 2 68 0;
#X connect 87 3 73 0;
#X connect 87 4 46 0;
#X connect 87 5 76 0;
#X connect 87 6 69 0;
#X connect 87 7 85 0;
#X connect 87 8 36 0;
#X connect 88 0 35 0;
#X connect 89 0 35 0;
#X connect 90 0 35 0;
#X connect 91 0 35 0;
#X connect 92 0 35 0;
#X connect 93 0 35 0;
#X connect 94 0 35 0;
#X connect 95 0 35 0;
#X connect 96 0 32 0;
#X connect 97 0 7 1;
#X connect 97 0 24 1;
#X connect 97 0 1 1;
#X connect 97 0 33 0;
#X connect 97 0 39 1;
#X connect 97 0 48 1;
#X connect 98 0 7 0;
#X connect 99 0 35 0;
#X restore 216 44 pd graphics;
#N canvas 4 320 296 309 activePage 0;
#X obj 71 232 s oscOut;
#X obj 22 43 sel \$1;
#X obj 22 25 unpack s s;
#X obj 22 7 r activePage;
#X obj 55 89 &&;
#X msg 79 61 1;
#X msg 154 61 0;
#X obj 55 107 sel 1 0;
#X msg 22 61 1;
#X msg 55 61 0;
#X obj 15 251 tgl 15 0 empty empty empty 17 7 0 10 -262144 -1 -1 1
1;
#X msg 15 163 1;
#X msg 74 175 0;
#X msg 135 173 /oled/gShowInfoBar 3 0;
#X msg 135 135 /oled/gShowInfoBar 3 1;
#X obj 135 201 bng 15 250 50 0 empty empty empty 17 7 0 10 -262144
-1 -1;
#X msg 135 218 /oled/gClear 3 1;
#X obj 15 135 delay 500;
#X obj 79 43 sel pg_cycles;
#X obj 15 268 s cycles-active-\$1;
#X connect 1 0 8 0;
#X connect 1 1 9 0;
#X connect 2 0 1 0;
#X connect 2 1 18 0;
#X connect 3 0 2 0;
#X connect 4 0 7 0;
#X connect 5 0 4 1;
#X connect 6 0 4 1;
#X connect 7 0 17 0;
#X connect 7 1 12 0;
#X connect 7 1 14 0;
#X connect 8 0 4 0;
#X connect 9 0 4 0;
#X connect 10 0 19 0;
#X connect 11 0 10 0;
#X connect 12 0 10 0;
#X connect 13 0 0 0;
#X connect 13 0 15 0;
#X connect 14 0 0 0;
#X connect 15 0 16 0;
#X connect 16 0 0 0;
#X connect 17 0 11 0;
#X connect 17 0 13 0;
#X connect 18 0 5 0;
#X connect 18 1 6 0;
#X restore 216 62 pd activePage;
#N canvas 407 562 280 380 auxbutton 0;
#X obj 104 119 f;
#X obj 104 73 sel 1;
#X obj 104 55 t f f, f 25;
#X obj 104 137 sel 1;
#X obj 104 91 del 500;
#X text 11 4 Controls State With Aux Button;
#X msg 136 184 1;
#X obj 38 27 r auxIn-\$1;
#X obj 136 311 s ps_record-\$1;
#X obj 38 220 tgl 15 0 empty empty empty 17 7 0 10 -262144 -1 -1 1
1;
#X msg 104 165 0;
#X obj 38 340 s ps_play-\$1;
#X obj 43 238 sel 0 1, f 8;
#X floatatom 136 294 5 0 0 0 - - -;
#X obj 136 166 delay 1;
#X msg 65 256 -2;
#X msg 43 256 -2;
#X obj 38 131 sel 0;
#X obj 38 191 spigot 1;
#X obj 190 188 r clear-\$0;
#X msg 190 206 0;
#X connect 0 0 3 0;
#X connect 1 0 4 0;
#X connect 2 0 1 0;
#X connect 2 1 0 1;
#X connect 3 0 10 0;
#X connect 3 0 14 0;
#X connect 4 0 0 0;
#X connect 6 0 13 0;
#X connect 7 0 2 0;
#X connect 7 0 17 0;
#X connect 9 0 11 0;
#X connect 9 0 12 0;
#X connect 10 0 18 1;
#X connect 12 0 16 0;
#X connect 12 1 15 0;
#X connect 13 0 8 0;
#X connect 14 0 6 0;
#X connect 15 0 13 0;
#X connect 16 0 13 0;
#X connect 17 0 18 0;
#X connect 17 1 18 1;
#X connect 18 0 9 0;
#X connect 19 0 20 0;
#X connect 20 0 9 0;
#X restore 216 80 pd auxbutton;
#N canvas 4 185 286 286 encoder 0;
#X obj 16 18 r oenc;
#X obj 16 54 spigot;
#X obj 16 75 sel 0 1, f 23;
#X obj 16 131 tgl 15 0 empty empty empty 17 7 0 10 -262144 -1 -1 0
1;
#X obj 16 158 s ps_rev-\$1;
#X msg 83 103 0;
#X msg 16 103 1;
#X obj 211 143 - 1;
#X obj 211 161 tgl 15 0 empty empty empty 17 7 0 10 -262144 -1 -1 -1
1;
#X obj 192 246 s ps_rand-\$1;
#X obj 178 220 spigot;
#X obj 178 202 tgl 15 0 empty empty empty 17 7 0 10 -262144 -1 -1 1
1;
#X obj 49 36 r cycles-active-\$1;
#X connect 0 0 1 0;
#X connect 1 0 2 0;
#X connect 2 0 6 0;
#X connect 2 1 5 0;
#X connect 2 1 11 0;
#X connect 3 0 4 0;
#X connect 3 0 7 0;
#X connect 5 0 3 0;
#X connect 6 0 3 0;
#X connect 6 0 11 0;
#X connect 7 0 8 0;
#X connect 8 0 10 1;
#X connect 10 0 9 0;
#X connect 11 0 10 0;
#X connect 12 0 1 1;
#X restore 216 26 pd encoder;
#N canvas 4 77 206 159 led 0;
#X obj 23 37 sel 0 1, f 8;
#X msg 23 73 0;
#X msg 45 73 4;
#X obj 23 111 s aux-led-\$1;
#X msg 49 55 -2;
#X msg 28 55 0;
#X obj 23 19 r ps_play-\$1;
#X obj 85 38 r ps_record-\$1;
#X obj 85 59 sel 1;
#X msg 85 80 3;
#X connect 0 0 1 0;
#X connect 0 0 5 0;
#X connect 0 1 2 0;
#X connect 0 1 4 0;
#X connect 1 0 3 0;
#X connect 2 0 3 0;
#X connect 6 0 0 0;
#X connect 7 0 8 0;
#X connect 8 0 9 0;
#X connect 9 0 3 0;
#X restore 216 98 pd led;
#X obj 101 94 spigot;
#X obj 107 13 r ps_record-\$1;
#X obj 107 31 sel 1;
#X msg 107 49 1;
#X msg 134 49 0;
#X obj 134 77 tgl 15 0 empty empty empty 17 7 0 10 -262144 -1 -1 0
1;
#X connect 0 0 2 0;
#X connect 0 0 9 0;
#X connect 2 0 3 0;
#X connect 3 0 1 0;
#X connect 9 0 1 0;
#X connect 10 0 11 0;
#X connect 11 0 12 0;
#X connect 11 1 13 0;
#X connect 12 0 14 0;
#X connect 13 0 14 0;
#X connect 14 0 9 1;
