#N canvas 714 50 1202 651 10;
#X obj 124 64 poly 8 0;
#X obj 112 92 pack 0 0 0;
#N canvas 0 50 450 250 (subpatch) 0;
#X array velarray-\$0 520 float 2;
#X coords 0 128 520 0 200 140 1 0 0;
#X restore 963 213 graph;
#X obj 121 138 unpack 0 0 0, f 7;
#X obj 69 138 unpack 0 0 0, f 6;
#X obj 187 425 tabwrite notearray-\$0;
#X obj 340 4 testkeys;
#X obj 176 230 + 0, f 4;
#X obj 321 128 sel 0;
#X obj 354 164 f 0;
#X obj 333 204 nbx 5 14 -1e+37 1e+37 0 0 empty empty empty 0 -8 0 10
-262144 -1 -1 0 256;
#X obj 357 183 + 1;
#X obj 320 182 - 1;
#X obj 320 163 f 0;
#X obj 321 147 bng 15 250 50 0 empty empty empty 17 7 0 10 -262144
-1 -1;
#X obj 353 146 bng 15 250 50 0 empty empty empty 17 7 0 10 -262144
-1 -1;
#X msg 423 253 0;
#X obj 336 225 sel 0;
#X obj 336 249 f 0;
#X obj 360 333 nbx 5 14 -1e+37 1e+37 0 0 empty empty empty 0 -8 0 10
-262144 -1 -1 0 256;
#X obj 338 267 + 1;
#X obj 112 110 t a a a;
#X obj 179 138 unpack 0 0 0, f 6;
#X obj 240 205 * 8;
#X obj 240 297 + 1;
#X obj 247 317 sel 8;
#X obj 240 269 f;
#X msg 240 241 0;
#X obj 240 223 t f f;
#X obj 283 312 + 0, f 5;
#X obj 283 330 t f f;
#X msg 283 348 0;
#X floatatom 513 424 5 0 0 2 steps - -;
#X obj 138 2 inlet;
#X obj 124 46 spigot 0;
#X obj 609 225 f;
#X obj 609 154 sel 1;
#X obj 609 136 t f f, f 36;
#X obj 608 245 sel 1;
#X obj 822 164 sel 0;
#X msg 822 182 stop;
#N canvas 4 50 1366 725 player 0;
#X obj 213 488 tabread notearray-\$0;
#X obj 282 448 + 0;
#X obj 226 126 bng 15 250 50 0 empty empty empty 17 7 0 10 -262144
-1 -1;
#X obj 230 144 f 0;
#X obj 128 236 nbx 5 14 -1e+37 1e+37 0 0 empty empty empty 0 -8 0 10
-262144 -1 -1 0 256;
#X obj 235 170 + 1;
#X obj 241 191 mod 64;
#X obj 265 524 sel 0;
#X obj 278 318 t b f;
#X obj 342 358 * 8;
#X obj 227 409 + 1;
#X obj 235 438 sel 8;
#X msg 246 358 0;
#X obj 357 412 nbx 5 14 -1e+37 1e+37 0 0 empty empty empty 0 -8 0 10
-262144 -1 -1 0 256;
#X obj 339 451 nbx 5 14 -1e+37 1e+37 0 0 empty empty empty 0 -8 0 10
-262144 -1 -1 0 256;
#X obj 245 379 f;
#X floatatom 95 74 5 0 0 2 steps - -;
#N canvas 186 411 193 292 step 0;
#X obj 17 123 beatdiv;
#X obj 17 235 sel 0;
#X obj 17 181 f 0;
#X obj 65 167 mod 1;
#X obj 17 209 nbx 5 14 -1e+37 1e+37 0 0 empty empty empty 0 -8 0 10
-262144 -1 -1 0 256;
#X obj 92 151 nbx 5 14 -1e+37 1e+37 0 0 empty empty empty 0 -8 0 10
-262144 -1 -1 0 256;
#X obj 65 149 + 1;
#X obj 17 253 outlet;
#X obj 92 31 r ps_div-\$1;
#X obj 92 115 * -1;
#X obj 131 67 moses 1;
#X obj 92 49 moses 0;
#X msg 97 67 1;
#X obj 92 133 + 1;
#X msg 143 112 0;
#X obj 17 13 r master-ticks;
#X connect 0 0 2 0;
#X connect 1 0 7 0;
#X connect 2 0 4 0;
#X connect 3 0 2 1;
#X connect 4 0 1 0;
#X connect 4 0 6 0;
#X connect 5 0 3 1;
#X connect 6 0 3 0;
#X connect 8 0 11 0;
#X connect 9 0 13 0;
#X connect 10 0 0 1;
#X connect 10 0 14 0;
#X connect 10 1 0 1;
#X connect 11 0 9 0;
#X connect 11 0 12 0;
#X connect 11 1 10 0;
#X connect 12 0 0 1;
#X connect 13 0 5 0;
#X connect 14 0 5 0;
#X connect 15 0 0 0;
#X restore 191 42 pd step;
#X obj 323 107 t f f;
#X msg 328 134 0;
#X obj 449 187 sel 1;
#X msg 390 206 -1;
#X msg 427 234 1;
#X obj 116 36 inlet;
#X obj 392 700 outlet;
#X obj 303 646 makenote 120 500;
#X obj 328 57 r ps_play-\$1;
#X obj 499 114 r ps_rev-\$1;
#X obj 548 161 r ps_rand-\$1;
#X obj 569 273 random 0;
#X obj 570 296 nbx 5 14 -1e+37 1e+37 0 0 empty empty empty 0 -8 0 10
-262144 -1 -1 0 256;
#X obj 246 285 spigot 1;
#X obj 332 298 spigot 0;
#X obj 543 212 == 0;
#X obj 490 513 r ps_length-\$1, f 17;
#X obj 206 84 spigot 1;
#X obj 380 672 pack 0 0;
#X obj 293 467 t f f;
#X obj 366 547 tabread velarray-\$0;
#X obj 267 585 max 1;
#X obj 890 508 == -2;
#X msg 842 477 0;
#X obj 293 614 + 0;
#X obj 643 577 spigot 0;
#X obj 715 130 inlet;
#X obj 716 175 poly 1 1;
#X obj 722 221 pack 0 0;
#X obj 736 261 stripnote;
#X obj 299 76 ||;
#X obj 684 258 > 0;
#X obj 631 612 - 60;
#X obj 682 295 spigot 0;
#X obj 258 48 change -1;
#X msg 872 362 -2;
#X obj 872 334 r loadbang-\$1;
#X obj 109 387 + 1;
#X obj 761 131 tgl 15 0 empty empty empty 17 7 0 10 -262144 -1 -1 0
1;
#X obj 739 85 sel -2 1;
#X msg 739 103 1;
#X msg 761 103 0;
#X obj 739 67 r ps_record-\$1;
#X obj 715 148 spigot 1;
#X obj 128 559 r ps_transpose-\$1;
#X obj 128 577 * 12;
#X obj 270 566 + 0;
#X obj 109 405 s cycles-count-\$1;
#X connect 0 0 7 0;
#X connect 1 0 14 0;
#X connect 1 0 37 0;
#X connect 2 0 3 0;
#X connect 2 0 29 0;
#X connect 3 0 5 0;
#X connect 3 0 31 0;
#X connect 4 0 3 1;
#X connect 5 0 6 0;
#X connect 6 0 4 0;
#X connect 7 1 64 0;
#X connect 8 0 12 0;
#X connect 8 1 9 0;
#X connect 8 1 55 0;
#X connect 9 0 1 1;
#X connect 9 0 13 0;
#X connect 10 0 11 0;
#X connect 11 1 15 0;
#X connect 12 0 15 0;
#X connect 15 0 10 0;
#X connect 15 0 1 0;
#X connect 16 0 6 1;
#X connect 16 0 29 1;
#X connect 17 0 35 0;
#X connect 18 0 52 0;
#X connect 18 1 19 0;
#X connect 19 0 3 1;
#X connect 20 0 21 0;
#X connect 20 1 22 0;
#X connect 21 0 5 1;
#X connect 22 0 5 1;
#X connect 23 0 16 0;
#X connect 25 0 36 0;
#X connect 25 1 36 1;
#X connect 26 0 18 0;
#X connect 26 0 48 1;
#X connect 27 0 20 0;
#X connect 28 0 33 0;
#X connect 28 0 32 1;
#X connect 29 0 30 0;
#X connect 30 0 32 0;
#X connect 31 0 8 0;
#X connect 32 0 8 0;
#X connect 33 0 31 1;
#X connect 34 0 25 2;
#X connect 35 0 2 0;
#X connect 36 0 24 0;
#X connect 37 0 0 0;
#X connect 37 1 38 0;
#X connect 38 0 25 1;
#X connect 39 0 42 0;
#X connect 40 0 43 1;
#X connect 40 0 51 1;
#X connect 41 0 42 1;
#X connect 41 0 48 0;
#X connect 42 0 25 0;
#X connect 43 0 50 0;
#X connect 44 0 61 0;
#X connect 45 1 46 0;
#X connect 45 2 46 1;
#X connect 45 2 49 0;
#X connect 46 0 47 0;
#X connect 47 0 43 0;
#X connect 48 0 52 0;
#X connect 49 0 51 0;
#X connect 50 0 42 1;
#X connect 51 0 48 0;
#X connect 52 0 35 1;
#X connect 52 0 19 0;
#X connect 53 0 40 0;
#X connect 54 0 53 0;
#X connect 54 0 41 0;
#X connect 55 0 65 0;
#X connect 56 0 61 1;
#X connect 57 0 58 0;
#X connect 57 1 59 0;
#X connect 58 0 56 0;
#X connect 59 0 56 0;
#X connect 60 0 57 0;
#X connect 61 0 45 0;
#X connect 62 0 63 0;
#X connect 63 0 64 1;
#X connect 64 0 39 0;
#X restore 513 510 pd player;
#X obj 201 18 r ps_record-\$1;
#X obj 358 352 s activestep-\$0;
#X obj 513 360 r activestep-\$0;
#X obj 420 205 r clear-\$0;
#X text 308 102 determine when we go to a new step;
#X text 815 280 params: play 0/1 record 0/1 beat div beat mul reverse
random slot 1-16 aux mode: erase save load, f 11;
#X obj 343 288 min 65;
#X obj 513 396 min 64;
#X obj 176 212 - 1;
#X obj 513 538 outlet;
#X obj 516 190 timer;
#X obj 518 213 nbx 5 14 -1e+37 1e+37 0 0 empty empty empty 0 -8 0 10
-262144 -1 -1 0 256;
#X floatatom 512 140 5 0 0 0 - - -;
#X obj 494 163 sel 1;
#X obj 558 167 sel 0;
#X obj 517 250 int;
#X obj 516 269 nbx 5 14 -1e+37 1e+37 0 0 empty empty empty 0 -8 0 10
-262144 -1 -1 0 256;
#X obj 514 298 sel 0;
#X obj 609 92 r auxIn-\$1;
#X obj 517 232 / 1500;
#N canvas 0 50 450 250 (subpatch) 0;
#X array notearray-\$0 520 float 2;
#X coords 0 128 520 0 200 140 1 0 0;
#X restore 866 45 graph;
#X obj 51 313 spigot 1;
#X text 45 294 only write note ons;
#X obj 35 567 tabwrite velarray-\$0;
#X obj 115 313 spigot 1;
#X obj 325 374 r activestep-\$0;
#X obj 335 392 - 1;
#X obj 338 414 max 0;
#X obj 328 484 f;
#X obj 313 445 r undo-\$0;
#X obj 323 412 bng 15 250 50 0 empty empty empty 17 7 0 10 -262144
-1 -1;
#N canvas 137 324 1351 720 aux 0;
#X obj 166 66 inlet;
#X obj 50 223 bng 15 250 50 0 empty empty clear 17 7 0 10 -262144 -1
-1;
#X obj 33 277 s clear-\$0;
#X obj 168 105 f 0;
#X obj 226 531 s steplabel-\$0;
#N canvas 0 50 450 250 (subpatch) 0;
#X array len_file-\$0 1 float 3;
#A 0 16;
#X coords 0 65 1 0 10 50 1 0 0;
#X restore 923 64 graph;
#X text 779 138 load then send out sequence length;
#X text 437 144 load then send out sequence length;
#X obj 587 300 t b l;
#X obj 1165 92 r rackSavePreset;
#N canvas 119 225 803 448 presetDir 0;
#X obj 88 153 s rackMsgs;
#X obj 88 106 symbol \$1;
#X msg 88 128 getsetting currentPreset Defaut rackCurrentPreset-\$1
;
#X obj 88 181 r rackCurrentPreset;
#X obj 215 181 r rackCurrentPreset-\$1;
#X obj 87 215 symbol \$1;
#X obj 442 163 s rackMsgs;
#X obj 442 113 symbol \$1;
#X obj 204 50 r loadbang-\$1;
#X obj 442 186 r rackDataDir;
#X obj 535 189 r rackDataDir-\$1;
#X msg 442 138 getsetting dataDir ./data rackDataDir-\$1;
#X obj 441 219 symbol \$1;
#X obj 249 276 pack s s s;
#X obj 255 210 symbol \$1;
#X obj 205 76 t b b b;
#X obj 444 71 bng 15 250 50 0 empty empty empty 17 7 0 10 -262144 -1
-1;
#X obj 71 67 bng 15 250 50 0 empty empty empty 17 7 0 10 -262144 -1
-1;
#X obj 114 243 t b b s;
#X obj 255 232 t b s;
#X obj 111 387 outlet;
#X obj 219 386 outlet;
#X text 81 25 track preset directory and bang on change;
#X connect 1 0 2 0;
#X connect 2 0 0 0;
#X connect 3 0 5 0;
#X connect 4 0 5 0;
#X connect 5 0 18 0;
#X connect 7 0 11 0;
#X connect 8 0 15 0;
#X connect 9 0 12 0;
#X connect 10 0 12 0;
#X connect 11 0 6 0;
#X connect 12 0 13 0;
#X connect 13 0 21 0;
#X connect 14 0 19 0;
#X connect 15 0 1 0;
#X connect 15 1 14 0;
#X connect 15 2 7 0;
#X connect 16 0 7 0;
#X connect 17 0 1 0;
#X connect 18 0 20 0;
#X connect 18 1 13 0;
#X connect 18 2 13 1;
#X connect 19 0 13 0;
#X connect 19 1 13 2;
#X restore 993 29 pd presetDir;
#N canvas 103 262 721 484 savePreset 0;
#X obj 343 124 r saveState;
#X obj 252 232 list;
#X obj 146 127 unpack s s s;
#X obj 251 167 pack s s s;
#X obj 272 127 symbol \$1;
#X obj 113 96 list;
#X obj 233 101 t b b a b;
#X obj 106 54 inlet;
#X obj 258 286 outlet;
#X obj 229 39 inlet;
#X connect 0 0 1 0;
#X connect 1 0 8 0;
#X connect 2 0 3 0;
#X connect 2 2 3 2;
#X connect 3 0 1 1;
#X connect 4 0 3 1;
#X connect 5 0 2 0;
#X connect 6 0 1 0;
#X connect 6 1 3 0;
#X connect 6 2 4 0;
#X connect 6 3 5 0;
#X connect 7 0 5 1;
#X connect 9 0 6 0;
#X restore 1101 134 pd savePreset;
#X obj 1029 87 list;
#X msg 1025 274 write \$1/presets/\$2/\$3-notes.txt;
#X msg 1056 293 write \$1/presets/\$2/\$3-vel.txt;
#X msg 1087 320 write \$1/presets/\$2/\$3-len.txt;
#X obj 1044 355 s notearray-\$0;
#X obj 1105 375 s velarray-\$0;
#X obj 1156 399 s len-\$0;
#X msg 722 368 read \$1/presets/\$2/\$3-notes.txt;
#X msg 752 393 read \$1/presets/\$2/\$3-vel.txt;
#X msg 784 413 read \$1/presets/\$2/\$3-len.txt;
#X obj 668 436 s notearray-\$0;
#X obj 729 456 s velarray-\$0;
#X obj 780 480 s len-\$0;
#X obj 573 477 tabread len-\$0;
#X msg 596 444 0;
#X obj 573 503 s len-load-\$0;
#X obj 504 378 t b b;
#X obj 169 140 sel 0;
#X obj 108 280 s aux-led-\$1;
#X msg 75 246 7;
#X connect 0 0 3 0;
#X connect 1 0 2 0;
#X connect 1 0 31 0;
#X connect 3 0 29 0;
#X connect 8 0 28 0;
#X connect 8 1 19 0;
#X connect 8 1 21 0;
#X connect 8 1 20 0;
#X connect 9 0 11 1;
#X connect 10 0 12 0;
#X connect 10 1 11 0;
#X connect 10 1 12 1;
#X connect 11 0 13 0;
#X connect 11 0 15 0;
#X connect 11 0 14 0;
#X connect 12 0 8 0;
#X connect 13 0 16 0;
#X connect 14 0 17 0;
#X connect 15 0 18 0;
#X connect 19 0 22 0;
#X connect 20 0 23 0;
#X connect 21 0 24 0;
#X connect 25 0 27 0;
#X connect 26 0 25 0;
#X connect 28 0 4 0;
#X connect 28 1 26 0;
#X connect 29 0 1 0;
#X connect 31 0 30 0;
#X restore 608 263 pd aux;
#N canvas 0 50 450 250 (subpatch) 0;
#X array len-\$0 1 float 2;
#X coords 0 65 1 0 10 50 1 0 0;
#X restore 861 413 graph;
#X obj 518 378 tabwrite len-\$0;
#X obj 397 297 r len-load-\$0;
#X obj 178 480 == 0;
#X obj 218 480 != 0;
#X obj 115 341 bng 15 250 50 0 empty empty empty 17 7 0 10 -262144
-1 -1;
#X obj 35 511 spigot 1;
#X obj 100 511 spigot 0;
#X obj 100 539 f;
#N canvas 4 50 1366 725 manual 0;
#X obj 220 82 nbx 5 14 -1e+37 1e+37 0 0 empty empty empty 0 -8 0 10
-262144 -1 -1 0 256;
#X obj 214 152 mod;
#X obj 211 172 nbx 5 14 -1e+37 1e+37 0 0 empty empty empty 0 -8 0 10
-262144 -1 -1 0 256;
#X obj 675 189 nbx 5 14 -1e+37 1e+37 0 0 empty empty empty 0 -8 0 10
-262144 -1 -1 0 256;
#X obj 316 38 inlet;
#X obj 212 323 outlet;
#X obj 76 31 inlet, f 6;
#X msg 71 75 \$2 \$1;
#X obj 68 99 route 0;
#X msg 48 144 \$1 0;
#X msg 106 125 \$2 \$1;
#X obj 112 144 unpack 0 0;
#X obj 101 270 man_note \$0 0;
#X obj 383 151 bng 15 250 50 0 empty empty empty 17 7 0 10 -262144
-1 -1;
#X obj 210 225 spigot 0;
#X obj 207 272 man_note \$0 1;
#X obj 314 274 man_note \$0 2;
#X obj 419 277 man_note \$0 3;
#X obj 526 275 man_note \$0 4;
#X obj 139 48 poly 1 1;
#X obj 143 73 pack 0 0;
#X obj 410 87 == -1;
#X obj 396 53 r ps_record-\$1;
#X obj 224 24 - 60;
#X obj 227 62 nbx 5 14 -1e+37 1e+37 0 0 empty empty empty 0 -8 0 10
-262144 -1 -1 0 256;
#X obj 628 282 man_note \$0 5;
#X obj 742 274 man_note \$0 6;
#X obj 874 282 man_note \$0 7;
#X obj 221 196 t f f;
#X obj 280 101 nbx 5 14 -1e+37 1e+37 0 0 empty empty empty 0 -8 0 10
-262144 -1 -1 0 256;
#X connect 0 0 1 0;
#X connect 1 0 2 0;
#X connect 2 0 28 0;
#X connect 3 0 25 2;
#X connect 3 0 18 2;
#X connect 3 0 12 2;
#X connect 3 0 15 2;
#X connect 3 0 16 2;
#X connect 3 0 17 2;
#X connect 3 0 26 2;
#X connect 3 0 27 2;
#X connect 4 0 29 0;
#X connect 6 0 19 0;
#X connect 7 0 8 0;
#X connect 8 0 9 0;
#X connect 8 1 10 0;
#X connect 9 0 13 0;
#X connect 10 0 11 0;
#X connect 11 0 23 0;
#X connect 12 0 5 0;
#X connect 13 0 25 1;
#X connect 13 0 18 1;
#X connect 13 0 12 1;
#X connect 13 0 15 1;
#X connect 13 0 16 1;
#X connect 13 0 17 1;
#X connect 13 0 26 1;
#X connect 13 0 27 1;
#X connect 14 0 25 0;
#X connect 14 0 18 0;
#X connect 14 0 12 0;
#X connect 14 0 15 0;
#X connect 14 0 16 0;
#X connect 14 0 17 0;
#X connect 14 0 26 0;
#X connect 14 0 27 0;
#X connect 15 0 5 0;
#X connect 16 0 5 0;
#X connect 17 0 5 0;
#X connect 18 0 5 0;
#X connect 19 1 20 0;
#X connect 19 2 20 1;
#X connect 20 0 7 0;
#X connect 21 0 14 1;
#X connect 22 0 21 0;
#X connect 23 0 0 0;
#X connect 25 0 5 0;
#X connect 26 0 5 0;
#X connect 27 0 5 0;
#X connect 28 0 14 0;
#X connect 29 0 1 1;
#X restore 456 461 pd manual;
#X obj 201 36 == 1;
#X obj 178 452 r ps_velo-\$1;
#X obj 609 196 del 1000;
#X obj 604 464 s cycles-count-\$1;
#X connect 0 0 1 0;
#X connect 0 1 1 1;
#X connect 0 2 1 2;
#X connect 1 0 21 0;
#X connect 3 0 50 0;
#X connect 3 2 66 1;
#X connect 3 2 63 1;
#X connect 4 1 63 0;
#X connect 4 2 66 0;
#X connect 6 1 37 0;
#X connect 6 1 54 0;
#X connect 7 0 5 1;
#X connect 7 0 65 1;
#X connect 8 0 14 0;
#X connect 8 1 15 0;
#X connect 9 0 11 0;
#X connect 10 0 9 1;
#X connect 10 0 13 1;
#X connect 10 0 17 0;
#X connect 11 0 10 0;
#X connect 12 0 10 0;
#X connect 13 0 12 0;
#X connect 14 0 13 0;
#X connect 15 0 9 0;
#X connect 16 0 10 0;
#X connect 16 0 19 0;
#X connect 17 0 18 0;
#X connect 18 0 20 0;
#X connect 19 0 18 1;
#X connect 19 0 23 0;
#X connect 19 0 43 0;
#X connect 20 0 48 0;
#X connect 21 0 22 0;
#X connect 21 1 4 0;
#X connect 21 2 3 0;
#X connect 22 2 8 0;
#X connect 23 0 7 1;
#X connect 23 0 28 0;
#X connect 24 0 25 0;
#X connect 25 1 26 0;
#X connect 26 0 24 0;
#X connect 26 0 29 0;
#X connect 27 0 26 0;
#X connect 28 0 27 0;
#X connect 28 1 29 1;
#X connect 29 0 30 0;
#X connect 30 0 31 0;
#X connect 30 1 5 1;
#X connect 31 0 5 0;
#X connect 32 0 41 0;
#X connect 32 0 83 1;
#X connect 32 0 87 0;
#X connect 33 0 34 0;
#X connect 33 0 83 0;
#X connect 33 0 41 1;
#X connect 34 0 0 0;
#X connect 35 0 38 0;
#X connect 36 0 86 0;
#X connect 37 0 36 0;
#X connect 37 1 35 1;
#X connect 37 1 39 0;
#X connect 38 0 73 0;
#X connect 39 0 40 0;
#X connect 40 0 86 0;
#X connect 41 0 51 0;
#X connect 42 0 84 0;
#X connect 44 0 49 0;
#X connect 44 0 75 0;
#X connect 45 0 16 0;
#X connect 48 0 19 0;
#X connect 49 0 32 0;
#X connect 50 0 7 0;
#X connect 52 0 53 0;
#X connect 53 0 61 0;
#X connect 54 0 55 0;
#X connect 54 0 56 0;
#X connect 55 0 52 0;
#X connect 56 0 52 1;
#X connect 57 0 58 0;
#X connect 58 0 59 0;
#X connect 60 0 54 0;
#X connect 60 0 37 0;
#X connect 61 0 57 0;
#X connect 63 0 5 0;
#X connect 66 0 79 0;
#X connect 66 0 80 0;
#X connect 67 0 68 0;
#X connect 68 0 69 0;
#X connect 69 0 70 1;
#X connect 70 0 19 0;
#X connect 71 0 70 0;
#X connect 72 0 70 0;
#X connect 76 0 19 0;
#X connect 77 0 80 1;
#X connect 78 0 81 1;
#X connect 79 0 81 0;
#X connect 80 0 65 0;
#X connect 81 0 82 0;
#X connect 82 0 65 0;
#X connect 83 0 51 0;
#X connect 84 0 34 1;
#X connect 85 0 77 0;
#X connect 85 0 78 0;
#X connect 85 0 82 1;
#X connect 86 0 35 0;
