#N canvas 17 50 1345 659 10;
#X obj 729 65 r notesIn-\$1;
#X obj 304 491 s notesOut-\$1;
#X obj 25 186 inlet~ inL-\$1;
#X obj 135 186 inlet~ inR-\$1;
#X obj 27 491 outlet~ outL-\$1;
#X obj 136 491 outlet~ outR-\$1;
#X obj 54 459 *~ 0.7;
#X obj 227 435 *~ 0.7;
#X obj 155 310 r sf_vol-\$1;
#X obj 464 22 r sf_select-\$1;
#X obj 474 79 / 100;
#X obj 731 247 fluid~;
#X msg 695 166 note 1 \$1 \$2;
#X msg 644 126 load \$1;
#X obj 644 104 openpanel;
#X obj 644 84 bng 15 250 50 0 empty empty empty 0 -6 0 8 -260818 -1
-1;
#X obj 577 80 bng 15 250 50 0 empty empty empty 17 7 0 10 -262144 -1
-1;
#X obj 575 48 r auxIn-\$1;
#X obj 558 192 s aux-label-\$1;
#X obj 456 184 list;
#X msg 792 200 prog 1 \$1;
#X obj 788 156 r sf_prog-\$1;
#X obj 888 171 r sf_bank-\$1;
#X msg 891 215 bank 1 \$1;
#X obj 757 117 bng 15 250 50 0 empty empty empty 17 7 0 10 -262144
-1 -1;
#X obj 499 201 bng 15 250 50 0 empty empty empty 17 7 0 10 -262144
-1 -1;
#X obj 833 91 nbx 5 14 -1e+037 1e+037 0 0 empty empty empty 0 -8 0
10 -262144 -1 -1 0 256;
#X obj 438 140 sfshare_select \$1;
#X connect 0 0 12 0;
#X connect 0 0 24 0;
#X connect 6 0 4 0;
#X connect 7 0 5 0;
#X connect 8 0 7 1;
#X connect 8 0 6 1;
#X connect 9 0 10 0;
#X connect 10 0 27 0;
#X connect 11 0 6 0;
#X connect 11 1 7 0;
#X connect 12 0 11 0;
#X connect 13 0 11 0;
#X connect 14 0 13 0;
#X connect 15 0 14 0;
#X connect 16 0 19 0;
#X connect 17 0 16 0;
#X connect 19 0 13 0;
#X connect 20 0 11 0;
#X connect 21 0 20 0;
#X connect 22 0 23 0;
#X connect 23 0 11 0;
#X connect 26 0 20 0;
#X connect 27 0 19 1;
#X connect 27 1 18 0;
#X connect 27 1 25 0;
