#N canvas 537 86 450 434 12;
#X obj 41 69 inlet;
#X obj 142 76 inlet;
#X obj 78 297 outlet;
#X obj 172 296 outlet;
#X obj 228 80 inlet;
#X obj 210 156 *;
#X obj 154 187 +;
#X obj 253 294 outlet;
#X obj 340 99 inlet;
#X obj 316 212 /;
#X obj 330 154 t b f;
#X obj 2 44;
#X obj 347 306 outlet;
#X obj 282 197 f 0;
#X connect 0 0 5 0;
#X connect 0 0 2 0;
#X connect 1 0 6 0;
#X connect 4 0 5 1;
#X connect 5 0 6 1;
#X connect 5 0 7 0;
#X connect 5 0 13 1;
#X connect 6 0 3 0;
#X connect 8 0 10 0;
#X connect 9 0 12 0;
#X connect 10 0 13 0;
#X connect 10 1 9 1;
#X connect 13 0 9 0;
