#N canvas 261 98 902 579 10;
#X text 44 466 0 - 100 mSec allpass;
#X obj 37 29 inlet~;
#X obj 43 410 +~;
#X obj 63 379 *~;
#X obj 91 30 inlet;
#X obj 134 31 inlet;
#X text 37 10 sound;
#X text 95 9 time;
#X text 138 9 gain;
#X obj 142 55 * -1;
#X obj 142 380 *~;
#X obj 126 409 +~;
#X obj 207 440 outlet~;
#X obj 68 344 vd~ \$0-short;
#X obj 182 30 inlet;
#X obj 185 56 osc~;
#X text 179 9 freq;
#X obj 44 438 delwrite~ \$0-short 1000;
#X obj 264 44 inlet~;
#X obj 183 107 *~;
#X obj 69 86 vline~, f 9;
#X msg 88 60 \$1 \$1;
#X obj 183 85 *~ 0.1;
#X obj 192 365 +~ 1;
#X obj 70 113 *~;
#X obj 121 224 -~ 1.5;
#X obj 118 257 abs~;
#X obj 116 278 +~ 1.5;
#X text 122 181 wrap around 64 block size;
#X connect 1 0 2 0;
#X connect 2 0 10 0;
#X connect 2 0 17 0;
#X connect 3 0 2 1;
#X connect 4 0 21 0;
#X connect 5 0 3 1;
#X connect 5 0 9 0;
#X connect 9 0 10 1;
#X connect 10 0 11 1;
#X connect 11 0 12 0;
#X connect 13 0 3 0;
#X connect 13 0 11 0;
#X connect 14 0 15 0;
#X connect 15 0 22 0;
#X connect 18 0 19 1;
#X connect 19 0 23 0;
#X connect 20 0 24 0;
#X connect 21 0 20 0;
#X connect 22 0 19 0;
#X connect 23 0 24 1;
#X connect 24 0 25 0;
#X connect 25 0 26 0;
#X connect 26 0 27 0;
#X connect 27 0 13 0;
