#N canvas 131 268 1920 876 10;
#X obj 183 55 inlet;
#X obj 626 62 inlet;
#X obj 21 64 inlet~;
#X obj 86 401 delwrite~ line-\$0 1000;
#X text 31 38 signal;
#X text 179 32 shift;
#X text 639 39 period;
#X obj 687 644 delread4~ line-\$0 1000;
#X text 624 200 period;
#X obj 448 99 nbx 5 14 -1e+037 1e+037 0 0 empty empty empty 0 -8 0
10 -262144 -1 -1 0 256;
#X obj 446 127 mtof;
#X obj 437 156 / 8.175;
#X obj 442 180 nbx 5 14 -1e+037 1e+037 0 0 empty empty empty 0 -8 0
10 -262144 -1 -1 0 256;
#X obj 451 202 - 1;
#X obj 707 249 nbx 5 14 -1e+037 1e+037 0 0 empty empty empty 0 -8 0
10 -262144 -1 -1 0 256;
#X obj 567 414 *~ -1;
#X obj 615 380 samphold~;
#X obj 552 389 *~;
#X obj 583 450 +~;
#X obj 610 780 outlet~;
#X obj 618 683 *~;
#X obj 750 433 snapshot~;
#X obj 744 493 nbx 5 14 -1e+037 1e+037 0 0 empty empty empty 0 -8 0
10 -262144 -1 -1 0 256;
#X obj 776 382 bng 15 250 50 0 empty empty empty 17 7 0 10 -262144
-1 -1;
#X obj 391 432 s~ phas2-\$0;
#X obj 643 476 s~ period-\$0;
#X obj 527 88 r~ period-\$0;
#X obj 476 280 /~;
#X obj 573 181 snapshot~;
#X obj 597 148 bng 15 250 50 0 empty empty empty 17 7 0 10 -262144
-1 -1;
#X obj 567 240 nbx 5 14 -1e+037 1e+037 0 0 empty empty empty 0 -8 0
10 -262144 -1 -1 0 256;
#X obj 900 189 noise~;
#X obj 897 254 *~ 0.01;
#X obj 965 565 snapshot~;
#X obj 989 532 bng 15 250 50 0 empty empty empty 17 7 0 10 -262144
-1 -1;
#X obj 988 606 nbx 5 14 -1e+037 1e+037 0 0 empty empty empty 0 -8 0
10 -262144 -1 -1 0 256;
#X obj 551 216 /~ 1000;
#X obj 560 314 phasor~;
#X obj 605 596 +~ 10;
#X obj 524 266 lop~ 5;
#X obj 640 425 max~ 0.1;
#X obj 926 332 +~ 0.5;
#X obj 1037 383 wrap~;
#X obj 1135 300 samphold~;
#X obj 1135 340 max~ 0.1;
#X obj 680 569 expr~ (1-cos(2*3.14159*$v1));
#X obj 1318 591 delread4~ line-\$0 1000;
#X obj 1339 638 *~;
#X obj 1326 551 +~ 10;
#X obj 1401 524 expr~ (1-cos(2*3.14159*$v1));
#X obj 1165 498 *~ -1;
#X obj 1150 473 *~;
#X obj 1181 534 +~;
#X obj 1196 345 snapsho;
#X obj 722 340 lop~ 2;
#X obj 84 119 lop~ 5000;
#X obj 263 215 delread4~ line-\$0 1000;
#X obj 237 98 r freeze;
#X obj 329 152 == 0;
#X obj 758 51 == 0;
#X obj 706 106 spigot 1;
#X obj 422 68 spigot 1;
#X obj 157 281;
#X obj 176 125 sig~ 0;
#X obj 159 195 -~ 1;
#X obj 78 220 *~;
#X obj 241 281 *~;
#X obj 204 163 lop~ 3;
#X obj 710 278 sig~ 1000;
#X obj 466 236 sig~ \$1;
#X connect 0 0 61 0;
#X connect 1 0 60 0;
#X connect 2 0 55 0;
#X connect 7 0 20 0;
#X connect 9 0 10 0;
#X connect 10 0 11 0;
#X connect 11 0 12 0;
#X connect 12 0 13 0;
#X connect 13 0 69 0;
#X connect 14 0 56 0;
#X connect 14 0 68 0;
#X connect 15 0 18 0;
#X connect 16 0 21 0;
#X connect 16 0 40 0;
#X connect 17 0 15 0;
#X connect 18 0 38 0;
#X connect 20 0 19 0;
#X connect 21 0 22 0;
#X connect 23 0 21 0;
#X connect 26 0 28 0;
#X connect 26 0 36 0;
#X connect 27 0 37 0;
#X connect 28 0 30 0;
#X connect 29 0 28 0;
#X connect 31 0 32 0;
#X connect 33 0 35 0;
#X connect 34 0 33 0;
#X connect 36 0 39 0;
#X connect 37 0 17 0;
#X connect 37 0 16 1;
#X connect 37 0 24 0;
#X connect 37 0 41 0;
#X connect 37 0 45 0;
#X connect 38 0 7 0;
#X connect 39 0 27 1;
#X connect 40 0 25 0;
#X connect 40 0 18 1;
#X connect 40 0 17 1;
#X connect 41 0 42 0;
#X connect 42 0 51 0;
#X connect 42 0 49 0;
#X connect 42 0 43 1;
#X connect 43 0 44 0;
#X connect 44 0 51 1;
#X connect 44 0 52 1;
#X connect 45 0 20 1;
#X connect 46 0 47 0;
#X connect 47 0 19 0;
#X connect 48 0 46 0;
#X connect 49 0 47 1;
#X connect 50 0 52 0;
#X connect 51 0 50 0;
#X connect 52 0 48 0;
#X connect 54 0 16 0;
#X connect 54 0 43 0;
#X connect 55 0 65 0;
#X connect 56 0 66 0;
#X connect 57 0 58 0;
#X connect 57 0 63 0;
#X connect 58 0 61 1;
#X connect 58 0 60 1;
#X connect 60 0 14 0;
#X connect 61 0 9 0;
#X connect 63 0 67 0;
#X connect 64 0 65 1;
#X connect 65 0 3 0;
#X connect 66 0 3 0;
#X connect 67 0 64 0;
#X connect 67 0 66 1;
#X connect 68 0 54 0;
#X connect 69 0 27 0;
