#N canvas 4 50 1912 998 10;
#X obj 439 422 nbx 15 14 -1e+37 1e+37 0 0 empty empty freq 0 -8 0 10
-262144 -1 -1 0 256;
#X obj 439 314 expr 1/$f1;
#X obj 612 96 bng 15 250 50 0 empty empty empty 17 7 0 10 -262144 -1
-1;
#X obj 439 378 * 1, f 4;
#X obj 439 360 f 1;
#X obj 444 342 t b f;
#X obj 639 96 bng 15 250 50 0 empty empty empty 17 7 0 10 -262144 -1
-1;
#X obj 439 514 phasor~;
#X obj 440 664 +~;
#X obj 1366 166 nbx 5 14 -1e+37 1e+37 0 0 empty empty empty 0 -8 0
10 -262144 -1 -1 0 256;
#X obj 1366 248 mtof;
#X obj 1366 266 nbx 5 14 -1e+37 1e+37 0 0 empty empty empty 0 -8 0
10 -262144 -1 -1 8.1758 256;
#X obj 1366 282 / 8.175;
#X obj 1354 78 f;
#X obj 1354 50 t b f;
#X obj 1366 104 +;
#X obj 1366 122 nbx 5 14 -1e+37 1e+37 0 0 empty empty empty 0 -8 0
10 -262144 -1 -1 0 256;
#X obj 1381 86 / 100;
#X obj 1298 103 t b f;
#X obj 1366 148 +;
#X msg 335 839 stop;
#X obj 581 678 snapshot~;
#X obj 1298 85 - 72;
#X obj 445 700 hip~ 15;
#X obj 440 736 hip~ 15;
#X floatatom 1832 583 5 0 0 0 - - -;
#X msg 659 109 0;
#X msg 581 110 1;
#X obj 1366 328 spigot;
#X obj 1832 565 i;
#X msg 1713 1280 /oled/gFlip 3 1;
#X msg 1713 282 stop;
#X obj 1546 1350 s oscOut;
#X obj 17 -47 r loadbang-\$1;
#X obj 588 427 del 1;
#X obj 1674 -14 sel \$1, f 11;
#X obj 1674 -32 unpack s s, f 15;
#X obj 1674 94 &&;
#X msg 1761 60 1;
#X msg 1674 60 1;
#X msg 1737 60 0;
#X obj 1674 -50 r activePage;
#X msg 1848 60 0;
#X obj 1674 112 change;
#X obj 1761 42 delay 500;
#X obj 1674 42 delay 500;
#X msg 1766 14 stop;
#X obj 129 988 outlet~ outL-\$1;
#X obj 221 970 outlet~ outR-\$1;
#X obj 899 -22 r notesIn-\$1;
#X obj 379 13 tgl 15 0 empty empty empty 17 7 0 10 -262144 -1 -1 0
1;
#X obj 1560 1 r oknob3;
#X msg 485 142 0;
#X msg 507 142 4;
#X obj 1779 1124 moses 0, f 10;
#X obj 950 182 f 72;
#X obj 439 478 sig~;
#X obj 1674 264 t b b b;
#X msg 1674 1332 /oled/gShowInfoBar 3 1;
#X msg 1744 254 /oled/gShowInfoBar 3 0;
#N canvas 1245 280 511 678 waveformReader 0;
#X obj 56 16 inlet;
#X obj 221 529 list prepend;
#X obj 71 319 until;
#X obj 71 347 f 0;
#X obj 329 529 t l;
#X obj 71 365 i;
#X obj 71 401 * 0.5;
#X obj 71 419 + 0.5;
#X obj 71 493 i;
#X msg 19 529 sendtyped /oled/gWaveform ib 3;
#X obj 19 657 list append;
#X obj 19 675 list trim;
#X obj 19 693 outlet;
#X msg 107 319 0;
#N canvas 4 50 450 250 (subpatch) 0;
#X array scope-\$1 8320 float 2;
#X coords 0 1 8320 -1 128 64 1 0 0;
#X restore 271 94 graph;
#X obj 56 34 t b b b b b b;
#X obj 140 34 inlet~;
#X obj 131 90 tabwrite~ scope-\$1;
#X obj 71 383 tabread scope-\$1;
#X obj 115 347 + 13;
#X msg 71 297 128;
#X obj 71 475 clip 30 63;
#X obj 71 437 * 28;
#X obj 71 455 + 34;
#X connect 0 0 15 0;
#X connect 1 0 4 0;
#X connect 1 0 10 1;
#X connect 2 0 3 0;
#X connect 3 0 5 0;
#X connect 3 0 19 0;
#X connect 4 0 1 1;
#X connect 5 0 18 0;
#X connect 6 0 7 0;
#X connect 7 0 22 0;
#X connect 8 0 1 0;
#X connect 9 0 10 0;
#X connect 10 0 11 0;
#X connect 11 0 12 0;
#X connect 13 0 3 1;
#X connect 15 0 9 0;
#X connect 15 1 20 0;
#X connect 15 2 13 0;
#X connect 15 3 1 0;
#X connect 15 4 1 1;
#X connect 15 5 17 0;
#X connect 16 0 17 0;
#X connect 18 0 6 0;
#X connect 19 0 3 1;
#X connect 20 0 2 0;
#X connect 21 0 8 0;
#X connect 22 0 23 0;
#X connect 23 0 21 0;
#X restore 1739 1206 pd waveformReader;
#X text 1724 112 page and module is active;
#X obj 439 532 *~ 1;
#X obj 1524 233 f 0;
#X obj 379 40 sel 1, f 16;
#X msg 379 249 start \$1;
#X obj 379 168 f;
#X obj 394 86 int;
#X obj 129 807 inlet~;
#X obj 222 807 inlet~;
#X obj 439 600 *~;
#X obj 439 296 / 44100;
#X obj 455 628 sig~;
#X obj 612 -4 tgl 15 0 empty empty empty 17 7 0 10 -262144 -1 -1 0
1;
#X obj 379 -51 r fsIn-\$1;
#X obj 612 -50 r auxIn-\$1;
#X obj 1524 287 max 0;
#X msg 938 359 0;
#X obj 1524 -45 r oknob4;
#X obj 1524 85 +, f 5;
#X obj 394 122 max 0;
#X obj 1524 19 t b f;
#X obj 1524 269 +;
#X obj 899 -4 stripnote;
#N canvas 1073 184 713 616 supercompress 0;
#X obj 577 18 r loadbang-\$1;
#X msg 577 384 knee 0;
#X obj 92 243 tb_peakcomp~;
#X obj 401 243 tb_peakcomp~;
#X obj 577 36 delay 100;
#X obj 577 244 delay 100;
#X obj 401 421 tb_peakcomp~;
#X obj 92 421 tb_peakcomp~;
#X msg 609 178 knee 1;
#X obj 355 546 *~;
#X obj 79 546 *~;
#X msg 609 66 threshold 0;
#X msg 593 356 release 7;
#X msg 593 328 attack 1;
#X msg 609 122 100;
#X obj 303 497 delread~ R-\$1 1;
#X obj 303 479 delwrite~ R-\$1 10;
#X obj 17 479 delwrite~ L-\$1 10;
#X obj 17 497 delread~ L-\$1 1;
#X obj 79 564 outlet~;
#X obj 355 564 outlet~;
#X msg 609 150 release 100;
#X obj 92 97 inlet~;
#X obj 401 97 inlet~;
#X msg 593 272 threshold 0;
#X obj 516 15 bng 15 250 50 0 empty empty empty 17 7 0 10 -262144 -1
-1;
#X msg 593 300 ratio 1000;
#X msg 609 94 ratio 1000;
#X obj 17 461 /~ 3;
#X obj 303 461 /~ 3;
#X obj 17 515 *~ 3;
#X obj 303 515 *~ 3;
#X connect 0 0 4 0;
#X connect 1 0 6 0;
#X connect 1 0 7 0;
#X connect 2 0 7 0;
#X connect 2 0 7 1;
#X connect 2 0 28 0;
#X connect 3 0 6 0;
#X connect 3 0 6 1;
#X connect 3 0 29 0;
#X connect 4 0 11 0;
#X connect 4 0 27 0;
#X connect 4 0 8 0;
#X connect 4 0 5 0;
#X connect 4 0 14 0;
#X connect 5 0 1 0;
#X connect 5 0 24 0;
#X connect 5 0 26 0;
#X connect 5 0 12 0;
#X connect 5 0 13 0;
#X connect 6 2 9 1;
#X connect 7 2 10 1;
#X connect 8 0 2 0;
#X connect 8 0 3 0;
#X connect 9 0 20 0;
#X connect 10 0 19 0;
#X connect 11 0 2 0;
#X connect 11 0 3 0;
#X connect 12 0 6 0;
#X connect 12 0 7 0;
#X connect 13 0 6 0;
#X connect 13 0 7 0;
#X connect 14 0 21 0;
#X connect 15 0 31 0;
#X connect 18 0 30 0;
#X connect 21 0 2 0;
#X connect 21 0 3 0;
#X connect 22 0 2 0;
#X connect 22 0 2 1;
#X connect 23 0 3 0;
#X connect 23 0 3 1;
#X connect 24 0 7 0;
#X connect 24 0 6 0;
#X connect 25 0 4 0;
#X connect 26 0 7 0;
#X connect 26 0 6 0;
#X connect 27 0 2 0;
#X connect 27 0 3 0;
#X connect 28 0 17 0;
#X connect 29 0 16 0;
#X connect 30 0 10 0;
#X connect 31 0 9 0;
#X restore 129 853 pd supercompress;
#X obj 1792 860 * -1;
#X obj 1819 696 * -1;
#X obj 1913 618 f;
#X obj 1832 600 t f f f f b, f 14;
#X obj 1928 515 int;
#X obj 1928 564 int;
#X obj 129 835 +~;
#X obj 222 835 +~;
#X obj 1354 14 - 0.5;
#X obj 1354 -58 r oknob2;
#X obj 1354 32 * 100;
#X obj 1223 -31 r oknob1;
#X obj 1752 1088 f;
#X obj 1436 203 int;
#X obj 1928 533 / 4.41;
#X obj 1928 582 / 10000;
#X obj 518 66 - 1;
#X obj 1223 139 + 1;
#X obj 1752 1106 sel 0;
#X obj 1761 -14 sel pg_cassette;
#X obj 1674 218 sel 0 1, f 15;
#X obj 1674 130 t f f f f f f;
#X obj 1223 157 i 100;
#X msg 1872 401 /oled/gClear 3 1;
#X obj 1819 678 f;
#X obj 1805 760 f;
#X obj 1792 842 f;
#X obj 1779 924 f;
#X obj 1223 63 pack 0 100;
#X obj 1223 121 line;
#X obj 1223 25 * 99;
#X obj 1766 988 sel 100;
#X obj 1805 1006 moses 10;
#X obj 1913 636 sel 0;
#X obj 1436 185 * 1000;
#X obj 1436 221 / 1000;
#X msg 1940 680 /oled/gPrintln 3 35 24 8 1 T. \$1;
#X msg 1913 662 /oled/gPrintln 3 35 24 8 1 Timeline;
#X msg 1850 1024 /oled/gPrintln 3 35 1 8 1 Force \$1%;
#X msg 1805 1042 /oled/gPrintln 3 35 1 8 1 Force \$1%;
#X msg 1766 1060 /oled/gPrintln 3 35 1 8 1 Force 100%;
#X msg 1836 1142 /oled/gPrintln 3 35 12 8 1 P. +\$1;
#X msg 1779 1160 /oled/gPrintln 3 35 12 8 1 P. \$1;
#X msg 1752 1178 /oled/gPrintln 3 35 12 8 1 Pitch;
#X obj 1354 -22 pack 0 100;
#X obj 1354 -4 line;
#X msg 1693 1308 /oled/gClear 3 1;
#X obj 1524 -17 spigot;
#X obj 1560 59 spigot;
#X obj 1354 -40 spigot, f 9;
#X obj 1223 7 spigot;
#X obj 1766 970 f 100;
#X obj 1223 482 f 10;
#X obj 439 496 lop~ 10;
#N canvas 4 104 658 229 arrays 0;
#N canvas 4 50 450 401 (subpatch) 0;
#X array cassette-L 4.41e+07 float 2;
#X coords 0 1 4.41e+07 -1 200 140 1 0 0;
#X restore 90 20 graph;
#N canvas 0 50 450 250 (subpatch) 0;
#X array cassette-R 4.41e+07 float 2;
#X coords 0 1 4.41e+07 -1 200 140 1 0 0;
#X restore 320 20 graph;
#X restore 179 677 pd arrays;
#X obj 1805 796 + 16;
#X msg 1779 942 /oled/gFilledCircle 3 16 16 \$1 1;
#X msg 1792 896 /oled/gFilledCircle 3 111 16 \$1 1;
#X msg 1845 437 /oled/gFilledCircle 3 99 31 2 1;
#X obj 1805 778 * 1;
#X obj 1819 714 + 32;
#X msg 1819 732 /oled/gLine 3 112 \$1 100 33 1;
#X msg 1858 419 /oled/gFilledCircle 3 28 31 2 1;
#X msg 1805 814 /oled/gLine 3 15 \$1 27 33 1;
#X msg 1726 1234 /oled/gLine 3 29 33 98 33 1;
#X obj 440 718 tabread4~ cassette-R;
#X obj 445 682 tabread4~ cassette-L;
#X obj 330 907 tabwrite~ cassette-R;
#X obj 302 925 tabwrite~ cassette-L;
#X obj 1832 483 f;
#X obj 581 734 t f f;
#X obj 1832 501 t f f;
#X obj 1713 383 t b b b b b b b b b b b b b;
#X obj 1717 236 t b b;
#X msg 674 750 0;
#X obj 1713 365 metro 60;
#X obj 512 1077 clip~ -0.99 0.99;
#X obj 455 646 lop~ 10;
#X obj 512 1059 *~ 1.96;
#X obj 674 732 change;
#X obj 674 768 t f f f;
#X obj 50 319 sel 1;
#X obj 50 384 metro 500;
#X msg 55 366 stop;
#X obj 50 402 tgl 15 0 empty empty empty 17 7 0 10 -262144 -1 -1 0
1;
#X msg 111 384 0;
#X obj 77 337 t b b b, f 12;
#X obj 179 489 s aux-led-\$1;
#X obj 50 437 bng 15 250 50 0 empty empty empty 17 7 0 10 -262144 -1
-1;
#X obj 50 419 sel 0;
#X obj 179 404 f 0;
#X obj 179 461 f 3;
#X obj 77 447 * 3;
#X obj 485 114 spigot;
#X obj 950 32 moses 83;
#X obj 995 78 tgl 15 0 empty empty empty 17 7 0 10 -262144 -1 -1 0
1;
#X obj 995 105 sel 0;
#X msg 1092 207 0;
#X msg 1022 248 2;
#X obj 612 51 sel 0;
#X obj 995 50 sel 83;
#X msg 1106 179 1;
#X msg 1121 151 0;
#X msg 918 319 7;
#X obj 612 -32 sel 1;
#X obj 899 301 t b b b;
#X obj 899 407 delay 100;
#X obj 969 107 - 1;
#X obj 379 -33 spigot 1, f 10;
#X obj 924 235 spigot 1;
#X msg 1078 843 0;
#X msg 1064 871 1;
#X obj 704 893 *~ 1.96;
#X obj 566 894 *~ 1.96;
#X obj 566 952 *~;
#X obj 704 951 *~;
#X obj 742 922 lop~ 0.5;
#X obj 1022 123 t b b b b b b b b;
#X msg 1036 927 start;
#X obj 785 1041 writesf~ 2;
#X msg 995 316 stop;
#X obj 1832 547 * 17;
#X obj 1792 878 + 16;
#X obj 1524 1 / 300;
#X obj 899 14 sel 60 61;
#X obj 581 650 bang~;
#X obj 394 104 - 1;
#X obj 17 -29 t b b b;
#X obj 129 970 /~ 1.9;
#X obj 221 952 /~ 1.9;
#X msg 1050 899 open -bytes 3 /tmp/media/orac/cassette.wav;
#X msg 522 -33 1;
#X msg 570 -33 0;
#X obj 522 -51 r start;
#X obj 570 -51 r stop;
#X obj 904 263 r reset;
#X obj 384 -15 r record;
#X obj 1228 436 r arm-record;
#X obj 1374 450 sel 0;
#X obj 1228 464 * 10000;
#X obj 198 98 delay 1e+06;
#X msg 238 70 stop;
#X msg 198 116 0;
#X obj 1374 468 delay 1;
#X obj 1223 376 f 10;
#X msg 1314 477 0;
#X msg 1319 141 0;
#X obj 394 140 min 2.646e+07;
#X obj 1366 300 + 0.001025;
#X msg 17 9 4.41e+07;
#X obj 394 68 * 4.41e+07;
#X obj 674 714 min 4.41e+07;
#X obj 581 696 moses 4.41e+07;
#X obj 1524 251 * 4.41e+07;
#X obj 1524 305 min 4.41e+07;
#X obj 1928 600 min 4.41e+07;
#X obj 1832 529 / 4.41e+07;
#X obj 1223 215 / 10;
#X connect 0 0 56 0;
#X connect 1 0 4 0;
#X connect 2 0 27 0;
#X connect 2 0 34 0;
#X connect 2 0 53 0;
#X connect 2 0 55 0;
#X connect 3 0 0 0;
#X connect 4 0 3 0;
#X connect 5 0 4 0;
#X connect 5 1 3 1;
#X connect 6 0 26 0;
#X connect 6 0 52 0;
#X connect 7 0 62 0;
#X connect 8 0 21 0;
#X connect 8 0 150 0;
#X connect 8 0 151 0;
#X connect 9 0 119 0;
#X connect 9 0 10 0;
#X connect 10 0 11 0;
#X connect 11 0 12 0;
#X connect 12 0 233 0;
#X connect 13 0 15 0;
#X connect 14 0 13 0;
#X connect 14 1 17 0;
#X connect 15 0 16 0;
#X connect 16 0 19 0;
#X connect 17 0 15 1;
#X connect 18 0 13 0;
#X connect 18 1 19 1;
#X connect 19 0 9 0;
#X connect 20 0 152 0;
#X connect 20 0 153 0;
#X connect 21 0 237 0;
#X connect 22 0 18 0;
#X connect 23 0 91 1;
#X connect 24 0 92 1;
#X connect 25 0 88 0;
#X connect 26 0 28 1;
#X connect 26 0 5 0;
#X connect 26 0 180 0;
#X connect 27 0 28 1;
#X connect 28 0 5 0;
#X connect 29 0 25 0;
#X connect 30 0 32 0;
#X connect 31 0 160 0;
#X connect 33 0 212 0;
#X connect 34 0 7 1;
#X connect 35 0 45 0;
#X connect 35 1 40 0;
#X connect 35 1 46 0;
#X connect 36 0 35 0;
#X connect 36 1 104 0;
#X connect 37 0 43 0;
#X connect 38 0 37 1;
#X connect 39 0 37 0;
#X connect 40 0 37 0;
#X connect 41 0 36 0;
#X connect 42 0 37 1;
#X connect 43 0 106 0;
#X connect 44 0 38 0;
#X connect 45 0 39 0;
#X connect 46 0 44 0;
#X connect 46 0 45 0;
#X connect 49 0 83 0;
#X connect 50 0 64 0;
#X connect 50 0 166 0;
#X connect 51 0 133 0;
#X connect 52 0 175 0;
#X connect 53 0 175 0;
#X connect 54 0 127 0;
#X connect 54 1 126 0;
#X connect 55 0 22 0;
#X connect 56 0 138 0;
#X connect 57 0 58 0;
#X connect 57 1 131 0;
#X connect 57 2 31 0;
#X connect 58 0 32 0;
#X connect 59 0 32 0;
#X connect 60 0 32 0;
#X connect 62 0 70 0;
#X connect 63 0 238 0;
#X connect 64 0 66 0;
#X connect 64 0 225 0;
#X connect 64 1 20 0;
#X connect 64 1 178 0;
#X connect 64 1 226 0;
#X connect 65 0 152 0;
#X connect 65 0 153 0;
#X connect 66 0 65 0;
#X connect 67 0 211 0;
#X connect 68 0 91 0;
#X connect 69 0 92 0;
#X connect 70 0 8 0;
#X connect 71 0 1 0;
#X connect 72 0 162 0;
#X connect 73 0 101 0;
#X connect 73 0 184 0;
#X connect 74 0 193 0;
#X connect 75 0 189 0;
#X connect 76 0 239 0;
#X connect 77 0 7 1;
#X connect 78 0 132 0;
#X connect 79 0 63 0;
#X connect 79 0 235 0;
#X connect 80 0 232 0;
#X connect 81 0 79 0;
#X connect 81 1 79 1;
#X connect 82 0 76 0;
#X connect 83 0 209 0;
#X connect 84 0 153 0;
#X connect 84 0 163 0;
#X connect 84 0 198 0;
#X connect 84 0 213 0;
#X connect 84 1 152 0;
#X connect 84 1 197 0;
#X connect 84 1 214 0;
#X connect 85 0 207 0;
#X connect 86 0 145 0;
#X connect 87 0 118 0;
#X connect 88 0 112 1;
#X connect 88 1 111 1;
#X connect 88 2 110 1;
#X connect 88 3 109 1;
#X connect 88 4 87 0;
#X connect 89 0 99 0;
#X connect 90 0 100 0;
#X connect 91 0 84 0;
#X connect 92 0 84 1;
#X connect 93 0 95 0;
#X connect 94 0 134 0;
#X connect 95 0 14 0;
#X connect 96 0 135 0;
#X connect 97 0 103 0;
#X connect 98 0 120 0;
#X connect 99 0 90 0;
#X connect 100 0 240 0;
#X connect 101 0 178 1;
#X connect 102 0 107 0;
#X connect 103 0 128 0;
#X connect 103 1 54 0;
#X connect 104 0 44 0;
#X connect 104 1 42 0;
#X connect 104 1 46 0;
#X connect 105 0 57 0;
#X connect 105 1 158 0;
#X connect 106 0 105 0;
#X connect 106 2 132 1;
#X connect 106 3 133 1;
#X connect 106 4 134 1;
#X connect 106 5 135 1;
#X connect 107 0 136 1;
#X connect 107 0 242 0;
#X connect 108 0 32 0;
#X connect 109 0 86 0;
#X connect 110 0 144 0;
#X connect 111 0 85 0;
#X connect 112 0 141 0;
#X connect 113 0 114 0;
#X connect 114 0 102 0;
#X connect 115 0 113 0;
#X connect 116 0 125 0;
#X connect 116 1 117 0;
#X connect 117 0 124 0;
#X connect 117 1 123 0;
#X connect 118 0 122 0;
#X connect 118 1 121 0;
#X connect 119 0 98 0;
#X connect 120 0 97 1;
#X connect 121 0 32 0;
#X connect 122 0 32 0;
#X connect 123 0 32 0;
#X connect 124 0 32 0;
#X connect 125 0 32 0;
#X connect 126 0 32 0;
#X connect 127 0 32 0;
#X connect 128 0 32 0;
#X connect 129 0 130 0;
#X connect 130 0 93 0;
#X connect 131 0 32 0;
#X connect 132 0 208 0;
#X connect 133 0 79 0;
#X connect 134 0 129 0;
#X connect 135 0 115 0;
#X connect 136 0 116 0;
#X connect 137 0 138 1;
#X connect 137 0 162 1;
#X connect 138 0 7 0;
#X connect 140 0 148 0;
#X connect 141 0 32 0;
#X connect 142 0 32 0;
#X connect 143 0 32 0;
#X connect 144 0 140 0;
#X connect 145 0 146 0;
#X connect 146 0 32 0;
#X connect 147 0 32 0;
#X connect 148 0 32 0;
#X connect 149 0 32 0;
#X connect 150 0 24 0;
#X connect 151 0 23 0;
#X connect 154 0 156 0;
#X connect 155 0 154 1;
#X connect 155 1 66 1;
#X connect 156 0 241 0;
#X connect 156 1 89 0;
#X connect 157 0 30 0;
#X connect 157 1 149 0;
#X connect 157 2 60 0;
#X connect 157 3 97 0;
#X connect 157 4 136 0;
#X connect 157 5 112 0;
#X connect 157 6 111 0;
#X connect 157 7 110 0;
#X connect 157 8 109 0;
#X connect 157 9 154 0;
#X connect 157 10 143 0;
#X connect 157 11 147 0;
#X connect 157 12 108 0;
#X connect 158 0 160 0;
#X connect 158 1 59 0;
#X connect 159 0 165 0;
#X connect 160 0 157 0;
#X connect 161 0 60 1;
#X connect 162 0 8 1;
#X connect 163 0 161 0;
#X connect 164 0 159 0;
#X connect 165 0 73 0;
#X connect 165 1 50 0;
#X connect 165 2 7 1;
#X connect 166 0 167 0;
#X connect 166 1 171 0;
#X connect 167 0 169 0;
#X connect 168 0 167 0;
#X connect 169 0 174 0;
#X connect 170 0 169 0;
#X connect 171 0 175 0;
#X connect 171 1 170 0;
#X connect 171 2 168 0;
#X connect 173 0 175 0;
#X connect 174 0 173 0;
#X connect 174 1 177 0;
#X connect 175 0 176 0;
#X connect 176 0 172 0;
#X connect 177 0 176 0;
#X connect 178 0 52 0;
#X connect 179 0 55 0;
#X connect 179 1 185 0;
#X connect 180 0 181 0;
#X connect 180 0 192 0;
#X connect 181 0 175 0;
#X connect 181 0 205 0;
#X connect 181 1 202 0;
#X connect 182 0 7 1;
#X connect 183 0 176 0;
#X connect 184 0 6 0;
#X connect 184 1 2 0;
#X connect 185 0 180 0;
#X connect 186 0 73 0;
#X connect 187 0 50 0;
#X connect 188 0 172 0;
#X connect 189 0 73 0;
#X connect 190 0 191 0;
#X connect 190 1 188 0;
#X connect 190 2 77 0;
#X connect 191 0 176 0;
#X connect 192 0 193 1;
#X connect 192 0 194 1;
#X connect 193 0 50 0;
#X connect 194 0 50 0;
#X connect 195 0 201 0;
#X connect 196 0 201 0;
#X connect 197 0 200 0;
#X connect 198 0 199 0;
#X connect 199 0 204 0;
#X connect 200 0 204 1;
#X connect 201 0 200 1;
#X connect 201 0 199 1;
#X connect 202 0 183 0;
#X connect 202 1 203 0;
#X connect 202 2 215 0;
#X connect 202 3 196 0;
#X connect 202 4 195 0;
#X connect 202 5 182 0;
#X connect 202 6 186 0;
#X connect 202 7 187 0;
#X connect 203 0 204 0;
#X connect 205 0 204 0;
#X connect 206 0 29 0;
#X connect 207 0 142 0;
#X connect 208 0 81 0;
#X connect 209 0 190 0;
#X connect 209 1 194 0;
#X connect 209 2 179 0;
#X connect 210 0 21 0;
#X connect 211 0 80 0;
#X connect 212 0 234 0;
#X connect 212 1 6 0;
#X connect 212 2 210 0;
#X connect 213 0 47 0;
#X connect 214 0 48 0;
#X connect 215 0 204 0;
#X connect 216 0 73 0;
#X connect 217 0 73 0;
#X connect 218 0 216 0;
#X connect 219 0 217 0;
#X connect 220 0 190 0;
#X connect 221 0 50 0;
#X connect 222 0 224 0;
#X connect 222 0 223 0;
#X connect 222 0 230 0;
#X connect 223 0 228 0;
#X connect 224 0 137 0;
#X connect 225 0 227 0;
#X connect 226 0 225 0;
#X connect 227 0 50 0;
#X connect 228 0 229 0;
#X connect 229 0 137 0;
#X connect 230 0 9 0;
#X connect 232 0 66 1;
#X connect 233 0 28 0;
#X connect 234 0 70 1;
#X connect 234 0 71 0;
#X connect 235 0 67 0;
#X connect 236 0 164 0;
#X connect 237 0 155 0;
#X connect 237 1 236 0;
#X connect 238 0 82 0;
#X connect 239 0 72 0;
#X connect 240 0 87 1;
#X connect 241 0 206 0;
#X connect 242 0 229 0;
