#N canvas 11 50 544 643 10;
#X obj 89 75 t b b;
#X obj 116 178 + 1;
#X obj 116 160 f 0;
#X obj 89 142 t a b;
#X msg 417 103 0;
#X obj 116 196 nbx 5 14 -1e+37 1e+37 0 0 empty empty empty 0 -8 0 10
-262144 -1 -1 18 256;
#X obj 89 265 list append;
#X obj 89 303 list;
#X obj 68 411 list;
#X obj 223 208 inlet;
#X obj 481 397 t b f;
#X obj 102 447 list split 1;
#X obj 68 429 list split 0;
#X msg 102 475 \$1;
#X obj 102 493 outlet;
#X obj 154 475 s2l /;
#X obj 181 511 list length;
#X obj 154 493 t a a;
#X obj 181 529 - 1;
#X obj 154 557 list split;
#X msg 182 575 \$1;
#X obj 182 593 outlet;
#X obj 89 124 folder_list;
#X obj 191 47 r soundshare_refresh;
#X obj 116 222 - 0.05;
#X obj 89 47 inlet;
#X msg 89 106 symbol /tmp/media/cassettes/*.wav;
#X obj 272 208 inlet;
#X obj 223 236 f;
#X obj 272 236 f;
#X obj 223 274 - 1;
#X obj 272 274 + 1;
#X obj 223 292 int;
#X obj 223 310 change;
#X floatatom 223 384 5 0 0 0 - - -;
#X obj 272 292 int;
#X obj 272 310 change;
#X floatatom 272 384 5 0 0 0 - - -;
#X obj 223 328 max 1;
#X obj 272 328 max 1;
#X obj 223 366 min;
#X obj 272 366 min;
#X connect 0 0 26 0;
#X connect 0 1 4 0;
#X connect 1 0 2 1;
#X connect 1 0 5 0;
#X connect 2 0 1 0;
#X connect 3 0 6 0;
#X connect 3 1 2 0;
#X connect 4 0 2 1;
#X connect 5 0 24 0;
#X connect 5 0 40 1;
#X connect 5 0 41 1;
#X connect 6 0 7 0;
#X connect 7 0 6 1;
#X connect 7 0 8 1;
#X connect 8 0 12 0;
#X connect 9 0 28 0;
#X connect 10 0 8 0;
#X connect 10 1 12 1;
#X connect 10 1 28 1;
#X connect 10 1 29 1;
#X connect 11 0 13 0;
#X connect 11 0 15 0;
#X connect 12 1 11 0;
#X connect 13 0 14 0;
#X connect 15 0 17 0;
#X connect 16 0 18 0;
#X connect 17 0 19 0;
#X connect 17 1 16 0;
#X connect 18 0 19 1;
#X connect 19 1 20 0;
#X connect 20 0 21 0;
#X connect 22 0 3 0;
#X connect 23 0 0 0;
#X connect 24 0 28 1;
#X connect 24 0 29 1;
#X connect 25 0 0 0;
#X connect 26 0 22 0;
#X connect 27 0 29 0;
#X connect 28 0 30 0;
#X connect 29 0 31 0;
#X connect 30 0 32 0;
#X connect 31 0 35 0;
#X connect 32 0 33 0;
#X connect 33 0 38 0;
#X connect 34 0 10 0;
#X connect 35 0 36 0;
#X connect 36 0 39 0;
#X connect 37 0 10 0;
#X connect 38 0 40 0;
#X connect 39 0 41 0;
#X connect 40 0 34 0;
#X connect 41 0 37 0;
