#N canvas 241 67 1351 716 10;
#X obj 64 94 pack 0 0 0, f 11;
#X obj 47 115 route 1 2 3 4 5 6 7 8, f 81;
#X text 24 19 basic polyphonic patch with 8 voices;
#X text 299 98 aircraft carrier;
#X obj 79 317 bng 15 250 50 0 empty empty empty 17 7 0 10 -262144 -1
-1;
#X obj 71 72 poly 8, f 11;
#X obj 137 41 inlet;
#X obj 235 546 outlet~;
#N canvas 0 50 450 250 (subpatch) 0;
#X array wavemap-\$1 6144 float 2;
#X coords 0 1 6144 -1 400 50 1 0 0;
#X restore 372 18 graph;
#X obj 550 285 soundfiler;
#X obj 577 207 nbx 5 14 -1e+037 1e+037 0 0 empty empty empty 0 -8 0
10 -262144 -1 -1 0 256;
#X msg 578 256 read -resize ./samplemap/\$1.wav wavemap-\$2;
#X obj 599 175 r waveselect-\$1;
#X obj 56 180 voice \$1;
#X obj 573 231 list append \$1;
#X obj 850 346 r filt_cutoff-\$1;
#X obj 854 399 lop~ 5;
#X obj 865 433 s~ filt_cuttoff_sig-\$1;
#X obj 127 181 voice \$1;
#X obj 197 181 voice \$1;
#X obj 265 187 voice \$1;
#X obj 350 159 voice \$1;
#X obj 420 159 voice \$1;
#X obj 479 165 voice \$1;
#X obj 556 156 voice \$1;
#X obj 854 376 sig~ 12;
#X obj 414 385 r filttype-\$1;
#X obj 392 550 s aux-label-\$1;
#X msg 360 487 Filter: Off;
#X msg 598 484 Filter: Analog;
#X obj 336 310 r volume-\$1;
#X obj 347 354 * 0.005;
#X obj 270 411 lop~ 5;
#X obj 332 386 sig~ 0.35;
#X obj 191 402 *~;
#X msg 439 484 Filter: Digital BP;
#X msg 464 509 Filter: Digital LP;
#X obj 580 419 == 3;
#X obj 255 5 r ctrlIn-\$1;
#X obj 255 33 unpack 0 0 0;
#X obj 255 54 sel 123;
#X msg 253 77 stop;
#X obj 358 435 sel 0;
#X obj 448 427 sel 1;
#X obj 508 433 sel 2;
#X connect 0 0 1 0;
#X connect 1 0 4 0;
#X connect 1 0 13 0;
#X connect 1 1 18 0;
#X connect 1 2 19 0;
#X connect 1 3 20 0;
#X connect 1 4 21 0;
#X connect 1 5 22 0;
#X connect 1 6 23 0;
#X connect 1 7 24 0;
#X connect 5 0 0 0;
#X connect 5 1 0 1;
#X connect 5 2 0 2;
#X connect 6 0 5 0;
#X connect 10 0 14 0;
#X connect 11 0 9 0;
#X connect 12 0 10 0;
#X connect 13 0 34 0;
#X connect 14 0 11 0;
#X connect 15 0 25 0;
#X connect 16 0 17 0;
#X connect 18 0 34 0;
#X connect 19 0 34 0;
#X connect 20 0 34 0;
#X connect 21 0 34 0;
#X connect 22 0 34 0;
#X connect 23 0 34 0;
#X connect 24 0 34 0;
#X connect 25 0 16 0;
#X connect 26 0 37 0;
#X connect 26 0 42 0;
#X connect 26 0 43 0;
#X connect 26 0 44 0;
#X connect 28 0 27 0;
#X connect 29 0 27 0;
#X connect 30 0 31 0;
#X connect 31 0 33 0;
#X connect 32 0 34 1;
#X connect 33 0 32 0;
#X connect 34 0 7 0;
#X connect 35 0 27 0;
#X connect 36 0 27 0;
#X connect 37 0 29 0;
#X connect 38 0 39 0;
#X connect 39 0 40 0;
#X connect 40 0 41 0;
#X connect 41 0 5 0;
#X connect 42 0 28 0;
#X connect 43 0 35 0;
#X connect 44 0 36 0;
