#N canvas 0 50 625 529 10;
#X obj 192 21 inlet;
#X obj 212 387 blsaw;
#X obj 149 199 mtof;
#X obj 222 328 line~;
#X msg 190 240 \$1 250;
#X obj 192 64 sel -1;
#X obj 348 21 inlet;
#X obj 342 91 sel 0 1;
#X obj 379 126 delay 25;
#X obj 335 190 list 250;
#X msg 357 273 250;
#X obj 257 426 outlet~;
#X obj 179 98 + 0;
#X obj 244 117 r transpose-\$1;
#X obj 97 277 list 250;
#X obj 213 201 r glide-\$1;
#X connect 0 0 5 0;
#X connect 1 0 11 0;
#X connect 2 0 4 0;
#X connect 2 0 14 0;
#X connect 3 0 1 0;
#X connect 5 1 12 0;
#X connect 6 0 7 0;
#X connect 7 2 8 0;
#X connect 8 0 10 0;
#X connect 12 0 2 0;
#X connect 13 0 12 1;
#X connect 14 0 3 0;
#X connect 15 0 14 1;
