#N canvas 0 50 625 529 10;
#X obj 192 21 inlet;
#X obj 212 387 blsaw;
#X obj 149 199 mtof;
#X obj 179 98 - 24;
#X obj 222 328 line~;
#X msg 204 226 \$1 250;
#X obj 192 64 sel -1;
#X obj 348 21 inlet;
#X obj 342 91 sel 0 1;
#X obj 379 126 delay 25;
#X obj 335 190 list 250;
#X msg 357 273 250;
#X obj 257 426 outlet~;
#X connect 0 0 6 0;
#X connect 1 0 12 0;
#X connect 2 0 5 0;
#X connect 3 0 2 0;
#X connect 4 0 1 0;
#X connect 5 0 4 0;
#X connect 6 1 3 0;
#X connect 7 0 8 0;
#X connect 8 2 9 0;
#X connect 9 0 11 0;
