#N canvas 0 50 625 529 10;
#X obj 192 21 inlet;
#X obj 212 387 blsaw;
#X obj 154 154 mtof;
#X obj 219 348 line~;
#X obj 192 64 sel -1;
#X obj 347 7 inlet;
#X obj 378 47 sel 0 1;
#X obj 347 126 delay 25;
#X obj 257 426 outlet~;
#X obj 179 98 + 0;
#X obj 244 117 r transpose-\$1;
#X obj 97 277 list 250;
#X obj 123 250 r glide-\$1;
#X obj 240 164 t b f;
#X obj 265 257 list 25;
#X obj 141 312 spigot 0;
#X obj 262 319 spigot 1;
#X msg 333 281 0;
#X msg 334 170 1;
#X text 428 165 no glide 25s after gate;
#X msg 301 165 0;
#X msg 422 285 1;
#X obj 104 212 pipe 24;
#X obj 418 238 delay 25;
#X obj 213 198 pipe 1;
#X msg 376 284 1;
#X obj 379 25 change -1;
#X connect 0 0 4 0;
#X connect 1 0 8 0;
#X connect 2 0 22 0;
#X connect 2 0 24 0;
#X connect 3 0 1 0;
#X connect 4 1 9 0;
#X connect 5 0 26 0;
#X connect 6 0 20 0;
#X connect 6 0 23 0;
#X connect 6 1 7 0;
#X connect 6 1 25 0;
#X connect 7 0 17 0;
#X connect 7 0 18 0;
#X connect 9 0 2 0;
#X connect 10 0 13 0;
#X connect 11 0 15 0;
#X connect 12 0 11 1;
#X connect 13 0 9 0;
#X connect 13 1 9 1;
#X connect 14 0 16 0;
#X connect 15 0 3 0;
#X connect 16 0 3 0;
#X connect 17 0 16 1;
#X connect 18 0 15 1;
#X connect 20 0 15 1;
#X connect 21 0 16 1;
#X connect 22 0 11 0;
#X connect 23 0 21 0;
#X connect 24 0 14 0;
#X connect 25 0 16 1;
#X connect 26 0 6 0;
