#N canvas -8 -8 1360 725 10;
#X obj 314 347 *~;
#X obj 265 325 bob~, f 18;
#X obj 611 230 sig~ 2;
#X obj 575 132 line~;
#X obj 666 195 +~ 1;
#X obj 572 208 *~;
#X obj 591 168 *~ 1200;
#X obj 665 108 osc~ 4;
#X obj 680 164 *~ 0.1;
#X obj 185 196 route 0 1 2 3 4 5 6 7, f 31;
#X obj 201 165 oscpool 8;
#X msg 103 -22 72 100;
#X msg 106 10 72 0;
#X msg 45 -22 79 100;
#X msg 43 10 79 0;
#X msg 32 72 76 100;
#X msg 30 106 76 0;
#X msg 90 72 84 100;
#X msg 87 104 84 0;
#X msg 56 221 note \$1 \$2;
#X msg 40 140 83 100;
#X msg 37 172 83 0;
#X obj 484 6 nbx 5 14 -1e+037 1e+037 0 0 empty empty empty 0 -8 0 10
-262144 -1 -1 0 256;
#X msg 196 89 reset;
#X obj 165 33 inlet;
#X obj 333 384 *~ 0.1;
#X obj 243 272 +~;
#X obj 332 416 outlet~;
#X text 788 106 params transpose attack decay cutoff lfo_f lfo_pitch
;
#X obj 144 219 osc \$1;
#X obj 145 251 osc \$1;
#X obj 242 241 osc \$1;
#X obj 195 230 osc \$1;
#X obj 271 230 osc \$1;
#X obj 296 252 osc \$1;
#X obj 335 234 osc \$1;
#X obj 347 251 osc \$1;
#X obj 551 109 list 250;
#X obj 588 82 r attack-\$1;
#X obj 430 114 list 250;
#X obj 456 87 r decay-\$1;
#X obj 440 48 sel 0 1;
#X obj 719 26 r cutoff-\$1;
#X obj 572 448 r resonance-\$1;
#X connect 0 0 25 0;
#X connect 1 0 0 0;
#X connect 2 0 1 2;
#X connect 3 0 0 1;
#X connect 3 0 6 0;
#X connect 4 0 5 1;
#X connect 5 0 1 1;
#X connect 6 0 5 0;
#X connect 7 0 8 0;
#X connect 8 0 4 0;
#X connect 9 0 29 0;
#X connect 9 1 30 0;
#X connect 9 2 31 0;
#X connect 9 3 32 0;
#X connect 9 4 33 0;
#X connect 9 5 34 0;
#X connect 9 6 35 0;
#X connect 9 7 36 0;
#X connect 10 0 9 0;
#X connect 10 1 22 0;
#X connect 10 1 29 1;
#X connect 10 1 30 1;
#X connect 10 1 31 1;
#X connect 10 1 32 1;
#X connect 10 1 33 1;
#X connect 10 1 34 1;
#X connect 10 1 35 1;
#X connect 10 1 36 1;
#X connect 11 0 19 0;
#X connect 12 0 19 0;
#X connect 13 0 19 0;
#X connect 14 0 19 0;
#X connect 15 0 19 0;
#X connect 16 0 19 0;
#X connect 17 0 19 0;
#X connect 18 0 19 0;
#X connect 19 0 10 0;
#X connect 20 0 19 0;
#X connect 21 0 19 0;
#X connect 22 0 41 0;
#X connect 23 0 10 0;
#X connect 24 0 19 0;
#X connect 25 0 27 0;
#X connect 26 0 1 0;
#X connect 29 0 26 0;
#X connect 30 0 26 0;
#X connect 31 0 26 0;
#X connect 32 0 26 0;
#X connect 33 0 26 0;
#X connect 34 0 26 0;
#X connect 35 0 26 0;
#X connect 36 0 26 0;
#X connect 37 0 3 0;
#X connect 38 0 37 1;
#X connect 39 0 3 0;
#X connect 40 0 39 1;
#X connect 41 0 39 0;
#X connect 41 1 37 0;
#X connect 42 0 6 1;
#X connect 43 0 2 0;
