#N canvas 75 46 1268 762 10;
#X obj 193 833 hip~ 5;
#X obj 208 879 *~;
#X obj 209 939 *~ 1;
#X obj 208 973 outlet~;
#X obj 197 783 tabread4~ bsamp-\$1-newsample, f 19;
#X obj 227 615 r bsamp-\$1-dur;
#X obj 293 135 inlet;
#X obj 499 543 vline~;
#X msg 417 340 \$1 5;
#X obj 136 676 *~;
#X obj 149 293 r master-ticks;
#X obj 149 313 sel 0;
#X obj 65 417 r master-bpm;
#X obj 67 466 / 4;
#X obj 66 440 / 60;
#X obj 140 639 phasor~ 1;
#X obj 152 353 spigot 0;
#X msg 221 354 0;
#X obj 246 401 bng 15 250 50 0 empty empty empty 17 7 0 10 -262144
-1 -1;
#X text 209 380 trigger;
#X obj 332 204 sel 0 1;
#X msg 275 443 1;
#X msg 361 270 0;
#X obj 64 141 r beats-\$1;
#X obj 60 302 t b f;
#X msg 255 235 1;
#X obj 141 461 spigot 0;
#X msg 210 462 0;
#X msg 174 423 1;
#X floatatom 58 600 5 0 0 0 - - -;
#X msg 296 74;
#X connect 0 0 1 0;
#X connect 1 0 2 0;
#X connect 2 0 3 0;
#X connect 4 0 0 0;
#X connect 5 0 9 1;
#X connect 6 0 20 0;
#X connect 7 0 1 1;
#X connect 8 0 7 0;
#X connect 9 0 4 0;
#X connect 10 0 11 0;
#X connect 11 0 16 0;
#X connect 11 0 26 0;
#X connect 12 0 14 0;
#X connect 13 0 15 0;
#X connect 13 0 29 0;
#X connect 14 0 13 0;
#X connect 15 0 9 0;
#X connect 16 0 17 0;
#X connect 16 0 18 0;
#X connect 17 0 16 1;
#X connect 18 0 15 1;
#X connect 18 0 21 0;
#X connect 20 0 22 0;
#X connect 20 1 25 0;
#X connect 21 0 8 0;
#X connect 22 0 8 0;
#X connect 23 0 24 0;
#X connect 24 0 13 0;
#X connect 24 0 28 0;
#X connect 24 1 13 1;
#X connect 25 0 16 1;
#X connect 26 0 27 0;
#X connect 26 0 15 1;
#X connect 27 0 26 1;
#X connect 28 0 26 1;
