#N canvas 83 249 1367 695 10;
#X obj 17 1098 outlet~ outL-\$1;
#X obj 126 1098 outlet~ outR-\$1;
#N canvas 593 63 1323 671 plaits_kick_accent 0;
#X obj 20 582 outlet~ outL-\$1;
#X obj 117 594 outlet~ outR-\$1;
#X obj 410 380 plts~;
#X obj 314 501 s notesOut-\$1;
#X msg 520 240 harmonics \$1;
#X msg 525 279 timbre \$1;
#X msg 603 262 morph \$1;
#X msg 623 283 lpg_colour \$1;
#X msg 711 404 decay \$1;
#X msg 791 241 mod_fm \$1;
#X msg 814 264 mod_morph \$1;
#X msg 767 218 mod_timbre \$1;
#X obj 353 150 > 0;
#X msg 350 179 trigger \$1;
#X obj 653 190 r lpg_colour-\$1;
#X obj 741 333 r decay-\$1;
#X obj 763 122 r mod_timbre-\$1;
#X obj 822 145 r mod_fm-\$1;
#X obj 865 186 r mod_morph-\$1;
#X obj 939 391 vsl 15 128 0 1 0 0 empty empty har 0 -9 0 10 -262144
-1 -1 0 1;
#X obj 962 391 vsl 15 128 0 1 0 0 empty empty tim 0 -9 0 10 -262144
-1 -1 0 1;
#X obj 984 391 vsl 15 128 0 1 0 0 empty empty mor 0 -9 0 10 -262144
-1 -1 0 1;
#X obj 1007 391 vsl 15 128 0 1 0 0 empty empty lpg 0 -9 0 10 -262144
-1 -1 0 1;
#X obj 1030 391 vsl 15 128 0 1 0 0 empty empty dec 0 -9 0 10 -262144
-1 -1 0 1;
#X obj 1150 391 vsl 15 128 -1 1 0 0 empty empty mti 0 -9 0 10 -262144
-1 -1 0 1;
#X obj 1174 391 vsl 15 128 -1 1 0 0 empty empty fm 0 -9 0 10 -262144
-1 -1 0 1;
#X obj 1197 391 vsl 15 128 -1 1 0 0 empty empty mmo 0 -9 0 10 -262144
-1 -1 0 1;
#X msg 338 296 pitch \$1;
#X obj 278 192 + 0;
#X obj 336 228 - 60;
#X obj 351 261 / 12;
#X obj 242 104 notein_mono;
#X obj 321 68 poly 1 1;
#X obj 61 542 *~ 0.5;
#X obj 208 538 *~ 0.5;
#X obj 157 461 *~ 1;
#X obj 447 133 t b f;
#X obj 525 200 / 100;
#X obj 575 177 / 100;
#X obj 613 196 / 100;
#X obj 638 226 / 100;
#X obj 730 362 / 100;
#X obj 322 114 + 1.46;
#X text 289 134 48 khz;
#X obj 293 22 inlet;
#X msg 224 347 trigger_active 1;
#X obj 109 94 r loadbang-\$1;
#X msg 457 251 model 13;
#X obj 425 28 r kick2_semitone-\$1;
#X obj 551 5 r kick2_harmonics-\$1;
#X obj 684 8 r kick2_timbre-\$1;
#X obj 678 72 r kick2_morph-\$1;
#X obj 669 149 max 0;
#X obj 447 97 +;
#X obj 554 65 +;
#X obj 611 67 +;
#X obj 669 131 +;
#X obj 554 83 max 0;
#X obj 554 101 min 100;
#X obj 611 87 max 0;
#X obj 611 105 min 100;
#X obj 669 167 min 100;
#X obj 452 69 t b f;
#X obj 561 44 t b f;
#X obj 690 45 t b f;
#X obj 684 111 t b f;
#X obj 452 51 r semitone-\$1;
#X obj 561 26 r harmonics-\$1;
#X obj 690 27 r timbre-\$1;
#X obj 684 93 r morph-\$1;
#X obj 447 115 - 1;
#X connect 2 0 35 0;
#X connect 4 0 2 0;
#X connect 5 0 2 0;
#X connect 6 0 2 0;
#X connect 7 0 2 0;
#X connect 8 0 2 0;
#X connect 9 0 2 0;
#X connect 10 0 2 0;
#X connect 11 0 2 0;
#X connect 12 0 13 0;
#X connect 13 0 2 0;
#X connect 14 0 40 0;
#X connect 15 0 41 0;
#X connect 16 0 11 0;
#X connect 17 0 9 0;
#X connect 18 0 10 0;
#X connect 27 0 2 0;
#X connect 28 0 29 0;
#X connect 29 0 30 0;
#X connect 30 0 27 0;
#X connect 32 1 42 0;
#X connect 32 2 12 0;
#X connect 33 0 0 0;
#X connect 34 0 1 0;
#X connect 35 0 33 0;
#X connect 35 0 34 0;
#X connect 36 0 28 0;
#X connect 36 1 28 1;
#X connect 37 0 4 0;
#X connect 38 0 5 0;
#X connect 39 0 6 0;
#X connect 40 0 7 0;
#X connect 41 0 8 0;
#X connect 42 0 28 0;
#X connect 44 0 31 0;
#X connect 44 0 32 0;
#X connect 45 0 2 0;
#X connect 46 0 45 0;
#X connect 46 0 47 0;
#X connect 47 0 2 0;
#X connect 48 0 53 0;
#X connect 49 0 54 0;
#X connect 50 0 55 0;
#X connect 51 0 56 0;
#X connect 52 0 61 0;
#X connect 53 0 70 0;
#X connect 54 0 57 0;
#X connect 55 0 59 0;
#X connect 56 0 52 0;
#X connect 57 0 58 0;
#X connect 58 0 37 0;
#X connect 59 0 60 0;
#X connect 60 0 38 0;
#X connect 61 0 39 0;
#X connect 62 0 53 0;
#X connect 62 1 53 1;
#X connect 63 0 54 0;
#X connect 63 1 54 1;
#X connect 64 0 55 0;
#X connect 64 1 55 1;
#X connect 65 0 56 0;
#X connect 65 1 56 1;
#X connect 66 0 62 0;
#X connect 67 0 63 0;
#X connect 68 0 64 0;
#X connect 69 0 65 0;
#X connect 70 0 36 0;
#X restore 321 361 pd plaits_kick_accent;
#N canvas 4 50 1323 671 plaits_kick 0;
#X obj 20 622 outlet~ outL-\$1;
#X obj 117 634 outlet~ outR-\$1;
#X obj 410 420 plts~;
#X obj 314 541 s notesOut-\$1;
#X msg 520 280 harmonics \$1;
#X msg 525 319 timbre \$1;
#X msg 603 302 morph \$1;
#X msg 623 323 lpg_colour \$1;
#X msg 711 444 decay \$1;
#X msg 791 281 mod_fm \$1;
#X msg 814 304 mod_morph \$1;
#X msg 767 258 mod_timbre \$1;
#X obj 353 190 > 0;
#X msg 350 219 trigger \$1;
#X obj 669 236 r lpg_colour-\$1;
#X obj 741 373 r decay-\$1;
#X obj 763 162 r mod_timbre-\$1;
#X obj 822 185 r mod_fm-\$1;
#X obj 865 226 r mod_morph-\$1;
#X obj 939 431 vsl 15 128 0 1 0 0 empty empty har 0 -9 0 10 -262144
-1 -1 0 1;
#X obj 962 431 vsl 15 128 0 1 0 0 empty empty tim 0 -9 0 10 -262144
-1 -1 0 1;
#X obj 984 431 vsl 15 128 0 1 0 0 empty empty mor 0 -9 0 10 -262144
-1 -1 0 1;
#X obj 1007 431 vsl 15 128 0 1 0 0 empty empty lpg 0 -9 0 10 -262144
-1 -1 0 1;
#X obj 1030 431 vsl 15 128 0 1 0 0 empty empty dec 0 -9 0 10 -262144
-1 -1 0 1;
#X obj 1150 431 vsl 15 128 -1 1 0 0 empty empty mti 0 -9 0 10 -262144
-1 -1 0 1;
#X obj 1174 431 vsl 15 128 -1 1 0 0 empty empty fm 0 -9 0 10 -262144
-1 -1 0 1;
#X obj 1197 431 vsl 15 128 -1 1 0 0 empty empty mmo 0 -9 0 10 -262144
-1 -1 0 1;
#X msg 338 336 pitch \$1;
#X obj 278 232 + 0;
#X obj 336 268 - 60;
#X obj 351 301 / 12;
#X obj 242 144 notein_mono;
#X obj 321 108 poly 1 1;
#X obj 61 582 *~ 0.5;
#X obj 208 578 *~ 0.5;
#X obj 157 501 *~ 1;
#X obj 106 150 t b f;
#X obj 520 240 / 100;
#X obj 568 217 / 100;
#X obj 603 283 / 100;
#X obj 638 266 / 100;
#X obj 730 402 / 100;
#X obj 322 154 + 1.46;
#X text 289 174 48 khz;
#X obj 293 62 inlet;
#X msg 224 387 trigger_active 1;
#X obj 167 276 r loadbang-\$1;
#X msg 457 291 model 13;
#X obj 613 215 max 0;
#X obj 106 132 +;
#X obj 520 102 +;
#X obj 568 138 +;
#X obj 613 197 +;
#X obj 520 120 max 0;
#X obj 520 138 min 100;
#X obj 568 158 max 0;
#X obj 568 176 min 100;
#X obj 613 233 min 100;
#X obj 111 104 t b f;
#X obj 535 42 t b f;
#X obj 583 98 t b f;
#X obj 628 177 t b f;
#X obj 111 86 r semitone-\$1;
#X obj 106 50 r kick1_semitone-\$1;
#X obj 520 6 r kick1_harmonics-\$1;
#X obj 535 24 r harmonics-\$1;
#X obj 568 62 r kick1_timbre-\$1;
#X obj 583 80 r timbre-\$1;
#X obj 613 118 r kick1_morph-\$1;
#X obj 628 159 r morph-\$1;
#X connect 2 1 35 0;
#X connect 4 0 2 0;
#X connect 5 0 2 0;
#X connect 6 0 2 0;
#X connect 7 0 2 0;
#X connect 8 0 2 0;
#X connect 9 0 2 0;
#X connect 10 0 2 0;
#X connect 11 0 2 0;
#X connect 12 0 13 0;
#X connect 13 0 2 0;
#X connect 14 0 40 0;
#X connect 15 0 41 0;
#X connect 16 0 11 0;
#X connect 17 0 9 0;
#X connect 18 0 10 0;
#X connect 27 0 2 0;
#X connect 28 0 29 0;
#X connect 29 0 30 0;
#X connect 30 0 27 0;
#X connect 32 1 42 0;
#X connect 32 2 12 0;
#X connect 33 0 0 0;
#X connect 34 0 1 0;
#X connect 35 0 33 0;
#X connect 35 0 34 0;
#X connect 36 0 28 0;
#X connect 36 1 28 1;
#X connect 37 0 4 0;
#X connect 38 0 5 0;
#X connect 39 0 6 0;
#X connect 40 0 7 0;
#X connect 41 0 8 0;
#X connect 42 0 28 0;
#X connect 44 0 31 0;
#X connect 44 0 32 0;
#X connect 45 0 2 0;
#X connect 46 0 45 0;
#X connect 46 0 47 0;
#X connect 47 0 2 0;
#X connect 48 0 57 0;
#X connect 49 0 36 0;
#X connect 50 0 53 0;
#X connect 51 0 55 0;
#X connect 52 0 48 0;
#X connect 53 0 54 0;
#X connect 54 0 37 0;
#X connect 55 0 56 0;
#X connect 56 0 38 0;
#X connect 57 0 39 0;
#X connect 58 0 49 0;
#X connect 58 1 49 1;
#X connect 59 0 50 0;
#X connect 59 1 50 1;
#X connect 60 0 51 0;
#X connect 60 1 51 1;
#X connect 61 0 52 0;
#X connect 61 1 52 1;
#X connect 62 0 58 0;
#X connect 63 0 49 0;
#X connect 64 0 50 0;
#X connect 65 0 59 0;
#X connect 66 0 51 0;
#X connect 67 0 60 0;
#X connect 68 0 52 0;
#X connect 69 0 61 0;
#X restore 86 331 pd plaits_kick;
#N canvas 4 50 1323 671 plaits_snare 0;
#X obj 20 582 outlet~ outL-\$1;
#X obj 117 594 outlet~ outR-\$1;
#X obj 410 380 plts~;
#X obj 314 501 s notesOut-\$1;
#X msg 520 240 harmonics \$1;
#X msg 525 279 timbre \$1;
#X msg 603 262 morph \$1;
#X msg 623 283 lpg_colour \$1;
#X msg 711 404 decay \$1;
#X msg 791 241 mod_fm \$1;
#X msg 814 264 mod_morph \$1;
#X msg 767 218 mod_timbre \$1;
#X obj 353 150 > 0;
#X msg 350 179 trigger \$1;
#X obj 683 190 r lpg_colour-\$1;
#X obj 741 333 r decay-\$1;
#X obj 763 122 r mod_timbre-\$1;
#X obj 822 145 r mod_fm-\$1;
#X obj 865 186 r mod_morph-\$1;
#X obj 939 391 vsl 15 128 0 1 0 0 empty empty har 0 -9 0 10 -262144
-1 -1 0 1;
#X obj 962 391 vsl 15 128 0 1 0 0 empty empty tim 0 -9 0 10 -262144
-1 -1 0 1;
#X obj 984 391 vsl 15 128 0 1 0 0 empty empty mor 0 -9 0 10 -262144
-1 -1 0 1;
#X obj 1007 391 vsl 15 128 0 1 0 0 empty empty lpg 0 -9 0 10 -262144
-1 -1 0 1;
#X obj 1030 391 vsl 15 128 0 1 0 0 empty empty dec 0 -9 0 10 -262144
-1 -1 0 1;
#X obj 1150 391 vsl 15 128 -1 1 0 0 empty empty mti 0 -9 0 10 -262144
-1 -1 0 1;
#X obj 1174 391 vsl 15 128 -1 1 0 0 empty empty fm 0 -9 0 10 -262144
-1 -1 0 1;
#X obj 1197 391 vsl 15 128 -1 1 0 0 empty empty mmo 0 -9 0 10 -262144
-1 -1 0 1;
#X msg 338 296 pitch \$1;
#X obj 278 192 + 0;
#X obj 336 228 - 60;
#X obj 351 261 / 12;
#X obj 242 104 notein_mono;
#X obj 321 68 poly 1 1;
#X obj 61 542 *~ 0.5;
#X obj 208 538 *~ 0.5;
#X obj 157 461 *~ 1;
#X obj 38 130 t b f;
#X obj 525 200 / 100;
#X obj 575 177 / 100;
#X obj 623 195 / 100;
#X obj 668 226 / 100;
#X obj 730 362 / 100;
#X obj 322 114 + 1.46;
#X text 289 134 48 khz;
#X obj 293 22 inlet;
#X msg 224 347 trigger_active 1;
#X obj 119 86 r loadbang-\$1;
#X msg 457 251 model 14;
#X obj 623 213 max 0;
#X obj 38 38 - 6;
#X obj 38 94 +;
#X obj 525 84 +;
#X obj 575 119 +;
#X obj 623 137 +;
#X obj 525 102 max 0;
#X obj 575 137 max 0;
#X obj 575 155 min 100;
#X obj 623 155 max 0;
#X obj 623 173 min 100;
#X obj 525 120 min 100;
#X obj 38 20 r snare1_semitone-\$1;
#X obj 70 41 r semitone-\$1;
#X obj 525 8 r snare1_harmonics-\$1;
#X obj 531 26 r harmonics-\$1;
#X obj 575 47 r snare1_timbre-\$1;
#X obj 580 65 r timbre-\$1;
#X obj 623 83 r snare1_morph-\$1;
#X obj 638 101 r morph-\$1;
#X obj 70 59 t b f;
#X obj 531 47 t b f;
#X obj 580 86 t b f;
#X obj 638 119 t b f;
#X obj 38 112 - 2;
#X connect 2 1 35 0;
#X connect 4 0 2 0;
#X connect 5 0 2 0;
#X connect 6 0 2 0;
#X connect 7 0 2 0;
#X connect 8 0 2 0;
#X connect 9 0 2 0;
#X connect 10 0 2 0;
#X connect 11 0 2 0;
#X connect 12 0 13 0;
#X connect 13 0 2 0;
#X connect 14 0 40 0;
#X connect 15 0 41 0;
#X connect 16 0 11 0;
#X connect 17 0 9 0;
#X connect 18 0 10 0;
#X connect 27 0 2 0;
#X connect 28 0 29 0;
#X connect 29 0 30 0;
#X connect 30 0 27 0;
#X connect 32 1 42 0;
#X connect 32 2 12 0;
#X connect 33 0 0 0;
#X connect 34 0 1 0;
#X connect 35 0 33 0;
#X connect 35 0 34 0;
#X connect 36 0 28 0;
#X connect 36 1 28 1;
#X connect 37 0 4 0;
#X connect 38 0 5 0;
#X connect 39 0 48 0;
#X connect 40 0 7 0;
#X connect 41 0 8 0;
#X connect 42 0 28 0;
#X connect 44 0 31 0;
#X connect 44 0 32 0;
#X connect 45 0 2 0;
#X connect 46 0 45 0;
#X connect 46 0 47 0;
#X connect 47 0 2 0;
#X connect 48 0 6 0;
#X connect 49 0 50 0;
#X connect 50 0 72 0;
#X connect 51 0 54 0;
#X connect 52 0 55 0;
#X connect 53 0 57 0;
#X connect 54 0 59 0;
#X connect 55 0 56 0;
#X connect 56 0 38 0;
#X connect 57 0 58 0;
#X connect 58 0 39 0;
#X connect 59 0 37 0;
#X connect 60 0 49 0;
#X connect 61 0 68 0;
#X connect 62 0 51 0;
#X connect 63 0 69 0;
#X connect 64 0 52 0;
#X connect 65 0 70 0;
#X connect 66 0 53 0;
#X connect 67 0 71 0;
#X connect 68 0 50 0;
#X connect 68 1 50 1;
#X connect 69 0 51 0;
#X connect 69 1 51 1;
#X connect 70 0 52 0;
#X connect 70 1 52 1;
#X connect 71 0 53 0;
#X connect 71 1 53 1;
#X connect 72 0 36 0;
#X restore 176 331 pd plaits_snare;
#N canvas 4 50 1323 671 plaits_snare_accent 0;
#X obj 20 582 outlet~ outL-\$1;
#X obj 117 594 outlet~ outR-\$1;
#X obj 410 380 plts~;
#X obj 314 501 s notesOut-\$1;
#X msg 520 240 harmonics \$1;
#X msg 525 279 timbre \$1;
#X msg 603 262 morph \$1;
#X msg 623 283 lpg_colour \$1;
#X msg 711 404 decay \$1;
#X msg 791 241 mod_fm \$1;
#X msg 814 264 mod_morph \$1;
#X msg 767 218 mod_timbre \$1;
#X obj 353 150 > 0;
#X msg 350 179 trigger \$1;
#X obj 653 190 r lpg_colour-\$1;
#X obj 741 333 r decay-\$1;
#X obj 763 122 r mod_timbre-\$1;
#X obj 822 145 r mod_fm-\$1;
#X obj 865 186 r mod_morph-\$1;
#X obj 939 391 vsl 15 128 0 1 0 0 empty empty har 0 -9 0 10 -262144
-1 -1 0 1;
#X obj 962 391 vsl 15 128 0 1 0 0 empty empty tim 0 -9 0 10 -262144
-1 -1 0 1;
#X obj 984 391 vsl 15 128 0 1 0 0 empty empty mor 0 -9 0 10 -262144
-1 -1 0 1;
#X obj 1007 391 vsl 15 128 0 1 0 0 empty empty lpg 0 -9 0 10 -262144
-1 -1 0 1;
#X obj 1030 391 vsl 15 128 0 1 0 0 empty empty dec 0 -9 0 10 -262144
-1 -1 0 1;
#X obj 1150 391 vsl 15 128 -1 1 0 0 empty empty mti 0 -9 0 10 -262144
-1 -1 0 1;
#X obj 1174 391 vsl 15 128 -1 1 0 0 empty empty fm 0 -9 0 10 -262144
-1 -1 0 1;
#X obj 1197 391 vsl 15 128 -1 1 0 0 empty empty mmo 0 -9 0 10 -262144
-1 -1 0 1;
#X msg 338 296 pitch \$1;
#X obj 278 192 + 0;
#X obj 336 228 - 60;
#X obj 351 261 / 12;
#X obj 242 104 notein_mono;
#X obj 321 68 poly 1 1;
#X obj 61 542 *~ 0.5;
#X obj 208 538 *~ 0.5;
#X obj 157 461 *~ 1;
#X obj 33 125 t b f;
#X obj 485 178 / 100;
#X obj 575 177 / 100;
#X obj 613 196 / 100;
#X obj 638 226 / 100;
#X obj 730 362 / 100;
#X obj 322 114 + 1.46;
#X text 289 134 48 khz;
#X obj 293 22 inlet;
#X msg 224 347 trigger_active 1;
#X obj 119 86 r loadbang-\$1;
#X msg 457 251 model 14;
#X obj 36 35 - 6;
#X obj 36 17 r snare2_semitone-\$1;
#X obj 487 17 r snare2_harmonics-\$1;
#X obj 623 19 r snare2_timbre-\$1;
#X obj 757 6 r snare2_morph-\$1;
#X obj 34 88 +;
#X obj 491 94 +;
#X obj 623 90 +;
#X obj 750 68 +;
#X obj 491 112 max 0;
#X obj 623 108 max 0;
#X obj 623 126 min 100;
#X obj 750 86 max 0;
#X obj 750 104 min 100;
#X obj 491 130 min 100;
#X obj 66 35 r semitone-\$1;
#X obj 497 36 r harmonics-\$1;
#X obj 628 36 r timbre-\$1;
#X obj 765 32 r morph-\$1;
#X obj 66 53 t b f;
#X obj 497 57 t b f;
#X obj 628 57 t b f;
#X obj 765 50 t b f;
#X obj 34 106 - 3;
#X connect 2 0 35 0;
#X connect 4 0 2 0;
#X connect 5 0 2 0;
#X connect 6 0 2 0;
#X connect 7 0 2 0;
#X connect 8 0 2 0;
#X connect 9 0 2 0;
#X connect 10 0 2 0;
#X connect 11 0 2 0;
#X connect 12 0 13 0;
#X connect 13 0 2 0;
#X connect 14 0 40 0;
#X connect 15 0 41 0;
#X connect 16 0 11 0;
#X connect 17 0 9 0;
#X connect 18 0 10 0;
#X connect 27 0 2 0;
#X connect 28 0 29 0;
#X connect 29 0 30 0;
#X connect 30 0 27 0;
#X connect 32 1 42 0;
#X connect 32 2 12 0;
#X connect 33 0 0 0;
#X connect 34 0 1 0;
#X connect 35 0 33 0;
#X connect 35 0 34 0;
#X connect 36 0 28 0;
#X connect 36 1 28 1;
#X connect 37 0 4 0;
#X connect 38 0 5 0;
#X connect 39 0 6 0;
#X connect 40 0 7 0;
#X connect 41 0 8 0;
#X connect 42 0 28 0;
#X connect 44 0 31 0;
#X connect 44 0 32 0;
#X connect 45 0 2 0;
#X connect 46 0 45 0;
#X connect 46 0 47 0;
#X connect 47 0 2 0;
#X connect 48 0 53 0;
#X connect 49 0 48 0;
#X connect 50 0 54 0;
#X connect 51 0 55 0;
#X connect 52 0 56 0;
#X connect 53 0 71 0;
#X connect 54 0 57 0;
#X connect 55 0 58 0;
#X connect 56 0 60 0;
#X connect 57 0 62 0;
#X connect 58 0 59 0;
#X connect 59 0 38 0;
#X connect 60 0 61 0;
#X connect 61 0 39 0;
#X connect 62 0 37 0;
#X connect 63 0 67 0;
#X connect 64 0 68 0;
#X connect 65 0 69 0;
#X connect 66 0 70 0;
#X connect 67 0 53 0;
#X connect 67 1 53 1;
#X connect 68 0 54 0;
#X connect 68 1 54 1;
#X connect 69 0 55 0;
#X connect 69 1 55 1;
#X connect 70 0 56 0;
#X connect 70 1 56 1;
#X connect 71 0 36 0;
#X restore 394 333 pd plaits_snare_accent;
#X obj 722 323 sel \$1;
#X obj 722 305 unpack s s;
#X obj 722 287 r activePage;
#X msg 722 341 1;
#X msg 755 341 0;
#X obj 722 369 change;
#N canvas 951 297 511 678 waveformReader 0;
#X obj 56 16 inlet;
#X obj 221 529 list prepend;
#X obj 71 319 until;
#X obj 71 347 f 0;
#X obj 329 529 t l;
#X obj 71 365 i;
#X obj 71 401 * 0.5;
#X obj 71 419 + 0.5;
#X obj 71 491 i;
#X msg 19 529 sendtyped /oled/gWaveform ib 3;
#X obj 19 657 list append;
#X obj 19 675 list trim;
#X obj 19 693 outlet;
#X msg 107 319 0;
#N canvas 4 50 450 250 (subpatch) 0;
#X array scope-\$1 8320 float 2;
#X coords 0 1 8320 -1 128 64 1 0 0;
#X restore 271 94 graph;
#X obj 56 34 t b b b b b b;
#X obj 140 34 inlet~;
#X obj 131 90 tabwrite~ scope-\$1;
#X obj 71 383 tabread scope-\$1;
#X msg 71 297 128;
#X obj 197 208 + 1;
#X floatatom 197 236 5 0 0 0 - - -;
#X obj 197 154 * -1;
#X obj 197 172 + 1;
#X obj 197 190 * 12;
#X obj 286 180 inlet;
#X obj 115 347 + 13;
#X obj 197 136 spigot;
#X msg 307 208 13;
#X obj 257 170 tgl 15 0 empty empty empty 17 7 0 10 -262144 -1 -1 0
1;
#X obj 197 108 r oknob3;
#X obj 71 437 * 14;
#X obj 71 455 + 50;
#X obj 71 473 clip 50 64;
#X connect 0 0 15 0;
#X connect 1 0 4 0;
#X connect 1 0 10 1;
#X connect 2 0 3 0;
#X connect 3 0 5 0;
#X connect 3 0 26 0;
#X connect 4 0 1 1;
#X connect 5 0 18 0;
#X connect 6 0 7 0;
#X connect 7 0 31 0;
#X connect 8 0 1 0;
#X connect 9 0 10 0;
#X connect 10 0 11 0;
#X connect 11 0 12 0;
#X connect 13 0 3 1;
#X connect 15 0 9 0;
#X connect 15 1 19 0;
#X connect 15 2 13 0;
#X connect 15 3 1 0;
#X connect 15 4 1 1;
#X connect 15 5 17 0;
#X connect 16 0 17 0;
#X connect 18 0 6 0;
#X connect 19 0 2 0;
#X connect 20 0 21 0;
#X connect 21 0 26 1;
#X connect 22 0 23 0;
#X connect 23 0 24 0;
#X connect 24 0 20 0;
#X connect 25 0 29 0;
#X connect 25 0 28 0;
#X connect 26 0 3 1;
#X connect 27 0 22 0;
#X connect 28 0 21 0;
#X connect 29 0 27 1;
#X connect 30 0 27 0;
#X connect 31 0 32 0;
#X connect 32 0 33 0;
#X connect 33 0 8 0;
#X restore 741 718 pd waveformReader;
#X msg 649 718 /oled/gFlip 3;
#X text 822 492 page and module is active;
#X obj 741 1045 s oscOutRaw;
#X obj 722 592 metro 40;
#X obj 906 667 clip~ -0.99 0.99;
#X obj 906 631 +~;
#X obj 906 649 /~ 2;
#X obj 722 387 sel 1, f 20;
#X obj 722 429 delay 500;
#X msg 839 415 stop;
#X msg 449 718 /oled/gFillArea 3 0 50 128 14 0;
#X obj 722 610 t b b b;
#X msg 859 718 /oled/gFillArea 3 0 50 128 14 0;
#X obj 1054 599 r auxIn-\$1;
#X msg 1148 789 /oled/aux/clear 1;
#X msg 1088 901 /oled/setscreen 1;
#X msg 1093 975 /oled/setscreen 3;
#X msg 1054 1031 /oled/aux/clear 1;
#X obj 1054 753 sel 0 1;
#X msg 1073 929 6;
#X obj 926 1017 s aux-led-\$1;
#X obj 1054 957 t b b b;
#X msg 1073 1003 0;
#X obj 1059 653 cputime;
#X obj 1059 617 metro 1000;
#X obj 1059 635 t b b, f 7;
#X obj 1059 689 * 0.1;
#X obj 1059 671 int;
#X msg 1059 725 /oled/aux/line/4 CPU = \$1 %;
#X obj 1059 707 min 100;
#X obj 1073 771 t b b b b b b;
#X msg 1118 845 /oled/aux/line/2 Mutable Instruments;
#X obj 220 71 r notesIn-\$1;
#X obj 220 89 unpack, f 39;
#X obj 220 107 % 6;
#X obj 220 143 route 60 61 62 63 64 65;
#X obj 220 125 + 60;
#X obj 86 313 pack f f;
#X obj 176 313 pack f f;
#X obj 257 293 pack f f;
#X obj 321 343 pack f f;
#X obj 394 315 pack f f;
#X obj 467 293 pack f f;
#X msg 1103 873 /oled/aux/line/3 Plaits x 6;
#N canvas 4 50 1323 671 plaits_hihat 0;
#X obj 20 582 outlet~ outL-\$1;
#X obj 117 594 outlet~ outR-\$1;
#X obj 410 380 plts~;
#X obj 314 501 s notesOut-\$1;
#X msg 520 240 harmonics \$1;
#X msg 525 279 timbre \$1;
#X msg 603 262 morph \$1;
#X msg 623 283 lpg_colour \$1;
#X msg 711 404 decay \$1;
#X msg 791 241 mod_fm \$1;
#X msg 814 264 mod_morph \$1;
#X msg 767 218 mod_timbre \$1;
#X obj 363 170 > 0;
#X msg 360 189 trigger \$1;
#X obj 653 190 r lpg_colour-\$1;
#X obj 741 333 r decay-\$1;
#X obj 763 122 r mod_timbre-\$1;
#X obj 822 145 r mod_fm-\$1;
#X obj 865 186 r mod_morph-\$1;
#X obj 939 391 vsl 15 128 0 1 0 0 empty empty har 0 -9 0 10 -262144
-1 -1 0 1;
#X obj 962 391 vsl 15 128 0 1 0 0 empty empty tim 0 -9 0 10 -262144
-1 -1 0 1;
#X obj 984 391 vsl 15 128 0 1 0 0 empty empty mor 0 -9 0 10 -262144
-1 -1 0 1;
#X obj 1007 391 vsl 15 128 0 1 0 0 empty empty lpg 0 -9 0 10 -262144
-1 -1 0 1;
#X obj 1030 391 vsl 15 128 0 1 0 0 empty empty dec 0 -9 0 10 -262144
-1 -1 0 1;
#X obj 1150 391 vsl 15 128 -1 1 0 0 empty empty mti 0 -9 0 10 -262144
-1 -1 0 1;
#X obj 1174 391 vsl 15 128 -1 1 0 0 empty empty fm 0 -9 0 10 -262144
-1 -1 0 1;
#X obj 1197 391 vsl 15 128 -1 1 0 0 empty empty mmo 0 -9 0 10 -262144
-1 -1 0 1;
#X msg 338 296 pitch \$1;
#X obj 278 192 + 0;
#X obj 336 228 - 60;
#X obj 341 261 / 12;
#X obj 242 104 notein_mono;
#X obj 321 68 poly 1 1;
#X obj 61 542 *~ 0.5;
#X obj 208 538 *~ 0.5;
#X obj 157 461 *~ 1;
#X obj 380 127 t b f;
#X obj 520 197 / 100;
#X obj 562 216 / 100;
#X obj 601 237 / 100;
#X obj 638 226 / 100;
#X obj 730 362 / 100;
#X obj 322 114 + 1.46;
#X text 289 134 48 khz;
#X obj 293 22 inlet;
#X msg 224 347 trigger_active 1;
#X obj 119 86 r loadbang-\$1;
#X msg 457 251 model 15;
#X obj 380 50 + 6;
#X obj 380 32 r hihat1_semitone-\$1;
#X obj 514 8 r hihat1_harmonics-\$1;
#X obj 571 51 r hihat1_timbre-\$1;
#X obj 623 93 r hihat1_morph-\$1;
#X obj 404 68 t b f;
#X obj 525 49 t b f;
#X obj 577 87 t b f;
#X obj 628 129 t b f;
#X obj 404 50 r semitone-\$1;
#X obj 525 31 r harmonics-\$1;
#X obj 577 69 r timbre-\$1;
#X obj 628 111 r morph-\$1;
#X obj 380 91 +;
#X obj 511 91 +;
#X obj 571 116 +;
#X obj 620 154 +;
#X obj 511 112 max 0;
#X obj 511 130 min 100;
#X obj 561 152 max 0;
#X obj 561 170 min 100;
#X obj 601 192 max 0;
#X obj 601 210 min 100;
#X obj 380 109 - 4;
#X connect 2 1 35 0;
#X connect 4 0 2 0;
#X connect 5 0 2 0;
#X connect 6 0 2 0;
#X connect 7 0 2 0;
#X connect 8 0 2 0;
#X connect 9 0 2 0;
#X connect 10 0 2 0;
#X connect 11 0 2 0;
#X connect 12 0 13 0;
#X connect 13 0 2 0;
#X connect 14 0 40 0;
#X connect 15 0 41 0;
#X connect 16 0 11 0;
#X connect 17 0 9 0;
#X connect 18 0 10 0;
#X connect 27 0 2 0;
#X connect 28 0 29 0;
#X connect 29 0 30 0;
#X connect 30 0 27 0;
#X connect 32 1 42 0;
#X connect 32 2 12 0;
#X connect 33 0 0 0;
#X connect 34 0 1 0;
#X connect 35 0 33 0;
#X connect 35 0 34 0;
#X connect 36 0 28 0;
#X connect 36 1 28 1;
#X connect 37 0 4 0;
#X connect 38 0 5 0;
#X connect 39 0 6 0;
#X connect 40 0 7 0;
#X connect 41 0 8 0;
#X connect 42 0 28 0;
#X connect 44 0 31 0;
#X connect 44 0 32 0;
#X connect 45 0 2 0;
#X connect 46 0 45 0;
#X connect 46 0 47 0;
#X connect 47 0 2 0;
#X connect 48 0 61 0;
#X connect 49 0 48 0;
#X connect 50 0 62 0;
#X connect 51 0 63 0;
#X connect 52 0 64 0;
#X connect 53 0 61 0;
#X connect 53 1 61 1;
#X connect 54 0 62 0;
#X connect 54 1 62 1;
#X connect 55 0 63 0;
#X connect 55 1 63 1;
#X connect 56 0 64 0;
#X connect 56 1 64 1;
#X connect 57 0 53 0;
#X connect 58 0 54 0;
#X connect 59 0 55 0;
#X connect 60 0 56 0;
#X connect 61 0 71 0;
#X connect 62 0 65 0;
#X connect 63 0 67 0;
#X connect 64 0 69 0;
#X connect 65 0 66 0;
#X connect 66 0 37 0;
#X connect 67 0 68 0;
#X connect 68 0 38 0;
#X connect 69 0 70 0;
#X connect 70 0 39 0;
#X connect 71 0 36 0;
#X restore 257 311 pd plaits_hihat;
#N canvas 4 50 1323 671 plaits_hihat_accent 0;
#X obj 20 582 outlet~ outL-\$1;
#X obj 117 594 outlet~ outR-\$1;
#X obj 410 380 plts~;
#X obj 314 501 s notesOut-\$1;
#X msg 520 240 harmonics \$1;
#X msg 525 279 timbre \$1;
#X msg 603 262 morph \$1;
#X msg 623 283 lpg_colour \$1;
#X msg 711 404 decay \$1;
#X msg 791 241 mod_fm \$1;
#X msg 814 264 mod_morph \$1;
#X msg 767 218 mod_timbre \$1;
#X obj 353 150 > 0;
#X msg 350 179 trigger \$1;
#X obj 653 190 r lpg_colour-\$1;
#X obj 741 333 r decay-\$1;
#X obj 763 122 r mod_timbre-\$1;
#X obj 822 145 r mod_fm-\$1;
#X obj 865 186 r mod_morph-\$1;
#X obj 939 391 vsl 15 128 0 1 0 0 empty empty har 0 -9 0 10 -262144
-1 -1 0 1;
#X obj 962 391 vsl 15 128 0 1 0 0 empty empty tim 0 -9 0 10 -262144
-1 -1 0 1;
#X obj 984 391 vsl 15 128 0 1 0 0 empty empty mor 0 -9 0 10 -262144
-1 -1 0 1;
#X obj 1007 391 vsl 15 128 0 1 0 0 empty empty lpg 0 -9 0 10 -262144
-1 -1 0 1;
#X obj 1030 391 vsl 15 128 0 1 0 0 empty empty dec 0 -9 0 10 -262144
-1 -1 0 1;
#X obj 1150 391 vsl 15 128 -1 1 0 0 empty empty mti 0 -9 0 10 -262144
-1 -1 0 1;
#X obj 1174 391 vsl 15 128 -1 1 0 0 empty empty fm 0 -9 0 10 -262144
-1 -1 0 1;
#X obj 1197 391 vsl 15 128 -1 1 0 0 empty empty mmo 0 -9 0 10 -262144
-1 -1 0 1;
#X msg 338 296 pitch \$1;
#X obj 278 192 + 0;
#X obj 336 228 - 60;
#X obj 351 261 / 12;
#X obj 242 104 notein_mono;
#X obj 321 68 poly 1 1;
#X obj 61 542 *~ 0.5;
#X obj 208 538 *~ 0.5;
#X obj 157 461 *~ 1;
#X obj 425 132 t b f;
#X obj 525 200 / 100;
#X obj 571 218 / 100;
#X obj 613 193 / 100;
#X obj 638 226 / 100;
#X obj 730 362 / 100;
#X obj 322 114 + 1.46;
#X text 289 134 48 khz;
#X obj 293 22 inlet;
#X msg 224 347 trigger_active 1;
#X obj 119 86 r loadbang-\$1;
#X msg 457 251 model 15;
#X obj 613 211 min 1;
#X obj 414 54 + 6;
#X obj 414 36 r hihat2_semitone-\$1;
#X obj 543 9 r hihat2_harmonics-\$1;
#X obj 593 49 r hihat2_timbre-\$1;
#X obj 682 69 r hihat2_morph-\$1;
#X obj 449 73 t b f;
#X obj 554 47 t b f;
#X obj 602 85 t b f;
#X obj 677 109 t b f;
#X obj 449 55 r semitone-\$1;
#X obj 554 29 r harmonics-\$1;
#X obj 602 67 r timbre-\$1;
#X obj 677 91 r morph-\$1;
#X obj 425 96 +;
#X obj 531 89 +;
#X obj 596 114 +;
#X obj 669 134 +;
#X obj 531 110 max 0;
#X obj 531 128 min 100;
#X obj 586 150 max 0;
#X obj 586 168 min 100;
#X obj 643 153 max 0;
#X obj 643 171 min 100;
#X obj 425 114 - 5;
#X connect 2 0 35 0;
#X connect 4 0 2 0;
#X connect 5 0 2 0;
#X connect 6 0 2 0;
#X connect 7 0 2 0;
#X connect 8 0 2 0;
#X connect 9 0 2 0;
#X connect 10 0 2 0;
#X connect 11 0 2 0;
#X connect 12 0 13 0;
#X connect 13 0 2 0;
#X connect 14 0 40 0;
#X connect 15 0 41 0;
#X connect 16 0 11 0;
#X connect 17 0 9 0;
#X connect 18 0 10 0;
#X connect 27 0 2 0;
#X connect 28 0 29 0;
#X connect 29 0 30 0;
#X connect 30 0 27 0;
#X connect 32 1 42 0;
#X connect 32 2 12 0;
#X connect 33 0 0 0;
#X connect 34 0 1 0;
#X connect 35 0 33 0;
#X connect 35 0 34 0;
#X connect 36 0 28 0;
#X connect 36 1 28 1;
#X connect 37 0 4 0;
#X connect 38 0 5 0;
#X connect 39 0 48 0;
#X connect 40 0 7 0;
#X connect 41 0 8 0;
#X connect 42 0 28 0;
#X connect 44 0 31 0;
#X connect 44 0 32 0;
#X connect 45 0 2 0;
#X connect 46 0 45 0;
#X connect 46 0 47 0;
#X connect 47 0 2 0;
#X connect 48 0 6 0;
#X connect 49 0 62 0;
#X connect 50 0 49 0;
#X connect 51 0 63 0;
#X connect 52 0 64 0;
#X connect 53 0 65 0;
#X connect 54 0 62 0;
#X connect 54 1 62 1;
#X connect 55 0 63 0;
#X connect 55 1 63 1;
#X connect 56 0 64 0;
#X connect 56 1 64 1;
#X connect 57 0 65 0;
#X connect 57 1 65 1;
#X connect 58 0 54 0;
#X connect 59 0 55 0;
#X connect 60 0 56 0;
#X connect 61 0 57 0;
#X connect 62 0 72 0;
#X connect 63 0 66 0;
#X connect 64 0 68 0;
#X connect 65 0 70 0;
#X connect 66 0 67 0;
#X connect 67 0 37 0;
#X connect 68 0 69 0;
#X connect 69 0 38 0;
#X connect 70 0 71 0;
#X connect 71 0 39 0;
#X connect 72 0 36 0;
#X restore 467 311 pd plaits_hihat_accent;
#X obj 647 -1 r onotes;
#X msg 737 241 selectpage \$1;
#X obj 737 259 s rackMsgs;
#X obj 737 167 % 6;
#X obj 737 185 + 2;
#X obj 737 213 change;
#X msg 794 199 0;
#X obj 737 149 spigot 0;
#X obj 647 45 stripnote;
#X msg 1065 443 1;
#X obj 12 982 *~;
#X obj 36 982 *~;
#X obj 60 982 *~;
#X obj 84 982 *~;
#X obj 108 982 *~;
#X obj 132 982 *~;
#X obj 156 982 *~;
#X obj 180 982 *~;
#X obj 204 982 *~;
#X obj 228 982 *~;
#X obj 252 982 *~;
#X obj 276 982 *~;
#X obj 389 783 / 100;
#X obj 399 819 / 100;
#X obj 409 855 / 100;
#X obj 419 891 / 100;
#X obj 429 927 / 100;
#X obj 439 963 / 100;
#X obj 389 765 r mixkickaux-\$1;
#X obj 399 801 r mixkickout-\$1;
#X obj 409 837 r mixsnareaux-\$1;
#X obj 419 873 r mixsnareout-\$1;
#X obj 429 909 r mixhihataux-\$1;
#X obj 439 945 r mixhihatout-\$1;
#X msg 825 227 0;
#X obj 64 1055 *~;
#X obj 88 1055 *~;
#X obj 122 1055 *~;
#X obj 146 1055 *~;
#X obj 449 999 / 100;
#X obj 459 1035 / 100;
#X obj 449 981 r mixaux-\$1;
#X obj 459 1017 r mixout-\$1;
#X obj 647 63 moses 77;
#X obj 692 81 moses 78;
#X obj 737 99 moses 85, f 10;
#X msg 935 227 8;
#X obj 647 27 spigot 0;
#X msg 1133 817 /oled/aux/line/1 Fusion (1.5);
#X connect 2 0 18 0;
#X connect 2 0 75 0;
#X connect 2 1 18 1;
#X connect 2 1 76 0;
#X connect 3 0 18 0;
#X connect 3 0 69 0;
#X connect 3 1 18 1;
#X connect 3 1 70 0;
#X connect 4 0 18 0;
#X connect 4 0 71 0;
#X connect 4 1 18 1;
#X connect 4 1 72 0;
#X connect 5 0 18 0;
#X connect 5 0 77 0;
#X connect 5 1 18 1;
#X connect 5 1 78 0;
#X connect 6 0 9 0;
#X connect 6 1 10 0;
#X connect 7 0 6 0;
#X connect 8 0 7 0;
#X connect 9 0 11 0;
#X connect 10 0 11 0;
#X connect 10 0 66 1;
#X connect 11 0 20 0;
#X connect 11 0 106 1;
#X connect 12 0 15 0;
#X connect 13 0 15 0;
#X connect 16 0 24 0;
#X connect 17 0 12 1;
#X connect 18 0 19 0;
#X connect 19 0 17 0;
#X connect 20 0 21 0;
#X connect 20 1 22 0;
#X connect 20 1 23 0;
#X connect 21 0 16 0;
#X connect 21 0 68 0;
#X connect 22 0 21 0;
#X connect 22 0 16 0;
#X connect 23 0 15 0;
#X connect 24 0 13 0;
#X connect 24 1 12 0;
#X connect 24 2 25 0;
#X connect 25 0 15 0;
#X connect 26 0 31 0;
#X connect 26 0 37 0;
#X connect 26 0 93 0;
#X connect 27 0 15 0;
#X connect 28 0 15 0;
#X connect 29 0 15 0;
#X connect 30 0 15 0;
#X connect 31 0 34 0;
#X connect 31 1 43 0;
#X connect 32 0 33 0;
#X connect 34 0 30 0;
#X connect 34 1 35 0;
#X connect 34 2 29 0;
#X connect 35 0 33 0;
#X connect 36 0 40 0;
#X connect 37 0 38 0;
#X connect 38 0 36 0;
#X connect 38 1 36 1;
#X connect 39 0 42 0;
#X connect 40 0 39 0;
#X connect 41 0 15 0;
#X connect 42 0 41 0;
#X connect 43 0 32 0;
#X connect 43 1 28 0;
#X connect 43 2 56 0;
#X connect 43 3 44 0;
#X connect 43 4 107 0;
#X connect 43 5 27 0;
#X connect 44 0 15 0;
#X connect 45 0 46 0;
#X connect 46 0 47 0;
#X connect 46 1 50 1;
#X connect 46 1 51 1;
#X connect 46 1 52 1;
#X connect 46 1 53 1;
#X connect 46 1 54 1;
#X connect 46 1 55 1;
#X connect 47 0 49 0;
#X connect 48 0 50 0;
#X connect 48 1 51 0;
#X connect 48 2 52 0;
#X connect 48 3 53 0;
#X connect 48 4 54 0;
#X connect 48 5 55 0;
#X connect 49 0 48 0;
#X connect 50 0 3 0;
#X connect 51 0 4 0;
#X connect 52 0 57 0;
#X connect 53 0 2 0;
#X connect 54 0 5 0;
#X connect 55 0 58 0;
#X connect 56 0 15 0;
#X connect 57 0 18 0;
#X connect 57 0 73 0;
#X connect 57 1 18 1;
#X connect 57 1 74 0;
#X connect 58 0 18 0;
#X connect 58 0 79 0;
#X connect 58 1 18 1;
#X connect 58 1 80 0;
#X connect 59 0 106 0;
#X connect 60 0 61 0;
#X connect 62 0 63 0;
#X connect 63 0 64 0;
#X connect 64 0 60 0;
#X connect 65 0 64 0;
#X connect 66 0 62 0;
#X connect 67 0 102 0;
#X connect 68 0 66 1;
#X connect 69 0 94 0;
#X connect 70 0 95 0;
#X connect 71 0 94 0;
#X connect 72 0 95 0;
#X connect 73 0 94 0;
#X connect 74 0 95 0;
#X connect 75 0 96 0;
#X connect 76 0 97 0;
#X connect 77 0 96 0;
#X connect 78 0 97 0;
#X connect 79 0 96 0;
#X connect 80 0 97 0;
#X connect 81 0 69 1;
#X connect 81 0 70 1;
#X connect 82 0 76 1;
#X connect 82 0 75 1;
#X connect 83 0 72 1;
#X connect 83 0 71 1;
#X connect 84 0 78 1;
#X connect 84 0 77 1;
#X connect 85 0 74 1;
#X connect 85 0 73 1;
#X connect 86 0 80 1;
#X connect 86 0 79 1;
#X connect 87 0 81 0;
#X connect 88 0 82 0;
#X connect 89 0 83 0;
#X connect 90 0 84 0;
#X connect 91 0 85 0;
#X connect 92 0 86 0;
#X connect 93 0 60 0;
#X connect 94 0 0 0;
#X connect 95 0 1 0;
#X connect 96 0 0 0;
#X connect 97 0 1 0;
#X connect 98 0 95 1;
#X connect 98 0 94 1;
#X connect 99 0 97 1;
#X connect 99 0 96 1;
#X connect 100 0 98 0;
#X connect 101 0 99 0;
#X connect 102 1 103 0;
#X connect 103 0 105 0;
#X connect 103 1 104 0;
#X connect 104 0 66 0;
#X connect 104 1 65 0;
#X connect 105 0 60 0;
#X connect 106 0 67 0;
#X connect 107 0 15 0;
