#N canvas 137 156 1601 610 10;
#X obj 674 12 r notesIn-\$1;
#X obj 674 30 s notesOut-\$1;
#X obj 560 12 r loadbang-\$1;
#X obj 560 30 int 0;
#X obj 560 48 s aux-led-\$1;
#X obj 788 12 r ctrlIn-\$1;
#X obj 788 30 s ctrlOut-\$1;
#X obj 896 48 sel \$1;
#X msg 999 224 /oled/gClear 3 1;
#X msg 929 364 /oled/gFlip 3;
#X obj 111 567 s oscOut;
#X obj 896 30 unpack s s;
#X obj 896 12 r activePage;
#X obj 929 94 &&;
#X msg 953 66 1;
#X msg 1022 66 0;
#X obj 929 112 sel 1 0;
#X msg 896 66 1;
#X msg 929 66 0;
#X text 986 112 page and module is active;
#X obj 929 140 del 500;
#X msg 1013 196 /oled/gShowInfoBar 3 1;
#X obj 1258 182 metro 500;
#X msg 1258 126 stop;
#X obj 953 48 sel pg_empty;
#X obj 1258 210 tgl 15 0 empty empty empty 17 7 0 10 -262144 -1 -1
0 1;
#X obj 1258 227 sel 1 0;
#X obj 618 121 r oknob4;
#X obj 618 185 spigot;
#X msg 852 154 1;
#X msg 847 126 0;
#X obj 847 172 tgl 15 0 empty empty empty 17 7 0 10 -262144 -1 -1 0
1;
#X obj 618 239 i;
#X obj 618 157 line;
#X obj 440 185 spigot;
#X obj 440 239 i;
#X obj 440 157 line;
#X obj 440 139 pack 0 300;
#X obj 440 203 * 20;
#X obj 440 121 r oknob3;
#X obj 262 185 spigot;
#X obj 262 221 i;
#X obj 262 157 line;
#X obj 262 139 pack 0 300;
#X obj 84 185 spigot;
#X obj 84 221 i;
#X obj 84 157 line;
#X obj 84 139 pack 0 300;
#X obj 84 203 * 20;
#X obj 262 121 r oknob2;
#X obj 84 121 r oknob1;
#X obj 262 203 * 20;
#X obj 618 203 * 20;
#X obj 618 221 + 103;
#X obj 440 221 + 103;
#X msg 1277 322 /oled/gFillArea 3 9 18 111 18 0;
#X obj 1249 462 cputime;
#X obj 1249 499 * 0.1;
#X obj 1249 481 int;
#X obj 1249 535 f;
#X msg 957 308 /oled/gPrintln 3 25 44 8 1 SELECT MODULE \;;
#X msg 943 336 /oled/gPrintln 3 26 44 8 1 SELECT MODULE \;;
#X msg 1249 553 /oled/gPrintln 3 35 56 8 1 CPU : \$1 % \;;
#X msg 645 285 /oled/gPrintln 3 \$1 44 8 1 > \;;
#X msg 467 285 /oled/gPrintln 3 \$1 44 8 0 > \;;
#X msg 289 285 /oled/gPrintln 3 \$1 44 8 0 > \;;
#X msg 111 285 /oled/gPrintln 3 \$1 44 8 1 > \;;
#X msg 1303 434 /oled/gFillArea 3 25 56 128 10 0;
#X obj 1158 189 bng 15 250 50 0 empty empty empty 17 7 0 10 -262144
-1 -1;
#X obj 618 139 pack 0 300;
#X msg 985 252 /oled/gBox 3 6 13 116 26 1;
#X msg 971 280 /oled/gBox 3 7 14 114 24 1;
#X msg 1333 378 /oled/gPrintln 3 16 19 16 1 FREE SLOT \;;
#X msg 1318 406 /oled/gPrintln 3 18 19 16 1 FREE SLOT \;;
#X obj 1249 517 min 100;
#X obj 929 168 t b b b b b b b b;
#X obj 618 257 t b f;
#X obj 440 257 t b f;
#X obj 262 239 t b f;
#X obj 84 239 t b f;
#X msg 19 271 /oled/gFlip 3;
#X obj 1258 350 t b b b b b b;
#X msg 1229 154 0;
#X connect 0 0 1 0;
#X connect 2 0 3 0;
#X connect 3 0 4 0;
#X connect 5 0 6 0;
#X connect 7 0 17 0;
#X connect 7 1 18 0;
#X connect 8 0 10 0;
#X connect 9 0 10 0;
#X connect 11 0 7 0;
#X connect 11 1 24 0;
#X connect 12 0 11 0;
#X connect 13 0 16 0;
#X connect 14 0 13 1;
#X connect 15 0 13 1;
#X connect 16 0 20 0;
#X connect 16 1 23 0;
#X connect 16 1 30 0;
#X connect 16 1 68 0;
#X connect 17 0 13 0;
#X connect 18 0 13 0;
#X connect 20 0 29 0;
#X connect 20 0 75 0;
#X connect 20 0 82 0;
#X connect 21 0 10 0;
#X connect 22 0 25 0;
#X connect 23 0 22 0;
#X connect 24 0 14 0;
#X connect 24 1 15 0;
#X connect 25 0 26 0;
#X connect 26 0 81 0;
#X connect 26 1 55 0;
#X connect 27 0 69 0;
#X connect 28 0 52 0;
#X connect 29 0 31 0;
#X connect 30 0 31 0;
#X connect 31 0 28 1;
#X connect 31 0 34 1;
#X connect 31 0 44 1;
#X connect 31 0 40 1;
#X connect 32 0 76 0;
#X connect 33 0 28 0;
#X connect 34 0 38 0;
#X connect 35 0 77 0;
#X connect 36 0 34 0;
#X connect 37 0 36 0;
#X connect 38 0 54 0;
#X connect 39 0 37 0;
#X connect 40 0 51 0;
#X connect 41 0 78 0;
#X connect 42 0 40 0;
#X connect 43 0 42 0;
#X connect 44 0 48 0;
#X connect 45 0 79 0;
#X connect 46 0 44 0;
#X connect 47 0 46 0;
#X connect 48 0 45 0;
#X connect 49 0 43 0;
#X connect 50 0 47 0;
#X connect 51 0 41 0;
#X connect 52 0 53 0;
#X connect 53 0 32 0;
#X connect 54 0 35 0;
#X connect 55 0 10 0;
#X connect 56 0 58 0;
#X connect 57 0 74 0;
#X connect 58 0 57 0;
#X connect 59 0 62 0;
#X connect 60 0 10 0;
#X connect 61 0 10 0;
#X connect 62 0 10 0;
#X connect 63 0 10 0;
#X connect 64 0 10 0;
#X connect 65 0 10 0;
#X connect 66 0 10 0;
#X connect 67 0 10 0;
#X connect 68 0 67 0;
#X connect 69 0 33 0;
#X connect 70 0 10 0;
#X connect 71 0 10 0;
#X connect 72 0 10 0;
#X connect 73 0 10 0;
#X connect 74 0 59 0;
#X connect 75 0 9 0;
#X connect 75 1 61 0;
#X connect 75 2 60 0;
#X connect 75 3 71 0;
#X connect 75 4 70 0;
#X connect 75 5 8 0;
#X connect 75 6 21 0;
#X connect 75 7 22 0;
#X connect 76 0 80 0;
#X connect 76 1 63 0;
#X connect 77 0 80 0;
#X connect 77 1 64 0;
#X connect 78 0 80 0;
#X connect 78 1 65 0;
#X connect 79 0 80 0;
#X connect 79 1 66 0;
#X connect 80 0 10 0;
#X connect 81 0 9 0;
#X connect 81 1 56 0;
#X connect 81 2 56 1;
#X connect 81 3 67 0;
#X connect 81 4 73 0;
#X connect 81 5 72 0;
#X connect 82 0 25 0;
