#N canvas 137 156 1217 565 10;
#X obj 305 21 r notesIn-\$1;
#X obj 305 39 s notesOut-\$1;
#X obj 211 21 r loadbang-\$1;
#X obj 211 39 int 0;
#X obj 211 57 s aux-led-\$1;
#X obj 399 21 r ctrlIn-\$1;
#X obj 399 39 s ctrlOut-\$1;
#X obj 487 56 sel \$1;
#X msg 520 331 /oled/gFlip 3;
#X obj 12 524 s oscOut;
#X obj 487 28 unpack s s;
#X obj 487 10 r activePage;
#X obj 520 102 &&;
#X msg 544 74 1;
#X msg 613 74 0;
#X msg 487 74 1;
#X msg 520 74 0;
#X text 577 118 page and module is active;
#X obj 849 226 metro 500;
#X msg 849 152 stop;
#X obj 544 56 sel pg_empty;
#X obj 849 254 tgl 15 0 empty empty empty 17 7 0 10 -262144 -1 -1 1
1;
#X obj 840 419 cputime;
#X obj 840 456 * 0.1;
#X obj 840 438 int;
#X obj 840 492 f;
#X obj 840 474 min 100;
#X obj 849 317 t b b b b b b;
#X msg 820 198 0;
#X msg 525 166 stop;
#X msg 567 278 /oled/gShowInfoBar 3 1;
#X msg 583 250 /oled/gClear 3 1;
#X msg 924 335 /oled/gPrintln 3 24 27 8 1 SELECT MODULE \;;
#X msg 909 363 /oled/gPrintln 3 25 27 8 1 SELECT MODULE \;;
#X msg 840 510 /oled/gPrintln 3 35 37 8 1 CPU : \$1 % \;;
#X msg 894 391 /oled/gFillArea 3 0 35 128 14 0;
#X msg 876 289 /oled/gFillArea 3 22 25 82 9 0;
#X obj 849 271 sel 1;
#X obj 365 292 symbol;
#X obj 520 212 t b b b b b;
#X msg 543 306 /oled/gPrintln 3 0 56 8 1 \$1 \;;
#X obj 520 184 del 500;
#X obj 520 138 sel 1;
#X obj 520 120 change;
#X connect 0 0 1 0;
#X connect 2 0 3 0;
#X connect 3 0 4 0;
#X connect 5 0 6 0;
#X connect 7 0 15 0;
#X connect 7 1 16 0;
#X connect 8 0 9 0;
#X connect 10 0 7 0;
#X connect 10 0 38 1;
#X connect 10 1 20 0;
#X connect 11 0 10 0;
#X connect 12 0 43 0;
#X connect 13 0 12 1;
#X connect 14 0 12 1;
#X connect 15 0 12 0;
#X connect 16 0 12 0;
#X connect 18 0 21 0;
#X connect 19 0 18 0;
#X connect 20 0 13 0;
#X connect 20 1 14 0;
#X connect 21 0 37 0;
#X connect 22 0 24 0;
#X connect 23 0 26 0;
#X connect 24 0 23 0;
#X connect 25 0 34 0;
#X connect 26 0 25 0;
#X connect 27 0 8 0;
#X connect 27 1 22 0;
#X connect 27 2 22 1;
#X connect 27 3 35 0;
#X connect 27 4 33 0;
#X connect 27 5 32 0;
#X connect 28 0 21 0;
#X connect 29 0 41 0;
#X connect 30 0 9 0;
#X connect 31 0 9 0;
#X connect 32 0 9 0;
#X connect 33 0 9 0;
#X connect 34 0 9 0;
#X connect 35 0 9 0;
#X connect 36 0 9 0;
#X connect 37 0 27 0;
#X connect 37 1 36 0;
#X connect 38 0 40 0;
#X connect 39 0 8 0;
#X connect 39 1 38 0;
#X connect 39 2 18 0;
#X connect 39 3 30 0;
#X connect 39 4 31 0;
#X connect 40 0 9 0;
#X connect 41 0 28 0;
#X connect 41 0 39 0;
#X connect 42 0 41 0;
#X connect 42 1 19 0;
#X connect 42 1 29 0;
#X connect 42 1 35 0;
#X connect 43 0 42 0;
