#N canvas 0 23 1366 725 10;
#X obj 238 39 inlet~;
#X obj 283 611 outlet~;
#X obj 403 481 +~;
#X obj 529 814;
#X obj 641 633 throw~ tapsl-\$1;
#X obj 783 619 throw~ tapsr-\$1;
#X obj 645 575 *~ \$3;
#X obj 494 51 r~ input-\$1;
#X obj 760 561 *~ \$4;
#X obj 536 204 apdelay_inner \$1 \$2;
#X connect 0 0 9 0;
#X connect 2 0 1 0;
#X connect 2 0 6 0;
#X connect 2 0 8 0;
#X connect 6 0 4 0;
#X connect 7 0 9 0;
#X connect 8 0 5 0;
#X connect 9 0 2 0;
