#N canvas 0 30 1370 729 10;
#X obj 30 104 inlet~;
#X obj 56 400 +~;
#X obj 283 611 outlet~;
#X obj 75 365 *~ -1;
#X obj 407 247 f 0.75;
#X obj 342 483 *~ 0.75;
#X obj 284 533 +~;
#X obj 306 130 delread4~ \$0-tap;
#X obj 847 344 osc~ 0.8;
#X obj 946 159 + 500;
#X obj 928 100 random 1500;
#X obj 1047 51 loadbang;
#X obj 950 242 nbx 5 14 -1e+37 1e+37 0 0 empty empty empty 0 -8 0 10
-262144 -1 -1 0.4535 256;
#X obj 991 62 bng 15 250 50 0 empty empty empty 17 7 0 10 -262144 -1
-1;
#X obj 882 424 *~ 0;
#X obj 280 195 +~;
#X obj 955 201 / 2000;
#X obj 687 202 sig~ \$2;
#X obj 470 174 r diffusion-\$1;
#X obj 1025 23 r loadbang-\$1;
#X obj 959 393 r mod-\$1;
#X obj 773 534 +~;
#X obj 180 248 *~ 0.75;
#X obj 950 430 / 200;
#X obj 684 225 *~;
#X obj 718 103 r~ scale_sig-\$1;
#X obj 690 291 /~ 100;
#X obj 673 605 *~;
#X obj 31 569 delwrite~ \$0-tap 300;
#X connect 0 0 1 0;
#X connect 1 0 5 0;
#X connect 1 0 28 0;
#X connect 3 0 1 1;
#X connect 4 0 5 1;
#X connect 4 0 22 1;
#X connect 5 0 6 1;
#X connect 6 0 2 0;
#X connect 7 0 15 0;
#X connect 8 0 14 0;
#X connect 9 0 16 0;
#X connect 10 0 9 0;
#X connect 11 0 10 0;
#X connect 12 0 8 0;
#X connect 13 0 10 0;
#X connect 14 0 21 0;
#X connect 15 0 6 0;
#X connect 15 0 22 0;
#X connect 16 0 12 0;
#X connect 17 0 24 0;
#X connect 18 0 4 0;
#X connect 19 0 10 0;
#X connect 20 0 23 0;
#X connect 21 0 27 1;
#X connect 22 0 3 0;
#X connect 23 0 14 1;
#X connect 24 0 7 0;
#X connect 24 0 26 0;
#X connect 25 0 24 1;
#X connect 26 0 27 0;
#X connect 27 0 7 0;
