#N canvas 24 41 1370 729 10;
#X obj 30 104 inlet~;
#X obj 56 400 +~;
#X obj 180 248 *~;
#X obj 283 611 outlet~;
#X obj 395 172 loadbang;
#X obj 75 365 *~ -1;
#X obj 407 247 f 0.75;
#X obj 342 483 *~ 0.75;
#X obj 284 533 +~;
#X obj 31 569 delwrite~ \$0-tap 200;
#X obj 692 260 delread4~ \$0-tap;
#X obj 847 344 osc~ 0.8;
#X obj 946 159 + 500;
#X obj 928 100 random 1500;
#X obj 1047 51 loadbang;
#X obj 950 242 nbx 5 14 -1e+037 1e+037 0 0 empty empty empty 0 -8 0
10 -262144 -1 -1 0.64 256;
#X obj 991 62 bng 15 250 50 0 empty empty empty 17 7 0 10 -262144 -1
-1;
#X obj 882 424 *~ 0;
#X obj 280 195 +~;
#X obj 664 466 *~ 0.05;
#X obj 653 569 throw~ taps;
#X obj 683 225 *~ 1;
#X obj 763 423 rand;
#X obj 768 450 *~ 0;
#X obj 955 201 / 2000;
#X obj 64 473 lop~ 8000;
#X obj 687 202 sig~ \$2;
#X obj 158 364 r ap_lop-\$1;
#X obj 470 174 r diffusion-\$1;
#X obj 719 103 r scale-\$1;
#X obj 1025 23 r loadbang-\$1;
#X obj 959 393 r mod-\$1;
#X obj 789 356 r rand-\$1;
#X obj 950 430 / 400;
#X obj 790 401 / 5;
#X connect 0 0 1 0;
#X connect 1 0 7 0;
#X connect 1 0 25 0;
#X connect 2 0 5 0;
#X connect 4 0 6 0;
#X connect 5 0 1 1;
#X connect 6 0 2 1;
#X connect 6 0 7 1;
#X connect 7 0 8 1;
#X connect 8 0 3 0;
#X connect 10 0 18 0;
#X connect 10 0 19 0;
#X connect 11 0 17 0;
#X connect 12 0 24 0;
#X connect 13 0 12 0;
#X connect 14 0 13 0;
#X connect 15 0 11 0;
#X connect 16 0 13 0;
#X connect 17 0 10 0;
#X connect 18 0 8 0;
#X connect 18 0 2 0;
#X connect 19 0 20 0;
#X connect 21 0 10 0;
#X connect 22 0 23 0;
#X connect 23 0 10 0;
#X connect 24 0 15 0;
#X connect 25 0 9 0;
#X connect 26 0 21 0;
#X connect 27 0 25 1;
#X connect 28 0 6 0;
#X connect 29 0 21 1;
#X connect 30 0 13 0;
#X connect 31 0 33 0;
#X connect 32 0 34 0;
#X connect 33 0 17 1;
#X connect 34 0 23 1;
