#N canvas -8 -8 1366 725 10;
#X obj 202 111 +~;
#X obj 244 79 *~ 0.9;
#X obj 850 304 vsl 15 64 0 1 0 0 empty empty empty 0 -9 0 10 -262144
-1 -1 0 1;
#X obj 410 103 nbx 5 14 -1e+037 1e+037 0 0 empty empty empty 0 -8 0
10 -262144 -1 -1 0 256;
#X obj 563 6 vsl 15 64 0 1000 0 0 empty empty empty 0 -9 0 10 -262144
-1 -1 0 1;
#X obj 576 90 nbx 5 14 -1e+037 1e+037 0 0 empty empty empty 0 -8 0
10 -262144 -1 -1 0 256;
#X obj 837 382 nbx 5 14 -1e+037 1e+037 0 0 empty empty empty 0 -8 0
10 -262144 -1 -1 0 256;
#X obj 1043 287 vsl 15 64 0 100 0 0 empty empty empty 0 -9 0 10 -262144
-1 -1 0 1;
#X obj 1045 376 nbx 5 14 -1e+037 1e+037 0 0 empty empty empty 0 -8
0 10 -262144 -1 -1 0 256;
#X obj 515 593 hip~ 30;
#X obj 969 290 vsl 15 64 0 3 0 0 empty empty empty 0 -9 0 10 -262144
-1 -1 0 1;
#X obj 956 368 nbx 5 14 -1e+037 1e+037 0 0 empty empty empty 0 -8 0
10 -262144 -1 -1 0 256;
#X obj 452 2 vsl 15 64 0 1 0 0 empty empty empty 0 -9 0 10 -262144
-1 -1 0 1;
#X obj 327 80 nbx 5 14 -1e+037 1e+037 0 0 empty empty empty 0 -8 0
10 -262144 -1 -1 0 256;
#X obj 234 -33 delread~ maindelay-\$1 4;
#X obj 495 647 delwrite~ maindelay-\$1 5000;
#X obj 214 148 lop~ 5000;
#X obj 89 522;
#X obj 131 441 *~ 1;
#X obj 42 451 *~ 1;
#X obj 44 230 vsl 15 64 0 3 0 0 empty empty empty 0 -9 0 10 -262144
-1 -1 0 1;
#X obj 51 326 nbx 5 14 -1e+037 1e+037 0 0 empty empty empty 0 -8 0
10 -262144 -1 -1 0 256;
#X obj 1094 293 vsl 15 64 0 100 0 0 empty empty empty 0 -9 0 10 -262144
-1 -1 0 1;
#X obj 1096 382 nbx 5 14 -1e+037 1e+037 0 0 empty empty empty 0 -8
0 10 -262144 -1 -1 0 256;
#X obj 412 8 vsl 15 64 0 15000 0 0 empty empty empty 0 -9 0 10 -262144
-1 -1 0 1;
#X obj 537 280 nbx 5 14 -1e+037 1e+037 0 0 empty empty empty 0 -8 0
10 -262144 -1 -1 0 256;
#X obj 545 193 vsl 15 64 0 15000 0 0 empty empty empty 0 -9 0 10 -262144
-1 -1 0 1;
#X obj 657 104 apdelay_inner 4.232;
#X obj 658 138 apdelay_inner 2.232;
#X obj 702 158 apdelay_inner 5.232;
#X obj 209 130 hip~ 50;
#X obj 685 8 inlet~;
#X obj 747 13 inlet~;
#X obj 35 561 outlet~;
#X obj 120 579 outlet~;
#X obj 200 176 apdelay \$1 4.77 0 1;
#X obj 193 200 apdelay \$1 22.57;
#X obj 211 270 apdelay \$1 124.99;
#X obj 199 225 apdelay \$1 149 0 1;
#X obj 213 247 apdelay \$1 60.48 0 1;
#X obj 208 297 apdelay \$1 30.5 0 1;
#X obj 214 340 apdelay \$1 106.28 0 1;
#X obj 214 389 apdelay \$1 11.25 0 1;
#X obj 352 211 apdelay \$1 19.84 0 1;
#X obj 356 258 apdelay \$1 18.55 0 1;
#X obj 369 305 apdelay \$1 11.85 0 1;
#X obj 367 355 apdelay \$1 3.09 0 1;
#X obj 210 317 apdelay \$1 89.244 1 0;
#X obj 216 364 apdelay \$1 82.49 1 0;
#X obj 224 411 apdelay \$1 66.78 1 0;
#X obj 352 235 apdelay \$1 4.74 1 0;
#X obj 371 282 apdelay \$1 9.44 1 0;
#X obj 368 325 apdelay \$1 34.64 1 0;
#X obj 372 377 apdelay \$1 2.97 1 0;
#X obj 380 395 apdelay \$1 13.12 0 1;
#X obj 372 424 apdelay \$1 23.23 1 0;
#X obj 379 446 apdelay \$1 33.28 0 1;
#X obj 366 474 apdelay \$1 6.24 1 0;
#X obj 380 502 apdelay \$1 20.6 0 1;
#X obj 96 396 catch~ tapsr-\$1;
#X obj 49 366 catch~ tapsl-\$1;
#X obj 816 254 s~ input-\$1;
#X obj 68 262 r volume-\$1;
#X obj 68 283 / 100;
#X obj 309 9 r decay-\$1;
#X obj 322 41 / 100;
#X obj 491 -9 r lopass-\$1;
#X obj 530 330 s ap_lop-\$1;
#X obj 834 412 s diffusion-\$1;
#X obj 953 398 s scale-\$1;
#X obj 1054 401 s mod-\$1;
#X obj 1105 407 s rand-\$1;
#X connect 0 0 30 0;
#X connect 1 0 0 0;
#X connect 2 0 6 0;
#X connect 3 0 16 1;
#X connect 4 0 5 0;
#X connect 5 0 14 0;
#X connect 6 0 68 0;
#X connect 7 0 8 0;
#X connect 8 0 70 0;
#X connect 9 0 15 0;
#X connect 10 0 11 0;
#X connect 11 0 69 0;
#X connect 12 0 13 0;
#X connect 13 0 1 1;
#X connect 14 0 1 0;
#X connect 16 0 35 0;
#X connect 18 0 34 0;
#X connect 19 0 33 0;
#X connect 20 0 21 0;
#X connect 21 0 19 1;
#X connect 21 0 18 1;
#X connect 22 0 23 0;
#X connect 23 0 71 0;
#X connect 24 0 3 0;
#X connect 25 0 67 0;
#X connect 26 0 25 0;
#X connect 27 0 28 0;
#X connect 28 0 29 0;
#X connect 29 0 61 0;
#X connect 30 0 16 0;
#X connect 31 0 27 0;
#X connect 32 0 27 0;
#X connect 35 0 36 0;
#X connect 36 0 38 0;
#X connect 37 0 40 0;
#X connect 38 0 39 0;
#X connect 39 0 37 0;
#X connect 40 0 47 0;
#X connect 41 0 48 0;
#X connect 42 0 49 0;
#X connect 43 0 50 0;
#X connect 44 0 51 0;
#X connect 45 0 52 0;
#X connect 46 0 53 0;
#X connect 47 0 41 0;
#X connect 48 0 42 0;
#X connect 49 0 43 0;
#X connect 50 0 44 0;
#X connect 51 0 45 0;
#X connect 52 0 46 0;
#X connect 53 0 54 0;
#X connect 54 0 55 0;
#X connect 55 0 56 0;
#X connect 56 0 57 0;
#X connect 57 0 58 0;
#X connect 58 0 9 0;
#X connect 59 0 18 0;
#X connect 60 0 19 0;
#X connect 62 0 63 0;
#X connect 63 0 21 0;
#X connect 64 0 65 0;
#X connect 65 0 13 0;
#X connect 66 0 3 0;
