#N canvas 0 50 546 617 10;
#X obj 255 127 metro 1000;
#X obj 275 54 loadbang;
#X obj 349 425 clip -1 1;
#X obj 332 236 random 1000;
#X obj 317 318 / 10000;
#X obj 319 362 +;
#X obj 353 482 sig~;
#X obj 352 534 lop~ 10;
#X obj 355 567 outlet~;
#X obj 227 87 bng 15 250 50 0 empty empty empty 17 7 0 10 -262144 -1
-1;
#X obj 388 279 - 500;
#X msg 195 188 0;
#X obj 281 76 r loadbang-\$1;
#X connect 0 0 3 0;
#X connect 1 0 0 0;
#X connect 2 0 5 1;
#X connect 2 0 6 0;
#X connect 3 0 10 0;
#X connect 4 0 5 0;
#X connect 5 0 2 0;
#X connect 6 0 7 0;
#X connect 7 0 8 0;
#X connect 9 0 0 0;
#X connect 10 0 4 0;
#X connect 11 0 5 1;
#X connect 12 0 0 0;
