#N canvas 479 576 222 164 10;
#X obj 15 22 inlet~ inL-\$1;
#X obj 108 22 inlet~ inR-\$1;
#X obj 15 122 outlet~ OutL-\$1;
#X obj 72 104 outlet~ OutR-\$1;
#X obj 72 86 /~ 3;
#X obj 15 104 /~ 3;
#N canvas 814 50 785 998 supercompress 0;
#X msg 352 473 knee 0;
#X msg 384 203 ratio 100;
#X obj 65 342 tb_peakcomp~;
#X obj 209 342 tb_peakcomp~;
#X obj 352 135 delay 100;
#X obj 352 333 delay 100;
#X msg 368 389 ratio 100;
#X obj 214 510 tb_peakcomp~;
#X obj 70 510 tb_peakcomp~;
#X msg 384 277 knee 1;
#X obj 335 4 bng 15 250 50 0 empty empty empty 17 7 0 10 -262144 -1
-1;
#X obj 209 614 *~;
#X obj 65 615 *~;
#X msg 384 175 threshold 0;
#X msg 384 305 makeup -6;
#X msg 368 445 release 7;
#X msg 368 361 threshold -6;
#X obj 65 632 *~ 3.5;
#X obj 209 632 *~ 3.5;
#X msg 368 417 attack 1;
#X obj 352 4 r loadbang-\$1;
#X obj 65 234 inlet~;
#X obj 209 234 inlet~;
#X obj 65 650 outlet~;
#X obj 209 650 outlet~;
#X obj 65 558 delwrite~ L-\$1 10;
#X obj 65 597 delread~ L-\$1 1;
#X obj 209 558 delwrite~ R-\$1 10;
#X obj 209 596 delread~ R-\$1 1;
#X obj 264 77 bng 15 250 50 0 empty empty empty 17 7 0 10 -262144 -1
-1;
#X obj 311 918 int;
#X obj 197 814 i;
#X msg 197 1132 /oled/gFlip 3;
#X obj 228 1058 f;
#X obj 197 832 + 2;
#X obj 197 760 / 100;
#X obj 197 742 -;
#X obj 185 714 f;
#X obj 197 778 + 1;
#X obj 197 796 * 600;
#X obj 310 954 int;
#X obj 197 850 +;
#X obj 197 868 int;
#X obj 185 542 +;
#X obj 185 560 / 2;
#X obj 311 936 - 100;
#X obj 134 360 env~;
#X obj 278 360 env~;
#X obj 278 378 + 0.01;
#X obj 134 378 + 0.01;
#X obj 139 528 env~;
#X obj 283 528 env~;
#X obj 185 678 snapshot~;
#X obj 185 578 sig~;
#X obj 185 696 t b f f;
#X msg 384 249 release \$1;
#X obj 459 496 sel \$1;
#X msg 579 620 stop;
#X obj 459 478 unpack s s;
#X obj 459 460 r activePage;
#X obj 459 542 &&;
#X msg 516 514 1;
#X msg 597 514 0;
#X msg 459 514 1;
#X msg 492 514 0;
#X obj 197 886 min 125;
#X obj 197 904 t b f f b b b;
#X msg 384 231 100;
#X obj 459 664 metro 40;
#X obj 459 634 delay 500;
#X obj 516 496 sel pg_capture;
#X msg 257 1018 /oled/gPrintln 3 2 33 8 1 _____________________;
#X msg 228 1076 /oled/gFillArea 3 2 32 \$1 5 0;
#X msg 212 1104 /oled/gFillArea 3 2 32 \$1 5 1;
#X obj 284 32 tgl 15 0 empty empty empty 17 7 0 10 -262144 -1 -1 0
1;
#X obj 251 59 spigot;
#X obj 459 578 t f f;
#X obj 254 193 spigot;
#X obj 367 41 r recording;
#X obj 367 59 - 1;
#X obj 367 87 tgl 15 0 empty empty empty 17 7 0 10 -262144 -1 -1 -1
1;
#X obj 254 211 int 100;
#X obj 13 1170 s oscOutRaw;
#X obj 310 990 s screenLine2;
#X msg 310 972 Attenuation L+R \$1db;
#X obj 108 176 s redrawcapture;
#X obj 251 4 r reaction-\$1;
#X obj 459 606 sel 1;
#X msg 559 648 /oled/gFillArea 3 0 50 128 14 0;
#X obj 459 560 change;
#X connect 0 0 7 0;
#X connect 0 0 8 0;
#X connect 1 0 2 0;
#X connect 1 0 3 0;
#X connect 2 0 8 0;
#X connect 2 0 8 1;
#X connect 2 0 25 0;
#X connect 2 2 46 0;
#X connect 3 0 7 0;
#X connect 3 0 7 1;
#X connect 3 0 27 0;
#X connect 3 2 47 0;
#X connect 4 0 13 0;
#X connect 4 0 1 0;
#X connect 4 0 9 0;
#X connect 4 0 5 0;
#X connect 4 0 14 0;
#X connect 4 0 67 0;
#X connect 5 0 0 0;
#X connect 5 0 16 0;
#X connect 5 0 6 0;
#X connect 5 0 15 0;
#X connect 5 0 19 0;
#X connect 6 0 8 0;
#X connect 6 0 7 0;
#X connect 7 2 11 1;
#X connect 7 2 51 0;
#X connect 8 2 12 1;
#X connect 8 2 50 0;
#X connect 9 0 2 0;
#X connect 9 0 3 0;
#X connect 10 0 4 0;
#X connect 11 0 18 0;
#X connect 12 0 17 0;
#X connect 13 0 2 0;
#X connect 13 0 3 0;
#X connect 14 0 3 0;
#X connect 14 0 2 0;
#X connect 15 0 7 0;
#X connect 15 0 8 0;
#X connect 16 0 8 0;
#X connect 16 0 7 0;
#X connect 17 0 23 0;
#X connect 18 0 24 0;
#X connect 19 0 7 0;
#X connect 19 0 8 0;
#X connect 20 0 4 0;
#X connect 20 0 80 0;
#X connect 21 0 2 0;
#X connect 21 0 2 1;
#X connect 22 0 3 0;
#X connect 22 0 3 1;
#X connect 26 0 12 0;
#X connect 28 0 11 0;
#X connect 29 0 13 0;
#X connect 29 0 1 0;
#X connect 29 0 9 0;
#X connect 29 0 14 0;
#X connect 29 0 5 0;
#X connect 29 0 81 0;
#X connect 29 0 85 0;
#X connect 30 0 45 0;
#X connect 31 0 34 0;
#X connect 32 0 82 0;
#X connect 33 0 72 0;
#X connect 34 0 41 0;
#X connect 35 0 38 0;
#X connect 36 0 35 0;
#X connect 37 0 36 0;
#X connect 38 0 39 0;
#X connect 39 0 31 0;
#X connect 40 0 84 0;
#X connect 41 0 42 0;
#X connect 42 0 65 0;
#X connect 43 0 44 0;
#X connect 44 0 53 0;
#X connect 45 0 40 0;
#X connect 46 0 49 0;
#X connect 47 0 48 0;
#X connect 48 0 43 1;
#X connect 49 0 43 0;
#X connect 50 0 43 0;
#X connect 51 0 43 1;
#X connect 52 0 54 0;
#X connect 53 0 52 0;
#X connect 54 0 37 0;
#X connect 54 1 36 1;
#X connect 54 2 30 1;
#X connect 55 0 2 0;
#X connect 55 0 3 0;
#X connect 56 0 63 0;
#X connect 56 1 64 0;
#X connect 57 0 68 0;
#X connect 57 0 69 0;
#X connect 58 0 56 0;
#X connect 58 1 70 0;
#X connect 59 0 58 0;
#X connect 60 0 89 0;
#X connect 61 0 60 1;
#X connect 62 0 60 1;
#X connect 63 0 60 0;
#X connect 64 0 60 0;
#X connect 65 0 66 0;
#X connect 66 0 32 0;
#X connect 66 1 73 0;
#X connect 66 2 33 1;
#X connect 66 3 33 0;
#X connect 66 4 71 0;
#X connect 66 5 30 0;
#X connect 67 0 55 0;
#X connect 68 0 52 0;
#X connect 69 0 68 0;
#X connect 70 0 61 0;
#X connect 70 1 62 0;
#X connect 71 0 82 0;
#X connect 72 0 82 0;
#X connect 73 0 82 0;
#X connect 74 0 75 1;
#X connect 75 0 29 0;
#X connect 75 0 77 0;
#X connect 76 0 87 0;
#X connect 76 1 74 0;
#X connect 77 0 81 0;
#X connect 78 0 79 0;
#X connect 79 0 80 0;
#X connect 80 0 77 1;
#X connect 81 0 55 0;
#X connect 84 0 83 0;
#X connect 86 0 75 0;
#X connect 87 0 69 0;
#X connect 87 1 57 0;
#X connect 87 1 88 0;
#X connect 88 0 82 0;
#X connect 89 0 76 0;
#X restore 15 40 pd supercompress;
#N canvas 4 50 1912 995 capture 1;
#X obj 491 650 t b b;
#X obj 491 686 s start-timer;
#X obj 518 668 s reset-timer;
#X obj 1713 701 s recording;
#X obj 625 299 r recording;
#X obj 625 367 - 1;
#X obj 625 395 tgl 15 0 empty empty empty 17 7 0 10 -262144 -1 -1 -1
1;
#X obj 592 412 spigot;
#X obj 592 430 s reset-timer;
#X obj 608 368 tgl 15 0 empty empty empty 17 7 0 10 -262144 -1 -1 0
1;
#X obj 553 394 spigot;
#X obj 592 245 delay 3000;
#N canvas 4 50 454 386 timer 0;
#X floatatom 170 221 5 0 0 0 - - -;
#X obj 136 203 % 60;
#X floatatom 136 221 5 0 0 0 - - -;
#X obj 94 203 % 24;
#X floatatom 94 221 5 0 0 0 - - -;
#X obj 94 238 pack 0 0 0;
#X obj 122 167 t f f f;
#X obj 127 121 i;
#X obj 38 42 bng 15 250 50 0 empty empty empty 17 7 0 10 -262144 -1
-1;
#X obj 206 42 bng 15 250 50 0 empty empty empty 17 7 0 10 -262144 -1
-1;
#X obj 151 121 + 1;
#X obj 122 42 bng 15 250 50 0 empty empty empty 17 7 0 10 -262144 -1
-1;
#X obj 38 77 tgl 15 0 empty empty empty 17 7 0 10 -262144 -1 -1 0 1
;
#X obj 38 94 metro 1000;
#X obj 170 203 % 60;
#X obj 136 185 / 60;
#X obj 94 185 / 3600;
#X msg 38 59 1;
#X msg 206 59 0;
#X obj 122 59 t b b b;
#X msg 150 78 0;
#X msg 122 78 0;
#X obj 38 24 r start-timer;
#X obj 122 24 r reset-timer;
#X obj 206 24 r stop-timer;
#X obj 127 149 f;
#X obj 261 105 sel \$1;
#X obj 261 87 unpack s s;
#X obj 261 69 r activePage;
#X obj 273 151 &&;
#X msg 318 123 1;
#X msg 399 123 0;
#X msg 261 123 1;
#X msg 294 123 0;
#X obj 318 105 sel pg_capture;
#X msg 273 215 1;
#X msg 300 215 0;
#X obj 273 253 tgl 15 0 empty empty empty 17 7 0 10 -262144 -1 -1 0
1;
#X obj 94 266 spigot;
#X obj 273 169 f;
#X obj 94 348 s screenLine5;
#X msg 94 330 T. \$1 h \$2 min \$3 sec \;;
#X obj 99 312 delay 500;
#X msg 327 215 stop;
#X obj 273 187 sel 1;
#X connect 0 0 5 2;
#X connect 1 0 2 0;
#X connect 2 0 5 1;
#X connect 3 0 4 0;
#X connect 4 0 5 0;
#X connect 5 0 38 0;
#X connect 6 0 16 0;
#X connect 6 1 15 0;
#X connect 6 2 14 0;
#X connect 7 0 10 0;
#X connect 7 0 25 0;
#X connect 8 0 17 0;
#X connect 9 0 18 0;
#X connect 10 0 7 1;
#X connect 11 0 19 0;
#X connect 12 0 13 0;
#X connect 13 0 7 0;
#X connect 14 0 0 0;
#X connect 15 0 1 0;
#X connect 16 0 3 0;
#X connect 17 0 12 0;
#X connect 18 0 12 0;
#X connect 19 0 21 0;
#X connect 19 1 20 0;
#X connect 19 2 18 0;
#X connect 20 0 7 1;
#X connect 21 0 6 0;
#X connect 22 0 8 0;
#X connect 23 0 11 0;
#X connect 24 0 9 0;
#X connect 25 0 6 0;
#X connect 26 0 32 0;
#X connect 26 1 33 0;
#X connect 27 0 26 0;
#X connect 27 1 34 0;
#X connect 28 0 27 0;
#X connect 29 0 39 0;
#X connect 30 0 29 1;
#X connect 31 0 29 1;
#X connect 32 0 29 0;
#X connect 33 0 29 0;
#X connect 34 0 30 0;
#X connect 34 1 31 0;
#X connect 35 0 37 0;
#X connect 36 0 37 0;
#X connect 37 0 38 1;
#X connect 38 0 41 0;
#X connect 39 0 44 0;
#X connect 41 0 40 0;
#X connect 42 0 41 0;
#X connect 43 0 42 0;
#X connect 44 0 35 0;
#X connect 44 0 42 0;
#X connect 44 1 36 0;
#X connect 44 1 43 0;
#X restore 374 661 pd timer;
#X obj 553 531 f 1;
#X obj 939 90 sel \$1;
#X obj 939 72 unpack s s;
#X obj 939 54 r activePage;
#X obj 951 136 &&;
#X msg 996 108 1;
#X msg 1077 108 0;
#X msg 939 108 1;
#X msg 972 108 0;
#X obj 996 90 sel pg_capture;
#X msg 483 196 1;
#X msg 510 196 0;
#X obj 483 224 tgl 15 0 empty empty empty 17 7 0 10 -262144 -1 -1 0
1;
#X obj 518 586 s stop-timer;
#X obj 592 273 spigot;
#X obj 491 480 sel 1 0;
#X obj 669 531 f 1;
#X obj 496 632 s aux-led-\$1;
#X msg 496 604 3;
#X msg 466 604 0;
#X obj 1847 773 s CapturesMonitor;
#X msg 659 367 1;
#X obj 592 217 r redrawcapture;
#X msg 537 196 stop;
#X obj 483 168 sel 1;
#X obj 483 150 change;
#X obj 1661 653 tgl 50 0 empty empty empty 17 7 0 100 -262144 -1 -1
0 1;
#X floatatom 1811 760 5 0 0 0 - - -;
#X obj 1661 507 tgl 50 0 empty empty empty 17 7 0 100 -262144 -1 -1
0 1;
#X obj 1811 652 + 1, f 4;
#X msg 1661 625 1;
#X obj 1661 559 sel 1 0;
#X msg 1689 625 0;
#X obj 1767 624 i 1;
#X obj 1767 596 t b f;
#X obj 1661 587 t b b;
#X msg 87 1071 start;
#X msg 1612 1071 stop;
#X obj 1688 733 t b b, f 12;
#X obj 1757 1023 *~;
#X obj 1650 1117 *~, f 9;
#X obj 87 993 t b b, f 8;
#X obj 60 729 t b b;
#X obj 60 937 delay 5;
#X obj 60 955 t b b;
#X obj 1707 1171 *~, f 9;
#X obj 1650 1189 writesf~ 2;
#X obj 132 1053 i 1, f 7;
#X obj 1757 987 lop~ 1;
#X obj 1688 1001 delay 1000;
#X floatatom 1767 579 5 0 0 0 - - -;
#X obj 1661 715 sel 1;
#X obj 1650 1081 inlet~;
#X obj 1707 1135 inlet~;
#X obj 1655 1099 outlet~;
#X obj 1712 1153 outlet~;
#X text 1843 760 .wav (current capture);
#X text 1797 987 second fade-in + fade-out + stop-delay;
#X text 1714 1189 channels (stereo);
#X obj 440 1053 i 1, f 7;
#X obj 165 791 moses 10;
#X msg 60 973 1;
#X msg 1757 959 0;
#X obj 132 1035 spigot;
#X obj 440 1035 spigot;
#X msg 165 967 1;
#X msg 170 949 0;
#X msg 210 937 1;
#X msg 215 919 0;
#X obj 165 773 f;
#X obj 1697 587 t b b;
#X obj 742 1053 i 1, f 7;
#X obj 742 1035 spigot;
#X obj 210 809 moses 100;
#X msg 261 923 1;
#X msg 266 905 0;
#X obj 1838 805 text set captures;
#X obj 1038 1053 i 1, f 7;
#X obj 1038 1035 spigot;
#X obj 261 827 moses 1000;
#X msg 318 901 1;
#X msg 323 883 0;
#X obj 1811 787 t b f;
#X obj 1328 1053 i 1, f 7;
#X text 1371 1087 24bit;
#X obj 1328 1035 spigot;
#X obj 318 845 moses 10000;
#X msg 381 881 1;
#X msg 386 863 0;
#X obj 1728 335 r loadbang-\$1;
#X obj 1661 453 r auxIn-\$1;
#X obj 1661 471 sel 1;
#X msg 132 1071 open -bytes 3 /tmp/media/orac/captures/0000\$1.wav
;
#X msg 440 1071 open -bytes 3 /tmp/media/orac/captures/000\$1.wav;
#X msg 742 1071 open -bytes 3 /tmp/media/orac/captures/00\$1.wav;
#X msg 1038 1071 open -bytes 3 /tmp/media/orac/captures/0\$1.wav;
#X msg 1328 1071 open -bytes 3 /tmp/media/orac/captures/\$1.wav;
#X msg 669 549 Captured #\$1 \;;
#X msg 553 549 Capture #\$1 \;;
#X obj 1728 353 t b b b;
#X msg 1811 823 write captures.txt;
#X obj 1767 489 textfile;
#X obj 1767 399 until;
#X msg 1846 389 rewind;
#X msg 1926 389 read captures.txt cr;
#X obj 1767 371 t b b b, f 27;
#X msg 1767 417 bang;
#X obj 1767 507 list;
#X obj 1767 525 unpack f;
#X obj 1767 543 - 1;
#X obj 1767 561 max 0;
#X obj 1811 841 text define captures;
#X obj 428 317 delay 500;
#X obj 1795 951 r arm-record;
#X obj 1795 969 * 10000;
#X obj 1790 915 delay 1000;
#X msg 1790 933 1;
#X obj 1666 489 r record;
#X obj 669 597 spigot;
#X obj 669 615 s screenLine4;
#X obj 951 477 cputime;
#X obj 951 405 metro 1000;
#X obj 951 459 t b b, f 7;
#X obj 951 513 * 0.1;
#X obj 951 495 int;
#X obj 951 423 delay 500;
#X obj 951 531 min 99;
#X obj 951 441 spigot 1, f 10;
#X obj 1027 427 - 1;
#X msg 951 549 Capture (1.5) CPU:\$1%;
#X connect 0 0 1 0;
#X connect 0 1 2 0;
#X connect 4 0 5 0;
#X connect 4 0 9 0;
#X connect 5 0 6 0;
#X connect 6 0 7 1;
#X connect 7 0 8 0;
#X connect 9 0 10 1;
#X connect 10 0 13 0;
#X connect 11 0 27 0;
#X connect 13 0 111 0;
#X connect 14 0 20 0;
#X connect 14 1 21 0;
#X connect 15 0 14 0;
#X connect 15 1 22 0;
#X connect 16 0 15 0;
#X connect 17 0 38 0;
#X connect 17 0 131 1;
#X connect 17 0 134 0;
#X connect 18 0 17 1;
#X connect 19 0 17 1;
#X connect 20 0 17 0;
#X connect 21 0 17 0;
#X connect 22 0 18 0;
#X connect 22 1 19 0;
#X connect 23 0 25 0;
#X connect 24 0 25 0;
#X connect 25 0 27 1;
#X connect 27 0 7 0;
#X connect 27 0 10 0;
#X connect 28 0 31 0;
#X connect 28 0 0 0;
#X connect 28 0 13 0;
#X connect 28 1 26 0;
#X connect 28 1 29 0;
#X connect 28 1 32 0;
#X connect 29 0 110 0;
#X connect 31 0 30 0;
#X connect 32 0 30 0;
#X connect 34 0 6 0;
#X connect 35 0 11 0;
#X connect 36 0 11 0;
#X connect 37 0 23 0;
#X connect 37 0 125 0;
#X connect 37 1 24 0;
#X connect 37 1 36 0;
#X connect 38 0 37 0;
#X connect 39 0 64 0;
#X connect 39 0 3 0;
#X connect 39 0 28 0;
#X connect 39 0 141 0;
#X connect 40 0 72 1;
#X connect 40 0 60 1;
#X connect 40 0 82 1;
#X connect 40 0 84 1;
#X connect 40 0 90 1;
#X connect 40 0 95 0;
#X connect 40 0 96 1;
#X connect 40 0 33 0;
#X connect 40 0 29 1;
#X connect 40 0 13 1;
#X connect 41 0 44 0;
#X connect 42 0 46 1;
#X connect 42 0 40 0;
#X connect 43 0 39 0;
#X connect 44 0 48 0;
#X connect 44 1 83 0;
#X connect 45 0 39 0;
#X connect 46 0 42 0;
#X connect 47 0 46 0;
#X connect 47 1 46 1;
#X connect 48 0 43 0;
#X connect 48 1 82 0;
#X connect 49 0 59 0;
#X connect 50 0 59 0;
#X connect 51 0 62 0;
#X connect 51 1 75 0;
#X connect 52 0 53 1;
#X connect 52 0 58 1;
#X connect 53 0 59 0;
#X connect 54 0 49 0;
#X connect 54 1 76 0;
#X connect 54 1 77 0;
#X connect 54 1 85 0;
#X connect 54 1 91 0;
#X connect 55 0 56 0;
#X connect 55 1 75 0;
#X connect 56 0 57 0;
#X connect 57 0 74 0;
#X connect 57 1 54 0;
#X connect 58 0 59 1;
#X connect 60 0 105 0;
#X connect 61 0 52 0;
#X connect 61 0 52 1;
#X connect 62 0 50 0;
#X connect 63 0 47 0;
#X connect 64 0 55 0;
#X connect 64 0 128 0;
#X connect 64 1 51 0;
#X connect 65 0 53 0;
#X connect 65 0 67 0;
#X connect 66 0 58 0;
#X connect 66 0 68 0;
#X connect 72 0 106 0;
#X connect 73 0 79 0;
#X connect 73 0 78 0;
#X connect 73 1 86 0;
#X connect 74 0 61 0;
#X connect 75 0 61 0;
#X connect 76 0 60 0;
#X connect 77 0 72 0;
#X connect 78 0 76 1;
#X connect 79 0 77 1;
#X connect 79 0 85 1;
#X connect 79 0 91 1;
#X connect 79 0 98 1;
#X connect 80 0 77 1;
#X connect 81 0 76 1;
#X connect 81 0 85 1;
#X connect 81 0 91 1;
#X connect 81 0 98 1;
#X connect 82 0 73 0;
#X connect 83 0 46 0;
#X connect 83 1 45 0;
#X connect 84 0 107 0;
#X connect 85 0 84 0;
#X connect 86 0 81 0;
#X connect 86 0 80 0;
#X connect 86 1 92 0;
#X connect 87 0 85 1;
#X connect 88 0 76 1;
#X connect 88 0 77 1;
#X connect 88 0 91 1;
#X connect 88 0 98 1;
#X connect 90 0 108 0;
#X connect 91 0 90 0;
#X connect 92 0 88 0;
#X connect 92 0 87 0;
#X connect 92 1 99 0;
#X connect 93 0 91 1;
#X connect 94 0 77 1;
#X connect 94 0 85 1;
#X connect 94 0 76 1;
#X connect 94 0 98 1;
#X connect 95 0 113 0;
#X connect 95 1 89 0;
#X connect 96 0 109 0;
#X connect 98 0 96 0;
#X connect 99 0 94 0;
#X connect 99 0 93 0;
#X connect 99 1 101 0;
#X connect 99 1 100 0;
#X connect 100 0 98 1;
#X connect 101 0 77 1;
#X connect 101 0 91 1;
#X connect 101 0 85 1;
#X connect 101 0 76 1;
#X connect 102 0 112 0;
#X connect 103 0 104 0;
#X connect 104 0 41 0;
#X connect 105 0 59 0;
#X connect 106 0 59 0;
#X connect 107 0 59 0;
#X connect 108 0 59 0;
#X connect 109 0 59 0;
#X connect 110 0 131 0;
#X connect 111 0 131 0;
#X connect 112 0 34 0;
#X connect 112 2 118 0;
#X connect 113 0 124 0;
#X connect 114 0 120 0;
#X connect 114 1 115 1;
#X connect 115 0 119 0;
#X connect 116 0 114 0;
#X connect 117 0 114 0;
#X connect 118 0 115 0;
#X connect 118 1 116 0;
#X connect 118 2 117 0;
#X connect 119 0 114 0;
#X connect 120 0 121 0;
#X connect 121 0 122 0;
#X connect 122 0 123 0;
#X connect 123 0 63 0;
#X connect 125 0 10 0;
#X connect 126 0 127 0;
#X connect 127 0 61 1;
#X connect 128 0 129 0;
#X connect 129 0 61 1;
#X connect 130 0 41 0;
#X connect 131 0 132 0;
#X connect 133 0 137 0;
#X connect 134 0 138 0;
#X connect 135 0 133 0;
#X connect 135 1 133 1;
#X connect 136 0 139 0;
#X connect 137 0 136 0;
#X connect 138 0 140 0;
#X connect 139 0 142 0;
#X connect 140 0 135 0;
#X connect 141 0 140 1;
#X connect 142 0 131 0;
#X restore 15 68 pd capture;
#X connect 0 0 6 0;
#X connect 1 0 6 1;
#X connect 4 0 3 0;
#X connect 5 0 2 0;
#X connect 6 0 7 0;
#X connect 6 1 7 1;
#X connect 7 0 5 0;
#X connect 7 1 4 0;
