#N canvas 770 296 493 271 10;
#X obj 33 30 r loadbang-\$1;
#X obj 117 217 outlet~ outL-\$1;
#X obj 219 217 outlet~ outR-\$1;
#X obj 301 30 r expIn-\$1;
#X obj 395 56 r fsIn-\$1;
#X obj 301 55 s notesOut-\$1;
#X obj 377 30 s ctrlOut-\$1;
#X text 194 173 Pd~ subprocess;
#N canvas 346 111 1007 676 subparams 1;
#X obj 443 636 outlet;
#X obj 62 380 r notesIn-\$1;
#X obj 640 458 r ctrlIn-\$1;
#X obj 640 479 unpack 0 0 0;
#X floatatom 639 501 5 0 0 0 - - -;
#X floatatom 707 503 5 0 0 0 - - -;
#X floatatom 809 503 5 0 0 0 - - -;
#X msg 639 527 valuem \$1;
#X msg 809 527 channelm \$1;
#X msg 707 527 controllerm \$1;
#X obj 18 21 r auxIn-\$1;
#X msg 17 46 auxIn-test \$1;
#X obj 109 22 r trans-\$1;
#X msg 109 43 trans-test \$1;
#X obj 225 22 r decay-\$1;
#X obj 332 22 r tone-\$1;
#X msg 225 43 decay-test \$1;
#X msg 332 43 tone-test \$1;
#X obj 437 37 r loadbang-\$1;
#X msg 438 91 loadbang-test \$1;
#X obj 80 433 unpack 0 0 0;
#X obj 31 3;
#X msg 21 473 note-pd \$1;
#X msg 148 487 vel-pd \$1;
#X msg 238 498 chan-pd \$1;
#X connect 1 0 20 0;
#X connect 2 0 3 0;
#X connect 3 0 4 0;
#X connect 3 1 5 0;
#X connect 3 2 6 0;
#X connect 4 0 7 0;
#X connect 5 0 9 0;
#X connect 6 0 8 0;
#X connect 7 0 0 0;
#X connect 8 0 0 0;
#X connect 9 0 0 0;
#X connect 10 0 11 0;
#X connect 11 0 0 0;
#X connect 12 0 13 0;
#X connect 13 0 0 0;
#X connect 14 0 16 0;
#X connect 15 0 17 0;
#X connect 16 0 0 0;
#X connect 17 0 0 0;
#X connect 18 0 19 0;
#X connect 19 0 0 0;
#X connect 20 0 22 0;
#X connect 20 1 23 0;
#X connect 20 2 24 0;
#X connect 22 0 0 0;
#X connect 23 0 0 0;
#X connect 24 0 0 0;
#X restore 49 90 pd subparams;
#X text 119 109 subprocess parameters;
#X obj 19 217 s aux-label-\$1;
#X obj 61 126 inlet~ inL-\$1;
#X obj 172 138 inlet~ inR-\$1;
#X obj 33 175 pd~ -ninsig 2 -noutsig 2;
#X msg 33 68 pd~ start wrapper.pd;
#X connect 0 0 14 0;
#X connect 8 0 13 0;
#X connect 11 0 13 0;
#X connect 12 0 13 1;
#X connect 13 0 10 0;
#X connect 13 1 1 0;
#X connect 13 2 2 0;
#X connect 14 0 13 0;
