#N canvas 601 322 485 513 10;
#X obj 33 30 r loadbang-\$1;
#X obj 117 217 outlet~ outL-\$1;
#X obj 219 217 outlet~ outR-\$1;
#X obj 301 30 r expIn-\$1;
#X obj 395 56 r fsIn-\$1;
#X obj 301 55 s notesOut-\$1;
#X obj 377 30 s ctrlOut-\$1;
#X text 194 173 Pd~ subprocess;
#N canvas 267 61 1007 676 subparams 0;
#X obj 443 636 outlet;
#X obj 62 380 r notesIn-\$1;
#X obj 640 458 r ctrlIn-\$1;
#X obj 640 479 unpack 0 0 0;
#X floatatom 639 501 5 0 0 0 - - -;
#X floatatom 707 503 5 0 0 0 - - -;
#X floatatom 809 503 5 0 0 0 - - -;
#X msg 639 527 valuem \$1;
#X msg 809 527 channelm \$1;
#X msg 707 527 controllerm \$1;
#X obj 105 153 r auxIn-\$1;
#X obj 439 404 r loadbang-\$1;
#X obj 80 433 unpack 0 0 0;
#X msg 21 473 note-pd \$1;
#X msg 148 487 vel-pd \$1;
#X msg 238 498 chan-pd \$1;
#X msg 104 178 auxIn-pd \$1;
#X msg 280 185 expIn-pd \$1;
#X obj 281 160 r expIn-\$1;
#X msg 440 458 loadbang-pd \$1;
#X connect 1 0 12 0;
#X connect 2 0 3 0;
#X connect 3 0 4 0;
#X connect 3 1 5 0;
#X connect 3 2 6 0;
#X connect 4 0 7 0;
#X connect 5 0 9 0;
#X connect 6 0 8 0;
#X connect 7 0 0 0;
#X connect 8 0 0 0;
#X connect 9 0 0 0;
#X connect 10 0 16 0;
#X connect 11 0 19 0;
#X connect 12 0 13 0;
#X connect 12 1 14 0;
#X connect 12 2 15 0;
#X connect 13 0 0 0;
#X connect 14 0 0 0;
#X connect 15 0 0 0;
#X connect 16 0 0 0;
#X connect 17 0 0 0;
#X connect 18 0 17 0;
#X connect 19 0 0 0;
#X restore 49 90 pd subparams;
#X obj 19 217 s aux-label-\$1;
#X obj 61 126 inlet~ inL-\$1;
#X obj 172 138 inlet~ inR-\$1;
#X obj 33 175 pd~ -ninsig 2 -noutsig 2;
#X obj 205 70 params \$1;
#X text 49 108 default inputs;
#X text 199 92 module specific params;
#X msg 33 53 pd~ start -nogui wrapper.pd;
#X connect 0 0 16 0;
#X connect 8 0 12 0;
#X connect 10 0 12 0;
#X connect 11 0 12 1;
#X connect 12 0 9 0;
#X connect 12 1 1 0;
#X connect 12 2 2 0;
#X connect 13 0 12 0;
#X connect 16 0 12 0;
