#N canvas 0 25 1034 552 12;
#X obj 280 268 outlet;
#X obj 109 22 r trans-\$1;
#X obj 109 42 float;
#X msg 109 62 trans-pd \$1;
#X obj 109 82 r decay-\$1;
#X obj 109 102 float;
#X msg 109 122 decay-pd \$1;
#X obj 109 142 r tone-\$1;
#X obj 109 162 float;
#X msg 109 182 tone-pd \$1;
#X obj 240 240 inlet;
#X connect 1 0 2 0;
#X connect 2 0 3 0;
#X connect 3 0 0 0;
#X connect 10 0 2 0;
#X connect 4 0 5 0;
#X connect 5 0 6 0;
#X connect 6 0 0 0;
#X connect 10 0 5 0;
#X connect 7 0 8 0;
#X connect 8 0 9 0;
#X connect 9 0 0 0;
#X connect 10 0 8 0;
