#N canvas 80 130 733 584 10;
#X msg 333 149 \; pd dsp 1;
#X obj 334 124 loadbang;
#X obj 180 219 adc~;
#X obj 222 442 dac~;
#X obj 191 324 module/module test;
#X obj 356 256 r note-pd;
#X obj 432 253 r vel-pd;
#X obj 480 257 r chan-pd;
#X obj 375 309 pack 0 0 0;
#X obj 460 354;
#X obj 350 363 s notesIn-test;
#X connect 1 0 0 0;
#X connect 2 0 4 0;
#X connect 2 1 4 1;
#X connect 4 0 3 0;
#X connect 4 1 3 1;
#X connect 5 0 8 0;
#X connect 6 0 8 1;
#X connect 7 0 8 2;
#X connect 8 0 10 0;
