#N canvas -21 42 1358 608 10;
#X obj 215 129 r notesIn-\$1;
#X obj 304 490 s notesOut-\$1;
#X obj 25 186 inlet~ inL-\$1;
#X obj 135 186 inlet~ inR-\$1;
#X obj 27 491 outlet~ outL-\$1;
#X obj 136 491 outlet~ outR-\$1;
#X obj 399 23 r auxIn-\$1;
#X obj 486 331 r expIn-\$1;
#X obj 486 356 r fsIn-\$1;
#X obj 302 307 midicycle;
#X obj 290 396 pack 0 0 0;
#X obj 279 363 unpack 0 0;
#X obj 121 243 r mc_quantize-\$1;
#X msg 190 306 quantize \$1;
#X obj 414 205 f 4;
#X obj 463 173 r mc_beats-\$1;
#X msg 422 239 loop \$1;
#X msg 297 193 loop 0;
#X obj 494 87;
#X obj 340 109 tgl 15 0 empty empty empty 17 7 0 10 -262144 -1 -1 0
1;
#X obj 316 67 t b b;
#X obj 385 129 sel 1;
#X obj 337 157 bng 15 250 50 0 empty empty empty 17 7 0 10 -262144
-1 -1;
#X obj 294 41 bng 15 250 50 0 empty empty empty 17 7 0 10 -262144 -1
-1;
#X msg 289 239 note \$1 \$2;
#X obj 600 116 r master-ticks;
#X msg 530 270 tick \$1;
#X obj 422 69 sel 1;
#X obj 41 311 r mc_overdub-\$1;
#X msg 110 374 overdub \$1;
#X obj 559 413 s aux-label-\$1;
#X msg 576 350 Looping \$1;
#X msg 681 362 Recording;
#X connect 0 0 24 0;
#X connect 0 0 1 0;
#X connect 6 0 27 0;
#X connect 9 0 11 0;
#X connect 10 0 1 0;
#X connect 11 0 10 0;
#X connect 11 1 10 1;
#X connect 12 0 13 0;
#X connect 13 0 9 0;
#X connect 14 0 16 0;
#X connect 14 0 31 0;
#X connect 15 0 14 1;
#X connect 16 0 9 0;
#X connect 17 0 9 0;
#X connect 19 0 21 0;
#X connect 20 1 19 0;
#X connect 21 0 14 0;
#X connect 21 1 22 0;
#X connect 22 0 17 0;
#X connect 22 0 32 0;
#X connect 23 0 20 0;
#X connect 24 0 9 0;
#X connect 25 0 26 0;
#X connect 26 0 9 0;
#X connect 27 0 20 0;
#X connect 28 0 29 0;
#X connect 29 0 9 0;
#X connect 31 0 30 0;
#X connect 32 0 30 0;
