#N canvas 41 42 1358 608 10;
#X obj 215 129 r notesIn-\$1;
#X obj 304 490 s notesOut-\$1;
#X obj 25 186 inlet~ inL-\$1;
#X obj 135 186 inlet~ inR-\$1;
#X obj 27 491 outlet~ outL-\$1;
#X obj 136 491 outlet~ outR-\$1;
#X obj 399 23 r auxIn-\$1;
#X obj 486 331 r expIn-\$1;
#X obj 486 356 r fsIn-\$1;
#X obj 302 307 midicycle;
#X obj 290 396 pack 0 0 0;
#X obj 279 363 unpack 0 0;
#X obj 121 243 r mc_quantize-\$1;
#X msg 190 306 quantize \$1;
#X obj 414 205 f 4;
#X obj 463 173 r mc_beats-\$1;
#X msg 422 239 loop \$1;
#X msg 297 193 loop 0;
#X obj 494 87;
#X obj 340 109 tgl 15 0 empty empty empty 17 7 0 10 -262144 -1 -1 0
1;
#X obj 316 67 t b b;
#X obj 385 129 sel 1;
#X obj 337 157 bng 15 250 50 0 empty empty empty 17 7 0 10 -262144
-1 -1;
#X obj 294 41 bng 15 250 50 0 empty empty empty 17 7 0 10 -262144 -1
-1;
#X msg 289 239 note \$1 \$2;
#X obj 600 116 r master-ticks;
#X msg 530 270 tick \$1;
#X obj 422 69 sel 1;
#X obj 41 311 r mc_overdub-\$1;
#X msg 110 374 overdub \$1;
#X obj 559 413 s aux-label-\$1;
#X msg 576 350 Looping \$1;
#X msg 681 362 Recording;
#X obj 796 175 list;
#X obj 1016 70 r rackSavePreset;
#N canvas 145 297 803 448 presetDir 0;
#X obj 88 153 s rackMsgs;
#X obj 88 106 symbol \$1;
#X msg 88 128 getsetting currentPreset Defaut rackCurrentPreset-\$1
;
#X obj 88 181 r rackCurrentPreset;
#X obj 215 181 r rackCurrentPreset-\$1;
#X obj 87 215 symbol \$1;
#X obj 442 163 s rackMsgs;
#X obj 442 113 symbol \$1;
#X obj 204 50 r loadbang-\$1;
#X obj 442 186 r rackDataDir;
#X obj 535 189 r rackDataDir-\$1;
#X msg 442 138 getsetting dataDir ./data rackDataDir-\$1;
#X obj 441 219 symbol \$1;
#X obj 249 276 pack s s s;
#X obj 255 210 symbol \$1;
#X obj 205 76 t b b b;
#X obj 444 71 bng 15 250 50 0 empty empty empty 17 7 0 10 -262144 -1
-1;
#X obj 71 67 bng 15 250 50 0 empty empty empty 17 7 0 10 -262144 -1
-1;
#X obj 114 243 t b b s;
#X obj 255 232 t b s;
#X obj 111 387 outlet;
#X obj 219 386 outlet;
#X text 81 25 track preset directory and bang on change;
#X connect 1 0 2 0;
#X connect 2 0 0 0;
#X connect 3 0 5 0;
#X connect 4 0 5 0;
#X connect 5 0 18 0;
#X connect 7 0 11 0;
#X connect 8 0 15 0;
#X connect 9 0 12 0;
#X connect 10 0 12 0;
#X connect 11 0 6 0;
#X connect 12 0 13 0;
#X connect 13 0 21 0;
#X connect 14 0 19 0;
#X connect 15 0 1 0;
#X connect 15 1 14 0;
#X connect 15 2 7 0;
#X connect 16 0 7 0;
#X connect 17 0 1 0;
#X connect 18 0 20 0;
#X connect 18 1 13 0;
#X connect 18 2 13 1;
#X connect 19 0 13 0;
#X connect 19 1 13 2;
#X restore 802 100 pd presetDir;
#N canvas 103 262 721 484 savePreset 0;
#X obj 343 124 r saveState;
#X obj 252 232 list;
#X obj 146 127 unpack s s s;
#X obj 251 167 pack s s s;
#X obj 272 127 symbol \$1;
#X obj 113 96 list;
#X obj 233 101 t b b a b;
#X obj 106 54 inlet;
#X obj 258 286 outlet;
#X obj 229 39 inlet;
#X connect 0 0 1 0;
#X connect 1 0 8 0;
#X connect 2 0 3 0;
#X connect 2 2 3 2;
#X connect 3 0 1 1;
#X connect 4 0 3 1;
#X connect 5 0 2 0;
#X connect 6 0 1 0;
#X connect 6 1 3 0;
#X connect 6 2 4 0;
#X connect 6 3 5 0;
#X connect 7 0 5 1;
#X connect 9 0 6 0;
#X restore 1032 146 pd savePreset;
#X msg 685 282 load \$1/presets/\$2/\$3-midicyle.bin;
#X msg 1064 334 save \$1/presets/\$2/\$3-midicyle.bin;
#X obj 820 501 s aux-led-\$1;
#X obj 833 409 sel 0 12;
#X msg 810 447 5, f 1;
#X msg 845 457 0, f 5;
#X msg 776 219 rewind;
#X msg 776 246 bang;
#X obj 760 193 t b b l;
#X connect 0 0 24 0;
#X connect 0 0 1 0;
#X connect 6 0 27 0;
#X connect 9 0 11 0;
#X connect 10 0 1 0;
#X connect 11 0 10 0;
#X connect 11 1 10 1;
#X connect 12 0 13 0;
#X connect 13 0 9 0;
#X connect 14 0 16 0;
#X connect 14 0 31 0;
#X connect 15 0 14 1;
#X connect 16 0 9 0;
#X connect 17 0 9 0;
#X connect 19 0 21 0;
#X connect 20 1 19 0;
#X connect 21 0 14 0;
#X connect 21 1 22 0;
#X connect 22 0 17 0;
#X connect 22 0 32 0;
#X connect 23 0 20 0;
#X connect 24 0 9 0;
#X connect 25 0 26 0;
#X connect 25 0 40 0;
#X connect 26 0 9 0;
#X connect 27 0 20 0;
#X connect 28 0 29 0;
#X connect 29 0 9 0;
#X connect 31 0 30 0;
#X connect 32 0 30 0;
#X connect 33 0 45 0;
#X connect 34 0 36 1;
#X connect 35 0 33 0;
#X connect 35 1 36 0;
#X connect 35 1 33 1;
#X connect 36 0 38 0;
#X connect 37 0 9 0;
#X connect 38 0 9 0;
#X connect 40 0 41 0;
#X connect 40 1 42 0;
#X connect 41 0 39 0;
#X connect 42 0 39 0;
#X connect 45 0 44 0;
#X connect 45 1 43 0;
#X connect 45 2 37 0;
