#N canvas 587 105 450 300 12;
#X obj 179 179 f \$1;
#X obj 154 249 tabwrite array-\$2;
#X obj 146 151 t f b;
#X obj 109 85 r beat_\$1-\$2;
#X obj 185 206 * 1;
#X connect 0 0 4 0;
#X connect 2 0 1 0;
#X connect 2 1 0 0;
#X connect 3 0 2 0;
#X connect 4 0 1 1;
