#N canvas 0 23 1366 725 10;
#X obj 411 571 outlet~;
#X obj 216 41 inlet~;
#X obj 281 41 inlet~;
#X obj 693 462 vline~;
#X obj 840 442 list append;
#X text 752 205 play(loop);
#X obj 516 78 r master-ticks;
#X floatatom 516 100 5 0 0 0 - - -;
#X obj 503 209 sel 0;
#X obj 492 279 timer;
#X floatatom 493 313 5 0 0 0 - - -;
#X obj 503 231 t b b;
#N canvas 0 22 450 278 (subpatch) 0;
#X array array-\$1 16 float 3;
#A 0 1 0 1 0 1 0 1 0 0 0 0 0 0 0 0 0;
#X coords 0 8 16 0 200 140 1 0 0;
#X restore 60 381 graph;
#X obj 625 141 + 1;
#X obj 620 73 float;
#X floatatom 623 368 5 0 0 0 - - -;
#X obj 501 183 % 24;
#X obj 619 407 tabread array-\$1;
#X obj 527 150 * 1;
#X obj 782 41 r beat_div-\$1;
#X obj 130 192 *~ 0;
#X obj 175 197 *~ 0;
#X obj 73 146 / 100;
#X obj 50 101 r dry-\$1;
#X msg 842 479 \$1 \$2;
#X obj 419 482 *~;
#X obj 526 493 *~;
#X obj 565 583 outlet;
#X floatatom 925 489 5 0 0 0 - - -;
#X obj 1057 598 clone array_set 16 \$1;
#X obj 446 141 sel 0;
#X obj 440 173 bng 15 250 50 0 empty empty empty 17 7 0 10 -262144
-1 -1;
#X floatatom 416 73 5 0 0 0 - - -;
#X obj 782 63 sel 1 2 3 4;
#X msg 752 101 1;
#X msg 792 108 2;
#X msg 845 118 4;
#X msg 902 127 8;
#X obj 839 344 * 1;
#X obj 940 324 * 1;
#X obj 983 232 hsl 128 15 0 1 0 0 empty empty empty -2 -8 0 10 -262144
-1 -1 12700 1;
#X obj 644 343 pipe;
#X obj 614 277 % 8;
#X obj 683 197 change -1;
#X floatatom 795 233 5 0 0 0 - - -;
#X obj 912 181 hsl 128 15 -0.5 0.5 0 0 empty empty empty -2 -8 0 10
-262144 -1 -1 5500 1;
#X obj 759 307 *;
#X obj 732 273 f;
#X obj 805 293 + 1;
#X obj 795 254 t b f;
#X floatatom 755 339 5 0 0 0 - - -;
#X obj 931 90 r timing_offset-\$1;
#X obj 1061 173 r ramp_time-\$1;
#X obj 687 555 +~ 0;
#X obj 688 516 *~ 1;
#X connect 1 0 20 0;
#X connect 1 0 25 0;
#X connect 2 0 21 0;
#X connect 2 0 26 0;
#X connect 3 0 26 1;
#X connect 3 0 25 1;
#X connect 4 0 24 0;
#X connect 6 0 7 0;
#X connect 7 0 18 0;
#X connect 7 0 30 0;
#X connect 8 0 11 0;
#X connect 8 0 14 0;
#X connect 9 0 10 0;
#X connect 10 0 39 0;
#X connect 10 0 43 0;
#X connect 11 0 9 0;
#X connect 11 1 9 1;
#X connect 13 0 42 0;
#X connect 14 0 13 0;
#X connect 15 0 17 0;
#X connect 16 0 8 0;
#X connect 17 0 38 0;
#X connect 18 0 16 0;
#X connect 19 0 33 0;
#X connect 20 0 0 0;
#X connect 21 0 27 0;
#X connect 22 0 20 1;
#X connect 22 0 21 1;
#X connect 23 0 22 0;
#X connect 24 0 3 0;
#X connect 25 0 0 0;
#X connect 25 0 27 0;
#X connect 26 0 27 0;
#X connect 30 0 31 0;
#X connect 32 0 18 1;
#X connect 33 0 34 0;
#X connect 33 1 35 0;
#X connect 33 2 36 0;
#X connect 33 3 37 0;
#X connect 34 0 18 1;
#X connect 35 0 18 1;
#X connect 36 0 18 1;
#X connect 37 0 18 1;
#X connect 38 0 4 0;
#X connect 38 0 28 0;
#X connect 39 0 4 1;
#X connect 40 0 39 1;
#X connect 41 0 15 0;
#X connect 42 0 14 1;
#X connect 42 0 41 0;
#X connect 43 0 47 0;
#X connect 44 0 49 0;
#X connect 45 0 44 0;
#X connect 46 0 50 0;
#X connect 47 0 46 0;
#X connect 48 0 46 1;
#X connect 49 0 47 0;
#X connect 49 1 48 0;
#X connect 50 0 41 1;
#X connect 51 0 45 0;
#X connect 52 0 40 0;
