#N canvas 358 23 1082 775 10;
#X obj 316 864 outlet~;
#X text 25 10 synth voice with waveform change;
#X obj 133 685 osc~ 440;
#X obj 266 684 s_blsquare;
#X msg 249 573 0;
#X msg 351 718 1;
#X msg 471 715 1;
#X msg 213 712 1;
#N canvas 7 50 727 452 triangle 0;
#X obj 130 207 outlet~;
#X obj 131 65 inlet~;
#N canvas 318 101 779 606 triangle 0;
#X obj 80 290 -~ 0.5;
#X obj 228 290 -~ 0.5;
#X obj 134 340 -~;
#X obj 220 480 outlet~;
#X obj 80 91 phasor~ 0;
#X text 131 55 frequency;
#X obj 228 236 wrap~;
#N canvas 0 50 540 420 4*$v1*(1-$v1) 0;
#X obj 182 177 *~ 4;
#X obj 132 177 sig~ 1;
#X obj 132 200 -~;
#X obj 132 228 *~;
#X obj 182 76 inlet~;
#X obj 132 253 outlet~;
#X connect 0 0 3 1;
#X connect 1 0 2 0;
#X connect 2 0 3 0;
#X connect 3 0 5 0;
#X connect 4 0 2 1;
#X connect 4 0 0 0;
#X restore 228 262 pd 4*$v1*(1-$v1);
#N canvas 0 50 540 420 4*$v1*(1-$v1) 0;
#X obj 182 177 *~ 4;
#X obj 132 177 sig~ 1;
#X obj 132 200 -~;
#X obj 132 228 *~;
#X obj 182 76 inlet~;
#X obj 132 253 outlet~;
#X connect 0 0 3 1;
#X connect 1 0 2 0;
#X connect 2 0 3 0;
#X connect 3 0 5 0;
#X connect 4 0 2 1;
#X connect 4 0 0 0;
#X restore 79 261 pd 4*$v1*(1-$v1);
#X obj 80 54 inlet~;
#X obj 241 45 inlet;
#X obj 227 177 +~ 0.5;
#X connect 0 0 2 0;
#X connect 1 0 2 1;
#X connect 2 0 3 0;
#X connect 4 0 8 0;
#X connect 4 0 11 0;
#X connect 6 0 7 0;
#X connect 7 0 1 0;
#X connect 8 0 0 0;
#X connect 9 0 4 0;
#X connect 10 0 4 1;
#X connect 11 0 6 0;
#X restore 130 162 pd triangle;
#X text 202 48 slope;
#X msg 194 123 0.5;
#X obj 189 96 r loadbang-\$1;
#X connect 1 0 2 0;
#X connect 2 0 0 0;
#X connect 5 0 4 0;
#X restore 502 685 pd triangle;
#X obj 154 613 sel 0 1 2 3;
#X msg 582 722 1;
#X text 160 470 change waveform;
#X obj 122 548 delay 2;
#X obj 154 590 f;
#X obj 171 514 t b a b;
#X obj 132 743 smoothswitch;
#X obj 266 749 smoothswitch;
#X obj 390 742 smoothswitch;
#X obj 501 746 smoothswitch;
#X obj 391 683 s_blsaw;
#X obj 171 490 r bp_wave-\$1;
#X obj 305 571 /~ 1;
#X obj 309 467 inlet~;
#X obj 315 834 hip~ 5;
#X obj 489 469 inlet~;
#X connect 2 0 15 0;
#X connect 3 0 16 0;
#X connect 4 0 15 1;
#X connect 4 0 16 1;
#X connect 4 0 17 1;
#X connect 4 0 18 1;
#X connect 5 0 16 1;
#X connect 6 0 17 1;
#X connect 7 0 15 1;
#X connect 8 0 18 0;
#X connect 9 0 7 0;
#X connect 9 1 5 0;
#X connect 9 2 6 0;
#X connect 9 3 10 0;
#X connect 10 0 18 1;
#X connect 12 0 13 0;
#X connect 13 0 9 0;
#X connect 14 0 12 0;
#X connect 14 1 13 1;
#X connect 14 2 4 0;
#X connect 15 0 23 0;
#X connect 16 0 23 0;
#X connect 17 0 23 0;
#X connect 18 0 23 0;
#X connect 19 0 17 0;
#X connect 20 0 14 0;
#X connect 21 0 2 0;
#X connect 21 0 3 0;
#X connect 21 0 8 0;
#X connect 21 0 19 0;
#X connect 22 0 21 0;
#X connect 23 0 0 0;
#X connect 24 0 3 1;
