#N canvas 89 82 1351 716 10;
#X obj 137 41 inlet;
#X obj 235 546 outlet~;
#X obj 850 346 r filt_cutoff-\$1;
#X obj 854 399 lop~ 5;
#X obj 865 433 s~ filt_cuttoff_sig-\$1;
#X obj 854 376 sig~ 12;
#X obj 336 310 r volume-\$1;
#X obj 347 354 * 0.005;
#X obj 270 411 lop~ 5;
#X obj 332 386 sig~ 0.35;
#X obj 191 402 *~;
#X obj 255 5 r ctrlIn-\$1;
#X obj 255 33 unpack 0 0 0;
#X obj 255 54 sel 123;
#X msg 253 77 stop;
#X obj 690 449 s aux-label-\$1;
#X obj 642 293 r lfolabel;
#X obj 656 316 sel 0 1 2 3 4 5;
#X msg 609 381 LFO: Sin;
#X msg 630 399 LFO: Tri;
#X msg 671 377 LFO: Saw;
#X msg 691 395 LFO: Sqr;
#X msg 736 374 LFO: S/H;
#X obj 233 197 notein_mono;
#X obj 224 255 voice \$1;
#X obj 427 82 inlet~;
#X obj 481 103 pack 0 0 0, f 11;
#X obj 481 129 route 1 2 3 4 5 6 7 8, f 81;
#X text 830 107 aircraft carrier;
#X obj 367 205 voice_wrap \$1;
#X obj 411 246 +~;
#X obj 475 180 bng 15 250 50 0 empty empty empty 17 7 0 10 -262144
-1 -1;
#X obj 534 185 bng 15 250 50 0 empty empty empty 17 7 0 10 -262144
-1 -1;
#X obj 609 170 bng 15 250 50 0 empty empty empty 17 7 0 10 -262144
-1 -1;
#X obj 668 175 bng 15 250 50 0 empty empty empty 17 7 0 10 -262144
-1 -1;
#X obj 236 -2;
#X msg 752 397 LFO: Random;
#X obj 457 506 s~ global_fb-\$1;
#X obj 577 553 r loop_fb-\$1;
#X obj 482 459 *~ 0;
#X obj 506 358 lop~ 5000;
#X obj 478 61 poly 1, f 11;
#X connect 0 0 41 0;
#X connect 2 0 5 0;
#X connect 3 0 4 0;
#X connect 5 0 3 0;
#X connect 6 0 7 0;
#X connect 7 0 9 0;
#X connect 8 0 10 1;
#X connect 9 0 8 0;
#X connect 10 0 1 0;
#X connect 11 0 12 0;
#X connect 12 0 13 0;
#X connect 13 0 14 0;
#X connect 14 0 23 1;
#X connect 16 0 17 0;
#X connect 17 0 18 0;
#X connect 17 1 19 0;
#X connect 17 2 20 0;
#X connect 17 3 21 0;
#X connect 17 4 22 0;
#X connect 17 5 36 0;
#X connect 18 0 15 0;
#X connect 19 0 15 0;
#X connect 20 0 15 0;
#X connect 21 0 15 0;
#X connect 22 0 15 0;
#X connect 23 0 24 0;
#X connect 23 1 24 1;
#X connect 26 0 27 0;
#X connect 27 0 29 0;
#X connect 27 0 31 0;
#X connect 27 1 32 0;
#X connect 27 2 33 0;
#X connect 27 3 34 0;
#X connect 29 0 30 0;
#X connect 30 0 10 0;
#X connect 30 0 40 0;
#X connect 36 0 15 0;
#X connect 38 0 39 1;
#X connect 39 0 37 0;
#X connect 40 0 39 0;
#X connect 41 0 26 0;
#X connect 41 1 26 1;
#X connect 41 2 26 2;
