#N canvas 89 82 1351 716 10;
#X obj 137 41 inlet;
#X obj 235 546 outlet~;
#X obj 336 310 r volume-\$1;
#X obj 347 354 * 0.005;
#X obj 270 411 lop~ 5;
#X obj 332 386 sig~ 0.35;
#X obj 191 402 *~;
#X obj 255 5 r ctrlIn-\$1;
#X obj 255 33 unpack 0 0 0;
#X obj 255 54 sel 123;
#X msg 253 77 stop;
#X obj 690 449 s aux-label-\$1;
#X obj 642 293 r lfolabel;
#X obj 656 316 sel 0 1 2 3 4 5;
#X msg 609 381 LFO: Sin;
#X msg 630 399 LFO: Tri;
#X msg 671 377 LFO: Saw;
#X msg 691 395 LFO: Sqr;
#X msg 736 374 LFO: S/H;
#X obj 427 82 inlet~;
#X obj 481 103 pack 0 0 0, f 11;
#X obj 463 124 route 1 2 3 4 5 6 7 8, f 81;
#X text 830 107 aircraft carrier;
#X obj 367 205 voice_wrap \$1;
#X obj 190 335 +~;
#X obj 475 180 bng 15 250 50 0 empty empty empty 17 7 0 10 -262144
-1 -1;
#X obj 534 185 bng 15 250 50 0 empty empty empty 17 7 0 10 -262144
-1 -1;
#X obj 609 170 bng 15 250 50 0 empty empty empty 17 7 0 10 -262144
-1 -1;
#X obj 668 175 bng 15 250 50 0 empty empty empty 17 7 0 10 -262144
-1 -1;
#X obj 236 -2;
#X msg 752 397 LFO: Random;
#X obj 457 506 s~ global_fb-\$1;
#X obj 577 553 r loop_fb-\$1;
#X obj 482 459 *~ 0;
#X obj 458 216 voice_wrap \$1;
#X obj 577 218 voice_wrap \$1;
#X obj 478 61 poly 4 1, f 11;
#X obj 687 221 voice_wrap \$1;
#X obj 608 613 t f f;
#X obj 625 643 *;
#X obj 506 358 lop~ 3000;
#X obj 326 555 outlet~;
#X obj 289 473 *~;
#X obj 191 255 *~ 0.92;
#X obj 256 262 *~ 0.7;
#X obj 302 268 *~ 0.45;
#X obj 368 268 *~ 0.17;
#X obj 662 264 *~ 0.92;
#X obj 585 274 *~ 0.7;
#X obj 513 279 *~ 0.45;
#X obj 451 288 *~ 0.17;
#X obj 454 333 +~;
#X connect 0 0 36 0;
#X connect 2 0 3 0;
#X connect 3 0 5 0;
#X connect 4 0 6 1;
#X connect 4 0 42 1;
#X connect 5 0 4 0;
#X connect 6 0 1 0;
#X connect 7 0 8 0;
#X connect 8 0 9 0;
#X connect 9 0 10 0;
#X connect 12 0 13 0;
#X connect 13 0 14 0;
#X connect 13 1 15 0;
#X connect 13 2 16 0;
#X connect 13 3 17 0;
#X connect 13 4 18 0;
#X connect 13 5 30 0;
#X connect 14 0 11 0;
#X connect 15 0 11 0;
#X connect 16 0 11 0;
#X connect 17 0 11 0;
#X connect 18 0 11 0;
#X connect 20 0 21 0;
#X connect 21 0 23 0;
#X connect 21 0 25 0;
#X connect 21 1 26 0;
#X connect 21 1 34 0;
#X connect 21 2 27 0;
#X connect 21 2 35 0;
#X connect 21 3 28 0;
#X connect 21 3 37 0;
#X connect 23 0 43 0;
#X connect 23 0 50 0;
#X connect 24 0 6 0;
#X connect 24 0 40 0;
#X connect 30 0 11 0;
#X connect 32 0 38 0;
#X connect 33 0 31 0;
#X connect 34 0 44 0;
#X connect 34 0 49 0;
#X connect 35 0 45 0;
#X connect 35 0 48 0;
#X connect 36 0 20 0;
#X connect 36 1 20 1;
#X connect 36 2 20 2;
#X connect 37 0 46 0;
#X connect 37 0 47 0;
#X connect 38 0 39 0;
#X connect 38 1 39 1;
#X connect 39 0 33 1;
#X connect 40 0 33 0;
#X connect 42 0 41 0;
#X connect 43 0 24 0;
#X connect 44 0 24 0;
#X connect 45 0 24 0;
#X connect 46 0 24 0;
#X connect 47 0 51 1;
#X connect 48 0 51 1;
#X connect 49 0 51 0;
#X connect 50 0 51 0;
#X connect 51 0 42 0;
#X connect 51 0 40 0;
