#N canvas 18 75 1351 719 10;
#X obj 503 682 outlet~;
#X obj 789 583 +~ 1;
#X obj 516 613 *~;
#X obj 805 543 *~ 0.1;
#X obj 525 581 *~;
#X obj 882 520 / 10;
#X obj 750 659 lop~ 5;
#X obj 335 426 psosc, f 17;
#X obj 272 14 inlet~;
#X obj 481 -1 inlet~;
#X obj 348 147 r ratio-\$1;
#X obj 297 331 *~ 1;
#X obj 821 137 nbx 5 14 -1e+37 1e+37 0 0 empty empty empty 0 -8 0 10
-262144 -1 -1 0 256;
#X obj 796 221 *~ 0.001;
#X obj 774 246 *~;
#X obj 736 43 inlet~;
#X obj 767 170 expr ($f1*$f1)/($f1/abs($f1))/100;
#X obj 806 108 r pitch_lfo-\$1;
#X obj 871 487 r amp_lfo-\$1;
#X obj 510 653 *~ 1;
#X obj 626 540 / 100;
#X obj 633 500 r level-\$1;
#X obj 606 336 env/env_parabolic \$1;
#X obj 623 227 inlet;
#X obj 626 562 t f f;
#X obj 424 -3;
#X obj 619 624 *;
#X obj 309 658 outlet~;
#X obj 335 630 /~;
#X obj 290 543 /~ 200;
#X obj 409 301 *~ 1;
#X obj 373 226 t b f;
#X obj 340 279 + 0;
#X obj 367 202 / 100;
#X obj 361 173 r fine-\$1;
#X obj 94 201 mtof;
#X obj 116 107 / 100;
#X obj 98 161 + 69;
#X obj 86 239 / 440;
#X obj 45 87 r detune-\$1;
#X obj 288 294 *~ 1;
#X obj 1034 301 r~ global_fb-\$2;
#X obj 889 391 *~ 0.5;
#X obj 297 241 *~ 1;
#X obj 527 181 r offset-\$1;
#X obj 284 386 +~ 0;
#X connect 1 0 6 0;
#X connect 2 0 19 0;
#X connect 3 0 1 0;
#X connect 4 0 2 0;
#X connect 5 0 3 1;
#X connect 6 0 2 1;
#X connect 7 0 4 0;
#X connect 8 0 43 0;
#X connect 9 0 30 0;
#X connect 10 0 32 0;
#X connect 11 0 45 0;
#X connect 12 0 16 0;
#X connect 13 0 14 1;
#X connect 14 0 7 0;
#X connect 15 0 14 0;
#X connect 15 0 3 0;
#X connect 16 0 13 1;
#X connect 17 0 12 0;
#X connect 18 0 5 0;
#X connect 19 0 0 0;
#X connect 19 0 28 0;
#X connect 20 0 24 0;
#X connect 21 0 20 0;
#X connect 22 0 4 1;
#X connect 23 0 22 0;
#X connect 24 0 26 0;
#X connect 24 1 26 1;
#X connect 26 0 19 1;
#X connect 28 0 27 0;
#X connect 29 0 28 1;
#X connect 30 0 7 1;
#X connect 31 0 32 0;
#X connect 31 1 32 1;
#X connect 32 0 11 1;
#X connect 33 0 31 0;
#X connect 34 0 33 0;
#X connect 35 0 38 0;
#X connect 36 0 37 0;
#X connect 37 0 35 0;
#X connect 38 0 40 1;
#X connect 39 0 36 0;
#X connect 40 0 11 0;
#X connect 41 0 42 0;
#X connect 42 0 30 0;
#X connect 43 0 40 0;
#X connect 44 0 45 1;
#X connect 45 0 13 0;
#X connect 45 0 7 0;
#X connect 45 0 29 0;
