#N canvas 18 75 1351 719 10;
#X obj 503 682 outlet~;
#X obj 789 583 +~ 1;
#X obj 516 613 *~;
#X obj 805 543 *~ 0.1;
#X obj 525 581 *~;
#X obj 882 520 / 10;
#X obj 750 659 lop~ 5;
#X obj 335 426 psosc, f 17;
#X obj 272 14 inlet~;
#X obj 481 -1 inlet~;
#X obj 348 147 r ratio-\$1;
#X obj 295 338 *~ 1;
#X obj 821 137 nbx 5 14 -1e+37 1e+37 0 0 empty empty empty 0 -8 0 10
-262144 -1 -1 0 256;
#X obj 796 221 *~ 0.001;
#X obj 774 246 *~;
#X obj 736 43 inlet~;
#X obj 767 170 expr ($f1*$f1)/($f1/abs($f1))/100;
#X obj 806 108 r pitch_lfo-\$1;
#X obj 871 487 r amp_lfo-\$1;
#X obj 510 653 *~ 1;
#X obj 626 540 / 100;
#X obj 633 500 r level-\$1;
#X obj 482 127 r saw-\$1;
#X obj 465 214 sig~ 0;
#X obj 532 221 sig~ 0;
#X obj 549 134 r sqr-\$1;
#X obj 606 336 env/env_parabolic \$1;
#X obj 623 227 inlet;
#X obj 626 562 t f f;
#X obj 424 -3;
#X obj 619 624 *;
#X obj 309 658 outlet~;
#X obj 335 630 /~;
#X obj 290 543 /~ 200;
#X obj 409 301 *~ 1;
#X obj 373 226 t b f;
#X obj 340 279 + 0;
#X obj 367 202 / 100;
#X obj 361 173 r fine-\$1;
#X obj 94 201 mtof;
#X obj 116 107 / 100;
#X obj 98 161 + 69;
#X obj 86 239 / 440;
#X obj 45 87 r detune-\$1;
#X obj 288 294 *~ 1;
#X obj 1034 301 r~ global_fb-\$2;
#X obj 889 391 *~ 0.5;
#X obj 1056 445 noise~;
#X obj 1100 580 fexpr~ $x1[0]+ $y1[-1]*0.999;
#X obj 1084 519 *~ 1;
#X obj 1121 390 nbx 5 14 -1e+37 1e+37 0 0 empty empty empty 0 -8 0
10 -262144 -1 -1 0.03 256;
#X obj 1096 554 fexpr~ $x1[0]+ $y1[-1]*$f2;
#X obj 1210 477 nbx 5 14 -1e+37 1e+37 0 0 empty empty empty 0 -8 0
10 -262144 -1 -1 0.99997 256;
#X obj 1210 426 + 1;
#X obj 1214 406 / -1000;
#X obj 1059 484 lop~ 1;
#X obj 1126 612 /~ 4500;
#X obj 1004 36 r global_drift-\$2;
#X obj 991 233 +~ 1;
#X obj 1092 164 *~ 0;
#X obj 297 241 *~;
#X obj 952 627 snapshot~;
#X obj 948 594 bng 15 250 50 0 empty empty empty 17 7 0 10 -262144
-1 -1;
#X floatatom 949 669 5 0 0 0 - - -;
#X obj 1155 294 r loadbang-\$2;
#X obj 1106 658 expr~ (sin($v1));
#X msg 1129 346 0.01;
#X obj 988 96 pow 3;
#X floatatom 997 120 5 0 0 0 - - -;
#X connect 1 0 6 0;
#X connect 2 0 19 0;
#X connect 3 0 1 0;
#X connect 4 0 2 0;
#X connect 5 0 3 1;
#X connect 6 0 2 1;
#X connect 7 0 4 0;
#X connect 8 0 60 0;
#X connect 9 0 34 0;
#X connect 10 0 36 0;
#X connect 11 0 7 0;
#X connect 11 0 13 0;
#X connect 11 0 33 0;
#X connect 12 0 16 0;
#X connect 13 0 14 1;
#X connect 14 0 7 0;
#X connect 15 0 14 0;
#X connect 15 0 3 0;
#X connect 16 0 13 1;
#X connect 17 0 12 0;
#X connect 18 0 5 0;
#X connect 19 0 0 0;
#X connect 19 0 32 0;
#X connect 20 0 28 0;
#X connect 21 0 20 0;
#X connect 22 0 23 0;
#X connect 23 0 7 2;
#X connect 24 0 7 3;
#X connect 25 0 24 0;
#X connect 26 0 4 1;
#X connect 27 0 26 0;
#X connect 28 0 30 0;
#X connect 28 1 30 1;
#X connect 30 0 19 1;
#X connect 32 0 31 0;
#X connect 33 0 32 1;
#X connect 34 0 7 1;
#X connect 35 0 36 0;
#X connect 35 1 36 1;
#X connect 36 0 11 1;
#X connect 37 0 35 0;
#X connect 38 0 37 0;
#X connect 39 0 42 0;
#X connect 40 0 41 0;
#X connect 41 0 39 0;
#X connect 42 0 44 1;
#X connect 43 0 40 0;
#X connect 44 0 11 0;
#X connect 45 0 46 0;
#X connect 46 0 34 0;
#X connect 47 0 55 0;
#X connect 48 0 56 0;
#X connect 49 0 51 0;
#X connect 50 0 49 1;
#X connect 50 0 54 0;
#X connect 51 0 48 0;
#X connect 52 0 51 1;
#X connect 53 0 52 0;
#X connect 54 0 53 0;
#X connect 55 0 49 0;
#X connect 56 0 65 0;
#X connect 57 0 67 0;
#X connect 58 0 60 1;
#X connect 59 0 58 0;
#X connect 60 0 44 0;
#X connect 61 0 63 0;
#X connect 62 0 61 0;
#X connect 64 0 66 0;
#X connect 65 0 59 0;
#X connect 65 0 61 0;
#X connect 66 0 50 0;
#X connect 67 0 68 0;
#X connect 68 0 59 1;
