#N canvas 0 23 1426 632 12;
#X obj 329 433 cos~;
#X obj 192 181 wrap~;
#X obj 155 43 inlet~;
#X obj 177 113 phasor~;
#X obj 262 85 inlet~ phasemod;
#X obj 379 487 outlet~;
#X connect 0 0 5 0;
#X connect 1 0 0 0;
#X connect 2 0 3 0;
#X connect 3 0 1 0;
#X connect 4 0 1 0;
