#N canvas 0 23 1426 632 12;
#X obj 178 223 -~ 0.5;
#X obj 329 433 cos~;
#X obj 322 403 +~ 0.25;
#X obj 181 252 *~ 2;
#X obj 321 371 /~ 2;
#X obj 266 277 sawshaper;
#X obj 442 349 sqrshaper;
#X obj 192 181 wrap~;
#X obj 155 43 inlet~;
#X obj 177 113 phasor~;
#X obj 262 85 inlet~ phasemod;
#X obj 383 229 max~ 0.001;
#X obj 389 146 inlet~;
#X obj 477 250 max~ 0.001;
#X obj 483 167 inlet~;
#X obj 379 487 outlet~;
#X obj 497 207 *~ 4;
#X obj 407 198 *~ 5;
#X connect 0 0 3 0;
#X connect 1 0 15 0;
#X connect 2 0 1 0;
#X connect 3 0 5 0;
#X connect 4 0 2 0;
#X connect 5 0 6 0;
#X connect 6 0 4 0;
#X connect 7 0 0 0;
#X connect 8 0 9 0;
#X connect 9 0 7 0;
#X connect 10 0 7 0;
#X connect 11 0 5 1;
#X connect 12 0 17 0;
#X connect 13 0 6 1;
#X connect 14 0 16 0;
#X connect 16 0 13 0;
#X connect 17 0 11 0;
