#N canvas 352 156 854 543 12;
#X obj 219 319 expr~ atanh($v2*$v1)/atanh($v2);
#X obj 439 159 expr~ tanh($v1);
#X obj 394 199 min~ 0.999;
#X obj 460 123 inlet~;
#X obj 198 143 inlet~;
#X obj 277 427 outlet~;
#X connect 0 0 5 0;
#X connect 1 0 2 0;
#X connect 2 0 0 1;
#X connect 3 0 1 0;
#X connect 4 0 0 0;
