#N canvas 494 164 946 616 12;
#X obj 190 163 -~ 0.5;
#X obj 132 220 expr~ floor($v1);
#X obj 61 245 -~;
#X obj 82 359 -~ 0.5;
#X obj 201 372 +~;
#X obj 53 57 inlet~;
#X obj 445 80 inlet~;
#X obj 213 441 outlet~;
#X obj 85 178 *~ 1;
#X obj 65 138 +~ 1;
#X obj 206 282 expr~ 0.5*tanh(2*$v1*$v2)/tanh($v2);
#X obj 50 85 +~ 0.5;
#X obj 281 441 +~ 0.5;
#X obj 255 409 -~ 1;
#X connect 1 0 2 1;
#X connect 1 0 4 0;
#X connect 2 0 3 0;
#X connect 3 0 10 0;
#X connect 4 0 13 0;
#X connect 5 0 11 0;
#X connect 6 0 10 1;
#X connect 8 0 1 0;
#X connect 8 0 2 0;
#X connect 9 0 8 0;
#X connect 10 0 4 1;
#X connect 11 0 9 0;
#X connect 13 0 7 0;
