#N canvas 18 75 1351 719 10;
#X obj 272 14 inlet;
#X obj 503 682 outlet~;
#X obj 302 95 + 0;
#X obj 331 42 r transpose-\$1;
#X obj 727 19 lfo/lfo \$1;
#X obj 718 63 +~;
#X obj 332 66 t b f;
#X obj 264 183 mtof;
#X obj 244 323 sig~;
#X obj 525 581 +~;
#X obj 516 647 +~;
#X obj 415 543 *~ 1;
#X obj 457 542 *~ 0;
#X obj 549 548 *~ 0;
#X obj 643 317 *~ 0;
#X obj 471 392 *~ 1;
#X obj 513 391 *~ 0;
#X obj 550 394 *~ 0;
#X obj 732 196 *~ 1;
#X obj 494 545 *~ 1;
#X obj 594 317 *~ 0;
#X obj 1015 264 r algo-\$1;
#X msg 851 343 1 1 1 1 0 0 0 0 0 0;
#X obj 779 510 unpack 0 0 0 0 0 0 0 0 0 0 0;
#X msg 873 366 1 0 0 0 1 0 0 1 0 1;
#X msg 904 408 1 1 1 0 0 0 1 0 1 1;
#X msg 886 552 Algo: 1+2+3+4;
#X obj 869 674 s aux-label-\$1;
#X msg 903 576 Algo: 1<2<3<4;
#X msg 920 598 Algo: (1<2)+(3<4);
#X msg 934 620 Algo: (1<2+3)<4;
#X msg 889 388 1 0 1 0 1 0 0 0 0 1;
#X msg 1021 543 Algo: (1+2)<(3+4);
#X msg 1023 340 1 1 0 0 0 1 1 1 1 0;
#X msg 1034 562 Algo: 1<(2+3+4);
#X msg 1052 360 1 0 0 0 1 1 1 0 0 0;
#X msg 1042 585 Algo: 1<(2+3))<4;
#X msg 1054 609 Algo: 1+2+(3<4);
#X obj 948 297 sel 1 2 3 4 5 6 7 8;
#X msg 1070 383 1 0 0 0 1 1 0 0 1 1;
#X msg 1085 404 1 1 1 0 0 0 0 0 0 1;
#X obj 776 150 psop 4-\$1 \$1;
#X obj 645 185 psop 3-\$1 \$1;
#X obj 565 350 psop 2-\$1 \$1;
#X obj 387 488 psop 1-\$1 \$1;
#X obj 619 584 env/env_parabolic f-\$1;
#X obj 663 537 > 0;
#N canvas 0 23 1151 774 filter 0;
#X obj 631 295 *~;
#X obj 321 380 *~ 1;
#X obj 756 248 * -1;
#X obj 755 273 + 1;
#X obj 428 438 r filt_q-\$1;
#X obj 724 190 r envfilt-\$1;
#X obj 689 264 +~ 1;
#X obj 672 238 *~ 0;
#X obj 530 336 r~ filt_cuttoff_sig-\$1;
#X obj 476 381 *~;
#X obj 835 188 r fmod_depth-\$1;
#X obj 941 273 sig~ 1;
#X obj 831 253 *~ 0;
#X obj 703 320 *~;
#X obj 344 449 moog~;
#X obj 429 405 *~ 5;
#X obj 313 185 inlet~;
#X obj 425 193 inlet~;
#X obj 812 137 inlet~;
#X obj 343 517 outlet~;
#X floatatom 394 302 5 0 0 0 - - -;
#X obj 957 153 inlet~;
#X obj 863 228 / 10;
#X connect 0 0 13 0;
#X connect 1 0 14 0;
#X connect 2 0 3 0;
#X connect 3 0 6 1;
#X connect 4 0 14 2;
#X connect 5 0 2 0;
#X connect 5 0 7 1;
#X connect 6 0 0 0;
#X connect 7 0 6 0;
#X connect 8 0 9 1;
#X connect 9 0 15 0;
#X connect 10 0 22 0;
#X connect 11 0 13 1;
#X connect 12 0 13 1;
#X connect 13 0 9 0;
#X connect 14 0 19 0;
#X connect 15 0 14 1;
#X connect 16 0 1 0;
#X connect 17 0 7 0;
#X connect 18 0 12 0;
#X connect 20 0 14 2;
#X connect 21 0 0 1;
#X connect 22 0 12 1;
#X restore 569 633 pd filter;
#X obj 510 22 inlet;
#X connect 0 0 2 0;
#X connect 2 0 7 0;
#X connect 3 0 6 0;
#X connect 4 0 5 0;
#X connect 5 0 41 3;
#X connect 5 0 42 3;
#X connect 5 0 43 3;
#X connect 5 0 44 3;
#X connect 5 0 47 2;
#X connect 6 0 2 0;
#X connect 6 1 2 1;
#X connect 7 0 8 0;
#X connect 8 0 41 0;
#X connect 8 0 42 0;
#X connect 8 0 43 0;
#X connect 8 0 44 0;
#X connect 8 0 47 3;
#X connect 9 0 47 0;
#X connect 10 0 1 0;
#X connect 11 0 9 0;
#X connect 12 0 9 0;
#X connect 13 0 9 1;
#X connect 14 0 43 1;
#X connect 15 0 44 1;
#X connect 16 0 44 1;
#X connect 17 0 44 1;
#X connect 18 0 42 1;
#X connect 19 0 9 1;
#X connect 20 0 43 1;
#X connect 21 0 38 0;
#X connect 22 0 23 0;
#X connect 23 0 11 1;
#X connect 23 1 12 1;
#X connect 23 2 19 1;
#X connect 23 3 13 1;
#X connect 23 4 15 1;
#X connect 23 5 16 1;
#X connect 23 6 17 1;
#X connect 23 7 20 1;
#X connect 23 8 14 1;
#X connect 23 9 18 1;
#X connect 24 0 23 0;
#X connect 25 0 23 0;
#X connect 26 0 27 0;
#X connect 28 0 27 0;
#X connect 29 0 27 0;
#X connect 30 0 27 0;
#X connect 31 0 23 0;
#X connect 32 0 27 0;
#X connect 33 0 23 0;
#X connect 34 0 27 0;
#X connect 35 0 23 0;
#X connect 36 0 27 0;
#X connect 37 0 27 0;
#X connect 38 0 22 0;
#X connect 38 0 26 0;
#X connect 38 1 24 0;
#X connect 38 1 28 0;
#X connect 38 2 31 0;
#X connect 38 2 29 0;
#X connect 38 3 25 0;
#X connect 38 3 30 0;
#X connect 38 4 33 0;
#X connect 38 4 32 0;
#X connect 38 5 34 0;
#X connect 38 5 35 0;
#X connect 38 6 36 0;
#X connect 38 6 39 0;
#X connect 38 7 37 0;
#X connect 38 7 40 0;
#X connect 39 0 23 0;
#X connect 40 0 23 0;
#X connect 41 0 18 0;
#X connect 41 0 14 0;
#X connect 41 0 17 0;
#X connect 41 1 13 0;
#X connect 42 0 16 0;
#X connect 42 0 20 0;
#X connect 42 1 19 0;
#X connect 43 0 15 0;
#X connect 43 1 12 0;
#X connect 44 1 11 0;
#X connect 45 0 47 1;
#X connect 46 0 45 0;
#X connect 47 0 10 0;
#X connect 48 0 4 0;
#X connect 48 0 41 2;
#X connect 48 0 42 2;
#X connect 48 0 43 2;
#X connect 48 0 44 2;
#X connect 48 0 46 0;
