#N canvas 0 23 450 300 12;
#X obj 156 67 unpack 0 0;
#X obj 157 29 inlet;
#X obj 160 121 voice \$1;
#X obj 167 209 outlet~;
#X connect 0 0 2 0;
#X connect 0 1 2 1;
#X connect 1 0 0 0;
#X connect 2 0 3 0;
