#N canvas 66 70 1351 719 10;
#X obj 272 14 inlet;
#X obj 503 682 outlet~;
#X obj 302 95 + 0;
#X obj 331 42 r transpose-\$1;
#X obj 727 19 lfo/lfo \$1;
#X obj 718 63 +~;
#X obj 332 66 t b f;
#X obj 264 183 mtof;
#X obj 525 581 +~;
#X obj 415 543 *~ 1;
#X obj 457 542 *~ 0;
#X obj 549 548 *~ 0;
#X obj 643 317 *~ 0;
#X obj 471 392 *~ 1;
#X obj 513 391 *~ 0;
#X obj 550 394 *~ 0;
#X obj 732 196 *~ 1;
#X obj 494 545 *~ 1;
#X obj 594 317 *~ 0;
#X obj 1015 264 r algo-\$1;
#X msg 851 343 1 1 1 1 0 0 0 0 0 0;
#X obj 779 510 unpack 0 0 0 0 0 0 0 0 0 0 0;
#X msg 873 366 1 0 0 0 1 0 0 1 0 1;
#X msg 904 408 1 1 1 0 0 0 1 0 1 1;
#X msg 886 552 Algo: 1+2+3+4;
#X obj 869 674 s aux-label-\$1;
#X msg 903 576 Algo: 1<2<3<4;
#X msg 920 598 Algo: (1<2)+(3<4);
#X msg 934 620 Algo: (1<2+3)<4;
#X msg 889 388 1 0 1 0 1 0 0 0 0 1;
#X msg 1021 543 Algo: (1+2)<(3+4);
#X msg 1023 340 1 1 0 0 0 1 1 1 1 0;
#X msg 1034 562 Algo: 1<(2+3+4);
#X msg 1052 360 1 0 0 0 1 1 1 0 0 0;
#X msg 1042 585 Algo: 1<(2+3))<4;
#X msg 1054 609 Algo: 1+2+(3<4);
#X msg 1070 383 1 0 0 0 1 1 0 0 1 1;
#X msg 1085 404 1 1 1 0 0 0 0 0 0 1;
#X obj 776 150 psop 4-\$1 \$1;
#X obj 645 185 psop 3-\$1 \$1;
#X obj 565 350 psop 2-\$1 \$1;
#X obj 387 488 psop 1-\$1 \$1;
#X obj 535 18 inlet;
#X obj 1007 294 sel 1 2 3 4 5 6 7 8 9;
#X msg 1076 636 Algo: 1<(2+(3<4));
#X msg 1189 333 1 0 0 0 1 1 0 0 0 1;
#X obj 257 301 sig~;
#X obj 188 293 / 127;
#X text 114 353 scaling;
#X obj 111 234 / 127;
#X obj 112 324 expr 1-$f1;
#X obj 155 375 * 1;
#X obj 154 419 sig~;
#X obj 169 476 lop~ 10;
#X obj 345 205 sel 0;
#X connect 0 0 2 0;
#X connect 2 0 7 0;
#X connect 2 0 49 0;
#X connect 3 0 6 0;
#X connect 4 0 5 0;
#X connect 5 0 41 3;
#X connect 5 0 38 3;
#X connect 5 0 39 3;
#X connect 5 0 40 3;
#X connect 6 0 2 0;
#X connect 6 1 2 1;
#X connect 7 0 46 0;
#X connect 8 0 1 0;
#X connect 9 0 8 0;
#X connect 10 0 8 0;
#X connect 11 0 8 1;
#X connect 12 0 40 1;
#X connect 13 0 41 1;
#X connect 14 0 41 1;
#X connect 15 0 41 1;
#X connect 16 0 39 1;
#X connect 17 0 8 1;
#X connect 18 0 40 1;
#X connect 19 0 43 0;
#X connect 20 0 21 0;
#X connect 21 0 9 1;
#X connect 21 1 10 1;
#X connect 21 2 17 1;
#X connect 21 3 11 1;
#X connect 21 4 13 1;
#X connect 21 5 14 1;
#X connect 21 6 15 1;
#X connect 21 7 18 1;
#X connect 21 8 12 1;
#X connect 21 9 16 1;
#X connect 22 0 21 0;
#X connect 23 0 21 0;
#X connect 24 0 25 0;
#X connect 26 0 25 0;
#X connect 27 0 25 0;
#X connect 28 0 25 0;
#X connect 29 0 21 0;
#X connect 30 0 25 0;
#X connect 31 0 21 0;
#X connect 32 0 25 0;
#X connect 33 0 21 0;
#X connect 34 0 25 0;
#X connect 35 0 25 0;
#X connect 36 0 21 0;
#X connect 37 0 21 0;
#X connect 38 0 16 0;
#X connect 38 0 12 0;
#X connect 38 0 15 0;
#X connect 38 1 11 0;
#X connect 39 0 14 0;
#X connect 39 0 18 0;
#X connect 39 1 17 0;
#X connect 40 0 13 0;
#X connect 40 1 10 0;
#X connect 41 1 9 0;
#X connect 42 0 4 0;
#X connect 42 0 41 2;
#X connect 42 0 38 2;
#X connect 42 0 39 2;
#X connect 42 0 40 2;
#X connect 42 0 54 0;
#X connect 43 0 20 0;
#X connect 43 0 24 0;
#X connect 43 1 22 0;
#X connect 43 1 26 0;
#X connect 43 2 29 0;
#X connect 43 2 27 0;
#X connect 43 3 23 0;
#X connect 43 3 28 0;
#X connect 43 4 31 0;
#X connect 43 4 30 0;
#X connect 43 5 32 0;
#X connect 43 5 33 0;
#X connect 43 6 34 0;
#X connect 43 6 36 0;
#X connect 43 7 35 0;
#X connect 43 7 37 0;
#X connect 43 8 45 0;
#X connect 43 8 44 0;
#X connect 44 0 25 0;
#X connect 45 0 21 0;
#X connect 46 0 41 0;
#X connect 46 0 38 0;
#X connect 46 0 39 0;
#X connect 46 0 40 0;
#X connect 47 0 51 1;
#X connect 49 0 50 0;
#X connect 50 0 51 0;
#X connect 51 0 52 0;
#X connect 52 0 53 0;
#X connect 53 0 41 4;
#X connect 53 0 38 4;
#X connect 53 0 39 4;
#X connect 53 0 40 4;
#X connect 54 1 47 0;
