#N canvas 511 292 954 589 10;
#X obj 148 252 hip~ 80;
#X obj 517 171 -~ 0.5;
#X obj 517 204 abs~;
#X obj 515 235 *~ 2;
#X obj 487 326 *~ -1;
#X obj 21 449 +~;
#X obj 95 474 +~;
#X obj 426 401 *~ 0.3;
#X obj 297 373 *~ 0.3;
#X obj 310 472 +~;
#X obj 420 449 +~;
#X obj 192 494 +~;
#X obj 120 163 +~;
#X obj 29 516 *~ 0.1;
#X obj 66 643 dac~;
#X obj 101 523 *~ 0.1;
#X obj 256 352 delread4~ a;
#X obj 388 354 delread4~ b;
#X obj 360 62 tgl 15 0 empty empty empty 0 -6 0 10 -262144 -1 -1 1
1;
#X obj 253 62 bng 15 250 50 0 empty empty empty 0 -6 0 10 -262144 -1
-1;
#X text 269 61 load;
#X text 378 60 play(loop);
#N canvas 191 304 622 603 sample_loop 0;
#X obj 293 347 soundfiler;
#X obj -24 316 outlet~;
#X obj 293 134 openpanel;
#X obj 140 252 spigot;
#X obj 206 212 sel 1 0;
#X msg 228 252 0 1;
#X obj 297 72 inlet;
#X obj 197 51 inlet;
#X obj 267 439 table \$0-sample;
#X obj -23 186 tabplay~ \$0-sample;
#X obj 329 218 symbol \$0-sample;
#X obj 293 159 t s b;
#X msg 293 317 read -resize \$1 \$2;
#X obj 299 252 pack s s;
#X connect 2 0 11 0;
#X connect 3 0 9 0;
#X connect 4 0 9 0;
#X connect 4 1 5 0;
#X connect 5 0 9 0;
#X connect 6 0 4 0;
#X connect 6 0 3 1;
#X connect 7 0 2 0;
#X connect 9 0 1 0;
#X connect 9 1 3 0;
#X connect 10 0 13 1;
#X connect 11 0 13 0;
#X connect 11 1 10 0;
#X connect 12 0 0 0;
#X connect 13 0 12 0;
#X coords 0 0 1 1 110 60 0;
#X restore 253 88 pd sample_loop;
#X obj 530 462 hsl 128 15 0 1 0 0 empty empty empty -2 -8 0 10 -262144
-1 -1 2300 1;
#X obj 565 387 hsl 128 15 0 1 0 0 empty empty empty -2 -8 0 10 -262144
-1 -1 7600 1;
#X obj 319 210 hsl 128 15 0 1 0 0 empty empty empty -2 -8 0 10 -262144
-1 -1 0 1;
#X obj 74 417 *~ 1;
#X obj 148 415 *~ 1;
#X obj 705 206 hsl 128 15 0.1 100 1 0 empty empty empty -2 -8 0 10
-262144 -1 -1 0 1;
#X obj 612 293 nbx 5 14 0 1e+006 0 0 empty empty empty 0 -8 0 10 -262144
-1 -1 1000 256;
#X obj 582 88 hsl 128 15 0.01 10 1 0 empty empty empty -2 -8 0 10 -262144
-1 -1 0 1;
#X obj 587 115 nbx 5 14 -1e+037 1e+037 0 0 empty empty empty 0 -8 0
10 -262144 -1 -1 4 256;
#X obj 221 169 lop~ 80;
#X obj 599 223 osc~ 0.3;
#X obj 516 140 phasor~ 0.5;
#X obj 515 276 *~ 2.5;
#X obj 334 284 sig~ 10;
#X obj 303 162 hsl 128 15 1 1000 1 0 empty empty empty -2 -8 0 10 -262144
-1 -1 0 1;
#X obj 293 184 nbx 5 14 -1e+037 1e+037 0 0 empty empty empty 0 -8 0
10 -262144 -1 -1 0 256;
#X obj 292 503 *~ 0;
#X obj 438 498 *~ 0;
#X obj 217 210 *~ 0.1;
#X obj 728 117 *;
#X msg 602 25 5;
#X msg 544 44 10;
#X msg 625 164 50;
#X msg 695 170 200;
#X msg 755 192 500;
#X msg 618 30 2;
#X msg 611 43 4;
#X msg 699 35 1;
#X msg 726 189 1000;
#X obj 666 323 + 5, f 2;
#X obj 341 435 lop~ 2000;
#X msg 672 25 3;
#X obj 673 252 hsl 128 15 0.1 100 1 0 empty empty empty -2 -8 0 10
-262144 -1 -1 0 1;
#X msg 741 19 0.5;
#X obj 761 381 sig~;
#X obj 123 80 osc~ 165;
#X obj 246 600 delwrite~ a 10000;
#X obj 430 600 delwrite~ b 10000;
#X msg 749 148 2000;
#X msg 728 48 0.25;
#X msg 654 181 250;
#X obj 163 42;
#X obj 821 86 mtof;
#X obj 820 33 nbx 5 14 -1e+037 1e+037 0 0 empty empty empty 0 -8 0
10 -262144 -1 -1 12 256;
#X obj 834 154 nbx 5 14 -1e+037 1e+037 0 0 empty empty empty 0 -8 0
10 -262144 -1 -1 2.0002 256;
#X obj 831 122 / 8.175;
#X obj 65 19 hsl 128 15 55 330 0 0 empty empty empty -2 -8 0 10 -262144
-1 -1 0 1;
#X obj 309 535 lop~ 1000;
#X obj 462 558 lop~ 1000;
#X obj 67 86 osc~ 55;
#X obj 99 119 expr~ tanh(3*$v1);
#X connect 0 0 11 0;
#X connect 1 0 2 0;
#X connect 2 0 3 0;
#X connect 3 0 35 0;
#X connect 4 0 17 0;
#X connect 5 0 13 0;
#X connect 6 0 15 0;
#X connect 7 0 9 1;
#X connect 8 0 10 0;
#X connect 9 0 26 0;
#X connect 9 0 39 0;
#X connect 10 0 27 0;
#X connect 10 0 40 0;
#X connect 11 0 59 0;
#X connect 11 0 60 0;
#X connect 12 0 0 0;
#X connect 12 0 6 0;
#X connect 12 0 5 0;
#X connect 12 0 32 0;
#X connect 13 0 14 0;
#X connect 15 0 14 1;
#X connect 16 0 8 0;
#X connect 16 0 9 0;
#X connect 17 0 7 0;
#X connect 17 0 10 1;
#X connect 18 0 22 1;
#X connect 19 0 22 0;
#X connect 23 0 39 1;
#X connect 23 0 40 1;
#X connect 24 0 7 1;
#X connect 24 0 8 1;
#X connect 25 0 27 1;
#X connect 25 0 26 1;
#X connect 26 0 5 1;
#X connect 27 0 6 1;
#X connect 28 0 29 0;
#X connect 29 0 35 1;
#X connect 29 0 52 0;
#X connect 30 0 31 0;
#X connect 31 0 34 0;
#X connect 32 0 41 0;
#X connect 34 0 1 0;
#X connect 35 0 4 0;
#X connect 35 0 16 0;
#X connect 36 0 16 0;
#X connect 36 0 17 0;
#X connect 37 0 38 0;
#X connect 38 0 32 1;
#X connect 38 0 0 1;
#X connect 39 0 70 0;
#X connect 40 0 71 0;
#X connect 41 0 6 1;
#X connect 41 0 5 0;
#X connect 43 0 31 0;
#X connect 44 0 31 0;
#X connect 45 0 29 0;
#X connect 46 0 29 0;
#X connect 47 0 29 0;
#X connect 48 0 31 0;
#X connect 49 0 31 0;
#X connect 50 0 31 0;
#X connect 51 0 29 0;
#X connect 52 0 36 0;
#X connect 54 0 31 0;
#X connect 56 0 31 0;
#X connect 61 0 29 0;
#X connect 62 0 31 0;
#X connect 63 0 29 0;
#X connect 65 0 68 0;
#X connect 66 0 65 0;
#X connect 68 0 67 0;
#X connect 69 0 72 0;
#X connect 70 0 59 0;
#X connect 71 0 60 0;
#X connect 72 0 73 0;
#X connect 73 0 12 0;
