#N canvas -8 -8 1360 725 10;
#X obj 304 186 r notesIn-\$1;
#X obj 304 491 s notesOut-\$1;
#X obj 25 186 inlet~ inL-\$1;
#X obj 135 186 inlet~ inR-\$1;
#X obj 27 491 outlet~ outL-\$1;
#X obj 136 491 outlet~ outR-\$1;
#X obj 424 185 r auxIn-\$1;
#X obj 423 208 r expIn-\$1;
#X obj 423 233 r fsIn-\$1;
#X obj 663 339 r muchord_harm-\$1;
#X obj 685 262 r muchord_offset-\$1;
#X obj 651 463 r muchord_inv-\$1;
#X obj 340 361 zchord \$1;
#X obj 342 386 unpack 0 0;
#X obj 345 416 pack 0 0 0;
#X connect 0 0 12 0;
#X connect 2 0 4 0;
#X connect 3 0 5 0;
#X connect 12 0 13 0;
#X connect 13 0 14 0;
#X connect 13 1 14 1;
#X connect 14 0 1 0;
