#N canvas 242 48 1440 762 10;
#X obj 304 186 r notesIn-\$1;
#X obj 304 491 s notesOut-\$1;
#X obj 27 186 inlet~ inL-\$1;
#X obj 135 186 inlet~ inR-\$1;
#X obj 27 491 outlet~ outL-\$1;
#X obj 136 491 outlet~ outR-\$1;
#X obj 484 185 r auxIn-\$1;
#X obj 483 208 r expIn-\$1;
#X obj 483 233 r fsIn-\$1;
#N canvas 1108 482 785 572 load 0;
#X obj 38 51 load-24 1 s24 \$1;
#X obj 38 71 load-24 2 s24 \$1;
#X obj 38 91 load-24 3 s24 \$1;
#X obj 38 111 load-24 4 s24 \$1;
#X obj 38 131 load-24 5 s24 \$1;
#X obj 38 151 load-24 6 s24 \$1;
#X obj 39 171 load-24 7 s24 \$1;
#X obj 38 191 load-24 8 s24 \$1;
#X obj 38 211 load-24 9 s24 \$1;
#X obj 38 231 load-24 10 s24 \$1;
#X obj 38 251 load-24 11 s24 \$1;
#X obj 38 271 load-24 12 s24 \$1;
#X restore 579 191 pd load sounds;
#X text 691 191 Loads samples to Ram;
#X text 722 233 clickless looping;
#X text 401 334 the synth;
#X text 766 124 ***samples halfed for multisynth module(12);
#X text 754 81 C&G A Sampler Module that keeps looping until note off
is recieved.;
#X obj 68 319 catch~ s24-\$1-voice-out;
#X obj 731 411 t f f;
#X obj 731 433 *;
#X obj 856 361 s s24-\$1-speed-local;
#X obj 579 425 s s24-\$1-release-local;
#X obj 731 467 s s24-\$1-start-local;
#X obj 731 364 t f f;
#X obj 731 386 *;
#X obj 1029 351 t f f;
#X obj 1029 373 *;
#X obj 1028 425 s s24-\$1-decay-local;
#X obj 579 281 r s24_release-\$1;
#X obj 729 285 r s24_start-\$1;
#X obj 857 284 r s24_speed-\$1;
#X obj 1029 278 r s24_decay-\$1;
#X obj 1029 300 / 100;
#X obj 1475 790;
#X obj 857 312 / 100;
#X obj 731 328 / 100;
#X obj 578 233 crown-window s24 \$1;
#X obj 405 186 r ctrlIn-\$1;
#X obj 405 491 s ctrlOut-\$1;
#N canvas 0 25 1440 762 synth 0;
#X obj 83 223 abs;
#X obj 83 182 expr if ($f1 > 59 \, $f1 - 60 \, $f1 - 12);
#X text 89 202 allow all midi notes to trigger samples...;
#X text 178 283 Notes in to Sampler Player;
#X obj 83 271 + 1;
#X obj 76 31 inlet;
#X obj 429 57 inlet ctrl;
#X obj 134 600 s24-voice \$1;
#X obj 134 494 pack 0 0 0;
#X obj 177 621 s24-voice \$1;
#X obj 652 660 s24-voice \$1;
#X obj 522 660 s24-voice \$1;
#X obj 765 640 s24-voice \$1;
#X obj 272 620 s24-voice \$1;
#X obj 403 660 s24-voice \$1;
#X obj 243 600 s24-voice \$1;
#X obj 374 624 s24-voice \$1;
#X obj 504 640 s24-voice \$1;
#X obj 634 640 s24-voice \$1;
#X obj 782 661 s24-voice \$1;
#N canvas 324 629 450 300 route 0;
#X obj 69 97 unpack 0 0 0;
#X obj 68 68 t l l;
#X obj 68 197 list;
#X obj 139 144 t b;
#X obj 139 123 route 1 0;
#X obj 226 163 unpack 0 0 0;
#X obj 226 194 pack 0 0 0;
#X obj 68 19 inlet msg;
#X obj 68 218 outlet global;
#X obj 226 215 outlet voice;
#X obj 187 162 - 1;
#X connect 0 2 4 0;
#X connect 1 0 0 0;
#X connect 1 1 2 1;
#X connect 1 1 5 0;
#X connect 2 0 8 0;
#X connect 3 0 2 0;
#X connect 4 0 3 0;
#X connect 4 1 3 0;
#X connect 4 2 10 0;
#X connect 5 0 6 1;
#X connect 5 1 6 2;
#X connect 6 0 9 0;
#X connect 7 0 1 0;
#X connect 10 0 6 0;
#X restore 131 384 pd route;
#N canvas 324 629 450 300 route 0;
#X obj 69 97 unpack 0 0 0;
#X obj 68 68 t l l;
#X obj 68 197 list;
#X obj 139 144 t b;
#X obj 139 123 route 1 0;
#X obj 234 171 unpack 0 0 0;
#X obj 234 202 pack 0 0 0;
#X obj 68 19 inlet msg;
#X obj 68 218 outlet global;
#X obj 234 223 outlet voice;
#X obj 190 158 - 1;
#X connect 0 2 4 0;
#X connect 1 0 0 0;
#X connect 1 1 2 1;
#X connect 1 1 5 0;
#X connect 2 0 8 0;
#X connect 3 0 2 0;
#X connect 4 0 3 0;
#X connect 4 1 3 0;
#X connect 4 2 10 0;
#X connect 5 0 6 1;
#X connect 5 1 6 2;
#X connect 6 0 9 0;
#X connect 7 0 1 0;
#X connect 10 0 6 0;
#X restore 553 146 pd route;
#X obj 76 58 unpack 0 0 0;
#X obj 83 301 pack 0 0 0;
#X obj 820 125 unpack 0 0 0;
#X obj 820 146 sel 123;
#X msg 820 167 stop;
#X obj 604 430 route 1 2 3 4 5 6 7 8 9 10 11 12 13 14 15 16 17 18 19
20 21 22 23 24, f 106;
#X obj 134 535 route 1 2 3 4 5 6 7 8 9 10 11 12 13 14 15 16 17 18 19
20 21 22 23 24, f 106;
#X obj 884 600 s24-voice \$1;
#X obj 927 621 s24-voice \$1;
#X obj 1402 660 s24-voice \$1;
#X obj 1272 660 s24-voice \$1;
#X obj 1515 640 s24-voice \$1;
#X obj 1022 620 s24-voice \$1;
#X obj 1153 660 s24-voice \$1;
#X obj 993 600 s24-voice \$1;
#X obj 1124 624 s24-voice \$1;
#X obj 1254 640 s24-voice \$1;
#X obj 1384 640 s24-voice \$1;
#X obj 1532 661 s24-voice \$1;
#X obj 134 472 poly 24 1, f 10;
#X obj 83 249 % 24;
#X connect 0 0 42 0;
#X connect 1 0 0 0;
#X connect 4 0 23 0;
#X connect 5 0 22 0;
#X connect 6 0 21 0;
#X connect 6 0 24 0;
#X connect 8 0 28 0;
#X connect 20 0 41 0;
#X connect 20 1 28 0;
#X connect 21 0 7 1;
#X connect 21 0 40 1;
#X connect 21 0 39 1;
#X connect 21 0 38 1;
#X connect 21 0 37 1;
#X connect 21 0 36 1;
#X connect 21 0 35 1;
#X connect 21 0 34 1;
#X connect 21 0 33 1;
#X connect 21 0 32 1;
#X connect 21 0 31 1;
#X connect 21 0 30 1;
#X connect 21 0 29 1;
#X connect 21 0 19 1;
#X connect 21 0 18 1;
#X connect 21 0 17 1;
#X connect 21 0 16 1;
#X connect 21 0 15 1;
#X connect 21 0 14 1;
#X connect 21 0 13 1;
#X connect 21 0 12 1;
#X connect 21 0 11 1;
#X connect 21 0 10 1;
#X connect 21 0 9 1;
#X connect 21 1 27 0;
#X connect 22 0 1 0;
#X connect 22 1 23 1;
#X connect 22 2 23 2;
#X connect 23 0 20 0;
#X connect 24 0 25 0;
#X connect 25 0 26 0;
#X connect 26 0 41 0;
#X connect 27 0 7 1;
#X connect 27 1 9 1;
#X connect 27 2 15 1;
#X connect 27 3 13 1;
#X connect 27 4 16 1;
#X connect 27 5 14 1;
#X connect 27 6 17 1;
#X connect 27 7 11 1;
#X connect 27 8 18 1;
#X connect 27 9 10 1;
#X connect 27 10 12 1;
#X connect 27 11 19 1;
#X connect 27 12 29 1;
#X connect 27 13 30 1;
#X connect 27 14 36 1;
#X connect 27 15 34 1;
#X connect 27 16 37 1;
#X connect 27 17 35 1;
#X connect 27 18 38 1;
#X connect 27 19 32 1;
#X connect 27 20 39 1;
#X connect 27 21 31 1;
#X connect 27 23 33 1;
#X connect 27 24 40 1;
#X connect 28 0 7 0;
#X connect 28 1 9 0;
#X connect 28 2 15 0;
#X connect 28 3 13 0;
#X connect 28 4 16 0;
#X connect 28 5 14 0;
#X connect 28 6 17 0;
#X connect 28 7 11 0;
#X connect 28 8 18 0;
#X connect 28 9 10 0;
#X connect 28 10 12 0;
#X connect 28 11 19 0;
#X connect 28 12 29 0;
#X connect 28 13 30 0;
#X connect 28 14 36 0;
#X connect 28 15 34 0;
#X connect 28 16 37 0;
#X connect 28 17 35 0;
#X connect 28 18 38 0;
#X connect 28 19 32 0;
#X connect 28 20 39 0;
#X connect 28 21 31 0;
#X connect 28 22 33 0;
#X connect 28 23 40 0;
#X connect 41 0 8 0;
#X connect 41 1 8 1;
#X connect 41 2 8 2;
#X connect 42 0 4 0;
#X restore 313 384 pd synth;
#X connect 0 0 37 0;
#X connect 15 0 4 0;
#X connect 15 0 5 0;
#X connect 16 0 17 0;
#X connect 16 1 17 1;
#X connect 17 0 20 0;
#X connect 21 0 22 0;
#X connect 21 1 22 1;
#X connect 22 0 16 0;
#X connect 23 0 24 0;
#X connect 23 1 24 1;
#X connect 24 0 25 0;
#X connect 26 0 19 0;
#X connect 27 0 33 0;
#X connect 28 0 32 0;
#X connect 29 0 30 0;
#X connect 30 0 23 0;
#X connect 32 0 18 0;
#X connect 33 0 21 0;
#X connect 35 0 37 1;
