#N canvas 1264 111 1163 726 10;
#X obj 304 186 r notesIn-\$1;
#X obj 304 491 s notesOut-\$1;
#X obj 516 19 r loadbang-\$1;
#X obj 25 186 inlet~ inL-\$1;
#X obj 135 186 inlet~ inR-\$1;
#X obj 27 491 outlet~ outL-\$1;
#X obj 152 484 outlet~ outR-\$1;
#X obj 499 186 r auxIn-\$1;
#X obj 498 209 r expIn-\$1;
#X obj 498 234 r fsIn-\$1;
#X obj 516 45 int 0;
#X obj 516 69 s aux-led-\$1;
#X obj 398 186 r ctrlIn-\$1;
#X obj 398 491 s ctrlOut-\$1;
#X obj 195 627 soundfiler;
#N canvas 0 22 450 278 (subpatch) 0;
#X array array1 600 float 2;
#X coords 0 1 600 -1 200 140 1;
#X restore 499 534 graph;
#X obj 24 362 waveshaper;
#X obj 184 376 waveshaper;
#X msg 142 683 size \$1;
#X obj 82 231 r inGain-\$1;
#X obj 270 239 r outGain-\$1;
#X obj 83 250 * 0.01;
#X obj 84 270 sig~;
#X obj 85 292 lop~ 10;
#X obj 270 261 * 0.01;
#X obj 271 281 sig~;
#X obj 272 303 lop~ 10;
#X obj 196 555 r wave-\$1;
#X msg 270 559 100;
#X msg 195 602 read -resize ./wavs/\$1.wav array1;
#X obj 195 577 + 99;
#X obj 449 392 r dw-\$1;
#X obj 449 418 * 0.01;
#X msg 449 442 dw \$1;
#X obj 195 653 - 2;
#X obj 356 253 r dcOffset-\$1;
#X msg 356 299 dc \$1;
#X obj 531 266 r hpf-\$1;
#X msg 531 291 hpf \$1;
#X obj 611 276 r lpf-\$1;
#X msg 611 299 lpf \$1;
#X obj 356 275 * 0.005;
#X connect 0 0 1 0;
#X connect 2 0 10 0;
#X connect 3 0 16 0;
#X connect 4 0 17 0;
#X connect 10 0 11 0;
#X connect 12 0 13 0;
#X connect 14 0 34 0;
#X connect 16 0 5 0;
#X connect 17 0 6 0;
#X connect 18 0 16 3;
#X connect 18 0 17 3;
#X connect 19 0 21 0;
#X connect 20 0 24 0;
#X connect 21 0 22 0;
#X connect 22 0 23 0;
#X connect 23 0 16 1;
#X connect 23 0 17 1;
#X connect 24 0 25 0;
#X connect 25 0 26 0;
#X connect 26 0 17 2;
#X connect 26 0 16 2;
#X connect 27 0 30 0;
#X connect 28 0 29 0;
#X connect 29 0 14 0;
#X connect 30 0 29 0;
#X connect 31 0 32 0;
#X connect 32 0 33 0;
#X connect 33 0 17 3;
#X connect 33 0 16 3;
#X connect 34 0 18 0;
#X connect 35 0 41 0;
#X connect 36 0 17 3;
#X connect 36 0 16 3;
#X connect 37 0 38 0;
#X connect 38 0 17 3;
#X connect 38 0 16 3;
#X connect 39 0 40 0;
#X connect 40 0 17 3;
#X connect 40 0 16 3;
#X connect 41 0 36 0;
