#N canvas 472 173 921 677 12;
#X obj 42 25 inlet~;
#X obj 40 620 outlet~;
#X obj 505 63 inlet;
#X obj 117 341 *~;
#X obj 134 101 inlet~;
#X obj 419 100 inlet~;
#X obj 117 409 *~;
#X obj 117 489 hip~ 5;
#X obj 111 74 hip~ 5;
#X obj 40 560 c_xfade;
#X obj 117 163 *~ 0.5;
#X obj 117 369 tabread4~ array1;
#X obj 116 41 tanh~;
#X obj 116 134 *~;
#X obj 118 278 +~;
#X obj 118 310 clip~ 0 1;
#X obj 504 105 route size dw dc hpf lpf;
#X obj 566 156 sig~;
#X obj 567 178 lop~ 10;
#X obj 117 451 lop~ 10000;
#X obj 635 135 + 40;
#X obj 635 164 mtof;
#X obj 200 188 * 0.7;
#X obj 200 217 mtof;
#X obj 117 193 +~ 0.5;
#X connect 0 0 9 0;
#X connect 0 0 12 0;
#X connect 2 0 16 0;
#X connect 3 0 11 0;
#X connect 4 0 13 1;
#X connect 5 0 6 1;
#X connect 6 0 19 0;
#X connect 7 0 9 1;
#X connect 8 0 13 0;
#X connect 9 0 1 0;
#X connect 10 0 24 0;
#X connect 11 0 6 0;
#X connect 12 0 8 0;
#X connect 13 0 10 0;
#X connect 14 0 15 0;
#X connect 15 0 3 0;
#X connect 16 0 3 1;
#X connect 16 1 9 2;
#X connect 16 2 17 0;
#X connect 16 3 22 0;
#X connect 16 4 20 0;
#X connect 17 0 18 0;
#X connect 18 0 14 1;
#X connect 19 0 7 0;
#X connect 20 0 21 0;
#X connect 21 0 19 1;
#X connect 22 0 23 0;
#X connect 23 0 8 1;
#X connect 24 0 14 0;
