#N canvas 1001 77 1345 714 10;
#N canvas 0 50 450 250 (subpatch) 0;
#X array \$0-plot 40000 float 2;
#X coords 0 1 40000 -1 200 280 1 0 0;
#X restore 1012 352 graph;
#X obj 163 320 loop~;
#X msg 151 240 bang;
#N canvas 0 50 450 250 (subpatch) 0;
#X array \$0-plot2 40000 float 2;
#X coords 0 1 40000 0 200 140 1 0 0;
#X restore 1013 171 graph;
#X obj 222 160 r~ \$0-len;
#X obj 212 229 *~ 20000;
#X obj 315 563 *~;
#X obj 337 603 /~ 20000;
#N canvas 4 50 450 300 rand~ 0;
#X obj 95 148 outlet~;
#X obj 123 64 noise~;
#X obj 144 95 *~ 0.5;
#X obj 156 134 +~ 0.5;
#X connect 1 0 2 0;
#X connect 2 0 3 0;
#X connect 3 0 0 0;
#X restore 5 258 pd rand~;
#X obj 12 315 samphold~;
#X obj 180 258 max~ 64;
#N canvas 0 50 450 250 (subpatch) 0;
#X array \$0-plot4 40000 float 2;
#X coords 0 1 40000 0 200 140 1 0 0;
#X restore 753 42 graph;
#N canvas 0 50 450 250 (subpatch) 0;
#X array \$0-plot3 40000 float 2;
#X coords 0 1 40000 0 200 140 1 0 0;
#X restore 1014 31 graph;
#X obj 470 637 *~ 20000;
#X obj 340 637 +~;
#X obj 329 158 nbx 10 14 -1e+37 1e+37 0 0 empty empty empty 0 -8 0
10 -262144 -1 -1 0 256;
#N canvas 0 50 450 300 rand~ 0;
#X obj 95 148 outlet~;
#X obj 123 64 noise~;
#X obj 144 95 *~ 0.5;
#X obj 156 134 +~ 0.5;
#X connect 1 0 2 0;
#X connect 2 0 3 0;
#X connect 3 0 0 0;
#X restore 84 352 pd rand~;
#X obj 83 381 samphold~;
#X obj 168 497 sh_buffer;
#X obj 39 344 sig~ 1;
#X obj 39 404 -~;
#X obj 143 597 *~;
#X obj 151 631 s~ \$0-len;
#X obj 466 327 -~ 0.5;
#X obj 482 395 *~;
#X obj 488 364 *~ 2;
#X obj 430 364 sig~ 1;
#X obj 484 434 -~;
#X obj 544 473 expr~ tanh($v1*$v2);
#X obj 710 453 sig~ 1;
#X obj 746 357 nbx 5 14 -1e+37 1e+37 0 0 empty empty empty 0 -8 0 10
-262144 -1 -1 206.076 256;
#X obj 756 413 / 10;
#X obj 91 437 *~;
#X obj 332 534 *~ 1;
#X obj 215 53 inlet;
#X text 95 73 pitch;
#X text 228 24 looplen;
#X obj 513 699 outlet~;
#X obj 656 661 outlet~;
#X obj 34 57 inlet;
#X obj 617 173 inlet;
#X text 598 133 on//off;
#X obj 696 280 sig~ 0;
#X obj 464 33 inlet;
#X obj 647 528 max~ 1;
#X obj 659 300 == 0;
#X obj 665 394 nbx 5 14 -1e+37 1e+37 0 0 empty empty empty 0 -8 0 10
-262144 -1 -1 0 256;
#X obj 475 666 *~ 0;
#X text 492 60 env;
#X obj 337 665 tabwrite~ \$0-plot4;
#X obj 271 680 bng 15 250 50 0 empty empty empty 17 7 0 10 -262144
-1 -1;
#X obj 500 213 * -1;
#X obj 520 159 nbx 5 14 -1e+37 1e+37 0 0 empty empty empty 0 -8 0 10
-262144 -1 -1 0 256;
#X obj 505 246 + 2010;
#X obj 530 263 / 2000;
#X obj 546 316 * 200;
#X obj 534 287 pow 6;
#X obj 494 184 / 3;
#X obj 107 102 bng 15 250 50 0 empty empty empty 17 7 0 10 -262144
-1 -1;
#X obj 186 564 *~ 1;
#X obj 333 65 t f f;
#X obj 340 94 *;
#X obj 336 120 nbx 10 14 -1e+37 1e+37 0 0 empty empty empty 0 -8 0
10 -262144 -1 -1 0 256;
#X obj 344 44 * 1.4;
#X obj 463 144 * 3000;
#X obj 306 467 nbx 5 14 -1e+37 1e+37 0 0 empty empty empty 0 -8 0 10
-262144 -1 -1 0 256;
#X obj 282 401 / 1000;
#X obj 282 365 * -1;
#X obj 282 383 + 100;
#X obj 282 347 r samp_rc_size;
#X connect 1 0 6 0;
#X connect 1 0 9 1;
#X connect 1 0 17 1;
#X connect 1 0 18 1;
#X connect 1 0 23 0;
#X connect 1 1 33 0;
#X connect 2 0 1 0;
#X connect 4 0 5 0;
#X connect 5 0 10 0;
#X connect 6 0 7 0;
#X connect 7 0 14 0;
#X connect 8 0 9 0;
#X connect 9 0 20 1;
#X connect 9 0 18 0;
#X connect 10 0 1 1;
#X connect 13 0 47 0;
#X connect 14 0 13 0;
#X connect 14 0 49 0;
#X connect 15 0 5 1;
#X connect 15 0 7 1;
#X connect 15 0 13 1;
#X connect 15 0 2 0;
#X connect 16 0 17 0;
#X connect 17 0 32 0;
#X connect 17 0 32 1;
#X connect 18 0 14 0;
#X connect 19 0 20 0;
#X connect 20 0 21 0;
#X connect 21 0 22 0;
#X connect 23 0 25 0;
#X connect 24 0 27 1;
#X connect 25 0 24 0;
#X connect 25 0 24 1;
#X connect 26 0 27 0;
#X connect 27 0 28 0;
#X connect 28 0 44 0;
#X connect 29 0 28 1;
#X connect 30 0 31 0;
#X connect 31 0 29 0;
#X connect 32 0 59 0;
#X connect 33 0 6 1;
#X connect 34 0 15 0;
#X connect 39 0 1 0;
#X connect 40 0 42 0;
#X connect 40 0 45 0;
#X connect 40 0 47 1;
#X connect 43 0 52 0;
#X connect 43 0 63 0;
#X connect 44 0 38 0;
#X connect 45 0 46 0;
#X connect 46 0 44 1;
#X connect 47 0 37 0;
#X connect 50 0 49 0;
#X connect 51 0 53 0;
#X connect 53 0 54 0;
#X connect 54 0 56 0;
#X connect 55 0 30 0;
#X connect 56 0 55 0;
#X connect 57 0 51 0;
#X connect 59 0 21 1;
#X connect 60 0 61 0;
#X connect 60 1 61 1;
#X connect 61 0 62 0;
#X connect 62 0 64 0;
#X connect 63 0 60 0;
#X connect 64 0 52 0;
#X connect 64 0 57 0;
#X connect 66 0 65 0;
#X connect 66 0 59 1;
#X connect 67 0 68 0;
#X connect 68 0 66 0;
#X connect 69 0 67 0;
