#N canvas 4 50 1071 786 10;
#N canvas 4 50 450 250 (subpatch) 0;
#X array \$0-sampleL 2.64602e+06 float 2;
#X coords 0 1 2.64602e+06 -1 40 28 1 0 0;
#X restore 214 475 graph;
#X obj 693 767 outlet~;
#X obj 544 248 max 100;
#X obj 549 266 / 44100;
#X obj 469 406 nbx 5 14 -1e+37 1e+37 0 0 empty empty freq 0 -8 0 10
-262144 -1 -1 0 256;
#X obj 469 294 expr 1/$f1;
#X obj 68 195 list;
#X obj 89 160 f \$0;
#X obj 693 695 *~;
#X obj 660 276 bng 15 250 50 0 empty empty empty 17 7 0 10 -262144
-1 -1;
#X obj 817 334 * 1000;
#X obj 469 368 * 1;
#X obj 469 340 f 1;
#X obj 474 322 t b f;
#X msg 607 431 0;
#X obj 607 413 del 3;
#X obj 741 767 outlet~;
#X obj 660 202 inlet;
#X obj 861 34 inlet;
#X obj 544 230 r \$0-slen;
#X obj 606 604 r \$0-offset;
#X obj 549 480 r \$0-dir;
#X obj 549 508 == -1;
#X obj 481 526 *~ 1;
#X obj 481 554 +~ 0;
#N canvas 11 108 1345 512 sample_bounds 1;
#X floatatom 215 213 10 0 0 2 sample_size #0-samplesize -;
#X obj 72 156 nbx 5 14 -1e+37 1e+37 0 0 empty empty empty 0 -8 0 10
-262144 -1 -1 0 256;
#X obj 236 136 nbx 5 14 -1e+37 1e+37 0 0 empty empty empty 0 -8 0 10
-262144 -1 -1 0 256;
#X obj 73 205 -;
#X obj 172 147 t b f;
#X obj 73 279 nbx 5 14 -1e+37 1e+37 0 0 empty empty empty 0 -8 0 10
-262144 -1 -1 0 256;
#X obj 73 297 * 44100;
#X obj 73 333 nbx 5 14 -1e+37 1e+37 0 0 empty empty samplen 0 -8 0
10 -262144 -1 -1 0 256;
#X obj 215 242 t b f;
#X obj 73 366 s \$0-slen;
#X obj 77 252 f 1;
#X obj 158 229 min 0;
#X obj 178 274 f 0;
#X obj 179 339 nbx 5 14 -1e+37 1e+37 0 0 empty empty offset 0 -8 0
10 -262144 -1 -1 0 256;
#X obj 178 302 * 44100;
#X obj 299 343 nbx 5 14 -1e+37 1e+37 0 0 empty empty dir 0 -8 0 10
-262144 -1 -1 0 256;
#X obj 73 224 abs;
#X obj 306 276 * 2;
#X obj 302 298 - 1;
#X obj 313 237 <;
#X obj 348 306 nbx 5 14 -1e+37 1e+37 0 0 empty empty empty 0 -8 0 10
-262144 -1 -1 0 256;
#X obj 179 370 s \$0-offset;
#X obj 297 368 s \$0-dir;
#X obj 79 91 / 100;
#X obj 235 112 / 100;
#X obj 79 72 r samp_start;
#X obj 237 78 r samp_end;
#X connect 0 0 8 0;
#X connect 1 0 3 0;
#X connect 1 0 11 0;
#X connect 1 0 19 0;
#X connect 2 0 4 0;
#X connect 3 0 16 0;
#X connect 4 0 1 0;
#X connect 4 1 3 1;
#X connect 4 1 11 1;
#X connect 4 1 19 1;
#X connect 5 0 6 0;
#X connect 6 0 7 0;
#X connect 7 0 9 0;
#X connect 8 0 10 0;
#X connect 8 0 12 0;
#X connect 8 1 6 1;
#X connect 8 1 14 1;
#X connect 10 0 5 0;
#X connect 11 0 12 0;
#X connect 12 0 14 0;
#X connect 13 0 21 0;
#X connect 14 0 13 0;
#X connect 15 0 22 0;
#X connect 16 0 10 0;
#X connect 17 0 18 0;
#X connect 18 0 15 0;
#X connect 19 0 17 0;
#X connect 19 0 20 0;
#X connect 23 0 1 0;
#X connect 24 0 2 0;
#X connect 25 0 23 0;
#X connect 26 0 24 0;
#X restore 68 470 pd sample_bounds;
#X obj 481 488 *~ 1;
#N canvas 4 50 558 511 loopstyle 0;
#X obj 32 427 list;
#X obj 383 401 nbx 1 14 -1e+37 1e+37 0 0 empty empty empty 0 -8 0 10
-262144 -1 -1 0 256;
#X obj 408 403 nbx 1 14 -1e+37 1e+37 0 0 empty empty empty 0 -8 0 10
-262144 -1 -1 0 256;
#X obj 432 403 nbx 1 14 -1e+37 1e+37 0 0 empty empty empty 0 -8 0 10
-262144 -1 -1 0 256;
#X obj 457 405 nbx 1 14 -1e+37 1e+37 0 0 empty empty empty 0 -8 0 10
-262144 -1 -1 0 256;
#X obj 484 404 nbx 1 14 -1e+37 1e+37 0 0 empty empty empty 0 -8 0 10
-262144 -1 -1 0 256;
#X text 393 316 normal phasor;
#X text 392 293 gate (not trigger);
#X text 392 307 loop;
#X text 392 326 pingpong;
#X obj 353 428 s \$0-gate;
#X obj 377 449 s \$0-loop;
#X obj 443 426 s \$0-pp;
#X obj 460 447 s \$0-randcut;
#X obj 393 470 s \$0-normal;
#X msg 229 376 1 0 1 0 0 0 0, f 1;
#X msg 252 376 0 0 1 0 0 0 0, f 1;
#X msg 272 375 1 1 1 0 0 0 0, f 1;
#X msg 316 377 1 1 0 0 1 0 0, f 1;
#X msg 295 376 1 1 0 1 0 0 0, f 1;
#X obj 55 151 - 1;
#X obj 55 243 sel 0 1 2 3 4;
#X obj 376 359 unpack 0 0 0 0 0;
#X msg 377 296 1 0 0 1 0, f 1;
#X obj 155 128 sel 1 0;
#X obj 55 225 f;
#X text 392 337 granular;
#X msg 155 156 1;
#X msg 177 156 0;
#X obj 177 194 tgl 15 0 empty empty empty 17 7 0 10 -262144 -1 -1 0
1;
#X obj 60 207 spigot;
#X obj 60 179 delay 500;
#X obj 55 133 r samp_mode;
#X obj 32 463 stdout;
#X obj 155 110 r pagemodes;
#X msg 32 445 \$1 mode;
#X msg 32 281 Gate;
#X msg 70 281 Trigger;
#X msg 126 281 Loop;
#X msg 164 281 Ping-pong;
#X msg 232 281 Granular;
#X msg 233 165 stop;
#X connect 0 0 35 0;
#X connect 1 0 10 0;
#X connect 2 0 11 0;
#X connect 3 0 14 0;
#X connect 4 0 12 0;
#X connect 5 0 13 0;
#X connect 15 0 22 0;
#X connect 16 0 22 0;
#X connect 17 0 22 0;
#X connect 18 0 22 0;
#X connect 19 0 22 0;
#X connect 20 0 25 0;
#X connect 21 0 36 0;
#X connect 21 1 37 0;
#X connect 21 2 38 0;
#X connect 21 3 39 0;
#X connect 21 4 40 0;
#X connect 22 0 1 0;
#X connect 22 1 2 0;
#X connect 22 2 3 0;
#X connect 22 3 4 0;
#X connect 22 4 5 0;
#X connect 23 0 22 0;
#X connect 24 0 27 0;
#X connect 24 0 31 0;
#X connect 24 1 28 0;
#X connect 24 1 41 0;
#X connect 25 0 21 0;
#X connect 27 0 29 0;
#X connect 28 0 29 0;
#X connect 29 0 30 1;
#X connect 30 0 25 0;
#X connect 31 0 30 0;
#X connect 32 0 20 0;
#X connect 34 0 24 0;
#X connect 35 0 33 0;
#X connect 36 0 0 0;
#X connect 36 0 15 0;
#X connect 37 0 0 0;
#X connect 37 0 16 0;
#X connect 38 0 0 0;
#X connect 38 0 17 0;
#X connect 39 0 0 0;
#X connect 39 0 19 0;
#X connect 40 0 0 0;
#X connect 40 0 18 0;
#X connect 41 0 31 0;
#X restore 68 506 pd loopstyle;
#X obj 679 276 bng 15 250 50 0 empty empty empty 17 7 0 10 -262144
-1 -1;
#X obj 260 85 t b a;
#X obj 266 141 list;
#X obj 469 458 phasor~;
#X obj 481 582 *~;
#X obj 481 650 +~;
#X obj 260 67 ../soundshare/soundshare_select;
#X obj 936 224 nbx 5 14 -1e+37 1e+37 0 0 empty empty empty 0 -8 0 10
-262144 -1 -1 0 256;
#X obj 936 240 mtof;
#X obj 936 258 nbx 5 14 -1e+37 1e+37 0 0 empty empty empty 0 -8 0 10
-262144 -1 -1 0 256;
#X obj 936 274 / 8.175;
#X obj 936 292 nbx 5 14 -1e+37 1e+37 0 0 empty empty empty 0 -8 0 10
-262144 -1 -1 0 256;
#X obj 936 308 * 1;
#N canvas 4 50 1352 682 pp_gen 0;
#X obj 149 155 / 2;
#X obj 181 247 *~ 2;
#X obj 190 265 -~ 1;
#X obj 196 290 abs~;
#X obj 204 314 -~ 1;
#X obj 178 339 abs~;
#X obj 201 124 r \$0-pp;
#X obj 173 370 *~ 0;
#X obj 230 146 != 1;
#X obj 172 228 phasor~;
#X obj 146 63 inlet;
#X obj 182 446 outlet~;
#X obj 429 101 inlet;
#X text 218 66 freq;
#X text 482 85 restart;
#X obj 151 187 siglop~ 0.5 \$1;
#X connect 0 0 15 0;
#X connect 1 0 2 0;
#X connect 2 0 3 0;
#X connect 3 0 4 0;
#X connect 4 0 5 0;
#X connect 5 0 7 0;
#X connect 6 0 8 0;
#X connect 6 0 7 1;
#X connect 7 0 11 0;
#X connect 9 0 1 0;
#X connect 10 0 0 0;
#X connect 12 0 9 1;
#X connect 15 0 9 0;
#X restore 411 498 pd pp_gen;
#N canvas 5 50 1351 682 env 0;
#X obj 396 443 vline~;
#X obj 409 68 bng 15 250 50 0 empty empty empty 17 7 0 10 -262144 -1
-1;
#X obj 386 208 f 1000;
#X obj 384 230 / 1;
#X obj 501 197 abs;
#X obj 382 270 - 25;
#X obj 445 163 spigot 1;
#X obj 493 137 r \$0-gate;
#X obj 382 360 spigot 1;
#X obj 471 294 spigot 0;
#X obj 479 256 r \$0-loop;
#X obj 437 270 != 1;
#X obj 439 116 v \$0-env;
#X msg 441 140 0 \$1;
#X obj 509 68 bng 15 250 50 0 empty empty empty 17 7 0 10 -262144 -1
-1;
#X obj 527 355 t b f;
#X obj 643 188 r \$0-env;
#X obj 526 377 v \$0-env;
#X obj 528 403 list;
#X msg 528 425 0 2 \, 1 \$1 2 \, 0 \$1 \$2;
#X obj 781 76 * 1;
#X obj 365 540 outlet~;
#X obj 380 29 inlet;
#X obj 510 33 inlet;
#X obj 774 29 inlet;
#X obj 679 30 inlet;
#X obj 626 103 * 1;
#X msg 457 231 1e+07;
#X obj 635 264 + 10;
#X obj 641 229 * 2;
#X obj 370 315 max 1;
#X obj 561 217 nbx 5 14 -1e+37 1e+37 0 0 empty empty empty 0 -8 0 10
-262144 -1 -1 0 256;
#X obj 716 250 nbx 5 14 -1e+37 1e+37 0 0 empty empty empty 0 -8 0 10
-262144 -1 -1 0 256;
#X connect 0 0 21 0;
#X connect 1 0 2 0;
#X connect 1 0 27 0;
#X connect 2 0 3 0;
#X connect 3 0 5 0;
#X connect 4 0 3 1;
#X connect 4 0 31 0;
#X connect 5 0 30 0;
#X connect 6 0 0 0;
#X connect 7 0 6 1;
#X connect 8 0 15 0;
#X connect 9 0 15 0;
#X connect 10 0 9 1;
#X connect 10 0 11 0;
#X connect 11 0 8 1;
#X connect 12 0 13 0;
#X connect 13 0 6 0;
#X connect 14 0 12 0;
#X connect 15 0 17 0;
#X connect 15 1 18 1;
#X connect 16 0 29 0;
#X connect 16 0 32 0;
#X connect 17 0 18 0;
#X connect 18 0 19 0;
#X connect 19 0 0 0;
#X connect 20 0 4 0;
#X connect 22 0 1 0;
#X connect 23 0 14 0;
#X connect 24 0 20 0;
#X connect 25 0 26 0;
#X connect 26 0 2 1;
#X connect 27 0 9 0;
#X connect 28 0 5 1;
#X connect 29 0 28 0;
#X connect 30 0 8 0;
#X restore 795 558 pd env;
#N canvas 45 392 224 263 envparam 0;
#X obj 22 78 t f f;
#X obj 22 96 *;
#X obj 22 114 nbx 5 14 -1e+37 1e+37 0 0 empty empty empty 0 -8 0 10
-262144 -1 -1 0 256;
#X obj 22 60 * 1.4;
#X obj 22 208 s \$0-env;
#X obj 130 208 nbx 5 14 -1e+37 1e+37 0 0 empty empty empty 0 -8 0 10
-262144 -1 -1 0 256;
#X obj 76 208 v \$0-env;
#X obj 22 130 * 3000;
#X obj 22 42 / 100;
#X obj 22 24 r samp_attack, f 17;
#X connect 0 0 1 0;
#X connect 0 1 1 1;
#X connect 1 0 2 0;
#X connect 2 0 7 0;
#X connect 3 0 0 0;
#X connect 7 0 4 0;
#X connect 7 0 5 0;
#X connect 7 0 6 0;
#X connect 8 0 3 0;
#X connect 9 0 8 0;
#X restore 68 488 pd envparam;
#X obj 653 420 r \$0-slen;
#X obj 716 558 r \$0-randcut;
#X obj 508 382 r \$0-normal;
#X obj 708 657 *~;
#X obj 981 75 f;
#X obj 914 97 f;
#X obj 969 52 t b f;
#X obj 936 132 +;
#X obj 936 150 nbx 5 14 -1e+37 1e+37 0 0 empty empty empty 0 -8 0 10
-262144 -1 -1 0 256;
#X obj 973 95 / 100;
#X obj 626 576 randcut_mod \$1;
#X obj 860 52 - 72;
#X obj 861 70 t b f;
#X obj 936 206 +;
#X obj 469 423 siglop~ 1 \$1;
#X obj 544 546 siglop~ 44100 \$1;
#X obj 606 622 siglop~ 0 \$1;
#X obj 443 85 list;
#X obj 260 29 / 100;
#N canvas 0 50 450 250 (subpatch) 0;
#X array \$0-sampleR 2.64602e+06 float 2;
#X coords 0 1 2.64602e+06 -1 40 28 1 0 0;
#X restore 214 516 graph;
#X obj 481 696 tabread4~ \$0-sampleR;
#X obj 486 668 tabread4~ \$0-sampleL;
#X obj 741 721 *~;
#X obj 513 192 symbol;
#X obj 236 113 del 1000;
#X obj 342 189 symbol;
#X msg 342 112 bang;
#X obj 342 130 del 900;
#X msg 273 228 \$1 !;
#X msg 343 208 \$1 ...;
#X msg 513 210 \$1;
#X obj 680 558 / 100;
#X obj 513 128 delay 500;
#X obj 260 11 r samp_select;
#X obj 443 39 r samp_source;
#X obj 914 16 r samp_semitone;
#X obj 969 34 r samp_cent;
#X obj 680 540 r samp_rc_env;
#X obj 343 333 stdout;
#X obj 388 297 r active;
#X obj 513 64 r active;
#X obj 513 82 sel 1;
#X obj 89 10 loadbang;
#X obj 343 315 spigot 1;
#X msg 540 100 stop;
#X obj 68 318 readsf~ 2, f 10;
#X msg 68 226 open \$1;
#X obj 68 412 tabwrite~ \$0-sampleL;
#X obj 96 394 tabwrite~ \$0-sampleR;
#X msg 125 346 stop;
#X msg 84 290 1;
#X msg 146 222 read \$1;
#X obj 182 326 s \$0-samplesize;
#X obj 146 240 soundfile_info;
#X msg 107 290 0;
#X obj 68 244 t a b b;
#X obj 146 258 unpack f s f f f f s f;
#X obj 11 276 delay 100;
#X obj 660 248 sel 0;
#X obj 741 749 *~;
#X obj 693 749 *~;
#X floatatom 920 446 5 0 0 0 - - -;
#X obj 920 463 / 100;
#X connect 2 0 3 0;
#X connect 2 0 59 0;
#X connect 3 0 5 0;
#X connect 3 0 10 0;
#X connect 4 0 41 0;
#X connect 4 0 58 0;
#X connect 5 0 12 0;
#X connect 6 0 90 0;
#X connect 6 0 95 0;
#X connect 7 0 6 1;
#X connect 8 0 104 0;
#X connect 9 0 15 0;
#X connect 9 0 42 0;
#X connect 10 0 42 2;
#X connect 11 0 4 0;
#X connect 12 0 11 0;
#X connect 13 0 12 0;
#X connect 13 1 11 1;
#X connect 14 0 31 1;
#X connect 14 0 41 1;
#X connect 15 0 14 0;
#X connect 17 0 102 0;
#X connect 17 0 105 0;
#X connect 18 0 55 0;
#X connect 19 0 2 0;
#X connect 20 0 60 0;
#X connect 21 0 22 0;
#X connect 21 0 23 1;
#X connect 22 0 24 1;
#X connect 23 0 24 0;
#X connect 24 0 32 0;
#X connect 26 0 23 0;
#X connect 28 0 42 1;
#X connect 29 0 68 0;
#X connect 29 1 30 1;
#X connect 30 0 6 0;
#X connect 31 0 26 0;
#X connect 32 0 33 0;
#X connect 33 0 65 0;
#X connect 33 0 64 0;
#X connect 34 0 29 0;
#X connect 34 1 61 0;
#X connect 35 0 36 0;
#X connect 36 0 37 0;
#X connect 37 0 38 0;
#X connect 38 0 39 0;
#X connect 39 0 40 0;
#X connect 40 0 13 0;
#X connect 40 0 42 3;
#X connect 40 0 54 0;
#X connect 41 0 23 0;
#X connect 42 0 47 1;
#X connect 44 0 54 1;
#X connect 45 0 54 3;
#X connect 46 0 26 1;
#X connect 47 0 8 1;
#X connect 47 0 66 1;
#X connect 48 0 53 0;
#X connect 49 0 51 0;
#X connect 50 0 49 0;
#X connect 50 1 48 0;
#X connect 51 0 52 0;
#X connect 52 0 57 0;
#X connect 53 0 51 1;
#X connect 54 0 33 0;
#X connect 54 1 47 0;
#X connect 55 0 56 0;
#X connect 56 0 49 0;
#X connect 56 1 57 1;
#X connect 57 0 35 0;
#X connect 58 0 31 0;
#X connect 59 0 32 1;
#X connect 60 0 33 1;
#X connect 61 0 72 0;
#X connect 61 0 67 1;
#X connect 61 0 70 0;
#X connect 61 0 69 1;
#X connect 62 0 34 0;
#X connect 64 0 66 0;
#X connect 65 0 8 0;
#X connect 66 0 103 0;
#X connect 67 0 74 0;
#X connect 68 0 30 0;
#X connect 69 0 73 0;
#X connect 70 0 71 0;
#X connect 71 0 69 0;
#X connect 72 0 87 0;
#X connect 73 0 87 0;
#X connect 74 0 87 0;
#X connect 75 0 54 2;
#X connect 76 0 67 0;
#X connect 77 0 62 0;
#X connect 78 0 34 2;
#X connect 78 0 34 1;
#X connect 79 0 49 0;
#X connect 80 0 50 0;
#X connect 81 0 75 0;
#X connect 83 0 87 1;
#X connect 84 0 85 0;
#X connect 85 0 76 0;
#X connect 85 1 88 0;
#X connect 86 0 7 0;
#X connect 86 0 34 1;
#X connect 87 0 82 0;
#X connect 88 0 76 0;
#X connect 89 0 91 0;
#X connect 89 1 92 0;
#X connect 89 2 93 0;
#X connect 89 2 67 0;
#X connect 90 0 99 0;
#X connect 93 0 92 0;
#X connect 93 0 91 0;
#X connect 94 0 89 0;
#X connect 95 0 97 0;
#X connect 97 0 100 0;
#X connect 98 0 89 0;
#X connect 99 0 89 0;
#X connect 99 1 101 0;
#X connect 99 2 98 0;
#X connect 100 2 96 0;
#X connect 101 0 94 0;
#X connect 101 0 91 0;
#X connect 101 0 92 0;
#X connect 102 0 28 0;
#X connect 102 1 9 0;
#X connect 103 0 16 0;
#X connect 104 0 1 0;
#X connect 105 0 106 0;
#X connect 106 0 103 1;
#X connect 106 0 104 1;
