#N canvas 108 23 1248 756 10;
#N canvas 239 135 1440 775 midipolydoubleosc1v 1;
#X obj -175 86 clip -1 1;
#X obj -173 115 * 2;
#X text -144 116 bend range;
#X obj 271 118 vsl 15 81 0.2 1 0 1 empty empty r 2 4 0 8 -262144 -1
-1 5363 1;
#X obj 145 116 vradio 15 1 1 5 empty empty wav 0 80 0 8 -262144 -1
-1 1;
#X obj 366 323 vradio 15 1 1 3 empty empty okt 0 52 0 8 -262144 -1
-1 2;
#X obj 181 118 vsl 15 81 0 1 0 1 empty empty rs 2 4 0 8 -262144 -1
-1 4680 1;
#X obj 126 186 tgl 15 1 empty empty ep 0 -6 0 8 -262144 -1 -1 0 -2
;
#X obj 105 118 vsl 15 81 0 0.25 0 1 empty empty dt 2 4 0 8 -262144
-1 -1 3180 1;
#X obj 236 118 vsl 15 81 0.2 1 0 1 empty empty d 2 4 0 8 -262144 -1
-1 2600 1;
#X obj 219 118 vsl 15 81 0.2 1 0 1 empty empty a 2 4 0 8 -262144 -1
-1 3596 1;
#X obj 253 118 vsl 15 81 0.2 1 0 1 empty empty s 2 4 0 8 -262144 -1
-1 0 1;
#X obj -173 140 t b f;
#X obj -158 569 +;
#X obj -192 540 int;
#N canvas 200 92 1028 787 one_doubleosc1_voice 0;
#X obj 23 233 moses 0.001;
#X msg 5 397 0 447.746;
#X msg -22 349 set 0 \$1;
#X obj -173 127 clip 0 1;
#X obj -159 209 - 1;
#X obj -170 230 * 12;
#X obj -186 253 +;
#X obj 63 463 *;
#X obj 71 422 line 0 1;
#X obj 68 508 *;
#X obj 49 327 t b b;
#X obj 68 561 mtof;
#X obj -69 722 *~;
#X obj 68 533 +;
#X obj -71 430 line 0 1;
#X obj -50 576 lop~ 50;
#X msg -67 401 0 30;
#X obj 61 488 *;
#X obj -254 107 inlet;
#X text -215 109 pitch;
#X obj -169 74 inlet;
#X text -127 73 gate;
#X obj -70 754 outlet~;
#X obj 212 396 *;
#X obj 239 355 + 1;
#X obj 219 323 t b f;
#X obj 427 209 *;
#X obj 427 257 * 10000;
#X obj 428 235 *;
#X msg 81 373 0;
#X obj 26 200 t f f;
#X msg 99 350 set \$1;
#X obj 125 243 +;
#X obj 129 211 t b f;
#X obj 170 252 +;
#X obj 174 220 t b f;
#X obj 3 170 inlet;
#X text 42 168 wave;
#X obj -103 514 +~;
#X obj -105 541 *~ 0.5;
#X obj -36 130 inlet;
#X text 3 128 okt;
#X obj 65 137 inlet;
#X obj 120 568 inlet;
#X text 159 568 res;
#X obj 141 140 inlet;
#X text 180 140 env;
#X obj 451 166 inlet;
#X text 492 167 decay;
#X obj 258 150 inlet;
#X text 297 150 env-pol;
#X text 107 136 cut;
#X obj -93 110 inlet;
#X text -54 110 det;
#X obj -195 347 +;
#X obj -100 291 +;
#X obj -154 317 * -1;
#X obj 366 137 inlet;
#X text 407 136 attack;
#X obj 501 252 inlet;
#X text 544 255 sustain;
#X obj 608 188 inlet;
#X text 648 190 release;
#X obj 365 176 *;
#X obj 368 224 * 10000;
#X obj 366 202 *;
#X obj 601 225 *;
#X obj 604 273 * 10000;
#X obj 602 251 *;
#X obj -172 103 / 128;
#N canvas 104 50 1108 856 adsr1 0;
#X obj -143 147 inlet;
#X msg 15 502 0;
#X obj 63 365 pack f f;
#X msg -148 457 0 915.063;
#X msg 62 393 set \$1 \$2;
#X msg 63 325 bang;
#X obj 125 589 >=;
#X msg 216 752 0.2 447.746;
#X obj 157 632 moses 0.001;
#X obj 150 406 pack f f;
#X msg 151 436 set \$1 \$2;
#X msg 154 350 bang;
#X msg 313 372 set 0 \$1;
#X msg -135 357 bang;
#X msg -136 523 0 2839.82;
#X obj -145 184 clip 0 1;
#X obj -113 211 moses 0.001;
#X obj 15 538 line 0 1;
#X obj -20 376 t f f;
#X obj 9 720 spigot;
#X obj 228 693 delay 0;
#X obj -49 150 inlet;
#X text -8 150 att;
#X obj 22 153 inlet;
#X text 63 153 dec;
#X obj 93 152 inlet;
#X text 134 152 sus;
#X obj 170 152 inlet;
#X text 211 152 rel;
#X obj -106 711 outlet;
#X connect 0 0 15 0;
#X connect 1 0 17 0;
#X connect 2 0 4 0;
#X connect 3 0 17 0;
#X connect 4 0 3 0;
#X connect 5 0 2 0;
#X connect 6 0 8 0;
#X connect 7 0 19 0;
#X connect 8 1 20 0;
#X connect 9 0 10 0;
#X connect 10 0 7 0;
#X connect 11 0 9 0;
#X connect 12 0 14 0;
#X connect 13 0 14 0;
#X connect 14 0 17 0;
#X connect 15 0 16 0;
#X connect 15 0 19 1;
#X connect 16 0 13 0;
#X connect 16 1 2 0;
#X connect 16 1 18 0;
#X connect 17 0 6 0;
#X connect 17 0 29 0;
#X connect 18 0 3 0;
#X connect 18 1 6 1;
#X connect 18 1 1 0;
#X connect 19 0 17 0;
#X connect 20 0 7 0;
#X connect 21 0 2 1;
#X connect 21 0 5 0;
#X connect 23 0 11 0;
#X connect 23 0 9 1;
#X connect 25 0 11 0;
#X connect 25 0 9 0;
#X connect 27 0 12 0;
#X coords 0 0 1 1 120 160 0;
#X restore 315 333 pd adsr1;
#N canvas 167 179 695 417 spt-osc1 0;
#N canvas 156 355 492 405 sawtooth1 0;
#X obj 71 333 outlet~;
#X obj 18 30 inlet;
#X obj 34 69 mtof;
#X obj 59 159 phasor~;
#X obj 70 292 -~ 0.5;
#X obj 227 28 inlet~;
#X obj 93 190 samphold~;
#X obj 72 242 -~;
#X obj 70 268 wrap~;
#X text 62 30 <-pitch;
#X text 279 27 <-sync;
#X obj -83 79 switch~;
#X obj -86 29 inlet;
#X text -46 29 <-on/off;
#X obj 71 312 *~ 2;
#X connect 1 0 2 0;
#X connect 2 0 3 0;
#X connect 3 0 6 0;
#X connect 3 0 7 0;
#X connect 4 0 14 0;
#X connect 5 0 6 1;
#X connect 6 0 7 1;
#X connect 7 0 8 0;
#X connect 8 0 4 0;
#X connect 12 0 11 0;
#X connect 14 0 0 0;
#X restore 54 171 pd sawtooth1;
#N canvas 156 356 623 456 pulse1 0;
#X obj 90 407 outlet~;
#X obj 18 30 inlet;
#X obj 34 69 mtof;
#X obj 59 159 phasor~;
#X obj 227 28 inlet~;
#X obj 93 190 samphold~;
#X obj 72 242 -~;
#X obj 71 262 wrap~;
#X text 62 30 <-pitch;
#X text 279 27 <-sync;
#X obj -86 68 switch~;
#X obj -86 29 inlet;
#X text -46 29 <-on/off;
#X obj 71 286 cos~;
#X obj 84 318 *~ 10000;
#X obj 83 339 +~ 9500;
#X obj 85 368 clip~ -1 1;
#X connect 1 0 2 0;
#X connect 2 0 3 0;
#X connect 3 0 5 0;
#X connect 3 0 6 0;
#X connect 4 0 5 1;
#X connect 5 0 6 1;
#X connect 6 0 7 0;
#X connect 7 0 13 0;
#X connect 11 0 10 0;
#X connect 13 0 14 0;
#X connect 14 0 15 0;
#X connect 15 0 16 0;
#X connect 16 0 0 0;
#X restore 159 172 pd pulse1;
#N canvas 156 355 492 405 triangle1 0;
#X obj 73 460 outlet~;
#X obj 18 30 inlet;
#X obj 34 69 mtof;
#X obj 59 159 phasor~;
#X obj 227 28 inlet~;
#X obj 93 190 samphold~;
#X obj 72 242 -~;
#X obj 70 268 wrap~;
#X text 62 30 <-pitch;
#X text 279 27 <-sync;
#X obj 95 304 *~ -1;
#X obj 96 327 +~ 1;
#X obj 67 362 min~;
#X obj -83 79 switch~;
#X obj -86 29 inlet;
#X text -46 29 <-on/off;
#X obj 71 392 *~ 4;
#X obj 75 424 -~ 1;
#X connect 1 0 2 0;
#X connect 2 0 3 0;
#X connect 3 0 5 0;
#X connect 3 0 6 0;
#X connect 4 0 5 1;
#X connect 5 0 6 1;
#X connect 6 0 7 0;
#X connect 7 0 10 0;
#X connect 7 0 12 0;
#X connect 10 0 11 0;
#X connect 11 0 12 1;
#X connect 12 0 16 0;
#X connect 14 0 13 0;
#X connect 16 0 17 0;
#X connect 17 0 0 0;
#X restore 425 172 pd triangle1;
#X obj 273 28 inlet~;
#X text 130 21 <-pitch;
#X text 320 27 <-sync;
#X obj 89 21 inlet;
#X obj 479 22 inlet;
#X text 522 22 <-type 0 \, 1 \, 2;
#X obj 154 279 outlet~;
#X obj 20 138 == 0;
#X obj 124 137 == 1;
#X obj 347 95 int 0;
#X obj 483 46 loadbang;
#X obj 425 145 == 4;
#X obj 319 140 == 3;
#X obj 245 137 == 2;
#N canvas 156 356 623 456 pulse2 0;
#X obj 71 405 outlet~;
#X obj 18 30 inlet;
#X obj 34 69 mtof;
#X obj 59 159 phasor~;
#X obj 227 28 inlet~;
#X obj 93 190 samphold~;
#X obj 72 242 -~;
#X obj 70 268 wrap~;
#X text 62 30 <-pitch;
#X text 279 27 <-sync;
#X obj -86 68 switch~;
#X obj -86 29 inlet;
#X text -46 29 <-on/off;
#X obj 70 290 cos~;
#X obj 83 322 *~ 10000;
#X obj 84 372 clip~ -1 1;
#X obj 82 343 +~ 8500;
#X connect 1 0 2 0;
#X connect 2 0 3 0;
#X connect 3 0 5 0;
#X connect 3 0 6 0;
#X connect 4 0 5 1;
#X connect 5 0 6 1;
#X connect 6 0 7 0;
#X connect 7 0 13 0;
#X connect 11 0 10 0;
#X connect 13 0 14 0;
#X connect 14 0 16 0;
#X connect 15 0 0 0;
#X connect 16 0 15 0;
#X restore 252 173 pd pulse2;
#N canvas 156 356 623 456 square 0;
#X obj 30 422 outlet~;
#X obj 18 30 inlet;
#X obj 34 69 mtof;
#X obj 59 159 phasor~;
#X obj 227 28 inlet~;
#X obj 93 190 samphold~;
#X obj 72 242 -~;
#X obj 70 268 wrap~;
#X text 62 30 <-pitch;
#X text 279 27 <-sync;
#X obj -86 68 switch~;
#X obj -86 29 inlet;
#X text -46 29 <-on/off;
#X obj 69 297 cos~;
#X obj 73 323 *~ 10000;
#X obj 68 358 clip~ -1 1;
#X connect 1 0 2 0;
#X connect 2 0 3 0;
#X connect 3 0 5 0;
#X connect 3 0 6 0;
#X connect 4 0 5 1;
#X connect 5 0 6 1;
#X connect 6 0 7 0;
#X connect 7 0 13 0;
#X connect 11 0 10 0;
#X connect 13 0 14 0;
#X connect 14 0 15 0;
#X connect 15 0 0 0;
#X restore 342 172 pd square;
#X obj 385 51 clip 0 4;
#X connect 0 0 9 0;
#X connect 1 0 9 0;
#X connect 2 0 9 0;
#X connect 3 0 0 2;
#X connect 3 0 1 2;
#X connect 3 0 2 2;
#X connect 3 0 18 2;
#X connect 3 0 17 2;
#X connect 6 0 0 1;
#X connect 6 0 1 1;
#X connect 6 0 2 1;
#X connect 6 0 17 1;
#X connect 6 0 18 1;
#X connect 7 0 19 0;
#X connect 10 0 0 0;
#X connect 11 0 1 0;
#X connect 12 0 11 0;
#X connect 12 0 10 0;
#X connect 12 0 14 0;
#X connect 12 0 15 0;
#X connect 12 0 16 0;
#X connect 13 0 12 0;
#X connect 14 0 2 0;
#X connect 15 0 18 0;
#X connect 16 0 17 0;
#X connect 17 0 9 0;
#X connect 18 0 9 0;
#X connect 19 0 12 0;
#X restore -170 382 pd spt-osc1;
#N canvas 167 179 695 417 spt-osc1 0;
#N canvas 156 355 492 405 sawtooth1 0;
#X obj 71 333 outlet~;
#X obj 18 30 inlet;
#X obj 34 69 mtof;
#X obj 59 159 phasor~;
#X obj 70 292 -~ 0.5;
#X obj 227 28 inlet~;
#X obj 93 190 samphold~;
#X obj 72 242 -~;
#X obj 70 268 wrap~;
#X text 62 30 <-pitch;
#X text 279 27 <-sync;
#X obj -83 79 switch~;
#X obj -86 29 inlet;
#X text -46 29 <-on/off;
#X obj 71 312 *~ 2;
#X connect 1 0 2 0;
#X connect 2 0 3 0;
#X connect 3 0 6 0;
#X connect 3 0 7 0;
#X connect 4 0 14 0;
#X connect 5 0 6 1;
#X connect 6 0 7 1;
#X connect 7 0 8 0;
#X connect 8 0 4 0;
#X connect 12 0 11 0;
#X connect 14 0 0 0;
#X restore 54 171 pd sawtooth1;
#N canvas 156 356 623 456 pulse1 0;
#X obj 90 407 outlet~;
#X obj 18 30 inlet;
#X obj 34 69 mtof;
#X obj 59 159 phasor~;
#X obj 227 28 inlet~;
#X obj 93 190 samphold~;
#X obj 72 242 -~;
#X obj 71 262 wrap~;
#X text 62 30 <-pitch;
#X text 279 27 <-sync;
#X obj -86 68 switch~;
#X obj -86 29 inlet;
#X text -46 29 <-on/off;
#X obj 71 286 cos~;
#X obj 84 318 *~ 10000;
#X obj 83 339 +~ 9500;
#X obj 85 368 clip~ -1 1;
#X connect 1 0 2 0;
#X connect 2 0 3 0;
#X connect 3 0 5 0;
#X connect 3 0 6 0;
#X connect 4 0 5 1;
#X connect 5 0 6 1;
#X connect 6 0 7 0;
#X connect 7 0 13 0;
#X connect 11 0 10 0;
#X connect 13 0 14 0;
#X connect 14 0 15 0;
#X connect 15 0 16 0;
#X connect 16 0 0 0;
#X restore 159 172 pd pulse1;
#N canvas 156 355 492 405 triangle1 0;
#X obj 73 460 outlet~;
#X obj 18 30 inlet;
#X obj 34 69 mtof;
#X obj 59 159 phasor~;
#X obj 227 28 inlet~;
#X obj 93 190 samphold~;
#X obj 72 242 -~;
#X obj 70 268 wrap~;
#X text 62 30 <-pitch;
#X text 279 27 <-sync;
#X obj 95 304 *~ -1;
#X obj 96 327 +~ 1;
#X obj 67 362 min~;
#X obj -83 79 switch~;
#X obj -86 29 inlet;
#X text -46 29 <-on/off;
#X obj 71 392 *~ 4;
#X obj 75 424 -~ 1;
#X connect 1 0 2 0;
#X connect 2 0 3 0;
#X connect 3 0 5 0;
#X connect 3 0 6 0;
#X connect 4 0 5 1;
#X connect 5 0 6 1;
#X connect 6 0 7 0;
#X connect 7 0 10 0;
#X connect 7 0 12 0;
#X connect 10 0 11 0;
#X connect 11 0 12 1;
#X connect 12 0 16 0;
#X connect 14 0 13 0;
#X connect 16 0 17 0;
#X connect 17 0 0 0;
#X restore 425 172 pd triangle1;
#X obj 273 28 inlet~;
#X text 130 21 <-pitch;
#X text 320 27 <-sync;
#X obj 89 21 inlet;
#X obj 479 22 inlet;
#X text 522 22 <-type 0 \, 1 \, 2;
#X obj 154 279 outlet~;
#X obj 20 138 == 0;
#X obj 124 137 == 1;
#X obj 347 95 int 0;
#X obj 483 46 loadbang;
#X obj 425 145 == 4;
#X obj 319 140 == 3;
#X obj 245 137 == 2;
#N canvas 156 356 623 456 pulse2 0;
#X obj 71 405 outlet~;
#X obj 18 30 inlet;
#X obj 34 69 mtof;
#X obj 59 159 phasor~;
#X obj 227 28 inlet~;
#X obj 93 190 samphold~;
#X obj 72 242 -~;
#X obj 70 268 wrap~;
#X text 62 30 <-pitch;
#X text 279 27 <-sync;
#X obj -86 68 switch~;
#X obj -86 29 inlet;
#X text -46 29 <-on/off;
#X obj 70 290 cos~;
#X obj 83 322 *~ 10000;
#X obj 84 372 clip~ -1 1;
#X obj 82 343 +~ 8500;
#X connect 1 0 2 0;
#X connect 2 0 3 0;
#X connect 3 0 5 0;
#X connect 3 0 6 0;
#X connect 4 0 5 1;
#X connect 5 0 6 1;
#X connect 6 0 7 0;
#X connect 7 0 13 0;
#X connect 11 0 10 0;
#X connect 13 0 14 0;
#X connect 14 0 16 0;
#X connect 15 0 0 0;
#X connect 16 0 15 0;
#X restore 252 173 pd pulse2;
#N canvas 156 356 623 456 square 0;
#X obj 30 422 outlet~;
#X obj 18 30 inlet;
#X obj 34 69 mtof;
#X obj 59 159 phasor~;
#X obj 227 28 inlet~;
#X obj 93 190 samphold~;
#X obj 72 242 -~;
#X obj 70 268 wrap~;
#X text 62 30 <-pitch;
#X text 279 27 <-sync;
#X obj -86 68 switch~;
#X obj -86 29 inlet;
#X text -46 29 <-on/off;
#X obj 69 297 cos~;
#X obj 73 323 *~ 10000;
#X obj 68 358 clip~ -1 1;
#X connect 1 0 2 0;
#X connect 2 0 3 0;
#X connect 3 0 5 0;
#X connect 3 0 6 0;
#X connect 4 0 5 1;
#X connect 5 0 6 1;
#X connect 6 0 7 0;
#X connect 7 0 13 0;
#X connect 11 0 10 0;
#X connect 13 0 14 0;
#X connect 14 0 15 0;
#X connect 15 0 0 0;
#X restore 342 172 pd square;
#X obj 385 51 clip 0 4;
#X connect 0 0 9 0;
#X connect 1 0 9 0;
#X connect 2 0 9 0;
#X connect 3 0 0 2;
#X connect 3 0 1 2;
#X connect 3 0 2 2;
#X connect 3 0 18 2;
#X connect 3 0 17 2;
#X connect 6 0 0 1;
#X connect 6 0 1 1;
#X connect 6 0 2 1;
#X connect 6 0 17 1;
#X connect 6 0 18 1;
#X connect 7 0 19 0;
#X connect 10 0 0 0;
#X connect 11 0 1 0;
#X connect 12 0 11 0;
#X connect 12 0 10 0;
#X connect 12 0 14 0;
#X connect 12 0 15 0;
#X connect 12 0 16 0;
#X connect 13 0 12 0;
#X connect 14 0 2 0;
#X connect 15 0 18 0;
#X connect 16 0 17 0;
#X connect 17 0 9 0;
#X connect 18 0 9 0;
#X connect 19 0 12 0;
#X restore -171 441 pd spt-osc1;
#N canvas 497 136 1076 837 fexprlopass4 0;
#X obj -43 392 inlet~;
#X obj -4 634 outlet~;
#X obj 73 85 inlet~;
#X obj 345 55 inlet;
#X obj -1 581 fexpr~ $x2[0]*$x1[0] + $x3[0]*$x1[-1] + $x4[0]*$x1[-2]
- $x5[0]*$y1[-1] - $x6[0]*$y1[-2];
#X obj 87 200 sig~ 1;
#X obj 121 249 /~;
#X obj 245 49 samplerate~;
#X text 13 559 biquad \, a1 \, 2 \, 3 b1 \, 2 = x2[0] \, x3[0] \, x4[0]
\, x5[0] \, x6[0];
#X obj 296 199 * 1.41421;
#X obj 110 376 sig~ 1;
#X obj 147 408 /~;
#X obj 214 340 +~;
#X obj 187 310 sig~ 1;
#X obj 251 318 *~;
#X obj 181 375 +~;
#X obj 112 295 *~;
#X obj 145 507 *~ 2;
#X text 125 505 a2;
#X text 41 356 a1/a3;
#X obj 222 407 sig~ 1;
#X obj 296 433 -~;
#X obj 299 457 *~ 2;
#X obj 297 518 *~;
#X obj 409 334 *~;
#X text 276 435 b1;
#X text 384 379 b2;
#X obj 361 397 sig~ 1;
#X obj 392 429 -~;
#X obj 377 512 *~;
#X text 99 246 c;
#X obj 397 462 +~;
#X obj 147 222 expr~ tan($v1);
#X obj 151 194 /~ 44100;
#X obj 129 153 *~ 3.14159;
#X obj 333 138 -;
#X msg 332 107 1;
#X obj 345 86 t b f;
#X text 400 56 resonance 0..1;
#X text 124 86 cutoff (hz);
#X text 560 187 a2= 2*a1 \, a3=a1;
#X text 559 119 cookbook-like 4 pole lp;
#X text 560 151 c= 1/tan(pi*cutf/samplerate);
#X text 562 169 a1= 1/(1+res*c+c*c);
#X text 561 205 b1= 2*(1-c*c)*a1;
#X text 561 221 b2= (1-res*c+c*c)*a1;
#X connect 0 0 4 0;
#X connect 2 0 34 0;
#X connect 3 0 37 0;
#X connect 4 0 1 0;
#X connect 5 0 6 0;
#X connect 6 0 14 0;
#X connect 6 0 16 0;
#X connect 6 0 16 1;
#X connect 6 0 24 0;
#X connect 7 0 33 1;
#X connect 9 0 14 1;
#X connect 9 0 24 1;
#X connect 10 0 11 0;
#X connect 11 0 4 1;
#X connect 11 0 17 0;
#X connect 11 0 4 3;
#X connect 11 0 23 1;
#X connect 11 0 29 0;
#X connect 12 0 15 1;
#X connect 13 0 12 0;
#X connect 14 0 12 1;
#X connect 15 0 11 1;
#X connect 16 0 15 0;
#X connect 16 0 21 1;
#X connect 16 0 31 1;
#X connect 17 0 4 2;
#X connect 20 0 21 0;
#X connect 21 0 22 0;
#X connect 22 0 23 0;
#X connect 23 0 4 4;
#X connect 24 0 28 1;
#X connect 27 0 28 0;
#X connect 28 0 31 0;
#X connect 29 0 4 5;
#X connect 31 0 29 1;
#X connect 32 0 6 1;
#X connect 33 0 32 0;
#X connect 34 0 33 0;
#X connect 35 0 9 0;
#X connect 36 0 35 0;
#X connect 37 0 36 0;
#X connect 37 1 35 1;
#X restore -122 673 pd fexprlopass4;
#X obj -86 635 clip 1 20000;
#X connect 0 0 16 0;
#X connect 0 1 10 0;
#X connect 0 1 71 1;
#X connect 0 1 72 1;
#X connect 1 0 8 0;
#X connect 2 0 1 0;
#X connect 3 0 30 0;
#X connect 3 0 70 0;
#X connect 4 0 5 0;
#X connect 5 0 6 1;
#X connect 6 0 55 0;
#X connect 6 0 54 0;
#X connect 7 0 17 0;
#X connect 7 0 17 1;
#X connect 9 0 13 0;
#X connect 10 0 1 0;
#X connect 10 1 29 0;
#X connect 11 0 74 0;
#X connect 12 0 22 0;
#X connect 13 0 11 0;
#X connect 15 0 12 1;
#X connect 16 0 14 0;
#X connect 17 0 9 0;
#X connect 18 0 6 0;
#X connect 20 0 69 0;
#X connect 23 0 9 1;
#X connect 24 0 23 1;
#X connect 25 0 23 0;
#X connect 25 1 24 0;
#X connect 26 0 28 1;
#X connect 26 0 28 0;
#X connect 27 0 2 0;
#X connect 27 0 70 2;
#X connect 28 0 27 0;
#X connect 29 0 8 0;
#X connect 29 0 14 0;
#X connect 30 0 0 0;
#X connect 30 1 31 0;
#X connect 31 0 29 0;
#X connect 32 0 13 1;
#X connect 33 0 32 0;
#X connect 33 1 32 1;
#X connect 34 0 23 0;
#X connect 35 0 34 0;
#X connect 35 1 34 1;
#X connect 36 0 71 2;
#X connect 36 0 72 2;
#X connect 38 0 39 0;
#X connect 39 0 73 0;
#X connect 40 0 4 0;
#X connect 42 0 33 0;
#X connect 43 0 73 2;
#X connect 45 0 35 0;
#X connect 47 0 26 1;
#X connect 47 0 26 0;
#X connect 49 0 25 0;
#X connect 52 0 55 1;
#X connect 52 0 56 0;
#X connect 54 0 72 0;
#X connect 55 0 71 0;
#X connect 56 0 54 1;
#X connect 57 0 63 1;
#X connect 57 0 63 0;
#X connect 59 0 70 3;
#X connect 61 0 66 1;
#X connect 61 0 66 0;
#X connect 63 0 65 1;
#X connect 63 0 65 0;
#X connect 64 0 70 1;
#X connect 65 0 64 0;
#X connect 66 0 68 1;
#X connect 66 0 68 0;
#X connect 67 0 70 4;
#X connect 68 0 67 0;
#X connect 69 0 3 0;
#X connect 70 0 15 0;
#X connect 70 0 7 1;
#X connect 70 0 7 0;
#X connect 71 0 38 1;
#X connect 72 0 38 0;
#X connect 73 0 12 0;
#X connect 74 0 73 1;
#X coords 0 0 1 1 120 100 0;
#X restore -129 616 pd one_doubleosc1_voice;
#X obj -130 654 *~ 0.3;
#X obj -129 681 outlet~;
#X obj 164 118 vsl 15 81 0 120 0 1 empty empty cf 2 4 0 8 -262144 -1
-1 2258 1;
#X obj 200 118 vsl 15 81 0 120 0 1 empty empty ev 2 4 0 8 -262144 -1
-1 6812 1;
#X obj 157 237 +;
#X obj 163 211 t b f;
#X obj 308 287 +, f 4;
#X obj 247 250 t b f;
#X obj -21 195 unpack 0 0;
#X obj -7 18 inlet;
#X obj 102 25 inlet;
#X obj 100 62 route cutoff res env attack decay sustain release style
detune ep transpose;
#X obj -22 229 - 24;
#X msg -172 54 0;
#X obj -156 18 loadbang;
#X obj 553 284;
#X obj -5 107 poly 1 1;
#X obj 19 153 pack 0 0;
#X connect 0 0 1 0;
#X connect 1 0 12 0;
#X connect 3 0 15 12;
#X connect 4 0 15 4;
#X connect 5 0 15 3;
#X connect 6 0 15 6;
#X connect 7 0 15 8;
#X connect 8 0 15 2;
#X connect 9 0 15 10;
#X connect 10 0 15 9;
#X connect 11 0 15 11;
#X connect 12 0 14 0;
#X connect 12 1 13 1;
#X connect 13 0 15 0;
#X connect 14 0 13 0;
#X connect 15 0 16 0;
#X connect 16 0 17 0;
#X connect 18 0 21 0;
#X connect 19 0 23 0;
#X connect 20 0 15 5;
#X connect 21 0 20 0;
#X connect 21 1 20 1;
#X connect 22 0 15 7;
#X connect 23 0 22 0;
#X connect 23 1 22 1;
#X connect 24 0 28 0;
#X connect 24 1 15 1;
#X connect 25 0 32 0;
#X connect 26 0 27 0;
#X connect 27 0 18 0;
#X connect 27 1 6 0;
#X connect 27 2 19 0;
#X connect 27 3 10 0;
#X connect 27 4 9 0;
#X connect 27 5 11 0;
#X connect 27 6 3 0;
#X connect 27 7 4 0;
#X connect 27 8 8 0;
#X connect 27 9 7 0;
#X connect 27 10 5 0;
#X connect 28 0 14 0;
#X connect 29 0 0 0;
#X connect 30 0 29 0;
#X connect 32 1 33 0;
#X connect 32 2 33 1;
#X connect 33 0 24 0;
#X coords 0 -1 1 1 190 105 1 100 100;
#X restore 174 436 pd midipolydoubleosc1v;
#X obj 342 597 outlet~ outR-\$1;
#X obj 451 310 r notesIn-\$1;
#X obj 451 615 s notesOut-\$1;
#X obj 775 129 r loadbang-\$1;
#X obj 172 310 inlet~ inL-\$1;
#X obj 282 310 inlet~ inR-\$1;
#X obj 174 615 outlet~ outL-\$1;
#X obj 646 310 r auxIn-\$1;
#X obj 645 333 r expIn-\$1;
#X obj 645 358 r fsIn-\$1;
#X obj 663 169 int 0;
#X obj 663 200 s aux-led-\$1;
#X obj 545 310 r ctrlIn-\$1;
#X obj 545 615 s ctrlOut-\$1;
#X obj 908 213 sel \$1;
#X obj 902 627 s oscOut;
#X obj 946 185 unpack s s;
#X obj 946 164 r activePage;
#X obj 958 276 &&;
#X msg 1009 243 1;
#X msg 1052 243 0;
#X obj 958 308 sel 1 0;
#X msg 891 243 1;
#X msg 934 243 0;
#X obj 1009 213 sel pg_main;
#X text 1015 308 page and module is active;
#X obj 993 357 del 500;
#X obj 636 425 r cutoff-\$1;
#X msg 636 452 cutoff \$1;
#X obj 715 423 r res-\$1;
#X msg 715 450 res \$1;
#X obj 780 424 r env-\$1;
#X msg 780 451 env \$1;
#X obj 631 497 r attack-\$1;
#X msg 632 524 attack \$1;
#X obj 711 495 r decay-\$1;
#X msg 711 522 decay \$1;
#X obj 789 494 r sustain-\$1;
#X msg 790 521 sustain \$1;
#X obj 880 494 r release-\$1;
#X msg 881 521 release \$1;
#X obj 845 424 r style-\$1;
#X msg 845 451 style \$1;
#X obj 703 552 r detune-\$1;
#X msg 705 579 detune \$1;
#X obj 877 554 r transpose-\$1;
#X msg 877 580 transpose \$1;
#X obj 786 554 r ep-\$1;
#X msg 788 581 ep \$1;
#X connect 0 0 1 0;
#X connect 0 0 7 0;
#X connect 2 0 3 0;
#X connect 2 0 0 0;
#X connect 4 0 11 0;
#X connect 11 0 12 0;
#X connect 13 0 14 0;
#X connect 15 0 23 0;
#X connect 15 1 24 0;
#X connect 17 0 15 0;
#X connect 17 1 25 0;
#X connect 18 0 17 0;
#X connect 19 0 22 0;
#X connect 20 0 19 1;
#X connect 21 0 19 1;
#X connect 22 0 27 0;
#X connect 23 0 19 0;
#X connect 24 0 19 0;
#X connect 25 0 20 0;
#X connect 25 1 21 0;
#X connect 28 0 29 0;
#X connect 29 0 0 1;
#X connect 30 0 31 0;
#X connect 31 0 0 1;
#X connect 32 0 33 0;
#X connect 33 0 0 1;
#X connect 34 0 35 0;
#X connect 35 0 0 1;
#X connect 36 0 37 0;
#X connect 37 0 0 1;
#X connect 38 0 39 0;
#X connect 39 0 0 1;
#X connect 40 0 41 0;
#X connect 41 0 0 1;
#X connect 42 0 43 0;
#X connect 43 0 0 1;
#X connect 44 0 45 0;
#X connect 45 0 0 1;
#X connect 46 0 47 0;
#X connect 47 0 0 1;
#X connect 48 0 49 0;
#X connect 49 0 0 1;
