#N canvas 295 155 876 577 10;
#X obj 85 21 r aux;
#X obj 85 87 i 0;
#X obj 155 76 + 1;
#X obj 85 54 sel 1;
#X obj 122 24 r fs;
#X obj 29 21 loadbang;
#X obj 85 123 % 3;
#X obj 110 149 s selectScreen;
#X obj 13 149 s selectKnob;
#X obj 32 331 demux 0 1 2;
#X obj 164 331 demux 0 1 2;
#X obj 290 331 demux 0 1 2;
#X obj 403 331 demux 0 1 2;
#X obj 32 298 r knob1;
#X obj 164 298 r knob2;
#X obj 290 298 r knob3;
#X obj 403 298 r knob4;
#X obj 229 224 r selectKnob;
#X obj 490 57 sel 0 1 2;
#X obj 490 24 r selectScreen;
#X obj 451 51 s led;
#X msg 567 103 \; screenLine1 1: 1st Screen Message \; screenLine2
2: 1st Screen Message \; screenLine3 3: 1st Screen Message \; screenLine4
4: 1st Screen Message \; screenLine5 Aux: Next \;;
#X msg 567 189 \; screenLine1 1: 2nd Screen Message \; screenLine2
2: 2nd Screen Message \; screenLine3 3: 2nd Screen Message \; screenLine4
4: 2nd Screen Message \; screenLine5 Aux: Next \;;
#X msg 567 275 \; screenLine1 1: 3rd Screen Message \; screenLine2
2: 3rd Screen Message \; screenLine3 3: 3rd Screen Message \; screenLine4
4: 3rd Screen Message \; screenLine5 Aux: Next \;;
#X obj 62 366 s knob1Page1;
#X obj 63 387 s knob1Page2;
#X obj 64 408 s knob1Page3;
#X obj 192 361 s knob2Page1;
#X obj 193 384 s knob2Page2;
#X obj 193 406 s knob2Page3;
#X obj 320 364 s knob3Page1;
#X obj 321 384 s knob3Page2;
#X obj 322 406 s knob3Page3;
#X obj 432 361 s knob4Page1;
#X obj 434 384 s knob4Page2;
#X obj 435 406 s knob4Page3;
#X obj 29 54 + 1;
#X connect 0 0 3 0;
#X connect 1 0 2 0;
#X connect 1 0 6 0;
#X connect 2 0 1 1;
#X connect 3 0 1 0;
#X connect 4 0 3 0;
#X connect 5 0 36 0;
#X connect 6 0 8 0;
#X connect 6 0 7 0;
#X connect 9 0 24 0;
#X connect 9 1 25 0;
#X connect 9 2 26 0;
#X connect 10 0 27 0;
#X connect 10 1 28 0;
#X connect 10 2 29 0;
#X connect 11 0 30 0;
#X connect 11 1 31 0;
#X connect 11 2 32 0;
#X connect 12 0 33 0;
#X connect 12 1 34 0;
#X connect 12 2 35 0;
#X connect 13 0 9 0;
#X connect 14 0 10 0;
#X connect 15 0 11 0;
#X connect 16 0 12 0;
#X connect 17 0 9 1;
#X connect 17 0 10 1;
#X connect 17 0 11 1;
#X connect 17 0 12 1;
#X connect 18 0 21 0;
#X connect 18 1 22 0;
#X connect 18 2 23 0;
#X connect 19 0 18 0;
#X connect 19 0 20 0;
#X connect 36 0 3 0;
