#N canvas 0 25 1366 725 10;
#X obj 165 435 lop~ 2000;
#X obj 246 163 nbx 5 14 -1e+37 1e+37 0 0 empty empty empty 0 -8 0 10
-262144 -1 -1 0 256;
#X obj 207 323 *~ 0.9;
#X obj 43 7 hsl 128 15 0 1 0 0 empty empty empty -2 -8 0 10 -262144
-1 -1 0 1;
#X obj 91 84 nbx 5 14 -1e+37 1e+37 0 0 empty empty empty 0 -8 0 10
-262144 -1 -1 0 256;
#X obj 159 467 hip~ 100;
#X obj 572 566 outlet~;
#X obj 561 29 inlet~;
#X obj 626 29 inlet~;
#X obj 648 563 outlet~;
#X obj 111 31 r feedback-\$1;
#X obj 319 44 r lopass-\$1;
#X obj 590 458 r volume-\$1;
#X obj 573 522 *~ 1;
#X obj 599 489 / 100;
#X obj 96 55 / 100;
#X obj 213 296 vd~ \$0-delay_l;
#X obj 651 528 *~ 1;
#X obj 328 447 lop~ 2000;
#X obj 415 347 *~ 0.9;
#X obj 321 487 hip~ 100;
#X obj 444 281 vd~ \$0-delay_r;
#X obj 271 412 mix4x2, f 11;
#X msg 682 188 1 0 1 0 0 1 0 1;
#X obj 754 102 r mode-\$1;
#X obj 758 128 sel 0 1 2 3;
#X msg 713 262 1 0 0 1 0 1 1 0;
#X msg 687 214 0.5 0.5 0 1 0 0 1 0;
#X msg 696 236 0 0 0 1 0.5 0.5 1 0;
#X msg 826 195 stereo;
#X msg 841 215 ppong mono L;
#X msg 852 238 ppong mono R;
#X msg 869 263 ppong stereo;
#X obj 915 353 s aux-label-\$1;
#X obj 332 152 nbx 5 14 -1e+37 1e+37 0 0 empty empty empty 0 -8 0 10
-262144 -1 -1 0 256;
#X obj 334 71 r hipass-\$1;
#X obj 227 220 r len_l-\$1, f 14;
#X obj 498 188 r len_r-\$1, f 14;
#X obj 495 253 vline~;
#X msg 506 218 \$1 \$1;
#X obj 684 55 r len-\$1;
#X obj 210 265 vline~;
#X msg 203 240 \$1 \$1;
#X obj 286 605 delwrite~ \$0-delay_r 12000;
#X obj 67 591 delwrite~ \$0-delay_l 12000;
#X obj 432 512 r auxIn-\$1;
#X obj 432 532 sel 1;
#X msg 427 557 clear;
#X connect 0 0 5 0;
#X connect 1 0 0 1;
#X connect 1 0 18 1;
#X connect 2 0 22 2;
#X connect 3 0 4 0;
#X connect 4 0 2 1;
#X connect 4 0 19 1;
#X connect 5 0 44 0;
#X connect 7 0 22 0;
#X connect 8 0 22 1;
#X connect 10 0 15 0;
#X connect 11 0 1 0;
#X connect 12 0 14 0;
#X connect 13 0 6 0;
#X connect 14 0 13 1;
#X connect 14 0 17 1;
#X connect 15 0 4 0;
#X connect 16 0 2 0;
#X connect 16 0 13 0;
#X connect 17 0 9 0;
#X connect 18 0 20 0;
#X connect 19 0 22 3;
#X connect 20 0 43 0;
#X connect 21 0 19 0;
#X connect 21 0 17 0;
#X connect 22 0 0 0;
#X connect 22 1 18 0;
#X connect 23 0 22 4;
#X connect 24 0 25 0;
#X connect 25 0 23 0;
#X connect 25 0 29 0;
#X connect 25 1 27 0;
#X connect 25 1 30 0;
#X connect 25 2 28 0;
#X connect 25 2 31 0;
#X connect 25 3 26 0;
#X connect 25 3 32 0;
#X connect 26 0 22 4;
#X connect 27 0 22 4;
#X connect 28 0 22 4;
#X connect 29 0 33 0;
#X connect 30 0 33 0;
#X connect 31 0 33 0;
#X connect 32 0 33 0;
#X connect 34 0 20 1;
#X connect 34 0 5 1;
#X connect 35 0 34 0;
#X connect 36 0 42 0;
#X connect 37 0 39 0;
#X connect 38 0 21 0;
#X connect 39 0 38 0;
#X connect 41 0 16 0;
#X connect 42 0 41 0;
#X connect 45 0 46 0;
#X connect 46 0 47 0;
#X connect 47 0 43 0;
#X connect 47 0 44 0;
