#N canvas 11 50 493 643 10;
#X obj 87 75 t b b;
#X obj 116 178 + 1;
#X obj 116 160 f 0;
#X obj 89 142 t a b;
#X msg 417 103 0;
#X obj 116 196 nbx 5 14 -1e+37 1e+37 0 0 empty empty empty 0 -8 0 10
-262144 -1 -1 40 256;
#X obj 89 285 list append;
#X obj 89 303 list;
#X obj 68 321 list;
#X obj 13 240 * 1;
#X obj 13 212 inlet;
#X obj 13 258 int;
#X obj 13 276 change;
#X obj 13 294 t b f;
#X obj 102 447 list split 1;
#X obj 68 429 list split 0;
#X msg 102 475 \$1;
#X obj 102 493 outlet;
#X obj 154 475 s2l /;
#X obj 181 511 list length;
#X obj 154 493 t a a;
#X obj 181 529 - 1;
#X obj 154 557 list split;
#X msg 182 575 \$1;
#X obj 182 593 outlet;
#X obj 89 124 folder_list;
#X obj 191 47 r soundshare_refresh;
#X obj 116 212 - 0.05;
#X obj 87 47 inlet;
#N canvas 798 192 882 376 source 0;
#X obj 12 10 inlet;
#X obj 12 234 spigot;
#X obj 45 217 tgl 15 0 empty empty empty 17 7 0 10 -262144 -1 -1 0
1;
#X obj 518 347 outlet;
#X msg 45 179 1;
#X msg 72 179 0;
#X obj 248 234 spigot;
#X obj 282 217 tgl 15 0 empty empty empty 17 7 0 10 -262144 -1 -1 0
1;
#X msg 282 189 1;
#X msg 309 189 0;
#X msg 248 298 symbol /sdcard/media/samples/kit-\$1/*.wav;
#X obj 282 46 inlet;
#X floatatom 248 217 5 0 0 0 - - -;
#X obj 518 234 spigot;
#X obj 551 217 tgl 15 0 empty empty empty 17 7 0 10 -262144 -1 -1 1
1;
#X msg 551 189 1;
#X msg 578 189 0;
#X msg 518 298 symbol /sdcard/media/captures/*.wav;
#X obj 282 111 sel 0 25;
#X msg 12 298 symbol /sdcard/media/samples/*.wav;
#X msg 17 252 /media/samples;
#X obj 253 280 s screenLine5;
#X msg 253 252 /media/samples/kit-\$1;
#X msg 523 252 /media/captures;
#X obj 12 28 t b b b;
#X connect 0 0 24 0;
#X connect 1 0 19 0;
#X connect 1 0 20 0;
#X connect 2 0 1 1;
#X connect 4 0 2 0;
#X connect 5 0 2 0;
#X connect 6 0 10 0;
#X connect 6 0 22 0;
#X connect 7 0 6 1;
#X connect 8 0 7 0;
#X connect 9 0 7 0;
#X connect 10 0 3 0;
#X connect 11 0 18 0;
#X connect 12 0 6 0;
#X connect 13 0 17 0;
#X connect 13 0 23 0;
#X connect 14 0 13 1;
#X connect 15 0 14 0;
#X connect 16 0 14 0;
#X connect 17 0 3 0;
#X connect 18 0 4 0;
#X connect 18 0 9 0;
#X connect 18 0 16 0;
#X connect 18 1 15 0;
#X connect 18 1 9 0;
#X connect 18 1 5 0;
#X connect 18 2 8 0;
#X connect 18 2 5 0;
#X connect 18 2 16 0;
#X connect 18 2 12 0;
#X connect 19 0 3 0;
#X connect 20 0 21 0;
#X connect 22 0 21 0;
#X connect 23 0 21 0;
#X connect 24 0 13 0;
#X connect 24 1 12 0;
#X connect 24 2 1 0;
#X restore 140 100 pd source;
#X obj 191 72 inlet;
#X connect 0 0 29 0;
#X connect 0 1 4 0;
#X connect 1 0 2 1;
#X connect 1 0 5 0;
#X connect 2 0 1 0;
#X connect 3 0 6 0;
#X connect 3 1 2 0;
#X connect 4 0 2 1;
#X connect 5 0 27 0;
#X connect 6 0 7 0;
#X connect 7 0 6 1;
#X connect 7 0 8 1;
#X connect 8 0 15 0;
#X connect 9 0 11 0;
#X connect 10 0 9 0;
#X connect 11 0 12 0;
#X connect 12 0 13 0;
#X connect 13 0 8 0;
#X connect 13 1 15 1;
#X connect 14 0 16 0;
#X connect 14 0 18 0;
#X connect 15 1 14 0;
#X connect 16 0 17 0;
#X connect 18 0 20 0;
#X connect 19 0 21 0;
#X connect 20 0 22 0;
#X connect 20 1 19 0;
#X connect 21 0 22 1;
#X connect 22 1 23 0;
#X connect 23 0 24 0;
#X connect 25 0 3 0;
#X connect 26 0 0 0;
#X connect 27 0 9 1;
#X connect 28 0 0 0;
#X connect 29 0 25 0;
#X connect 30 0 29 1;
