#N canvas 89 67 1351 716 10;
#X obj 64 94 pack 0 0 0, f 11;
#X obj 48 111 route 1 2 3 4 5 6 7 8, f 81;
#X text 24 19 basic polyphonic patch with 8 voices;
#X text 299 98 aircraft carrier;
#X obj 137 41 inlet;
#X obj 235 546 outlet~;
#X obj 44 359 voice \$1;
#X obj 850 346 r filt_cutoff-\$1;
#X obj 854 399 lop~ 5;
#X obj 865 433 s~ filt_cuttoff_sig-\$1;
#X obj 115 360 voice \$1;
#X obj 185 360 voice \$1;
#X obj 253 366 voice \$1;
#X obj 854 376 sig~ 12;
#X obj 392 441 r volume-\$1;
#X obj 403 485 * 0.005;
#X obj 270 411 lop~ 5;
#X obj 388 517 sig~ 0.35;
#X obj 245 501 *~;
#X obj 255 5 r ctrlIn-\$1;
#X obj 255 33 unpack 0 0 0;
#X obj 255 54 sel 123;
#X msg 253 77 stop;
#X obj 49 152 voice \$1;
#X obj 120 153 voice \$1;
#X obj 190 153 voice \$1;
#X obj 258 159 voice \$1;
#X obj 132 198 +~;
#X obj 246 190 r mod-\$1;
#X obj 195 20;
#X obj 280 212 * 0.2;
#X obj 290 255 lop~ 1;
#X obj 272 298 *~;
#X obj 71 72 poly 8, f 11;
#X obj 322 382 voice \$1;
#X obj 393 383 voice \$1;
#X obj 463 383 voice \$1;
#X obj 531 389 voice \$1;
#X obj 327 175 voice \$1;
#X obj 398 176 voice \$1;
#X obj 468 176 voice \$1;
#X obj 536 182 voice \$1;
#X obj 410 221 +~;
#X obj 568 208 r mod-\$1;
#X obj 573 269 * 0.2;
#X obj 500 254 lop~ 1;
#X obj 374 5 inlet~;
#X obj 789 205 * 0.2;
#X obj 755 259 lop~ 1;
#X obj 784 144 r extmod-\$1;
#X obj 715 249 *~;
#X obj 314 322 +~;
#X connect 0 0 1 0;
#X connect 1 0 23 0;
#X connect 1 0 6 0;
#X connect 1 1 10 0;
#X connect 1 1 24 0;
#X connect 1 2 11 0;
#X connect 1 2 25 0;
#X connect 1 2 26 0;
#X connect 1 3 12 0;
#X connect 1 4 38 0;
#X connect 1 4 34 0;
#X connect 1 5 39 0;
#X connect 1 5 35 0;
#X connect 1 6 40 0;
#X connect 1 6 36 0;
#X connect 1 7 41 0;
#X connect 1 7 37 0;
#X connect 4 0 33 0;
#X connect 6 0 18 0;
#X connect 7 0 13 0;
#X connect 8 0 9 0;
#X connect 10 0 18 0;
#X connect 11 0 18 0;
#X connect 12 0 18 0;
#X connect 13 0 8 0;
#X connect 14 0 15 0;
#X connect 15 0 17 0;
#X connect 16 0 18 1;
#X connect 17 0 16 0;
#X connect 18 0 5 0;
#X connect 19 0 20 0;
#X connect 20 0 21 0;
#X connect 21 0 22 0;
#X connect 22 0 33 0;
#X connect 23 0 27 0;
#X connect 24 0 27 0;
#X connect 25 0 27 0;
#X connect 26 0 27 0;
#X connect 27 0 32 0;
#X connect 28 0 30 0;
#X connect 30 0 31 0;
#X connect 31 0 32 1;
#X connect 32 0 51 0;
#X connect 33 0 0 0;
#X connect 33 1 0 1;
#X connect 33 2 0 2;
#X connect 34 0 18 0;
#X connect 35 0 18 0;
#X connect 36 0 18 0;
#X connect 37 0 18 0;
#X connect 38 0 42 0;
#X connect 39 0 42 0;
#X connect 40 0 42 0;
#X connect 41 0 42 0;
#X connect 42 0 32 0;
#X connect 43 0 44 0;
#X connect 44 0 45 0;
#X connect 46 0 50 0;
#X connect 47 0 48 0;
#X connect 48 0 50 1;
#X connect 49 0 47 0;
#X connect 50 0 51 1;
#X connect 51 0 34 1;
#X connect 51 0 35 1;
#X connect 51 0 36 1;
#X connect 51 0 37 1;
#X connect 51 0 12 1;
#X connect 51 0 11 1;
#X connect 51 0 10 1;
#X connect 51 0 6 1;
