#N canvas 81 67 1351 720 10;
#X text 451 49 note messages;
#X obj 405 65 inlet;
#X obj 536 609 outlet~;
#X text 25 10 synth voice with waveform change;
#X obj 428 86 unpack 0 0;
#X obj 438 195 / 2;
#X obj 750 138 osc~ 5;
#X obj 392 258 sig~;
#X obj 639 233 *~ 0.1;
#X obj 575 165 * 0.001;
#X obj 684 385 +~ 1;
#X obj 649 344 *~ 0.1;
#X obj 666 53 nbx 5 14 -1e+37 1e+37 0 0 empty empty empty 0 -8 0 10
-262144 -1 -1 2.83784 256;
#X obj 764 382 *~;
#X obj 942 297 * -1;
#X obj 941 322 + 1;
#X obj 433 114 + 0;
#X obj 608 27 r vibrato_depth-\$1;
#X obj 750 95 r mod_speed-\$1;
#X obj 790 163 r tremolo_depth-\$1;
#X obj 881 240 r envfilt-\$1;
#X obj 659 131 / 1000;
#X obj 498 108 r transpose-\$1;
#X obj 822 351 +~ 1;
#X obj 805 325 *~ 0;
#X obj 63 69 r envpitch-\$1;
#X obj 179 56 r sustain-f-\$1;
#X text 38 303 Pitch = input*((1- depth*sustain+depth*env_val));
#X obj 543 300 *~ 0;
#X obj 188 91 t b f;
#X obj 74 178 - 1;
#X obj 60 205 * -1;
#X obj 61 228 sig~ 1;
#X obj 486 369 *~;
#X obj 87 150 * 1;
#X obj 100 117 f 0;
#X obj 567 531 env/env_parabolic \$1;
#X obj 785 220 env/env_parabolic f-\$1;
#X obj 839 458 r~ filt_cuttoff_sig-\$1;
#X obj 770 453 *~;
#X obj 966 154 r fmod_depth-\$1;
#X obj 1074 360 sig~ 1;
#X obj 990 256 *~ 0;
#X obj 836 407 *~;
#X obj 493 407 *~ 1;
#X obj 527 79 sel 0;
#X obj 434 168 mtof;
#X obj 1100 235 + 0;
#X obj 292 91 r tune-\$1;
#X obj 285 116 / 100;
#X obj 443 140 + 0;
#X obj 456 468 psosc;
#X obj 523 561 *~;
#X obj 800 40 inlet~;
#X obj 369 328 vline~;
#X msg 339 259 \$1 10;
#X connect 1 0 4 0;
#X connect 4 0 16 0;
#X connect 4 1 37 0;
#X connect 4 1 45 0;
#X connect 4 1 36 0;
#X connect 5 0 7 0;
#X connect 5 0 13 1;
#X connect 5 0 55 0;
#X connect 6 0 8 0;
#X connect 6 0 11 0;
#X connect 6 0 42 0;
#X connect 8 0 44 0;
#X connect 9 0 8 1;
#X connect 11 0 10 0;
#X connect 13 0 43 0;
#X connect 14 0 15 0;
#X connect 15 0 23 1;
#X connect 16 0 50 0;
#X connect 17 0 12 0;
#X connect 17 0 21 0;
#X connect 18 0 6 0;
#X connect 19 0 11 1;
#X connect 20 0 14 0;
#X connect 20 0 24 1;
#X connect 21 0 9 1;
#X connect 22 0 16 1;
#X connect 23 0 13 0;
#X connect 24 0 23 0;
#X connect 25 0 28 1;
#X connect 25 0 35 0;
#X connect 26 0 29 0;
#X connect 28 0 33 1;
#X connect 29 0 35 0;
#X connect 29 1 34 1;
#X connect 30 0 31 0;
#X connect 31 0 32 0;
#X connect 32 0 33 1;
#X connect 33 0 44 0;
#X connect 34 0 30 0;
#X connect 35 0 34 0;
#X connect 36 0 52 1;
#X connect 37 0 24 0;
#X connect 37 0 28 0;
#X connect 38 0 39 1;
#X connect 40 0 42 1;
#X connect 41 0 43 1;
#X connect 42 0 43 1;
#X connect 43 0 39 0;
#X connect 44 0 51 0;
#X connect 46 0 5 0;
#X connect 46 0 9 0;
#X connect 48 0 49 0;
#X connect 49 0 50 1;
#X connect 50 0 46 0;
#X connect 51 0 52 0;
#X connect 52 0 2 0;
#X connect 53 0 51 1;
#X connect 54 0 33 0;
#X connect 55 0 54 0;
