#N canvas 0 25 1440 716 10;
#X obj 304 186 r notesIn-\$1;
#X obj 304 491 s notesOut-\$1;
#X obj 25 186 inlet~ inL-\$1;
#X obj 135 186 inlet~ inR-\$1;
#X obj 27 491 outlet~ outL-\$1;
#X obj 136 491 outlet~ outR-\$1;
#X obj 429 195 r auxIn-\$1;
#X obj 423 208 r expIn-\$1;
#X obj 423 233 r fsIn-\$1;
#X obj 501 295 r bpm;
#X obj 422 135 swap;
#X obj 528 515 i;
#X obj 696 625 moses 10;
#X obj 496 717 pack 0 0 0;
#X obj 530 492 * 0.75;
#X obj 466 488 + 3.33;
#X obj 499 687 makenote 60 200;
#X obj 618 276 vsl 15 128 -12 12 0 0 empty empty empty 0 -9 0 10 -262144
-1 -1 0 1;
#X floatatom 618 412 5 0 0 0 - - -;
#X obj 673 290 vsl 15 128 0 1000 0 0 empty empty empty 0 -9 0 10 -262144
-1 -1 0 1;
#X floatatom 673 426 5 0 0 0 - - -;
#X obj 582 197 vsl 15 128 0 1 0 0 empty empty empty 0 -9 0 10 -262144
-1 -1 9782 1;
#X obj 842 83 nbx 5 14 -1e+37 1e+37 0 0 empty empty empty 0 -8 0 10
-262144 -1 -1 158 256;
#X obj 800 229 nbx 5 14 -1e+37 1e+37 0 0 empty empty empty 0 -8 0 10
-262144 -1 -1 158 256;
#X obj 902 205 s aux-label-\$1;
#X obj 825 168 + 0;
#X obj 821 126 delcalc \$1;
#X msg 903 174 L 1/16 notes: \$1;
#X obj 588 33 r feedback-\$1;
#X obj 614 131 / 100;
#X obj 829 399 r semi-\$1;
#X obj 919 408 r cent-\$1;
#X obj 919 430 t b f;
#X obj 833 494 +;
#X obj 920 488 / 100;
#X obj 844 52 r len_raw-\$1;
#X obj 691 171 r note_len-\$1;
#X obj 454 419 pipe 0 0 0 50;
#X obj 428 359 unpack 0 0 0;
#X obj 568 529 + 1;
#X obj 493 574 pack 0 0 0;
#X msg 716 566 \$2 \$1 \$3;
#X msg 735 672 \$2 \$1 \$3;
#X obj 717 594 unpack 0 0 0;
#X obj 736 649 pack 0 0 0;
#X obj 511 646 unpack 0 0 0;
#X obj 380 23 print note;
#X obj 831 597 unpack 0 0 0;
#X obj 850 652 pack 0 0 0;
#X msg 830 569 \$3 \$2 \$1;
#X msg 851 673 \$3 \$2 \$1;
#X floatatom 1042 665 5 0 0 0 - - -;
#X msg 366 254 \$1 \$2 0;
#X obj 831 623 moses 8;
#X obj 1080 440 r max-\$1;
#X connect 0 0 1 0;
#X connect 0 0 52 0;
#X connect 11 0 40 1;
#X connect 12 1 44 0;
#X connect 13 0 1 0;
#X connect 14 0 11 0;
#X connect 15 0 40 0;
#X connect 16 0 13 0;
#X connect 16 1 13 1;
#X connect 17 0 18 0;
#X connect 18 0 15 1;
#X connect 19 0 20 0;
#X connect 21 0 14 1;
#X connect 22 0 26 0;
#X connect 23 0 37 3;
#X connect 25 0 23 0;
#X connect 26 0 25 0;
#X connect 26 1 27 0;
#X connect 27 0 24 0;
#X connect 28 0 29 0;
#X connect 29 0 21 0;
#X connect 30 0 33 0;
#X connect 31 0 32 0;
#X connect 32 0 33 0;
#X connect 32 1 34 0;
#X connect 33 0 15 1;
#X connect 34 0 33 1;
#X connect 35 0 22 0;
#X connect 36 0 16 2;
#X connect 37 0 15 0;
#X connect 37 1 14 0;
#X connect 37 2 39 0;
#X connect 38 0 37 0;
#X connect 38 1 37 1;
#X connect 38 2 37 2;
#X connect 39 0 40 2;
#X connect 39 0 51 0;
#X connect 40 0 41 0;
#X connect 41 0 43 0;
#X connect 42 0 49 0;
#X connect 43 0 12 0;
#X connect 43 1 44 1;
#X connect 43 2 44 2;
#X connect 44 0 42 0;
#X connect 45 0 16 0;
#X connect 45 1 16 1;
#X connect 47 0 53 0;
#X connect 47 1 48 1;
#X connect 47 2 48 2;
#X connect 48 0 50 0;
#X connect 49 0 47 0;
#X connect 50 0 45 0;
#X connect 50 0 38 0;
#X connect 52 0 38 0;
#X connect 53 0 48 0;
#X connect 54 0 53 1;
