#N canvas -8 -8 1366 725 10;
#X obj 142 70 poly 8 0;
#X obj 140 109 pack 0 0 0;
#N canvas 0 50 450 250 (subpatch) 0;
#X array velarray-\$0 520 float 2;
#X coords 0 128 520 0 200 140 1 0 0;
#X restore 963 253 graph;
#X obj 141 162 unpack 0 0 0, f 7;
#X obj 83 162 unpack 0 0 0, f 6;
#X obj 143 425 tabwrite notearray-\$0;
#X obj 340 4 testkeys;
#X obj 339 24 bng 15 250 50 0 empty empty empty 17 7 0 10 -262144 -1
-1;
#X obj 403 26 bng 15 250 50 0 empty empty empty 17 7 0 10 -262144 -1
-1;
#X obj 164 242 + 0, f 4;
#X obj 210 72 nbx 5 14 -1e+037 1e+037 0 0 empty empty empty 0 -8 0
10 -262144 -1 -1 0 256;
#X obj 82 66 nbx 5 14 -1e+037 1e+037 0 0 empty empty empty 0 -8 0 10
-262144 -1 -1 0 256;
#X obj 321 128 sel 0;
#X obj 354 164 f 0;
#X obj 333 204 nbx 5 14 -1e+037 1e+037 0 0 empty empty empty 0 -8 0
10 -262144 -1 -1 0 256;
#X obj 357 183 + 1;
#X obj 320 182 - 1;
#X obj 320 163 f 0;
#X obj 321 147 bng 15 250 50 0 empty empty empty 17 7 0 10 -262144
-1 -1;
#X obj 353 146 bng 15 250 50 0 empty empty empty 17 7 0 10 -262144
-1 -1;
#X msg 423 253 0;
#X obj 336 225 sel 0;
#X obj 336 249 f 0;
#X obj 360 333 nbx 5 14 -1e+037 1e+037 0 0 empty empty empty 0 -8 0
10 -262144 -1 -1 0 256;
#X obj 338 267 + 1;
#X obj 125 122 t a a a;
#X obj 204 149 unpack 0 0 0, f 6;
#X obj 252 211 * 8;
#X obj 240 287 + 1;
#X obj 247 307 sel 8;
#X obj 244 271 f;
#X msg 246 252 0;
#X obj 245 234 t f f;
#X obj 232 330 + 0, f 5;
#X obj 228 357 t f f;
#X msg 216 381 0;
#X floatatom 456 422 5 0 0 2 steps - -;
#X obj 138 2 inlet;
#X obj 124 46 spigot 0;
#X obj 632 220 f;
#X obj 626 173 sel 1;
#X obj 609 136 t f f, f 12;
#X obj 631 240 sel 1;
#X obj 419 87 spigot 1;
#X obj 723 195 sel 0;
#X msg 736 236 stop;
#X obj 775 241 bng 15 250 50 0 empty empty empty 17 7 0 10 -262144
-1 -1;
#N canvas -8 -8 1366 725 player 1;
#X obj 213 488 tabread notearray-\$0;
#X obj 282 448 + 0;
#X obj 226 126 bng 15 250 50 0 empty empty empty 17 7 0 10 -262144
-1 -1;
#X obj 230 144 f 0;
#X obj 198 236 nbx 5 14 -1e+037 1e+037 0 0 empty empty empty 0 -8 0
10 -262144 -1 -1 0 256;
#X obj 235 170 + 1;
#X obj 241 191 mod 64;
#X obj 265 524 sel 0;
#X obj 278 318 t b f;
#X obj 342 358 * 8;
#X msg 305 372 0;
#X obj 227 409 + 1;
#X obj 235 438 sel 8;
#X msg 246 358 0;
#X obj 357 412 nbx 5 14 -1e+037 1e+037 0 0 empty empty empty 0 -8 0
10 -262144 -1 -1 0 256;
#X obj 339 451 nbx 5 14 -1e+037 1e+037 0 0 empty empty empty 0 -8 0
10 -262144 -1 -1 0 256;
#X obj 245 379 f;
#X floatatom 95 74 5 0 0 2 steps - -;
#N canvas 13 67 1351 716 step 1;
#X obj 200 76 beatdiv;
#X obj 148 146 sel 0;
#X obj 177 101 f 0;
#X obj 217 141 mod 1;
#X obj 152 65 bng 15 250 50 0 empty empty empty 17 7 0 10 -262144 -1
-1;
#X obj 124 118 nbx 5 14 -1e+037 1e+037 0 0 empty empty empty 0 -8 0
10 -262144 -1 -1 0 256;
#X obj 143 164 bng 15 250 50 0 empty empty empty 17 7 0 10 -262144
-1 -1;
#X obj 244 115 nbx 5 14 -1e+037 1e+037 0 0 empty empty empty 0 -8 0
10 -262144 -1 -1 0 256;
#X obj 216 123 + 1;
#X obj 227 264 outlet;
#X obj 231 46 r ps_div-\$1;
#X obj 245 93 r ps_mul-\$1;
#X obj 127 24 r master-ticks;
#X connect 0 0 2 0;
#X connect 1 0 6 0;
#X connect 2 0 5 0;
#X connect 3 0 2 1;
#X connect 4 0 2 0;
#X connect 5 0 1 0;
#X connect 5 0 8 0;
#X connect 6 0 9 0;
#X connect 7 0 3 1;
#X connect 8 0 3 0;
#X connect 10 0 0 1;
#X connect 11 0 7 0;
#X connect 12 0 0 0;
#X restore 191 42 pd step;
#X obj 323 107 t f f;
#X msg 328 134 0;
#X obj 449 187 sel 1;
#X msg 390 206 -1;
#X msg 427 234 1;
#X obj 116 36 inlet;
#X obj 392 700 outlet;
#X obj 303 646 makenote 120 500;
#X obj 328 57 r ps_play-\$1;
#X obj 499 114 r ps_rev-\$1;
#X obj 548 161 r ps_rand-\$1;
#X obj 569 273 random 0;
#X obj 570 296 nbx 5 14 -1e+037 1e+037 0 0 empty empty empty 0 -8 0
10 -262144 -1 -1 0 256;
#X obj 246 285 spigot 1;
#X obj 332 298 spigot 0;
#X obj 543 212 == 0;
#X obj 490 513 r ps_length-\$1, f 17;
#X obj 539 371 r ps_velo-\$1, f 17;
#X obj 206 84 spigot 1;
#X obj 380 672 pack 0 0;
#X obj 573 439 sel 0;
#X obj 458 427 spigot 0;
#X obj 515 397 == 0;
#X obj 293 467 t f f;
#X obj 366 488 tabread velarray-\$0;
#X obj 261 570 max 1;
#X obj 71 474 r ps_transpose-\$1;
#X obj 264 551 +;
#X obj 872 334 r ps_record-\$1;
#X obj 890 508 == -2;
#X obj 823 418 sel -2;
#X obj 843 453 bng 15 250 50 0 empty empty empty 17 7 0 10 -262144
-1 -1;
#X msg 842 477 0;
#X obj 293 614 + 0;
#X obj 643 577 spigot 0;
#X obj 664 41 inlet;
#X obj 716 175 poly 1 1;
#X obj 722 221 pack 0 0;
#X obj 736 261 stripnote;
#X obj 297 86 ||;
#X obj 684 258 > 0;
#X obj 631 612 - 60;
#X obj 682 295 spigot 0;
#X obj 258 48 change -1;
#X connect 0 0 7 0;
#X connect 1 0 15 0;
#X connect 1 0 42 0;
#X connect 2 0 3 0;
#X connect 2 0 30 0;
#X connect 3 0 5 0;
#X connect 3 0 32 0;
#X connect 4 0 3 1;
#X connect 5 0 6 0;
#X connect 6 0 4 0;
#X connect 7 1 46 0;
#X connect 8 0 13 0;
#X connect 8 1 9 0;
#X connect 8 1 10 0;
#X connect 9 0 1 1;
#X connect 9 0 14 0;
#X connect 11 0 12 0;
#X connect 12 1 16 0;
#X connect 13 0 16 0;
#X connect 16 0 11 0;
#X connect 16 0 1 0;
#X connect 17 0 6 1;
#X connect 17 0 30 1;
#X connect 18 0 37 0;
#X connect 19 0 62 0;
#X connect 19 1 20 0;
#X connect 20 0 3 1;
#X connect 21 0 22 0;
#X connect 21 1 23 0;
#X connect 22 0 5 1;
#X connect 23 0 5 1;
#X connect 24 0 17 0;
#X connect 26 0 38 0;
#X connect 26 1 38 1;
#X connect 27 0 19 0;
#X connect 27 0 58 1;
#X connect 28 0 21 0;
#X connect 29 0 34 0;
#X connect 29 0 33 1;
#X connect 30 0 31 0;
#X connect 31 0 33 0;
#X connect 32 0 8 0;
#X connect 33 0 8 0;
#X connect 34 0 32 1;
#X connect 35 0 26 2;
#X connect 36 0 39 0;
#X connect 36 0 41 0;
#X connect 37 0 2 0;
#X connect 38 0 25 0;
#X connect 39 1 26 1;
#X connect 40 0 43 0;
#X connect 41 0 40 1;
#X connect 42 0 0 0;
#X connect 42 1 40 0;
#X connect 43 0 26 1;
#X connect 44 0 52 0;
#X connect 45 0 46 1;
#X connect 46 0 44 0;
#X connect 47 0 48 0;
#X connect 47 0 49 0;
#X connect 48 0 53 1;
#X connect 48 0 61 1;
#X connect 49 1 50 0;
#X connect 50 0 51 0;
#X connect 51 0 52 1;
#X connect 51 0 58 0;
#X connect 52 0 26 0;
#X connect 53 0 60 0;
#X connect 54 0 55 0;
#X connect 55 1 56 0;
#X connect 55 2 56 1;
#X connect 55 2 59 0;
#X connect 56 0 57 0;
#X connect 57 0 53 0;
#X connect 58 0 62 0;
#X connect 59 0 61 0;
#X connect 60 0 52 1;
#X connect 61 0 58 0;
#X connect 62 0 37 1;
#X connect 62 0 20 0;
#X restore 485 451 pd player;
#X obj 192 12 r ps_record-\$1;
#X obj 358 352 s activestep-\$0;
#X obj 513 360 r activestep-\$0;
#X obj 420 205 r clear-\$0;
#X text 308 102 determine when we go to a new step;
#X text 815 280 params: play 0/1 record 0/1 beat div beat mul reverse
random slot 1-16 aux mode: erase save load, f 11;
#X obj 343 288 min 65;
#X obj 505 397 min 64;
#X msg 704 479 steps: \$1;
#X obj 166 212 - 1;
#X obj 501 489 outlet;
#X obj 486 19 r ps_record-\$1;
#X obj 516 190 timer;
#X obj 518 213 nbx 5 14 -1e+037 1e+037 0 0 empty empty empty 0 -8 0
10 -262144 -1 -1 0 256;
#X floatatom 512 140 5 0 0 0 - - -;
#X obj 494 163 sel 1;
#X obj 558 167 sel 0;
#X obj 517 250 int;
#X obj 516 269 nbx 5 14 -1e+037 1e+037 0 0 empty empty empty 0 -8 0
10 -262144 -1 -1 0 256;
#X obj 514 298 sel 0;
#X obj 601 72 r auxIn-\$1;
#X obj 532 108 r auxIn-\$1;
#X obj 504 333 bng 15 250 50 0 empty empty empty 17 7 0 10 -262144
-1 -1;
#X obj 517 232 / 1500;
#X obj 629 196 del 1500;
#N canvas 0 50 450 250 (subpatch) 0;
#X array notearray-\$0 520 float 2;
#X coords 0 128 520 0 200 140 1 0 0;
#X restore 866 45 graph;
#X obj 39 310 spigot 1;
#X text 45 274 only write note ons;
#X obj 34 567 tabwrite velarray-\$0;
#X obj 109 313 spigot 1;
#X obj 125 342 bng 15 250 50 0 empty empty empty 17 7 0 10 -262144
-1 -1;
#X obj 113 364 nbx 5 14 -1e+037 1e+037 0 0 empty empty empty 0 -8 0
10 -262144 -1 -1 0 256;
#X obj 325 374 r activestep-\$0;
#X obj 335 392 - 1;
#X obj 338 414 max 0;
#X obj 328 484 f;
#X obj 313 445 r undo-\$0;
#X obj 323 412 bng 15 250 50 0 empty empty empty 17 7 0 10 -262144
-1 -1;
#N canvas 23 23 1351 720 aux 0;
#X obj 166 66 inlet;
#X obj 50 223 bng 15 250 50 0 empty empty clear 17 7 0 10 -262144 -1
-1;
#X obj 33 277 s clear-\$0;
#X obj 162 452 s aux-label-\$1;
#X obj 168 105 f 0;
#X msg 297 272 aux: undo;
#X obj 228 32 r ps_aux-\$1;
#X obj 145 206 bng 15 250 50 0 empty empty empty 17 7 0 10 -262144
-1 -1;
#X obj 145 261 s undo-\$0;
#X obj 276 465 delay 5000;
#X obj 226 531 s steplabel-\$0;
#X obj 304 438 bng 15 250 50 0 empty empty empty 17 7 0 10 -262144
-1 -1;
#N canvas 0 50 450 250 (subpatch) 0;
#X array len_file-\$0 1 float 3;
#A 0 16;
#X coords 0 65 1 0 10 50 1 0 0;
#X restore 923 64 graph;
#X text 779 138 load then send out sequence length;
#X text 437 144 load then send out sequence length;
#X obj 587 300 t b l;
#X obj 1165 92 r rackSavePreset;
#N canvas 119 225 803 448 presetDir 0;
#X obj 88 153 s rackMsgs;
#X obj 88 106 symbol \$1;
#X msg 88 128 getsetting currentPreset Defaut rackCurrentPreset-\$1
;
#X obj 88 181 r rackCurrentPreset;
#X obj 215 181 r rackCurrentPreset-\$1;
#X obj 87 215 symbol \$1;
#X obj 442 163 s rackMsgs;
#X obj 442 113 symbol \$1;
#X obj 204 50 r loadbang-\$1;
#X obj 442 186 r rackDataDir;
#X obj 535 189 r rackDataDir-\$1;
#X msg 442 138 getsetting dataDir ./data rackDataDir-\$1;
#X obj 441 219 symbol \$1;
#X obj 249 276 pack s s s;
#X obj 255 210 symbol \$1;
#X obj 205 76 t b b b;
#X obj 444 71 bng 15 250 50 0 empty empty empty 17 7 0 10 -262144 -1
-1;
#X obj 71 67 bng 15 250 50 0 empty empty empty 17 7 0 10 -262144 -1
-1;
#X obj 114 243 t b b s;
#X obj 255 232 t b s;
#X obj 111 387 outlet;
#X obj 219 386 outlet;
#X text 81 25 track preset directory and bang on change;
#X connect 1 0 2 0;
#X connect 2 0 0 0;
#X connect 3 0 5 0;
#X connect 4 0 5 0;
#X connect 5 0 18 0;
#X connect 7 0 11 0;
#X connect 8 0 15 0;
#X connect 9 0 12 0;
#X connect 10 0 12 0;
#X connect 11 0 6 0;
#X connect 12 0 13 0;
#X connect 13 0 21 0;
#X connect 14 0 19 0;
#X connect 15 0 1 0;
#X connect 15 1 14 0;
#X connect 15 2 7 0;
#X connect 16 0 7 0;
#X connect 17 0 1 0;
#X connect 18 0 20 0;
#X connect 18 1 13 0;
#X connect 18 2 13 1;
#X connect 19 0 13 0;
#X connect 19 1 13 2;
#X restore 993 29 pd presetDir;
#N canvas 103 262 721 484 savePreset 0;
#X obj 343 124 r saveState;
#X obj 252 232 list;
#X obj 146 127 unpack s s s;
#X obj 251 167 pack s s s;
#X obj 272 127 symbol \$1;
#X obj 113 96 list;
#X obj 233 101 t b b a b;
#X obj 106 54 inlet;
#X obj 258 286 outlet;
#X obj 229 39 inlet;
#X connect 0 0 1 0;
#X connect 1 0 8 0;
#X connect 2 0 3 0;
#X connect 2 2 3 2;
#X connect 3 0 1 1;
#X connect 4 0 3 1;
#X connect 5 0 2 0;
#X connect 6 0 1 0;
#X connect 6 1 3 0;
#X connect 6 2 4 0;
#X connect 6 3 5 0;
#X connect 7 0 5 1;
#X connect 9 0 6 0;
#X restore 1101 134 pd savePreset;
#X obj 1029 87 list;
#X obj 169 140 sel 0 1;
#X obj 281 127 sel 0 1;
#X msg 1025 274 write \$1/presets/\$2/\$3-notes.txt;
#X msg 1056 293 write \$1/presets/\$2/\$3-vel.txt;
#X msg 1087 320 write \$1/presets/\$2/\$3-len.txt;
#X obj 1044 355 s notearray-\$0;
#X obj 1105 375 s velarray-\$0;
#X obj 1156 399 s len-\$0;
#X msg 722 368 read \$1/presets/\$2/\$3-notes.txt;
#X msg 752 393 read \$1/presets/\$2/\$3-vel.txt;
#X msg 784 413 read \$1/presets/\$2/\$3-len.txt;
#X obj 668 436 s notearray-\$0;
#X obj 729 456 s velarray-\$0;
#X obj 780 480 s len-\$0;
#X obj 573 477 tabread len-\$0;
#X msg 596 444 0;
#X obj 573 503 s len-load-\$0;
#X msg 278 255 aux: clear;
#X obj 504 378 t b b;
#X connect 0 0 4 0;
#X connect 1 0 2 0;
#X connect 4 0 20 0;
#X connect 5 0 3 0;
#X connect 6 0 4 1;
#X connect 6 0 11 0;
#X connect 6 0 21 0;
#X connect 7 0 8 0;
#X connect 9 0 10 0;
#X connect 11 0 9 0;
#X connect 15 0 38 0;
#X connect 15 1 28 0;
#X connect 15 1 30 0;
#X connect 15 1 29 0;
#X connect 16 0 18 1;
#X connect 17 0 19 0;
#X connect 17 1 18 0;
#X connect 17 1 19 1;
#X connect 18 0 22 0;
#X connect 18 0 24 0;
#X connect 18 0 23 0;
#X connect 19 0 15 0;
#X connect 20 0 1 0;
#X connect 20 1 7 0;
#X connect 21 0 37 0;
#X connect 21 1 5 0;
#X connect 22 0 25 0;
#X connect 23 0 26 0;
#X connect 24 0 27 0;
#X connect 28 0 31 0;
#X connect 29 0 32 0;
#X connect 30 0 33 0;
#X connect 34 0 36 0;
#X connect 35 0 34 0;
#X connect 37 0 3 0;
#X connect 38 0 10 0;
#X connect 38 1 35 0;
#X restore 633 274 pd aux;
#X obj 702 502 s aux-label-\$1;
#N canvas 0 50 450 250 (subpatch) 0;
#X array len-\$0 1 float 2;
#X coords 0 65 1 0 10 50 1 0 0;
#X restore 861 413 graph;
#X obj 564 438 tabwrite len-\$0;
#X obj 397 297 r len-load-\$0;
#X obj 697 450 f;
#X obj 693 427 bng 15 250 50 0 empty empty empty 17 7 0 10 -262144
-1 -1;
#X obj 689 407 r steplabel-\$0;
#X obj 178 452 r ps_velo_rec-\$1;
#X obj 181 476 == 0;
#X obj 226 481 != 0;
#X obj 124 490 bng 15 250 50 0 empty empty empty 17 7 0 10 -262144
-1 -1;
#X obj 35 526 spigot 1;
#X obj 113 520 spigot 0;
#X obj 110 544 f;
#X obj 547 50 r fsIn-\$1;
#N canvas -8 -8 1366 725 manual 0;
#X obj 220 82 nbx 5 14 -1e+037 1e+037 0 0 empty empty empty 0 -8 0
10 -262144 -1 -1 0 256;
#X obj 214 152 mod;
#X obj 211 172 nbx 5 14 -1e+037 1e+037 0 0 empty empty empty 0 -8 0
10 -262144 -1 -1 0 256;
#X obj 675 189 nbx 5 14 -1e+037 1e+037 0 0 empty empty empty 0 -8 0
10 -262144 -1 -1 0 256;
#X obj 316 38 inlet;
#X obj 212 323 outlet;
#X obj 76 31 inlet, f 6;
#X msg 71 75 \$2 \$1;
#X obj 68 99 route 0;
#X msg 48 144 \$1 0;
#X msg 106 125 \$2 \$1;
#X obj 112 144 unpack 0 0;
#X obj 101 270 man_note \$0 0;
#X obj 383 151 bng 15 250 50 0 empty empty empty 17 7 0 10 -262144
-1 -1;
#X obj 210 225 spigot 0;
#X obj 207 272 man_note \$0 1;
#X obj 314 274 man_note \$0 2;
#X obj 419 277 man_note \$0 3;
#X obj 526 275 man_note \$0 4;
#X obj 139 48 poly 1 1;
#X obj 143 73 pack 0 0;
#X obj 425 123 == -1;
#X obj 411 89 r ps_record-\$1;
#X obj 224 24 - 60;
#X obj 227 62 nbx 5 14 -1e+037 1e+037 0 0 empty empty empty 0 -8 0
10 -262144 -1 -1 0 256;
#X obj 628 282 man_note \$0 5;
#X obj 742 274 man_note \$0 6;
#X obj 874 282 man_note \$0 7;
#X obj 221 196 t f f;
#X obj 280 101 nbx 5 14 -1e+037 1e+037 0 0 empty empty empty 0 -8 0
10 -262144 -1 -1 0 256;
#X connect 0 0 1 0;
#X connect 1 0 2 0;
#X connect 2 0 28 0;
#X connect 3 0 25 2;
#X connect 3 0 18 2;
#X connect 3 0 12 2;
#X connect 3 0 15 2;
#X connect 3 0 16 2;
#X connect 3 0 17 2;
#X connect 3 0 26 2;
#X connect 3 0 27 2;
#X connect 4 0 29 0;
#X connect 6 0 19 0;
#X connect 7 0 8 0;
#X connect 8 0 9 0;
#X connect 8 1 10 0;
#X connect 9 0 13 0;
#X connect 10 0 11 0;
#X connect 11 0 23 0;
#X connect 12 0 5 0;
#X connect 13 0 25 1;
#X connect 13 0 18 1;
#X connect 13 0 12 1;
#X connect 13 0 15 1;
#X connect 13 0 16 1;
#X connect 13 0 17 1;
#X connect 13 0 26 1;
#X connect 13 0 27 1;
#X connect 14 0 25 0;
#X connect 14 0 18 0;
#X connect 14 0 12 0;
#X connect 14 0 15 0;
#X connect 14 0 16 0;
#X connect 14 0 17 0;
#X connect 14 0 26 0;
#X connect 14 0 27 0;
#X connect 15 0 5 0;
#X connect 16 0 5 0;
#X connect 17 0 5 0;
#X connect 18 0 5 0;
#X connect 19 1 20 0;
#X connect 19 2 20 1;
#X connect 20 0 7 0;
#X connect 21 0 14 1;
#X connect 22 0 21 0;
#X connect 23 0 0 0;
#X connect 25 0 5 0;
#X connect 26 0 5 0;
#X connect 27 0 5 0;
#X connect 28 0 14 0;
#X connect 29 0 1 1;
#X restore 412 450 pd manual;
#X obj 201 36 == 1;
#X obj 1020 434 r ps_record-\$1;
#X obj 1002 486 sel -2 -1 0 1;
#X msg 841 541 Transpose;
#X msg 1024 536 Off;
#X msg 1071 547 Record;
#X msg 920 540 Manual Play;
#X obj 471 56 == 1;
#X obj 1158 546 delay 5000;
#X obj 1168 574 s steplabel-\$0;
#X obj 1186 519 bng 15 250 50 0 empty empty empty 17 7 0 10 -262144
-1 -1;
#X obj 1181 493 change -5;
#X connect 0 0 1 0;
#X connect 0 0 11 0;
#X connect 0 1 1 1;
#X connect 0 1 10 0;
#X connect 0 2 1 2;
#X connect 1 0 25 0;
#X connect 3 0 57 0;
#X connect 3 2 77 1;
#X connect 3 2 74 1;
#X connect 4 1 74 0;
#X connect 4 2 77 0;
#X connect 6 0 7 0;
#X connect 6 1 8 0;
#X connect 6 1 41 0;
#X connect 6 1 62 0;
#X connect 9 0 5 1;
#X connect 9 0 76 1;
#X connect 12 0 18 0;
#X connect 12 1 19 0;
#X connect 13 0 15 0;
#X connect 14 0 13 1;
#X connect 14 0 17 1;
#X connect 14 0 21 0;
#X connect 15 0 14 0;
#X connect 16 0 14 0;
#X connect 17 0 16 0;
#X connect 18 0 17 0;
#X connect 19 0 13 0;
#X connect 20 0 14 0;
#X connect 20 0 23 0;
#X connect 21 0 22 0;
#X connect 22 0 24 0;
#X connect 23 0 22 1;
#X connect 23 0 27 0;
#X connect 23 0 49 0;
#X connect 24 0 54 0;
#X connect 25 0 26 0;
#X connect 25 1 4 0;
#X connect 25 2 3 0;
#X connect 26 2 12 0;
#X connect 27 0 9 1;
#X connect 27 0 32 0;
#X connect 28 0 29 0;
#X connect 29 1 30 0;
#X connect 30 0 28 0;
#X connect 30 0 33 0;
#X connect 31 0 30 0;
#X connect 32 0 31 0;
#X connect 32 1 33 1;
#X connect 33 0 34 0;
#X connect 34 0 35 0;
#X connect 34 1 5 1;
#X connect 35 0 5 0;
#X connect 36 0 47 0;
#X connect 36 0 102 1;
#X connect 37 0 38 0;
#X connect 37 0 102 0;
#X connect 37 0 47 1;
#X connect 38 0 0 0;
#X connect 39 0 42 0;
#X connect 40 0 72 0;
#X connect 41 0 40 0;
#X connect 41 1 39 1;
#X connect 41 1 44 0;
#X connect 42 0 86 0;
#X connect 43 0 22 0;
#X connect 44 0 45 0;
#X connect 44 0 46 0;
#X connect 45 0 72 0;
#X connect 47 0 58 0;
#X connect 48 0 103 0;
#X connect 50 0 55 0;
#X connect 50 0 89 0;
#X connect 51 0 20 0;
#X connect 54 0 23 0;
#X connect 55 0 36 0;
#X connect 55 0 91 0;
#X connect 56 0 87 0;
#X connect 57 0 9 0;
#X connect 59 0 110 0;
#X connect 60 0 61 0;
#X connect 61 0 71 0;
#X connect 62 0 63 0;
#X connect 62 0 64 0;
#X connect 63 0 60 0;
#X connect 64 0 60 1;
#X connect 65 0 66 0;
#X connect 66 0 67 0;
#X connect 67 0 43 0;
#X connect 67 0 70 0;
#X connect 68 0 41 0;
#X connect 69 0 62 0;
#X connect 71 0 65 0;
#X connect 72 0 39 0;
#X connect 74 0 5 0;
#X connect 77 0 78 0;
#X connect 77 0 79 0;
#X connect 77 0 97 0;
#X connect 77 0 98 0;
#X connect 80 0 81 0;
#X connect 81 0 82 0;
#X connect 82 0 83 1;
#X connect 83 0 23 0;
#X connect 84 0 83 0;
#X connect 85 0 83 0;
#X connect 90 0 23 0;
#X connect 91 0 56 0;
#X connect 92 0 91 0;
#X connect 93 0 92 0;
#X connect 94 0 95 0;
#X connect 94 0 96 0;
#X connect 94 0 100 1;
#X connect 95 0 98 1;
#X connect 96 0 99 1;
#X connect 97 0 99 0;
#X connect 98 0 76 0;
#X connect 99 0 100 0;
#X connect 100 0 76 0;
#X connect 101 0 62 0;
#X connect 101 0 41 0;
#X connect 102 0 58 0;
#X connect 103 0 38 1;
#X connect 104 0 105 0;
#X connect 104 0 114 0;
#X connect 105 0 106 0;
#X connect 105 1 109 0;
#X connect 105 2 107 0;
#X connect 105 3 108 0;
#X connect 106 0 87 0;
#X connect 107 0 87 0;
#X connect 108 0 87 0;
#X connect 109 0 87 0;
#X connect 110 0 43 1;
#X connect 111 0 112 0;
#X connect 113 0 111 0;
#X connect 114 0 113 0;
