#N canvas -8 -8 1366 725 10;
#X obj 539 21 r loadbang-\$1;
#X obj 25 186 inlet~ inL-\$1;
#X obj 135 186 inlet~ inR-\$1;
#X msg 575 105 1;
#X text 535 62 always running. mute incoming BPM to turn off in other
Modules;
#N canvas 2 79 1345 714 metro 0;
#X obj 217 164 tgl 15 0 empty empty empty 17 7 0 10 -262144 -1 -1 0
1;
#X floatatom 375 164 5 0 0 0 - - -;
#N canvas 285 555 292 294 mstobpm 0;
#X obj 45 13 inlet;
#X obj 46 145 timer;
#X obj 47 238 outlet;
#X obj 46 172 expr 60000 / $f1;
#X obj 46 108 t b b;
#X obj 45 78 sel 0;
#X text 97 55 time 16th notes;
#X obj 43 45 % 24;
#X obj 48 206 / 1;
#X connect 0 0 7 0;
#X connect 1 0 3 0;
#X connect 3 0 8 0;
#X connect 4 0 1 0;
#X connect 4 1 1 1;
#X connect 5 0 4 0;
#X connect 7 0 5 0;
#X connect 8 0 2 0;
#X restore 123 626 pd mstobpm;
#X floatatom 123 665 5 0 0 0 - - -;
#N canvas 170 79 902 691 mainmetro 0;
#X obj 254 49 inlet;
#X obj 443 49 inlet;
#X obj 280 156 metro 50;
#X obj 389 438 + 1, f 5;
#X obj 280 462 f;
#X floatatom 280 581 5 0 0 0 - - -;
#X obj 280 607 outlet;
#X msg 565 496 0;
#X obj 350 484 >= 23;
#X obj 350 516 sel 1;
#X obj 408 145 midirealtimein;
#X obj 280 387 spigot 1;
#X obj 408 388 spigot 0;
#X obj 423 300 tgl 15 0 empty empty empty 17 7 0 10 -262144 -1 -1 0
1;
#X obj 333 323 ==;
#X obj 333 349 tgl 15 0 empty empty empty 17 7 0 10 -262144 -1 -1 0
1;
#X obj 461 350 tgl 15 0 empty empty empty 17 7 0 10 -262144 -1 -1 0
1;
#X obj 408 167 sel 248 250 251;
#X obj 580 243 delay 1000;
#X msg 423 241 1;
#X obj 408 190 t b b b b, f 25;
#X msg 580 218 stop;
#X msg 580 267 0;
#X text 67 12 autoswitch between internal and MIDI clock;
#X text 525 144 MIDI 248 = clock \; 250 = start \; 251 = continue.
;
#X obj 562 362 s midi-clock-present;
#X msg 325 229 0;
#X obj 266 90 t f b;
#X text 28 87 reset back to 0 when it starts;
#X text 356 587 24 pulses per quarter note output;
#X text 503 50 metro speed in ms;
#X text 298 48 start stop;
#N canvas 945 298 174 171 dialinbpm 0;
#X obj 29 41 inlet;
#X obj 29 72 expr 1000/($f1/60);
#X floatatom 29 121 5 0 0 0 - - -;
#X obj 29 96 / 24;
#X obj 30 150 outlet;
#X connect 0 0 1 0;
#X connect 1 0 3 0;
#X connect 2 0 4 0;
#X connect 3 0 2 0;
#X restore 397 95 pd dialinbpm;
#X obj 325 207 r loadbang-\$1;
#X connect 0 0 27 0;
#X connect 1 0 32 0;
#X connect 2 0 11 0;
#X connect 3 0 4 1;
#X connect 4 0 3 0;
#X connect 4 0 5 0;
#X connect 4 0 8 0;
#X connect 5 0 6 0;
#X connect 7 0 4 1;
#X connect 8 0 9 0;
#X connect 9 0 7 0;
#X connect 10 0 17 0;
#X connect 11 0 4 0;
#X connect 12 0 4 0;
#X connect 13 0 14 0;
#X connect 13 0 16 0;
#X connect 13 0 25 0;
#X connect 14 0 15 0;
#X connect 15 0 11 1;
#X connect 16 0 12 1;
#X connect 17 0 20 0;
#X connect 17 1 7 0;
#X connect 17 2 7 0;
#X connect 18 0 22 0;
#X connect 19 0 13 0;
#X connect 20 0 12 0;
#X connect 20 1 18 0;
#X connect 20 2 19 0;
#X connect 20 3 21 0;
#X connect 21 0 18 0;
#X connect 22 0 13 0;
#X connect 26 0 13 0;
#X connect 27 0 2 0;
#X connect 27 1 7 0;
#X connect 32 0 2 1;
#X connect 33 0 26 0;
#X restore 217 256 pd mainmetro;
#X obj 217 116 inlet;
#X obj 375 116 inlet;
#X obj 271 742 spigot 1;
#X obj 123 742 spigot 0;
#X obj 278 586 r midi-clock-present;
#X obj 278 630 ==;
#X obj 375 142 i;
#X obj 123 845 outlet;
#X obj 46 846 s bpm;
#X obj 269 845 outlet;
#N canvas 239 342 450 300 triplets 0;
#X obj 73 41 inlet;
#X obj 58 168 outlet;
#X obj 76 86 sel 0 8 16;
#X connect 0 0 2 0;
#X connect 2 0 1 0;
#X connect 2 1 1 0;
#X connect 2 2 1 0;
#X restore 1035 281 pd triplets;
#N canvas 0 50 1360 725 sixteenths 0;
#X obj 73 41 inlet;
#X obj 94 224 outlet;
#X obj 76 86 sel 0 6 12 18;
#X connect 0 0 2 0;
#X connect 2 0 1 0;
#X connect 2 1 1 0;
#X connect 2 2 1 0;
#X connect 2 3 1 0;
#X restore 1131 282 pd sixteenths;
#X obj 1035 308 s triplets;
#X obj 1131 309 s sixteenths;
#X obj 793 312 s quarters;
#X obj 913 311 s eighths;
#X text 46 560 if getting clock from MIDI \, measure the BPM;
#N canvas 236 394 450 300 quarters 0;
#X obj 73 41 inlet;
#X obj 73 75 sel 0;
#X obj 73 111 outlet;
#X connect 0 0 1 0;
#X connect 1 0 2 0;
#X restore 793 282 pd quarters;
#N canvas 0 50 1360 725 eighths 0;
#X obj 73 41 inlet;
#X obj 71 195 outlet;
#X obj 76 86 sel 0 12;
#X connect 0 0 2 0;
#X connect 2 0 1 0;
#X connect 2 1 1 0;
#X restore 913 282 pd eighths;
#X obj 696 268 s 24ppq;
#X obj 851 418 r 24ppq;
#X msg 851 496 248;
#X obj 851 538 midiout;
#X text 410 115 bpm input;
#X text 256 867 separate BPM midi \, LINK \, and internal for display
purposes;
#N canvas 1449 728 815 554 LINK 0;
#X msg 355 126 tempo \$1;
#X msg 144 127 resolution \$1;
#X msg 247 147 reset \$1 \$2;
#X obj 247 126 pack f f;
#X floatatom 266 247 5 0 0 1 beat_time - -;
#X floatatom 267 304 5 0 0 1 phase - -;
#X floatatom 180 285 5 0 0 1 step - -;
#X floatatom 378 246 5 0 0 1 tempo - -;
#X obj 59 105 tgl 15 0 empty empty empty 17 7 0 10 -262144 -1 -1 0
1;
#X obj 180 199 abl_link~ 1 0 4 134;
#X floatatom 355 107 5 0 0 2 tempo - -;
#X floatatom 292 107 5 0 0 2 quantum - -;
#X floatatom 247 107 5 0 0 2 beat - -;
#X floatatom 144 107 5 0 0 2 resolution - -;
#X msg 59 125 connect \$1;
#X floatatom 501 206 5 0 0 0 - - -;
#X obj 501 184 r #abl_link_num_peers;
#X obj 32 67 delay 100;
#X obj 267 326 wrap;
#X floatatom 267 351 5 0 0 0 - - -;
#X obj 267 370 * 24;
#X obj 267 392 i;
#X floatatom 267 414 5 0 0 0 - - -;
#X obj 267 444 change;
#X obj 285 31 inlet;
#X obj 388 273 i;
#X obj 267 472 outlet;
#X obj 388 295 outlet;
#X obj 510 261 > 0;
#X obj 510 283 s link-session-present;
#X obj 32 12 r loadbang-\$1;
#X obj 31 38 bng 15 250 50 0 empty empty empty 17 7 0 10 -262144 -1
-1;
#X connect 0 0 9 0;
#X connect 1 0 9 0;
#X connect 2 0 9 0;
#X connect 3 0 2 0;
#X connect 5 0 18 0;
#X connect 7 0 25 0;
#X connect 8 0 14 0;
#X connect 9 0 6 0;
#X connect 9 1 5 0;
#X connect 9 2 4 0;
#X connect 9 3 7 0;
#X connect 10 0 0 0;
#X connect 11 0 3 1;
#X connect 12 0 3 0;
#X connect 13 0 1 0;
#X connect 14 0 9 0;
#X connect 15 0 28 0;
#X connect 16 0 15 0;
#X connect 17 0 8 0;
#X connect 18 0 19 0;
#X connect 19 0 20 0;
#X connect 20 0 21 0;
#X connect 21 0 22 0;
#X connect 22 0 23 0;
#X connect 23 0 26 0;
#X connect 24 0 10 0;
#X connect 25 0 27 0;
#X connect 28 0 29 0;
#X connect 30 0 31 0;
#X connect 31 0 17 0;
#X restore 537 270 pd LINK;
#X obj 377 348 spigot 1;
#X obj 217 304 spigot 1;
#X obj 489 353 spigot 0;
#X obj 683 153 r link-session-present;
#X floatatom 683 187 5 0 0 0 - - -;
#X obj 422 271 == 0;
#X obj 574 742 spigot 0;
#X obj 574 845 outlet;
#X obj 619 451 r link-session-present;
#X obj 487 381 spigot 0;
#X obj 123 587 r master-ticks;
#X text 183 7 a MIDI and LINK enabled master metronome;
#X text 162 31 if a LINK session is present \, use that. otherwise
use internal or MIDI clock if present.;
#X obj 851 465 spigot 0;
#X obj 915 418 r c_midiout-\$1;
#X text 849 398 midi clock output;
#N canvas 0 50 450 250 (subpatch) 0;
#X array swing-\$1 4 float 3;
#A 0 0 0.28 0.64 0.2;
#X coords 0 1 4 -1 50 50 1 0 0;
#X restore 1139 401 graph;
#X obj 992 576 tabread4 swing-\$1;
#X obj 1012 624 nbx 5 14 -1e+037 1e+037 0 0 empty empty empty 0 -8
0 10 -262144 -1 -1 0 256;
#X obj 990 527 nbx 5 14 -1e+037 1e+037 0 0 empty empty empty 0 -8 0
10 -262144 -1 -1 0 256;
#X obj 946 209 t a;
#X obj 971 88 t a a;
#X obj 978 171 pipe 0;
#X obj 1050 118 random 1024;
#X obj 1078 165 nbx 5 14 -1e+037 1e+037 0 0 empty empty empty 0 -8
0 10 -262144 -1 -1 0 256;
#X obj 1049 94 bng 15 250 50 0 empty empty empty 17 7 0 10 -262144
-1 -1;
#X obj 1205 137 clip 0 1;
#X obj 1193 259 nbx 5 14 -1e+037 1e+037 0 0 empty empty empty 0 -8
0 10 -262144 -1 -1 0 256;
#X obj 1193 112 +;
#X obj 1110 32 - 512;
#X obj 1122 49 / 512;
#X obj 1101 214 +;
#X obj 789 93 / 100;
#X obj 614 79 / 100;
#X obj 1153 182 hsl 64 15 0 1 0 0 empty empty empty -2 -8 0 10 -262144
-1 -1 0 1;
#X obj 1149 94 * 1;
#X obj 1011 84 % 6;
#X obj 1012 103 sel 0;
#X obj 1252 109 * 0.999;
#X obj 1196 89 * 0.025;
#X obj 1079 147 / 32;
#X obj 622 48 r c_jitter-\$1;
#X obj 770 57 r c_drift-\$1;
#X obj 1103 241 nbx 5 14 -1e+037 1e+037 0 0 empty empty empty 0 -8
0 10 -262144 -1 -1 0 256;
#X obj 1102 196 * 0;
#X obj 1231 233 * 0;
#X obj 1252 194 hsl 64 15 0 1 0 0 empty empty empty -2 -8 0 10 -262144
-1 -1 0 1;
#X obj 1212 38 / 100;
#X obj 1193 18 r c_driftrate-\$1;
#X obj 1220 65 * 0.1;
#X obj 1264 43 hsl 64 15 0 1 0 0 empty empty empty -2 -8 0 10 -262144
-1 -1 0 1;
#N canvas 8 60 1345 720 swing 0;
#X obj 450 146 r delay8-\$1;
#X obj 539 149 r delay16-\$1;
#X obj 88 31 inlet;
#X obj 162 339 outlet;
#X obj 246 202 pipe 0;
#X obj 297 203 pipe 0;
#X obj 359 202 pipe 0;
#X obj 75 63 sel 6 12 18, f 67;
#X msg 187 138 6, f 1;
#X msg 228 140 12, f 4;
#X msg 271 132 18, f 2;
#X connect 0 0 5 1;
#X connect 1 0 4 1;
#X connect 1 0 6 1;
#X connect 2 0 7 0;
#X connect 4 0 3 0;
#X connect 5 0 3 0;
#X connect 6 0 3 0;
#X connect 7 0 8 0;
#X connect 7 1 9 0;
#X connect 7 2 10 0;
#X connect 7 3 3 0;
#X connect 8 0 4 0;
#X connect 9 0 5 0;
#X connect 10 0 6 0;
#X restore 957 58 pd swing;
#X obj 487 413 s master-ticks-internal;
#X obj 926 28 r master-ticks-internal;
#X obj 274 453 bng 15 250 50 0 empty empty empty 17 7 0 10 -262144
-1 -1;
#X obj 217 352 s master-ticks-internal;
#X obj 1201 201 * 64;
#X obj 702 370 s master-ticks-\$1;
#X connect 0 0 4 0;
#X connect 0 0 33 1;
#X connect 1 0 31 0;
#X connect 1 0 30 0;
#X connect 1 0 4 1;
#X connect 2 0 3 0;
#X connect 3 0 8 0;
#X connect 4 0 32 0;
#X connect 5 0 0 0;
#X connect 6 0 11 0;
#X connect 7 0 13 0;
#X connect 7 0 14 0;
#X connect 8 0 13 0;
#X connect 8 0 12 0;
#X connect 9 0 8 1;
#X connect 9 0 10 0;
#X connect 10 0 7 1;
#X connect 11 0 1 0;
#X connect 15 0 17 0;
#X connect 16 0 18 0;
#X connect 22 0 19 0;
#X connect 23 0 20 0;
#X connect 25 0 44 0;
#X connect 26 0 27 0;
#X connect 30 0 33 0;
#X connect 30 1 37 0;
#X connect 31 0 7 0;
#X connect 32 0 85 0;
#X connect 32 0 86 0;
#X connect 33 0 40 0;
#X connect 34 0 35 0;
#X connect 35 0 36 0;
#X connect 35 0 40 1;
#X connect 36 0 31 1;
#X connect 36 0 32 1;
#X connect 37 0 13 0;
#X connect 37 0 38 0;
#X connect 39 0 37 1;
#X connect 40 0 83 0;
#X connect 41 0 2 0;
#X connect 44 0 26 0;
#X connect 45 0 44 1;
#X connect 48 0 49 0;
#X connect 50 0 48 0;
#X connect 51 0 22 0;
#X connect 51 0 23 0;
#X connect 51 0 15 0;
#X connect 51 0 16 0;
#X connect 51 0 24 0;
#X connect 51 0 88 0;
#X connect 52 0 53 0;
#X connect 52 1 67 0;
#X connect 53 0 51 0;
#X connect 54 0 60 0;
#X connect 54 0 71 0;
#X connect 55 0 75 0;
#X connect 56 0 54 0;
#X connect 57 0 69 0;
#X connect 57 0 87 0;
#X connect 58 0 62 1;
#X connect 59 0 57 0;
#X connect 60 0 61 0;
#X connect 61 0 66 0;
#X connect 62 0 53 1;
#X connect 62 0 74 0;
#X connect 63 0 76 1;
#X connect 64 0 75 1;
#X connect 65 0 75 1;
#X connect 66 0 70 0;
#X connect 67 0 68 0;
#X connect 68 0 56 0;
#X connect 69 0 59 1;
#X connect 70 0 59 0;
#X connect 71 0 55 0;
#X connect 72 0 64 0;
#X connect 73 0 63 0;
#X connect 75 0 62 0;
#X connect 76 0 58 0;
#X connect 77 0 76 1;
#X connect 78 0 80 0;
#X connect 79 0 78 0;
#X connect 80 0 70 1;
#X connect 81 0 80 0;
#X connect 82 0 52 0;
#X connect 84 0 82 0;
#X connect 87 0 76 0;
#X restore 577 181 pd metro;
#X text 704 214 Master Metro Module. Only use one for each Modular
Patch. Sends 24 ticks per Beat (master-ticks). Sends a Beat count relative
to set time signature (master-beats). master-timeSig sends how many
beats in a measure to use in other modules;
#X obj 588 436 s master-bpm;
#X obj 490 465 i;
#X obj 672 465 i;
#X obj 803 465 i;
#X text 992 163 update row 5 only if active module;
#X obj 679 121 r c_bpm-\$1;
#X msg 633 595 Tempo 120 BPM;
#X msg 490 541 set Tempo \$1 BPM MIDI \;;
#X msg 672 541 set Tempo \$1 BPM \;;
#X msg 803 541 set Tempo \$1 BPM LINK \;;
#X obj 490 503 t b f;
#X obj 672 503 t b f;
#X obj 803 503 t b f;
#X obj 636 680 s aux-label-\$1;
#X obj 602 389 f;
#X obj 673 350 r loadbang-global;
#X obj 834 308 r c_swing8-\$1;
#X obj 944 309 r c_swing16-\$1;
#X obj 1062 311 r c_bpm-\$1;
#X obj 1058 332 expr 1000/($f1/60);
#X obj 1050 359 / 2;
#X obj 1001 366 / 4;
#X obj 935 522 s delay8-\$1;
#X obj 1032 520 s delay16-\$1;
#X obj 1047 394 t b f;
#X obj 972 399 t b f;
#X obj 1018 426 f 0;
#X obj 953 439 f 0;
#X obj 954 467 *;
#X obj 862 355 / 100;
#X obj 922 354 / 100;
#X obj 1040 469 *;
#X floatatom 1043 493 5 0 0 0 - - -;
#X floatatom 947 492 5 0 0 0 - - -;
#X obj 838 370 nbx 5 14 -1e+037 1e+037 0 0 empty empty empty 0 -8 0
10 -262144 -1 -1 0 256;
#X obj 1117 374 nbx 5 14 -1e+037 1e+037 0 0 empty empty empty 0 -8
0 10 -262144 -1 -1 0 256;
#X obj 246 263 notein;
#X obj 336 409 multicycle 12;
#X obj 226 311 pack 0 0 0;
#X msg 397 507 selectpage \$1;
#X obj 397 528 s rackMsgs;
#X obj 903 80 t b l;
#X obj 1111 10 r rackSavePreset;
#N canvas 119 225 803 448 presetDir 0;
#X obj 88 153 s rackMsgs;
#X obj 88 106 symbol \$1;
#X msg 88 128 getsetting currentPreset Defaut rackCurrentPreset-\$1
;
#X obj 88 181 r rackCurrentPreset;
#X obj 215 181 r rackCurrentPreset-\$1;
#X obj 87 215 symbol \$1;
#X obj 442 163 s rackMsgs;
#X obj 442 113 symbol \$1;
#X obj 204 50 r loadbang-\$1;
#X obj 442 186 r rackDataDir;
#X obj 535 189 r rackDataDir-\$1;
#X msg 442 138 getsetting dataDir ./data rackDataDir-\$1;
#X obj 441 219 symbol \$1;
#X obj 249 276 pack s s s;
#X obj 255 210 symbol \$1;
#X obj 205 76 t b b b;
#X obj 444 71 bng 15 250 50 0 empty empty empty 17 7 0 10 -262144 -1
-1;
#X obj 71 67 bng 15 250 50 0 empty empty empty 17 7 0 10 -262144 -1
-1;
#X obj 114 243 t b b s;
#X obj 255 232 t b s;
#X obj 111 387 outlet;
#X obj 219 386 outlet;
#X text 81 25 track preset directory and bang on change;
#X connect 1 0 2 0;
#X connect 2 0 0 0;
#X connect 3 0 5 0;
#X connect 4 0 5 0;
#X connect 5 0 18 0;
#X connect 7 0 11 0;
#X connect 8 0 15 0;
#X connect 9 0 12 0;
#X connect 10 0 12 0;
#X connect 11 0 6 0;
#X connect 12 0 13 0;
#X connect 13 0 21 0;
#X connect 14 0 19 0;
#X connect 15 0 1 0;
#X connect 15 1 14 0;
#X connect 15 2 7 0;
#X connect 16 0 7 0;
#X connect 17 0 1 0;
#X connect 18 0 20 0;
#X connect 18 1 13 0;
#X connect 18 2 13 1;
#X connect 19 0 13 0;
#X connect 19 1 13 2;
#X restore 910 21 pd presetDir;
#N canvas 103 262 721 484 savePreset 0;
#X obj 343 124 r saveState;
#X obj 252 232 list;
#X obj 146 127 unpack s s s;
#X obj 251 167 pack s s s;
#X obj 272 127 symbol \$1;
#X obj 113 96 list;
#X obj 233 101 t b b a b;
#X obj 106 54 inlet;
#X obj 258 286 outlet;
#X obj 229 39 inlet;
#X connect 0 0 1 0;
#X connect 1 0 8 0;
#X connect 2 0 3 0;
#X connect 2 2 3 2;
#X connect 3 0 1 1;
#X connect 4 0 3 1;
#X connect 5 0 2 0;
#X connect 6 0 1 0;
#X connect 6 1 3 0;
#X connect 6 2 4 0;
#X connect 6 3 5 0;
#X connect 7 0 5 1;
#X connect 9 0 6 0;
#X restore 972 87 pd savePreset;
#X msg 814 143 load \$1/presets/\$2/\$3-midicyle.bin;
#X msg 968 122 save \$1/presets/\$2/\$3-midicyle.bin;
#X obj 325 113 r master-ticks-\$1;
#X msg 447 234 tick \$1;
#X obj 372 187 t f f;
#X obj 348 225 s master-ticks;
#X obj 360 458 s aux-label-\$1;
#N canvas -3 152 1366 725 params 0;
#X obj 116 52 r mc_beats-\$1;
#X msg 144 135 loop \$1;
#X obj 181 77 r mc_quantize-\$1;
#X msg 189 107 quantize \$1;
#X obj 37 141 r mc_overdub-\$1;
#X msg 48 166 overdub \$1;
#X obj 241 15 r mc_inchan-\$1;
#X msg 281 63 src \$1;
#X obj 184 255 outlet;
#X msg 480 197 dest 2 \$1;
#X msg 479 111 dest 0 \$1;
#X msg 481 153 dest 1 \$1;
#X msg 484 239 dest 3 \$1;
#X obj 480 90 r mc_chan_1-\$1;
#X obj 479 129 r mc_chan_2-\$1;
#X obj 477 178 r mc_chan_3-\$1;
#X obj 474 215 r mc_chan_4-\$1;
#X obj 580 87 r mc_chan_5-\$1;
#X obj 582 126 r mc_chan_6-\$1;
#X obj 577 175 r mc_chan_7-\$1;
#X obj 574 212 r mc_chan_8-\$1;
#X obj 681 87 r mc_chan_9-\$1;
#X obj 679 127 r mc_chan_10-\$1;
#X obj 677 176 r mc_chan_11-\$1;
#X obj 674 214 r mc_chan_12-\$1;
#X msg 579 108 dest 4 \$1;
#X msg 582 149 dest 5 \$1;
#X msg 580 194 dest 6 \$1;
#X msg 584 237 dest 7 \$1;
#X msg 679 109 dest 8 \$1;
#X msg 681 151 dest 9 \$1;
#X msg 680 195 dest 10 \$1;
#X msg 684 237 dest 11 \$1;
#X obj 869 6 r mc_trans_1-\$1;
#X obj 972 4 r mc_trans_5-\$1;
#X obj 1071 2 r mc_trans_9-\$1;
#X obj 869 43 r mc_trans_2-\$1;
#X obj 972 39 r mc_trans_6-\$1;
#X obj 1069 40 r mc_trans_10-\$1;
#X obj 867 92 r mc_trans_3-\$1;
#X obj 967 89 r mc_trans_7-\$1;
#X obj 1067 90 r mc_trans_11-\$1;
#X obj 864 129 r mc_trans_4-\$1;
#X obj 964 126 r mc_trans_8-\$1;
#X obj 1064 128 r mc_trans_12-\$1;
#X msg 869 25 transpose 0 \$1;
#X msg 969 22 transpose 4 \$1;
#X msg 1069 23 transpose 8 \$1;
#X msg 871 68 transpose 1 \$1;
#X msg 973 63 transpose 5 \$1;
#X msg 1071 66 transpose 9 \$1;
#X msg 870 107 transpose 2 \$1;
#X msg 970 108 transpose 6 \$1;
#X msg 1070 109 transpose 10 \$1;
#X msg 874 154 transpose 3 \$1;
#X msg 974 151 transpose 7 \$1;
#X msg 1074 151 transpose 11 \$1;
#X connect 0 0 1 0;
#X connect 1 0 8 0;
#X connect 2 0 3 0;
#X connect 3 0 8 0;
#X connect 4 0 5 0;
#X connect 5 0 8 0;
#X connect 6 0 7 0;
#X connect 7 0 8 0;
#X connect 9 0 8 0;
#X connect 10 0 8 0;
#X connect 11 0 8 0;
#X connect 12 0 8 0;
#X connect 13 0 10 0;
#X connect 14 0 11 0;
#X connect 15 0 9 0;
#X connect 16 0 12 0;
#X connect 17 0 25 0;
#X connect 18 0 26 0;
#X connect 19 0 27 0;
#X connect 20 0 28 0;
#X connect 21 0 29 0;
#X connect 22 0 30 0;
#X connect 23 0 31 0;
#X connect 24 0 32 0;
#X connect 25 0 8 0;
#X connect 26 0 8 0;
#X connect 27 0 8 0;
#X connect 28 0 8 0;
#X connect 29 0 8 0;
#X connect 30 0 8 0;
#X connect 31 0 8 0;
#X connect 32 0 8 0;
#X connect 33 0 45 0;
#X connect 34 0 46 0;
#X connect 35 0 47 0;
#X connect 36 0 48 0;
#X connect 37 0 49 0;
#X connect 38 0 50 0;
#X connect 39 0 51 0;
#X connect 40 0 52 0;
#X connect 41 0 53 0;
#X connect 42 0 54 0;
#X connect 43 0 55 0;
#X connect 44 0 56 0;
#X connect 45 0 8 0;
#X connect 46 0 8 0;
#X connect 47 0 8 0;
#X connect 48 0 8 0;
#X connect 49 0 8 0;
#X connect 50 0 8 0;
#X connect 51 0 8 0;
#X connect 52 0 8 0;
#X connect 53 0 8 0;
#X connect 54 0 8 0;
#X connect 55 0 8 0;
#X connect 56 0 8 0;
#X restore 123 363 pd params;
#N canvas -8 -8 1366 725 note_aux 0;
#X obj 141 127 r auxIn-\$1;
#X obj 140 150 r expIn-\$1;
#X obj 140 175 r fsIn-\$1;
#X msg 214 339 key \$1 \$2;
#X msg 302 320 aux \$1;
#X obj 217 128 r onotes;
#X obj 448 85 r activeModule;
#X obj 448 111 route \$1;
#X msg 448 131 1;
#X msg 486 157 0;
#X obj 215 207 spigot 0;
#X obj 354 30 r oencbut;
#X obj 185 450 outlet;
#X obj 339 98 == 0;
#X obj 229 149 spigot 1;
#X obj 326 152 r oaux;
#X obj 306 254 spigot 0;
#X obj 310 218 spigot 1;
#X connect 3 0 12 0;
#X connect 4 0 12 0;
#X connect 5 0 14 0;
#X connect 6 0 7 0;
#X connect 7 0 8 0;
#X connect 7 1 9 0;
#X connect 8 0 10 1;
#X connect 8 0 16 1;
#X connect 9 0 10 1;
#X connect 9 0 16 1;
#X connect 10 0 3 0;
#X connect 11 0 13 0;
#X connect 13 0 14 1;
#X connect 13 0 17 1;
#X connect 14 0 10 0;
#X connect 15 0 17 0;
#X connect 16 0 4 0;
#X connect 17 0 16 0;
#X restore 130 389 pd note_aux;
#N canvas -8 -8 1366 725 noteout 0;
#X obj 259 90 inlet;
#X obj 208 438 s notesOut-\$1;
#X obj 115 344 s notesIn-a1;
#X obj 114 368 s notesIn-a2;
#X obj 114 394 s notesIn-a3;
#X obj 203 341 s notesIn-b1;
#X obj 202 365 s notesIn-b2;
#X obj 202 391 s notesIn-b3;
#X obj 202 413 s notesIn-b4;
#X obj 303 349 s notesIn-c1;
#X obj 300 373 s notesIn-c2;
#X obj 301 399 s notesIn-c3;
#X obj 398 300 unpack 0 0 0;
#X obj 432 445 noteout;
#X obj 200 281 route 1 2 3 4 5 6 7 8 9 10;
#X text 444 386 todo: fix numbering?;
#X obj 486 338 - 10;
#X msg 214 161 \$1 \$2 \$3 0;
#X msg 390 266 \$2 \$3 \$1;
#X connect 0 0 17 0;
#X connect 12 0 13 0;
#X connect 12 1 13 1;
#X connect 12 2 16 0;
#X connect 14 0 2 0;
#X connect 14 1 3 0;
#X connect 14 2 4 0;
#X connect 14 3 5 0;
#X connect 14 4 6 0;
#X connect 14 5 7 0;
#X connect 14 6 8 0;
#X connect 14 7 9 0;
#X connect 14 8 10 0;
#X connect 14 9 11 0;
#X connect 14 10 18 0;
#X connect 16 0 13 2;
#X connect 17 0 14 0;
#X connect 18 0 12 0;
#X restore 237 457 pd noteout;
#X obj 252 202 s aux-led-\$1;
#X obj 258 150 sel 0 12;
#X msg 252 171 5, f 1;
#X msg 281 176 0, f 5;
#X obj 928 62 list;
#N canvas -8 -8 1366 725 activepage 0;
#X obj 129 243 sel \$1;
#X obj 167 215 unpack s s;
#X obj 167 70 r activePage;
#X msg 119 295 1;
#X msg 155 273 0;
#X obj 167 93 t b a;
#X obj 178 168 list;
#X obj 168 190 t l l;
#X obj 32 244 unpack s s;
#X obj 101 397 spigot 0;
#X msg 113 469 activepage \$1;
#X obj 98 534 outlet;
#X obj 255 538 outlet;
#X obj 117 126 del 250;
#X obj 242 118 del 700;
#X connect 0 0 3 0;
#X connect 0 1 4 0;
#X connect 1 0 0 0;
#X connect 2 0 5 0;
#X connect 3 0 9 1;
#X connect 4 0 9 1;
#X connect 5 0 6 0;
#X connect 5 0 13 0;
#X connect 5 0 14 0;
#X connect 5 1 6 1;
#X connect 6 0 7 0;
#X connect 7 0 8 0;
#X connect 7 1 1 0;
#X connect 8 1 9 0;
#X connect 9 0 10 0;
#X connect 9 0 12 0;
#X connect 10 0 11 0;
#X connect 13 0 6 0;
#X connect 14 0 6 0;
#X restore 98 219 pd activepage;
#X msg 217 337 note \$3 \$1 \$2;
#X obj 61 338 sel 0;
#N canvas -8 -8 1366 725 click 0;
#X obj 22 324 tabplay~ \$0-clicktab;
#X obj 152 299 r c_clickvol_l-\$1;
#X obj 162 321 r c_clickvol_r-\$1;
#X obj 13 294 spigot 0;
#X obj 20 146 inlet;
#X obj 117 412 +;
#X obj 133 368 f;
#X obj 197 365 t b f;
#X obj 257 494 t f f;
#X obj 256 554 *;
#X obj 255 442 / 100;
#X obj 309 496 t f f;
#X obj 308 556 *;
#X obj 307 444 / 100;
#X obj 114 616 *~;
#X obj 214 602 *~;
#X obj 116 660 throw~ ooutL;
#X obj 209 660 throw~ ooutR;
#X obj 116 434 > 0;
#X obj 875 286 sf;
#N canvas 0 50 450 250 (subpatch) 0;
#X array \$0-clicktab 456 float 3;
#A 0 -3.05176e-005 0.000793457 0.000762939 0.000854492 0.00213623 0.00146484
0.0010376 0.00119019 -0.000457764 -0.000579834 -0.000366211 -0.00195313
-0.00189209 -0.00167847 -0.00234985 -0.00177002 -0.00180054 -0.000915527
0.00216675 0.00650024 0.0067749 -0.00378418 -0.00524902 0.00823975
0.000701904 -0.0296021 -0.0477295 -0.0596924 -0.069458 -0.0528564 -0.0174255
0.0177307 0.0471802 0.0717163 0.0950012 0.104431 0.0839844 0.0458679
0.00189209 -0.0422668 -0.0522156 -0.0302429 -0.0267334 -0.0391846 -0.0197144
0.0266113 0.0523987 0.0453491 0.0263062 0.000549316 -0.0422974 -0.0809937
-0.0909729 -0.0765991 -0.0463562 -0.022583 -0.0104065 0.0188904 0.0762634
0.12793 0.121246 0.0429688 -0.0309448 -0.0264587 0.000946045 -0.0184631
-0.045929 -0.0184021 0.0550232 0.11499 0.121277 0.0784912 0.0210876
-0.0391846 -0.0871887 -0.0974121 -0.090332 -0.086731 -0.0588684 0.00662231
0.0717163 0.119171 0.138794 0.0954285 0.00946045 -0.0540771 -0.0802612
-0.0991211 -0.123047 -0.111328 -0.0237122 0.0835266 0.12677 0.112518
0.0918884 0.0689087 0.0152893 -0.0719604 -0.143829 -0.148682 -0.103119
-0.0461121 0.0176392 0.0990295 0.191193 0.24527 0.217255 0.140503 0.0671082
-0.00537109 -0.0878296 -0.153717 -0.164185 -0.111145 -0.044281 -0.0131226
0.0065918 0.0467224 0.0757751 0.0556641 0.00170898 -0.0440063 -0.0632629
-0.0552368 -0.0386353 -0.0471497 -0.0679016 -0.0401611 0.0455933 0.11087
0.0967407 0.0372925 -0.00253296 -0.0173035 -0.0296326 -0.0342407 -0.0379333
-0.0506592 -0.0345154 0.0418091 0.113251 0.107056 0.0728455 0.0999756
0.164886 0.157623 0.0576782 -0.0264282 -0.0222473 -0.00592041 -0.0683289
-0.135834 -0.137177 -0.110962 -0.0635681 -0.0568848 -0.135071 -0.158539
-0.0534058 0.033844 -0.000823975 -0.0743713 -0.0682068 0.047821 0.147522
0.126831 0.0612183 0.0318298 0.0398865 0.059845 0.0392761 -0.0101318
0.000152588 0.0371094 0.0263367 0.0291748 0.0977783 0.161194 0.126984
0.00177002 -0.085907 -0.0724792 -0.0596619 -0.106842 -0.141022 -0.10318
-0.0245056 0.0415344 0.071106 0.0549622 0.00192261 -0.0306091 -0.017334
-0.0248718 -0.0663147 -0.08078 -0.0459595 0.0172424 0.0732117 0.102173
0.115326 0.115845 0.0865784 0.0209351 -0.0610962 -0.108368 -0.0842896
-0.0221863 0.00939941 0.00259399 0.0292969 0.115936 0.168304 0.114746
0.00146484 -0.092926 -0.131439 -0.131714 -0.124512 -0.09552 -0.027771
0.0516968 0.111542 0.142578 0.150879 0.137604 0.0771484 -0.0157776
-0.0863647 -0.131195 -0.154205 -0.129486 -0.0598755 0.0164185 0.0678101
0.10498 0.149109 0.146271 0.0513916 -0.0643005 -0.131073 -0.167328
-0.209747 -0.238403 -0.192078 -0.0560303 0.0869751 0.149323 0.152557
0.15979 0.152008 0.0768127 -0.0343933 -0.0891724 -0.0733948 -0.0643921
-0.0758972 -0.0276489 0.0888367 0.165161 0.155762 0.132935 0.118469
0.0575867 -0.0477905 -0.127014 -0.135437 -0.103821 -0.0722656 -0.0190125
0.0649719 0.127716 0.134613 0.109192 0.0764465 0.0354919 -0.0203247
-0.0741882 -0.100494 -0.0999756 -0.0848999 -0.0602417 -0.0150757 0.0522156
0.111176 0.108765 0.0445862 -0.00726318 -0.0173035 -0.024231 -0.0516357
-0.0767822 -0.0664368 -0.0271912 0.016449 0.0600586 0.0869446 0.0873413
0.0812683 0.0671692 0.0349426 0.00143433 -0.0238953 -0.056366 -0.0861816
-0.0682068 -0.00579834 0.0410461 0.0452271 0.0397949 0.0423279 0.0344543
0.0232239 0.0107727 -0.0178833 -0.0450745 -0.0455017 -0.0261536 -0.0093689
0.00546265 0.0216675 0.0313721 0.0348816 0.0341797 0.0265503 0.0187683
0.0145874 -0.00201416 -0.0338135 -0.0491638 -0.0283813 0.00271606 0.0114441
0.0142517 0.0381165 0.0606079 0.0546265 0.040741 0.0325012 0.0115356
-0.0249939 -0.0449524 -0.0198059 0.0209351 0.0274658 0.0143127 0.0231934
0.0476379 0.0617676 0.0457764 0.0072937 -0.0153809 -0.00924683 0.00598145
0.00604248 -0.0085144 -0.000823975 0.0297546 0.0452576 0.0480042 0.0496216
0.0368347 0.0121155 0.00442505 0.026001 0.0411377 0.0271301 0.00195313
-0.0108643 -0.0123596 -0.0112305 0.00378418 0.00488281 -0.0335693 -0.0564575
-0.0271301 0.0200195 0.0292053 0.00546265 0.0168762 0.0696106 0.115967
0.111145 0.0608826 0.0334167 0.0473022 0.035553 -0.0210571 -0.0530396
-0.0280151 0.00167847 -0.0110779 -0.0263367 0.0093689 0.0756836 0.112579
0.0730896 -0.00360107 -0.0245972 0.0144958 0.0189209 -0.0508423 -0.0986023
-0.0550537 0.0128479 0.0361328 0.024231 0.0045166 0.00881958 0.0464172
0.0610657 0.00604248 -0.0549011 -0.0450134 -0.0205994 -0.0503235 -0.0723877
-0.0151062 0.0694275 0.104645 0.106262 0.110718 0.099823 0.0530701
-0.0124817 -0.0997009 -0.185944 -0.179657 -0.075592 0.0125732 0.0429382
0.0922546 0.179596 0.219452 0.176605 0.0762939 -0.0540161 -0.150024
-0.170837 -0.161316 -0.161194 -0.114227 0.0201721 0.146088 0.170197
0.143921 0.137787 0.120148 0.0285712 0.0285712 0.0285712 0.0285712
0.0285712 0.00799996 0.00799996 0.00799996;
#X coords 0 1 456 -1 200 140 1 0 0;
#X restore 831 151 graph;
#X connect 0 0 14 0;
#X connect 0 0 15 0;
#X connect 1 0 10 0;
#X connect 1 0 6 0;
#X connect 2 0 5 1;
#X connect 2 0 7 0;
#X connect 2 0 13 0;
#X connect 3 0 0 0;
#X connect 4 0 3 0;
#X connect 5 0 18 0;
#X connect 6 0 5 0;
#X connect 7 0 6 0;
#X connect 7 1 5 1;
#X connect 8 0 9 0;
#X connect 8 1 9 1;
#X connect 9 0 14 1;
#X connect 10 0 8 0;
#X connect 11 0 12 0;
#X connect 11 1 12 1;
#X connect 12 0 15 1;
#X connect 13 0 11 0;
#X connect 14 0 16 0;
#X connect 15 0 17 0;
#X connect 18 0 3 1;
#X restore 68 438 pd click;
#X obj 88 573 outlet~ outL-\$1;
#X obj 197 573 outlet~ outR-\$1;
#X obj 167 63 symbol \$1;
#X msg 180 105 moduleid \$1;
#X obj 47 88 unpack s s;
#X obj 47 18 r activePage;
#X msg 47 109 activemodule \$1;
#X msg 326 318 knobraw 3 \$1;
#X msg 438 327 knobraw 4 \$1;
#X obj 326 280 r oknob3;
#X obj 439 289 r oknob4;
#X connect 0 0 3 0;
#X connect 0 0 73 0;
#X connect 3 0 5 0;
#X connect 5 0 8 0;
#X connect 5 0 21 0;
#X connect 5 1 21 0;
#X connect 5 1 9 0;
#X connect 5 2 10 0;
#X connect 5 2 21 0;
#X connect 8 0 17 0;
#X connect 9 0 18 0;
#X connect 10 0 19 0;
#X connect 12 0 5 1;
#X connect 13 0 20 0;
#X connect 14 0 13 0;
#X connect 15 0 13 0;
#X connect 16 0 13 0;
#X connect 17 0 13 0;
#X connect 17 1 14 0;
#X connect 18 0 13 0;
#X connect 18 1 15 0;
#X connect 19 0 13 0;
#X connect 19 1 16 0;
#X connect 21 0 7 0;
#X connect 22 0 21 0;
#X connect 23 0 36 0;
#X connect 23 0 41 0;
#X connect 24 0 37 0;
#X connect 25 0 26 0;
#X connect 26 0 27 0;
#X connect 26 0 28 0;
#X connect 26 0 42 0;
#X connect 27 0 31 0;
#X connect 28 0 32 0;
#X connect 31 0 33 0;
#X connect 31 1 38 1;
#X connect 32 0 34 0;
#X connect 32 1 35 1;
#X connect 33 0 38 0;
#X connect 34 0 35 0;
#X connect 35 0 40 0;
#X connect 36 0 34 0;
#X connect 37 0 33 0;
#X connect 38 0 39 0;
#X connect 39 0 30 0;
#X connect 40 0 29 0;
#X connect 43 0 45 0;
#X connect 43 1 45 1;
#X connect 43 2 45 2;
#X connect 44 0 61 0;
#X connect 44 1 58 0;
#X connect 45 0 68 0;
#X connect 46 0 47 0;
#X connect 48 1 52 0;
#X connect 49 0 51 1;
#X connect 50 0 66 0;
#X connect 50 1 51 0;
#X connect 50 1 66 1;
#X connect 51 0 53 0;
#X connect 52 0 44 0;
#X connect 53 0 44 0;
#X connect 54 0 56 0;
#X connect 54 0 63 0;
#X connect 54 0 69 0;
#X connect 55 0 44 0;
#X connect 56 0 57 0;
#X connect 56 1 55 0;
#X connect 59 0 44 0;
#X connect 60 0 44 0;
#X connect 63 0 64 0;
#X connect 63 1 65 0;
#X connect 64 0 62 0;
#X connect 65 0 62 0;
#X connect 66 0 48 0;
#X connect 67 0 44 0;
#X connect 68 0 44 0;
#X connect 69 0 70 0;
#X connect 73 0 74 0;
#X connect 74 0 44 0;
#X connect 75 0 77 0;
#X connect 76 0 75 0;
#X connect 77 0 44 0;
#X connect 78 0 44 0;
#X connect 79 0 44 0;
#X connect 80 0 78 0;
#X connect 81 0 79 0;
