#N canvas 470 50 1377 998 10;
#X declare -path cg-pd-library-local/sampling;
#X declare -path cg-pd-library-local/sequencer;
#X declare -path cg-pd-library-local/externals;
#X declare -path cg-pd-library-local/metronome;
#X declare -path samp;
#X text 210 710 Sound out;
#X text 111 47 init sequence;
#X text 192 96 critter library of abstractions;
#N canvas 4 50 1440 775 record 1;
#X msg 640 419 start;
#X msg 514 355 stop;
#X obj 379 626 cg-time-count;
#X obj 346 422 v global-sample-count;
#X obj 703 415 v global-sample-count;
#X obj 703 436 + 1;
#X msg 703 470 num \$1;
#X obj 379 550 unpack 0 0;
#X obj 379 678 pack 0 0 0;
#X obj 379 647 unpack;
#X obj 415 257 sel 0 1, f 62;
#X msg 379 700 Record \$3.wav \$1:\$2;
#X obj 244 285 r init-sample-ct;
#X obj 561 316 t b b b, f 19;
#X obj 561 368 v global-rec-status;
#X obj 561 337 f 1;
#X obj 377 302 t b b b;
#X obj 350 363 v global-rec-status;
#X obj 350 332 f 0;
#X obj 379 571 t a a a;
#X obj 642 527 sel 1;
#X obj 671 569 spigot 0;
#X obj 671 610 t b b;
#X msg 736 589 0;
#X obj 506 615 sel 1, f 13;
#X obj 506 658 f 1;
#X obj 581 661 f 0;
#X obj 533 690 f;
#X obj 506 636 t b b;
#X obj 581 640 t b b;
#X obj 701 496 r notes;
#X obj 701 517 stripnote;
#X obj 701 538 t b;
#X obj 1342 811 s oscOut;
#X obj 61 72 inlet~;
#X obj 256 132 inlet~;
#X obj 155 247 +~;
#X obj 562 69 r auxIn-\$1;
#X obj 316 746 s aux-label-\$1;
#X obj 254 633 s aux-led-\$1;
#X obj 295 310 bng 15 250 50 0 empty empty empty 17 7 0 10 -262144
-1 -1;
#X obj 396 86 r bounce-\$1;
#X obj 258 187 *~;
#X obj 315 219 r loadbang-\$1;
#X obj 645 57 r fsIn-\$1;
#X obj 576 150 sel 1;
#X obj 568 183 bng 15 250 50 0 empty empty empty 17 7 0 10 -262144
-1 -1;
#X obj 529 219 tgl 15 0 empty empty empty 17 7 0 10 -262144 -1 -1 0
1;
#X obj 173 171 *~;
#X obj 212 69 r rec_in-\$1;
#X obj 919 88 ctlin;
#X floatatom 873 125 5 0 0 0 - - -;
#X floatatom 927 124 5 0 0 0 - - -;
#X floatatom 978 127 5 0 0 0 - - -;
#X obj 927 143 sel 70;
#X obj 927 169 spigot;
#X obj 926 195 spigot;
#X obj 850 220 bng 15 250 50 0 empty empty empty 17 7 0 10 -262144
-1 -1;
#X obj 978 145 == 2;
#X obj 873 143 == 0;
#X obj 379 529 cg-writeSf~ /tmp/media/oracloops;
#X obj 346 401 cg-count-sf /tmp/media/oracloops;
#X connect 0 0 60 1;
#X connect 1 0 60 1;
#X connect 2 0 9 0;
#X connect 4 0 5 0;
#X connect 5 0 6 0;
#X connect 6 0 60 1;
#X connect 7 0 19 0;
#X connect 7 1 8 2;
#X connect 8 0 11 0;
#X connect 9 0 8 0;
#X connect 9 1 8 1;
#X connect 10 0 16 0;
#X connect 10 1 13 0;
#X connect 11 0 38 0;
#X connect 12 0 61 0;
#X connect 13 0 15 0;
#X connect 13 1 0 0;
#X connect 13 2 4 0;
#X connect 15 0 14 0;
#X connect 16 0 18 0;
#X connect 16 1 61 0;
#X connect 16 2 1 0;
#X connect 18 0 17 0;
#X connect 19 0 39 0;
#X connect 19 1 2 0;
#X connect 19 2 24 0;
#X connect 20 0 21 0;
#X connect 21 0 22 0;
#X connect 22 1 23 0;
#X connect 23 0 21 1;
#X connect 24 0 28 0;
#X connect 24 1 29 0;
#X connect 25 0 27 0;
#X connect 26 0 27 0;
#X connect 27 0 21 1;
#X connect 28 0 25 0;
#X connect 29 0 26 0;
#X connect 30 0 31 0;
#X connect 31 0 32 0;
#X connect 32 0 21 0;
#X connect 34 0 48 0;
#X connect 35 0 42 0;
#X connect 36 0 60 0;
#X connect 37 0 45 0;
#X connect 40 0 61 0;
#X connect 41 0 42 1;
#X connect 42 0 36 1;
#X connect 43 0 61 0;
#X connect 44 0 45 0;
#X connect 45 0 46 0;
#X connect 46 0 47 0;
#X connect 47 0 10 0;
#X connect 48 0 36 0;
#X connect 49 0 48 1;
#X connect 50 0 51 0;
#X connect 50 1 52 0;
#X connect 50 2 53 0;
#X connect 51 0 59 0;
#X connect 52 0 54 0;
#X connect 53 0 58 0;
#X connect 54 0 55 0;
#X connect 55 0 56 0;
#X connect 56 0 57 0;
#X connect 57 0 47 0;
#X connect 58 0 55 1;
#X connect 59 0 56 1;
#X connect 60 0 7 0;
#X connect 61 0 3 0;
#X restore 50 493 pd record;
#N canvas 1335 438 450 300 cg-pd-library-local 0;
#X obj 502 35 r cgSc-1-slots;
#X obj 60 68 declare -path cg-pd-library-local/sampling;
#X obj 60 98 declare -path cg-pd-library-local/sequencer;
#X obj 58 130 declare -path cg-pd-library-local/externals;
#X obj 59 165 declare -path cg-pd-library-local/metronome;
#X restore 51 94 pd cg-pd-library-local;
#N canvas 105 146 736 775 kb-commands 0;
#X obj 22 39 stripnote;
#X obj 23 18 inlet;
#X obj 34 292 s loop-1-start-\$1;
#X obj 307 273 s global-start-\$1;
#X obj 124 322 s loop-2-start-\$1;
#X obj 577 227 s global-stop-\$1;
#X obj 223 329 s loop-3-start-\$1;
#X obj 263 310 s loop-4-start-\$1;
#X obj 417 340 s loop-1-stop-\$1;
#X obj 476 312 s loop-2-stop-\$1;
#X obj 563 356 s loop-3-stop-\$1;
#X obj 618 317 s loop-4-stop-\$1;
#X obj 68 161 % 12;
#X obj 237 148 sel 0 1 2 3 4 5 6 7 8 9 10 11, f 48;
#X obj 856 72 r master-ticks;
#X obj 856 93 sel 0;
#X obj 856 114 f;
#X obj 883 114 + 1;
#X floatatom 856 135 5 0 0 0 - - -;
#X obj 856 155 % 4;
#X obj 716 388 r loop-1-quant-\$1;
#X obj 730 426 tgl 15 0 empty empty empty 17 7 0 10 -262144 -1 -1 0
1;
#X obj 858 233 sel 0;
#X msg 899 275 0;
#X msg 860 282 1;
#X obj 876 324 i;
#X floatatom 876 345 5 0 0 0 - - -;
#X obj 861 388 tgl 15 0 empty empty empty 17 7 0 10 -262144 -1 -1 0
1;
#X obj 778 469 spigot 0;
#X obj 791 511 tgl 15 0 empty empty empty 17 7 0 10 -262144 -1 -1 0
1;
#X floatatom 856 176 5 0 0 0 - - -;
#X obj 833 626 bng 15 250 50 0 empty empty empty 17 7 0 10 -262144
-1 -1;
#X obj 860 531 &&;
#X obj 864 570 tgl 15 0 empty empty empty 17 7 0 10 -262144 -1 -1 0
1;
#X obj 864 590 sel 1;
#X obj 170 442 r loop-1-start-\$1;
#X floatatom 170 463 5 0 0 0 - - -;
#X connect 0 0 12 0;
#X connect 1 0 0 0;
#X connect 12 0 13 0;
#X connect 13 0 2 0;
#X connect 13 1 4 0;
#X connect 13 2 6 0;
#X connect 13 3 7 0;
#X connect 13 4 3 0;
#X connect 13 5 8 0;
#X connect 13 6 9 0;
#X connect 13 7 10 0;
#X connect 13 8 11 0;
#X connect 13 9 5 0;
#X connect 14 0 15 0;
#X connect 15 0 16 0;
#X connect 16 0 17 0;
#X connect 16 0 18 0;
#X connect 17 0 16 1;
#X connect 18 0 19 0;
#X connect 19 0 30 0;
#X connect 20 0 21 0;
#X connect 21 0 28 1;
#X connect 22 0 24 0;
#X connect 22 1 23 0;
#X connect 23 0 25 0;
#X connect 24 0 25 0;
#X connect 25 0 26 0;
#X connect 26 0 27 0;
#X connect 27 0 32 0;
#X connect 28 0 29 0;
#X connect 30 0 22 0;
#X connect 32 0 33 0;
#X connect 33 0 34 0;
#X connect 34 0 31 0;
#X connect 35 0 36 0;
#X restore 292 181 pd kb-commands;
#X obj 75 181 inlet~;
#X obj 156 185 inlet~;
#X obj 67 750 outlet~;
#X obj 378 737 outlet~;
#X obj 81 240 *~ 0.5;
#X obj 289 138 r notesIn-\$1;
#X obj 494 177 r auxIn-\$1;
#X obj 423 208 r expIn-\$1;
#X obj 525 208 r fsIn-\$1;
#X obj 556 728 s aux-label-\$1;
#X obj 220 315 loop-voice 1 \$1;
#X obj 390 318 loop-voice 2 \$1;
#X obj 567 321 loop-voice 3 \$1;
#X obj 686 326 loop-voice 4 \$1;
#N canvas 855 151 406 725 activepage 0;
#X obj 129 243 sel \$1;
#X obj 167 215 unpack s s;
#X obj 167 70 r activePage;
#X msg 119 295 1;
#X msg 155 273 0;
#X obj 167 93 t b a;
#X obj 178 168 list;
#X obj 168 190 t l l;
#X obj 32 244 unpack s s;
#X obj 101 397 spigot 0;
#X msg 113 469 activepage \$1;
#X obj 98 534 outlet;
#X obj 255 538 outlet;
#X obj 242 118 del 700;
#X connect 0 0 3 0;
#X connect 0 1 4 0;
#X connect 1 0 0 0;
#X connect 2 0 5 0;
#X connect 3 0 9 1;
#X connect 4 0 9 1;
#X connect 5 0 6 0;
#X connect 5 0 13 0;
#X connect 5 1 6 1;
#X connect 6 0 7 0;
#X connect 7 0 8 0;
#X connect 7 1 1 0;
#X connect 8 1 9 0;
#X connect 9 0 10 0;
#X connect 9 0 12 0;
#X connect 10 0 11 0;
#X connect 13 0 6 0;
#X restore 702 215 pd activepage;
#X obj 533 552 f 0;
#X obj 571 550 f 0;
#X obj 616 555 f 0;
#X obj 678 541 f 0;
#X obj 549 468 t b b b b;
#X obj 520 635 list append;
#X obj 574 603 list append;
#X obj 620 577 list append;
#X obj 501 458 bng 15 250 50 0 empty empty empty 17 7 0 10 -262144
-1 -1;
#X msg 532 681 L1:\$1 L2:\$2 L3:\$3 L4:\$4;
#X obj 240 593 *~ 0.5;
#X text 111 462 bounce bus;
#X obj 40 134 declare -path samp;
#X obj 197 543 *~ 1;
#X obj 283 557 *~ 1;
#X obj 853 319 r loadbang-\$1;
#X obj 853 340 s loadbang;
#X obj 910 38 ctlin;
#X floatatom 937 75 5 0 0 0 - - -;
#X floatatom 989 77 5 0 0 0 - - -;
#X obj 937 94 - 32;
#X floatatom 937 113 5 0 0 0 - - -;
#X obj 990 100 == 2;
#X obj 906 200 sel 0 1 2 3 4 5 6 7;
#X obj 937 135 spigot;
#X floatatom 1004 132 5 0 0 0 - - -;
#X obj 795 253 s loop-1-start-\$1;
#X obj 909 253 s loop-2-start-\$1;
#X obj 793 278 s loop-3-start-\$1;
#X obj 907 278 s loop-4-start-\$1;
#X obj 1026 254 s loop-1-stop-\$1;
#X obj 1140 254 s loop-2-stop-\$1;
#X obj 1024 279 s loop-3-stop-\$1;
#X obj 1138 279 s loop-4-stop-\$1;
#X floatatom 879 76 5 0 0 0 - - -;
#X obj 937 156 spigot;
#X obj 837 180 bng 15 250 50 0 empty empty empty 17 7 0 10 -262144
-1 -1;
#X obj 879 96 == 0;
#X connect 6 0 10 0;
#X connect 7 0 10 0;
#X connect 10 0 3 0;
#X connect 11 0 5 0;
#X connect 16 0 34 0;
#X connect 16 1 35 0;
#X connect 16 2 21 1;
#X connect 17 0 34 0;
#X connect 17 1 35 0;
#X connect 17 2 22 1;
#X connect 18 0 34 0;
#X connect 18 1 35 0;
#X connect 18 2 23 1;
#X connect 19 0 34 0;
#X connect 19 1 35 0;
#X connect 19 2 24 1;
#X connect 20 0 25 0;
#X connect 21 0 26 0;
#X connect 22 0 27 0;
#X connect 23 0 28 0;
#X connect 24 0 28 1;
#X connect 25 0 21 0;
#X connect 25 1 22 0;
#X connect 25 2 23 0;
#X connect 25 3 24 0;
#X connect 26 0 30 0;
#X connect 27 0 26 1;
#X connect 28 0 27 1;
#X connect 29 0 25 0;
#X connect 30 0 15 0;
#X connect 31 0 3 1;
#X connect 34 0 31 0;
#X connect 34 0 8 0;
#X connect 35 0 31 0;
#X connect 35 0 9 0;
#X connect 36 0 37 0;
#X connect 38 0 55 0;
#X connect 38 1 39 0;
#X connect 38 2 40 0;
#X connect 39 0 41 0;
#X connect 40 0 43 0;
#X connect 41 0 42 0;
#X connect 42 0 45 0;
#X connect 43 0 45 1;
#X connect 43 0 46 0;
#X connect 44 0 47 0;
#X connect 44 1 48 0;
#X connect 44 2 49 0;
#X connect 44 3 50 0;
#X connect 44 4 51 0;
#X connect 44 5 52 0;
#X connect 44 6 53 0;
#X connect 44 7 54 0;
#X connect 45 0 56 0;
#X connect 55 0 58 0;
#X connect 56 0 44 0;
#X connect 56 0 57 0;
#X connect 58 0 56 1;
