#N canvas 82 105 1358 693 10;
#X obj 304 186 r notesIn-\$1;
#X obj 304 491 s notesOut-\$1;
#X obj 25 186 inlet~ inL-\$1;
#X obj 135 186 inlet~ inR-\$1;
#X obj 27 491 outlet~ outL-\$1;
#X obj 136 491 outlet~ outR-\$1;
#X obj 424 185 r auxIn-\$1;
#X obj 423 208 r expIn-\$1;
#X obj 423 233 r fsIn-\$1;
#X obj 501 347 r bpm;
#X obj 28 451 +~;
#X obj 135 452 +~;
#X obj 65 323 subharmonicosc \$1;
#X obj 179 244 pack 0 0 0;
#X obj 76 344 subharmonicosc \$1;
#X obj 196 323 subharmonicosc \$1;
#X obj 203 345 subharmonicosc \$1;
#X obj 179 223 poly 4 1;
#X obj 179 265 route 1 2 3 4;
#X connect 0 0 1 0;
#X connect 0 0 17 0;
#X connect 2 0 10 0;
#X connect 3 0 11 0;
#X connect 10 0 4 0;
#X connect 11 0 5 0;
#X connect 12 0 10 1;
#X connect 12 0 11 1;
#X connect 13 0 18 0;
#X connect 14 0 10 1;
#X connect 14 0 11 1;
#X connect 15 0 10 1;
#X connect 15 0 11 1;
#X connect 16 0 10 1;
#X connect 16 0 11 1;
#X connect 17 0 13 0;
#X connect 17 1 13 1;
#X connect 17 2 13 2;
#X connect 18 0 12 0;
#X connect 18 1 14 0;
#X connect 18 2 15 0;
#X connect 18 3 16 0;
