#N canvas 0 23 1366 725 12;
#X obj 35 23 inlet;
#X obj 35 79 mtof;
#X obj 35 614 *~;
#X obj 35 47 unpack;
#X obj 36 693 outlet~;
#X msg 725 143 stop;
#X obj 724 283 line~;
#X obj 780 119 bng 15 250 50 0 empty empty empty 17 7 0 10 -262144
-1 -1;
#X obj 635 88 sel 0;
#X obj 630 143 / 127;
#X obj 591 192 pack f f;
#X obj 687 178 *;
#X obj 724 228 spigot;
#X msg 723 198 1;
#X msg 764 199 0;
#X obj 802 249 pack f f;
#X obj 724 252 pack f f;
#X obj 688 133 bng 15 250 50 0 empty empty empty 17 7 0 10 -262144
-1 -1;
#X obj 725 167 del 500;
#X obj 656 188 bng 15 250 50 0 empty empty empty 17 7 0 10 -262144
-1 -1;
#X obj 705 67 / 100;
#X obj 705 43 r sustain-\$1;
#X obj 545 150 r attack-\$1;
#X obj 848 144 r decay-\$1;
#X obj 855 220 r release-\$1;
#X obj 821 186 +;
#X obj 820 161 bng 15 250 50 0 empty empty empty 17 7 0 10 -262144
-1 -1;
#X obj 35 566 +~;
#X obj 63 428 *~;
#X obj 146 305 r osc1mix-\$1;
#X obj 209 112 sel 1;
#X obj 105 181 phasor~;
#X obj 35 103 sig~;
#X obj 195 204 expr~ $v1 > $v2;
#X obj 296 127 r pw-\$1;
#X obj 296 151 / 100;
#X obj 296 175 abs~;
#X obj 195 256 *~;
#X obj 105 257 *~;
#X obj 15 256 *~;
#X msg 22 230 1;
#X msg 54 230 0;
#X msg 117 230 1;
#X msg 149 230 0;
#X msg 210 230 1;
#X msg 242 230 0;
#X obj 241 140 sel 2;
#X obj 326 213 r div1-\$1;
#X obj 304 281 /;
#X obj 304 305 sig~;
#X obj 304 353 *~;
#X obj 361 331 r sub1mix-\$1;
#X obj 427 204 /;
#X obj 427 228 sig~;
#X obj 427 276 *~;
#X obj 425 84 r div2-\$1;
#X obj 484 254 r sub2mix-\$1;
#X obj 304 377 +~;
#X obj 209 88 r osc1wave-\$1;
#X obj 326 239 t b f;
#X obj 450 132 t b f;
#X obj 15 182 blsaw;
#X obj 304 329 blsaw;
#X obj 427 252 blsaw;
#X obj 54 660 *~ 0.002;
#X connect 0 0 3 0;
#X connect 1 0 32 0;
#X connect 1 0 48 0;
#X connect 1 0 52 0;
#X connect 2 0 64 0;
#X connect 3 0 1 0;
#X connect 3 1 8 0;
#X connect 5 0 18 0;
#X connect 6 0 2 1;
#X connect 7 0 5 0;
#X connect 7 0 14 0;
#X connect 7 0 15 0;
#X connect 8 0 7 0;
#X connect 8 1 9 0;
#X connect 8 1 17 0;
#X connect 9 0 10 0;
#X connect 9 0 11 0;
#X connect 10 0 6 0;
#X connect 11 0 12 0;
#X connect 12 0 16 0;
#X connect 13 0 12 1;
#X connect 13 0 19 0;
#X connect 14 0 12 1;
#X connect 15 0 6 0;
#X connect 16 0 6 0;
#X connect 17 0 18 0;
#X connect 18 0 13 0;
#X connect 19 0 11 0;
#X connect 20 0 11 1;
#X connect 21 0 20 0;
#X connect 22 0 10 1;
#X connect 22 0 18 1;
#X connect 22 0 25 0;
#X connect 23 0 25 1;
#X connect 23 0 26 0;
#X connect 24 0 15 1;
#X connect 25 0 16 1;
#X connect 26 0 25 0;
#X connect 27 0 2 0;
#X connect 28 0 27 0;
#X connect 29 0 28 1;
#X connect 30 0 44 0;
#X connect 30 0 43 0;
#X connect 30 0 41 0;
#X connect 30 1 46 0;
#X connect 31 0 33 0;
#X connect 31 0 38 0;
#X connect 32 0 31 0;
#X connect 32 0 61 0;
#X connect 33 0 37 0;
#X connect 34 0 35 0;
#X connect 35 0 36 0;
#X connect 36 0 33 1;
#X connect 40 0 39 1;
#X connect 41 0 39 1;
#X connect 42 0 38 1;
#X connect 43 0 38 1;
#X connect 44 0 37 1;
#X connect 45 0 37 1;
#X connect 46 0 42 0;
#X connect 46 0 45 0;
#X connect 46 0 41 0;
#X connect 46 1 40 0;
#X connect 46 1 43 0;
#X connect 46 1 45 0;
#X connect 47 0 59 0;
#X connect 48 0 49 0;
#X connect 49 0 62 0;
#X connect 50 0 57 0;
#X connect 51 0 50 1;
#X connect 52 0 53 0;
#X connect 53 0 63 0;
#X connect 54 0 57 1;
#X connect 55 0 60 0;
#X connect 56 0 54 1;
#X connect 57 0 27 1;
#X connect 58 0 30 0;
#X connect 59 0 48 0;
#X connect 59 1 48 1;
#X connect 60 0 52 0;
#X connect 60 1 52 1;
#X connect 61 0 39 0;
#X connect 61 0 28 0;
#X connect 62 0 50 0;
#X connect 63 0 54 0;
#X connect 64 0 4 0;
