#N canvas 89 78 1351 720 10;
#X obj 304 186 r notesIn-\$1;
#X obj 304 491 s notesOut-\$1;
#X obj 25 186 inlet~ inL-\$1;
#X obj 135 186 inlet~ inR-\$1;
#X obj 27 491 outlet~ outL-\$1;
#X obj 136 491 outlet~ outR-\$1;
#X obj 424 185 r auxIn-\$1;
#X obj 423 208 r expIn-\$1;
#X obj 423 233 r fsIn-\$1;
#X text 446 35 C&G basic polyphonic patch with 8 voices;
#X obj 747 242 micro_master \$1;
#X obj 632 306 r microtuning-label-\$1;
#X obj 682 360 s aux-label-\$1;
#X obj 321 389 pack 0 0;
#X obj 306 247 unpack 0 0 0;
#X obj 303 218 polywrapper \$1 64;
#X connect 0 0 15 0;
#X connect 11 0 12 0;
#X connect 13 0 1 0;
#X connect 14 1 13 0;
#X connect 14 2 13 1;
#X connect 15 0 14 0;
