#N canvas 0 68 1351 719 10;
#X obj 405 65 inlet;
#X obj 540 676 outlet;
#X obj 450 249 unpack 0 0;
#X obj 437 556 pack 0 0;
#X obj 431 294 mtom_micro \$1;
#X msg 375 156 \$2 \$1;
#X obj 357 190 route 0;
#X msg 443 216 \$2 \$1;
#X obj 348 257 bng 15 250 50 0 empty empty empty 17 7 0 10 -262144
-1 -1;
#X obj 320 519 f 0;
#X msg 318 553 \$1 0;
#X obj 278 127;
#X floatatom 656 97 5 0 0 0 - - -;
#X obj 656 118 mtof;
#X obj 672 282 * 1.5;
#X obj 682 313 ftom;
#X floatatom 687 353 5 0 0 0 - - -;
#X obj 751 594 pack 0 0;
#X obj 661 391 f 0;
#X msg 659 425 \$1 0;
#X obj 737 162 r div1-\$1;
#X obj 677 186 r mult1-\$1;
#X obj 720 247 /;
#X obj 733 209 t b f;
#X obj 805 282 r vel1-\$1;
#X obj 794 546 *;
#X obj 797 500 / 100;
#X obj 840 603 > 0;
#X obj 750 645 spigot;
#X obj 817 621 f;
#X obj 814 601 bng 15 250 50 0 empty empty empty 17 7 0 10 -262144
-1 -1;
#X obj 914 261 * 1.5;
#X obj 924 292 ftom;
#X floatatom 929 332 5 0 0 0 - - -;
#X obj 993 573 pack 0 0;
#X obj 903 370 f 0;
#X msg 901 404 \$1 0;
#X obj 962 226 /;
#X obj 975 188 t b f;
#X obj 1036 525 *;
#X obj 1039 479 / 100;
#X obj 1082 582 > 0;
#X obj 992 624 spigot;
#X obj 1059 600 f;
#X obj 1056 580 bng 15 250 50 0 empty empty empty 17 7 0 10 -262144
-1 -1;
#X obj 919 165 r mult2-\$1;
#X obj 979 141 r div2-\$1;
#X obj 1047 261 r vel2-\$1;
#X connect 0 0 5 0;
#X connect 2 0 4 0;
#X connect 2 1 3 1;
#X connect 2 1 25 0;
#X connect 2 1 39 0;
#X connect 3 0 1 0;
#X connect 4 0 3 0;
#X connect 4 0 9 1;
#X connect 4 0 12 0;
#X connect 5 0 6 0;
#X connect 6 0 8 0;
#X connect 6 1 7 0;
#X connect 7 0 2 0;
#X connect 8 0 9 0;
#X connect 8 0 18 0;
#X connect 8 0 35 0;
#X connect 9 0 10 0;
#X connect 10 0 1 0;
#X connect 12 0 13 0;
#X connect 13 0 14 0;
#X connect 13 0 31 0;
#X connect 14 0 15 0;
#X connect 15 0 16 0;
#X connect 16 0 18 1;
#X connect 16 0 17 0;
#X connect 17 0 28 0;
#X connect 18 0 19 0;
#X connect 19 0 28 0;
#X connect 20 0 23 0;
#X connect 21 0 22 0;
#X connect 22 0 14 1;
#X connect 23 0 22 0;
#X connect 23 1 22 1;
#X connect 24 0 26 0;
#X connect 24 0 27 0;
#X connect 25 0 17 1;
#X connect 25 0 30 0;
#X connect 26 0 25 1;
#X connect 27 0 29 1;
#X connect 28 0 1 0;
#X connect 29 0 28 1;
#X connect 30 0 29 0;
#X connect 31 0 32 0;
#X connect 32 0 33 0;
#X connect 33 0 35 1;
#X connect 33 0 34 0;
#X connect 34 0 42 0;
#X connect 35 0 36 0;
#X connect 36 0 42 0;
#X connect 37 0 31 1;
#X connect 38 0 37 0;
#X connect 38 1 37 1;
#X connect 39 0 34 1;
#X connect 39 0 44 0;
#X connect 40 0 39 1;
#X connect 41 0 43 1;
#X connect 42 0 1 0;
#X connect 43 0 42 1;
#X connect 44 0 43 0;
#X connect 45 0 37 0;
#X connect 46 0 38 0;
#X connect 47 0 40 0;
#X connect 47 0 41 0;
