#N canvas 18 75 1351 719 10;
#X obj 405 65 inlet;
#X obj 536 609 outlet;
#X obj 457 248 unpack 0 0;
#X obj 480 380 pack 0 0;
#X obj 431 294 mtom_micro \$1;
#X msg 375 156 \$2 \$1;
#X obj 357 190 route 0;
#X msg 443 216 \$2 \$1;
#X obj 348 257 bng 15 250 50 0 empty empty empty 17 7 0 10 -262144
-1 -1;
#X obj 339 335 f 0;
#X msg 358 391 \$1 0;
#X connect 0 0 5 0;
#X connect 2 0 4 0;
#X connect 2 1 3 1;
#X connect 3 0 1 0;
#X connect 4 0 3 0;
#X connect 4 0 9 1;
#X connect 5 0 6 0;
#X connect 6 0 8 0;
#X connect 6 1 7 0;
#X connect 7 0 2 0;
#X connect 8 0 9 0;
#X connect 9 0 10 0;
#X connect 10 0 1 0;
