#N canvas 229 78 892 652 10;
#X obj 92 15 inlet~;
#X obj 193 16 inlet~;
#X obj 345 16 inlet~;
#X obj 393 18 inlet~;
#X obj 128 255 outlet~;
#X obj 215 123 *~ 0;
#X obj 262 129 *~ 0;
#X obj 403 262 outlet~;
#X obj 434 150 *~ 0;
#X obj 519 159 *~ 0;
#X obj 483 282 hsl 128 15 0 100 0 0 empty empty empty -2 -8 0 10 -262144
-1 -1 12700 1;
#X obj 473 355 expr sin($f1);
#X floatatom 479 391 5 0 0 0 - - -;
#X floatatom 592 433 5 0 0 0 - - -;
#X obj 569 357 expr cos($f1);
#X obj 483 318 expr $f1*3.14159/200;
#X obj 619 66 inlet;
#X obj 448 445 * -1;
#X connect 0 0 4 0;
#X connect 1 0 7 0;
#X connect 2 0 5 0;
#X connect 2 0 8 0;
#X connect 3 0 6 0;
#X connect 3 0 9 0;
#X connect 5 0 4 0;
#X connect 6 0 4 0;
#X connect 8 0 7 0;
#X connect 9 0 7 0;
#X connect 10 0 15 0;
#X connect 11 0 12 0;
#X connect 12 0 6 1;
#X connect 12 0 17 0;
#X connect 13 0 5 1;
#X connect 13 0 9 1;
#X connect 14 0 13 0;
#X connect 15 0 11 0;
#X connect 15 0 14 0;
#X connect 16 0 10 0;
#X connect 17 0 8 1;
