#N canvas 302 98 975 665 12;
#X obj 65 161 delread4~ \$1;
#X obj 33 4 inlet speed;
#X obj 170 3 inlet length;
#X obj 117 256 outlet~;
#X obj 112 216 *~;
#X obj 56 91 phasor~;
#X obj 49 132 *~;
#X obj 57 71 / 1, f 4;
#X obj 105 29 t b f;
#X obj 475 135 sig~;
#X floatatom 475 108 5 0 0 0 - - -;
#X floatatom 12 37 5 0 0 0 - - -;
#X floatatom 331 48 5 0 0 0 - - -;
#X obj 220 167 expr~ min(1 \, min($v1*$v2 \, $v2-$v1*$v2));
#X obj 136 71 / 1000;
#X obj 234 113 * 200;
#X obj 57 32 * -1;
#X connect 0 0 4 0;
#X connect 1 0 16 0;
#X connect 2 0 6 1;
#X connect 2 0 8 0;
#X connect 4 0 3 0;
#X connect 5 0 6 0;
#X connect 5 0 13 0;
#X connect 6 0 0 0;
#X connect 7 0 5 0;
#X connect 8 0 7 0;
#X connect 8 1 14 0;
#X connect 9 0 13 1;
#X connect 10 0 9 0;
#X connect 11 0 16 0;
#X connect 12 0 8 0;
#X connect 13 0 4 1;
#X connect 14 0 7 1;
#X connect 14 0 15 0;
#X connect 15 0 10 0;
#X connect 16 0 7 0;
