#N canvas 64 49 626 563 12;
#X obj 111 327 delwrite~ vd1 400;
#X obj 278 325 delwrite~ vd2 400;
#X obj 125 77 delread4~ vd1;
#X obj 455 255 noise~;
#X obj 350 232 vline~;
#X obj 350 255 *~;
#X msg 437 202 1 10 \, 0 100 10;
#X obj 141 46 sig~;
#X obj 276 57 sig~;
#X obj 261 92 delread4~ vd2;
#X obj 181 203 mix2x2, f 11;
#X obj 142 479 *~ 0.1;
#X obj 142 502 dac~;
#X obj 201 477 *~ 0.1;
#X floatatom 372 27 5 0 0 0 - - -;
#X obj 372 49 mtof;
#X floatatom 390 105 10 0 0 0 - - -;
#X obj 390 82 expr 1000/$f1;
#X floatatom 496 31 5 0 0 0 - - -;
#X obj 496 53 mtof;
#X floatatom 514 109 10 0 0 0 - - -;
#X obj 514 86 expr 1000/$f1;
#X obj 418 143 bng 15 250 50 0 empty empty empty 17 7 0 10 -262144
-1 -1;
#X obj 447 163 metro 500;
#X msg 255 11 stop;
#X obj 147 117 *~ 0.97;
#X obj 278 130 *~ 0.97;
#X connect 2 0 25 0;
#X connect 3 0 5 1;
#X connect 4 0 5 0;
#X connect 5 0 1 0;
#X connect 5 0 0 0;
#X connect 6 0 4 0;
#X connect 7 0 2 0;
#X connect 8 0 9 0;
#X connect 9 0 26 0;
#X connect 10 0 0 0;
#X connect 10 0 11 0;
#X connect 10 1 1 0;
#X connect 10 1 13 0;
#X connect 11 0 12 0;
#X connect 13 0 12 1;
#X connect 14 0 15 0;
#X connect 15 0 17 0;
#X connect 16 0 7 0;
#X connect 17 0 16 0;
#X connect 18 0 19 0;
#X connect 19 0 21 0;
#X connect 20 0 8 0;
#X connect 21 0 20 0;
#X connect 22 0 23 0;
#X connect 23 0 6 0;
#X connect 24 0 23 0;
#X connect 25 0 10 0;
#X connect 26 0 10 1;
