#N canvas 89 67 1351 720 10;
#X obj 304 186 r notesIn-\$1;
#X obj 304 491 s notesOut-\$1;
#X obj 25 186 inlet~ inL-\$1;
#X obj 135 186 inlet~ inR-\$1;
#X obj 27 491 outlet~ outL-\$1;
#X obj 136 491 outlet~ outR-\$1;
#X obj 424 185 r auxIn-\$1;
#X obj 423 208 r expIn-\$1;
#X obj 423 233 r fsIn-\$1;
#X text 446 35 C&G basic polyphonic patch with 8 voices;
#X obj 632 306 r microtuning-label-\$1;
#X obj 682 360 s aux-label-\$1;
#X obj 306 247 unpack 0 0 0;
#X obj 303 218 polywrapper \$1 64;
#N canvas 0 50 450 250 (subpatch) 0;
#X array tuning_table-\$1 12 float 2;
#X coords 0 12 12 0 200 140 1 0 0;
#X restore 812 77 graph;
#X obj 510 125 nwrite \$1 0;
#X obj 515 159 nwrite \$1 1;
#X obj 513 183 nwrite \$1 2;
#X obj 518 210 nwrite \$1 3;
#X obj 518 234 nwrite \$1 4;
#X obj 620 157 nwrite \$1 5;
#X obj 618 181 nwrite \$1 6;
#X obj 623 209 nwrite \$1 7;
#X obj 634 235 nwrite \$1 8;
#X obj 722 155 nwrite \$1 9;
#X obj 728 181 nwrite \$1 10;
#X obj 725 205 nwrite \$1 11;
#X obj 321 389 pack 0 0 0;
#X connect 0 0 13 0;
#X connect 10 0 11 0;
#X connect 12 1 27 0;
#X connect 12 2 27 1;
#X connect 13 0 12 0;
#X connect 27 0 1 0;
