#N canvas 441 300 450 300 12;
#X obj 148 118 pack 0 0 0;
#X obj 140 36 inlet;
#X obj 146 61 poly \$2 1;
#X obj 141 89 - 1;
#X obj 148 143 clone voicewrapper \$2 \$1;
#X obj 142 223 outlet;
#X connect 0 0 4 0;
#X connect 1 0 2 0;
#X connect 2 0 3 0;
#X connect 2 1 0 1;
#X connect 2 2 0 2;
#X connect 3 0 0 0;
#X connect 4 0 5 0;
