#N canvas 168 23 1272 775 10;
#X obj 304 186 r notesIn-\$1;
#X obj 304 491 s notesOut-\$1;
#X obj 25 186 inlet~ inL-\$1;
#X obj 135 186 inlet~ inR-\$1;
#X obj 27 491 outlet~ outL-\$1;
#X obj 136 491 outlet~ outR-\$1;
#X obj 499 186 r auxIn-\$1;
#X obj 498 209 r expIn-\$1;
#X obj 498 234 r fsIn-\$1;
#X obj 398 186 r ctrlIn-\$1;
#X obj 398 491 s ctrlOut-\$1;
#X obj 29 333 +~;
#X obj 139 336 +~;
#N canvas 0 23 1440 775 koto~ 1;
#X obj 473 150 pack 0 0 0;
#X obj 611 448 r loadbang-\$1;
#X text 1172 249 Harmonics Comb-Filter;
#X text 723 689 Don't touch!!!;
#X obj 494 65 unpack;
#X text 1096 670 Damper:;
#X text 713 503 String-Decay (can't go any higher!!!!);
#X obj 848 89 vsl 15 128 0 30 0 0 empty empty empty 0 -9 0 10 -262144
-1 -1 2540 1;
#X floatatom 853 226 5 0 0 0 - - -;
#X obj 533 89 moses 97;
#X obj 478 121 poly 10 1;
#X obj 1023 149 *~;
#X obj 896 235 +;
#X obj 1022 98 +~ 1;
#X obj 1105 129 snapshot~;
#X msg 1099 49 1;
#X floatatom 1016 181 5 0 0 0 - - -;
#X obj 1104 78 metro 50;
#X msg 892 154 0;
#X obj 895 122 sel 0;
#X msg 893 177 5;
#X obj 171 653 *~ 1.5;
#X obj 48 655 *~ 1.5;
#X obj 452 495 vcf~, f 6;
#X msg 487 471 6;
#X obj 363 442 *~ 1.2;
#X msg 845 53 6;
#X obj 351 677 lop~;
#X obj 405 529 *~ 1.6;
#X msg 455 450 160;
#X obj 1023 120 *~ 20;
#X obj 1022 74 osc~ 6;
#X obj 465 89 moses 48;
#X obj 123 789 outlet~ outL;
#X obj 323 785 outlet~ outR;
#X obj 1092 505 r fund-\$1;
#X obj 1171 504 r subH-\$1;
#X obj 1243 503 r firstH-\$1;
#X obj 1323 503 r secH-\$1;
#X obj 1092 527 / 100;
#X obj 1171 526 / 100;
#X obj 1243 525 / 100;
#X obj 1323 525 / 100;
#X obj 937 95 r auxIn-\$1;
#X obj 932 153 s aux-led-\$1;
#X obj 483 39 inlet notes;
#X obj 79 626 dattorroplate~ \$1;
#X obj 842 27 r loadbang-\$1;
#X obj 854 258 s detune-\$1;
#X obj 1094 410 s h1-\$1;
#X obj 1204 408 s h2-\$1;
#X obj 1324 407 s h3-\$1;
#X obj 1092 559 s f1-\$1;
#X obj 1171 559 s f2-\$1;
#X obj 1243 560 s f3-\$1;
#X obj 1323 559 s f4-\$1;
#X obj 717 544 s feedbackamt-\$1;
#X obj 1100 750 s damper-\$1;
#X obj 727 666 s res-\$1;
#X obj 112 134 r loadbang-\$1;
#N canvas 0 96 1920 984 receive_for_sub 0;
#X obj 351 281 outlet;
#X obj 89 78 r h1-\$1;
#X obj 81 142 r h2-\$1;
#X obj 77 221 r h3-\$1;
#X obj 196 44 r f1-\$1;
#X obj 301 38 r f2-\$1;
#X obj 377 36 r f3-\$1;
#X obj 469 37 r f4-\$1;
#X obj 640 70 r detune-\$1;
#X obj 662 138 r feedbackamt-\$1;
#X obj 670 205 r damper-\$1;
#X msg 89 101 h1 \$1;
#X msg 81 164 h2 \$1;
#X msg 77 243 h3 \$1;
#X msg 196 66 f1 \$1;
#X msg 301 60 f2 \$1;
#X msg 377 58 f3 \$1;
#X msg 469 59 f4 \$1;
#X msg 640 92 detune \$1;
#X msg 662 160 feedbackamt \$1;
#X msg 670 227 damper \$1;
#X obj 555 46 r res-\$1;
#X msg 555 68 res \$1;
#X obj 664 273 r loadbang-\$1;
#X msg 664 295 loadbang \$1;
#X obj 76 315 r fdetune-\$1;
#X msg 76 337 fdetune \$1;
#X connect 1 0 11 0;
#X connect 2 0 12 0;
#X connect 3 0 13 0;
#X connect 4 0 14 0;
#X connect 5 0 15 0;
#X connect 6 0 16 0;
#X connect 7 0 17 0;
#X connect 8 0 18 0;
#X connect 9 0 19 0;
#X connect 10 0 20 0;
#X connect 11 0 0 0;
#X connect 12 0 0 0;
#X connect 13 0 0 0;
#X connect 14 0 0 0;
#X connect 15 0 0 0;
#X connect 16 0 0 0;
#X connect 17 0 0 0;
#X connect 18 0 0 0;
#X connect 19 0 0 0;
#X connect 20 0 0 0;
#X connect 21 0 22 0;
#X connect 22 0 0 0;
#X connect 23 0 24 0;
#X connect 24 0 0 0;
#X connect 25 0 26 0;
#X connect 26 0 0 0;
#X restore 546 256 pd receive_for_sub;
#X obj 391 287 list prepend input;
#X obj 389 311 list trim;
#X obj 934 193 change;
#X text 495 202 The sends from the main patch need to be channeled
trhough the subprocess inlet and then sent out again in the other pd
instance, f 43;
#X obj 311 350 pd~ -ninsig 0 -noutsig 2 -fifo 10 -nogui;
#X obj 1094 293 r combh1-\$1;
#X obj 1205 297 r combh2-\$1;
#X obj 1324 294 r combh3-\$1;
#X obj 1094 316 / 100;
#X obj 1204 321 / 100;
#X obj 1204 344 * 4;
#X obj 1324 316 / 100;
#X obj 1324 339 * 4;
#X obj 1094 339 * 4;
#X msg 716 522 0.99;
#X obj 1100 697 r damp-\$1;
#X obj 1100 719 * 100;
#X text 1126 470 Harmonics:;
#X msg 728 634 9.76;
#X obj 535 606 r cutoff-\$1;
#X obj 38 383 r dattorro_predelay-\$1;
#X obj 217 450 r dattorro_gain-\$1;
#X obj 138 427 r dattorro_damping-\$1;
#X obj 92 405 r dattorro_bandwidth-\$1;
#X msg 111 182 pd~ start -nogui stringvoice_process~.pd;
#X floatatom 226 552 5 0 0 0 - - -;
#X floatatom 246 584 5 0 0 0 - - -;
#X msg 246 605 0.9;
#X msg 83 125 0.9;
#X obj 79 583 hip~ 100;
#X obj 81 605 lop~ 8000;
#X obj 91 492 / 100;
#X obj 162 540 / 100;
#X obj 177 495 / 100;
#X connect 0 0 61 0;
#X connect 1 0 79 0;
#X connect 1 0 75 0;
#X connect 1 0 24 0;
#X connect 1 0 29 0;
#X connect 4 0 32 0;
#X connect 4 1 10 1;
#X connect 7 0 8 0;
#X connect 8 0 12 1;
#X connect 9 0 10 0;
#X connect 10 0 0 0;
#X connect 10 1 0 1;
#X connect 10 2 0 2;
#X connect 11 0 14 0;
#X connect 12 0 48 0;
#X connect 13 0 30 0;
#X connect 14 0 16 0;
#X connect 15 0 17 0;
#X connect 16 0 63 0;
#X connect 17 0 14 0;
#X connect 18 0 44 0;
#X connect 19 0 18 0;
#X connect 19 1 20 0;
#X connect 20 0 44 0;
#X connect 21 0 34 0;
#X connect 22 0 33 0;
#X connect 23 0 28 0;
#X connect 24 0 23 2;
#X connect 25 0 23 0;
#X connect 25 0 27 0;
#X connect 25 0 90 0;
#X connect 26 0 7 0;
#X connect 27 0 33 0;
#X connect 27 0 34 0;
#X connect 28 0 27 0;
#X connect 29 0 23 1;
#X connect 30 0 11 0;
#X connect 31 0 13 0;
#X connect 32 1 9 0;
#X connect 35 0 39 0;
#X connect 36 0 40 0;
#X connect 37 0 41 0;
#X connect 38 0 42 0;
#X connect 39 0 52 0;
#X connect 40 0 53 0;
#X connect 41 0 54 0;
#X connect 42 0 55 0;
#X connect 43 0 11 1;
#X connect 43 0 19 0;
#X connect 45 0 4 0;
#X connect 46 0 22 0;
#X connect 46 1 21 0;
#X connect 47 0 26 0;
#X connect 47 0 15 0;
#X connect 59 0 85 0;
#X connect 60 0 61 0;
#X connect 61 0 62 0;
#X connect 62 0 65 0;
#X connect 63 0 12 0;
#X connect 65 1 25 0;
#X connect 66 0 69 0;
#X connect 67 0 70 0;
#X connect 68 0 72 0;
#X connect 69 0 74 0;
#X connect 70 0 71 0;
#X connect 71 0 50 0;
#X connect 72 0 73 0;
#X connect 73 0 51 0;
#X connect 74 0 49 0;
#X connect 75 0 56 0;
#X connect 76 0 77 0;
#X connect 77 0 57 0;
#X connect 79 0 58 0;
#X connect 80 0 27 1;
#X connect 81 0 46 1;
#X connect 82 0 86 0;
#X connect 82 0 94 0;
#X connect 83 0 93 0;
#X connect 84 0 92 0;
#X connect 85 0 65 0;
#X connect 87 0 88 0;
#X connect 88 0 46 4;
#X connect 89 0 46 3;
#X connect 90 0 91 0;
#X connect 91 0 46 0;
#X connect 92 0 46 2;
#X connect 93 0 46 3;
#X connect 94 0 46 4;
#X restore 184 235 pd koto~;
#X connect 0 0 1 0;
#X connect 0 0 13 0;
#X connect 2 0 11 0;
#X connect 3 0 12 0;
#X connect 9 0 10 0;
#X connect 11 0 4 0;
#X connect 12 0 5 0;
#X connect 13 0 11 1;
#X connect 13 1 12 1;
