#N canvas 245 175 2447 1338 12;
#X obj 1054 383 send;
#X obj 1069 161 list split 1;
#X msg 1141 289 \$1-\$2;
#X obj 441 27 r input;
#X obj 966 301 list store;
#X obj 1141 323 symbol;
#X obj 444 85 route 1 2 3 4 5 6 7 8 9 10;
#X obj 1022 214 t b s b, f 20;
#X obj 786 169 stringvoice~ \$0;
#X obj 665 169 stringvoice~ \$0;
#X obj 545 195 stringvoice~ \$0;
#X obj 411 173 stringvoice~ \$0;
#X obj 385 131 stringvoice~ \$0;
#X obj 149 139 stringvoice~ \$0;
#X obj 23 132 stringvoice~ \$0;
#X obj 22 217 stringvoice~ \$0;
#X obj 173 226 stringvoice~ \$0;
#X obj 1147 250 pack s f;
#X obj 1199 220 f \$0;
#X obj 260 149 stringvoice~ \$0;
#X obj 437 379 dac~ 1 2;
#X obj 846 28 loadbang;
#X msg 846 60 \; pd dsp 1;
#X text 1369 42 Initialize the parameeter values for the stringvoices
locally in this pd instance. THe load up time of the subprocess makes
it miss the initial orac loadbangs;
#N canvas 696 301 1615 613 init_sub_params 0;
#X obj 131 70 inlet;
#X msg 36 190 9.76;
#X obj 36 214 s res-\$0;
#X msg 168 183 0;
#X obj 168 207 s damper-\$0;
#X msg 277 177 0.99;
#X obj 277 201 s feedbackamt-\$0;
#X msg 420 168 0.47;
#X obj 421 198 s f1-\$0;
#X msg 495 168 0.62;
#X obj 495 192 s f2-\$0;
#X msg 565 169 0.36;
#X obj 565 193 s f3-\$0;
#X msg 636 173 1;
#X obj 636 197 s f4-\$0;
#X msg 527 76 0.5;
#X obj 527 100 s h1-\$0;
#X msg 607 81 1.25;
#X obj 607 105 s h2-\$0;
#X msg 688 81 1.5;
#X obj 688 105 s h3-\$0;
#X msg 763 158 6;
#X obj 763 183 s detune-\$0;
#X connect 0 0 1 0;
#X connect 0 0 19 0;
#X connect 0 0 17 0;
#X connect 0 0 15 0;
#X connect 0 0 13 0;
#X connect 0 0 11 0;
#X connect 0 0 9 0;
#X connect 0 0 7 0;
#X connect 0 0 5 0;
#X connect 0 0 3 0;
#X connect 0 0 21 0;
#X connect 1 0 2 0;
#X connect 3 0 4 0;
#X connect 5 0 6 0;
#X connect 7 0 8 0;
#X connect 9 0 10 0;
#X connect 11 0 12 0;
#X connect 13 0 14 0;
#X connect 15 0 16 0;
#X connect 17 0 18 0;
#X connect 19 0 20 0;
#X connect 21 0 22 0;
#X restore 1480 150 pd init_sub_params;
#X obj 1480 117 loadbang;
#X connect 1 0 7 0;
#X connect 1 1 4 1;
#X connect 2 0 5 0;
#X connect 3 0 6 0;
#X connect 4 0 0 0;
#X connect 5 0 0 1;
#X connect 6 0 14 0;
#X connect 6 1 13 0;
#X connect 6 2 19 0;
#X connect 6 3 12 0;
#X connect 6 4 11 0;
#X connect 6 5 10 0;
#X connect 6 6 9 0;
#X connect 6 7 8 0;
#X connect 6 8 15 0;
#X connect 6 9 16 0;
#X connect 6 10 1 0;
#X connect 7 0 4 0;
#X connect 7 1 17 0;
#X connect 7 2 18 0;
#X connect 8 0 20 0;
#X connect 9 0 20 0;
#X connect 10 0 20 0;
#X connect 11 0 20 0;
#X connect 12 0 20 0;
#X connect 13 0 20 0;
#X connect 14 0 20 0;
#X connect 15 0 20 0;
#X connect 16 0 20 0;
#X connect 17 0 2 0;
#X connect 18 0 17 1;
#X connect 19 0 20 0;
#X connect 21 0 22 0;
#X connect 25 0 24 0;
