#N canvas 0 96 1920 984 12;
#X obj 1196 132 noise~;
#X obj 1239 250 *~;
#X obj 825 175 *~;
#X obj 855 270 +~;
#X obj 528 23 unpack;
#X obj 1158 40 sel 0;
#X obj 1317 231 line~;
#X obj 438 7 inlet;
#X obj 825 213 lop~, f 7;
#X msg 1344 88 1 0 \, 0 20;
#X obj 394 417 bp~, f 6;
#X obj 312 418 bp~, f 6;
#X obj 225 418 bp~, f 6;
#X obj 226 467 *~;
#X obj 404 467 *~;
#X obj 315 463 *~;
#X obj 490 415 bp~, f 6;
#X obj 490 467 *~;
#X obj 73 364 *;
#X obj 141 361 *;
#X obj 200 360 *;
#X obj 459 165 t b f;
#X obj 472 215 /;
#X msg 460 191 1;
#X obj 471 237 * 1000;
#X floatatom 528 48 5 0 0 0 - - -;
#X obj 1271 399 block~ 1;
#X obj 329 553 outlet~;
#X floatatom 805 115 5 0 0 0 - - -;
#X obj 771 49 t b f;
#X obj 804 92 *;
#X obj 803 70 / 1300;
#X obj 805 132 +;
#X floatatom 806 152 5 0 0 0 - - -;
#X obj 1010 241 -;
#X obj 1041 176 log;
#X obj 1010 195 *;
#X obj 991 175 t b f;
#X obj 790 213 *~;
#X obj 754 235 lop~, f 7;
#X obj 647 262 +~;
#X obj 647 282 *~ -1;
#X obj 644 322 *~;
#X obj 767 325 *~;
#X obj 1005 415 swap 1;
#X obj 1011 438 -;
#X obj 1149 204 float;
#X obj 1194 205 + 1;
#X obj 1142 180 bng 15 250 50 0 empty empty empty 17 7 0 10 -262144
-1 -1;
#X floatatom 1021 397 5 0 0 0 - - -;
#X obj 1149 227 % 6;
#X obj 284 215 line;
#X obj 293 274 +;
#X obj 296 242 t b f;
#X floatatom 274 149 5 0 0 0 - - -;
#X obj 345 110 t b;
#X obj 11 64 sel 0;
#X obj 330 528 *~;
#X obj 211 122 *;
#X msg 1000 345 0.5;
#X obj 969 283 sel 0 1 2 3 4 5;
#X msg 959 345 0.4;
#X msg 1037 345 0.6;
#X obj 278 91 / 130;
#X obj 1009 220 * 15;
#X obj 344 150 delay 15;
#X msg 273 173 \$1 10;
#X msg 341 173 0 10;
#X obj 38 511 / 127;
#X obj 896 225 clip 800 5200;
#X obj 583 135 delread~ \$0-emily8_1 500;
#X obj 600 183 delread~ \$0-emily8_2 500;
#X obj 823 499 delwrite~ \$0-emily8_2 500;
#X obj 1032 498 delwrite~ \$0-emily8_1 500;
#X obj 515 442 r f4-\$1;
#X obj 428 440 r f3-\$1;
#X obj 333 441 r f2-\$1;
#X obj 248 440 r f1-\$1;
#X obj 237 360 r res-\$1;
#X obj 90 317 r h1-\$1;
#X obj 147 319 r h2-\$1;
#X obj 210 319 r h3-\$1;
#X obj 183 83 r detune-\$1;
#X obj 1078 146 r loadbang-\$1;
#X obj 1056 218 r damper-\$1;
#X obj 844 96 r feedbackamt-\$1;
#X obj 91 128 r fdetune-\$1;
#X obj 118 190 mtof;
#X obj 125 227 +;
#X connect 0 0 1 0;
#X connect 1 0 3 1;
#X connect 1 0 40 1;
#X connect 2 0 8 0;
#X connect 3 0 43 0;
#X connect 3 0 73 0;
#X connect 4 0 25 0;
#X connect 4 0 55 0;
#X connect 4 0 65 0;
#X connect 4 1 5 0;
#X connect 4 1 56 0;
#X connect 5 1 48 0;
#X connect 5 1 9 0;
#X connect 6 0 1 1;
#X connect 7 0 4 0;
#X connect 8 0 3 0;
#X connect 9 0 6 0;
#X connect 10 0 14 0;
#X connect 11 0 15 0;
#X connect 12 0 13 0;
#X connect 13 0 57 0;
#X connect 14 0 57 0;
#X connect 15 0 57 0;
#X connect 16 0 17 0;
#X connect 17 0 57 0;
#X connect 18 0 11 1;
#X connect 19 0 10 1;
#X connect 20 0 16 1;
#X connect 21 0 23 0;
#X connect 21 1 22 1;
#X connect 22 0 24 0;
#X connect 23 0 22 0;
#X connect 24 0 70 0;
#X connect 24 0 71 0;
#X connect 25 0 29 0;
#X connect 25 0 37 0;
#X connect 25 0 63 0;
#X connect 25 0 87 0;
#X connect 28 0 32 0;
#X connect 29 0 30 0;
#X connect 29 1 31 0;
#X connect 30 0 28 0;
#X connect 31 0 30 0;
#X connect 31 0 30 1;
#X connect 32 0 33 0;
#X connect 33 0 2 1;
#X connect 33 0 38 1;
#X connect 34 0 69 0;
#X connect 35 0 36 1;
#X connect 36 0 64 0;
#X connect 37 0 36 0;
#X connect 37 1 35 0;
#X connect 37 1 36 0;
#X connect 38 0 39 0;
#X connect 39 0 40 0;
#X connect 40 0 41 0;
#X connect 41 0 42 0;
#X connect 41 0 72 0;
#X connect 42 0 12 0;
#X connect 42 0 11 0;
#X connect 42 0 10 0;
#X connect 42 0 16 0;
#X connect 43 0 16 0;
#X connect 43 0 10 0;
#X connect 43 0 11 0;
#X connect 43 0 12 0;
#X connect 44 0 45 0;
#X connect 44 1 45 1;
#X connect 45 0 43 1;
#X connect 46 0 47 0;
#X connect 46 0 50 0;
#X connect 47 0 46 1;
#X connect 48 0 46 0;
#X connect 49 0 44 0;
#X connect 49 0 42 1;
#X connect 50 0 60 0;
#X connect 51 0 53 0;
#X connect 52 0 21 0;
#X connect 53 0 52 0;
#X connect 53 1 52 1;
#X connect 54 0 66 0;
#X connect 55 0 54 0;
#X connect 55 0 65 0;
#X connect 56 1 68 0;
#X connect 57 0 27 0;
#X connect 58 0 54 0;
#X connect 59 0 49 0;
#X connect 60 0 62 0;
#X connect 60 1 61 0;
#X connect 60 2 59 0;
#X connect 60 3 61 0;
#X connect 60 4 62 0;
#X connect 60 5 59 0;
#X connect 61 0 49 0;
#X connect 62 0 49 0;
#X connect 63 0 58 1;
#X connect 64 0 34 0;
#X connect 65 0 67 0;
#X connect 66 0 51 0;
#X connect 67 0 51 0;
#X connect 68 0 57 1;
#X connect 69 0 8 1;
#X connect 69 0 39 1;
#X connect 70 0 2 0;
#X connect 71 0 38 0;
#X connect 74 0 17 1;
#X connect 75 0 14 1;
#X connect 76 0 15 1;
#X connect 77 0 13 1;
#X connect 78 0 16 2;
#X connect 78 0 10 2;
#X connect 78 0 11 2;
#X connect 78 0 12 2;
#X connect 79 0 18 1;
#X connect 80 0 19 1;
#X connect 81 0 20 1;
#X connect 82 0 58 0;
#X connect 83 0 46 0;
#X connect 84 0 34 1;
#X connect 85 0 32 1;
#X connect 86 0 88 1;
#X connect 87 0 88 0;
#X connect 88 0 12 1;
#X connect 88 0 18 0;
#X connect 88 0 19 0;
#X connect 88 0 20 0;
#X connect 88 0 52 0;
