#N canvas 89 67 1351 716 10;
#X text 24 19 basic polyphonic patch with 8 voices;
#X text 299 98 aircraft carrier;
#X obj 137 41 inlet;
#X obj 235 546 outlet~;
#X obj 850 346 r filt_cutoff-\$1;
#X obj 854 399 lop~ 5;
#X obj 865 433 s~ filt_cuttoff_sig-\$1;
#X obj 854 376 sig~ 12;
#X obj 411 397 r filttype-\$1;
#X obj 392 550 s aux-label-\$1;
#X msg 360 487 Filter: Off;
#X msg 598 484 Filter: Analog;
#X obj 336 310 r volume-\$1;
#X obj 347 354 * 0.005;
#X obj 270 411 lop~ 5;
#X obj 332 386 sig~ 0.35;
#X obj 191 402 *~;
#X msg 439 484 Filter: Digital BP;
#X msg 464 509 Filter: Digital LP;
#X obj 255 5 r ctrlIn-\$1;
#X obj 255 33 unpack 0 0 0;
#X obj 255 54 sel 123;
#X msg 253 77 stop;
#X obj 358 435 sel 0;
#X obj 448 427 sel 1;
#X obj 508 433 sel 2;
#X obj 548 158 lfo/lfo morph-\$1;
#X obj 685 155 lfo/lfo timbre-\$1;
#X obj 552 218 s~ lfo-morph-\$1;
#X obj 688 180 s~ lfo-timbre-\$1;
#X obj 690 449 s aux-label-\$1;
#X obj 642 293 r lfolabel;
#X obj 656 316 sel 0 1 2 3 4 5;
#X msg 609 381 LFO: Sin;
#X msg 630 399 LFO: Tri;
#X msg 671 377 LFO: Saw;
#X msg 691 395 LFO: Sqr;
#X msg 736 374 LFO: S/H;
#X msg 752 397 LFO: Randoom;
#X obj 580 419 sel 3;
#X obj 175 17;
#X obj 134 160 polywrapper \$1 4;
#X connect 2 0 41 0;
#X connect 4 0 7 0;
#X connect 5 0 6 0;
#X connect 7 0 5 0;
#X connect 8 0 23 0;
#X connect 8 0 24 0;
#X connect 8 0 25 0;
#X connect 8 0 39 0;
#X connect 10 0 9 0;
#X connect 11 0 9 0;
#X connect 12 0 13 0;
#X connect 13 0 15 0;
#X connect 14 0 16 1;
#X connect 15 0 14 0;
#X connect 16 0 3 0;
#X connect 17 0 9 0;
#X connect 18 0 9 0;
#X connect 19 0 20 0;
#X connect 20 0 21 0;
#X connect 21 0 22 0;
#X connect 22 0 41 0;
#X connect 23 0 10 0;
#X connect 24 0 17 0;
#X connect 25 0 18 0;
#X connect 26 0 28 0;
#X connect 27 0 29 0;
#X connect 31 0 32 0;
#X connect 32 0 33 0;
#X connect 32 1 34 0;
#X connect 32 2 35 0;
#X connect 32 3 36 0;
#X connect 32 4 37 0;
#X connect 32 5 38 0;
#X connect 33 0 30 0;
#X connect 34 0 30 0;
#X connect 35 0 30 0;
#X connect 36 0 30 0;
#X connect 37 0 30 0;
#X connect 38 0 30 0;
#X connect 39 0 11 0;
#X connect 41 0 16 0;
