#N canvas 0 59 1360 725 10;
#X obj 606 493 * 2;
#X obj 123 14 inlet;
#X obj 514 13 inlet~;
#X obj 187 583 outlet~;
#X obj 571 334 plts~;
#X msg 602 163 model \$1;
#X obj 602 101 r model-\$1;
#X msg 665 152 harmonics \$1;
#X msg 670 191 timbre \$1;
#X msg 748 174 morph \$1;
#X msg 768 195 lpg_colour \$1;
#X msg 1093 166 decay \$1;
#X msg 876 169 mod_fm \$1;
#X msg 899 192 mod_morph \$1;
#X msg 852 146 mod_timbre \$1;
#X msg 628 225 trigger \$1;
#X obj 679 72 r harmonics-\$1;
#X obj 734 45 r timbre-\$1;
#X obj 780 87 r morph-\$1;
#X obj 798 102 r lpg_colour-\$1;
#X obj 1123 95 r decay-\$1;
#X obj 848 50 r mod_timbre-\$1;
#X obj 907 73 r mod_fm-\$1;
#X obj 950 114 r mod_morph-\$1;
#X msg 538 222 pitch \$1;
#X obj 536 154 - 60;
#X obj 551 187 / 12;
#X obj 1188 48 r trigger_active-\$1;
#X msg 1216 132 trigger_active \$1;
#X obj 567 34 t b f;
#X obj 670 112 / 100;
#X obj 720 89 / 100;
#X obj 758 108 / 100;
#X obj 783 138 / 100;
#X obj 1112 124 / 100;
#X obj 485 359 ftom;
#X obj 819 516 s aux-label-\$1;
#X obj 323 320 r aux-\$1;
#X obj 326 367 == 0;
#X obj 299 418 *~ 1;
#X obj 355 411 *~ 0;
#X obj 525 130 nbx 5 14 -1e+037 1e+037 0 0 empty empty empty 0 -8 0
10 -262144 -1 -1 0 256;
#X obj 920 -1 inlet;
#X connect 1 0 25 0;
#X connect 4 0 39 0;
#X connect 4 1 40 0;
#X connect 4 2 36 0;
#X connect 5 0 4 0;
#X connect 6 0 5 0;
#X connect 7 0 4 0;
#X connect 8 0 4 0;
#X connect 9 0 4 0;
#X connect 10 0 4 0;
#X connect 11 0 4 0;
#X connect 12 0 4 0;
#X connect 13 0 4 0;
#X connect 14 0 4 0;
#X connect 15 0 4 0;
#X connect 16 0 30 0;
#X connect 17 0 31 0;
#X connect 18 0 32 0;
#X connect 19 0 33 0;
#X connect 20 0 34 0;
#X connect 21 0 14 0;
#X connect 22 0 12 0;
#X connect 23 0 13 0;
#X connect 24 0 4 0;
#X connect 25 0 26 0;
#X connect 26 0 24 0;
#X connect 27 0 28 0;
#X connect 28 0 4 0;
#X connect 30 0 7 0;
#X connect 31 0 8 0;
#X connect 32 0 9 0;
#X connect 33 0 10 0;
#X connect 34 0 11 0;
#X connect 37 0 38 0;
#X connect 37 0 40 1;
#X connect 38 0 39 1;
#X connect 39 0 3 0;
#X connect 40 0 3 0;
#X connect 41 0 25 0;
#X connect 42 0 15 0;
