#N canvas -3 0 1360 725 10;
#X obj 47 514 +~;
#X obj 401 216 hsl 128 15 0 25 0 0 empty empty empty -2 -8 0 10 -262144
-1 -1 0 1;
#X obj 333 284 sig~ 50;
#X obj 485 276 nbx 5 14 -1e+037 1e+037 0 0 empty empty empty 0 -8 0
10 -262144 -1 -1 0 256;
#X obj 822 296 t f f;
#X obj 863 391 noise~;
#X obj 907 526 fexpr~ $x1[0]+ $y1[-1]*0.999;
#X obj 240 260 *~ 1;
#X obj 913 604 expr~ sin($v1);
#X obj 891 465 *~ 1;
#X obj 899 250 hsl 128 15 0.01 10 1 0 empty empty empty -2 -8 0 10
-262144 -1 -1 0 1;
#X obj 928 336 nbx 5 14 -1e+037 1e+037 0 0 empty empty empty 0 -8 0
10 -262144 -1 -1 0 256;
#X obj 903 500 fexpr~ $x1[0]+ $y1[-1]*$f2;
#X obj 1017 423 nbx 5 14 -1e+037 1e+037 0 0 empty empty empty 0 -8
0 10 -262144 -1 -1 0 256;
#X obj 1017 372 + 1;
#X obj 1021 352 / -1000;
#X obj 866 430 lop~ 1;
#X obj 65 399 lop~ 1500;
#X obj 159 442 noise~;
#X obj 162 474 *~ 0.2;
#X obj 159 457 lop~ 40;
#X obj 422 174 / 2;
#X obj 421 121 r depth-\$1;
#X obj 826 81 hsl 128 15 1 4 0 0 empty empty empty -2 -8 0 10 -262144
-1 -1 0 1;
#X obj 751 231 nbx 9 14 -1e+037 1e+037 0 0 empty empty empty 0 -8 0
10 -262144 -1 -1 0 256;
#X obj 784 209 / 1000;
#X obj 824 173 pow 1;
#X obj 851 116 t b f;
#X msg 843 140 10;
#X obj 820 31 r speed-\$1;
#X text 922 37 1-4;
#X obj 933 558 /~ 4500;
#X obj 53 28 inlet~;
#X obj 213 14 inlet~;
#X obj 234 287 +~;
#X obj 258 413 lop~ 1500;
#X obj 33 601 outlet~;
#X obj 190 601 outlet~;
#X obj 220 525 +~;
#X obj 160 368 r filt-\$1;
#X obj 387 412 r noise-\$1;
#N canvas 288 85 450 300 delw 0;
#X obj 57 87 inlet~;
#X obj 134 77 inlet~;
#X obj 92 249 outlet~;
#X obj 48 141 delwrite~ delL-\$1 60;
#X obj 188 140 delwrite~ delR-\$1 60;
#X connect 0 0 3 0;
#X connect 1 0 4 0;
#X restore 56 194 pd delw;
#N canvas -8 -8 1360 725 delr 0;
#X obj 93 101 inlet~;
#X obj 160 214 outlet~;
#X obj 65 218 outlet~;
#X obj 158 101 inlet~;
#X obj 208 139 delread4~ delR-\$1;
#X obj 70 140 delread4~ delL-\$1;
#X connect 0 0 5 0;
#X connect 0 0 4 0;
#X connect 4 0 1 0;
#X connect 5 0 2 0;
#X restore 63 261 pd delr;
#X text 116 210 dummy connection to force order;
#X obj 382 440 * 0.05;
#X connect 0 0 36 0;
#X connect 1 0 2 0;
#X connect 1 0 3 0;
#X connect 1 0 7 1;
#X connect 2 0 34 1;
#X connect 5 0 16 0;
#X connect 6 0 31 0;
#X connect 7 0 34 0;
#X connect 8 0 7 0;
#X connect 9 0 12 0;
#X connect 10 0 11 0;
#X connect 11 0 9 1;
#X connect 11 0 15 0;
#X connect 12 0 6 0;
#X connect 13 0 12 1;
#X connect 14 0 13 0;
#X connect 15 0 14 0;
#X connect 16 0 9 0;
#X connect 17 0 0 0;
#X connect 18 0 20 0;
#X connect 19 0 0 1;
#X connect 19 0 38 1;
#X connect 20 0 19 0;
#X connect 21 0 1 0;
#X connect 22 0 21 0;
#X connect 23 0 27 0;
#X connect 24 0 11 0;
#X connect 25 0 24 0;
#X connect 26 0 25 0;
#X connect 27 0 28 0;
#X connect 27 1 26 1;
#X connect 28 0 26 0;
#X connect 29 0 23 0;
#X connect 31 0 8 0;
#X connect 32 0 41 0;
#X connect 33 0 41 1;
#X connect 34 0 42 0;
#X connect 35 0 38 0;
#X connect 38 0 37 0;
#X connect 39 0 35 1;
#X connect 39 0 17 1;
#X connect 40 0 44 0;
#X connect 41 0 42 1;
#X connect 42 0 17 0;
#X connect 42 1 35 0;
#X connect 44 0 19 1;
