#N canvas -8 -8 1366 725 10;
#X obj 123 333 outlet;
#X obj 139 141 r mc_chan_\$2-\$1;
#X obj 160 274 list \$1;
#X msg 165 296 dest \$1 \$2;
#X obj 280 264 list \$1;
#X obj 258 131 r mc_trans_\$2-\$1;
#X msg 285 288 transpose \$1 \$2;
#X obj 470 274 list \$1;
#X msg 475 298 transpose \$1 \$2;
#X obj 448 141 r mc_quant_\$2-\$1;
#X connect 1 0 2 0;
#X connect 2 0 3 0;
#X connect 3 0 0 0;
#X connect 4 0 6 0;
#X connect 5 0 4 0;
#X connect 6 0 0 0;
#X connect 7 0 8 0;
#X connect 8 0 0 0;
#X connect 9 0 7 0;
