#N canvas -8 -8 1366 725 10;
#X obj 123 333 outlet;
#X obj 139 141 r mc_chan_\$2-\$1;
#X obj 258 131 r mc_trans_\$2-\$1;
#X obj 448 141 r mc_quant_\$2-\$1;
#X obj 160 275 list \$2;
#X obj 280 263 list \$2;
#X obj 470 274 list \$2;
#X msg 165 295 dest \$2 \$1;
#X msg 285 289 transpose \$2 \$1;
#X msg 475 298 quantize_loop \$2 \$1;
#X connect 1 0 4 0;
#X connect 2 0 5 0;
#X connect 3 0 6 0;
#X connect 4 0 7 0;
#X connect 5 0 8 0;
#X connect 6 0 9 0;
#X connect 7 0 0 0;
#X connect 8 0 0 0;
#X connect 9 0 0 0;
