#N canvas 406 152 578 580 10;
#X obj 178 181 until;
#X floatatom 120 66 5 0 0 0 - - -;
#X obj 133 26 bng 15 250 50 0 empty empty empty 17 7 0 10 -262144 -1
-1;
#X obj 174 69 % 24;
#X obj 121 45 f;
#X obj 177 47 + 1;
#X obj 228 138 * 4;
#X floatatom 183 238 5 0 0 0 - - -;
#X obj 184 217 f;
#X obj 240 219 + 1;
#X obj 232 165 ==;
#X obj 232 186 sel 1;
#X obj 237 241 % 96;
#X obj 117 112 t b b f;
#X obj 84 171 delay 20;
#X obj 57 207 delay 60;
#X obj 23 181 delay 40;
#X obj 22 76 timer;
#X obj 23 55 t b b;
#X floatatom 22 94 5 0 0 0 - - -;
#X obj 34 114 / 4;
#X obj 20 139 * 2;
#X obj 66 145 * 3;
#X obj 60 13 inlet;
#X obj 182 268 outlet;
#X connect 0 0 8 0;
#X connect 1 0 5 0;
#X connect 1 0 13 0;
#X connect 2 0 4 0;
#X connect 3 0 4 1;
#X connect 4 0 1 0;
#X connect 5 0 3 0;
#X connect 6 0 10 1;
#X connect 7 0 9 0;
#X connect 7 0 10 0;
#X connect 7 0 24 0;
#X connect 8 0 7 0;
#X connect 9 0 12 0;
#X connect 10 0 11 0;
#X connect 11 0 0 1;
#X connect 12 0 8 1;
#X connect 13 0 14 0;
#X connect 13 0 16 0;
#X connect 13 0 15 0;
#X connect 13 1 0 0;
#X connect 13 2 6 0;
#X connect 13 2 18 0;
#X connect 14 0 8 0;
#X connect 15 0 8 0;
#X connect 16 0 8 0;
#X connect 17 0 19 0;
#X connect 18 0 17 0;
#X connect 18 1 17 1;
#X connect 19 0 20 0;
#X connect 20 0 14 1;
#X connect 20 0 21 0;
#X connect 20 0 22 0;
#X connect 21 0 16 1;
#X connect 22 0 15 1;
#X connect 23 0 1 0;
