#N canvas 459 398 476 529 10;
#X obj 262 394 inlet~ inL-\$1;
#X obj 348 404 inlet~ inR-\$1;
#X obj 277 458 outlet~ outL-\$1;
#X obj 348 440 outlet~ outR-\$1;
#X obj 253 348 r moog_cut-\$1;
#X obj 243 302 r moog_res-\$1;
#X obj 233 256 r moog_env-\$1;
#X obj 207 476 s screenLine5;
#X obj 223 210 r highpass-\$1;
#X obj 212 94 sel \$1;
#X obj 212 76 unpack s s;
#X obj 212 58 r activePage;
#X obj 212 164 &&, f 4;
#X msg 269 130 1;
#X msg 332 112 0;
#X msg 212 132 1;
#X msg 245 112 0;
#X obj 269 94 sel pg_freq;
#X obj 18 16 r loadbang-\$1;
#X obj 28 108 s aux-label-\$1;
#X obj 38 44 int 0;
#X obj 38 62 s aux-led-\$1;
#X obj 28 90 symbol;
#X obj 18 136 print loaded:filtration into \$1;
#X msg 212 182 activepage \$1;
#X msg 223 228 highpass \$1;
#X obj 207 422 pd~ -ninsig 2 -noutsig 2;
#X msg 233 274 moog_env \$1;
#X msg 243 320 moog_res \$1;
#X msg 253 366 moog_cut \$1;
#X msg 207 30 pd~ start -nogui pd~-filtration.pd;
#X connect 0 0 26 0;
#X connect 1 0 26 1;
#X connect 4 0 29 0;
#X connect 5 0 28 0;
#X connect 6 0 27 0;
#X connect 8 0 25 0;
#X connect 9 0 15 0;
#X connect 9 1 16 0;
#X connect 10 0 9 0;
#X connect 10 1 17 0;
#X connect 11 0 10 0;
#X connect 12 0 24 0;
#X connect 13 0 12 1;
#X connect 14 0 12 1;
#X connect 15 0 12 0;
#X connect 16 0 12 0;
#X connect 17 0 13 0;
#X connect 17 1 14 0;
#X connect 18 0 20 0;
#X connect 18 0 22 0;
#X connect 18 0 23 0;
#X connect 18 0 30 0;
#X connect 20 0 21 0;
#X connect 22 0 19 0;
#X connect 24 0 26 0;
#X connect 25 0 26 0;
#X connect 26 0 7 0;
#X connect 26 1 2 0;
#X connect 26 2 3 0;
#X connect 27 0 26 0;
#X connect 28 0 26 0;
#X connect 29 0 26 0;
#X connect 30 0 26 0;
