#N canvas 459 186 684 729 10;
#X obj 82 422 inlet~ inL-\$1;
#X obj 168 432 inlet~ inR-\$1;
#X obj 97 486 outlet~ outL-\$1;
#X obj 168 468 outlet~ outR-\$1;
#X obj 73 376 r moog_cut-\$1;
#X obj 63 330 r moog_res-\$1;
#X obj 53 284 r moog_env-\$1;
#X obj 27 504 s screenLine5;
#X obj 43 238 r highpass-\$1;
#X obj 32 94 sel \$1;
#X obj 32 76 unpack s s;
#X obj 32 58 r activePage;
#X obj 32 164 &&, f 4;
#X msg 89 130 1;
#X msg 152 112 0;
#X msg 32 132 1;
#X msg 65 112 0;
#X obj 89 94 sel pg_freq;
#X obj 27 12 r loadbang-\$1;
#X msg 32 210 activepage \$1;
#X msg 43 256 highpass \$1;
#X obj 27 450 pd~ -ninsig 2 -noutsig 2;
#X msg 53 302 moog_env \$1;
#X msg 63 348 moog_res \$1;
#X msg 73 394 moog_cut \$1;
#X msg 27 30 pd~ start -nogui pd~-filtration.pd;
#X obj 35 689 s oscOutRaw;
#X obj 381 243 r auxIn-\$1;
#X msg 475 433 /oled/aux/clear 1;
#X msg 415 545 /oled/setscreen 1;
#X msg 420 619 /oled/setscreen 3;
#X msg 381 675 /oled/aux/clear 1;
#X obj 381 397 sel 0 1;
#X msg 400 573 6;
#X obj 253 661 s aux-led-\$1;
#X obj 381 601 t b b b;
#X msg 400 647 0;
#X obj 386 297 cputime;
#X obj 386 261 metro 1000;
#X obj 386 279 t b b, f 7;
#X obj 386 333 * 0.1;
#X obj 386 315 int;
#X msg 445 489 /oled/aux/line/2 multi-processed;
#X msg 430 517 /oled/aux/line/3 stereo filters;
#X msg 386 369 /oled/aux/line/4 CPU = \$1 %;
#X obj 386 351 min 100;
#X obj 400 415 t b b b b b b;
#X obj 27 486 spigot;
#X obj 32 182 change;
#X msg 460 461 /oled/aux/line/1 Filtration (1.4);
#X connect 0 0 21 0;
#X connect 1 0 21 1;
#X connect 4 0 24 0;
#X connect 5 0 23 0;
#X connect 6 0 22 0;
#X connect 8 0 20 0;
#X connect 9 0 15 0;
#X connect 9 1 16 0;
#X connect 10 0 9 0;
#X connect 10 1 17 0;
#X connect 11 0 10 0;
#X connect 12 0 48 0;
#X connect 13 0 12 1;
#X connect 14 0 12 1;
#X connect 15 0 12 0;
#X connect 16 0 12 0;
#X connect 17 0 13 0;
#X connect 17 1 14 0;
#X connect 18 0 25 0;
#X connect 19 0 21 0;
#X connect 20 0 21 0;
#X connect 21 0 47 0;
#X connect 21 1 2 0;
#X connect 21 2 3 0;
#X connect 22 0 21 0;
#X connect 23 0 21 0;
#X connect 24 0 21 0;
#X connect 25 0 21 0;
#X connect 27 0 32 0;
#X connect 27 0 38 0;
#X connect 28 0 26 0;
#X connect 29 0 26 0;
#X connect 30 0 26 0;
#X connect 31 0 26 0;
#X connect 32 0 35 0;
#X connect 32 1 46 0;
#X connect 33 0 34 0;
#X connect 35 0 31 0;
#X connect 35 1 36 0;
#X connect 35 2 30 0;
#X connect 36 0 34 0;
#X connect 37 0 41 0;
#X connect 38 0 39 0;
#X connect 39 0 37 0;
#X connect 39 1 37 1;
#X connect 40 0 45 0;
#X connect 41 0 40 0;
#X connect 42 0 26 0;
#X connect 43 0 26 0;
#X connect 44 0 26 0;
#X connect 45 0 44 0;
#X connect 46 0 33 0;
#X connect 46 1 29 0;
#X connect 46 2 43 0;
#X connect 46 3 42 0;
#X connect 46 4 49 0;
#X connect 46 5 28 0;
#X connect 47 0 7 0;
#X connect 48 0 19 0;
#X connect 48 0 47 1;
#X connect 49 0 26 0;
