#N canvas 8 50 464 669 10;
#X obj 229 17 inlet~ inL-\$1;
#X obj 325 17 inlet~ inR-\$1;
#X obj 229 625 outlet~ outL-\$1;
#X obj 325 625 outlet~ outR-\$1;
#X obj 229 607 bob~;
#X obj 347 579 line~;
#X obj 347 561 pack 0 50;
#X obj 351 292 r moog_cut-\$1;
#X obj 347 507 r moog_res-\$1;
#X obj 347 525 / 100;
#X obj 325 607 bob~;
#X obj 351 364 log;
#X obj 351 328 * -1;
#X obj 351 346 + 1;
#X obj 351 382 * -2000;
#X floatatom 351 400 5 0 0 0 - - -;
#X text 383 400 hz;
#X obj 351 310 / 100;
#X obj 132 274 env~;
#X obj 336 417 +;
#X obj 347 543 * 4;
#X obj 132 346 *;
#X obj 147 292 r moog_env-\$1;
#X obj 147 328 + 0;
#X obj 147 310 / 10;
#X obj 102 575 s screenLine5;
#X obj 147 503 snapshot~;
#X obj 147 475 metro 40;
#X obj 147 521 i;
#X obj 147 447 r loadbang-\$1;
#X obj 346 35 r highpass-\$1;
#X obj 325 274 hip~;
#X obj 229 274 hip~;
#X obj 102 539 pack f f;
#X obj 102 481 i;
#X obj 80 462 bng 15 250 50 0 empty empty empty 17 7 0 10 -262144 -1
-1;
#X obj 346 109 log;
#X obj 346 73 * -1;
#X obj 346 91 + 1;
#X obj 346 127 * -2000;
#X floatatom 346 181 5 0 0 0 - - -;
#X text 378 181 hz;
#X obj 346 55 / 100;
#X obj 22 158 sel \$1;
#X msg 74 274 stop;
#X obj 22 140 unpack s s;
#X obj 22 122 r activePage;
#X obj 55 228 &&, f 4;
#X msg 79 194 1;
#X msg 142 176 0;
#X obj 55 256 sel 1 0;
#X msg 22 196 1;
#X msg 55 176 0;
#X obj 79 158 sel pg_freq;
#X msg 102 557 \$1 hz < > \$2 hz;
#X obj 336 471 pack 0 30;
#X obj 346 198 pack 0 30;
#X obj 346 215 line 0 3;
#X obj 336 489 line~ 0 3;
#X obj 346 163 + 15;
#X obj 346 145 min 16985;
#X obj 336 435 min 16986;
#X obj 336 453 + 15;
#X connect 0 0 18 0;
#X connect 0 0 32 0;
#X connect 1 0 31 0;
#X connect 4 0 2 0;
#X connect 5 0 4 2;
#X connect 5 0 10 2;
#X connect 6 0 5 0;
#X connect 7 0 17 0;
#X connect 8 0 9 0;
#X connect 9 0 20 0;
#X connect 10 0 3 0;
#X connect 11 0 14 0;
#X connect 12 0 13 0;
#X connect 13 0 11 0;
#X connect 14 0 15 0;
#X connect 15 0 19 1;
#X connect 17 0 12 0;
#X connect 18 0 21 0;
#X connect 19 0 61 0;
#X connect 20 0 6 0;
#X connect 21 0 19 0;
#X connect 22 0 24 0;
#X connect 23 0 21 1;
#X connect 24 0 23 0;
#X connect 26 0 28 0;
#X connect 27 0 26 0;
#X connect 27 0 33 0;
#X connect 28 0 33 1;
#X connect 29 0 27 0;
#X connect 30 0 42 0;
#X connect 31 0 10 0;
#X connect 32 0 4 0;
#X connect 33 0 54 0;
#X connect 34 0 33 0;
#X connect 35 0 27 0;
#X connect 36 0 39 0;
#X connect 37 0 38 0;
#X connect 38 0 36 0;
#X connect 39 0 60 0;
#X connect 40 0 56 0;
#X connect 42 0 37 0;
#X connect 43 0 51 0;
#X connect 43 1 52 0;
#X connect 44 0 27 0;
#X connect 45 0 43 0;
#X connect 45 1 53 0;
#X connect 46 0 45 0;
#X connect 47 0 50 0;
#X connect 48 0 47 1;
#X connect 49 0 47 1;
#X connect 50 0 27 0;
#X connect 50 1 44 0;
#X connect 51 0 47 0;
#X connect 52 0 47 0;
#X connect 53 0 48 0;
#X connect 53 1 49 0;
#X connect 54 0 25 0;
#X connect 55 0 58 0;
#X connect 56 0 57 0;
#X connect 57 0 34 0;
#X connect 57 0 31 1;
#X connect 57 0 32 1;
#X connect 58 0 10 1;
#X connect 58 0 4 1;
#X connect 58 0 26 0;
#X connect 59 0 40 0;
#X connect 60 0 59 0;
#X connect 61 0 62 0;
#X connect 62 0 55 0;
