#N canvas 304 77 398 692 10;
#X obj 77 574 stdout;
#X obj 180 652 dac~;
#X obj 180 11 adc~;
#X msg 7 460 \; pd dsp 1;
#X obj 298 596 line~;
#X obj 298 578 pack 0 50;
#X obj 298 542 / 100;
#X obj 302 363 log;
#X obj 302 327 * -1;
#X obj 302 345 + 1;
#X obj 302 381 * -2000;
#X floatatom 302 399 5 0 0 0 - - -;
#X text 334 399 hz;
#X obj 302 309 / 100;
#X obj 101 255 env~;
#X obj 287 416 +;
#X obj 298 560 * 4;
#X obj 101 345 *;
#X obj 116 327 + 0;
#X obj 116 309 / 10;
#X obj 122 502 snapshot~;
#X obj 122 474 metro 40;
#X obj 122 520 i;
#X obj 77 538 pack f f;
#X obj 77 480 i;
#X obj 297 101 log;
#X obj 297 65 * -1;
#X obj 297 83 + 1;
#X obj 297 119 * -2000;
#X floatatom 297 173 5 0 0 0 - - -;
#X text 329 173 hz;
#X obj 297 47 / 100;
#X msg 43 255 stop;
#X obj 24 237 sel 1 0;
#X msg 77 556 \$1 hz < > \$2 hz;
#X obj 287 470 pack 0 30;
#X obj 297 190 pack 0 30;
#X obj 297 207 line 0 3;
#X obj 287 488 line~ 0 3;
#X obj 297 155 + 15;
#X obj 297 137 min 16985;
#X obj 287 434 min 16986;
#X obj 287 452 + 15;
#X obj 297 11 r highpass;
#X obj 302 273 r moog_cut;
#X obj 298 506 r moog_res;
#X obj 122 446 loadbang;
#X obj 24 219 r activepage;
#X obj 116 273 r moog_env;
#X obj 180 255 hip~ 15;
#X obj 276 255 hip~ 15;
#X obj 180 624 bob~ 17000;
#X obj 276 624 bob~ 17000;
#X obj 298 524 f 0;
#X obj 302 291 f 100;
#X obj 116 291 f 0;
#X obj 297 29 f 0;
#X connect 2 0 14 0;
#X connect 2 0 49 0;
#X connect 2 1 50 0;
#X connect 4 0 51 2;
#X connect 4 0 52 2;
#X connect 5 0 4 0;
#X connect 6 0 16 0;
#X connect 7 0 10 0;
#X connect 8 0 9 0;
#X connect 9 0 7 0;
#X connect 10 0 11 0;
#X connect 11 0 15 1;
#X connect 13 0 8 0;
#X connect 14 0 17 0;
#X connect 15 0 41 0;
#X connect 16 0 5 0;
#X connect 17 0 15 0;
#X connect 18 0 17 1;
#X connect 19 0 18 0;
#X connect 20 0 22 0;
#X connect 21 0 20 0;
#X connect 21 0 23 0;
#X connect 22 0 23 1;
#X connect 23 0 34 0;
#X connect 24 0 23 0;
#X connect 25 0 28 0;
#X connect 26 0 27 0;
#X connect 27 0 25 0;
#X connect 28 0 40 0;
#X connect 29 0 36 0;
#X connect 31 0 26 0;
#X connect 32 0 21 0;
#X connect 33 0 21 0;
#X connect 33 1 32 0;
#X connect 34 0 0 0;
#X connect 35 0 38 0;
#X connect 36 0 37 0;
#X connect 37 0 24 0;
#X connect 37 0 49 1;
#X connect 37 0 50 1;
#X connect 38 0 20 0;
#X connect 38 0 51 1;
#X connect 38 0 52 1;
#X connect 39 0 29 0;
#X connect 40 0 39 0;
#X connect 41 0 42 0;
#X connect 42 0 35 0;
#X connect 43 0 56 0;
#X connect 44 0 54 0;
#X connect 45 0 53 0;
#X connect 46 0 21 0;
#X connect 46 0 3 0;
#X connect 47 0 33 0;
#X connect 48 0 55 0;
#X connect 49 0 51 0;
#X connect 50 0 52 0;
#X connect 51 0 1 0;
#X connect 52 0 1 1;
#X connect 53 0 6 0;
#X connect 54 0 13 0;
#X connect 55 0 19 0;
#X connect 56 0 31 0;
