#N canvas -8 -8 1366 725 10;
#X obj 33 80 r notesIn-\$1;
#X obj 304 601 s notesOut-\$1;
#X obj 25 186 inlet~ inL-\$1;
#X obj 135 186 inlet~ inR-\$1;
#X obj 27 601 outlet~ outL-\$1;
#X obj 136 601 outlet~ outR-\$1;
#X obj 153 79 r auxIn-\$1;
#X obj 152 102 r expIn-\$1;
#X obj 152 127 r fsIn-\$1;
#X obj 507 492 pack 0 0;
#X obj 507 402 r l_bus-\$1;
#X obj 233 79 r ctrlIn-\$1;
#X obj 507 600 s ctrlOut-\$1;
#X obj 588 492 < 10;
#X obj 507 552 spigot 0;
#X obj 716 509 != 1;
#X obj 671 552 spigot 0;
#X obj 671 600 s rackMsgs;
#X msg 1443 219 \; wavef-\$1 normalize 1;
#X obj 1443 197 symbol \$1;
#X text 74 219 modulation is unipolar 0 to 1;
#X obj 670 480 pack s 0 0;
#X obj 670 447 symbol \$1;
#X obj 669 415 t b f;
#X msg 671 579 modulate \$1 \$2 \$3;
#X obj 481 127 random 1024;
#X obj 483 176 / 1024;
#X obj 483 152 - 512;
#X obj 492 249 +;
#X obj 482 85 bng 15 250 50 0 empty empty empty 17 7 0 10 -262144 -1
-1;
#X obj 493 224 * 1;
#X obj 701 78 hsl 64 15 0 0.99 0 0 empty empty empty -2 -8 0 10 -262144
-1 -1 0 1;
#X obj 418 56 loadbang;
#X obj 505 52 r loadbang-\$1;
#X obj 338 395 hsl 128 15 0 1 0 0 empty empty empty -2 -8 0 10 -262144
-1 -1 0 1;
#X obj 498 274 clip 0 1;
#X obj 637 23 r l_rate-\$1;
#X obj 622 94 t f f;
#X obj 616 119 *;
#X obj 603 204 r l_min-\$1;
#X obj 684 209 r l_max-\$1;
#X obj 652 361 +;
#X obj 601 228 / 100;
#X obj 682 234 / 100;
#X obj 641 289 -;
#X obj 497 297 *;
#X obj 623 184 hsl 64 15 0 100 0 0 empty empty empty -2 -8 0 10 -262144
-1 -1 0 1;
#X obj 700 182 hsl 64 15 0 100 0 0 empty empty empty -2 -8 0 10 -262144
-1 -1 0 1;
#X obj 542 300 nbx 5 14 -1e+037 1e+037 0 0 empty empty empty 0 -8 0
10 -262144 -1 -1 0 256;
#X obj 637 261 t b f;
#X obj 666 388 spigot 1;
#X obj 722 359 > 0;
#X obj 626 60 / 100;
#X obj 482 106 metro 25;
#X obj 587 157 * 3;
#X connect 9 0 14 0;
#X connect 10 0 13 0;
#X connect 10 0 9 0;
#X connect 10 0 21 1;
#X connect 13 0 14 1;
#X connect 13 0 15 0;
#X connect 14 0 12 0;
#X connect 15 0 16 1;
#X connect 16 0 24 0;
#X connect 19 0 18 0;
#X connect 21 0 16 0;
#X connect 22 0 21 0;
#X connect 23 0 9 0;
#X connect 23 0 22 0;
#X connect 23 1 21 2;
#X connect 23 1 9 1;
#X connect 24 0 17 0;
#X connect 25 0 27 0;
#X connect 26 0 30 0;
#X connect 27 0 26 0;
#X connect 28 0 35 0;
#X connect 29 0 53 0;
#X connect 30 0 28 0;
#X connect 31 0 37 0;
#X connect 32 0 29 0;
#X connect 33 0 29 0;
#X connect 35 0 28 1;
#X connect 35 0 45 0;
#X connect 36 0 51 0;
#X connect 36 0 52 0;
#X connect 37 0 38 0;
#X connect 37 1 38 1;
#X connect 38 0 54 0;
#X connect 39 0 42 0;
#X connect 40 0 43 0;
#X connect 41 0 34 0;
#X connect 41 0 50 0;
#X connect 42 0 41 1;
#X connect 42 0 49 0;
#X connect 43 0 44 0;
#X connect 44 0 48 0;
#X connect 45 0 41 0;
#X connect 46 0 42 0;
#X connect 47 0 43 0;
#X connect 48 0 45 1;
#X connect 49 0 44 0;
#X connect 49 1 44 1;
#X connect 50 0 23 0;
#X connect 51 0 50 1;
#X connect 52 0 37 0;
#X connect 53 0 25 0;
#X connect 54 0 30 1;
