#N canvas 228 202 791 583 10;
#X obj 106 41 inlet~;
#X obj 104 428 outlet~;
#X obj 241 151 inlet;
#X obj 292 151 inlet;
#X obj 198 186 osc~;
#X obj 198 223 *~;
#X obj 346 151 inlet;
#X obj 347 191 sig~;
#X obj 198 254 +~;
#X obj 156 335 *~;
#X obj 102 334 *~;
#X obj 409 149 inlet;
#X obj 340 261 swap 1;
#X obj 338 292 -;
#X obj 132 85 delwrite~ \$0chorus 1000;
#X obj 198 284 vd~ \$0chorus;
#X obj 581 196 switch~;
#X obj 580 152 r chorusswitch;
#X connect 0 0 10 0;
#X connect 0 0 14 0;
#X connect 2 0 4 0;
#X connect 3 0 5 1;
#X connect 4 0 5 0;
#X connect 5 0 8 0;
#X connect 6 0 7 0;
#X connect 7 0 8 1;
#X connect 8 0 15 0;
#X connect 9 0 1 0;
#X connect 10 0 1 0;
#X connect 11 0 12 0;
#X connect 11 0 9 1;
#X connect 12 0 13 0;
#X connect 12 1 13 1;
#X connect 13 0 10 1;
#X connect 15 0 9 0;
#X connect 17 0 16 0;
