#N canvas 125 180 759 637 10;
#X obj 86 534 outlet~;
#X obj 131 38 inlet~;
#X obj 261 535 outlet~;
#X obj 69 224 inlet~;
#X obj 94 193 *~;
#X obj 291 252 *~;
#X obj 565 40 inlet;
#X text 563 16 Regen;
#X text 627 17 Time;
#X obj 653 202 switch~;
#X obj 654 146 r delayswitch;
#X obj 419 250 +~;
#X obj 115 290 delwrite~ \$0-delayL 1000;
#X obj 96 91 delwrite~ \$0-delayR 1000;
#X obj 400 122 +~;
#X obj 364 46 loadbang;
#X obj 512 223 *~ 1.6;
#X obj 626 40 inlet~;
#X obj 513 199 osc~ 0.3;
#X obj 444 27 osc~ 0.26;
#X obj 579 134 *~ 1.17;
#X obj 203 350 *~ 0.35;
#X obj 265 349 *~ 0.65;
#X obj 115 347 *~ 0.35;
#X obj 59 349 *~ 0.65;
#X obj 222 160 vd~ \$0-delayR 1000;
#X obj 414 279 vd~ \$0-delayL 1000;
#X msg 352 66 650;
#X obj 393 184 loadbang;
#X msg 381 204 650;
#X obj 350 230 lop~, f 7;
#X obj 321 92 lop~, f 7;
#X obj 111 63 *~ 0.59;
#X obj 161 63 *~ 0.41;
#X obj 27 251 *~ 0.59;
#X obj 84 252 *~ 0.41;
#X connect 1 0 32 0;
#X connect 1 0 33 0;
#X connect 3 0 34 0;
#X connect 3 0 35 0;
#X connect 4 0 13 0;
#X connect 5 0 12 0;
#X connect 6 0 5 1;
#X connect 6 0 4 1;
#X connect 10 0 9 0;
#X connect 11 0 26 0;
#X connect 14 0 25 0;
#X connect 15 0 27 0;
#X connect 16 0 11 0;
#X connect 17 0 14 1;
#X connect 17 0 20 0;
#X connect 18 0 16 0;
#X connect 19 0 14 0;
#X connect 20 0 11 1;
#X connect 21 0 0 0;
#X connect 22 0 2 0;
#X connect 23 0 2 0;
#X connect 24 0 0 0;
#X connect 25 0 21 0;
#X connect 25 0 22 0;
#X connect 25 0 31 0;
#X connect 26 0 24 0;
#X connect 26 0 23 0;
#X connect 26 0 30 0;
#X connect 27 0 31 1;
#X connect 28 0 29 0;
#X connect 29 0 30 1;
#X connect 30 0 5 0;
#X connect 31 0 4 0;
#X connect 32 0 2 0;
#X connect 33 0 13 0;
#X connect 34 0 0 0;
#X connect 35 0 12 0;
