#N canvas 317 23 1224 886 10;
#X obj 81 98 s enableSubMenu;
#X obj 79 32 loadbang;
#X obj 341 57 r enc;
#X obj 343 834 s goHome;
#X obj 355 308 value;
#X obj 515 121 r encbut;
#X obj 550 171 sel 1;
#X obj 1004 470 s screenLine1;
#N canvas 238 382 613 566 Juno 0;
#X obj 48 40 inlet;
#X obj 212 139 s transposepreset;
#X obj 211 163 s AmpEGpreset;
#X obj 210 186 s FilterEGpreset;
#X obj 208 209 s filterpreset;
#X obj 207 236 s osc1preset;
#X obj 207 260 s osc2preset;
#X obj 207 283 s pwmpreset;
#X obj 206 306 s fxpreset;
#X msg 140 163 4;
#X msg 140 285 0;
#X msg 140 310 2;
#X msg 141 263 0;
#X msg 139 236 1;
#X msg 140 186 5;
#X obj 82 78 delay 1;
#X msg 141 211 520;
#X msg 139 141 2;
#X connect 0 0 13 0;
#X connect 0 0 12 0;
#X connect 0 0 10 0;
#X connect 0 0 11 0;
#X connect 0 0 15 0;
#X connect 9 0 2 0;
#X connect 10 0 7 0;
#X connect 11 0 8 0;
#X connect 12 0 6 0;
#X connect 13 0 5 0;
#X connect 14 0 3 0;
#X connect 15 0 17 0;
#X connect 15 0 9 0;
#X connect 15 0 14 0;
#X connect 15 0 16 0;
#X connect 16 0 4 0;
#X connect 17 0 1 0;
#X restore 154 607 pd Juno StringsI;
#N canvas 238 382 613 566 Simple 0;
#X obj 48 40 inlet;
#X obj 212 139 s transposepreset;
#X obj 211 163 s AmpEGpreset;
#X obj 210 186 s FilterEGpreset;
#X obj 208 209 s filterpreset;
#X obj 207 236 s osc1preset;
#X obj 207 260 s osc2preset;
#X obj 207 283 s pwmpreset;
#X obj 206 306 s fxpreset;
#X msg 140 163 4;
#X msg 141 285 0;
#X msg 141 263 0;
#X msg 141 238 0;
#X msg 141 211 150;
#X msg 141 310 3;
#X msg 140 185 6;
#X obj 82 78 delay 1;
#X msg 140 141 2;
#X connect 0 0 12 0;
#X connect 0 0 11 0;
#X connect 0 0 10 0;
#X connect 0 0 14 0;
#X connect 0 0 16 0;
#X connect 9 0 2 0;
#X connect 10 0 7 0;
#X connect 11 0 6 0;
#X connect 12 0 5 0;
#X connect 13 0 4 0;
#X connect 14 0 8 0;
#X connect 15 0 3 0;
#X connect 16 0 17 0;
#X connect 16 0 9 0;
#X connect 16 0 15 0;
#X connect 16 0 13 0;
#X connect 17 0 1 0;
#X restore 156 775 pd Simple Strings;
#N canvas 87 168 613 566 Phasing 0;
#X obj 48 40 inlet;
#X obj 212 139 s transposepreset;
#X obj 211 163 s AmpEGpreset;
#X obj 210 186 s FilterEGpreset;
#X obj 208 209 s filterpreset;
#X obj 207 236 s osc1preset;
#X obj 207 260 s osc2preset;
#X obj 207 283 s pwmpreset;
#X obj 206 306 s fxpreset;
#X msg 141 263 2;
#X msg 141 285 1.1;
#X msg 142 238 2;
#X msg 140 185 1;
#X msg 141 211 1300;
#X obj 82 78 delay 1;
#X msg 140 141 2;
#X msg 140 163 2;
#X msg 141 310 8.45;
#X connect 0 0 11 0;
#X connect 0 0 9 0;
#X connect 0 0 10 0;
#X connect 0 0 17 0;
#X connect 0 0 14 0;
#X connect 9 0 6 0;
#X connect 10 0 7 0;
#X connect 11 0 5 0;
#X connect 12 0 3 0;
#X connect 13 0 4 0;
#X connect 14 0 15 0;
#X connect 14 0 16 0;
#X connect 14 0 12 0;
#X connect 14 0 13 0;
#X connect 15 0 1 0;
#X connect 16 0 2 0;
#X connect 17 0 8 0;
#X restore 155 808 pd Phasing Keys;
#N canvas 267 274 613 566 Stringmachine 0;
#X obj 48 40 inlet;
#X obj 212 139 s transposepreset;
#X obj 211 163 s AmpEGpreset;
#X obj 210 186 s FilterEGpreset;
#X obj 208 209 s filterpreset;
#X obj 207 236 s osc1preset;
#X obj 207 260 s osc2preset;
#X obj 207 283 s pwmpreset;
#X obj 206 306 s fxpreset;
#X msg 141 263 0;
#X msg 140 185 3;
#X msg 141 211 2000;
#X msg 141 285 0;
#X msg 142 310 3;
#X msg 142 238 0;
#X msg 140 163 5;
#X obj 82 78 delay 1;
#X msg 140 141 2;
#X connect 0 0 14 0;
#X connect 0 0 9 0;
#X connect 0 0 12 0;
#X connect 0 0 13 0;
#X connect 0 0 16 0;
#X connect 9 0 6 0;
#X connect 10 0 3 0;
#X connect 11 0 4 0;
#X connect 12 0 7 0;
#X connect 13 0 8 0;
#X connect 14 0 5 0;
#X connect 15 0 2 0;
#X connect 16 0 17 0;
#X connect 16 0 15 0;
#X connect 16 0 10 0;
#X connect 16 0 11 0;
#X connect 17 0 1 0;
#X restore 154 663 pd Stringmachine;
#N canvas 80 384 613 566 Swirrling 0;
#X obj 48 40 inlet;
#X obj 212 139 s transposepreset;
#X obj 211 163 s AmpEGpreset;
#X obj 210 186 s FilterEGpreset;
#X obj 208 209 s filterpreset;
#X obj 207 236 s osc1preset;
#X obj 207 260 s osc2preset;
#X obj 207 283 s pwmpreset;
#X obj 206 306 s fxpreset;
#X msg 142 238 2;
#X msg 140 163 5;
#X msg 141 263 1;
#X msg 141 211 250;
#X msg 141 310 5;
#X msg 141 285 6.8;
#X msg 140 185 6;
#X obj 82 78 delay 1;
#X msg 140 141 2;
#X connect 0 0 9 0;
#X connect 0 0 11 0;
#X connect 0 0 14 0;
#X connect 0 0 13 0;
#X connect 0 0 16 0;
#X connect 9 0 5 0;
#X connect 10 0 2 0;
#X connect 11 0 6 0;
#X connect 12 0 4 0;
#X connect 13 0 8 0;
#X connect 14 0 7 0;
#X connect 15 0 3 0;
#X connect 16 0 17 0;
#X connect 16 0 10 0;
#X connect 16 0 15 0;
#X connect 16 0 12 0;
#X connect 17 0 1 0;
#X restore 154 692 pd Swirrling Pad;
#N canvas 80 384 613 566 PWM 0;
#X obj 48 40 inlet;
#X obj 212 139 s transposepreset;
#X obj 211 163 s AmpEGpreset;
#X obj 210 186 s FilterEGpreset;
#X obj 208 209 s filterpreset;
#X obj 207 236 s osc1preset;
#X obj 207 260 s osc2preset;
#X obj 207 283 s pwmpreset;
#X obj 206 306 s fxpreset;
#X msg 141 263 0;
#X msg 140 163 5;
#X msg 141 211 360;
#X msg 141 285 2.2;
#X msg 141 310 1;
#X msg 142 238 2;
#X msg 140 185 6;
#X obj 82 78 delay 1;
#X msg 140 141 2;
#X connect 0 0 14 0;
#X connect 0 0 9 0;
#X connect 0 0 12 0;
#X connect 0 0 13 0;
#X connect 0 0 16 0;
#X connect 9 0 6 0;
#X connect 10 0 2 0;
#X connect 11 0 4 0;
#X connect 12 0 7 0;
#X connect 13 0 8 0;
#X connect 14 0 5 0;
#X connect 15 0 3 0;
#X connect 16 0 17 0;
#X connect 16 0 10 0;
#X connect 16 0 15 0;
#X connect 16 0 11 0;
#X connect 17 0 1 0;
#X restore 158 720 pd PWM Pad;
#N canvas 267 274 613 566 Basic 0;
#X obj 48 40 inlet;
#X obj 212 139 s transposepreset;
#X obj 211 163 s AmpEGpreset;
#X obj 210 186 s FilterEGpreset;
#X obj 208 209 s filterpreset;
#X obj 207 236 s osc1preset;
#X obj 207 260 s osc2preset;
#X obj 207 283 s pwmpreset;
#X obj 206 306 s fxpreset;
#X msg 141 263 1;
#X msg 140 163 3;
#X msg 142 238 0;
#X obj 82 78 delay 1;
#X msg 141 310 1;
#X msg 141 285 1.2;
#X msg 140 185 3;
#X msg 140 141 2;
#X msg 141 211 150;
#X connect 0 0 11 0;
#X connect 0 0 9 0;
#X connect 0 0 14 0;
#X connect 0 0 13 0;
#X connect 0 0 12 0;
#X connect 9 0 6 0;
#X connect 10 0 2 0;
#X connect 11 0 5 0;
#X connect 12 0 16 0;
#X connect 12 0 10 0;
#X connect 12 0 15 0;
#X connect 12 0 17 0;
#X connect 13 0 8 0;
#X connect 14 0 7 0;
#X connect 15 0 3 0;
#X connect 16 0 1 0;
#X connect 17 0 4 0;
#X restore 158 579 pd Basic Patch;
#N canvas 267 274 613 566 Dark 0;
#X obj 48 40 inlet;
#X obj 212 139 s transposepreset;
#X obj 211 163 s AmpEGpreset;
#X obj 210 186 s FilterEGpreset;
#X obj 208 209 s filterpreset;
#X obj 207 236 s osc1preset;
#X obj 207 260 s osc2preset;
#X obj 207 283 s pwmpreset;
#X obj 206 306 s fxpreset;
#X msg 141 263 0;
#X msg 141 285 0;
#X msg 140 185 0;
#X msg 142 238 1;
#X msg 140 163 6;
#X msg 142 310 2;
#X obj 82 78 delay 1;
#X msg 142 210 230;
#X msg 140 141 2;
#X connect 0 0 12 0;
#X connect 0 0 9 0;
#X connect 0 0 10 0;
#X connect 0 0 14 0;
#X connect 0 0 15 0;
#X connect 9 0 6 0;
#X connect 10 0 7 0;
#X connect 11 0 3 0;
#X connect 12 0 5 0;
#X connect 13 0 2 0;
#X connect 14 0 8 0;
#X connect 15 0 17 0;
#X connect 15 0 13 0;
#X connect 15 0 11 0;
#X connect 15 0 16 0;
#X connect 16 0 4 0;
#X connect 17 0 1 0;
#X restore 156 837 pd Dark Pad;
#X obj 421 129 + 1;
#X obj 113 157 loadbang;
#X obj 374 129 float;
#X obj 335 93 sel 0 1;
#X msg 117 190 0;
#X obj 337 130 + 1;
#X obj 290 130 float;
#X obj 356 205 -;
#X obj 288 169 t b f;
#X obj 374 168 t b f;
#X msg 827 425 Juno Strings;
#X msg 827 445 Prophet Brass;
#X msg 831 560 Simple Strings;
#X msg 827 489 Swirrling Pad;
#X msg 826 512 PWM Pad;
#X msg 825 403 Basic Patch;
#X msg 826 467 Stringmachine;
#X msg 829 616 Dark Pad;
#X msg 830 640 BACK TO ROOT MENU;
#X obj 78 579 bng 15 250 50 0 empty empty empty 17 7 0 10 -262144 -1
-1;
#X obj 78 599 bng 15 250 50 0 empty empty empty 17 7 0 10 -262144 -1
-1;
#X obj 79 619 bng 15 250 50 0 empty empty empty 17 7 0 10 -262144 -1
-1;
#X obj 79 639 bng 15 250 50 0 empty empty empty 17 7 0 10 -262144 -1
-1;
#X obj 79 662 bng 15 250 50 0 empty empty empty 17 7 0 10 -262144 -1
-1;
#X obj 79 682 bng 15 250 50 0 empty empty empty 17 7 0 10 -262144 -1
-1;
#X obj 80 702 bng 15 250 50 0 empty empty empty 17 7 0 10 -262144 -1
-1;
#X obj 80 722 bng 15 250 50 0 empty empty empty 17 7 0 10 -262144 -1
-1;
#X obj 82 748 bng 15 250 50 0 empty empty empty 17 7 0 10 -262144 -1
-1;
#X obj 83 772 bng 15 250 50 0 empty empty empty 17 7 0 10 -262144 -1
-1;
#N canvas 238 382 613 566 Prophet 0;
#X obj 48 40 inlet;
#X obj 212 139 s transposepreset;
#X obj 211 163 s AmpEGpreset;
#X obj 210 186 s FilterEGpreset;
#X obj 208 209 s filterpreset;
#X obj 207 236 s osc1preset;
#X obj 207 260 s osc2preset;
#X obj 207 283 s pwmpreset;
#X obj 206 306 s fxpreset;
#X msg 140 285 0;
#X msg 141 263 0;
#X msg 140 185 4;
#X msg 141 238 2;
#X msg 141 310 1;
#X obj 99 98 delay 1;
#X msg 141 211 150;
#X msg 140 163 2;
#X msg 139 141 2;
#X connect 0 0 12 0;
#X connect 0 0 10 0;
#X connect 0 0 9 0;
#X connect 0 0 13 0;
#X connect 0 0 14 0;
#X connect 9 0 7 0;
#X connect 10 0 6 0;
#X connect 11 0 3 0;
#X connect 12 0 5 0;
#X connect 13 0 8 0;
#X connect 14 0 17 0;
#X connect 14 0 16 0;
#X connect 14 0 11 0;
#X connect 14 0 15 0;
#X connect 15 0 4 0;
#X connect 16 0 2 0;
#X connect 17 0 1 0;
#X restore 153 635 pd Prophet;
#X obj 966 255 s oscOut;
#X msg 763 191 send /oled/invertline 0;
#X obj 764 157 sel 1;
#X obj 765 128 expr if($f1 == $f2 \, 1 \, 0);
#X obj 577 33 r encvalue1;
#X obj 936 105 r encvalue2;
#X obj 354 335 s encvalue2;
#X obj 764 104 r encvalue1;
#X obj 835 61 r encvalue2;
#X obj 543 146 spigot;
#X obj 159 336 s encvalue1;
#X msg 829 584 Soft Keys;
#N canvas 885 333 613 566 Space 0;
#X obj 48 40 inlet;
#X obj 212 139 s transposepreset;
#X obj 211 163 s AmpEGpreset;
#X obj 210 186 s FilterEGpreset;
#X obj 208 209 s filterpreset;
#X obj 207 236 s osc1preset;
#X obj 207 260 s osc2preset;
#X obj 207 283 s pwmpreset;
#X obj 206 306 s fxpreset;
#X obj 99 90 delay 1;
#X msg 140 141 2;
#X msg 142 238 2;
#X msg 141 263 1;
#X msg 140 163 2;
#X msg 141 285 4;
#X msg 141 211 480;
#X msg 140 185 3;
#X msg 141 310 7.4;
#X connect 0 0 11 0;
#X connect 0 0 12 0;
#X connect 0 0 14 0;
#X connect 0 0 17 0;
#X connect 0 0 9 0;
#X connect 9 0 10 0;
#X connect 9 0 13 0;
#X connect 9 0 16 0;
#X connect 9 0 15 0;
#X connect 10 0 1 0;
#X connect 11 0 5 0;
#X connect 12 0 6 0;
#X connect 13 0 2 0;
#X connect 14 0 7 0;
#X connect 15 0 4 0;
#X connect 16 0 3 0;
#X connect 17 0 8 0;
#X restore 154 748 pd Space Echo;
#X msg 827 538 Space Echo;
#X obj 271 273 expr if($f1 < 0 \, 12+$f1 \, $f1);
#X obj 487 353 sel 0 1 2 3 4 5 6 7 8 9 10 11, f 52;
#X obj 232 489 sel 0 1 2 3 4 5 6 7 8 9 10 11, f 52;
#X obj 580 85 expr if($f1 == $f2 && $f1 != 0 && $f1 != 11 \, 0 \, 1)
;
#X obj 269 249 % 12;
#X msg 824 382 Init. Patch;
#N canvas 267 274 613 566 Init 0;
#X obj 48 40 inlet;
#X obj 212 139 s transposepreset;
#X obj 211 163 s AmpEGpreset;
#X obj 210 186 s FilterEGpreset;
#X obj 208 209 s filterpreset;
#X obj 207 236 s osc1preset;
#X obj 207 260 s osc2preset;
#X obj 207 283 s pwmpreset;
#X obj 206 306 s fxpreset;
#X msg 142 238 0;
#X obj 82 78 delay 1;
#X msg 140 141 2;
#X msg 140 163 0;
#X msg 140 185 0;
#X msg 141 211 250;
#X msg 141 263 0;
#X msg 141 285 0;
#X msg 141 310 0;
#X connect 0 0 9 0;
#X connect 0 0 15 0;
#X connect 0 0 16 0;
#X connect 0 0 17 0;
#X connect 0 0 10 0;
#X connect 9 0 5 0;
#X connect 10 0 11 0;
#X connect 10 0 12 0;
#X connect 10 0 13 0;
#X connect 10 0 14 0;
#X connect 11 0 1 0;
#X connect 12 0 2 0;
#X connect 13 0 3 0;
#X connect 14 0 4 0;
#X connect 15 0 6 0;
#X connect 16 0 7 0;
#X connect 17 0 8 0;
#X restore 159 554 pd Init Patch;
#X obj 76 555 bng 15 250 50 0 empty empty empty 17 7 0 10 -262144 -1
-1;
#X obj 642 207 spigot;
#X connect 1 0 0 0;
#X connect 2 0 19 0;
#X connect 4 0 52 0;
#X connect 4 0 62 0;
#X connect 5 0 55 0;
#X connect 6 0 4 0;
#X connect 6 0 47 0;
#X connect 6 0 63 0;
#X connect 16 0 18 1;
#X connect 17 0 20 0;
#X connect 18 0 16 0;
#X connect 18 0 25 0;
#X connect 19 0 22 0;
#X connect 19 1 18 0;
#X connect 20 0 18 0;
#X connect 20 0 22 0;
#X connect 20 0 4 0;
#X connect 21 0 22 1;
#X connect 22 0 21 0;
#X connect 22 0 24 0;
#X connect 23 0 64 0;
#X connect 24 0 23 0;
#X connect 24 1 23 1;
#X connect 25 0 23 0;
#X connect 25 1 23 0;
#X connect 26 0 7 0;
#X connect 27 0 7 0;
#X connect 28 0 7 0;
#X connect 29 0 7 0;
#X connect 30 0 7 0;
#X connect 31 0 7 0;
#X connect 32 0 7 0;
#X connect 33 0 7 0;
#X connect 34 0 7 0;
#X connect 35 0 14 0;
#X connect 36 0 8 0;
#X connect 37 0 45 0;
#X connect 38 0 11 0;
#X connect 39 0 12 0;
#X connect 40 0 13 0;
#X connect 41 0 58 0;
#X connect 42 0 9 0;
#X connect 43 0 10 0;
#X connect 44 0 15 0;
#X connect 47 0 46 0;
#X connect 48 0 47 0;
#X connect 49 0 48 0;
#X connect 50 0 63 0;
#X connect 51 0 49 1;
#X connect 53 0 49 0;
#X connect 54 0 63 1;
#X connect 55 0 6 0;
#X connect 57 0 7 0;
#X connect 59 0 7 0;
#X connect 60 0 4 0;
#X connect 60 0 56 0;
#X connect 60 0 61 0;
#X connect 61 0 65 0;
#X connect 61 1 31 0;
#X connect 61 2 26 0;
#X connect 61 3 27 0;
#X connect 61 4 32 0;
#X connect 61 5 29 0;
#X connect 61 6 30 0;
#X connect 61 7 59 0;
#X connect 61 8 28 0;
#X connect 61 9 57 0;
#X connect 61 10 33 0;
#X connect 61 11 34 0;
#X connect 62 0 66 0;
#X connect 62 1 14 0;
#X connect 62 2 8 0;
#X connect 62 3 45 0;
#X connect 62 4 11 0;
#X connect 62 5 12 0;
#X connect 62 6 13 0;
#X connect 62 7 58 0;
#X connect 62 8 9 0;
#X connect 62 9 10 0;
#X connect 62 10 15 0;
#X connect 62 11 3 0;
#X connect 63 0 55 1;
#X connect 64 0 60 0;
#X connect 65 0 7 0;
#X connect 67 0 66 0;
