#N canvas 4 69 1016 670 10;
#X obj 29 10 r notes;
#X obj 29 71 pack f f f;
#X obj 73 608 throw~ outL;
#X obj 177 630 throw~ outR;
#X obj 582 219 s resonance;
#X obj 410 220 s filter-eg;
#X text 522 130 Filter Controls;
#N canvas 182 111 550 500 pwm 0;
#X obj 66 259 +~ 1;
#X obj 66 282 *~ 0.5;
#X obj 67 231 osc~;
#X obj 66 204 r pwmrate;
#X obj 178 281 r pwmamt;
#X obj 65 352 *~;
#X obj 62 421 s~ pwm;
#X obj 111 355 lop~ 5;
#X obj 149 336 sig~;
#X connect 0 0 1 0;
#X connect 1 0 5 0;
#X connect 2 0 0 0;
#X connect 3 0 2 0;
#X connect 4 0 8 0;
#X connect 5 0 6 0;
#X connect 7 0 5 1;
#X connect 8 0 7 0;
#X restore 618 77 pd pwm;
#X obj 105 407 r lfosp1;
#X obj 124 433 r lfoamt1;
#X obj 145 458 r dlytime1;
#X obj 316 400 r lfosp2;
#X obj 356 367 r lfoamt2;
#X obj 390 400 r dlytime2;
#X obj 409 448 r chorus_mix;
#X text 182 407 Chorus Controls;
#X text 182 43 Synth Voice Architecture;
#N canvas 0 23 728 420 octaveselect 0;
#X obj 54 82 inlet;
#X obj 136 81 inlet;
#X obj 224 83 inlet;
#X obj 296 85 inlet;
#X obj 550 85 inlet;
#X obj 57 271 pack 0 0;
#X obj 53 120 unpack 0 0;
#X obj 547 121 f;
#X obj 58 297 outlet;
#X obj 138 271 pack 0 0;
#X obj 135 121 unpack 0 0;
#X obj 139 297 outlet;
#X obj 217 271 pack 0 0;
#X obj 214 121 unpack 0 0;
#X obj 218 297 outlet;
#X obj 299 271 pack 0 0;
#X obj 296 121 unpack 0 0;
#X obj 300 297 outlet;
#X obj 297 167 +;
#X obj 215 167 +;
#X obj 136 167 +;
#X obj 58 169 +;
#X connect 0 0 6 0;
#X connect 1 0 10 0;
#X connect 2 0 13 0;
#X connect 3 0 16 0;
#X connect 4 0 7 0;
#X connect 5 0 8 0;
#X connect 6 0 21 0;
#X connect 6 1 5 1;
#X connect 7 0 18 1;
#X connect 7 0 19 1;
#X connect 7 0 20 1;
#X connect 7 0 21 1;
#X connect 9 0 11 0;
#X connect 10 0 20 0;
#X connect 10 1 9 1;
#X connect 12 0 14 0;
#X connect 13 0 19 0;
#X connect 13 1 12 1;
#X connect 15 0 17 0;
#X connect 16 0 18 0;
#X connect 16 1 15 1;
#X connect 18 0 15 0;
#X connect 19 0 12 0;
#X connect 20 0 9 0;
#X connect 21 0 5 0;
#X restore 26 122 pd octaveselect;
#X obj 139 94 r transpose;
#X obj 408 161 loadbang;
#X obj 243 550 phaser;
#X obj 296 478 chorus, f 12;
#X obj 85 489 chorus, f 12;
#X obj 36 513 phaser;
#X obj 4 446 r phaserlfo1;
#X obj 4 424 r phaserdepth1;
#X obj 243 504 r phaserdepth2;
#X obj 243 526 r phaserlfo2;
#X obj 36 534 *~ 0.9;
#X obj 243 571 *~ 0.9;
#X obj 24 146 voice, f 8;
#X obj 85 147 voice, f 10;
#X obj 157 147 voice, f 8;
#X obj 217 148 voice, f 12;
#X obj 679 218 s filterkeytrack;
#X obj 725 92 r ftmode;
#X msg 694 180 0;
#X obj 493 284 s screenLine1;
#X obj 716 139 sel 0;
#X msg 583 194 0.7;
#X msg 411 191 0.56;
#X msg 729 180 1.6;
#X obj 29 40 poly 4 1, f 10;
#X obj 26 95 route 1 2 3 4;
#X obj 105 515 r regen;
#X obj 331 235 s regen;
#X obj 161 514 r~ dltime;
#X obj 87 539 delay~, f 15;
#X msg 492 257 Init. Patch;
#N canvas 0 23 1605 903 controls 0;
#X obj 104 159 s saw1;
#X obj 399 165 s saw2;
#X obj 162 159 s square1;
#X obj 472 167 s square2;
#X text 92 81 osc 1;
#X text 333 88 osc 2;
#X obj 102 111 == 0;
#X obj 399 123 == 0;
#X obj 160 112 == 1;
#X obj 472 125 == 1;
#X obj 244 158 s tri1;
#X obj 144 85 i;
#X obj 242 112 == 2;
#X obj 545 125 == 2;
#X obj 396 88 i;
#X obj 21 91 loadbang;
#X obj 545 166 s tri2;
#X msg 231 431 0;
#X msg 281 453 250;
#X obj 205 18 r aux;
#X obj 145 39 spigot;
#X obj 451 20 r aux;
#X obj 395 43 spigot;
#X obj 85 290 r aux;
#X obj 85 309 - 1;
#X obj 85 329 * -1;
#X obj 27 319 spigot;
#X obj 27 363 i;
#X msg 118 496 350;
#X msg 230 518 0.8;
#X msg 180 518 250;
#X msg 117 518 800;
#X msg 231 496 0.7;
#X msg 118 542 1300;
#X msg 231 542 1;
#X msg 181 542 10;
#X obj 406 359 r aux;
#X obj 406 378 - 1;
#X obj 406 398 * -1;
#X obj 348 388 spigot;
#X obj 348 432 i;
#X msg 550 590 0.8;
#X obj 371 482 sel 0;
#X obj 371 504 sel 1;
#X obj 370 525 sel 2;
#X obj 370 547 sel 3;
#X msg 551 613 1;
#X msg 551 484 0;
#X msg 551 550 0.6;
#X msg 501 612 100;
#X msg 281 474 450;
#X msg 601 528 450;
#X msg 600 550 450;
#X obj 1021 16 r aux;
#X obj 1021 35 - 1;
#X obj 1021 55 * -1;
#X obj 1076 72 spigot;
#X obj 1261 340 r aux;
#X obj 1261 359 - 1;
#X obj 1261 379 * -1;
#X obj 1203 369 spigot;
#X obj 175 185 s screenLine2;
#X obj 373 237 s screenLine3;
#X obj 689 106 i;
#X obj 763 22 r aux;
#X obj 707 45 spigot;
#X obj 707 23 r knob3;
#X obj 822 284 s pwmrate;
#X obj 931 122 s pwmamt;
#X obj 1000 178 >= 1;
#X obj 707 66 * 10;
#X obj 806 63 sel 0 1 2 3 4 5 6 7 8 9 10;
#X msg 955 240 3: No PWM;
#X msg 960 263 3: PWM \$1 Hz;
#X obj 695 132 loadbang;
#X obj 961 215 spigot;
#X obj 953 290 s screenLine4;
#X obj 769 338 r aux;
#X obj 747 388 spigot;
#X obj 902 495 s lfosp1;
#X obj 902 517 s lfoamt1;
#X obj 904 540 s dlytime1;
#X obj 905 563 s lfosp2;
#X obj 906 585 s lfoamt2;
#X obj 907 608 s dlytime2;
#X obj 746 437 i;
#X obj 907 635 s chorus_mix;
#X msg 808 539 25;
#X msg 808 585 1.1;
#X msg 808 609 22;
#X msg 728 633 0;
#X obj 747 366 r knob4;
#X msg 761 495 0.7;
#X msg 761 561 0.6;
#X msg 762 609 34;
#X msg 762 539 31;
#X msg 761 585 0.97;
#X msg 761 517 1.1;
#X msg 807 633 0.55;
#X obj 930 459 s screenLine5;
#X msg 930 333 4: Chorus I;
#X msg 930 354 4: Chorus II;
#X msg 930 374 4: Chorus III;
#X msg 762 632 0.42;
#X obj 36 157 f;
#X obj 35 41 sel 1;
#X obj 35 64 t b;
#X obj 349 44 sel 1;
#X obj 349 67 t b;
#X obj 341 156 f;
#X msg 14 264 1: OSC 1 Saw;
#X msg 58 228 1: OSC 1 Tri;
#X msg 30 247 1: OSC 1 Square;
#X msg 344 208 2: OSC 2 Tri;
#X msg 449 190 2: OSC 2 Saw;
#X msg 448 210 2: OSC 2 Square;
#X obj 639 79 f;
#X obj 639 31 sel 1;
#X obj 639 54 t b;
#X obj 819 384 f;
#X obj 817 338 sel 1;
#X obj 817 361 t b;
#X obj 130 339 f;
#X obj 129 311 t b;
#X msg 232 453 0.4;
#X msg 232 474 0.7;
#X obj 474 401 f;
#X obj 474 379 t b;
#X obj 1076 141 i;
#X obj 1025 133 f;
#X obj 1020 86 sel 1;
#X obj 1025 111 t b;
#X obj 288 104 loadbang;
#X obj 806 20 loadbang;
#X obj 685 364 loadbang;
#X obj 66 362 loadbang;
#X obj 417 437 loadbang;
#X msg 21 116 0;
#X obj 1145 14 loadbang;
#X obj 1203 413 i;
#X obj 1203 442 sel 0 1 2 3 4;
#X obj 1261 561 s transpose;
#X obj 1083 410 loadbang;
#X msg 1084 435 2;
#X obj 1332 429 f;
#X obj 1331 404 t b;
#X obj 1315 159 loadbang;
#X obj 1316 204 s aux;
#X obj 146 17 r knob1;
#X obj 395 21 r knob2;
#X obj 27 290 r knob2;
#X obj 348 359 r knob3;
#X obj 193 387 s screenLine3;
#X obj 504 463 s screenLine4;
#X obj 1076 13 r knob4;
#X obj 1076 205 s screenLine5;
#X obj 1203 340 r knob1;
#X obj 1259 628 s screenLine2;
#X obj 1332 378 sel 0;
#X obj 473 355 sel 0;
#X obj 128 287 sel 0;
#X msg 1255 597 1: Transpose \$1;
#X msg 203 282 2: AmpEG Piano;
#X msg 1075 181 4: Cutoff \$1;
#X msg 203 262 2: AmpEG Pluck;
#X obj 1203 391 * 4.99;
#X msg 203 303 2: AmpEG Sustain;
#X msg 201 325 2: AmpEG Strings;
#X msg 179 453 750;
#X msg 279 431 75;
#X msg 438 611 2000;
#X msg 202 345 2: AmpEG Swell1;
#X msg 202 368 2: AmpEG Swell2;
#X msg 530 347 3: FilterEG Short;
#X msg 531 324 3: FilterEG Burst;
#X msg 530 300 3: FilterEG NoEG;
#X msg 497 483 0;
#X msg 599 484 0;
#X msg 552 507 0;
#X msg 601 507 50;
#X obj 395 64 * 3.99;
#X obj 144 63 * 3.99;
#X obj 342 185 sel 0 1 2 3;
#X obj 10 179 sel 0 1 2 3;
#X msg 499 506 180;
#X msg 488 232 2: OSC 2 off;
#X msg 74 206 1: OSC 1 off;
#X obj 1079 47 *;
#X obj 51 453 sel 2;
#X obj 50 474 sel 3;
#X obj 50 496 sel 4;
#X obj 51 519 sel 5;
#X obj 51 542 sel 6;
#X obj 51 431 sel 1;
#X obj 204 215 sel 0 1 2 3 4 5 6;
#X obj 52 409 sel 0;
#X msg 203 242 2: AmpEG Gate;
#X msg 552 528 0.4;
#X obj 27 341 * 6.99;
#X msg 119 474 6;
#X msg 1214 41 0.25;
#X obj 1216 68 s knob4;
#X obj 1314 181 delay 1;
#X obj 1173 151 s filtercut;
#X obj 85 591 s at;
#X obj 141 591 s dc;
#X obj 194 591 s su;
#X obj 247 591 s re;
#X obj 379 637 s fat;
#X obj 435 638 s fdc;
#X obj 492 638 s fsu;
#X obj 553 638 s fre;
#X obj 732 178 r~ pwm;
#X obj 660 236 sig~;
#X obj 657 264 s~ pw;
#X obj 714 216 +~;
#X obj 713 240 *~;
#X obj 699 187 sig~;
#X obj 625 155 sel 0;
#X obj 900 217 - 1;
#X obj 901 265 i;
#X obj 901 245 * 10;
#X obj 901 288 / 10;
#X msg 873 172 0.25;
#X msg 876 149 0.2;
#X msg 875 129 0.15;
#X msg 887 108 0.1;
#X msg 924 94 0.075;
#X obj 639 103 i;
#X msg 179 474 750;
#X msg 181 496 750;
#X msg 529 367 3: FilterEG Medium;
#X msg 528 419 3: FilterEG Swell1;
#X msg 528 440 3: FilterEG Swell2;
#X msg 501 549 850;
#X msg 280 409 15;
#X obj 701 454 <= 3;
#X obj 649 478 s chorusswitch;
#X obj 671 691 s phaserswitch;
#X msg 987 517 0.275;
#X obj 1067 516 s phaserlfo1;
#X msg 986 563 0.425;
#X obj 1067 539 s phaserdepth2;
#X obj 1067 562 s phaserlfo2;
#X obj 1067 493 s phaserdepth1;
#X msg 987 494 0.9;
#X msg 989 540 0.7;
#X obj 746 459 sel 0 1 2 3 4 5, f 16;
#X msg 934 395 4: Bi-Phaser I;
#X msg 933 418 4: Bi-Phaser II;
#X msg 1028 562 0.2;
#X msg 1029 493 0.5;
#X msg 1029 516 0.72;
#X msg 1031 539 0.36;
#X msg 178 409 1;
#X msg 232 409 0.9;
#X msg 119 453 3;
#X msg 499 527 450;
#X msg 855 586 0.275;
#X obj 1076 97 * 3500;
#X msg 855 610 12;
#X msg 855 540 8;
#X msg 857 562 5.2;
#X msg 857 519 0.35;
#X msg 856 497 3.9;
#X msg 854 634 0.75;
#X msg 809 562 1.6;
#X msg 809 496 0.9;
#X msg 809 517 1.2;
#X msg 930 313 4: No FX;
#X obj 410 312 s ftmode;
#X obj 175 85 r osc1preset;
#X obj 424 87 r osc2preset;
#X obj 98 384 r AmpEGpreset;
#X obj 327 276 r FilterEGpreset;
#X obj 686 318 r fxpreset;
#X obj 1060 379 r transposepreset;
#X obj 1193 100 r filterpreset;
#X obj 864 36 r pwmpreset;
#X msg 500 589 250;
#X msg 438 589 1000;
#X obj 536 272 sel 0 1 2 3 4 5 6;
#X obj 370 587 sel 5;
#X obj 371 611 sel 6;
#X obj 370 566 sel 4;
#X msg 599 569 500;
#X msg 528 392 3: FilterEG Brass;
#X msg 501 568 350;
#X msg 550 569 0.7;
#X obj 348 410 * 6.99;
#X msg 118 409 3;
#X msg 117 431 3;
#X msg 437 482 3;
#X msg 439 505 3;
#X msg 439 526 3;
#X msg 438 548 3;
#X obj 1212 503 -24;
#X obj 1248 503 -12;
#X obj 1175 503 -36;
#X obj 1281 504 + 0;
#X obj 1319 503 + 12;
#X obj 672 664 expr if($f1 == 4 | $f1 == 5 \, 1 \, 0);
#X obj 747 410 * 10.99;
#X obj 621 693 >= 6;
#X obj 621 717 s delayswitch;
#X obj 524 762 spigot;
#X obj 522 710 * 100;
#X obj 522 685 - 5;
#X obj 523 735 i;
#X obj 555 819 s dltimescr;
#X obj 814 439 r dltimescr;
#X obj 487 836 s~ dltime;
#X obj 487 810 lop~ 5;
#X obj 487 790 sig~;
#X msg 1152 82 250;
#X msg 806 39 0, f 6;
#X msg 288 129 0;
#X msg 685 386 0;
#X msg 65 383 0;
#X msg 416 458 0;
#X msg 280 496 550;
#X msg 281 518 650;
#X msg 281 542 900;
#X msg 599 590 650;
#X msg 600 613 900;
#X msg 933 437 4: Echo \$1 ms;
#X obj 808 413 sel 0 1 2 3 4 5, f 16;
#X obj 564 789 f;
#X obj 575 762 spigot;
#X msg 177 431 520;
#X msg 665 209 0.5;
#X obj 511 37 sel 1;
#X obj 510 59 s samplerate_bang;
#X obj 239 43 sel 1;
#X obj 238 65 s samplerate_bang;
#X obj 550 92 bng 15 250 50 0 empty empty empty 17 7 0 10 -262144 -1
-1;
#X msg 697 163 0.191;
#X msg 439 566 200;
#X connect 6 0 0 0;
#X connect 6 0 333 0;
#X connect 7 0 1 0;
#X connect 7 0 331 0;
#X connect 8 0 2 0;
#X connect 8 0 333 0;
#X connect 9 0 3 0;
#X connect 9 0 331 0;
#X connect 11 0 6 0;
#X connect 11 0 8 0;
#X connect 11 0 12 0;
#X connect 11 0 104 0;
#X connect 11 0 183 0;
#X connect 12 0 10 0;
#X connect 12 0 333 0;
#X connect 13 0 16 0;
#X connect 13 0 331 0;
#X connect 14 0 7 0;
#X connect 14 0 9 0;
#X connect 14 0 13 0;
#X connect 14 0 109 0;
#X connect 14 0 182 0;
#X connect 15 0 137 0;
#X connect 17 0 206 0;
#X connect 18 0 207 0;
#X connect 19 0 105 0;
#X connect 19 0 20 1;
#X connect 20 0 181 0;
#X connect 21 0 107 0;
#X connect 21 0 22 1;
#X connect 22 0 180 0;
#X connect 23 0 24 0;
#X connect 23 0 160 0;
#X connect 24 0 25 0;
#X connect 25 0 26 1;
#X connect 26 0 198 0;
#X connect 27 0 194 0;
#X connect 27 0 122 0;
#X connect 27 0 195 0;
#X connect 27 0 193 0;
#X connect 27 0 188 0;
#X connect 27 0 189 0;
#X connect 27 0 190 0;
#X connect 27 0 191 0;
#X connect 27 0 192 0;
#X connect 28 0 204 0;
#X connect 29 0 206 0;
#X connect 30 0 205 0;
#X connect 31 0 204 0;
#X connect 32 0 206 0;
#X connect 33 0 204 0;
#X connect 34 0 206 0;
#X connect 35 0 205 0;
#X connect 36 0 37 0;
#X connect 36 0 159 0;
#X connect 37 0 38 0;
#X connect 38 0 39 1;
#X connect 39 0 289 0;
#X connect 40 0 126 0;
#X connect 40 0 270 0;
#X connect 40 0 281 0;
#X connect 40 0 42 0;
#X connect 40 0 43 0;
#X connect 40 0 44 0;
#X connect 40 0 45 0;
#X connect 40 0 284 0;
#X connect 40 0 282 0;
#X connect 40 0 283 0;
#X connect 41 0 210 0;
#X connect 42 0 292 0;
#X connect 42 0 176 0;
#X connect 42 0 47 0;
#X connect 42 0 177 0;
#X connect 43 0 293 0;
#X connect 43 0 184 0;
#X connect 43 0 178 0;
#X connect 43 0 179 0;
#X connect 44 0 294 0;
#X connect 44 0 257 0;
#X connect 44 0 197 0;
#X connect 44 0 51 0;
#X connect 45 0 295 0;
#X connect 45 0 234 0;
#X connect 45 0 48 0;
#X connect 45 0 52 0;
#X connect 46 0 210 0;
#X connect 47 0 210 0;
#X connect 48 0 210 0;
#X connect 49 0 209 0;
#X connect 50 0 207 0;
#X connect 51 0 211 0;
#X connect 52 0 211 0;
#X connect 53 0 54 0;
#X connect 54 0 55 0;
#X connect 55 0 56 1;
#X connect 55 0 130 0;
#X connect 56 0 259 0;
#X connect 57 0 58 0;
#X connect 57 0 158 0;
#X connect 58 0 59 0;
#X connect 59 0 60 1;
#X connect 60 0 165 0;
#X connect 63 0 69 0;
#X connect 63 0 71 0;
#X connect 63 0 218 0;
#X connect 64 0 117 0;
#X connect 64 0 65 1;
#X connect 65 0 70 0;
#X connect 66 0 65 0;
#X connect 69 0 216 1;
#X connect 69 0 75 1;
#X connect 70 0 63 0;
#X connect 70 0 219 0;
#X connect 70 0 116 0;
#X connect 71 0 72 0;
#X connect 71 1 223 0;
#X connect 71 2 223 0;
#X connect 71 3 224 0;
#X connect 71 4 224 0;
#X connect 71 5 225 0;
#X connect 71 6 225 0;
#X connect 71 7 226 0;
#X connect 71 8 226 0;
#X connect 71 9 227 0;
#X connect 71 10 227 0;
#X connect 72 0 76 0;
#X connect 73 0 76 0;
#X connect 74 0 336 0;
#X connect 75 0 73 0;
#X connect 77 0 120 0;
#X connect 77 0 78 1;
#X connect 78 0 302 0;
#X connect 85 0 236 0;
#X connect 85 0 247 0;
#X connect 85 0 301 0;
#X connect 85 0 301 0;
#X connect 85 0 303 0;
#X connect 85 0 326 0;
#X connect 85 0 119 0;
#X connect 87 0 81 0;
#X connect 88 0 83 0;
#X connect 89 0 84 0;
#X connect 90 0 86 0;
#X connect 91 0 78 0;
#X connect 92 0 79 0;
#X connect 93 0 82 0;
#X connect 94 0 84 0;
#X connect 95 0 81 0;
#X connect 96 0 83 0;
#X connect 97 0 80 0;
#X connect 98 0 86 0;
#X connect 100 0 99 0;
#X connect 101 0 99 0;
#X connect 102 0 99 0;
#X connect 103 0 86 0;
#X connect 104 0 183 0;
#X connect 105 0 106 0;
#X connect 106 0 104 0;
#X connect 107 0 108 0;
#X connect 108 0 109 0;
#X connect 109 0 182 0;
#X connect 110 0 61 0;
#X connect 111 0 61 0;
#X connect 112 0 61 0;
#X connect 113 0 62 0;
#X connect 114 0 62 0;
#X connect 115 0 62 0;
#X connect 116 0 219 0;
#X connect 116 0 228 0;
#X connect 117 0 118 0;
#X connect 118 0 116 0;
#X connect 119 0 326 0;
#X connect 120 0 121 0;
#X connect 121 0 119 0;
#X connect 121 0 328 0;
#X connect 122 0 194 0;
#X connect 123 0 122 0;
#X connect 124 0 206 0;
#X connect 125 0 206 0;
#X connect 126 0 281 0;
#X connect 127 0 126 0;
#X connect 128 0 129 0;
#X connect 128 0 163 0;
#X connect 129 0 163 0;
#X connect 130 0 131 0;
#X connect 131 0 129 0;
#X connect 132 0 316 0;
#X connect 133 0 315 0;
#X connect 134 0 317 0;
#X connect 135 0 318 0;
#X connect 136 0 319 0;
#X connect 137 0 11 0;
#X connect 138 0 314 0;
#X connect 138 0 200 0;
#X connect 139 0 140 0;
#X connect 139 0 144 0;
#X connect 140 0 298 0;
#X connect 140 1 296 0;
#X connect 140 2 297 0;
#X connect 140 3 299 0;
#X connect 140 4 300 0;
#X connect 142 0 143 0;
#X connect 143 0 139 0;
#X connect 144 0 140 0;
#X connect 145 0 144 0;
#X connect 146 0 202 0;
#X connect 148 0 20 0;
#X connect 149 0 22 0;
#X connect 150 0 26 0;
#X connect 151 0 39 0;
#X connect 154 0 187 0;
#X connect 154 0 187 1;
#X connect 156 0 60 0;
#X connect 158 0 145 0;
#X connect 159 0 127 0;
#X connect 160 0 123 0;
#X connect 161 0 157 0;
#X connect 162 0 152 0;
#X connect 163 0 155 0;
#X connect 164 0 152 0;
#X connect 165 0 139 0;
#X connect 166 0 152 0;
#X connect 167 0 152 0;
#X connect 168 0 205 0;
#X connect 169 0 207 0;
#X connect 170 0 208 0;
#X connect 171 0 152 0;
#X connect 172 0 152 0;
#X connect 173 0 153 0;
#X connect 174 0 153 0;
#X connect 175 0 153 0;
#X connect 176 0 209 0;
#X connect 177 0 211 0;
#X connect 178 0 210 0;
#X connect 179 0 211 0;
#X connect 180 0 14 0;
#X connect 181 0 11 0;
#X connect 182 0 114 0;
#X connect 182 1 115 0;
#X connect 182 2 113 0;
#X connect 182 3 185 0;
#X connect 183 0 110 0;
#X connect 183 1 112 0;
#X connect 183 2 111 0;
#X connect 183 3 186 0;
#X connect 184 0 209 0;
#X connect 185 0 62 0;
#X connect 186 0 61 0;
#X connect 187 0 56 0;
#X connect 188 0 256 0;
#X connect 188 0 168 0;
#X connect 188 0 124 0;
#X connect 188 0 18 0;
#X connect 189 0 199 0;
#X connect 189 0 229 0;
#X connect 189 0 125 0;
#X connect 189 0 50 0;
#X connect 190 0 28 0;
#X connect 190 0 230 0;
#X connect 190 0 32 0;
#X connect 190 0 320 0;
#X connect 191 0 31 0;
#X connect 191 0 30 0;
#X connect 191 0 29 0;
#X connect 191 0 321 0;
#X connect 192 0 33 0;
#X connect 192 0 35 0;
#X connect 192 0 34 0;
#X connect 192 0 322 0;
#X connect 193 0 291 0;
#X connect 193 0 329 0;
#X connect 193 0 17 0;
#X connect 193 0 169 0;
#X connect 194 0 196 0;
#X connect 194 1 164 0;
#X connect 194 2 162 0;
#X connect 194 3 166 0;
#X connect 194 4 167 0;
#X connect 194 5 171 0;
#X connect 194 6 172 0;
#X connect 195 0 290 0;
#X connect 195 0 254 0;
#X connect 195 0 255 0;
#X connect 195 0 235 0;
#X connect 196 0 152 0;
#X connect 197 0 210 0;
#X connect 198 0 27 0;
#X connect 199 0 204 0;
#X connect 200 0 201 0;
#X connect 202 0 147 0;
#X connect 212 0 215 1;
#X connect 213 0 214 0;
#X connect 215 0 216 0;
#X connect 216 0 214 0;
#X connect 217 0 215 0;
#X connect 218 0 330 0;
#X connect 218 1 336 0;
#X connect 219 0 67 0;
#X connect 219 0 221 0;
#X connect 220 0 222 0;
#X connect 221 0 220 0;
#X connect 222 0 75 0;
#X connect 223 0 68 0;
#X connect 224 0 68 0;
#X connect 226 0 68 0;
#X connect 227 0 68 0;
#X connect 228 0 71 0;
#X connect 229 0 205 0;
#X connect 230 0 205 0;
#X connect 231 0 153 0;
#X connect 232 0 153 0;
#X connect 233 0 153 0;
#X connect 234 0 209 0;
#X connect 235 0 207 0;
#X connect 236 0 237 0;
#X connect 239 0 240 0;
#X connect 241 0 243 0;
#X connect 245 0 244 0;
#X connect 246 0 242 0;
#X connect 247 0 90 0;
#X connect 247 1 92 0;
#X connect 247 1 93 0;
#X connect 247 1 103 0;
#X connect 247 1 94 0;
#X connect 247 1 95 0;
#X connect 247 1 96 0;
#X connect 247 1 97 0;
#X connect 247 2 267 0;
#X connect 247 2 268 0;
#X connect 247 2 87 0;
#X connect 247 2 266 0;
#X connect 247 2 88 0;
#X connect 247 2 89 0;
#X connect 247 2 98 0;
#X connect 247 3 264 0;
#X connect 247 3 263 0;
#X connect 247 3 261 0;
#X connect 247 3 262 0;
#X connect 247 3 258 0;
#X connect 247 3 260 0;
#X connect 247 3 265 0;
#X connect 247 4 245 0;
#X connect 247 4 239 0;
#X connect 247 4 246 0;
#X connect 247 4 241 0;
#X connect 247 5 251 0;
#X connect 247 5 252 0;
#X connect 247 5 253 0;
#X connect 247 5 250 0;
#X connect 248 0 99 0;
#X connect 249 0 99 0;
#X connect 250 0 243 0;
#X connect 251 0 244 0;
#X connect 252 0 240 0;
#X connect 253 0 242 0;
#X connect 254 0 205 0;
#X connect 255 0 206 0;
#X connect 256 0 204 0;
#X connect 257 0 209 0;
#X connect 258 0 83 0;
#X connect 259 0 128 0;
#X connect 259 0 203 0;
#X connect 261 0 81 0;
#X connect 263 0 80 0;
#X connect 264 0 79 0;
#X connect 265 0 86 0;
#X connect 266 0 82 0;
#X connect 267 0 79 0;
#X connect 268 0 80 0;
#X connect 269 0 99 0;
#X connect 271 0 11 0;
#X connect 272 0 14 0;
#X connect 273 0 27 0;
#X connect 274 0 40 0;
#X connect 275 0 85 0;
#X connect 275 0 307 0;
#X connect 275 0 119 0;
#X connect 276 0 139 0;
#X connect 277 0 128 0;
#X connect 277 0 203 0;
#X connect 278 0 69 0;
#X connect 278 0 63 0;
#X connect 278 0 116 0;
#X connect 279 0 209 0;
#X connect 280 0 208 0;
#X connect 281 0 175 0;
#X connect 281 1 174 0;
#X connect 281 2 173 0;
#X connect 281 3 231 0;
#X connect 281 4 286 0;
#X connect 281 5 232 0;
#X connect 281 6 233 0;
#X connect 282 0 280 0;
#X connect 282 0 279 0;
#X connect 282 0 41 0;
#X connect 282 0 323 0;
#X connect 283 0 170 0;
#X connect 283 0 49 0;
#X connect 283 0 46 0;
#X connect 283 0 324 0;
#X connect 284 0 337 0;
#X connect 284 0 287 0;
#X connect 284 0 288 0;
#X connect 284 0 285 0;
#X connect 285 0 211 0;
#X connect 286 0 153 0;
#X connect 287 0 209 0;
#X connect 288 0 210 0;
#X connect 289 0 40 0;
#X connect 290 0 204 0;
#X connect 291 0 204 0;
#X connect 292 0 208 0;
#X connect 293 0 208 0;
#X connect 294 0 208 0;
#X connect 295 0 208 0;
#X connect 296 0 141 0;
#X connect 296 0 161 0;
#X connect 297 0 141 0;
#X connect 297 0 161 0;
#X connect 298 0 141 0;
#X connect 298 0 161 0;
#X connect 299 0 141 0;
#X connect 299 0 161 0;
#X connect 300 0 141 0;
#X connect 300 0 161 0;
#X connect 301 0 238 0;
#X connect 302 0 85 0;
#X connect 302 0 307 0;
#X connect 303 0 304 0;
#X connect 303 0 305 1;
#X connect 303 0 328 1;
#X connect 305 0 309 0;
#X connect 305 0 313 0;
#X connect 305 0 327 0;
#X connect 306 0 308 0;
#X connect 307 0 306 0;
#X connect 308 0 305 0;
#X connect 310 0 325 0;
#X connect 312 0 311 0;
#X connect 313 0 312 0;
#X connect 314 0 128 0;
#X connect 314 0 203 0;
#X connect 315 0 69 0;
#X connect 315 0 116 0;
#X connect 315 0 218 0;
#X connect 316 0 14 0;
#X connect 317 0 85 0;
#X connect 318 0 27 0;
#X connect 319 0 40 0;
#X connect 320 0 207 0;
#X connect 321 0 207 0;
#X connect 322 0 207 0;
#X connect 323 0 211 0;
#X connect 324 0 211 0;
#X connect 325 0 99 0;
#X connect 326 0 269 0;
#X connect 326 1 100 0;
#X connect 326 2 101 0;
#X connect 326 3 102 0;
#X connect 326 4 248 0;
#X connect 326 5 249 0;
#X connect 327 0 309 0;
#X connect 328 0 327 0;
#X connect 329 0 205 0;
#X connect 330 0 213 0;
#X connect 331 0 332 0;
#X connect 331 0 335 0;
#X connect 333 0 334 0;
#X connect 336 0 217 0;
#X connect 337 0 208 0;
#X restore 615 53 pd controls;
#X obj 75 580 freeverb~;
#X msg 531 495 dry \$1;
#X msg 585 494 wet \$1;
#X obj 539 433 loadbang;
#X msg 586 463 0.28;
#X msg 533 463 0.72;
#N canvas 4 105 1017 686 encoder 0;
#X obj 327 631 s goHome;
#X obj 811 338 s screenLine1;
#N canvas 238 382 613 566 Juno 0;
#X obj 48 40 inlet;
#X obj 212 139 s transposepreset;
#X obj 211 163 s AmpEGpreset;
#X obj 210 186 s FilterEGpreset;
#X obj 208 209 s filterpreset;
#X obj 207 236 s osc1preset;
#X obj 207 260 s osc2preset;
#X obj 207 283 s pwmpreset;
#X obj 206 306 s fxpreset;
#X msg 140 285 0;
#X msg 140 310 2;
#X msg 141 263 0;
#X msg 139 236 1;
#X msg 140 186 5;
#X obj 82 78 delay 1;
#X msg 141 211 520;
#X msg 139 141 2;
#X msg 140 163 4;
#X connect 0 0 12 0;
#X connect 0 0 11 0;
#X connect 0 0 9 0;
#X connect 0 0 10 0;
#X connect 0 0 14 0;
#X connect 9 0 7 0;
#X connect 10 0 8 0;
#X connect 11 0 6 0;
#X connect 12 0 5 0;
#X connect 13 0 3 0;
#X connect 14 0 16 0;
#X connect 14 0 17 0;
#X connect 14 0 13 0;
#X connect 14 0 15 0;
#X connect 15 0 4 0;
#X connect 16 0 1 0;
#X connect 17 0 2 0;
#X restore 138 404 pd Juno StringsI;
#N canvas 238 382 613 566 Simple 0;
#X obj 48 40 inlet;
#X obj 212 139 s transposepreset;
#X obj 211 163 s AmpEGpreset;
#X obj 210 186 s FilterEGpreset;
#X obj 208 209 s filterpreset;
#X obj 207 236 s osc1preset;
#X obj 207 260 s osc2preset;
#X obj 207 283 s pwmpreset;
#X obj 206 306 s fxpreset;
#X msg 140 163 4;
#X msg 141 285 0;
#X msg 141 263 0;
#X msg 141 238 0;
#X msg 141 211 150;
#X msg 141 310 3;
#X msg 140 185 6;
#X obj 82 78 delay 1;
#X msg 140 141 2;
#X connect 0 0 12 0;
#X connect 0 0 11 0;
#X connect 0 0 10 0;
#X connect 0 0 14 0;
#X connect 0 0 16 0;
#X connect 9 0 2 0;
#X connect 10 0 7 0;
#X connect 11 0 6 0;
#X connect 12 0 5 0;
#X connect 13 0 4 0;
#X connect 14 0 8 0;
#X connect 15 0 3 0;
#X connect 16 0 17 0;
#X connect 16 0 9 0;
#X connect 16 0 15 0;
#X connect 16 0 13 0;
#X connect 17 0 1 0;
#X restore 140 572 pd Simple Strings;
#N canvas 267 274 613 566 Stringmachine 0;
#X obj 48 40 inlet;
#X obj 212 139 s transposepreset;
#X obj 211 163 s AmpEGpreset;
#X obj 210 186 s FilterEGpreset;
#X obj 208 209 s filterpreset;
#X obj 207 236 s osc1preset;
#X obj 207 260 s osc2preset;
#X obj 207 283 s pwmpreset;
#X obj 206 306 s fxpreset;
#X msg 141 263 0;
#X msg 140 185 3;
#X msg 141 211 2000;
#X msg 141 285 0;
#X msg 142 310 3;
#X msg 142 238 0;
#X msg 140 163 5;
#X obj 82 78 delay 1;
#X msg 140 141 2;
#X connect 0 0 14 0;
#X connect 0 0 9 0;
#X connect 0 0 12 0;
#X connect 0 0 13 0;
#X connect 0 0 16 0;
#X connect 9 0 6 0;
#X connect 10 0 3 0;
#X connect 11 0 4 0;
#X connect 12 0 7 0;
#X connect 13 0 8 0;
#X connect 14 0 5 0;
#X connect 15 0 2 0;
#X connect 16 0 17 0;
#X connect 16 0 15 0;
#X connect 16 0 10 0;
#X connect 16 0 11 0;
#X connect 17 0 1 0;
#X restore 138 460 pd Stringmachine;
#N canvas 80 384 613 566 Swirrling 0;
#X obj 48 40 inlet;
#X obj 212 139 s transposepreset;
#X obj 211 163 s AmpEGpreset;
#X obj 210 186 s FilterEGpreset;
#X obj 208 209 s filterpreset;
#X obj 207 236 s osc1preset;
#X obj 207 260 s osc2preset;
#X obj 207 283 s pwmpreset;
#X obj 206 306 s fxpreset;
#X msg 142 238 2;
#X msg 140 163 5;
#X msg 141 263 1;
#X msg 141 211 250;
#X msg 141 310 5;
#X msg 141 285 6.8;
#X msg 140 185 6;
#X obj 82 78 delay 1;
#X msg 140 141 2;
#X connect 0 0 9 0;
#X connect 0 0 11 0;
#X connect 0 0 14 0;
#X connect 0 0 13 0;
#X connect 0 0 16 0;
#X connect 9 0 5 0;
#X connect 10 0 2 0;
#X connect 11 0 6 0;
#X connect 12 0 4 0;
#X connect 13 0 8 0;
#X connect 14 0 7 0;
#X connect 15 0 3 0;
#X connect 16 0 17 0;
#X connect 16 0 10 0;
#X connect 16 0 15 0;
#X connect 16 0 12 0;
#X connect 17 0 1 0;
#X restore 138 489 pd Swirrling Pad;
#N canvas 80 384 613 566 PWM 0;
#X obj 48 40 inlet;
#X obj 212 139 s transposepreset;
#X obj 211 163 s AmpEGpreset;
#X obj 210 186 s FilterEGpreset;
#X obj 208 209 s filterpreset;
#X obj 207 236 s osc1preset;
#X obj 207 260 s osc2preset;
#X obj 207 283 s pwmpreset;
#X obj 206 306 s fxpreset;
#X msg 141 263 0;
#X msg 140 163 5;
#X msg 141 211 360;
#X msg 141 285 2.2;
#X msg 141 310 1;
#X msg 142 238 2;
#X msg 140 185 6;
#X obj 82 78 delay 1;
#X msg 140 141 2;
#X connect 0 0 14 0;
#X connect 0 0 9 0;
#X connect 0 0 12 0;
#X connect 0 0 13 0;
#X connect 0 0 16 0;
#X connect 9 0 6 0;
#X connect 10 0 2 0;
#X connect 11 0 4 0;
#X connect 12 0 7 0;
#X connect 13 0 8 0;
#X connect 14 0 5 0;
#X connect 15 0 3 0;
#X connect 16 0 17 0;
#X connect 16 0 10 0;
#X connect 16 0 15 0;
#X connect 16 0 11 0;
#X connect 17 0 1 0;
#X restore 142 517 pd PWM Pad;
#N canvas 267 274 613 566 Basic 0;
#X obj 48 40 inlet;
#X obj 212 139 s transposepreset;
#X obj 211 163 s AmpEGpreset;
#X obj 210 186 s FilterEGpreset;
#X obj 208 209 s filterpreset;
#X obj 207 236 s osc1preset;
#X obj 207 260 s osc2preset;
#X obj 207 283 s pwmpreset;
#X obj 206 306 s fxpreset;
#X msg 141 263 1;
#X msg 142 238 0;
#X obj 82 78 delay 1;
#X msg 141 310 1;
#X msg 141 285 1.2;
#X msg 140 141 2;
#X msg 141 211 150;
#X msg 140 185 2;
#X msg 140 163 3;
#X connect 0 0 10 0;
#X connect 0 0 9 0;
#X connect 0 0 13 0;
#X connect 0 0 12 0;
#X connect 0 0 11 0;
#X connect 9 0 6 0;
#X connect 10 0 5 0;
#X connect 11 0 14 0;
#X connect 11 0 17 0;
#X connect 11 0 16 0;
#X connect 11 0 15 0;
#X connect 12 0 8 0;
#X connect 13 0 7 0;
#X connect 14 0 1 0;
#X connect 15 0 4 0;
#X connect 16 0 3 0;
#X connect 17 0 2 0;
#X restore 142 376 pd Basic Patch;
#N canvas 267 274 613 566 Dark 0;
#X obj 48 40 inlet;
#X obj 212 139 s transposepreset;
#X obj 211 163 s AmpEGpreset;
#X obj 210 186 s FilterEGpreset;
#X obj 208 209 s filterpreset;
#X obj 207 236 s osc1preset;
#X obj 207 260 s osc2preset;
#X obj 207 283 s pwmpreset;
#X obj 206 306 s fxpreset;
#X msg 141 263 0;
#X msg 141 285 0;
#X msg 140 185 0;
#X msg 142 238 1;
#X msg 140 163 6;
#X msg 142 310 2;
#X obj 82 78 delay 1;
#X msg 142 210 230;
#X msg 140 141 2;
#X connect 0 0 12 0;
#X connect 0 0 9 0;
#X connect 0 0 10 0;
#X connect 0 0 14 0;
#X connect 0 0 15 0;
#X connect 9 0 6 0;
#X connect 10 0 7 0;
#X connect 11 0 3 0;
#X connect 12 0 5 0;
#X connect 13 0 2 0;
#X connect 14 0 8 0;
#X connect 15 0 17 0;
#X connect 15 0 13 0;
#X connect 15 0 11 0;
#X connect 15 0 16 0;
#X connect 16 0 4 0;
#X connect 17 0 1 0;
#X restore 140 634 pd Dark Pad;
#X msg 623 183 Juno Strings;
#X msg 623 203 Prophet Brass;
#X msg 627 318 Simple Strings;
#X msg 623 247 Swirrling Pad;
#X msg 622 270 PWM Pad;
#X msg 621 161 Basic Patch;
#X msg 622 225 Stringmachine;
#X msg 625 374 Dark Pad;
#X msg 626 398 BACK TO ROOT MENU;
#X obj 62 376 bng 15 250 50 0 empty empty empty 17 7 0 10 -262144 -1
-1;
#X obj 62 396 bng 15 250 50 0 empty empty empty 17 7 0 10 -262144 -1
-1;
#X obj 63 416 bng 15 250 50 0 empty empty empty 17 7 0 10 -262144 -1
-1;
#X obj 63 436 bng 15 250 50 0 empty empty empty 17 7 0 10 -262144 -1
-1;
#X obj 63 459 bng 15 250 50 0 empty empty empty 17 7 0 10 -262144 -1
-1;
#X obj 63 479 bng 15 250 50 0 empty empty empty 17 7 0 10 -262144 -1
-1;
#X obj 64 499 bng 15 250 50 0 empty empty empty 17 7 0 10 -262144 -1
-1;
#X obj 64 519 bng 15 250 50 0 empty empty empty 17 7 0 10 -262144 -1
-1;
#X obj 66 545 bng 15 250 50 0 empty empty empty 17 7 0 10 -262144 -1
-1;
#X obj 67 569 bng 15 250 50 0 empty empty empty 17 7 0 10 -262144 -1
-1;
#N canvas 238 382 613 566 Prophet 0;
#X obj 48 40 inlet;
#X obj 212 139 s transposepreset;
#X obj 211 163 s AmpEGpreset;
#X obj 210 186 s FilterEGpreset;
#X obj 208 209 s filterpreset;
#X obj 207 236 s osc1preset;
#X obj 207 260 s osc2preset;
#X obj 207 283 s pwmpreset;
#X obj 206 306 s fxpreset;
#X msg 140 285 0;
#X msg 141 263 0;
#X msg 140 185 4;
#X msg 141 238 2;
#X msg 141 310 1;
#X obj 99 98 delay 1;
#X msg 141 211 150;
#X msg 139 141 2;
#X msg 140 163 3;
#X connect 0 0 12 0;
#X connect 0 0 10 0;
#X connect 0 0 9 0;
#X connect 0 0 13 0;
#X connect 0 0 14 0;
#X connect 9 0 7 0;
#X connect 10 0 6 0;
#X connect 11 0 3 0;
#X connect 12 0 5 0;
#X connect 13 0 8 0;
#X connect 14 0 16 0;
#X connect 14 0 17 0;
#X connect 14 0 11 0;
#X connect 14 0 15 0;
#X connect 15 0 4 0;
#X connect 16 0 1 0;
#X connect 17 0 2 0;
#X restore 137 432 pd Prophet;
#X msg 85 197 send /oled/invertline 0;
#N canvas 885 333 613 566 Space 0;
#X obj 48 40 inlet;
#X obj 212 139 s transposepreset;
#X obj 211 163 s AmpEGpreset;
#X obj 210 186 s FilterEGpreset;
#X obj 208 209 s filterpreset;
#X obj 207 236 s osc1preset;
#X obj 207 260 s osc2preset;
#X obj 207 283 s pwmpreset;
#X obj 206 306 s fxpreset;
#X obj 99 90 delay 1;
#X msg 140 141 2;
#X msg 142 238 2;
#X msg 141 263 1;
#X msg 141 285 4;
#X msg 141 211 480;
#X msg 141 310 7.4;
#X msg 140 185 2;
#X msg 140 163 0;
#X connect 0 0 11 0;
#X connect 0 0 12 0;
#X connect 0 0 13 0;
#X connect 0 0 15 0;
#X connect 0 0 9 0;
#X connect 9 0 10 0;
#X connect 9 0 17 0;
#X connect 9 0 16 0;
#X connect 9 0 14 0;
#X connect 10 0 1 0;
#X connect 11 0 5 0;
#X connect 12 0 6 0;
#X connect 13 0 7 0;
#X connect 14 0 4 0;
#X connect 15 0 8 0;
#X connect 16 0 3 0;
#X connect 17 0 2 0;
#X restore 138 545 pd Space Echo;
#X msg 623 296 Space Echo;
#X obj 283 111 sel 0 1 2 3 4 5 6 7 8 9 10 11, f 52;
#X obj 216 286 sel 0 1 2 3 4 5 6 7 8 9 10 11, f 52;
#X msg 620 140 Init. Patch;
#N canvas 267 274 613 566 Init 0;
#X obj 48 40 inlet;
#X obj 212 139 s transposepreset;
#X obj 211 163 s AmpEGpreset;
#X obj 210 186 s FilterEGpreset;
#X obj 208 209 s filterpreset;
#X obj 207 236 s osc1preset;
#X obj 207 260 s osc2preset;
#X obj 207 283 s pwmpreset;
#X obj 206 306 s fxpreset;
#X msg 142 238 0;
#X obj 82 78 delay 1;
#X msg 140 141 2;
#X msg 140 163 0;
#X msg 140 185 0;
#X msg 141 211 250;
#X msg 141 263 0;
#X msg 141 285 0;
#X msg 141 310 0;
#X connect 0 0 9 0;
#X connect 0 0 15 0;
#X connect 0 0 16 0;
#X connect 0 0 17 0;
#X connect 0 0 10 0;
#X connect 9 0 5 0;
#X connect 10 0 11 0;
#X connect 10 0 12 0;
#X connect 10 0 13 0;
#X connect 10 0 14 0;
#X connect 11 0 1 0;
#X connect 12 0 2 0;
#X connect 13 0 3 0;
#X connect 14 0 4 0;
#X connect 15 0 6 0;
#X connect 16 0 7 0;
#X connect 17 0 8 0;
#X restore 143 351 pd Init Patch;
#X obj 60 352 bng 15 250 50 0 empty empty empty 17 7 0 10 -262144 -1
-1;
#X msg 625 342 Juno Echo;
#N canvas 87 173 613 566 Juno 0;
#X obj 48 40 inlet;
#X obj 212 139 s transposepreset;
#X obj 211 163 s AmpEGpreset;
#X obj 210 186 s FilterEGpreset;
#X obj 208 209 s filterpreset;
#X obj 207 236 s osc1preset;
#X obj 207 260 s osc2preset;
#X obj 207 283 s pwmpreset;
#X obj 206 306 s fxpreset;
#X msg 142 238 2;
#X msg 140 185 1;
#X obj 82 78 delay 1;
#X msg 140 141 2;
#X msg 141 212 1500;
#X msg 141 285 5.1;
#X msg 141 263 1;
#X msg 140 163 0;
#X msg 141 310 8.45;
#X connect 0 0 9 0;
#X connect 0 0 15 0;
#X connect 0 0 14 0;
#X connect 0 0 17 0;
#X connect 0 0 11 0;
#X connect 9 0 5 0;
#X connect 10 0 3 0;
#X connect 11 0 12 0;
#X connect 11 0 16 0;
#X connect 11 0 10 0;
#X connect 11 0 13 0;
#X connect 12 0 1 0;
#X connect 13 0 4 0;
#X connect 14 0 7 0;
#X connect 15 0 6 0;
#X connect 16 0 2 0;
#X connect 17 0 8 0;
#X restore 139 605 pd Juno Echo;
#X obj 125 29 loadbang;
#X obj 125 121 i 0;
#X obj 188 34 r fs;
#X obj 188 57 sel 1;
#X obj 189 118 + 1;
#X obj 74 246 s oscOut;
#X obj 125 144 % 11;
#X connect 9 0 1 0;
#X connect 10 0 1 0;
#X connect 11 0 1 0;
#X connect 12 0 1 0;
#X connect 13 0 1 0;
#X connect 14 0 1 0;
#X connect 15 0 1 0;
#X connect 16 0 1 0;
#X connect 17 0 1 0;
#X connect 18 0 7 0;
#X connect 19 0 2 0;
#X connect 20 0 28 0;
#X connect 21 0 4 0;
#X connect 22 0 5 0;
#X connect 23 0 6 0;
#X connect 24 0 30 0;
#X connect 25 0 3 0;
#X connect 26 0 38 0;
#X connect 27 0 8 0;
#X connect 29 0 44 0;
#X connect 31 0 1 0;
#X connect 32 0 34 0;
#X connect 32 1 14 0;
#X connect 32 2 9 0;
#X connect 32 3 10 0;
#X connect 32 4 15 0;
#X connect 32 5 12 0;
#X connect 32 6 13 0;
#X connect 32 7 31 0;
#X connect 32 8 11 0;
#X connect 32 9 37 0;
#X connect 32 10 16 0;
#X connect 32 11 17 0;
#X connect 33 0 35 0;
#X connect 33 1 7 0;
#X connect 33 2 2 0;
#X connect 33 3 28 0;
#X connect 33 4 4 0;
#X connect 33 5 5 0;
#X connect 33 6 6 0;
#X connect 33 7 30 0;
#X connect 33 8 3 0;
#X connect 33 9 38 0;
#X connect 33 10 8 0;
#X connect 33 11 0 0;
#X connect 34 0 1 0;
#X connect 36 0 35 0;
#X connect 37 0 1 0;
#X connect 39 0 40 0;
#X connect 40 0 43 0;
#X connect 40 0 45 0;
#X connect 41 0 42 0;
#X connect 42 0 40 0;
#X connect 43 0 40 1;
#X connect 45 0 32 0;
#X connect 45 0 33 0;
#X connect 45 0 29 0;
#X restore 616 31 pd encoder;
#X obj 219 260 *~ 0.8;
#X obj 21 259 *~ 0.8;
#X msg 336 203 0.6;
#X obj 317 79 mother;
#X connect 0 0 42 0;
#X connect 1 0 43 0;
#X connect 8 0 22 1;
#X connect 9 0 22 2;
#X connect 10 0 22 3;
#X connect 11 0 21 1;
#X connect 12 0 21 2;
#X connect 13 0 21 3;
#X connect 14 0 21 4;
#X connect 14 0 22 4;
#X connect 17 0 30 0;
#X connect 17 1 31 0;
#X connect 17 2 32 0;
#X connect 17 3 33 0;
#X connect 18 0 17 4;
#X connect 19 0 39 0;
#X connect 19 0 48 0;
#X connect 19 0 40 0;
#X connect 19 0 59 0;
#X connect 20 0 29 0;
#X connect 21 0 50 1;
#X connect 22 0 50 0;
#X connect 23 0 28 0;
#X connect 24 0 23 1;
#X connect 25 0 23 2;
#X connect 26 0 20 2;
#X connect 27 0 20 1;
#X connect 28 0 50 0;
#X connect 29 0 50 1;
#X connect 30 0 58 0;
#X connect 30 1 57 0;
#X connect 31 0 58 0;
#X connect 31 1 57 0;
#X connect 32 0 58 0;
#X connect 32 1 57 0;
#X connect 33 0 58 0;
#X connect 33 1 57 0;
#X connect 35 0 38 0;
#X connect 36 0 34 0;
#X connect 38 0 36 0;
#X connect 38 1 41 0;
#X connect 39 0 4 0;
#X connect 40 0 5 0;
#X connect 41 0 34 0;
#X connect 42 0 1 0;
#X connect 42 1 1 1;
#X connect 42 2 1 2;
#X connect 43 0 17 0;
#X connect 43 1 17 1;
#X connect 43 2 17 2;
#X connect 43 3 17 3;
#X connect 44 0 47 2;
#X connect 46 0 47 3;
#X connect 47 0 50 0;
#X connect 47 1 50 1;
#X connect 48 0 37 0;
#X connect 50 0 2 0;
#X connect 50 1 3 0;
#X connect 51 0 50 0;
#X connect 52 0 50 0;
#X connect 53 0 55 0;
#X connect 53 0 54 0;
#X connect 54 0 52 0;
#X connect 55 0 51 0;
#X connect 57 0 21 0;
#X connect 57 0 20 0;
#X connect 57 0 47 1;
#X connect 58 0 22 0;
#X connect 58 0 47 0;
#X connect 58 0 23 0;
#X connect 59 0 45 0;
