#N canvas 270 214 868 518 10;
#X obj 74 38 inlet~;
#X obj 96 127 rpole~;
#X obj 96 102 rzero_rev~;
#X obj 96 176 rpole~;
#X obj 96 151 rzero_rev~;
#X obj 96 224 rpole~;
#X obj 96 199 rzero_rev~;
#X obj 96 273 rpole~;
#X obj 96 248 rzero_rev~;
#X obj 73 403 +~;
#X obj 73 430 outlet~;
#X obj 278 178 phasor~ 0.3;
#X obj 345 211 sig~ 1;
#X obj 345 237 -~;
#X obj 346 281 min~;
#X obj 346 306 *~;
#X obj 270 360 -~;
#X obj 271 330 sig~ 0.97;
#X obj 406 300 line~;
#X obj 489 250 loadbang;
#X obj 489 271 f 0.6;
#X obj 346 333 *~;
#X obj 406 271 pack 0 10;
#X obj 96 323 rpole~;
#X obj 96 298 rzero_rev~;
#X obj 96 373 rpole~;
#X obj 96 348 rzero_rev~;
#X obj 278 147 inlet;
#X obj 406 245 inlet;
#X obj 637 138 r phaserswitch;
#X obj 639 184 switch~;
#X connect 0 0 2 0;
#X connect 0 0 9 0;
#X connect 1 0 4 0;
#X connect 2 0 1 0;
#X connect 3 0 6 0;
#X connect 4 0 3 0;
#X connect 5 0 8 0;
#X connect 6 0 5 0;
#X connect 7 0 24 0;
#X connect 8 0 7 0;
#X connect 9 0 10 0;
#X connect 11 0 14 1;
#X connect 11 0 13 1;
#X connect 12 0 13 0;
#X connect 13 0 14 0;
#X connect 14 0 15 0;
#X connect 14 0 15 1;
#X connect 15 0 21 0;
#X connect 16 0 2 1;
#X connect 16 0 1 1;
#X connect 16 0 4 1;
#X connect 16 0 3 1;
#X connect 16 0 6 1;
#X connect 16 0 5 1;
#X connect 16 0 8 1;
#X connect 16 0 7 1;
#X connect 16 0 24 1;
#X connect 16 0 23 1;
#X connect 16 0 26 1;
#X connect 16 0 25 1;
#X connect 17 0 16 0;
#X connect 18 0 21 1;
#X connect 19 0 20 0;
#X connect 20 0 18 0;
#X connect 21 0 16 1;
#X connect 22 0 18 0;
#X connect 23 0 26 0;
#X connect 24 0 23 0;
#X connect 25 0 9 1;
#X connect 26 0 25 0;
#X connect 27 0 11 0;
#X connect 28 0 22 0;
#X connect 29 0 30 0;
