#N canvas 508 118 854 889 10;
#X obj 256 91 inlet;
#X obj 256 140 unpack;
#X obj 446 117 random 10;
#X obj 445 81 t b;
#X obj 445 184 osc~;
#X obj 444 163 lop~ 5;
#X obj 323 252 +~;
#X obj 256 252 +~;
#X obj 48 160 random 10;
#X obj 47 137 t b;
#X obj 51 224 osc~;
#X obj 50 203 lop~ 5;
#X obj 536 104 sel 0;
#X obj 657 150 r at;
#X obj 654 252 vline~;
#X obj 584 197 pack f f;
#X obj 652 197 pack f f f f;
#X msg 612 224 0 \$2;
#X obj 696 149 r dc;
#X obj 731 150 r su;
#X obj 582 172 r re;
#X obj 225 669 *~;
#X obj 256 177 mtof;
#X obj 445 142 / 10;
#X obj 51 182 / 10;
#X obj 322 198 mtof;
#X obj 321 177 + 12;
#X obj 264 630 bob~, f 18;
#X obj 401 467 r filtercut;
#X obj 444 608 r resonance;
#X obj 428 515 line~;
#X obj 429 492 pack 0 50;
#X obj 631 401 vline~;
#X obj 565 275 sel 0;
#X obj 561 346 pack f f;
#X obj 629 346 pack f f f f;
#X msg 589 373 0 \$2;
#X obj 592 323 r fre;
#X obj 634 299 r fat;
#X obj 673 299 r fdc;
#X obj 713 298 r fsu;
#X obj 622 471 *~;
#X obj 566 418 r filter-eg;
#X obj 566 474 *~;
#X obj 568 509 *~ 1000;
#X obj 444 547 +~;
#N canvas 0 23 450 300 saw1 0;
#X obj 100 51 inlet~;
#X obj 102 177 outlet~;
#X obj 273 159 switch~;
#X obj 273 88 r saw1;
#X obj 102 116 blsaw;
#X connect 0 0 4 0;
#X connect 3 0 2 0;
#X connect 4 0 1 0;
#X restore 114 357 pd saw1;
#N canvas 0 23 450 300 saw2 0;
#X obj 100 51 inlet~;
#X obj 102 177 outlet~;
#X obj 273 159 switch~;
#X obj 273 88 r saw2;
#X obj 102 116 blsaw;
#X connect 0 0 4 0;
#X connect 3 0 2 0;
#X connect 4 0 1 0;
#X restore 269 356 pd saw2;
#N canvas 0 23 450 300 square2 0;
#X obj 100 51 inlet~;
#X obj 102 177 outlet~;
#X obj 273 159 switch~;
#X obj 273 88 r square2;
#X obj 165 84 r~ pw;
#X obj 100 116 blsquare;
#X connect 0 0 5 0;
#X connect 3 0 2 0;
#X connect 4 0 5 1;
#X connect 5 0 1 0;
#X restore 390 345 pd square2;
#X obj 52 248 *~ 0.82;
#N canvas 0 23 450 300 tri1 0;
#X obj 100 51 inlet~;
#X obj 102 177 outlet~;
#X obj 273 159 switch~;
#X obj 102 116 bltriangle~;
#X obj 273 88 r tri1;
#X connect 0 0 3 0;
#X connect 3 0 1 0;
#X connect 4 0 2 0;
#X restore 208 358 pd tri1;
#N canvas 0 23 450 300 tri2 0;
#X obj 100 51 inlet~;
#X obj 102 177 outlet~;
#X obj 273 159 switch~;
#X obj 102 116 bltriangle~;
#X obj 273 88 r tri2;
#X connect 0 0 3 0;
#X connect 3 0 1 0;
#X connect 4 0 2 0;
#X restore 318 409 pd tri2;
#X obj 439 582 clip~ 0.1 3500;
#X obj 443 207 *~ 1.02;
#X obj 387 197 / 100;
#X obj 441 239 *~;
#X obj 178 194 / 100;
#X obj 160 240 *~;
#X obj 164 802 outlet~;
#X obj 327 140 s \$0velocity;
#X obj 535 79 r \$0velocity;
#X obj 565 251 r \$0velocity;
#N canvas 0 23 450 300 square1 0;
#X obj 100 51 inlet~;
#X obj 102 177 outlet~;
#X obj 273 159 switch~;
#X obj 273 88 r square1;
#X obj 169 83 r~ pw;
#X obj 102 116 blsquare;
#X connect 0 0 5 0;
#X connect 3 0 2 0;
#X connect 4 0 5 1;
#X connect 5 0 1 0;
#X restore 177 385 pd square1;
#X obj 45 677 / 127;
#X obj 201 747 *~;
#X obj 171 746 *~;
#X obj 26 710 swap 1;
#X obj 32 744 -;
#X obj 224 803 outlet~;
#X obj 172 700 *~ 0.7;
#X obj 232 699 *~ 0.3;
#X obj 151 108 s \$0keytrack;
#X obj 46 647 r \$0keytrack;
#X obj 414 389 r \$0keytrack;
#X obj 502 462 sig~;
#X obj 508 506 +~;
#X obj 501 438 *;
#X obj 506 389 r filterkeytrack;
#X msg 631 373 0 2 \, 1 \$2 2 \, \$4 \$3 \$2;
#X msg 653 224 0 2 \, 1 \$2 2 \, \$4 \$3 \$2;
#X connect 0 0 1 0;
#X connect 1 0 9 0;
#X connect 1 0 3 0;
#X connect 1 0 22 0;
#X connect 1 0 26 0;
#X connect 1 0 56 0;
#X connect 1 0 71 0;
#X connect 1 1 59 0;
#X connect 2 0 23 0;
#X connect 3 0 2 0;
#X connect 4 0 53 0;
#X connect 5 0 4 0;
#X connect 6 0 47 0;
#X connect 6 0 48 0;
#X connect 6 0 51 0;
#X connect 7 0 46 0;
#X connect 7 0 62 0;
#X connect 7 0 50 0;
#X connect 8 0 24 0;
#X connect 9 0 8 0;
#X connect 10 0 49 0;
#X connect 11 0 10 0;
#X connect 12 0 15 0;
#X connect 12 1 16 0;
#X connect 13 0 16 1;
#X connect 14 0 21 1;
#X connect 15 0 17 0;
#X connect 16 0 79 0;
#X connect 17 0 14 0;
#X connect 18 0 16 2;
#X connect 19 0 16 3;
#X connect 20 0 15 1;
#X connect 21 0 69 0;
#X connect 21 0 70 0;
#X connect 22 0 7 0;
#X connect 23 0 5 0;
#X connect 24 0 11 0;
#X connect 25 0 6 0;
#X connect 26 0 25 0;
#X connect 26 0 54 0;
#X connect 27 0 21 0;
#X connect 28 0 31 0;
#X connect 29 0 27 2;
#X connect 30 0 45 0;
#X connect 31 0 30 0;
#X connect 32 0 41 0;
#X connect 32 0 41 1;
#X connect 33 0 34 0;
#X connect 33 1 35 0;
#X connect 34 0 36 0;
#X connect 35 0 78 0;
#X connect 36 0 32 0;
#X connect 37 0 34 1;
#X connect 38 0 35 1;
#X connect 39 0 35 2;
#X connect 40 0 35 3;
#X connect 41 0 43 1;
#X connect 42 0 43 0;
#X connect 43 0 44 0;
#X connect 44 0 75 0;
#X connect 45 0 52 0;
#X connect 46 0 27 0;
#X connect 47 0 27 0;
#X connect 48 0 27 0;
#X connect 49 0 57 0;
#X connect 50 0 27 0;
#X connect 51 0 27 0;
#X connect 52 0 27 1;
#X connect 53 0 55 0;
#X connect 54 0 55 1;
#X connect 55 0 6 1;
#X connect 56 0 57 1;
#X connect 57 0 7 1;
#X connect 60 0 12 0;
#X connect 61 0 33 0;
#X connect 62 0 27 0;
#X connect 63 0 64 1;
#X connect 63 0 66 0;
#X connect 64 0 68 0;
#X connect 65 0 58 0;
#X connect 66 0 67 0;
#X connect 66 1 67 1;
#X connect 67 0 65 1;
#X connect 69 0 64 0;
#X connect 69 0 65 0;
#X connect 70 0 68 0;
#X connect 70 0 58 0;
#X connect 72 0 63 0;
#X connect 73 0 76 0;
#X connect 74 0 75 1;
#X connect 75 0 45 1;
#X connect 76 0 74 0;
#X connect 77 0 76 1;
#X connect 78 0 32 0;
#X connect 79 0 14 0;
