#N canvas 0 50 1360 725 10;
#X obj 304 186 r notesIn-\$1;
#X obj 304 491 s notesOut-\$1;
#X obj 25 186 inlet~ inL-\$1;
#X obj 135 186 inlet~ inR-\$1;
#X obj 27 491 outlet~ outL-\$1;
#X obj 136 491 outlet~ outR-\$1;
#X obj 424 185 r auxIn-\$1;
#X obj 423 208 r expIn-\$1;
#X obj 423 233 r fsIn-\$1;
#X obj 340 363 polyfolder \$1;
#X obj 374 243 r ctrlIn-\$1;
#X obj 374 271 unpack 0 0 0;
#X obj 374 292 sel 123;
#X msg 374 313 stop;
#X connect 0 0 9 0;
#X connect 9 0 5 0;
#X connect 9 0 4 0;
#X connect 10 0 11 0;
#X connect 11 0 12 0;
#X connect 12 0 13 0;
#X connect 13 0 9 0;
