#N canvas 8 60 1351 720 10;
#X text 352 43 note messages;
#X obj 369 93 inlet;
#X obj 317 864 outlet~;
#X text 25 10 synth voice with waveform change;
#X obj 380 113 unpack 0 0;
#X obj 378 162 mtof;
#X obj 271 566 *~;
#X obj 355 218 sig~;
#X obj 718 33 > 1;
#X obj 687 156 sel 1;
#X obj 717 58 sel 0;
#X obj 742 202 nbx 4 14 5 1000 1 0 empty empty attack 0 -8 0 10 -262144
-1 -1 750 256;
#X obj 760 296 f;
#X obj 818 228 nbx 4 14 10 10000 1 1 empty empty decay 0 -8 0 10 -262144
-1 -1 1500 256;
#X msg 760 319 0 \$1;
#X msg 738 264 1 \$1;
#X obj 760 350 line~;
#X obj 713 237 float;
#X obj 659 386 nbx 4 14 0.01 1000 1 0 empty empty folding 0 -8 0 10
-262144 -1 -1 1 256;
#X obj 934 259 nbx 4 14 0.01 1 1 1 empty empty sustain 0 -8 0 10 -262144
-1 -1 0.5 256;
#X obj 850 159 delay 100;
#X msg 851 342 \$1 \$2;
#X obj 850 295 list;
#X obj 856 267 float;
#X obj 401 257 nbx 5 14 -1e+37 1e+37 0 0 empty empty empty 0 -8 0 10
-262144 -1 -1 0 256;
#X obj 315 835 +~;
#X msg 884 82 stop;
#X msg 591 385 10;
#X obj 782 451 sig~;
#X obj 794 480 lop~ 0.5;
#X obj 294 205 / 2;
#X obj 870 510 +~ 1;
#X obj 873 430 osc~ 0.6;
#X obj 900 479 *~ 1;
#X obj 320 319 +~;
#X obj 199 182 *~ 1;
#X obj 196 139 osc~ 1;
#X obj 208 217 *~ 0.005;
#X obj 495 79 bng 15 250 50 0 empty empty empty 17 7 0 10 -262144 -1
-1;
#X obj 724 123 r folder_attack-\$1;
#X obj 873 117 r folder_decay-\$1;
#X obj 950 183 r folder_sustain-\$1;
#X obj 614 324 r folder_folding-\$1;
#X obj 444 144 + 0;
#X obj 599 94 r folder_offset-\$1;
#X obj 1047 467 / 100;
#X obj 917 374 r folder_mrate-\$1;
#X obj 1053 421 r folder_mdepth-\$1;
#X obj 52 69 r folder_vrate-\$1;
#X obj 200 78 r folder_vdepth-\$1;
#X obj 288 120 * 0.0025;
#X obj 680 443 lop~ 200;
#X obj 811 529 *~;
#X obj 834 190 * 30;
#X obj 730 144 * 15;
#X obj 963 233 / 100;
#X obj 121 410 tableosc \$1;
#X obj 264 617 tablefolder \$1;
#X obj 654 349 * 0.02;
#X obj 551 599 snapshot~;
#X floatatom 542 634 5 0 0 0 - - -;
#X obj 544 564 bng 15 250 50 0 empty empty empty 17 7 0 10 -262144
-1 -1;
#X obj 662 491 *~ 1;
#X obj 154 318 * 4;
#X connect 1 0 4 0;
#X connect 1 0 38 0;
#X connect 4 0 43 0;
#X connect 4 1 8 0;
#X connect 5 0 30 0;
#X connect 5 0 35 1;
#X connect 6 0 57 1;
#X connect 7 0 34 0;
#X connect 8 0 9 0;
#X connect 8 0 10 0;
#X connect 9 0 17 0;
#X connect 9 0 20 0;
#X connect 10 0 12 0;
#X connect 10 0 26 0;
#X connect 11 0 17 1;
#X connect 11 0 20 1;
#X connect 12 0 14 0;
#X connect 13 0 12 1;
#X connect 13 0 22 1;
#X connect 14 0 16 0;
#X connect 15 0 16 0;
#X connect 16 0 51 0;
#X connect 17 0 15 0;
#X connect 18 0 28 0;
#X connect 19 0 23 1;
#X connect 20 0 23 0;
#X connect 21 0 16 0;
#X connect 22 0 21 0;
#X connect 23 0 22 0;
#X connect 25 0 2 0;
#X connect 26 0 20 0;
#X connect 27 0 18 0;
#X connect 28 0 29 0;
#X connect 29 0 52 0;
#X connect 30 0 7 0;
#X connect 30 0 63 0;
#X connect 31 0 52 1;
#X connect 32 0 33 0;
#X connect 33 0 31 0;
#X connect 34 0 56 1;
#X connect 35 0 37 0;
#X connect 36 0 35 0;
#X connect 37 0 34 0;
#X connect 39 0 54 0;
#X connect 40 0 53 0;
#X connect 41 0 55 0;
#X connect 42 0 58 0;
#X connect 43 0 5 0;
#X connect 44 0 43 1;
#X connect 45 0 33 1;
#X connect 46 0 32 0;
#X connect 47 0 45 0;
#X connect 48 0 36 0;
#X connect 49 0 50 0;
#X connect 50 0 37 1;
#X connect 51 0 62 0;
#X connect 53 0 13 0;
#X connect 54 0 11 0;
#X connect 55 0 19 0;
#X connect 56 0 6 0;
#X connect 57 0 25 0;
#X connect 58 0 18 0;
#X connect 59 0 60 0;
#X connect 61 0 59 0;
#X connect 62 0 6 1;
#X connect 62 0 59 0;
#X connect 63 0 56 0;
#X connect 63 0 57 0;
