#N canvas 599 247 999 717 10;
#X obj 228 288 * 4;
#X obj 228 227 t a b;
#X obj 228 186 moses 0.25, f 19;
#X obj 339 214 moses 0.5, f 28;
#X obj 339 255 - 0.25;
#X obj 339 339 * 4;
#X obj 339 235 t a b, f 10;
#X obj 504 365 * 4;
#X obj 504 261 t a b, f 10;
#X obj 504 239 moses 0.75, f 34;
#X obj 504 281 - 0.5;
#X obj 705 376 * 4;
#X obj 705 272 t a b, f 10;
#X obj 705 292 - 0.75;
#X text 357 49 Arg1: which knob 1-4;
#X obj 39 137 t b a, f 32;
#X msg 255 262 1;
#X msg 396 261 2;
#X msg 562 287 3;
#X msg 762 298 4;
#X obj 392 487 t a a;
#X obj 425 551 change -1;
#X obj 425 580 lop~ 20;
#X obj 228 447 t a a;
#X obj 162 627 lop~ 20;
#X obj 162 658 s~ wave-\$1-vol-\$2;
#X obj 425 610 s~ wave-\$1-index-\$2;
#X obj 39 220 s print-waveform-\$2;
#X obj 39 46 inlet;
#X obj 39 67 / 127;
#X connect 0 0 23 0;
#X connect 1 0 0 0;
#X connect 1 1 16 0;
#X connect 2 0 1 0;
#X connect 2 1 3 0;
#X connect 3 0 6 0;
#X connect 3 1 9 0;
#X connect 4 0 5 0;
#X connect 5 0 23 0;
#X connect 6 0 4 0;
#X connect 6 1 17 0;
#X connect 7 0 23 0;
#X connect 8 0 10 0;
#X connect 8 1 18 0;
#X connect 9 0 8 0;
#X connect 9 1 12 0;
#X connect 10 0 7 0;
#X connect 11 0 23 0;
#X connect 12 0 13 0;
#X connect 12 1 19 0;
#X connect 13 0 11 0;
#X connect 15 0 27 0;
#X connect 15 1 2 0;
#X connect 16 0 20 0;
#X connect 17 0 20 0;
#X connect 18 0 20 0;
#X connect 19 0 20 0;
#X connect 20 0 21 0;
#X connect 21 0 22 0;
#X connect 22 0 26 0;
#X connect 23 0 24 0;
#X connect 24 0 25 0;
#X connect 28 0 29 0;
#X connect 29 0 15 0;
