#N canvas 614 87 1302 777 10;
#X declare -path cg-pd-library-local/sampling;
#X declare -path cg-pd-library-local/sequencer;
#X declare -path cg-pd-library-local/externals;
#X declare -path cg-pd-library-local/metronome;
#X obj 304 186 r notesIn-\$1;
#X obj 304 491 s notesOut-\$1;
#X obj 25 186 inlet~ inL-\$1;
#X obj 135 186 inlet~ inR-\$1;
#X obj 27 491 outlet~ outL-\$1;
#X obj 136 491 outlet~ outR-\$1;
#X obj 505 188 r auxIn-\$1;
#X obj 504 211 r expIn-\$1;
#X obj 503 238 r fsIn-\$1;
#X obj 405 186 r ctrlIn-\$1;
#X obj 405 491 s ctrlOut-\$1;
#N canvas 892 170 651 455 wavetable-bank 0;
#X obj 180 57 t b;
#X obj 180 99 t a b, f 9;
#X obj 180 120 until;
#X obj 180 161 f;
#X obj 230 162 + 1;
#X msg 231 121 1;
#X text 309 62 load the 19 different waveforms;
#X msg 85 262 vis \$1 1;
#X floatatom 79 220 5 0 0 0 - - -;
#X msg 181 78 4;
#X obj 206 205 sel 1 2 3 4, f 22;
#X msg 206 226 1;
#X msg 267 226 20;
#X msg 306 226 22;
#X obj 180 182 t f f;
#X obj 180 253 pack 0 0;
#X msg 180 301 \$1 ../../waveforms/wave\$2.wav;
#X obj 180 339 clone -s 1 4 cg-waveform-load wave\$1;
#X obj 180 36 r load-the-wavetables-\$1;
#X msg 237 226 1;
#X connect 0 0 9 0;
#X connect 1 0 2 0;
#X connect 1 1 5 0;
#X connect 2 0 3 0;
#X connect 3 0 4 0;
#X connect 3 0 14 0;
#X connect 4 0 3 1;
#X connect 5 0 3 1;
#X connect 7 0 17 0;
#X connect 8 0 7 0;
#X connect 9 0 1 0;
#X connect 10 0 11 0;
#X connect 10 1 19 0;
#X connect 10 2 12 0;
#X connect 10 3 13 0;
#X connect 11 0 15 1;
#X connect 12 0 15 1;
#X connect 13 0 15 1;
#X connect 14 0 15 0;
#X connect 14 1 10 0;
#X connect 15 0 16 0;
#X connect 16 0 17 0;
#X connect 18 0 0 0;
#X connect 19 0 15 1;
#X restore 590 234 pd wavetable-bank;
#N canvas 13 50 450 300 cg-pd-library-local 0;
#X obj 502 35 r cgSc-1-slots;
#X obj 60 68 declare -path cg-pd-library-local/sampling;
#X obj 60 98 declare -path cg-pd-library-local/sequencer;
#X obj 58 130 declare -path cg-pd-library-local/externals;
#X obj 59 165 declare -path cg-pd-library-local/metronome;
#X restore 589 209 pd cg-pd-library-local;
#X obj 135 368 - 1;
#X obj 135 389 pack 0 0 0;
#N canvas 463 152 842 620 knobs 0;
#X obj 69 91 4-wave-global-knob 1 \$1;
#X obj 328 59 4-wave-global-knob 2 \$1;
#X obj 55 175 4-wave-global-knob 3 \$1;
#X obj 310 146 4-wave-global-knob 4 \$1;
#X obj 61 27 r fw_k1-\$1;
#X obj 54 154 r fw_k3-\$1;
#X obj 347 25 r fw_k2-\$1;
#X obj 319 124 r fw_k4-\$1;
#X connect 4 0 0 0;
#X connect 5 0 2 0;
#X connect 6 0 1 0;
#X connect 7 0 3 0;
#X restore 593 294 pd knobs;
#N canvas 9 50 445 300 loadbang 0;
#X msg 81 120 512;
#X obj 112 91 s load-the-wavetables-\$1;
#X obj 72 169 s load-params-\$1;
#X obj 57 200 s load-draw-wave-\$1;
#X obj 205 64 s mute-print-\$1;
#X msg 207 35 0;
#X obj 48 61 t b b b b b;
#X obj 84 145 v array\$1-1-lengthSamp;
#X obj 48 40 r loadbang-\$1;
#X connect 0 0 7 0;
#X connect 5 0 4 0;
#X connect 6 0 3 0;
#X connect 6 1 2 0;
#X connect 6 2 0 0;
#X connect 6 3 1 0;
#X connect 6 4 5 0;
#X connect 8 0 6 0;
#X restore 598 261 pd loadbang;
#N canvas 855 188 884 608 algos 0;
#X obj 668 51 text define \$0-op1;
#X obj 668 79 text define \$0-op2;
#X obj 670 106 text define \$0-op3;
#X obj 671 143 text define \$0-op4;
#X obj 673 180 text define \$0-out;
#X obj 69 414 text get \$0-op1;
#X obj 69 435 list prepend 1;
#X obj 69 293 t a a a a a, f 89;
#X obj 201 413 text get \$0-op2;
#X obj 201 436 list prepend 2;
#X obj 334 414 text get \$0-op3;
#X obj 467 413 text get \$0-op4;
#X obj 600 436 list prepend 5;
#X obj 467 436 list prepend 4;
#X obj 334 435 list prepend 3;
#N canvas 341 191 1136 571 save-the-presets 0;
#X obj 254 208 text tolist \$0-op1;
#X obj 87 432 text define \$0-big-save;
#X obj 254 259 text set \$0-big-save;
#X obj 254 163 t b b;
#X msg 375 208 0;
#X msg 131 397 write big-save.txt;
#X obj 417 257 text set \$0-big-save;
#X obj 417 161 t b b;
#X obj 417 206 text tolist \$0-op2;
#X msg 538 206 1;
#X obj 579 252 text set \$0-big-save;
#X obj 579 156 t b b;
#X obj 742 250 text set \$0-big-save;
#X obj 742 154 t b b;
#X msg 700 201 2;
#X msg 863 199 3;
#X obj 579 201 text tolist \$0-op3;
#X obj 742 199 text tolist \$0-op4;
#X obj 902 259 text set \$0-big-save;
#X obj 902 163 t b b;
#X obj 902 208 text tolist \$0-out;
#X msg 1023 208 4;
#X obj 220 125 t b b;
#X obj 222 56 bng 15 250 50 0 empty empty empty 17 7 0 10 -262144 -1
-1;
#X obj 63 355 r to-bigSave;
#X connect 0 0 2 0;
#X connect 3 0 0 0;
#X connect 3 1 4 0;
#X connect 4 0 2 1;
#X connect 5 0 1 0;
#X connect 7 0 8 0;
#X connect 7 1 9 0;
#X connect 8 0 6 0;
#X connect 9 0 6 1;
#X connect 11 0 16 0;
#X connect 11 1 14 0;
#X connect 13 0 17 0;
#X connect 13 1 15 0;
#X connect 14 0 10 1;
#X connect 15 0 12 1;
#X connect 16 0 10 0;
#X connect 17 0 12 0;
#X connect 19 0 20 0;
#X connect 19 1 21 0;
#X connect 20 0 18 0;
#X connect 21 0 18 1;
#X connect 22 0 5 0;
#X connect 22 1 3 0;
#X connect 22 1 19 0;
#X connect 22 1 13 0;
#X connect 22 1 11 0;
#X connect 22 1 7 0;
#X connect 23 0 22 0;
#X connect 24 0 1 0;
#X restore 409 195 pd save-the-presets;
#X obj 600 413 text get \$0-out;
#N canvas 341 191 1136 571 load-the-presets 0;
#X obj 81 293 t b b;
#X msg 131 397 read big-save.txt;
#X obj 356 440 text fromlist \$0-op1;
#X obj 356 419 text get \$0-big-save;
#X msg 356 390 0;
#X obj 495 420 text get \$0-big-save;
#X obj 636 419 text get \$0-big-save;
#X obj 775 420 text get \$0-big-save;
#X obj 925 420 text get \$0-big-save;
#X msg 495 391 1;
#X msg 637 390 2;
#X msg 775 391 3;
#X msg 925 391 4;
#X obj 495 441 text fromlist \$0-op2;
#X obj 636 440 text fromlist \$0-op3;
#X obj 774 440 text fromlist \$0-op4;
#X obj 925 441 text fromlist \$0-out;
#X obj 131 418 s to-bigSave;
#X obj 214 186 bng 15 250 50 0 empty empty empty 17 7 0 10 -262144
-1 -1;
#X obj 81 263 r load-the-wavetables-\$1;
#X connect 0 0 4 0;
#X connect 0 0 12 0;
#X connect 0 0 11 0;
#X connect 0 0 10 0;
#X connect 0 0 9 0;
#X connect 0 1 1 0;
#X connect 1 0 17 0;
#X connect 3 0 2 0;
#X connect 4 0 3 0;
#X connect 5 0 13 0;
#X connect 6 0 14 0;
#X connect 7 0 15 0;
#X connect 8 0 16 0;
#X connect 9 0 5 0;
#X connect 10 0 6 0;
#X connect 11 0 7 0;
#X connect 12 0 8 0;
#X connect 18 0 0 0;
#X connect 19 0 0 0;
#X restore 411 169 pd load-the-presets;
#X obj 69 266 - 1;
#X obj 69 456 list append \$1;
#X msg 69 493 \; 4algo-\$1-1-\$6 \$2 \; 4algo-\$1-2-\$6 \$3 \; 4algo-\$1-3-\$6
\$4 \; 4algo-\$1-4-\$6 \$5 \;;
#X msg 201 494 \; 4algo-\$1-1-\$6 \$2 \; 4algo-\$1-2-\$6 \$3 \; 4algo-\$1-3-\$6
\$4 \; 4algo-\$1-4-\$6 \$5 \;;
#X msg 333 492 \; 4algo-\$1-1-\$6 \$2 \; 4algo-\$1-2-\$6 \$3 \; 4algo-\$1-3-\$6
\$4 \; 4algo-\$1-4-\$6 \$5 \;;
#X msg 469 495 \; 4algo-\$1-1-\$6 \$2 \; 4algo-\$1-2-\$6 \$3 \; 4algo-\$1-3-\$6
\$4 \; 4algo-\$1-4-\$6 \$5 \;;
#X msg 599 491 \; 4algo-\$1-1-\$6 \$2 \; 4algo-\$1-2-\$6 \$3 \; 4algo-\$1-3-\$6
\$4 \; 4algo-\$1-4-\$6 \$5 \;;
#X obj 201 457 list append \$1;
#X obj 334 456 list append \$1;
#X obj 467 457 list append \$1;
#X obj 600 457 list append \$1;
#X obj 69 146 r fw_a-\$1;
#X obj 69 237 spigot 0;
#X obj 139 139 r load-draw-wave-\$1;
#X obj 139 160 t b b;
#X msg 166 186 1;
#X obj 69 207 f;
#X connect 5 0 6 0;
#X connect 6 0 19 0;
#X connect 7 0 5 0;
#X connect 7 1 8 0;
#X connect 7 2 10 0;
#X connect 7 3 11 0;
#X connect 7 4 16 0;
#X connect 8 0 9 0;
#X connect 9 0 25 0;
#X connect 10 0 14 0;
#X connect 11 0 13 0;
#X connect 12 0 28 0;
#X connect 13 0 27 0;
#X connect 14 0 26 0;
#X connect 16 0 12 0;
#X connect 18 0 7 0;
#X connect 19 0 20 0;
#X connect 25 0 21 0;
#X connect 26 0 22 0;
#X connect 27 0 23 0;
#X connect 28 0 24 0;
#X connect 29 0 34 0;
#X connect 30 0 18 0;
#X connect 31 0 32 0;
#X connect 32 0 34 0;
#X connect 32 1 33 0;
#X connect 33 0 30 1;
#X connect 34 0 30 0;
#X restore 595 367 pd algos;
#X obj 135 347 poly 4 1, f 10;
#X obj 135 415 clone 4 4-wave-voice \$1;
#X connect 0 0 1 0;
#X connect 0 0 18 0;
#X connect 13 0 14 0;
#X connect 14 0 19 0;
#X connect 18 0 13 0;
#X connect 18 1 14 1;
#X connect 18 2 14 2;
#X connect 19 0 4 0;
#X connect 19 0 5 0;
