#N canvas 295 52 1503 992 10;
#X obj 248 103 chainin 1 \$1;
#X obj 247 195 chainout 1 \$1;
#X obj 237 131 fullmodule a1 \$1;
#X obj 237 149 fullmodule a2 \$1;
#X obj 237 167 fullmodule a3 \$1;
#X obj 125 160 auxmodule m1 \$1;
#X obj 125 178 auxmodule m2 \$1;
#X obj 125 196 auxmodule m3 \$1;
#X obj 125 114 auxmodule s1 \$1;
#X obj 125 132 auxmodule s2 \$1;
#X obj 380 131 fullmodule b1 \$1;
#X obj 380 149 fullmodule b2 \$1;
#X obj 380 167 fullmodule b3 \$1;
#X obj 380 185 fullmodule b4 \$1;
#X obj 515 131 fullmodule c1 \$1;
#X obj 515 149 fullmodule c2 \$1;
#X obj 515 167 fullmodule c3 \$1;
#X obj 385 103 chainin 2 \$1;
#X obj 525 103 chainin 3 \$1;
#X obj 376 347 premodule p1 \$1;
#X obj 373 291 +~;
#X obj 466 291 +~;
#X obj 373 319 +~;
#X obj 466 319 +~;
#X obj 373 365 postmodule p2 \$1;
#X obj 524 195 chainout 3 \$1;
#X obj 389 213 chainout 2 \$1;
#X obj 10 11 r notesIn-\$1;
#X obj 94 34 r auxIn-\$1;
#N canvas 1184 432 732 612 keyhandler 0;
#X obj 65 47 inlet note;
#X obj 197 47 inlet aux;
#X obj 182 203 i;
#X obj 65 85 unpack 0 0 0;
#X obj 65 278 spigot 1;
#X obj 237 278 spigot 0;
#X obj 110 234 == 0;
#X obj 110 134 == 0;
#X obj 65 177 spigot 0;
#X text 139 135 do on key release;
#X text 217 297 aux+key handling;
#X text 47 297 normal handling;
#X obj 65 198 - 60;
#X obj 237 340 outlet auxkey;
#X obj 65 336 outlet normkey;
#X connect 0 0 3 0;
#X connect 1 0 2 1;
#X connect 2 0 5 1;
#X connect 2 0 6 0;
#X connect 3 0 8 0;
#X connect 3 1 7 0;
#X connect 4 0 14 0;
#X connect 5 0 13 0;
#X connect 6 0 4 1;
#X connect 7 0 8 1;
#X connect 8 0 12 0;
#X connect 12 0 4 0;
#X connect 12 0 5 0;
#X restore 10 48 pd keyhandler;
#X msg 10 150 selectpage \$1;
#X obj 10 168 s rackMsgs;
#X obj 139 313 mainctrlhandler \$1;
#X text 388 21 Routing Setup;
#X obj 10 436 actmodhandler \$1;
#X obj 54 272 auxhandler;
#X obj 15 218 r activeModule;
#X obj 15 236 symbol;
#X obj 10 318 route 0;
#X obj 49 408 list store a1 a2 a3 b1 b2 b3 b4 c1 c2 c3;
#X msg 49 390 get \$1 1;
#X obj 49 372 - 1;
#X obj 15 254 t b s s;
#X obj 10 200 r r-main-dest-\$1;
#X obj 10 300 pack 0 s;
#X obj 49 354 unpack 0 s;
#X obj 10 336 symbol;
#X obj 374 46 r~ oinL;
#X obj 461 46 r~ oinR;
#X obj 373 383 throw~ ooutL;
#X obj 466 383 throw~ ooutR;
#X obj 10 66 + 1;
#N canvas 4 50 599 284 mix-knobs 0;
#X obj 194 228 s rackMsgs;
#X obj 14 118 spigot;
#X obj 14 72 / 1023;
#X obj 14 154 symbol \$1;
#X obj 14 182 pack s 2;
#X obj 14 36 i;
#X obj 14 54 change -1;
#X obj 14 136 t b f f, f 29;
#X obj 194 118 spigot;
#X obj 194 72 / 1023;
#X obj 194 154 symbol \$1;
#X obj 194 182 pack s 2;
#X obj 194 36 i;
#X obj 194 54 change -1;
#X obj 194 136 t b f f, f 29;
#X obj 374 118 spigot;
#X obj 374 72 / 1023;
#X obj 374 154 symbol \$1;
#X obj 374 182 pack s 2;
#X obj 374 36 i;
#X obj 374 54 change -1;
#X obj 374 136 t b f f, f 31;
#X obj 14 18 r oknob1Raw;
#X obj 194 18 r oknob2Raw;
#X obj 374 18 r oknob3Raw;
#X msg 14 200 setparam \$1 r-chout-gain-1 \$2;
#X msg 194 200 setparam \$1 r-chout-gain-2 \$2;
#X msg 374 200 setparam \$1 r-chout-gain-3 \$2;
#X obj 227 90 inlet;
#X connect 1 0 7 0;
#X connect 2 0 1 0;
#X connect 3 0 4 0;
#X connect 4 0 25 0;
#X connect 5 0 6 0;
#X connect 6 0 2 0;
#X connect 7 0 3 0;
#X connect 7 1 4 1;
#X connect 8 0 14 0;
#X connect 9 0 8 0;
#X connect 10 0 11 0;
#X connect 11 0 26 0;
#X connect 12 0 13 0;
#X connect 13 0 9 0;
#X connect 14 0 10 0;
#X connect 14 1 11 1;
#X connect 15 0 21 0;
#X connect 16 0 15 0;
#X connect 17 0 18 0;
#X connect 18 0 27 0;
#X connect 19 0 20 0;
#X connect 20 0 16 0;
#X connect 21 0 17 0;
#X connect 21 1 18 1;
#X connect 22 0 5 0;
#X connect 23 0 12 0;
#X connect 24 0 19 0;
#X connect 25 0 0 0;
#X connect 26 0 0 0;
#X connect 27 0 0 0;
#X connect 28 0 1 1;
#X connect 28 0 15 1;
#X connect 28 0 8 1;
#X restore 713 172 pd mix-knobs;
#X obj 667 66 sel \$1, f 12;
#X obj 667 48 unpack s s, f 16;
#X obj 667 30 r activePage;
#X obj 667 126 &&;
#X msg 760 84 1;
#X msg 847 84 0;
#X msg 667 84 1;
#X msg 736 84 0;
#X obj 760 66 sel pg_allgains;
#X obj 569 606 i;
#X msg 878 1554 /oled/gFlip 3;
#X obj 1031 1342 f;
#X obj 557 488 f;
#X obj 557 470 t b f;
#X obj 569 516 +;
#X obj 813 626 i;
#X obj 929 1508 f;
#X obj 801 508 f;
#X obj 801 490 t b f;
#X obj 813 536 +;
#X obj 813 554 / 100;
#X obj 713 636 i;
#X obj 980 1430 f;
#X obj 701 518 f;
#X obj 701 490 t b f;
#X obj 713 546 +;
#X obj 713 564 / 100;
#X obj 557 452 *;
#X obj 557 424 / 10;
#X obj 701 444 / 10;
#X obj 701 472 *;
#X obj 713 582 * 128;
#X obj 713 600 min 128;
#X obj 813 590 min 128;
#X obj 813 572 * 128;
#X obj 801 414 / 10;
#X obj 801 472 *;
#X obj 569 534 / 100;
#X obj 569 552 * 128;
#X obj 569 570 min 128;
#X obj 569 588 max 1;
#X obj 713 618 max 1;
#X obj 813 608 max 1;
#X msg 1235 446 /oled/gClear 3 1;
#X obj 1184 548 i;
#X obj 1199 530 - 100;
#X obj 878 428 t b b b b b b b b, f 60;
#X obj 831 414 t b f;
#X obj 582 819 sel 0;
#X obj 557 384 spigot 0;
#X obj 701 384 spigot 0;
#X obj 801 384 spigot 0;
#X obj 582 1568 s oscOut;
#X obj 557 296 env~ 4410 2205;
#X obj 701 296 env~ 4410 2205;
#X obj 801 296 env~ 4410 2205;
#X msg 582 837 /oled/gFillArea 3 0 50 128 14 0;
#X obj 667 174 sel 1;
#X obj 667 210 delay 500;
#X msg 667 319 1;
#X msg 694 319 0;
#X msg 699 192 stop;
#X msg 1031 1360 /oled/gInvertArea 3 0 11 \$1 15;
#X msg 980 1448 /oled/gInvertArea 3 0 29 \$1 15;
#X msg 929 1526 /oled/gInvertArea 3 0 47 \$1 15;
#X obj 667 144 change;
#X obj 10 489 r led-clock;
#X obj 10 507 s aux-led-\$1;
#X obj 1256 504 r r-chout-gain-1-\$1;
#X obj 1241 522 int;
#X msg 94 70 -1;
#X obj 10 114 f;
#X obj 94 88 t b f;
#X obj 10 132 change;
#X obj 11 897 s oscOutRaw;
#X obj 324 451 r auxIn-\$1;
#X msg 418 641 /oled/aux/clear 1;
#X msg 358 753 /oled/setscreen 1;
#X msg 363 827 /oled/setscreen 3;
#X msg 324 883 /oled/aux/clear 1;
#X obj 324 605 sel 0 1;
#X msg 343 781 6;
#X obj 196 869 s aux-led-\$1;
#X obj 324 809 t b b b;
#X msg 343 855 0;
#X obj 329 505 cputime;
#X obj 329 469 metro 1000;
#X obj 329 487 t b b, f 7;
#X obj 329 541 * 0.1;
#X obj 329 523 int;
#X msg 329 577 /oled/aux/line/4 CPU = \$1 %;
#X obj 329 559 min 100;
#X obj 343 623 t b b b b b b;
#X obj 94 52 sel 0;
#X msg 388 697 /oled/aux/line/2 Orac 3-chains router;
#X msg 373 725 /oled/aux/line/3 and audio mixer;
#X msg 1241 540 /oled/gPrintln 3 3 15 8 1 A = \$1%;
#X msg 1235 656 /oled/gPrintln 3 98 15 8 1 \$1dB;
#X obj 1184 566 moses -99;
#X msg 1184 674 /oled/gPrintln 3 92 15 8 1 \$1dB;
#X obj 1235 584 moses -9;
#X msg 1280 638 /oled/gPrintln 3 104 15 8 1 \$1dB;
#X obj 1280 602 moses 0;
#X obj 1133 855 i;
#X obj 1148 837 - 100;
#X obj 1190 829 int;
#X obj 1133 873 moses -99;
#X obj 1184 891 moses -9;
#X obj 1229 909 moses 0;
#X obj 1205 811 r r-chout-gain-2-\$1;
#X msg 1190 847 /oled/gPrintln 3 3 33 8 1 B = \$1%;
#X msg 1229 945 /oled/gPrintln 3 104 33 8 1 \$1dB;
#X msg 1184 963 /oled/gPrintln 3 98 33 8 1 \$1dB;
#X msg 1133 981 /oled/gPrintln 3 92 33 8 1 \$1dB;
#X msg 1319 620 /oled/gPrintln 3 104 15 8 1 +\$1dB;
#X msg 1268 927 /oled/gPrintln 3 104 33 8 1 +\$1dB;
#X obj 1082 1153 i;
#X obj 1097 1135 - 100;
#X obj 1139 1127 int;
#X obj 1082 1171 moses -99;
#X obj 1133 1189 moses -9;
#X obj 1178 1207 moses 0;
#X obj 1154 1109 r r-chout-gain-3-\$1;
#X msg 1217 1225 /oled/gPrintln 3 104 51 8 1 +\$1dB;
#X msg 1178 1243 /oled/gPrintln 3 104 51 8 1 \$1dB;
#X msg 1133 1261 /oled/gPrintln 3 98 51 8 1 \$1dB;
#X msg 1082 1279 /oled/gPrintln 3 92 51 8 1 \$1dB;
#X msg 1139 1145 /oled/gPrintln 3 3 51 8 1 C = \$1%;
#X msg 403 669 /oled/aux/line/1 Parallel III (4.1);
#X connect 0 0 2 0;
#X connect 0 1 2 1;
#X connect 0 2 2 2;
#X connect 0 3 2 3;
#X connect 1 0 20 0;
#X connect 1 0 106 0;
#X connect 1 1 21 1;
#X connect 1 1 106 0;
#X connect 2 0 3 0;
#X connect 2 1 3 1;
#X connect 2 2 3 2;
#X connect 2 3 3 3;
#X connect 3 0 4 0;
#X connect 3 1 4 1;
#X connect 3 2 4 2;
#X connect 3 3 4 3;
#X connect 4 0 1 0;
#X connect 4 1 1 1;
#X connect 4 2 1 2;
#X connect 4 3 1 3;
#X connect 10 0 11 0;
#X connect 10 1 11 1;
#X connect 10 2 11 2;
#X connect 10 3 11 3;
#X connect 11 0 12 0;
#X connect 11 1 12 1;
#X connect 11 2 12 2;
#X connect 11 3 12 3;
#X connect 12 0 13 0;
#X connect 12 1 13 1;
#X connect 12 2 13 2;
#X connect 12 3 13 3;
#X connect 13 0 26 0;
#X connect 13 1 26 1;
#X connect 13 2 26 2;
#X connect 13 3 26 3;
#X connect 14 0 15 0;
#X connect 14 1 15 1;
#X connect 14 2 15 2;
#X connect 14 3 15 3;
#X connect 15 0 16 0;
#X connect 15 1 16 1;
#X connect 15 2 16 2;
#X connect 15 3 16 3;
#X connect 16 0 25 0;
#X connect 16 1 25 1;
#X connect 16 2 25 2;
#X connect 16 3 25 3;
#X connect 17 0 10 0;
#X connect 17 1 10 1;
#X connect 17 2 10 2;
#X connect 17 3 10 3;
#X connect 18 0 14 0;
#X connect 18 1 14 1;
#X connect 18 2 14 2;
#X connect 18 3 14 3;
#X connect 19 0 24 0;
#X connect 19 1 24 1;
#X connect 20 0 22 0;
#X connect 21 0 23 0;
#X connect 22 0 19 0;
#X connect 23 0 19 1;
#X connect 24 0 49 0;
#X connect 24 1 50 0;
#X connect 25 0 22 1;
#X connect 25 0 108 0;
#X connect 25 1 23 1;
#X connect 25 1 108 0;
#X connect 26 0 20 1;
#X connect 26 0 107 0;
#X connect 26 1 21 0;
#X connect 26 1 107 0;
#X connect 27 0 29 0;
#X connect 28 0 29 1;
#X connect 28 0 146 0;
#X connect 29 0 51 0;
#X connect 30 0 31 0;
#X connect 36 0 37 0;
#X connect 37 0 42 0;
#X connect 38 0 46 0;
#X connect 38 1 45 0;
#X connect 39 0 34 0;
#X connect 40 0 39 0;
#X connect 41 0 40 0;
#X connect 42 0 44 0;
#X connect 42 1 44 1;
#X connect 42 2 35 0;
#X connect 43 0 44 0;
#X connect 44 0 38 0;
#X connect 45 0 41 0;
#X connect 46 0 34 0;
#X connect 47 0 0 0;
#X connect 47 0 18 0;
#X connect 47 0 17 0;
#X connect 48 0 17 1;
#X connect 48 0 18 1;
#X connect 48 0 0 1;
#X connect 51 0 124 0;
#X connect 53 0 59 0;
#X connect 53 1 60 0;
#X connect 54 0 53 0;
#X connect 54 1 61 0;
#X connect 55 0 54 0;
#X connect 56 0 118 0;
#X connect 57 0 56 1;
#X connect 58 0 56 1;
#X connect 59 0 56 0;
#X connect 60 0 56 0;
#X connect 61 0 57 0;
#X connect 61 1 58 0;
#X connect 62 0 64 1;
#X connect 63 0 105 0;
#X connect 64 0 115 0;
#X connect 65 0 67 0;
#X connect 66 0 65 0;
#X connect 66 1 67 1;
#X connect 67 0 90 0;
#X connect 68 0 69 1;
#X connect 69 0 117 0;
#X connect 70 0 72 0;
#X connect 71 0 70 0;
#X connect 71 1 72 1;
#X connect 72 0 73 0;
#X connect 73 0 87 0;
#X connect 74 0 75 1;
#X connect 75 0 116 0;
#X connect 76 0 78 0;
#X connect 77 0 76 0;
#X connect 77 1 78 1;
#X connect 78 0 79 0;
#X connect 79 0 84 0;
#X connect 80 0 66 0;
#X connect 81 0 80 0;
#X connect 81 0 80 1;
#X connect 82 0 83 0;
#X connect 82 0 83 1;
#X connect 83 0 77 0;
#X connect 84 0 85 0;
#X connect 85 0 94 0;
#X connect 86 0 95 0;
#X connect 87 0 86 0;
#X connect 88 0 89 0;
#X connect 88 0 89 1;
#X connect 89 0 71 0;
#X connect 90 0 91 0;
#X connect 91 0 92 0;
#X connect 92 0 93 0;
#X connect 93 0 62 0;
#X connect 94 0 74 0;
#X connect 95 0 68 0;
#X connect 96 0 105 0;
#X connect 97 0 151 0;
#X connect 98 0 97 1;
#X connect 99 0 63 0;
#X connect 99 1 69 0;
#X connect 99 2 75 0;
#X connect 99 3 64 0;
#X connect 99 4 169 0;
#X connect 99 4 171 0;
#X connect 99 5 158 0;
#X connect 99 5 156 0;
#X connect 99 6 97 0;
#X connect 99 6 122 0;
#X connect 99 7 96 0;
#X connect 100 0 99 0;
#X connect 100 1 170 0;
#X connect 101 0 109 0;
#X connect 102 0 81 0;
#X connect 102 0 98 0;
#X connect 103 0 82 0;
#X connect 103 0 157 0;
#X connect 104 0 88 0;
#X connect 104 0 100 0;
#X connect 106 0 102 0;
#X connect 107 0 103 0;
#X connect 108 0 104 0;
#X connect 109 0 105 0;
#X connect 110 0 111 0;
#X connect 110 1 113 0;
#X connect 110 1 114 0;
#X connect 111 0 112 0;
#X connect 112 0 102 1;
#X connect 112 0 104 1;
#X connect 112 0 103 1;
#X connect 113 0 103 1;
#X connect 113 0 104 1;
#X connect 113 0 102 1;
#X connect 114 0 111 0;
#X connect 115 0 105 0;
#X connect 116 0 105 0;
#X connect 117 0 105 0;
#X connect 118 0 110 0;
#X connect 118 0 52 0;
#X connect 118 0 101 0;
#X connect 119 0 120 0;
#X connect 121 0 122 1;
#X connect 122 0 149 0;
#X connect 123 0 125 0;
#X connect 124 0 126 0;
#X connect 125 0 124 0;
#X connect 125 1 124 1;
#X connect 126 0 30 0;
#X connect 128 0 133 0;
#X connect 128 0 139 0;
#X connect 129 0 127 0;
#X connect 130 0 127 0;
#X connect 131 0 127 0;
#X connect 132 0 127 0;
#X connect 133 0 136 0;
#X connect 133 1 145 0;
#X connect 134 0 135 0;
#X connect 136 0 132 0;
#X connect 136 1 137 0;
#X connect 136 2 131 0;
#X connect 137 0 135 0;
#X connect 138 0 142 0;
#X connect 139 0 140 0;
#X connect 140 0 138 0;
#X connect 140 1 138 1;
#X connect 141 0 144 0;
#X connect 142 0 141 0;
#X connect 143 0 127 0;
#X connect 144 0 143 0;
#X connect 145 0 134 0;
#X connect 145 1 130 0;
#X connect 145 2 148 0;
#X connect 145 3 147 0;
#X connect 145 4 181 0;
#X connect 145 5 129 0;
#X connect 146 0 123 0;
#X connect 147 0 127 0;
#X connect 148 0 127 0;
#X connect 149 0 105 0;
#X connect 150 0 105 0;
#X connect 151 0 152 0;
#X connect 151 1 153 0;
#X connect 152 0 105 0;
#X connect 153 0 150 0;
#X connect 153 1 155 0;
#X connect 154 0 105 0;
#X connect 155 0 154 0;
#X connect 155 1 167 0;
#X connect 156 0 159 0;
#X connect 157 0 156 1;
#X connect 158 0 163 0;
#X connect 159 0 166 0;
#X connect 159 1 160 0;
#X connect 160 0 165 0;
#X connect 160 1 161 0;
#X connect 161 0 164 0;
#X connect 161 1 168 0;
#X connect 162 0 158 1;
#X connect 163 0 105 0;
#X connect 164 0 105 0;
#X connect 165 0 105 0;
#X connect 166 0 105 0;
#X connect 167 0 105 0;
#X connect 168 0 105 0;
#X connect 169 0 172 0;
#X connect 170 0 169 1;
#X connect 171 0 180 0;
#X connect 172 0 179 0;
#X connect 172 1 173 0;
#X connect 173 0 178 0;
#X connect 173 1 174 0;
#X connect 174 0 177 0;
#X connect 174 1 176 0;
#X connect 175 0 171 1;
#X connect 176 0 105 0;
#X connect 177 0 105 0;
#X connect 178 0 105 0;
#X connect 179 0 105 0;
#X connect 180 0 105 0;
#X connect 181 0 127 0;
