#N canvas 587 105 450 300 12;
#X obj 109 85 r beat_s_\$1-\$2;
#X obj 258 76 r beat_e_\$1-\$2;
#X obj 179 179 f \$1;
#X obj 154 249 tabwrite array-\$2;
#X obj 146 151 t f b;
#X obj 185 206 * 2;
#X obj 323 160 f \$1;
#X obj 290 132 t f b;
#X obj 329 187 * 2;
#X obj 325 237 + 1;
#X connect 0 0 4 0;
#X connect 1 0 7 0;
#X connect 2 0 5 0;
#X connect 4 0 3 0;
#X connect 4 1 2 0;
#X connect 5 0 3 1;
#X connect 6 0 8 0;
#X connect 7 0 3 0;
#X connect 7 1 6 0;
#X connect 8 0 9 0;
#X connect 9 0 3 1;
