#N canvas 0 23 1366 725 10;
#X obj 411 571 outlet~;
#X obj 216 41 inlet~;
#X obj 255 77 *~ 0.5;
#X obj 281 41 inlet~;
#X obj 485 571 outlet~;
#X obj 494 391 r volume-\$1;
#X obj 491 466 *~ 1;
#X obj 517 436 / 100;
#X obj 898 298 vline~;
#X floatatom 824 66 5 0 0 0 delay - -;
#X floatatom 960 50 5 0 0 0 delay_end - -;
#X floatatom 1109 120 5 0 0 0 beatlen - -;
#X obj 824 119 *;
#X obj 894 233 list append;
#X obj 861 205 list append;
#X obj 958 129 *;
#X obj 819 153 t f f;
#X text 752 205 play(loop);
#X obj 752 287 vline~;
#X obj 847 380 *~;
#X msg 737 254 0 5 \, 1 5 5;
#X msg 896 270 \$1 0 5 \, \$2 \$3 5;
#X msg 1358 296 1 0;
#X obj 232 286 delwrite~ vd-\$1 8000;
#X obj 892 329 delread4~ vd-\$1;
#X obj 516 78 r master-ticks;
#X floatatom 516 100 5 0 0 0 - - -;
#X obj 503 209 sel 0;
#X obj 492 279 timer;
#X floatatom 493 313 5 0 0 0 - - -;
#X obj 503 231 t b b;
#N canvas 0 22 450 278 (subpatch) 0;
#X array array-\$1 8 float 3;
#A 0 0 0 0 2 2 1 1 0;
#X coords 0 8 8 0 200 140 1 0 0;
#X restore 60 381 graph;
#X obj 625 141 + 1;
#X obj 620 73 float;
#X obj 675 172 % 4;
#X floatatom 652 234 5 0 0 0 - - -;
#X obj 501 183 % 24;
#X obj 636 322 t f f;
#X obj 643 291 * 2;
#X obj 668 369 + 1;
#X obj 673 438 tabread array-\$1;
#X obj 619 407 tabread array-\$1;
#X obj 826 85 int;
#X obj 960 91 int;
#X obj 1057 598 clone array_set 4 \$1;
#X obj 309 140 r feedback-\$1;
#X obj 274 229 *~ 0.5;
#X obj 1070 464 print;
#X obj 527 150 * 1;
#X obj 562 40 r beat_div-\$1;
#X obj 1125 59 / 1;
#X obj 292 186 / 100;
#X obj 1116 245 r del_div-\$1;
#X obj 275 260 lop~ 2000;
#X obj 419 146 nbx 5 14 -1e+37 1e+37 0 0 empty empty empty 0 -8 0 10
-262144 -1 -1 0 256;
#X obj 400 119 r lopass-\$1;
#X obj 130 192 *~ 0;
#X obj 175 197 *~ 0;
#X obj 73 146 / 100;
#X obj 50 101 r dry-\$1;
#X connect 1 0 2 0;
#X connect 1 0 56 0;
#X connect 2 0 23 0;
#X connect 3 0 2 0;
#X connect 3 0 57 0;
#X connect 5 0 7 0;
#X connect 6 0 4 0;
#X connect 6 0 0 0;
#X connect 7 0 6 1;
#X connect 8 0 24 0;
#X connect 9 0 42 0;
#X connect 10 0 43 0;
#X connect 11 0 12 1;
#X connect 11 0 15 1;
#X connect 12 0 16 0;
#X connect 13 0 21 0;
#X connect 14 0 13 0;
#X connect 15 0 14 1;
#X connect 16 0 14 0;
#X connect 18 0 19 0;
#X connect 19 0 6 0;
#X connect 19 0 46 0;
#X connect 20 0 18 0;
#X connect 21 0 8 0;
#X connect 21 0 20 0;
#X connect 21 0 47 0;
#X connect 24 0 19 1;
#X connect 25 0 26 0;
#X connect 26 0 48 0;
#X connect 27 0 30 0;
#X connect 27 0 33 0;
#X connect 28 0 29 0;
#X connect 29 0 13 1;
#X connect 29 0 50 0;
#X connect 30 0 28 0;
#X connect 30 1 28 1;
#X connect 32 0 34 0;
#X connect 33 0 32 0;
#X connect 34 0 33 1;
#X connect 34 0 35 0;
#X connect 35 0 38 0;
#X connect 36 0 27 0;
#X connect 37 0 41 0;
#X connect 37 1 39 0;
#X connect 38 0 37 0;
#X connect 39 0 40 0;
#X connect 40 0 10 0;
#X connect 41 0 9 0;
#X connect 42 0 12 0;
#X connect 43 0 15 0;
#X connect 45 0 51 0;
#X connect 46 0 53 0;
#X connect 48 0 36 0;
#X connect 49 0 48 1;
#X connect 50 0 11 0;
#X connect 51 0 46 1;
#X connect 52 0 50 1;
#X connect 53 0 23 0;
#X connect 54 0 53 1;
#X connect 55 0 54 0;
#X connect 56 0 0 0;
#X connect 57 0 4 0;
#X connect 58 0 56 1;
#X connect 58 0 57 1;
#X connect 59 0 58 0;
