#N canvas 4 50 1431 799 10;
#X obj 11 283 inlet~ inL-\$1;
#X obj 161 283 inlet~ inR-\$1;
#X obj 11 405 outlet~ outL-\$1;
#X obj 262 406 outlet~ outR-\$1;
#X obj 462 250 r liveness-\$1;
#X obj 613 314 r crossover_frequency-\$1;
#X obj 764 314 r hf_damping-\$1;
#X floatatom 764 332 5 0 0 0 - - -;
#X floatatom 613 332 5 0 0 0 - - -;
#X floatatom 462 332 5 0 0 0 - - -;
#X obj 11 377 +~;
#X obj 262 378 +~;
#X obj 312 313 r loadbang-\$1;
#X msg 312 331 100;
#X obj 11 331 *~ 0;
#X obj 161 331 *~ 0;
#X obj 115 283 / 100;
#X obj 115 265 r volume-\$1;
#X obj 467 314 s aux-led-\$1;
#X obj 139 569 s oscOutRaw;
#X msg 1294 555 /oled/gClear 3 1;
#X msg 139 541 /oled/gFlip 3 1;
#X obj 619 240 s rackMsgs;
#X obj 11 120 spigot;
#X obj 11 64 / 1023;
#X obj 11 156 symbol \$1;
#X obj 11 184 pack s 2;
#X obj 11 28 i;
#X obj 11 46 change -1;
#X obj 191 110 spigot;
#X obj 191 64 / 1023;
#X obj 191 146 symbol \$1;
#X obj 191 174 pack s 2;
#X obj 191 28 i;
#X obj 191 46 change -1;
#X obj 386 100 spigot;
#X obj 386 64 / 1023;
#X obj 386 136 symbol \$1;
#X obj 386 164 pack s 2;
#X obj 386 28 i;
#X obj 386 46 change -1;
#X obj 619 120 spigot;
#X obj 619 94 / 1023;
#X obj 619 156 symbol \$1;
#X obj 619 184 pack s 2;
#X obj 619 28 i;
#X obj 619 76 change -1;
#X obj 11 138 t b f, f 14;
#X obj 191 128 t b f, f 14;
#X obj 386 118 t b f, f 14;
#X obj 619 138 t b f, f 14;
#X obj 11 10 r oknob1Raw;
#X obj 191 10 r oknob2Raw;
#X obj 386 10 r oknob3Raw;
#X obj 619 10 r oknob4Raw;
#X msg 11 202 setparam \$1 volume \$2;
#X msg 191 192 setparam \$1 liveness \$2;
#X msg 619 202 setparam \$1 crossover_frequency \$2;
#X msg 386 182 setparam \$1 hf_damping \$2;
#X obj 924 541 r liveness-\$1;
#X obj 1149 109 sel \$1;
#X obj 1149 91 unpack s s;
#X obj 1149 73 r activePage;
#X obj 1182 155 &&;
#X msg 1206 127 1;
#X msg 1323 127 0;
#X msg 1149 127 1;
#X msg 1182 127 0;
#X obj 1142 293 tgl 15 0 empty empty empty 17 7 0 10 -262144 -1 -1
1 1;
#X msg 1142 247 1;
#X msg 1209 279 0;
#X msg 1262 271 /oled/gShowInfoBar 3 0;
#X msg 1262 233 /oled/gShowInfoBar 3 1;
#X obj 1142 219 delay 500;
#X obj 1206 109 sel pg_reverberation;
#X obj 1101 611 i;
#X obj 909 625 i;
#X obj 909 589 f;
#X obj 939 579 / 100;
#X obj 1101 593 *;
#X obj 139 405 +~;
#X obj 139 505 spigot 0;
#X obj 139 469 *;
#X msg 1101 647 /oled/gFilledCircle 3 63 32 \$1 1;
#X msg 909 663 /oled/gCircle 3 63 32 \$1 1;
#X obj 139 423 env~ 4352 2176;
#X obj 139 441 / 18;
#X obj 467 268 sel 100;
#X msg 467 286 1;
#X msg 506 286 0;
#X obj 11 349 rev3~ 100 0 3000 0, f 126;
#X obj 524 711 i;
#X obj 524 579 f;
#X obj 539 541 r hf_damping-\$1;
#X obj 524 637 * -1;
#X obj 524 655 + 100;
#X msg 524 729 /oled/gInvertArea 3 123 \$1 5 5;
#X obj 524 693 / 1.69;
#X obj 716 701 i;
#X obj 716 579 f;
#X obj 716 597 * -1;
#X obj 716 665 + 100;
#X obj 716 683 / 1.69;
#X obj 731 541 r volume-\$1;
#X msg 716 719 /oled/gInvertArea 3 0 \$1 5 5;
#X obj 331 759 i;
#X obj 331 669 f;
#X obj 346 541 r crossover_frequency-\$1;
#X msg 331 777 /oled/gInvertArea 3 \$1 59 5 5;
#X obj 139 523 t b b b b b f b, f 193;
#X obj 331 723 * 113;
#X obj 331 741 + 5;
#X obj 1101 629 min 31;
#X obj 331 705 / 6500;
#X obj 331 687 - 500;
#X obj 1182 191 sel 1;
#X msg 1262 205 stop;
#X obj 909 607 * 1.91;
#X obj 1182 173 change;
#X msg 1262 309 /oled/gFillArea 3 0 50 128 14 0;
#X connect 0 0 14 0;
#X connect 1 0 15 0;
#X connect 4 0 9 0;
#X connect 4 0 87 0;
#X connect 5 0 8 0;
#X connect 6 0 7 0;
#X connect 7 0 90 5;
#X connect 8 0 90 4;
#X connect 9 0 90 3;
#X connect 10 0 2 0;
#X connect 10 0 80 0;
#X connect 11 0 3 0;
#X connect 11 0 80 1;
#X connect 12 0 13 0;
#X connect 13 0 90 2;
#X connect 14 0 90 0;
#X connect 15 0 90 1;
#X connect 16 0 15 1;
#X connect 16 0 14 1;
#X connect 17 0 16 0;
#X connect 20 0 19 0;
#X connect 21 0 19 0;
#X connect 23 0 47 0;
#X connect 24 0 23 0;
#X connect 25 0 26 0;
#X connect 26 0 55 0;
#X connect 27 0 28 0;
#X connect 28 0 24 0;
#X connect 29 0 48 0;
#X connect 30 0 29 0;
#X connect 31 0 32 0;
#X connect 32 0 56 0;
#X connect 33 0 34 0;
#X connect 34 0 30 0;
#X connect 35 0 49 0;
#X connect 36 0 35 0;
#X connect 37 0 38 0;
#X connect 38 0 58 0;
#X connect 39 0 40 0;
#X connect 40 0 36 0;
#X connect 41 0 50 0;
#X connect 42 0 41 0;
#X connect 43 0 44 0;
#X connect 44 0 57 0;
#X connect 45 0 46 0;
#X connect 46 0 42 0;
#X connect 47 0 25 0;
#X connect 47 1 26 1;
#X connect 48 0 31 0;
#X connect 48 1 32 1;
#X connect 49 0 37 0;
#X connect 49 1 38 1;
#X connect 50 0 43 0;
#X connect 50 1 44 1;
#X connect 51 0 27 0;
#X connect 52 0 33 0;
#X connect 53 0 39 0;
#X connect 54 0 45 0;
#X connect 55 0 22 0;
#X connect 56 0 22 0;
#X connect 57 0 22 0;
#X connect 58 0 22 0;
#X connect 59 0 77 1;
#X connect 59 0 78 0;
#X connect 60 0 66 0;
#X connect 60 1 67 0;
#X connect 61 0 60 0;
#X connect 61 1 74 0;
#X connect 62 0 61 0;
#X connect 63 0 118 0;
#X connect 64 0 63 1;
#X connect 65 0 63 1;
#X connect 66 0 63 0;
#X connect 67 0 63 0;
#X connect 68 0 81 1;
#X connect 68 0 41 1;
#X connect 68 0 23 1;
#X connect 68 0 29 1;
#X connect 68 0 35 1;
#X connect 69 0 68 0;
#X connect 70 0 68 0;
#X connect 71 0 19 0;
#X connect 72 0 19 0;
#X connect 73 0 69 0;
#X connect 73 0 71 0;
#X connect 74 0 64 0;
#X connect 74 1 65 0;
#X connect 75 0 112 0;
#X connect 76 0 84 0;
#X connect 77 0 117 0;
#X connect 78 0 79 1;
#X connect 79 0 75 0;
#X connect 80 0 85 0;
#X connect 81 0 109 0;
#X connect 82 0 81 0;
#X connect 83 0 19 0;
#X connect 84 0 19 0;
#X connect 85 0 86 0;
#X connect 86 0 82 0;
#X connect 86 0 82 1;
#X connect 87 0 88 0;
#X connect 87 1 89 0;
#X connect 88 0 18 0;
#X connect 89 0 18 0;
#X connect 90 0 10 0;
#X connect 90 1 11 0;
#X connect 90 2 10 1;
#X connect 90 3 11 1;
#X connect 91 0 96 0;
#X connect 92 0 94 0;
#X connect 93 0 92 1;
#X connect 94 0 95 0;
#X connect 95 0 97 0;
#X connect 96 0 19 0;
#X connect 97 0 91 0;
#X connect 98 0 104 0;
#X connect 99 0 100 0;
#X connect 100 0 101 0;
#X connect 101 0 102 0;
#X connect 102 0 98 0;
#X connect 103 0 99 1;
#X connect 104 0 19 0;
#X connect 105 0 108 0;
#X connect 106 0 114 0;
#X connect 107 0 106 1;
#X connect 108 0 19 0;
#X connect 109 0 21 0;
#X connect 109 1 106 0;
#X connect 109 2 92 0;
#X connect 109 3 99 0;
#X connect 109 4 77 0;
#X connect 109 5 79 0;
#X connect 109 6 20 0;
#X connect 110 0 111 0;
#X connect 111 0 105 0;
#X connect 112 0 83 0;
#X connect 113 0 110 0;
#X connect 114 0 113 0;
#X connect 115 0 73 0;
#X connect 115 1 70 0;
#X connect 115 1 72 0;
#X connect 115 1 116 0;
#X connect 115 1 119 0;
#X connect 116 0 73 0;
#X connect 117 0 76 0;
#X connect 118 0 115 0;
#X connect 119 0 19 0;
