#N canvas 0 0 1366 725 10;
#X obj 133 358 *~ 0;
#X obj 368 350 *~ 0;
#X obj 132 275 +~ 1;
#X obj 129 304 *~ 0.5;
#X obj 392 244 expr~ ($v1>0.5);
#X obj 304 360 *~ 0;
#X obj 822 296 t f f;
#X obj 863 391 noise~;
#X obj 907 526 fexpr~ $x1[0]+ $y1[-1]*0.999;
#X obj 891 465 *~ 1;
#X obj 899 250 hsl 128 15 0.01 10 1 0 empty empty empty -2 -8 0 10
#fcfcfc #000000 #000000 0 1;
#X obj 928 336 nbx 5 14 -1e+37 1e+37 0 0 empty empty empty 0 -8 0 10
#fcfcfc #000000 #000000 0 256;
#X obj 903 500 fexpr~ $x1[0]+ $y1[-1]*$f2;
#X obj 1017 423 nbx 5 14 -1e+37 1e+37 0 0 empty empty empty 0 -8 0
10 #fcfcfc #000000 #000000 0 256;
#X obj 1017 372 + 1;
#X obj 1021 352 / -1000;
#X obj 866 430 lop~ 1;
#X obj 826 81 hsl 128 15 1 4 0 0 empty empty empty -2 -8 0 10 #fcfcfc
#000000 #000000 0 1;
#X obj 751 231 nbx 9 14 -1e+37 1e+37 0 0 empty empty empty 0 -8 0 10
#fcfcfc #000000 #000000 0 256;
#X obj 784 209 / 1000;
#X obj 824 173 pow 1;
#X obj 851 116 t b f;
#X msg 843 140 10;
#X text 922 37 1-4;
#X obj 933 558 /~ 4500;
#X obj 201 257 abs~;
#X obj 160 166 -~ 0.5;
#X obj 232 356 *~ 0;
#X obj 219 320 *~ 2;
#X obj 1026 48 / 5;
#X obj 777 72 + 1;
#X obj 913 604 expr~ 0.5*(sin($v1)+1);
#X obj 596 361 *~ 0;
#X obj 672 105 t f f;
#X msg 626 127 0;
#X obj 510 193 +~ 1;
#X obj 508 224 /~ 2;
#X obj 503 275 samphold~;
#X obj 476 369 *~ 0;
#X obj 102 96 osc~ 1;
#X obj 221 90 phasor~ 1;
#X obj 622 197 sel 0 1 2 3 4 5 6;
#X msg 628 256 1, f 1;
#X msg 645 256 1, f 1;
#X msg 664 257 1, f 1;
#X msg 681 257 1, f 1;
#X msg 703 261 1, f 1;
#X msg 720 261 1, f 1;
#X obj 319 552 -~ 0.5;
#X obj 326 659 outlet~;
#X obj 241 27 hsl 128 15 0 10 0 0 empty empty empty -2 -8 0 10 #fcfcfc
#000000 #000000 0 1;
#X obj 350 599 *~ 2;
#X obj 446 22 inlet;
#X msg 367 156 0;
#X obj 436 144 spigot 0;
#X obj 436 85 change -1;
#X obj 433 117 sel 1;
#X obj 445 53 > 0;
#X obj 335 50 r master-ticks;
#X obj 337 82 sel 0;
#X obj 336 116 spigot 0;
#X obj 512 51 sel 0 1 2;
#X msg 516 110 0;
#X msg 526 120 1;
#X msg 389 87 0;
#X msg 399 97 1;
#X obj 557 547 sel 0 1 2;
#X msg 487 574 Sync Off;
#X msg 554 590 Note Sync;
#X msg 638 606 BPM Sync;
#X obj 630 165 s lfolabel-\$1;
#X obj 591 680 s lfo_sync-label;
#X obj 31 141 loadbang;
#X msg 42 234 2;
#X obj 107 29 r lfospeed;
#X msg 29 200 0;
#X obj 506 23 r lfosync;
#X obj 662 63 r lfotype;
#X obj 577 498 r lfosync;
#X connect 0 0 48 0;
#X connect 1 0 48 0;
#X connect 2 0 3 0;
#X connect 3 0 0 0;
#X connect 4 0 1 0;
#X connect 5 0 48 0;
#X connect 7 0 16 0;
#X connect 7 0 35 0;
#X connect 8 0 24 0;
#X connect 9 0 12 0;
#X connect 10 0 11 0;
#X connect 11 0 9 1;
#X connect 11 0 15 0;
#X connect 12 0 8 0;
#X connect 13 0 12 1;
#X connect 14 0 13 0;
#X connect 15 0 14 0;
#X connect 16 0 9 0;
#X connect 17 0 21 0;
#X connect 18 0 11 0;
#X connect 19 0 18 0;
#X connect 20 0 19 0;
#X connect 21 0 22 0;
#X connect 21 1 20 1;
#X connect 22 0 20 0;
#X connect 24 0 31 0;
#X connect 25 0 28 0;
#X connect 26 0 25 0;
#X connect 27 0 48 0;
#X connect 28 0 27 0;
#X connect 29 0 30 0;
#X connect 30 0 17 0;
#X connect 31 0 32 0;
#X connect 32 0 48 0;
#X connect 33 0 41 0;
#X connect 33 0 70 0;
#X connect 33 1 34 0;
#X connect 34 0 32 1;
#X connect 34 0 38 1;
#X connect 34 0 27 1;
#X connect 34 0 5 1;
#X connect 34 0 1 1;
#X connect 34 0 0 1;
#X connect 35 0 36 0;
#X connect 36 0 37 0;
#X connect 37 0 38 0;
#X connect 38 0 48 0;
#X connect 39 0 2 0;
#X connect 40 0 4 0;
#X connect 40 0 5 0;
#X connect 40 0 26 0;
#X connect 40 0 37 1;
#X connect 41 0 42 0;
#X connect 41 1 43 0;
#X connect 41 2 44 0;
#X connect 41 3 45 0;
#X connect 41 4 46 0;
#X connect 41 5 47 0;
#X connect 42 0 0 1;
#X connect 43 0 27 1;
#X connect 44 0 5 1;
#X connect 45 0 1 1;
#X connect 46 0 38 1;
#X connect 47 0 32 1;
#X connect 48 0 51 0;
#X connect 50 0 40 0;
#X connect 50 0 39 0;
#X connect 50 0 29 0;
#X connect 51 0 49 0;
#X connect 52 0 57 0;
#X connect 53 0 40 1;
#X connect 53 0 39 1;
#X connect 54 0 53 0;
#X connect 55 0 56 0;
#X connect 56 0 54 0;
#X connect 57 0 55 0;
#X connect 58 0 59 0;
#X connect 59 0 60 0;
#X connect 60 0 53 0;
#X connect 61 0 64 0;
#X connect 61 0 62 0;
#X connect 61 1 64 0;
#X connect 61 1 63 0;
#X connect 61 2 65 0;
#X connect 61 2 62 0;
#X connect 62 0 54 1;
#X connect 63 0 54 1;
#X connect 64 0 60 1;
#X connect 65 0 60 1;
#X connect 66 0 67 0;
#X connect 66 1 68 0;
#X connect 66 2 69 0;
#X connect 67 0 71 0;
#X connect 68 0 71 0;
#X connect 69 0 71 0;
#X connect 72 0 75 0;
#X connect 73 0 39 0;
#X connect 74 0 29 0;
#X connect 74 0 39 0;
#X connect 74 0 40 0;
#X connect 75 0 61 0;
#X connect 75 0 33 0;
#X connect 75 0 66 0;
#X connect 76 0 61 0;
#X connect 77 0 33 0;
#X connect 78 0 66 0;
