#N canvas 0 39 1366 725 10;
#X obj 304 248 sig~;
#X text 352 43 note messages;
#X text 426 225 knob 1 controls overall pitch;
#X obj 726 638 f;
#X obj 726 596 bng 15 250 50 0 empty empty empty 17 7 0 10 -262144
-1 -1;
#X obj 726 703 line~;
#X msg 726 674 0 \$1;
#X obj 304 96 unpack;
#X obj 393 98 sel 0;
#X text 437 99 selects note off messages so we can set decay time later
;
#X text 482 171 convert it to signal so frequency will be constantly
updated;
#X obj 304 44 inlet;
#X obj 317 864 outlet~;
#X text 764 641 decay time;
#X text 25 10 synth voice with waveform change;
#X obj 661 770 *~;
#X obj 315 834 *~;
#X obj 428 478 -~ 1;
#X obj 428 500 abs~;
#X obj 427 544 *~;
#X obj 426 632 *~;
#X obj 428 423 /~ 5000;
#X obj 427 448 clip~ 0 5000;
#X text 491 411 sorta arbitrary scale of harmonic content amount to
avoid aliasing... assumes 44.1k sampling rate .....;
#X obj 505 568 *~ 0.8;
#X obj 306 230 * 1;
#X obj 234 450 lop~ 100;
#X obj 767 593 r decay-\$1;
#X obj 510 495 r~ tonesmooth-\$1;
#X obj 304 187 +;
#X obj 322 162 r trans-\$1;
#X obj 388 694 s_buzz \$1;
#X obj 883 539 / 128;
#X obj 886 563 * 0.5;
#X obj 894 594 + 0.5;
#X obj 305 207 mtof;
#X obj 429 587 *~;
#X obj 329 542 +~ 1;
#X obj 295 586 *~;
#X obj 329 520 r~ vib-\$1;
#X obj 940 690 list 0;
#X obj 950 616 r attack-\$1;
#X obj 1072 635 f;
#X obj 1072 593 bng 15 250 50 0 empty empty empty 17 7 0 10 -262144
-1 -1;
#X obj 1072 700 line~;
#X msg 1072 671 0 \$1;
#X text 1110 638 decay time;
#X obj 1113 590 r decay-\$1;
#X obj 1286 687 list 0;
#X obj 1296 613 r attack-\$1;
#X connect 0 0 21 0;
#X connect 0 0 26 0;
#X connect 3 0 6 0;
#X connect 4 0 3 0;
#X connect 4 0 43 0;
#X connect 5 0 15 1;
#X connect 5 0 15 0;
#X connect 6 0 5 0;
#X connect 7 0 29 0;
#X connect 7 1 8 0;
#X connect 8 0 4 0;
#X connect 8 1 32 0;
#X connect 11 0 7 0;
#X connect 15 0 16 1;
#X connect 16 0 12 0;
#X connect 17 0 18 0;
#X connect 18 0 19 1;
#X connect 18 0 19 0;
#X connect 19 0 36 0;
#X connect 20 0 31 1;
#X connect 21 0 22 0;
#X connect 22 0 17 0;
#X connect 24 0 20 1;
#X connect 25 0 0 0;
#X connect 26 0 38 0;
#X connect 27 0 3 1;
#X connect 28 0 24 0;
#X connect 29 0 35 0;
#X connect 30 0 29 1;
#X connect 31 0 16 0;
#X connect 32 0 33 0;
#X connect 32 0 48 0;
#X connect 33 0 34 0;
#X connect 34 0 40 0;
#X connect 35 0 25 0;
#X connect 36 0 20 0;
#X connect 37 0 38 1;
#X connect 38 0 31 0;
#X connect 39 0 37 0;
#X connect 40 0 5 0;
#X connect 41 0 40 1;
#X connect 42 0 45 0;
#X connect 43 0 42 0;
#X connect 44 0 36 1;
#X connect 45 0 44 0;
#X connect 47 0 42 1;
#X connect 48 0 44 0;
#X connect 49 0 48 1;
