#N canvas 1120 92 1440 726 10;
#X obj 304 186 r notesIn-\$1;
#X obj 304 491 s notesOut-\$1;
#X obj 585 63 r loadbang-\$1;
#X obj 24 185 inlet~ inL-\$1;
#X obj 135 186 inlet~ inR-\$1;
#X obj 24 428 outlet~ outL-\$1;
#X obj 134 427 outlet~ outR-\$1;
#X obj 498 209 r expIn-\$1;
#X obj 498 234 r fsIn-\$1;
#X obj 586 90 int 0;
#X obj 586 185 s aux-led-\$1;
#X obj 398 186 r ctrlIn-\$1;
#X obj 398 491 s ctrlOut-\$1;
#X obj 239 160 r freq-\$1;
#X obj 412 243 r dw-\$1;
#X obj 596 350 osc~;
#X obj 592 273 r lfofreq-\$1;
#X obj 588 433 *~;
#X obj 709 300 r lfoamount-\$1;
#X obj 587 463 clip~ 0 20000;
#X obj 655 400 sig~;
#X obj 596 301 sig~;
#X obj 135 337 freqshift;
#X obj 24 341 freqshift;
#X obj 592 380 *~ 0.5;
#X obj 584 411 +~ 0.5;
#X obj 232 193 * 20;
#X obj 705 358 * 20;
#X connect 0 0 1 0;
#X connect 2 0 9 0;
#X connect 3 0 23 0;
#X connect 4 0 22 0;
#X connect 9 0 10 0;
#X connect 11 0 12 0;
#X connect 13 0 26 0;
#X connect 14 0 22 3;
#X connect 14 0 23 3;
#X connect 15 0 24 0;
#X connect 16 0 21 0;
#X connect 17 0 19 0;
#X connect 18 0 27 0;
#X connect 19 0 22 2;
#X connect 19 0 23 2;
#X connect 20 0 17 1;
#X connect 21 0 15 0;
#X connect 22 0 6 0;
#X connect 23 0 5 0;
#X connect 24 0 25 0;
#X connect 25 0 17 0;
#X connect 26 0 22 1;
#X connect 26 0 23 1;
#X connect 27 0 20 0;
