#N canvas 120 19 1370 729 10;
#X obj 304 186 r notesIn-\$1;
#X obj 304 601 s notesOut-\$1;
#X obj 25 186 inlet~ inL-\$1;
#X obj 135 186 inlet~ inR-\$1;
#X obj 27 601 outlet~ outL-\$1;
#X obj 136 601 outlet~ outR-\$1;
#X obj 424 185 r auxIn-\$1;
#X obj 423 208 r expIn-\$1;
#X obj 423 233 r fsIn-\$1;
#X obj 504 185 r ctrlIn-\$1;
#X obj 504 600 s ctrlOut-\$1;
#X obj 670 600 s rackMsgs;
#X obj 438 441 random_p p1 \$1;
#X obj 552 441 random_p p2 \$1;
#X obj 665 441 random_p p3 \$1;
#X obj 780 441 random_p p4 \$1;
#X obj 724 191 beatdiv;
#X obj 673 279 sel 0;
#X obj 701 216 f 0;
#X obj 741 256 mod 1;
#X obj 676 180 bng 15 250 50 0 empty empty empty 17 7 0 10 -262144
-1 -1;
#X obj 678 253 nbx 5 14 -1e+037 1e+037 0 0 empty empty empty 0 -8 0
10 -262144 -1 -1 0 256;
#X obj 768 230 nbx 5 14 -1e+037 1e+037 0 0 empty empty empty 0 -8 0
10 -262144 -1 -1 0 256;
#X obj 740 238 + 1;
#X obj 755 162 r r_div-\$1;
#X obj 769 208 r r_mul-\$1;
#X obj 704 64 r master-ticks;
#X connect 12 0 10 0;
#X connect 12 1 11 0;
#X connect 13 0 10 0;
#X connect 13 1 11 0;
#X connect 14 0 10 0;
#X connect 14 1 11 0;
#X connect 15 0 10 0;
#X connect 15 1 11 0;
#X connect 16 0 18 0;
#X connect 17 0 12 0;
#X connect 17 0 13 0;
#X connect 17 0 14 0;
#X connect 17 0 15 0;
#X connect 18 0 21 0;
#X connect 19 0 18 1;
#X connect 20 0 18 0;
#X connect 21 0 17 0;
#X connect 21 0 23 0;
#X connect 22 0 19 1;
#X connect 23 0 19 0;
#X connect 24 0 16 1;
#X connect 25 0 22 0;
#X connect 26 0 16 0;
