#N canvas 80 1 1370 729 10;
#X obj 496 109 / 100;
#X obj 379 616 outlet msg;
#X obj 215 616 outlet ctrl;
#X obj 377 88 / 100;
#X obj 215 500 pack 0 0;
#X obj 296 500 < 10;
#X obj 215 560 spigot 0;
#X obj 424 517 != 1;
#X obj 379 560 spigot 0;
#X obj 378 488 pack s 0 0;
#X obj 377 423 t b f;
#X msg 379 587 modulate \$1 \$2 \$3;
#X obj 378 455 symbol \$2;
#X obj 161 68 inlet;
#X obj 209 333 r r_bus_\$1-\$2;
#X obj 485 304 r r_on_\$1-\$2;
#X obj 392 372 spigot 0;
#X obj 377 67 r r_min_\$1-\$2;
#X obj 496 71 r r_max_\$1-\$2;
#X obj 226 194 random 1000;
#X obj 244 231 / 1000;
#X obj 408 217 -;
#X obj 380 138 t b f;
#X obj 352 267 *;
#X obj 397 301 +;
#X connect 0 0 21 0;
#X connect 3 0 22 0;
#X connect 4 0 6 0;
#X connect 5 0 6 1;
#X connect 5 0 7 0;
#X connect 6 0 2 0;
#X connect 7 0 8 1;
#X connect 8 0 11 0;
#X connect 9 0 8 0;
#X connect 10 0 4 0;
#X connect 10 0 12 0;
#X connect 10 1 9 2;
#X connect 10 1 4 1;
#X connect 11 0 1 0;
#X connect 12 0 9 0;
#X connect 13 0 19 0;
#X connect 14 0 4 0;
#X connect 14 0 5 0;
#X connect 14 0 9 1;
#X connect 15 0 16 1;
#X connect 16 0 10 0;
#X connect 17 0 3 0;
#X connect 18 0 0 0;
#X connect 19 0 20 0;
#X connect 20 0 23 0;
#X connect 21 0 23 1;
#X connect 22 0 21 0;
#X connect 22 1 21 1;
#X connect 22 1 24 1;
#X connect 23 0 24 0;
#X connect 24 0 16 0;
