#N canvas -8 -8 1366 725 10;
#X obj 40 107 inlet;
#X obj 102 462 outlet;
#X obj 203 59 inlet;
#X obj 132 123 spigot 0;
#X obj 388 144 sel 0;
#X obj 110 410 clip 0 1;
#X msg 402 173 1;
#X obj 154 170 *;
#X obj 394 12 hsl 128 15 -1 1 0 0 empty empty empty -2 -8 0 10 -262144
-1 -1 0 1;
#X obj 80 283 * 1;
#X obj 107 238 t b f;
#X obj 121 50 hsl 128 15 0 1 0 0 empty empty empty -2 -8 0 10 -262144
-1 -1 0 1;
#X obj 295 38 nbx 5 14 -1e+037 1e+037 0 0 empty empty empty 0 -8 0
10 -262144 -1 -1 0 256;
#X obj 148 190 * -1;
#X obj 125 209 + 1;
#X obj 283 127 * -1;
#X obj 283 155 + 1;
#X obj 277 104 spigot 1;
#X obj 183 96 > 0;
#X obj 351 76 < 0;
#X obj 184 145 abs;
#X obj 296 55 f;
#X obj 287 5 inlet;
#X obj 106 347 * 1;
#X obj 681 250 inlet;
#X obj 677 287 spigot 0;
#X obj 933 308 sel 0;
#X msg 947 337 1;
#X obj 699 334 *;
#X obj 939 176 hsl 128 15 -1 1 0 0 empty empty empty -2 -8 0 10 -262144
-1 -1 0 1;
#X obj 477 149 t b f;
#X obj 666 214 hsl 128 15 0 1 0 0 empty empty empty -2 -8 0 10 -262144
-1 -1 0 1;
#X obj 840 202 nbx 5 14 -1e+037 1e+037 0 0 empty empty empty 0 -8 0
10 -262144 -1 -1 0 256;
#X obj 693 354 * -1;
#X obj 690 386 + 1;
#X obj 828 291 * -1;
#X obj 828 319 + 1;
#X obj 822 268 spigot 1;
#X obj 728 260 > 0;
#X obj 896 240 < 0;
#X obj 729 309 abs;
#X obj 841 219 f;
#X obj 828 114 inlet;
#X obj 29 203 nbx 5 14 -1e+037 1e+037 0 0 empty empty empty 0 -8 0
10 -262144 -1 -1 0 256;
#X obj 323 15 * -1;
#X obj 833 169 * -1;
#X obj 378 289 spigot 1;
#X obj 458 230 == 0;
#X connect 0 0 9 0;
#X connect 2 0 3 0;
#X connect 2 0 17 0;
#X connect 3 0 7 0;
#X connect 4 0 6 0;
#X connect 5 0 1 0;
#X connect 6 0 9 1;
#X connect 7 0 13 0;
#X connect 8 0 12 0;
#X connect 9 0 23 0;
#X connect 10 0 9 0;
#X connect 10 1 9 1;
#X connect 11 0 3 0;
#X connect 11 0 17 0;
#X connect 12 0 21 0;
#X connect 13 0 14 0;
#X connect 14 0 10 0;
#X connect 15 0 16 0;
#X connect 16 0 7 0;
#X connect 17 0 15 0;
#X connect 18 0 3 1;
#X connect 19 0 17 1;
#X connect 20 0 7 1;
#X connect 21 0 4 0;
#X connect 21 0 20 0;
#X connect 21 0 19 0;
#X connect 21 0 18 0;
#X connect 22 0 44 0;
#X connect 22 0 47 0;
#X connect 23 0 5 0;
#X connect 24 0 25 0;
#X connect 24 0 37 0;
#X connect 25 0 28 0;
#X connect 26 0 27 0;
#X connect 27 0 23 1;
#X connect 28 0 33 0;
#X connect 29 0 32 0;
#X connect 30 0 46 0;
#X connect 30 1 23 1;
#X connect 31 0 25 0;
#X connect 31 0 37 0;
#X connect 32 0 41 0;
#X connect 33 0 34 0;
#X connect 34 0 30 0;
#X connect 35 0 36 0;
#X connect 36 0 28 0;
#X connect 37 0 35 0;
#X connect 38 0 25 1;
#X connect 39 0 37 1;
#X connect 40 0 28 1;
#X connect 41 0 26 0;
#X connect 41 0 40 0;
#X connect 41 0 39 0;
#X connect 41 0 38 0;
#X connect 42 0 45 0;
#X connect 43 0 9 0;
#X connect 44 0 12 0;
#X connect 45 0 32 0;
#X connect 46 0 23 0;
#X connect 47 0 46 1;
