#N canvas 0 56 1351 719 10;
#X obj 272 14 inlet;
#X obj 503 682 outlet~;
#X obj 789 583 +~ 1;
#X obj 516 647 *~;
#X obj 805 543 *~ 0.1;
#X obj 302 95 + 0;
#X obj 331 42 r transpose-\$1;
#X obj 627 543 env/env_parabolic \$1;
#X obj 588 455 env/env_parabolic f-\$1;
#X obj 470 463 *~ 1;
#X obj 632 408 > 0;
#X obj 481 -1 inlet;
#X obj 580 84 lfo/lfo \$1;
#X obj 580 129 +~;
#N canvas 0 23 1151 774 filter 0;
#X obj 631 295 *~;
#X obj 321 380 *~ 1;
#X obj 756 248 * -1;
#X obj 755 273 + 1;
#X obj 428 438 r filt_q-\$1;
#X obj 724 190 r envfilt-\$1;
#X obj 689 264 +~ 1;
#X obj 672 238 *~ 0;
#X obj 530 336 r~ filt_cuttoff_sig-\$1;
#X obj 476 381 *~;
#X obj 835 188 r fmod_depth-\$1;
#X obj 941 273 sig~ 1;
#X obj 831 253 *~ 0;
#X obj 703 320 *~;
#X obj 344 449 moog~;
#X obj 429 405 *~ 5;
#X obj 313 185 inlet~;
#X obj 425 193 inlet~;
#X obj 812 137 inlet~;
#X obj 343 517 outlet~;
#X floatatom 394 302 5 0 0 0 - - -;
#X obj 957 153 inlet~;
#X obj 863 228 / 10;
#X connect 0 0 13 0;
#X connect 1 0 14 0;
#X connect 2 0 3 0;
#X connect 3 0 6 1;
#X connect 4 0 14 2;
#X connect 5 0 2 0;
#X connect 5 0 7 1;
#X connect 6 0 0 0;
#X connect 7 0 6 0;
#X connect 8 0 9 1;
#X connect 9 0 15 0;
#X connect 10 0 22 0;
#X connect 11 0 13 1;
#X connect 12 0 13 1;
#X connect 13 0 9 0;
#X connect 14 0 19 0;
#X connect 15 0 14 1;
#X connect 16 0 1 0;
#X connect 17 0 7 0;
#X connect 18 0 12 0;
#X connect 20 0 14 2;
#X connect 21 0 0 1;
#X connect 22 0 12 1;
#X restore 538 504 pd filter;
#X obj 525 581 *~;
#N canvas 0 23 955 690 osc1 0;
#X obj 615 149 nbx 5 14 -1e+37 1e+37 0 0 empty empty empty 0 -8 0 10
-262144 -1 -1 0 256;
#X obj 374 103 / 100;
#X obj 590 233 *~ 0.001;
#X obj 568 258 *~;
#X obj 439 326 *~ 1;
#X obj 530 55 inlet~;
#X obj 685 70 inlet~;
#X obj 445 431 outlet~;
#X obj 381 78 r osc1_tune-\$1;
#X obj 600 120 r osc1_lfo-\$1;
#X obj 455 369 bp-voice osc1-\$1;
#X obj 764 49 r osc1_fm-\$1;
#X floatatom 909 149 5 0 0 0 - - -;
#X obj 765 81 t f f;
#X obj 786 124 *;
#X obj 699 115 lop~ 5000;
#X floatatom 660 223 5 0 0 0 - - -;
#X obj 561 182 expr ($f1*$f1)/($f1/abs($f1))/100;
#X obj 879 61 inlet~;
#X obj 358 131 +~ 0;
#X obj 340 161 mtof~;
#X obj 761 229 *~ 0;
#X obj 323 15 inlet~;
#X obj 726 277 *~;
#X obj 806 155 / 2;
#X connect 0 0 17 0;
#X connect 1 0 19 1;
#X connect 2 0 3 1;
#X connect 3 0 4 0;
#X connect 4 0 10 0;
#X connect 5 0 3 0;
#X connect 6 0 15 0;
#X connect 8 0 1 0;
#X connect 9 0 0 0;
#X connect 10 0 7 0;
#X connect 11 0 12 0;
#X connect 11 0 13 0;
#X connect 13 0 14 0;
#X connect 13 1 14 1;
#X connect 14 0 24 0;
#X connect 15 0 23 0;
#X connect 17 0 16 0;
#X connect 17 0 2 1;
#X connect 18 0 10 1;
#X connect 19 0 20 0;
#X connect 20 0 2 0;
#X connect 20 0 4 0;
#X connect 20 0 21 0;
#X connect 21 0 23 1;
#X connect 22 0 19 0;
#X connect 23 0 4 0;
#X connect 24 0 21 1;
#X restore 372 354 pd osc1;
#X obj 437 49 sel 0;
#N canvas 0 23 955 690 osc2 0;
#X obj 615 149 nbx 5 14 -1e+37 1e+37 0 0 empty empty empty 0 -8 0 10
-262144 -1 -1 0 256;
#X obj 374 103 / 100;
#X obj 601 221 *~ 0.001;
#X obj 568 258 *~;
#X obj 439 326 *~ 1;
#X obj 530 55 inlet~;
#X obj 445 431 outlet~;
#X obj 378 65 r osc2_tune-\$1;
#X obj 600 120 r osc2_lfo-\$1;
#X obj 374 31 r osc2_coarse-\$1;
#X obj 455 369 bp-voice osc2-\$1;
#X obj 624 181 expr ($f1*$f1)/($f1/abs($f1))/100;
#X obj 728 101 inlet~;
#X obj 320 60 +~ 0;
#X obj 323 15 inlet~;
#X obj 358 131 +~ 0;
#X obj 340 161 mtof~;
#X connect 0 0 11 0;
#X connect 1 0 15 1;
#X connect 2 0 3 1;
#X connect 3 0 4 0;
#X connect 4 0 10 0;
#X connect 5 0 3 0;
#X connect 7 0 1 0;
#X connect 8 0 0 0;
#X connect 9 0 13 1;
#X connect 10 0 6 0;
#X connect 11 0 2 1;
#X connect 12 0 10 1;
#X connect 13 0 15 0;
#X connect 14 0 13 0;
#X connect 15 0 16 0;
#X connect 16 0 2 0;
#X connect 16 0 4 0;
#X restore 420 331 pd osc2;
#N canvas 0 23 703 492 mix 0;
#N canvas 0 23 450 300 noise 0;
#X obj 233 53 r noise-\$1;
#X obj 197 155 *~ 0;
#X obj 166 91 noise~;
#X obj 236 104 t f f;
#X obj 234 125 *;
#X obj 192 195 outlet~;
#X obj 242 79 + 0;
#X connect 0 0 6 0;
#X connect 1 0 5 0;
#X connect 2 0 1 0;
#X connect 3 0 4 0;
#X connect 3 1 4 1;
#X connect 4 0 1 1;
#X connect 6 0 3 0;
#X restore 245 73 pd noise;
#X obj 67 79 inlet~;
#X obj 119 87 inlet~;
#X obj 136 263 outlet~;
#X obj 235 190 *~;
#X obj 316 170 r ring_mix-\$1;
#X obj 238 237 *~ 0;
#X obj 92 224 *~ 0;
#X obj 19 208 *~ 1;
#X obj 49 167 r osc1_mix-\$1;
#X obj 122 183 r osc2_mix-\$1;
#X obj 183 154 lop~ 10000;
#X obj 272 145 lop~ 10000;
#X obj 427 62 inlet~;
#X obj 451 187 r ext-\$1;
#X obj 410 230 *~ 0;
#X obj 235 212 *~ 3;
#X connect 0 0 3 0;
#X connect 1 0 8 0;
#X connect 1 0 11 0;
#X connect 2 0 7 0;
#X connect 2 0 12 0;
#X connect 4 0 16 0;
#X connect 5 0 6 1;
#X connect 6 0 3 0;
#X connect 7 0 3 0;
#X connect 8 0 3 0;
#X connect 9 0 8 1;
#X connect 10 0 7 1;
#X connect 11 0 4 0;
#X connect 12 0 4 1;
#X connect 13 0 15 0;
#X connect 14 0 15 1;
#X connect 15 0 3 0;
#X connect 16 0 6 0;
#X restore 455 402 pd mix;
#N canvas 0 23 450 501 pwm 0;
#X obj 140 158 abs~;
#X obj 136 129 -~ 0.5;
#X obj 140 187 *~ 2;
#X obj 139 82 phasor~ 1;
#X obj 107 29 r pwmspeed-\$1;
#X obj 228 245 sig~ 0.5;
#X obj 140 225 -~ 0.5;
#X obj 250 85 r pwmdepth-\$1;
#X obj 153 304 outlet~;
#X obj 144 280 *~ 0;
#X obj 75 95 osc~ 1;
#X obj 79 147 *~ 0.5;
#X connect 0 0 2 0;
#X connect 1 0 0 0;
#X connect 2 0 6 0;
#X connect 3 0 1 0;
#X connect 4 0 3 0;
#X connect 4 0 10 0;
#X connect 5 0 8 0;
#X connect 7 0 9 1;
#X connect 9 0 8 0;
#X connect 10 0 11 0;
#X connect 11 0 9 0;
#X restore 380 287 pd pwm;
#X obj 232 261 vline~;
#X msg 311 183 0;
#X obj 278 154 bng 15 250 50 0 empty empty empty 17 7 0 10 -262144
-1 -1;
#X obj 270 180 f 0;
#X obj 227 206 list 0;
#X obj 308 157 r portamento-\$1;
#X obj 712 52 inlet~;
#X obj 882 520 / 10;
#X obj 871 487 r amod_depth-\$1;
#X obj 630 131 *~ 5;
#X obj 750 659 lop~ 5;
#X obj 332 66 t b f;
#X obj 171 490 r bp_wave-osc1-\$1;
#X obj 289 708 s aux-label-\$1;
#X obj 255 575 sel 0 1 2 3;
#X msg 185 602 Osc: Sine;
#X msg 252 618 Osc: Saw;
#X obj 312 494 r bp_wave-osc2-\$1;
#X msg 336 634 Osc: Sqr;
#X msg 385 601 Osc: Tri;
#X connect 0 0 5 0;
#X connect 2 0 31 0;
#X connect 3 0 1 0;
#X connect 4 0 2 0;
#X connect 5 0 25 0;
#X connect 6 0 32 0;
#X connect 7 0 15 1;
#X connect 8 0 14 1;
#X connect 9 0 14 0;
#X connect 10 0 8 0;
#X connect 10 0 7 0;
#X connect 11 0 10 0;
#X connect 11 0 17 0;
#X connect 11 0 12 0;
#X connect 12 0 13 0;
#X connect 13 0 4 0;
#X connect 13 0 14 2;
#X connect 13 0 16 1;
#X connect 13 0 18 1;
#X connect 14 0 15 0;
#X connect 15 0 3 0;
#X connect 16 0 19 0;
#X connect 17 0 22 0;
#X connect 17 1 23 0;
#X connect 18 0 16 2;
#X connect 18 0 19 1;
#X connect 19 0 9 0;
#X connect 20 0 16 3;
#X connect 20 0 18 2;
#X connect 21 0 16 0;
#X connect 21 0 18 0;
#X connect 21 0 14 3;
#X connect 22 0 25 1;
#X connect 23 0 24 0;
#X connect 24 0 25 1;
#X connect 25 0 21 0;
#X connect 26 0 24 1;
#X connect 27 0 30 0;
#X connect 28 0 4 1;
#X connect 29 0 28 0;
#X connect 30 0 19 2;
#X connect 31 0 3 1;
#X connect 32 0 5 0;
#X connect 32 1 5 1;
#X connect 33 0 35 0;
#X connect 35 0 36 0;
#X connect 35 1 37 0;
#X connect 35 2 39 0;
#X connect 35 3 40 0;
#X connect 36 0 34 0;
#X connect 37 0 34 0;
#X connect 38 0 35 0;
#X connect 39 0 34 0;
#X connect 40 0 34 0;
