#N canvas 30 67 426 268 10;
#X obj 150 12 r loaddefs-\$1;
#X msg 150 68 loaddefinitions \$1;
#X obj 15 32 r loadbang-\$1;
#X obj 202 40 print loading definiton for \$1;
#X obj 150 50 symbol;
#X obj 20 96 s aux-label-\$1;
#X obj 62 60 int 0;
#X obj 62 78 s aux-led-\$1;
#X obj 20 78 symbol;
#X obj 15 142 inlet~ inL-\$1;
#X obj 108 142 inlet~ inR-\$1;
#X obj 15 214 outlet~ OutL-\$1;
#X obj 108 196 outlet~ OutR-\$1;
#N canvas 814 50 572 998 supercompress 0;
#X msg 352 363 knee 0;
#X msg 384 93 ratio 100;
#X obj 65 232 tb_peakcomp~;
#X obj 209 232 tb_peakcomp~;
#X obj 352 35 delay 100;
#X obj 352 223 delay 100;
#X msg 368 279 ratio 100;
#X obj 234 400 tb_peakcomp~;
#X obj 80 400 tb_peakcomp~;
#X msg 384 167 knee 1;
#X obj 335 17 bng 15 250 50 0 empty empty empty 17 7 0 10 -262144 -1
-1;
#X obj 209 524 *~;
#X obj 65 525 *~;
#X msg 384 65 threshold 0;
#X msg 384 195 makeup -6;
#X msg 368 335 release 7;
#X msg 368 251 threshold -6;
#X obj 65 611 *~ 3.5;
#X obj 209 611 *~ 3.5;
#X msg 368 307 attack 1;
#X obj 352 17 r loadbang-\$1;
#X obj 65 17 inlet~;
#X obj 209 17 inlet~;
#X obj 65 629 outlet~;
#X obj 209 629 outlet~;
#X obj 65 458 delwrite~ L-\$1 10;
#X obj 65 497 delread~ L-\$1 1;
#X obj 209 458 delwrite~ R-\$1 10;
#X obj 209 496 delread~ R-\$1 1;
#X obj 251 81 bng 15 250 50 0 empty empty empty 17 7 0 10 -262144 -1
-1;
#X obj 272 875 int;
#X obj 197 803 i;
#X msg 197 1082 /oled/gFlip 3;
#X obj 228 1008 f;
#X obj 197 821 + 2;
#X obj 197 749 / 100;
#X obj 197 731 -;
#X obj 185 703 f;
#X obj 197 767 + 1;
#X obj 197 785 * 600;
#X obj 272 911 int;
#X obj 185 442 +;
#X obj 185 460 / 2;
#X obj 272 893 - 100;
#X obj 134 250 env~;
#X obj 278 250 env~;
#X obj 278 268 + 0.01;
#X obj 134 268 + 0.01;
#X obj 149 428 env~;
#X obj 303 428 env~;
#X obj 185 657 snapshot~;
#X obj 185 478 sig~;
#X obj 185 675 t b f f;
#X msg 384 139 release \$1;
#X obj 347 459 sel \$1;
#X msg 408 615 stop;
#X obj 347 441 unpack s s;
#X obj 347 423 r activePage;
#X obj 359 559 &&;
#X msg 404 495 1;
#X msg 521 477 0;
#X obj 359 587 sel 1 0;
#X msg 347 497 1;
#X msg 380 477 0;
#X obj 404 459 sel pg_supercompress;
#X obj 65 134 *~;
#X obj 209 134 *~;
#X obj 107 71 pack 0 100;
#X obj 107 89 line;
#X obj 197 839 min 125;
#X msg 272 929 \; screenLine5 Attenuation \$1db;
#X msg 228 1026 /oled/gFillArea 3 2 42 \$1 5 0;
#X msg 212 1054 /oled/gFillArea 3 2 42 \$1 5 1;
#X msg 257 968 /oled/gPrintln 3 2 43 8 1 _____________________;
#X obj 197 857 t b f f b b b;
#X msg 384 121 100;
#X obj 115 543 / 100;
#X obj 107 17 r compression-\$1;
#X obj 209 593 *~;
#X obj 65 593 *~;
#X obj 115 525 r volume-\$1;
#X obj 251 17 r reaction-\$1;
#X obj 107 53 + 1;
#X obj 107 35 / 11.1111;
#X obj 115 561 pack 0 100;
#X obj 115 579 line;
#X obj 107 107 t f f;
#X obj 359 643 metro 40;
#X obj 338 615 delay 500;
#X obj 251 35 pack 0 100;
#X obj 251 53 line;
#X obj 13 1120 s oscOutRaw;
#X connect 0 0 7 0;
#X connect 0 0 8 0;
#X connect 1 0 2 0;
#X connect 1 0 3 0;
#X connect 2 0 8 0;
#X connect 2 0 8 1;
#X connect 2 0 25 0;
#X connect 2 2 44 0;
#X connect 3 0 7 0;
#X connect 3 0 7 1;
#X connect 3 0 27 0;
#X connect 3 2 45 0;
#X connect 4 0 13 0;
#X connect 4 0 1 0;
#X connect 4 0 9 0;
#X connect 4 0 5 0;
#X connect 4 0 14 0;
#X connect 4 0 75 0;
#X connect 5 0 0 0;
#X connect 5 0 16 0;
#X connect 5 0 6 0;
#X connect 5 0 15 0;
#X connect 5 0 19 0;
#X connect 6 0 8 0;
#X connect 6 0 7 0;
#X connect 7 2 11 1;
#X connect 7 2 49 0;
#X connect 8 2 12 1;
#X connect 8 2 48 0;
#X connect 9 0 2 0;
#X connect 9 0 3 0;
#X connect 10 0 4 0;
#X connect 11 0 78 0;
#X connect 12 0 79 0;
#X connect 13 0 2 0;
#X connect 13 0 3 0;
#X connect 14 0 3 0;
#X connect 14 0 2 0;
#X connect 15 0 7 0;
#X connect 15 0 8 0;
#X connect 16 0 8 0;
#X connect 16 0 7 0;
#X connect 17 0 23 0;
#X connect 18 0 24 0;
#X connect 19 0 7 0;
#X connect 19 0 8 0;
#X connect 20 0 4 0;
#X connect 21 0 65 0;
#X connect 22 0 66 0;
#X connect 26 0 12 0;
#X connect 28 0 11 0;
#X connect 29 0 13 0;
#X connect 29 0 1 0;
#X connect 29 0 9 0;
#X connect 29 0 14 0;
#X connect 29 0 5 0;
#X connect 30 0 43 0;
#X connect 31 0 34 0;
#X connect 32 0 91 0;
#X connect 33 0 71 0;
#X connect 34 0 69 0;
#X connect 35 0 38 0;
#X connect 36 0 35 0;
#X connect 37 0 36 0;
#X connect 38 0 39 0;
#X connect 39 0 31 0;
#X connect 40 0 70 0;
#X connect 41 0 42 0;
#X connect 42 0 51 0;
#X connect 43 0 40 0;
#X connect 44 0 47 0;
#X connect 45 0 46 0;
#X connect 46 0 41 1;
#X connect 47 0 41 0;
#X connect 48 0 41 0;
#X connect 49 0 41 1;
#X connect 50 0 52 0;
#X connect 51 0 50 0;
#X connect 52 0 37 0;
#X connect 52 1 36 1;
#X connect 52 2 30 1;
#X connect 53 0 2 0;
#X connect 53 0 3 0;
#X connect 54 0 62 0;
#X connect 54 1 63 0;
#X connect 55 0 87 0;
#X connect 56 0 54 0;
#X connect 56 1 64 0;
#X connect 57 0 56 0;
#X connect 58 0 61 0;
#X connect 59 0 58 1;
#X connect 60 0 58 1;
#X connect 61 0 88 0;
#X connect 61 1 55 0;
#X connect 62 0 58 0;
#X connect 63 0 58 0;
#X connect 64 0 59 0;
#X connect 64 1 60 0;
#X connect 65 0 2 0;
#X connect 65 0 2 1;
#X connect 66 0 3 0;
#X connect 66 0 3 1;
#X connect 67 0 68 0;
#X connect 68 0 86 0;
#X connect 69 0 74 0;
#X connect 71 0 91 0;
#X connect 72 0 91 0;
#X connect 73 0 91 0;
#X connect 74 0 32 0;
#X connect 74 1 72 0;
#X connect 74 2 33 1;
#X connect 74 3 33 0;
#X connect 74 4 73 0;
#X connect 74 5 30 0;
#X connect 75 0 53 0;
#X connect 76 0 84 0;
#X connect 77 0 83 0;
#X connect 78 0 18 0;
#X connect 79 0 17 0;
#X connect 80 0 76 0;
#X connect 81 0 89 0;
#X connect 82 0 67 0;
#X connect 83 0 82 0;
#X connect 84 0 85 0;
#X connect 85 0 78 1;
#X connect 85 0 79 1;
#X connect 86 0 65 1;
#X connect 86 1 66 1;
#X connect 87 0 50 0;
#X connect 88 0 87 0;
#X connect 89 0 90 0;
#X connect 90 0 29 0;
#X connect 90 0 53 0;
#X restore 15 160 pd supercompress;
#X obj 15 114 print loaded:supercompress into \$1;
#X obj 150 86 KontrolModule \$1 supercompress;
#X obj 108 178 /~ 3;
#X obj 15 196 /~ 3;
#X connect 0 0 4 0;
#X connect 0 0 3 0;
#X connect 1 0 15 0;
#X connect 2 0 6 0;
#X connect 2 0 8 0;
#X connect 2 0 14 0;
#X connect 4 0 1 0;
#X connect 6 0 7 0;
#X connect 8 0 5 0;
#X connect 9 0 13 0;
#X connect 10 0 13 1;
#X connect 13 0 17 0;
#X connect 13 1 16 0;
#X connect 16 0 12 0;
#X connect 17 0 11 0;
